<svg id="Layer_1" data-name="Layer 1" xmlns="http://www.w3.org/2000/svg" viewBox="0 0 86.12 86.26"><defs><style>.cls-1{fill:#727e8b;}.cls-2{fill:#35414d;}.cls-2,.cls-3,.cls-8{fill-rule:evenodd;}.cls-3,.cls-5{fill:#fff;}.cls-4{opacity:0.3;}.cls-6{opacity:0.2;}.cls-7,.cls-8{fill:#94a2a9;}</style></defs><title>console-graphics</title><g id="Ellipse_1" data-name="Ellipse 1"><ellipse class="cls-1" cx="43.06" cy="43.13" rx="43.06" ry="43.13"/></g><g id="Rounded_Rectangle_1" data-name="Rounded Rectangle 1"><path class="cls-2" d="M23.85,28.73V82.56A43.1,43.1,0,0,0,82.61,23.73H28.85A5,5,0,0,0,23.85,28.73Z" transform="translate(-2.17 -2)"/></g><g id="Rounded_Rectangle_1_copy_5" data-name="Rounded Rectangle 1 copy 5"><path class="cls-3" d="M33.85,86.72a43.12,43.12,0,0,0,48.76-63H33.85v63Z" transform="translate(-2.17 -2)"/></g><g id="Rounded_Rectangle_7" data-name="Rounded Rectangle 7" class="cls-4"><path class="cls-5" d="M30.17,31h0v2h-2V31h2m0,6h0v2h-2V37h2m0,6h0v2h-2V43h2m0,6h0v2h-2V49h2m0,6h0v2h-2V55h2m0-25h-2a1,1,0,0,0-1,1v2a1,1,0,0,0,1,1h2a1,1,0,0,0,1-1V31a1,1,0,0,0-1-1h0Zm0,6h-2a1,1,0,0,0-1,1v2a1,1,0,0,0,1,1h2a1,1,0,0,0,1-1V37a1,1,0,0,0-1-1h0Zm0,6h-2a1,1,0,0,0-1,1v2a1,1,0,0,0,1,1h2a1,1,0,0,0,1-1V43a1,1,0,0,0-1-1h0Zm0,6h-2a1,1,0,0,0-1,1v2a1,1,0,0,0,1,1h2a1,1,0,0,0,1-1V49a1,1,0,0,0-1-1h0Zm0,6h-2a1,1,0,0,0-1,1v2a1,1,0,0,0,1,1h2a1,1,0,0,0,1-1V55a1,1,0,0,0-1-1h0Z" transform="translate(-2.17 -2)"/></g><g id="Rounded_Rectangle_8" data-name="Rounded Rectangle 8" class="cls-6"><rect class="cls-7" x="37.5" y="28.5" width="36.5" height="20" rx="1" ry="1"/></g><g id="Rounded_Rectangle_8_copy" data-name="Rounded Rectangle 8 copy" class="cls-6"><rect class="cls-7" x="37.5" y="53" width="36.5" height="20" rx="1" ry="1"/></g><g id="Rounded_Rectangle_8_copy_2" data-name="Rounded Rectangle 8 copy 2" class="cls-6"><path class="cls-8" d="M87.14,55h-6a1,1,0,0,0-1,1V70.32A43,43,0,0,0,87.14,55Z" transform="translate(-2.17 -2)"/></g></svg>