<svg id="Layer_1" data-name="Layer 1" xmlns="http://www.w3.org/2000/svg" viewBox="0 0 86.12 86.26"><defs><style>.cls-1{fill:#66b25e;}.cls-2{fill:#35414d;}.cls-2,.cls-3,.cls-4{fill-rule:evenodd;}.cls-3{fill:#90b1d3;}.cls-4{fill:#6ca943;}</style></defs><title>invite-graphics</title><g id="Ellipse_1" data-name="Ellipse 1"><ellipse class="cls-1" cx="43.06" cy="43.13" rx="43.06" ry="43.13"/></g><g id="Rounded_Rectangle_1" data-name="Rounded Rectangle 1"><path class="cls-2" d="M24.18,28.73V82.56A43.1,43.1,0,0,0,82.94,23.73H29.18A5,5,0,0,0,24.18,28.73Z" transform="translate(-2.5 -2)"/></g><g id="Forma_1" data-name="Forma 1"><path class="cls-3" d="M67.93,72.13a6.35,6.35,0,1,0-3.68-5.85A7.88,7.88,0,0,1,67.93,72.13Zm5.4,1H68a7.83,7.83,0,0,1-2.43,5.46,9.7,9.7,0,0,1,4,2.34,43.3,43.3,0,0,0,7.82-6.74A8.13,8.13,0,0,0,73.33,73.16ZM60.07,79.29a6.36,6.36,0,1,0-6.38-6.36A6.37,6.37,0,0,0,60.07,79.29Zm-2.71.43a8.17,8.17,0,0,0-8.17,8.14v0.22a42.75,42.75,0,0,0,19-6.29,8.14,8.14,0,0,0-5.43-2.08H57.36Zm-8.49-7a6.35,6.35,0,0,0,3.39-1,7.87,7.87,0,0,1,3-5c0-.12,0-0.24,0-0.36A6.38,6.38,0,1,0,48.88,72.73Zm5.73,5.89a7.83,7.83,0,0,1-2.42-5.43c-0.2,0-.4,0-0.6,0H46.17A8.17,8.17,0,0,0,38,81.3v6.28a43.21,43.21,0,0,0,7.56.68c0.71,0,1.41,0,2.11-.05V87.88A9.68,9.68,0,0,1,54.61,78.62Z" transform="translate(-2.5 -2)"/></g><g id="Shape_1" data-name="Shape 1"><path class="cls-4" d="M67.07,38.93A10,10,0,1,0,70,46,9.94,9.94,0,0,0,67.07,38.93ZM60,54.89A8.89,8.89,0,1,1,68.9,46,8.91,8.91,0,0,1,60,54.89Zm2.34-11.2L58.9,47.13,57.66,45.9a0.55,0.55,0,1,0-.78.78l1.62,1.62a0.56,0.56,0,0,0,.39.16,0.54,0.54,0,0,0,.39-0.16l3.83-3.83A0.55,0.55,0,0,0,62.34,43.69Z" transform="translate(-2.5 -2)"/></g></svg>