<svg xmlns="http://www.w3.org/2000/svg" viewBox="0 0 29.72 29.72"><defs><style>.cls-1{isolation:isolate;}.cls-2{fill:#f60;fill-rule:evenodd;}</style></defs><title>icon-setting</title><g id="Forma_1" data-name="Forma 1" class="cls-1"><g id="Forma_1-2" data-name="Forma 1"><path class="cls-2" d="M16.06,10.08a5.59,5.59,0,1,0,5.61,5.59A5.61,5.61,0,0,0,16.06,10.08Zm0,9.94a4.35,4.35,0,1,1,4.37-4.35A4.37,4.37,0,0,1,16.06,20Zm14.26-6.49A1.85,1.85,0,0,0,29,13H28.15a12.5,12.5,0,0,0-1-2.62C27,10.07,26.87,9.8,26.72,9.55L27.3,9a1.82,1.82,0,0,0,.54-1.37,1.82,1.82,0,0,0-.54-1.35L25.72,4.69a1.91,1.91,0,0,0-2.63,0l-0.6.6A12.37,12.37,0,0,0,19,3.84V3a1.86,1.86,0,0,0-1.86-1.85H14.89A1.86,1.86,0,0,0,13,3V3.85A12.4,12.4,0,0,0,9.52,5.29l-0.6-.6a1.91,1.91,0,0,0-2.63,0L4.71,6.26a1.79,1.79,0,0,0-.54,1.3A1.85,1.85,0,0,0,4.71,9L5.28,9.55C5.13,9.8,5,10.07,4.84,10.36a12.56,12.56,0,0,0-1,2.62H3a1.86,1.86,0,0,0-1.86,1.85v2.32A1.86,1.86,0,0,0,3,19H3.86a12.59,12.59,0,0,0,1,2.62c0.15,0.29.29,0.56,0.44,0.81L4.71,23a2,2,0,0,0,0,2.72l1.57,1.57a1.91,1.91,0,0,0,2.63,0l0.6-.6A12.41,12.41,0,0,0,13,28.15V29a1.86,1.86,0,0,0,1.86,1.85h2.23A1.86,1.86,0,0,0,19,29V28.16a12.37,12.37,0,0,0,3.51-1.45l0.6,0.6a1.91,1.91,0,0,0,2.63,0l1.57-1.57a1.78,1.78,0,0,0,.54-1.3A1.85,1.85,0,0,0,27.29,23l-0.57-.57c0.15-.25.29-0.52,0.44-0.81a12.36,12.36,0,0,0,1-2.62H29a1.86,1.86,0,0,0,1.86-1.85V14.84A1.84,1.84,0,0,0,30.32,13.53Zm-0.69,3.63a0.62,0.62,0,0,1-.62.62H27.65a0.62,0.62,0,0,0-.61.5,11.18,11.18,0,0,1-1,2.81,11.33,11.33,0,0,1-.64,1.12,0.62,0.62,0,0,0,.08.78l0.92,0.91a0.65,0.65,0,0,1,.18.53,0.6,0.6,0,0,1-.18.45l-1.57,1.57a0.64,0.64,0,0,1-.88,0l-1-1a0.62,0.62,0,0,0-.78-0.08,11.16,11.16,0,0,1-4,1.65,0.62,0.62,0,0,0-.5.61V29a0.62,0.62,0,0,1-.62.62H14.89A0.62,0.62,0,0,1,14.27,29V27.66a0.62,0.62,0,0,0-.5-0.61,11.19,11.19,0,0,1-4-1.65,0.62,0.62,0,0,0-.78.08l-1,1a0.64,0.64,0,0,1-.88,0L5.58,24.86a0.65,0.65,0,0,1-.18-0.5,0.61,0.61,0,0,1,.18-0.47L6.5,23a0.62,0.62,0,0,0,.08-0.78A11.72,11.72,0,0,1,5,18.27a0.62,0.62,0,0,0-.61-0.5H3a0.62,0.62,0,0,1-.62-0.62V14.84A0.62,0.62,0,0,1,3,14.22H4.36A0.62,0.62,0,0,0,5,13.73,11.73,11.73,0,0,1,6.58,9.8,0.62,0.62,0,0,0,6.5,9L5.58,8.11a0.65,0.65,0,0,1-.17-0.52,0.61,0.61,0,0,1,.17-0.45L7.16,5.57a0.64,0.64,0,0,1,.88,0l1,1a0.62,0.62,0,0,0,.78.08,11.2,11.2,0,0,1,4-1.65,0.62,0.62,0,0,0,.5-0.61V3a0.62,0.62,0,0,1,.62-0.62h2.23a0.62,0.62,0,0,1,.62.62V4.34a0.62,0.62,0,0,0,.5.61,11.17,11.17,0,0,1,4,1.65A0.62,0.62,0,0,0,23,6.52l1-1a0.64,0.64,0,0,1,.88,0l1.57,1.57a0.65,0.65,0,0,1,.18.5,0.61,0.61,0,0,1-.18.47L25.5,9a0.62,0.62,0,0,0-.08.78,11.39,11.39,0,0,1,.64,1.12,11.06,11.06,0,0,1,1,2.81,0.62,0.62,0,0,0,.61.5H29a0.62,0.62,0,0,1,.62.62v2.32Z" transform="translate(-1.14 -1.14)"/></g></g></svg>