<?xml version="1.0" encoding="utf-8"?>
<!-- Generator: Adobe Illustrator 19.2.1, SVG Export Plug-In . SVG Version: 6.00 Build 0)  -->
<svg version="1.1" id="Layer_1" xmlns="http://www.w3.org/2000/svg" xmlns:xlink="http://www.w3.org/1999/xlink" x="0px" y="0px"
	 viewBox="0 0 32 32" style="enable-background:new 0 0 32 32;" xml:space="preserve">
<style type="text/css">
	.st0{fill:#00A1D7;}
	.st1{fill:#FD9F2E;}
	.st2{fill:#8EC44A;}
</style>
<title>icon-rdbms</title>
<g id="Forma_1_copy_3">
	<g id="Forma_1_copy-2">
		<path class="st0" d="M18.8,12.3c-3,0-5.4-1-5.4-2.2v2.2c0,1.2,2.4,2.2,5.4,2.2s5.4-1,5.4-2.2v-2.2C24.1,11.3,21.7,12.3,18.8,12.3z
			 M18.8,4.7c-3,0-5.4,1-5.4,2.2V9c0,1.2,2.4,2.2,5.4,2.2s5.4-1,5.4-2.2V6.8C24.1,5.6,21.7,4.7,18.8,4.7z M18.8,8.5
			c-2.9,0-4.8-0.9-4.8-1.6s1.9-1.6,4.8-1.6s4.8,1,4.8,1.6S21.7,8.5,18.8,8.5L18.8,8.5z"/>
	</g>
	<g id="Forma_1-2">
		<path class="st1" d="M25.2,24.2c-3.7,0-6.6-1.2-6.6-2.7v2.7c0,1.5,3,2.7,6.6,2.7s6.6-1.2,6.6-2.7v-2.7
			C31.8,23,28.9,24.2,25.2,24.2z M25.2,14.7c-3.7,0-6.6,1.2-6.6,2.7v2.7c0,1.5,3,2.7,6.6,2.7s6.6-1.2,6.6-2.7v-2.7
			C31.8,15.9,28.9,14.7,25.2,14.7L25.2,14.7z M25.2,19.4c-3.6,0-6-1.2-6-2s2.3-2,6-2s6,1.2,6,2S28.8,19.5,25.2,19.4L25.2,19.4z"/>
	</g>
	<g id="Forma_1_copy_2-2">
		<rect x="13.2" y="18.8" class="st2" width="5.3" height="1"/>
	</g>
	<g id="Forma_1_copy_4-2">
		<polygon class="st1" points="23.7,11.5 22.8,11.9 25.8,14.9 27.1,14.9 		"/>
	</g>
	<g id="Forma_1_copy_5-2">
		
			<rect x="9" y="8.5" transform="matrix(1 -8.901061e-03 8.901061e-03 1 -7.964147e-02 0.1008)" class="st0" width="4.6" height="1"/>
	</g>
	<g id="Forma_1_copy_6-2">
		<polygon class="st0" points="9,8.5 4.5,10.9 5.9,11.4 9.5,9.4 		"/>
	</g>
	<g id="Forma_1_copy_3-2">
		<path class="st2" d="M6.8,20.4c-3.7,0-6.6-1.3-6.6-2.8v2.8c0,1.5,3,2.8,6.6,2.8s6.6-1.3,6.6-2.8v-2.8
			C13.4,19.1,10.5,20.4,6.8,20.4z M6.8,24.6c-3.7,0-6.6-1.3-6.6-2.8v2.8c0,1.5,3,2.8,6.6,2.8s6.6-1.3,6.6-2.8v-2.8
			C13.4,23.3,10.5,24.6,6.8,24.6L6.8,24.6z M6.8,10.6c-3.7,0-6.6,1.3-6.6,2.8v2.8c0,1.5,3,2.8,6.6,2.8s6.6-1.3,6.6-2.8v-2.8
			C13.4,11.9,10.5,10.6,6.8,10.6L6.8,10.6z M6.8,15.5c-3.6,0-6-1.2-6-2.1c0-0.8,2.3-2.1,6-2.1s6,1.3,6,2.1
			C12.8,14.2,10.4,15.5,6.8,15.5L6.8,15.5z"/>
	</g>
</g>
</svg>
