<?xml version="1.0" encoding="utf-8"?>
<!-- Generator: Adobe Illustrator 19.2.1, SVG Export Plug-In . SVG Version: 6.00 Build 0)  -->
<svg version="1.1" xmlns="http://www.w3.org/2000/svg" xmlns:xlink="http://www.w3.org/1999/xlink" x="0px" y="0px"
	 viewBox="0 0 32 32" style="enable-background:new 0 0 32 32;" xml:space="preserve">
<style type="text/css">
	.st0{enable-background:new    ;}
	.st1{fill-rule:evenodd;clip-rule:evenodd;fill:#00A3D7;}
	.st2{fill-rule:evenodd;clip-rule:evenodd;fill:#FFFFFF;}
</style>
<g id="Rounded_Rectangle_9_copy_1_" class="st0">
	<g id="Rounded_Rectangle_9_copy">
		<g>
			<path class="st1" d="M30.2,0H1.8C0.8,0,0,0.8,0,1.8v28.4c0,1,0.8,1.8,1.8,1.8h28.3c1,0,1.8-0.8,1.8-1.8V1.8C32,0.8,31.2,0,30.2,0
				z"/>
		</g>
	</g>
	<g id="Forma_1">
		<g>
			<path class="st2" d="M17.9,17.6c-1.1,0-1.9-0.9-1.9-1.9c0-0.3,0.1-0.6,0.2-0.8c0,0-0.1,0-0.1,0c-1.5,0-2.7,1.2-2.7,2.7
				c0,1.5,1.2,2.7,2.7,2.7s2.7-1.2,2.7-2.7c0,0,0-0.1,0-0.1C18.4,17.6,18.2,17.6,17.9,17.6z M8.8,11.2c2.2-1.3,4.6-2,7.2-2
				c2.5,0,5,0.7,7.2,2c0.9,0.5,1.7,1.2,2.5,1.9l0.9-1c-0.8-0.8-1.8-1.5-2.7-2.1c-2.4-1.4-5.1-2.1-7.9-2.1c-2.8,0-5.5,0.7-7.9,2.1
				c-1,0.6-1.9,1.3-2.7,2.1l0.9,1C7.1,12.4,7.9,11.7,8.8,11.2z M26.7,17.2c-1.1-1.8-2.6-3.4-4.4-4.5C20.4,11.6,18.2,11,16,11
				s-4.4,0.6-6.3,1.7c-1.8,1.1-3.4,2.6-4.4,4.5l-0.2,0.3l0.2,0.3c1.1,1.8,2.6,3.4,4.4,4.5c1.9,1.1,4.1,1.7,6.3,1.7s4.4-0.6,6.3-1.7
				c1.8-1.1,3.4-2.6,4.4-4.5l0.2-0.3L26.7,17.2z M10.7,21.4c-1.6-0.9-3.1-2.2-4.1-3.8c1-1.6,2.4-2.9,4.1-3.8
				c-0.8,1.1-1.3,2.4-1.3,3.8C9.5,19,9.9,20.3,10.7,21.4z M16,22.7c-2.9,0-5.2-2.3-5.2-5.2c0-2.9,2.3-5.2,5.2-5.2s5.2,2.3,5.2,5.2
				C21.2,20.4,18.9,22.7,16,22.7z M21.3,21.4c0.8-1.1,1.3-2.4,1.3-3.8c0-1.4-0.5-2.8-1.3-3.8c1.6,0.9,3.1,2.2,4.1,3.8
				C24.3,19.2,22.9,20.5,21.3,21.4z"/>
		</g>
	</g>
</g>
<g id="Forma_1_1_" class="st0">
</g>
</svg>
