<?xml version="1.0" encoding="utf-8"?>
<!-- Generator: Adobe Illustrator 19.2.1, SVG Export Plug-In . SVG Version: 6.00 Build 0)  -->
<svg version="1.1" id="Layer_1" xmlns="http://www.w3.org/2000/svg" xmlns:xlink="http://www.w3.org/1999/xlink" x="0px" y="0px"
	 viewBox="0 0 32 32" style="enable-background:new 0 0 32 32;" xml:space="preserve">
<style type="text/css">
	.st0{fill:#009DDC;}
</style>
<g>
	<g id="account-box">
		<path class="st0" d="M0.3,3.8v24.4c0,1.9,1.6,3.5,3.5,3.5h24.4c1.9,0,3.5-1.6,3.5-3.5V3.8c0-1.9-1.6-3.5-3.5-3.5H3.8
			C1.9,0.3,0.3,1.9,0.3,3.8z M21.2,10.8c0,3-2.3,5.2-5.2,5.2s-5.2-2.3-5.2-5.2S13,5.6,16,5.6S21.2,7.8,21.2,10.8z M5.6,24.7
			c0-3.5,7-5.4,10.4-5.4s10.4,1.9,10.4,5.4v1.7H5.6V24.7z"/>
	</g>
</g>
</svg>
