<?xml version="1.0" encoding="utf-8"?>
<!-- Generator: Adobe Illustrator 19.2.1, SVG Export Plug-In . SVG Version: 6.00 Build 0)  -->
<svg version="1.1" xmlns="http://www.w3.org/2000/svg" xmlns:xlink="http://www.w3.org/1999/xlink" x="0px" y="0px"
	 viewBox="0 0 32 32" style="enable-background:new 0 0 32 32;" xml:space="preserve">
<style type="text/css">
	.st0{display:none;}
	.st1{display:inline;}
	.st2{fill:#27AAE1;}
	.st3{fill:#F9A350;}
	.st4{fill:#9E9E9E;}
</style>
<g id="Layer_1" class="st0">
	<g class="st1">
		<path class="st2" d="M24,7.7c-2.5-2.7-6-4.1-9.7-4.1l0,0h-0.2h-0.2h-0.5l0,0c-3.7,0-7.2,1.7-9.7,4.1c-2,2.4-3.5,5.1-3.5,8.3l0,0
			v0.5V17l0,0c0.2,3.2,1.2,6.1,3.5,8.3c2.5,2.7,6,4.1,9.7,4.1l0,0h0.2h0.2h0.2l0,0c0.2,0,0.2,0,0.2,0c-0.7-0.2-1.7-0.5-2.2-1
			c-3-0.2-5.5-1.7-7.7-3.9c1-1,1.7-1.7,3-2.2c0.7,1.7,1.7,3.2,3.2,4.6c-0.2-0.2-0.2-0.7-0.2-1.2c-1-1.2-1.7-2.2-2.2-3.7
			c1.7-0.7,3.5-1.2,5.2-1.2c0.2-0.2,0.7-0.7,1-1v-3.7h0.7c0-0.2,0-0.5,0-0.7h-0.5v-3.7c0.5,0,1.2,0,1.7-0.2c0.2-0.2,0.5-0.7,0.7-1
			c-0.7,0.2-1.2,0.2-2.2,0.2V3.8C16.5,5,18.3,6.7,19,8.4c0.2-0.2,0.5-0.2,0.7-0.5c-1.2-2.2-2.5-3.7-4.2-4.6c3,0.2,6,1.7,8.2,3.7
			 M13.3,20.4c-1.7,0-3.7,0.5-5.2,1.2c-0.7-1.7-1-3.2-1-4.6h6.2V20.4L13.3,20.4z M13.3,16H7.1c0-1.7,0.2-3.4,1-4.6
			c1.7,0.7,3.5,1.2,5.2,1.2V16L13.3,16z M13.3,11.9c-1.7,0-3.5-0.5-5.2-1.2c1.2-2.4,3-4.6,5.2-5.9V11.9z M12.8,4
			c-2.2,1.7-4,3.7-5.2,6.1C6.4,9.4,5.4,8.9,4.6,8C6.9,6,9.6,4.5,12.8,4z M4.1,8.4c1,1,2.2,1.7,3.2,2.4c-0.7,1.7-1,3.4-1.2,5.1H0.9
			C1.4,13.3,2.4,10.6,4.1,8.4z M1.1,16.7h5.2c0,1.7,0.5,3.7,1.2,5.1c-1.2,0.7-2.2,1.7-3.2,2.4C2.4,22.3,1.4,19.7,1.1,16.7z"/>
		<g id="User_1_">
			<g>
				<path class="st3" d="M21,22.8c3.4,0,6-3.4,6-7.4c0-4.3-2.8-7.4-6-7.4c-1.4,0-3.1,0.9-4.3,2.6c-1.1,1.4-2,3.4-2,5.4
					C15.1,19.7,17.6,22.8,21,22.8z M21,9.4c2.6,0,4.8,2.9,4.8,6s-2,6-4.8,6c-2.6,0-4.8-2.9-4.8-6S18.5,9.4,21,9.4z M25.9,21.4
					c-0.3,0-0.9,0.3-0.9,0.9c0,0.3,0.3,0.9,0.9,0.9c2.6,0,4.8,2,4.8,4.9c0,0.3-0.3,0.9-0.9,0.9H12.2c-0.3,0-0.9-0.3-0.9-0.9
					c0-2.6,2-4.9,4.8-4.9c0.3,0,0.9-0.3,0.9-0.9c0-0.3-0.3-0.9-0.9-0.9c-3.4,0-6,2.9-6,6c0,1.1,0.9,2,2,2h17.6c1.1,0,2-0.9,2-2
					C31.8,24.3,29,21.4,25.9,21.4z"/>
			</g>
		</g>
	</g>
</g>
<g id="Layer_2">
	<g>
		<path class="st4" d="M24,7.7c-2.5-2.7-6-4.1-9.7-4.1l0,0h-0.2h-0.2h-0.5l0,0c-3.7,0-7.2,1.7-9.7,4.1c-2,2.4-3.5,5.1-3.5,8.3l0,0
			v0.5V17l0,0c0.2,3.2,1.2,6.1,3.5,8.3c2.5,2.7,6,4.1,9.7,4.1l0,0h0.2h0.2h0.2l0,0c0.2,0,0.2,0,0.2,0c-0.7-0.2-1.7-0.5-2.2-1
			c-3-0.2-5.5-1.7-7.7-3.9c1-1,1.7-1.7,3-2.2c0.7,1.7,1.7,3.2,3.2,4.6c-0.2-0.2-0.2-0.7-0.2-1.2c-1-1.2-1.7-2.2-2.2-3.7
			c1.7-0.7,3.5-1.2,5.2-1.2c0.2-0.2,0.7-0.7,1-1v-3.7h0.7c0-0.2,0-0.5,0-0.7h-0.5v-3.7c0.5,0,1.2,0,1.7-0.2c0.2-0.2,0.5-0.7,0.7-1
			c-0.7,0.2-1.2,0.2-2.2,0.2V3.8C16.5,5,18.3,6.7,19,8.4c0.2-0.2,0.5-0.2,0.7-0.5c-1.2-2.2-2.5-3.7-4.2-4.6c3,0.2,6,1.7,8.2,3.7
			 M13.3,20.4c-1.7,0-3.7,0.5-5.2,1.2c-0.7-1.7-1-3.2-1-4.6h6.2V20.4L13.3,20.4z M13.3,16H7.1c0-1.7,0.2-3.4,1-4.6
			c1.7,0.7,3.5,1.2,5.2,1.2V16L13.3,16z M13.3,11.9c-1.7,0-3.5-0.5-5.2-1.2c1.2-2.4,3-4.6,5.2-5.9V11.9z M12.8,4
			c-2.2,1.7-4,3.7-5.2,6.1C6.4,9.4,5.4,8.9,4.6,8C6.9,6,9.6,4.5,12.8,4z M4.1,8.4c1,1,2.2,1.7,3.2,2.4c-0.7,1.7-1,3.4-1.2,5.1H0.9
			C1.4,13.3,2.4,10.6,4.1,8.4z M1.1,16.7h5.2c0,1.7,0.5,3.7,1.2,5.1c-1.2,0.7-2.2,1.7-3.2,2.4C2.4,22.3,1.4,19.7,1.1,16.7z"/>
		<g id="User_2_">
			<g>
				<path class="st4" d="M21,22.8c3.4,0,6-3.4,6-7.4c0-4.3-2.8-7.4-6-7.4c-1.4,0-3.1,0.9-4.3,2.6c-1.1,1.4-2,3.4-2,5.4
					C15.1,19.7,17.6,22.8,21,22.8z M21,9.4c2.6,0,4.8,2.9,4.8,6s-2,6-4.8,6c-2.6,0-4.8-2.9-4.8-6S18.5,9.4,21,9.4z M25.9,21.4
					c-0.3,0-0.9,0.3-0.9,0.9c0,0.3,0.3,0.9,0.9,0.9c2.6,0,4.8,2,4.8,4.9c0,0.3-0.3,0.9-0.9,0.9H12.2c-0.3,0-0.9-0.3-0.9-0.9
					c0-2.6,2-4.9,4.8-4.9c0.3,0,0.9-0.3,0.9-0.9c0-0.3-0.3-0.9-0.9-0.9c-3.4,0-6,2.9-6,6c0,1.1,0.9,2,2,2h17.6c1.1,0,2-0.9,2-2
					C31.8,24.3,29,21.4,25.9,21.4z"/>
			</g>
		</g>
	</g>
</g>
</svg>
