<?xml version="1.0" encoding="utf-8"?>
<!-- Generator: Adobe Illustrator 19.2.1, SVG Export Plug-In . SVG Version: 6.00 Build 0)  -->
<svg version="1.1" id="Layer_1" xmlns="http://www.w3.org/2000/svg" xmlns:xlink="http://www.w3.org/1999/xlink" x="0px" y="0px"
	 viewBox="0 0 32 32" style="enable-background:new 0 0 32 32;" xml:space="preserve">
<style type="text/css">
	.st0{fill:#F8B20C;}
</style>
<g>
	<title>icon-aws-s3</title>
	<g id="Shape_3">
		<g id="Shape_3-2">
			<path class="st0" d="M4.2,12.1l-3.4,1.2l3.4,1.2l3.4-1.4L4.2,12.1z M-0.1,19.2l3.8,1.4V15l-3.8-1.2V19.2L-0.1,19.2z M4.6,15.2
				v5.4l3.9-1.4v-5.3L4.6,15.2z"/>
		</g>
	</g>
	<g id="Shape_3_copy">
		<g id="Shape_3_copy-2">
			<path class="st0" d="M9,20l-3.4,1.2L9,22.4l3.4-1.4L9,20z M4.7,27.1l3.8,1.4V23l-3.8-1.2V27.1L4.7,27.1z M9.4,23.1v5.4l3.9-1.4
				v-5.3L9.4,23.1z"/>
		</g>
	</g>
	<g id="Shape_3_copy_2">
		<g id="Shape_3_copy_2-2">
			<path class="st0" d="M13.7,12.1l-3.4,1.2l3.4,1.2l3.4-1.4L13.7,12.1z M9.4,19.2l3.8,1.4V15l-3.8-1.2V19.2L9.4,19.2z M14,15.2v5.4
				l3.9-1.4v-5.3L14,15.2z"/>
		</g>
	</g>
	<g id="Shape_3_copy_3">
		<g id="Shape_3_copy_3-2">
			<path class="st0" d="M18.5,4.1L15,5.3l3.4,1.2l3.4-1.4L18.5,4.1z M14.2,11.2l3.8,1.4V7.1l-3.8-1.2L14.2,11.2L14.2,11.2z
				 M18.8,7.2v5.4l3.9-1.4V5.9L18.8,7.2z"/>
		</g>
	</g>
	<g id="Shape_3_copy_4">
		<g id="Shape_3_copy_4-2">
			<path class="st0" d="M27.7,4.1l-3.4,1.2l3.4,1.2l3.4-1.4L27.7,4.1z M23.4,11.2l3.8,1.4V7.1l-3.8-1.2L23.4,11.2L23.4,11.2z
				 M28.1,7.2v5.4l3.9-1.4V5.9L28.1,7.2z"/>
		</g>
	</g>
</g>
</svg>
