<?xml version="1.0" encoding="utf-8"?>
<!-- Generator: Adobe Illustrator 19.2.1, SVG Export Plug-In . SVG Version: 6.00 Build 0)  -->
<svg version="1.1" id="Layer_1" xmlns="http://www.w3.org/2000/svg" xmlns:xlink="http://www.w3.org/1999/xlink" x="0px" y="0px"
	 viewBox="0 0 32 32" style="enable-background:new 0 0 32 32;" xml:space="preserve">
<style type="text/css">
	.st0{fill:#F24444;}
	.st1{fill:#FFFFFF;}
	.st2{fill:#F4423E;}
	.st3{fill:#FD4F50;}
</style>
<g id="Layer_1_1_">
	<g>
		<path class="st0" d="M0.1,0v31.8h26.7V0h-1.6v30.2H1.6V1.6h1.8v8c1-1,2-2,3-3c1,1,2,2,3,3v-8h17.3V0H0.1z"/>
		<rect x="3.4" y="25.6" class="st0" width="10" height="1.7"/>
		<rect x="19.6" y="26.8" class="st0" width="3.9" height="1.1"/>
		<rect x="3.4" y="18.9" class="st0" width="20" height="1.7"/>
		<rect x="3.4" y="22.2" class="st0" width="20" height="1.7"/>
		<rect x="3.4" y="15.6" class="st0" width="20" height="1.7"/>
		<rect x="3.4" y="12.3" class="st0" width="20" height="1.7"/>
	</g>
</g>
<g id="Layer_2">
	<g id="Ellipse_2_copy">
		<g>
			<path class="st1" d="M21.8,31c-4.9,0-8.9-4-8.9-8.9s4-8.9,8.9-8.9s8.9,4,8.9,8.9S26.7,31,21.8,31z"/>
		</g>
		<g>
			<path class="st2" d="M21.8,13.9c4.4,0,8,3.6,8,8s-3.6,7.9-8,7.9s-8-3.6-8-8S17.4,13.9,21.8,13.9 M21.8,12c-5.5,0-9.9,4.4-9.9,9.9
				s4.4,9.9,9.9,9.9s9.9-4.4,9.9-9.9S27.3,12,21.8,12L21.8,12z"/>
		</g>
	</g>
	<g id="Rounded_Rectangle_1_copy_2">
		<g>
			<path class="st3" d="M21.8,16.3c-0.7,0-1.3,0.6-1.3,1.3v5c0,0.7,0.6,1.3,1.3,1.3s1.3-0.6,1.3-1.3v-5
				C23.1,16.9,22.5,16.3,21.8,16.3z"/>
		</g>
	</g>
	<g id="Rounded_Rectangle_1_copy_3">
		<g>
			<circle class="st3" cx="21.8" cy="26.1" r="1.3"/>
		</g>
	</g>
</g>
</svg>
