<?xml version="1.0" encoding="utf-8"?>
<!-- Generator: Adobe Illustrator 22.1.0, SVG Export Plug-In . SVG Version: 6.00 Build 0)  -->
<svg version="1.1" id="Layer_1" xmlns="http://www.w3.org/2000/svg" xmlns:xlink="http://www.w3.org/1999/xlink" x="0px" y="0px"
	 viewBox="0 0 32 32" style="enable-background:new 0 0 32 32;" xml:space="preserve">
<style type="text/css">
	.st0{fill:#1AA3D5;}
	.st1{fill-rule:evenodd;clip-rule:evenodd;fill:#FFFFFF;}
</style>
<g>
	<path class="st0" d="M16.5,26.3h10.2c1.2,0,2.1-0.9,2.1-2.1V7.4c0-1.2-0.9-2.1-2.1-2.1l0,0H5.3c-1.2,0-2.1,0.9-2.1,2.1v16.8
		c0,1.2,0.9,2.1,2.1,2.1h10.2"/>
</g>
<g id="Shape_1">
	<g>
		<polygon class="st1" points="20.2,11 20.2,11.9 23.3,11.9 19.9,14.9 14.7,12.3 9.8,19.6 6.9,19.6 6.9,20.7 21.6,20.7 21.6,19.6 
			11.1,19.6 15.1,13.7 19.9,16 24,12.3 24,15.5 25.1,15.5 25.1,11 		"/>
	</g>
</g>
</svg>
