<svg xmlns="http://www.w3.org/2000/svg" viewBox="0 0 31.6 31.6"><defs><style>.cls-1{opacity:0.6;isolation:isolate;}.cls-2{fill-rule:evenodd;}</style></defs><title>mail</title><g id="Forma_1" data-name="Forma 1" class="cls-1"><g id="Forma_1-2" data-name="Forma 1"><path class="cls-2" d="M32.71,12.17L23.33,2.79a2.88,2.88,0,0,0-4.07,0L2.79,19.26a2.88,2.88,0,0,0,0,4.07l9.37,9.37a2.88,2.88,0,0,0,4.07,0L32.71,16.24A2.88,2.88,0,0,0,32.71,12.17ZM13.89,31.57a0.94,0.94,0,0,1-.37-0.22L4.15,22h9.74v9.6ZM4.72,20L20,4.72V19.63a0.43,0.43,0,0,1-.42.42H4.72ZM15.81,30.42V22h3.81A2.34,2.34,0,0,0,22,19.63V15.82h8.45ZM22,13.89V4.15h0l9.37,9.37a0.94,0.94,0,0,1,.22.37H22ZM2.89,6h9.84a0.94,0.94,0,1,0,0-1.87H2.89A0.94,0.94,0,1,0,2.89,6Zm0,3.68H9.05a0.94,0.94,0,1,0,0-1.87H2.89A0.94,0.94,0,1,0,2.89,9.7Zm0,3.56h4a0.94,0.94,0,0,0,0-1.87h-4A0.94,0.94,0,0,0,2.89,13.26Zm4,17.21h-4a0.94,0.94,0,1,0,0,1.87h4A0.94,0.94,0,1,0,6.87,30.47Z" transform="translate(-1.95 -1.95)"/></g></g></svg>