<?xml version="1.0" encoding="utf-8"?>
<!-- Generator: Adobe Illustrator 19.2.1, SVG Export Plug-In . SVG Version: 6.00 Build 0)  -->
<svg version="1.1" xmlns="http://www.w3.org/2000/svg" xmlns:xlink="http://www.w3.org/1999/xlink" x="0px" y="0px"
	 viewBox="0 0 24 24" style="enable-background:new 0 0 24 24;" xml:space="preserve">
<style type="text/css">
	.st0{enable-background:new    ;}
	.st1{fill-rule:evenodd;clip-rule:evenodd;fill:#9E9E9E;}
</style>
<g id="Rectangle_1_1_" class="st0">
</g>
<g id="search_copy_4_1_" class="st0">
	<g>
		<g id="Rectangle_1">
			<g>
				<path class="st1" d="M0.8,3.2v1.1h15.9V3.2H0.8z M7.3,7.6H0.8v1.1h6.6V7.6z M5.1,11.4H0.8v1.1h4.4V11.4z M6.2,15.3H0.8v1.1h5.5
					V15.3z M0.8,20.2h9.3v-1.1H0.8V20.2z"/>
			</g>
		</g>
		<g id="search_copy_4">
			<g>
				<path class="st1" d="M23.1,19.3L21.2,17c1-1.1,1.7-2.7,1.7-4.3c0-3.5-2.8-6.4-6.3-6.4s-6.3,2.9-6.3,6.4s2.8,6.4,6.3,6.4
					c1.1,0,2.2-0.3,3.1-0.8l2,2.3c0.2,0.3,0.7,0.3,1,0l0.3-0.3C23.2,20,23.3,19.6,23.1,19.3z M16.5,17.9c-2.8,0-5.1-2.3-5.1-5.2
					c0-2.9,2.3-5.2,5.1-5.2c2.8,0,5.1,2.3,5.1,5.2C21.7,15.5,19.4,17.9,16.5,17.9z"/>
			</g>
		</g>
	</g>
</g>
</svg>
