<?xml version="1.0" encoding="utf-8"?>
<!-- Generator: Adobe Illustrator 19.2.1, SVG Export Plug-In . SVG Version: 6.00 Build 0)  -->
<svg version="1.1" id="Layer_1" xmlns="http://www.w3.org/2000/svg" xmlns:xlink="http://www.w3.org/1999/xlink" x="0px" y="0px"
	 viewBox="0 0 32 32" style="enable-background:new 0 0 32 32;" xml:space="preserve">
<style type="text/css">
	.st0{fill:none;stroke:#79B743;stroke-width:2;stroke-miterlimit:10;}
	.st1{fill:none;stroke:#5DA044;stroke-width:2;stroke-miterlimit:10;}
	.st2{fill:none;stroke:#9FCC44;stroke-width:2;stroke-miterlimit:10;}
	.st3{fill:none;stroke:#A0CC45;stroke-width:2;stroke-miterlimit:10;}
</style>
<g>
	<path class="st0" d="M22.4,30.8c-0.3,0-11.4,0-11.4,0c-1.7,0-3.8-1.7-3.8-3.8h-1c-1.7,0-3.4-1.7-3.4-3.4V5c0-1.7,1.7-3.8,3.8-3.8
		h14.1c1.7,0,3.8,1.7,3.8,3.8h1c1.7,0,3.8,1.7,3.8,3.8v14.8L22.4,30.8z"/>
	<path class="st1" d="M7.6,27.4V8.8C7.6,7,9.3,5,11.3,5c0,0,11.7,0,13.1,0"/>
	<path class="st0" d="M24.4,23.2c-1,0-1.7,1-1.7,1.7c0,0,0,1.7,0,3.4l0,0l4.8-5.5L24.4,23.2L24.4,23.2z"/>
	<line class="st2" x1="13.4" y1="12.9" x2="23.4" y2="12.9"/>
	<line class="st3" x1="13.4" y1="17.4" x2="23.4" y2="17.4"/>
</g>
</svg>
