<?xml version="1.0" encoding="utf-8"?>
<!-- Generator: Adobe Illustrator 19.2.1, SVG Export Plug-In . SVG Version: 6.00 Build 0)  -->
<svg version="1.1" id="Layer_1" xmlns="http://www.w3.org/2000/svg" xmlns:xlink="http://www.w3.org/1999/xlink" x="0px" y="0px"
	 viewBox="0 0 32 32" style="enable-background:new 0 0 32 32;" xml:space="preserve">
<style type="text/css">
	.st0{fill:#00A3D9;}
	.st1{fill:#FFFFFF;}
	.st2{fill:none;}
	.st3{fill:#8CC435;}
	.st4{fill:#FF6600;}
	.st5{fill:#8CC63F;}
</style>
<g>
	<g id="Layer_4_1_">
		<g>
			<path class="st0" d="M27.4,28.6H4.6V4h22.7L27.4,28.6L27.4,28.6z M6,27.3h20v-22H6V27.3z"/>
			<path class="st0" d="M5.6,19.4h20.7v1.4H5.6V19.4z"/>
			<path class="st0" d="M8.6,22.7h2v2h-2V22.7z"/>
			<path class="st0" d="M11.6,22.7h2v2h-2V22.7z"/>
		</g>
	</g>
	<g id="Layer_5">
		<circle class="st1" cx="22.3" cy="17.5" r="2.6"/>
	</g>
	<g id="Layer_1_1_">
		<g id="Layer_4">
		</g>
		<g>
			<path class="st2" d="M18.7,26.7h6.9v-3.5c-0.3-0.8-0.8-1.5-1.5-1.9c-0.5,0.3-1.1,0.4-1.8,0.4c-0.3,0-0.7-0.1-1-0.1
				c-0.2,0-0.3-0.1-0.5-0.1c-0.1,0-0.1,0-0.2-0.1c-0.1,0-0.2-0.1-0.3-0.1"/>
			<path class="st2" d="M24.6,16.8c-0.3-1-1.2-1.7-2.3-1.7c-1.1,0-2,0.7-2.3,1.7c-0.2,0.7-0.1,1.4,0.3,2h4
				C24.7,18.2,24.8,17.5,24.6,16.8z"/>
			<path class="st0" d="M25.6,20.1v-0.2C25.6,20,25.5,20,25.6,20.1C25.5,20,25.6,20.1,25.6,20.1z"/>
			<path class="st3" d="M21.3,21.5c0.3,0.1,0.6,0.1,1,0.1c0.7,0,1.3-0.1,1.8-0.4l0,0C23.2,21.6,22.2,21.7,21.3,21.5z"/>
			<path class="st3" d="M21.1,13.5c-1.9,0.7-3.2,2.5-2.9,4.6c0,0.2,0.1,0.4,0.1,0.6h1.9c-0.4-0.6-0.5-1.3-0.3-2
				c0.3-1,1.2-1.7,2.3-1.7c1.1,0,2,0.7,2.3,1.7c0.2,0.7,0.1,1.4-0.3,2h1.3v-3.8C24.6,13.6,22.8,13,21.1,13.5z"/>
			<path class="st3" d="M20.8,21.4c-0.1,0-0.1,0-0.2-0.1C20.7,21.4,20.8,21.4,20.8,21.4z"/>
			<path class="st3" d="M26.2,18.8c0.3-1,0.3-2.1-0.2-3.1c-0.1-0.3-0.3-0.5-0.4-0.7v3.8H26.2z"/>
			<path class="st3" d="M24.3,18.8c-0.2,0.3-0.4,0.5-0.7,0.7c-0.8,0.6-1.9,0.6-2.6,0c-0.3-0.2-0.5-0.4-0.7-0.7h-1.9
				c0.1,0.5,0.4,1,0.7,1.4c0.3-0.3,0.7-0.5,1.1-0.7c0.3-0.1,0.7-0.1,0.9,0.1c0.8,0.6,1.9,0.6,2.6,0c0.2-0.2,0.6-0.2,0.9-0.1
				c0.3,0.2,0.6,0.4,0.9,0.6l0.1-0.1v-1.2H24.3z"/>
			<path class="st3" d="M25.6,19.9c0.3-0.4,0.5-0.7,0.6-1.2h-0.6V19.9z"/>
			<path class="st3" d="M21.3,21.5c-0.2,0-0.3-0.1-0.5-0.1C21,21.5,21.1,21.5,21.3,21.5z"/>
			<path class="st3" d="M20.4,21.2c0.1,0,0.2,0.1,0.3,0.1c-0.4-0.2-0.7-0.4-1-0.6h-1.3c-0.9,1-1.4,2.2-1.4,3.6v2.4h1.8l-0.1-2.4
				C18.6,23,19.3,21.9,20.4,21.2z"/>
			<path class="st3" d="M27.7,24.3c0-0.3,0-0.7-0.1-1v5c0.1-0.1,0.1-0.3,0.1-0.4V24.3z"/>
			<path class="st3" d="M24.6,20.9c-0.2,0.1-0.3,0.3-0.5,0.4c0.7,0.4,1.2,1.1,1.5,1.9v-2.4h-0.8C24.7,20.8,24.6,20.8,24.6,20.9z"/>
			<path class="st3" d="M17.9,28.7h8.8c0.1,0,0.2,0,0.4-0.1h-9.5C17.7,28.7,17.8,28.7,17.9,28.7z"/>
			<path class="st3" d="M26.3,20.7h-0.7v2.4c0.1,0.4,0.2,0.8,0.2,1.2v2.6h-7.1v-0.3H17v1.2c0,0.3,0.3,0.7,0.6,0.8h9.5
				c0.1,0,0.3-0.1,0.4-0.2c0-0.1,0.1-0.2,0.1-0.2v-5C27.4,22.3,26.9,21.5,26.3,20.7z"/>
			<path class="st3" d="M19,20.1c-0.2,0.2-0.5,0.4-0.7,0.6h1.3C19.4,20.6,19.2,20.4,19,20.1z"/>
			<path class="st3" d="M25.5,20c-0.2,0.3-0.5,0.5-0.7,0.7h0.8L25.5,20C25.6,20.1,25.5,20,25.5,20z"/>
			<path class="st3" d="M25.6,20.1v0.7h0.7C26.1,20.5,25.8,20.3,25.6,20.1z"/>
			<path class="st3" d="M20.7,21.3c0.1,0,0.1,0,0.2,0.1s0.3,0.1,0.5,0.1c0.9,0.2,1.9,0.1,2.7-0.3l0,0c0.2-0.1,0.4-0.2,0.5-0.4
				c0.1,0,0.1-0.1,0.2-0.1h-5.1C20,21,20.3,21.2,20.7,21.3z"/>
			<path class="st3" d="M23.7,19.6c-0.8,0.6-1.9,0.6-2.6,0c-0.2-0.2-0.6-0.2-0.9-0.1c-0.4,0.2-0.8,0.4-1.1,0.7
				c0.2,0.2,0.4,0.4,0.6,0.6h5.1c0.3-0.2,0.5-0.5,0.7-0.7c-0.3-0.2-0.6-0.4-0.9-0.6C24.3,19.3,23.9,19.3,23.7,19.6z"/>
		</g>
	</g>
	<g id="Layer_3">
		<g id="Layer_3_1_">
			<g>
				<g>
					<g>
						<path class="st0" d="M11.9,10.5L11.9,10.5c-0.4,0.1-0.7,0.1-1.1-0.1c-0.2-0.2-0.4-0.5-0.6-0.8C10.1,9.4,10,9.1,10,8.9
							C9.8,8,10.2,7.4,10.6,7.3c0.3-0.1,0.7,0.1,0.8,1.1C11.5,9.2,11.4,10,11.9,10.5L11.9,10.5"/>
					</g>
				</g>
				<g>
					<g>
						<path class="st0" d="M12.3,11.2c1.5-0.1,2.7-1.5,3-2c0.4-0.9,0.3-1.5-0.2-1.6s-1,0.2-1.4,1.1s-0.8,1.8-1.6,2.3
							c0,0-0.4,0.2-0.9,0.1C11.2,10.8,11.5,11.2,12.3,11.2"/>
					</g>
				</g>
				<g>
					<g>
						<path class="st4" d="M10.4,12.1L10.4,12.1L10.4,12.1c0.1-0.7-0.1-1.3-0.6-1.7c-0.1-0.1-0.2-0.2-0.4-0.2C9.2,10.1,9,10,8.8,10
							C8,9.9,7.5,10.3,7.6,10.8c0.1,0.3,0.2,0.8,1,0.8C9.4,11.6,10,11.7,10.4,12.1"/>
					</g>
				</g>
				<g>
					<g>
						<path class="st4" d="M10.6,11c0,0,0.3,0.6,0.1,1.4c-0.2,0.8-1,1.3-1.6,1.6s-0.9,0.9-0.8,1.2c0.2,0.4,0.8,0.6,1.4,0.3
							c0.4-0.2,1.7-1.1,1.6-2.7C11.1,11.4,10.6,11,10.6,11"/>
					</g>
				</g>
				<g>
					<g>
						<path class="st5" d="M11.8,13.7c0.4-0.9,1.1-1.1,1.1-1.1c1.4-0.6,3.5,0.7,3.7,0.9c0.3,0.2,1.2,0.4,1.6-0.3
							c0.3-0.6-0.1-1.1-0.6-1.4c-0.9-0.6-3.6-1.5-5.2,0.7C12.3,12.5,12,12.9,11.8,13.7"/>
					</g>
				</g>
				<g>
					<g>
						<path class="st5" d="M14.5,16c-0.3-0.3-1.7-1.5-1.7-3v-0.1L12.7,13c-0.4,0.3-0.9,0.8-0.9,1.3c-0.1,0.2-0.1,0.5,0.1,0.8
							c0.2,0.8,0.6,1.5,1.1,2c0.6,0.6,1.3,0.8,1.6,0.4C14.8,16.9,14.8,16.4,14.5,16"/>
					</g>
				</g>
			</g>
		</g>
	</g>
</g>
</svg>
