<?xml version="1.0" encoding="utf-8"?>
<!-- Generator: Adobe Illustrator 19.2.1, SVG Export Plug-In . SVG Version: 6.00 Build 0)  -->
<svg version="1.1" xmlns="http://www.w3.org/2000/svg" xmlns:xlink="http://www.w3.org/1999/xlink" x="0px" y="0px"
	 viewBox="0 0 32 32" style="enable-background:new 0 0 32 32;" xml:space="preserve">
<style type="text/css">
	.st0{enable-background:new    ;}
	.st1{fill-rule:evenodd;clip-rule:evenodd;fill:#00A3D7;}
	.st2{fill-rule:evenodd;clip-rule:evenodd;fill:#8CC63F;}
</style>
<g id="Forma_1_1_" class="st0">
</g>
<g id="Forma_1_copy_2_1_" class="st0">
	<g>
		<g id="Forma_1">
			<g>
				<path class="st1" d="M29.8,18.8l-6.6-8.5l-6.6,8.5h4c-0.1,0.1-0.1,0.2-0.1,0.3c0,8.5-4.3,10.5-5.4,11.1c-0.2,0.1-0.2,0.2,0,0.2
					c6.7,0,10.8-4.8,10.8-11.3c0-0.1,0-0.2,0-0.3H29.8z"/>
			</g>
		</g>
		<g id="Forma_1_copy_2">
			<g>
				<path class="st2" d="M16.9,1.7c-6.7,0-10.8,4.8-10.8,11.3c0,0.1,0,0.2,0,0.3H2.2l6.6,8.5l6.6-8.5h-4c0.1-0.1,0.1-0.2,0.1-0.3
					c0-8.5,4.3-10.5,5.4-11.1C17.1,1.7,17.1,1.7,16.9,1.7z"/>
			</g>
		</g>
	</g>
</g>
</svg>
