<?xml version="1.0" encoding="utf-8"?>
<!-- Generator: Adobe Illustrator 22.1.0, SVG Export Plug-In . SVG Version: 6.00 Build 0)  -->
<svg version="1.1" id="Layer_1" xmlns="http://www.w3.org/2000/svg" xmlns:xlink="http://www.w3.org/1999/xlink" x="0px" y="0px"
	 viewBox="0 0 32 32" style="enable-background:new 0 0 32 32;" xml:space="preserve">
<style type="text/css">
	.st0{fill:#0898D6;}
</style>
<path class="st0" d="M25.2,9.9c-0.2-0.2-0.4-0.3-0.6-0.3c0,0,0,0,0,0c-0.2,0-0.4,0.1-0.6,0.3L22.7,11c-0.3,0.3-0.3,0.8-0.1,1.2
	c1.3,1.6,2,3.5,2,5.5c0,4.8-3.9,8.6-8.6,8.6s-8.6-3.9-8.6-8.6c0-4.8,3.9-8.6,8.6-8.6v2.6c0,0.3,0.2,0.7,0.5,0.8
	c0.1,0,0.2,0.1,0.3,0.1c0.2,0,0.4-0.1,0.6-0.3L21.8,8c0.3-0.3,0.3-0.9,0-1.2l-4.3-4.3c-0.2-0.2-0.4-0.3-0.6-0.3
	c-0.1,0-0.2,0-0.3,0.1C16.2,2.4,16,2.7,16,3v2.6c-6.7,0-12.1,5.4-12.1,12.1c0,6.7,5.4,12.1,12.1,12.1s12.1-5.4,12.1-12.1
	C28.1,14.8,27.1,12,25.2,9.9L25.2,9.9z"/>
</svg>
