<?xml version="1.0" encoding="utf-8"?>
<!-- Generator: Adobe Illustrator 19.2.1, SVG Export Plug-In . SVG Version: 6.00 Build 0)  -->
<svg version="1.1" id="Layer_1" xmlns="http://www.w3.org/2000/svg" xmlns:xlink="http://www.w3.org/1999/xlink" x="0px" y="0px"
	 viewBox="0 0 32 32" style="enable-background:new 0 0 32 32;" xml:space="preserve">
<style type="text/css">
	.st0{fill:#FC8F19;}
	.st1{fill:#84C434;}
</style>
<path class="st0" d="M2.6,1.7c-0.5,0-1,0.4-1,1v26.7c0,0.5,0.4,1,1,1h22.3c1.4,0,2.8-0.6,3.8-1.6c1-1,1.6-2.4,1.6-3.8V2.7
	c0-0.5-0.4-1-1-1L2.6,1.7z M3.6,3.6h24.8v21.3c0,0.9-0.4,1.8-1,2.5c-0.7,0.7-1.5,1-2.5,1H3.6L3.6,3.6z M6,6.4c-0.5,0-1,0.4-1,1v3
	c0,0.5,0.4,1,1,1h1.9c0.5,0,1.1-0.2,1.4-0.6c0.4-0.4,0.6-0.9,0.6-1.4V7.3h0c0-0.5-0.4-1-1-1L6,6.4z M6,13.4c-0.5,0-1,0.4-1,1v3
	c0,0.5,0.4,1,1,1h1.9c0.5,0,1.1-0.2,1.4-0.6c0.4-0.4,0.6-0.9,0.6-1.4l0-1.9c0-0.5-0.4-1-1-1L6,13.4z M6,20.4c-0.5,0-1,0.4-1,1v3
	c0,0.5,0.4,1,1,1h1.9c0.5,0,1.1-0.2,1.4-0.6c0.4-0.4,0.6-0.9,0.6-1.4v-1.9h0c0-0.5-0.4-1-1-1L6,20.4z"/>
<path class="st1" d="M11.5,7.9v1.9l10.4,0c0.2,0,0.4-0.1,0.5-0.2c0.1-0.1,0.2-0.3,0.2-0.5V8.5c0-0.4-0.3-0.7-0.7-0.7L11.5,7.9z"/>
<path class="st1" d="M11.5,15V17h14.6c0.2,0,0.4-0.1,0.5-0.2c0.1-0.1,0.2-0.3,0.2-0.5v-0.5c0-0.4-0.3-0.7-0.7-0.7L11.5,15z"/>
<path class="st1" d="M11.5,21.3v1.9h12c0.2,0,0.4-0.1,0.5-0.2c0.1-0.1,0.2-0.3,0.2-0.5V22c0-0.4-0.3-0.7-0.7-0.7L11.5,21.3z"/>
</svg>
