<?xml version="1.0" encoding="utf-8"?>
<!-- Generator: Adobe Illustrator 19.2.1, SVG Export Plug-In . SVG Version: 6.00 Build 0)  -->
<svg version="1.1" xmlns="http://www.w3.org/2000/svg" xmlns:xlink="http://www.w3.org/1999/xlink" x="0px" y="0px"
	 viewBox="0 0 32 32" style="enable-background:new 0 0 32 32;" xml:space="preserve">
<style type="text/css">
	.st0{enable-background:new    ;}
	.st1{fill:#00A4D5;}
	.st2{fill-rule:evenodd;clip-rule:evenodd;fill:none;}
	.st3{fill:#00A3D6;}
	.st4{font-family:'ProximaNova-Bold';}
	.st5{font-size:15.7382px;}
</style>
<g id="Polygon_1_copy_2_1_" class="st0">
	<g id="Polygon_1_copy_2">
		<g>
			<path class="st1" d="M16.1,1.6l6.2,3.8l6.3,3.5l-0.1,7.3l0.1,7.3L22.3,27l-6.2,3.7L9.9,27l-6.3-3.5l0.1-7.3L3.5,8.9l6.4-3.5
				L16.1,1.6 M16.1,0.5l-6.7,4L2.5,8.3l0.1,7.9L2.5,24l6.9,3.8l6.7,4l6.7-4l6.9-3.8l-0.1-7.9l0.1-7.9l-6.9-3.8L16.1,0.5L16.1,0.5z"
				/>
		</g>
	</g>
</g>
<g id="Polygon_1_copy_3_1_" class="st0">
	<g id="Polygon_1_copy_3">
		<g>
			<path class="st1" d="M8.9,3.6l7.3,0.1l7.3-0.1l3.5,6.4l3.7,6.2l-3.8,6.2l-3.5,6.3l-7.3-0.1l-7.3,0.1l-3.5-6.4l-3.7-6.2l3.8-6.2
				L8.9,3.6 M8.3,2.6L4.5,9.4l-4.1,6.7l4,6.7l3.8,6.9l7.9-0.1l7.9,0.2l3.8-6.9l4.1-6.7l-4-6.7L24,2.6l-7.9,0.1L8.3,2.6L8.3,2.6z"/>
		</g>
	</g>
</g>
<g id="C">
	<rect x="10.4" y="8.4" class="st2" width="10.8" height="18.4"/>
	<text transform="matrix(1 0 0 1 10.4463 21.5107)" class="st3 st4 st5">C</text>
</g>
</svg>
