<?xml version="1.0" encoding="utf-8"?>
<!-- Generator: Adobe Illustrator 19.2.1, SVG Export Plug-In . SVG Version: 6.00 Build 0)  -->
<svg version="1.1" id="Layer_1" xmlns="http://www.w3.org/2000/svg" xmlns:xlink="http://www.w3.org/1999/xlink" x="0px" y="0px"
	 viewBox="0 0 24 24" style="enable-background:new 0 0 24 24;" xml:space="preserve">
<style type="text/css">
	.st0{fill:#0077B7;}
</style>
<path class="st0" d="M21,1H3C1.9,1,1,1.9,1,3v18c0,1.1,0.9,2,2,2h18c1.1,0,2-0.9,2-2V3C23,1.9,22.1,1,21,1z M7.8,20
	c0,0.3-0.3,0.6-0.6,0.6H4.8c-0.3,0-0.6-0.3-0.6-0.6V9.7c0-0.3,0.3-0.6,0.6-0.6h2.5c0.3,0,0.6,0.3,0.6,0.6V20z M6,8.1
	c-1.3,0-2.3-1-2.3-2.3s1-2.3,2.3-2.3s2.3,1,2.3,2.3S7.3,8.1,6,8.1z M20.7,20c0,0.3-0.2,0.5-0.5,0.5h-2.6c-0.3,0-0.5-0.2-0.5-0.5
	v-4.8c0-0.7,0.2-3.2-1.9-3.2c-1.6,0-2,1.7-2,2.4V20c0,0.3-0.2,0.5-0.5,0.5H10c-0.3,0-0.5-0.2-0.5-0.5V9.6c0-0.3,0.2-0.5,0.5-0.5h2.6
	c0.3,0,0.5,0.2,0.5,0.5v0.9c0.6-0.9,1.5-1.6,3.4-1.6c4.2,0,4.2,4,4.2,6.1L20.7,20L20.7,20z"/>
</svg>
