<svg id="Layer_1" data-name="Layer 1" xmlns="http://www.w3.org/2000/svg" viewBox="0 0 31.19 30.88"><defs><style>.cls-1{fill:#293740;}.cls-1,.cls-2,.cls-3{fill-rule:evenodd;}.cls-2{fill:#31434e;}.cls-3{fill:#58a0d7;}</style></defs><title>icon-appLogo</title><g id="Rounded_Rectangle_1" data-name="Rounded Rectangle 1"><path class="cls-1" d="M25.2,0.58H6.81A6.37,6.37,0,0,0,.41,6.92V25.13a6.37,6.37,0,0,0,6.4,6.33H25.2a6.37,6.37,0,0,0,6.4-6.33V6.92A6.37,6.37,0,0,0,25.2.58Z" transform="translate(-0.41 -0.58)"/></g><g id="Ellipse_1" data-name="Ellipse 1"><path class="cls-2" d="M16,1.77A14.25,14.25,0,1,0,30.4,16,14.32,14.32,0,0,0,16,1.77ZM16,29.7A13.68,13.68,0,1,1,29.82,16,13.75,13.75,0,0,1,16,29.7Z" transform="translate(-0.41 -0.58)"/></g><g id="Ellipse_1_copy_2" data-name="Ellipse 1 copy 2"><path class="cls-2" d="M16,7.33A8.69,8.69,0,1,0,24.78,16,8.74,8.74,0,0,0,16,7.33Zm0,17A8.35,8.35,0,1,1,24.43,16,8.39,8.39,0,0,1,16,24.37Z" transform="translate(-0.41 -0.58)"/></g><g id="Rectangle_1_copy" data-name="Rectangle 1 copy"><path class="cls-2" d="M30,29.31a6.36,6.36,0,0,0,.4-0.5V22.35h1.2V22H30.4V16h1.2v-0.4H30.4V10.08h1.2V9.69H30.4V3.23a6.35,6.35,0,0,0-.4-0.5v7H22.4V9.37l7.16-7.09L29.26,2,22.4,8.81V0.58H22V9.21l-0.48.48H16V0.58H15.6v9.1H10.09L10,9.61v-9H9.6V9.21l-7.07-7-0.29.27L9.52,9.69H2v-7a6.35,6.35,0,0,0-.4.5V9.69H0.41v0.4h1.2v5.54H0.41V16h1.2V22H0.41v0.4h1.2v6.45a6.37,6.37,0,0,0,.52.63l7.16-7.09H9.6v9.1H10v-9.1h5.6v9.1H16v-9.1h6v9.1h0.4v-9l7.28,7.21L30,29.35l-7.07-7H30v7ZM2,29V22.35H8.72Zm7.6-7.52L9.12,22H2V16H9.6v5.46Zm0-5.86H2V10.08H9.6v5.54ZM10,10.16l5.52,5.46H10V10.16ZM10,16h5.12L10,21.09V16ZM15.6,22H10V21.64l5.6-5.54V22Zm0-6.81-5.12-5.06H15.6v5.06ZM16,10.08h5.12L16,15.15V10.08ZM16,22V16.1L21.92,22H16Zm6-.48L16.48,16H22v5.46Zm0-5.86H16.08l5.6-5.54H22v5.54Zm0.4-5.54H30v5.54H22.4V10.08ZM22.48,22l-0.08-.08V16H30V22H22.48Z" transform="translate(-0.41 -0.58)"/></g><g id="Forma_1" data-name="Forma 1"><path class="cls-3" d="M19.6,20.65a0.78,0.78,0,0,0,.19,1.06,0.8,0.8,0,0,0,1.07.18,0.78,0.78,0,0,0-.19-1.06A0.8,0.8,0,0,0,19.6,20.65Zm-0.19-3.83a21.42,21.42,0,0,1-4.14-5.36,5.91,5.91,0,0,0-3.41-3.18,2.67,2.67,0,0,0-.78-0.14,0.82,0.82,0,0,0-.83.48c-0.2.47,0.1,1.08,0.93,1.89a3.57,3.57,0,0,1,1,1.6,1.08,1.08,0,0,1-.15,1,0.84,0.84,0,0,1-.62.21,3.2,3.2,0,0,1-2-1,2.67,2.67,0,0,0-1.63-1,0.78,0.78,0,0,0-.64.31A1.47,1.47,0,0,0,7,13a5.61,5.61,0,0,0,3.27,3.35,20.65,20.65,0,0,1,5.52,4l1.77,1.74c1.51,1.48,3.21,2.4,4.43,2.4a1.64,1.64,0,0,0,1.19-.44c1.17-1.17-.18-3.73-2-5.55Zm3.06,6.56a0.62,0.62,0,0,1-.45.14,6.44,6.44,0,0,1-3.7-2.1l-1.77-1.74a21,21,0,0,0-5.92-4.27A4.6,4.6,0,0,1,8,12.73c0-.07,0-0.13,0-0.19a4.29,4.29,0,0,1,.63.53,4.21,4.21,0,0,0,2.78,1.31,1.88,1.88,0,0,0,1.37-.52,2,2,0,0,0,.42-2,4.56,4.56,0,0,0-1.26-2.09,4.91,4.91,0,0,1-.48-0.54l0.11,0a4.89,4.89,0,0,1,2.74,2.55,21.7,21.7,0,0,0,4.39,5.74l1.77,1.74C22.33,21.14,22.9,22.95,22.47,23.38ZM12.9,19.45L8.36,23.87a0.51,0.51,0,0,0,0,.73,0.53,0.53,0,0,0,.74,0l4.54-4.42a0.51,0.51,0,0,0,0-.73A0.53,0.53,0,0,0,12.9,19.45ZM24.63,8.07a1.44,1.44,0,0,0-1-.39,5.64,5.64,0,0,0-3.46,1.86c-0.12.11-2.84,2.83-2.49,4A2.16,2.16,0,0,0,19.22,15h0.15c1,0,2.85-1.61,3.81-2.56a7.06,7.06,0,0,0,1.61-2.32A1.88,1.88,0,0,0,24.63,8.07ZM23.82,9.8a6.09,6.09,0,0,1-1.38,2A9.22,9.22,0,0,1,19.39,14a1.14,1.14,0,0,1-.74-0.68,8.11,8.11,0,0,1,2.22-3.05,4.69,4.69,0,0,1,2.72-1.55,0.45,0.45,0,0,1,.3.08A1.08,1.08,0,0,1,23.82,9.8Z" transform="translate(-0.41 -0.58)"/></g></svg>