<?xml version="1.0" encoding="utf-8"?>
<!-- Generator: Adobe Illustrator 19.2.1, SVG Export Plug-In . SVG Version: 6.00 Build 0)  -->
<svg version="1.1" id="Layer_1" xmlns="http://www.w3.org/2000/svg" xmlns:xlink="http://www.w3.org/1999/xlink" x="0px" y="0px"
	 viewBox="0 0 32 32" style="enable-background:new 0 0 32 32;" xml:space="preserve">
<style type="text/css">
	.st0{fill:none;stroke:#7AC143;stroke-width:1.5;stroke-miterlimit:10;}
	.st1{fill:none;stroke:#F9A350;stroke-width:1.5;stroke-miterlimit:10;}
	.st2{fill:#FCFCFC;stroke:#F9A350;stroke-width:1.5;stroke-miterlimit:10;}
	.st3{fill:#F9A350;}
</style>
<g>
	<path class="st0" d="M20.1,30.8c-0.3,0-12.9,0-12.9,0c-2.2,0-4.1-1.9-4.1-4.1 M22.3,1.2h1.3c2.2,0,4.4,2.2,4.4,4.4v17 M3.2,26.7
		v-21c0-2.2,2.2-4.4,4.4-4.4c0,0,13.5,0,14.8,0 M9.4,7.5h11.3"/>
</g>
<g>
	<path class="st1" d="M21.3,20l7.1,7.1c0,0,0.3,2.9,0.3,3.2c0,0.3-0.3,0.6-1,0.6c-1,0-2.6-0.3-2.6-0.3L24.8,29h-1.6l-0.3-1.6
		l-1.6-0.3L21,25.5h-2.3l-1.6-1.6L21.3,20z"/>
	<path class="st2" d="M15.7,13.1c-2.9,0-5.5,2.3-5.5,5.5c0,2.9,2.3,5.5,5.5,5.5c2.9,0,5.5-2.3,5.5-5.5
		C20.6,15.4,18.6,13.1,15.7,13.1z"/>
	<path class="st3" d="M15.1,16c-1,0-1.6,1-1.6,1.6c0,1,0.6,1.6,1.6,1.6s1.6-1,1.6-1.6C16.7,16.6,15.7,16,15.1,16z"/>
</g>
</svg>
