<svg xmlns="http://www.w3.org/2000/svg" viewBox="0 0 31.33 31.33"><defs><style>.cls-1{isolation:isolate;}.cls-2{fill:#27a0d6;fill-rule:evenodd;}</style></defs><title>icon-restore</title><g id="Forma_1" data-name="Forma 1" class="cls-1"><g id="Forma_1-2" data-name="Forma 1"><path class="cls-2" d="M27.75,0.33H12A3.86,3.86,0,0,0,8.17,4.21V19.92a3.93,3.93,0,0,0,3.92,3.92H27.75a3.93,3.93,0,0,0,3.92-3.92V4.25A3.93,3.93,0,0,0,27.75.33ZM29,21.12H10.88V3H29V21.12ZM2.85,26.94V16H0.33V27.75a3.93,3.93,0,0,0,3.92,3.92H16V29.15l-11.52.07C3.8,29.09,3,28.58,2.85,26.94Z" transform="translate(-0.33 -0.33)"/></g></g></svg>