<?xml version="1.0" encoding="utf-8"?>
<!-- Generator: Adobe Illustrator 22.1.0, SVG Export Plug-In . SVG Version: 6.00 Build 0)  -->
<svg version="1.1" id="Layer_1" xmlns="http://www.w3.org/2000/svg" xmlns:xlink="http://www.w3.org/1999/xlink" x="0px" y="0px"
	 viewBox="0 0 32 32" style="enable-background:new 0 0 32 32;" xml:space="preserve">
<style type="text/css">
	.st0{fill:#199EDA;}
</style>
<g>
	<path class="st0" d="M7.6,28.6h16.8c1.1,0,2.2-0.4,3-1.2c0.8-0.8,1.2-1.9,1.2-3V7.6c0-1.1-0.4-2.2-1.2-3c-0.8-0.8-1.9-1.2-3-1.2
		H7.6c-1.1,0-2.2,0.4-3,1.2s-1.2,1.9-1.2,3v16.8c0,1.1,0.4,2.2,1.2,3S6.5,28.6,7.6,28.6z M24.4,26.5H7.6c-1.2,0-2.1-0.9-2.1-2.1
		V13.9h21v10.5c0,0.6-0.2,1.1-0.6,1.5C25.5,26.3,24.9,26.5,24.4,26.5z M5.5,7.6c0-1.2,0.9-2.1,2.1-2.1h16.8c0.6,0,1.1,0.2,1.5,0.6
		c0.4,0.4,0.6,0.9,0.6,1.5v4.2h-21V7.6z"/>
	<path class="st0" d="M9.7,8.7c0,1.4-2.1,1.4-2.1,0S9.7,7.3,9.7,8.7"/>
	<path class="st0" d="M13.9,8.7c0,1.4-2.1,1.4-2.1,0S13.9,7.3,13.9,8.7"/>
	<path class="st0" d="M18.1,8.7c0,1.4-2.1,1.4-2.1,0S18.1,7.3,18.1,8.7"/>
</g>
</svg>
