<?xml version="1.0" encoding="utf-8"?>
<!-- Generator: Adobe Illustrator 19.2.1, SVG Export Plug-In . SVG Version: 6.00 Build 0)  -->
<svg version="1.1" xmlns="http://www.w3.org/2000/svg" xmlns:xlink="http://www.w3.org/1999/xlink" x="0px" y="0px"
	 viewBox="0 0 32 32" style="enable-background:new 0 0 32 32;" xml:space="preserve">
<style type="text/css">
	.st0{fill:#E5B16C;}
</style>
<g id="_">
	<title>icon-in-progress</title>
</g>
<g id="Layer_2">
	<g>
		<path class="st0" d="M10,3.1c0,1,0.8,1.7,1.7,1.7h9.5c1,0,1.7-0.8,1.7-1.7s-0.8-1.7-1.7-1.7h-9.5C10.7,1.3,10,2.1,10,3.1z"/>
		<path class="st0" d="M26.4,3.1h-1.7c0,1.9-1.5,3.5-3.5,3.5h-9.5C9.8,6.5,8.2,5,8.2,3.1H5.6c-1,0-1.7,0.8-1.7,1.7v24.2
			c0,1,0.8,1.7,1.7,1.7h20.7c1,0,1.7-0.8,1.7-1.7V4.8C28.1,3.8,27.3,3.1,26.4,3.1z M16.9,26.4H8.2v-1.7h8.6V26.4z M16.9,22H8.2v-1.7
			h8.6V22z M16.9,17.7H8.2V16h8.6V17.7z M16.9,13.4H8.2v-1.7h8.6V13.4z M22,26.4c-1,0-1.7-0.8-1.7-1.7s0.8-1.7,1.7-1.7
			s1.7,0.8,1.7,1.7S23,26.4,22,26.4z M23.8,12.7l-0.9,7.7c0,0.4-0.4,0.8-0.9,0.8c-0.4,0-0.8-0.3-0.9-0.8l-0.9-7.7c0-0.1,0-0.1,0-0.2
			c0-1,0.8-1.7,1.7-1.7s1.7,0.8,1.7,1.7C23.8,12.6,23.8,12.7,23.8,12.7L23.8,12.7z"/>
	</g>
</g>
</svg>
