<?xml version="1.0" encoding="utf-8"?>
<!-- Generator: Adobe Illustrator 19.2.1, SVG Export Plug-In . SVG Version: 6.00 Build 0)  -->
<svg version="1.1" id="Layer_1" xmlns="http://www.w3.org/2000/svg" xmlns:xlink="http://www.w3.org/1999/xlink" x="0px" y="0px"
	 viewBox="0 0 32 32" style="enable-background:new 0 0 32 32;" xml:space="preserve">
<style type="text/css">
	.st0{fill:#FFFFFF;}
</style>
<g>
	<circle class="st0" cx="6.4" cy="25.6" r="0.9"/>
	<path class="st0" d="M29.4,7.5C29.3,7.2,29,7,28.7,7c-0.3-0.1-0.6,0-0.8,0.2l-4.3,4.3c-0.3,0.3-0.9,0.3-1.2,0l-1.9-1.9
		c-0.2-0.2-0.3-0.4-0.3-0.6s0.1-0.5,0.3-0.6l4.3-4.3C25,3.9,25.1,3.6,25,3.3C25,3,24.8,2.7,24.5,2.6C22.8,2,21,1.8,19.2,2.2
		c-3.4,0.8-6.1,3.7-6.6,7.1c-0.1,0.5-0.1,0.9-0.1,1.4v3.1l-9.3,9.3C2.4,24,2,25,2,26s0.4,2.1,1.2,2.8C3.9,29.6,4.9,30,6,30
		s2.1-0.4,2.8-1.2l9.3-9.3h3.1c0.5,0,0.9,0,1.4-0.1c3.5-0.5,6.3-3.2,7.1-6.6C30.2,11,30,9.2,29.4,7.5L29.4,7.5z M28.1,12.4
		c-0.6,2.7-2.9,4.9-5.7,5.3c-0.4,0.1-0.7,0.1-1.1,0.1h-3.5c-0.2,0-0.5,0.1-0.6,0.3l-9.6,9.6c-0.9,0.9-2.3,0.9-3.1,0
		c-0.4-0.4-0.7-1-0.7-1.6s0.2-1.1,0.7-1.6l9.6-9.6c0.2-0.2,0.3-0.4,0.3-0.6v-3.5c0-0.4,0-0.7,0.1-1.1c0.4-2.8,2.5-5.1,5.3-5.7
		c0.5-0.1,1.1-0.2,1.6-0.2c0.4,0,0.9,0,1.3,0.1l-3.3,3.3c-0.5,0.5-0.8,1.2-0.8,1.9s0.3,1.4,0.8,1.9l1.9,1.9c1,1,2.7,1,3.7,0l3.3-3.3
		C28.3,10.4,28.3,11.4,28.1,12.4L28.1,12.4z"/>
</g>
</svg>
