<svg id="Layer_4" data-name="Layer 4" xmlns="http://www.w3.org/2000/svg" viewBox="0 0 31.5 31.5"><defs><style>.cls-1{isolation:isolate;}.cls-2,.cls-5,.cls-6{fill:#fff;}.cls-2{stroke:#00a3d7;stroke-miterlimit:10;stroke-width:1.5px;}.cls-3,.cls-4{fill:#00a3d7;}.cls-3,.cls-5{fill-rule:evenodd;}</style></defs><title>icon-sdk_new_hover</title><g id="Shape_1" data-name="Shape 1" class="cls-1"><rect class="cls-2" x="0.75" y="0.75" width="30" height="30" rx="4.08" ry="4.08"/></g><g id="Shape_1-2" data-name="Shape 1"><polygon class="cls-3" points="22.68 13.96 25.77 17.89 28.87 13.96 22.68 13.96"/></g><path class="cls-4" d="M4.9,13.91a0.61,0.61,0,0,0-.23.5,0.56,0.56,0,0,0,.28.49,5.11,5.11,0,0,0,1.29.43,3.63,3.63,0,0,1,1.57.75,1.84,1.84,0,0,1,.56,1.45,1.91,1.91,0,0,1-.72,1.55,2.85,2.85,0,0,1-1.88.59,4.36,4.36,0,0,1-3-1.25l0.94-1.16a3.36,3.36,0,0,0,2.12,1,1.11,1.11,0,0,0,.68-0.19,0.6,0.6,0,0,0,.25-0.51,0.59,0.59,0,0,0-.26-0.51,3.42,3.42,0,0,0-1-.38,4.54,4.54,0,0,1-1.81-.77A1.81,1.81,0,0,1,3,14.44a1.84,1.84,0,0,1,.73-1.56,2.92,2.92,0,0,1,1.81-.55A4.36,4.36,0,0,1,7,12.58a3.81,3.81,0,0,1,1.24.69l-0.8,1.16a3.12,3.12,0,0,0-1.91-.7A1,1,0,0,0,4.9,13.91Z" transform="translate(-0.25 -0.25)"/><path class="cls-4" d="M14.55,13.42a3.32,3.32,0,0,1,1,2.58,3.49,3.49,0,0,1-1,2.62,4.18,4.18,0,0,1-3,1H9.13V12.49h2.51A4.16,4.16,0,0,1,14.55,13.42Zm-1.16,4.22A2.08,2.08,0,0,0,14,16a2.13,2.13,0,0,0-.58-1.61,2.5,2.5,0,0,0-1.79-.56H10.72v4.31h1A2.35,2.35,0,0,0,13.39,17.64Z" transform="translate(-0.25 -0.25)"/><path class="cls-4" d="M16.36,12.49h1.58v2.91l2.68-2.91h2l-2.82,3.13,1.35,1.89,1.47,2.06H20.73l-2.08-2.8-0.71.79v2H16.36V12.49Z" transform="translate(-0.25 -0.25)"/><g id="Shape_1_copy" data-name="Shape 1 copy" class="cls-1"><rect class="cls-4" x="1.05" y="1.05" width="29.41" height="29.41" rx="4" ry="4"/></g><g id="Shape_1-3" data-name="Shape 1"><polygon class="cls-5" points="22.68 13.96 25.77 17.89 28.87 13.96 22.68 13.96"/></g><path class="cls-6" d="M4.9,13.91a0.61,0.61,0,0,0-.23.5,0.56,0.56,0,0,0,.28.49,5.11,5.11,0,0,0,1.29.43,3.63,3.63,0,0,1,1.57.75,1.84,1.84,0,0,1,.56,1.45,1.91,1.91,0,0,1-.72,1.55,2.85,2.85,0,0,1-1.88.59,4.36,4.36,0,0,1-3-1.25l0.94-1.16a3.36,3.36,0,0,0,2.12,1,1.11,1.11,0,0,0,.68-0.19,0.6,0.6,0,0,0,.25-0.51,0.59,0.59,0,0,0-.26-0.51,3.42,3.42,0,0,0-1-.38,4.54,4.54,0,0,1-1.81-.77A1.81,1.81,0,0,1,3,14.44a1.84,1.84,0,0,1,.73-1.56,2.92,2.92,0,0,1,1.81-.55A4.36,4.36,0,0,1,7,12.58a3.81,3.81,0,0,1,1.24.69l-0.8,1.16a3.12,3.12,0,0,0-1.91-.7A1,1,0,0,0,4.9,13.91Z" transform="translate(-0.25 -0.25)"/><path class="cls-6" d="M14.55,13.42a3.32,3.32,0,0,1,1,2.58,3.49,3.49,0,0,1-1,2.62,4.18,4.18,0,0,1-3,1H9.13V12.49h2.51A4.16,4.16,0,0,1,14.55,13.42Zm-1.16,4.22A2.08,2.08,0,0,0,14,16a2.13,2.13,0,0,0-.58-1.61,2.5,2.5,0,0,0-1.79-.56H10.72v4.31h1A2.35,2.35,0,0,0,13.39,17.64Z" transform="translate(-0.25 -0.25)"/><path class="cls-6" d="M16.36,12.49h1.58v2.91l2.68-2.91h2l-2.82,3.13,1.35,1.89,1.47,2.06H20.73l-2.08-2.8-0.71.79v2H16.36V12.49Z" transform="translate(-0.25 -0.25)"/></svg>