<?xml version="1.0" encoding="utf-8"?>
<!-- Generator: Adobe Illustrator 19.2.1, SVG Export Plug-In . SVG Version: 6.00 Build 0)  -->
<svg version="1.1" id="Layer_1" xmlns="http://www.w3.org/2000/svg" xmlns:xlink="http://www.w3.org/1999/xlink" x="0px" y="0px"
	 viewBox="0 0 106.5 106.5" style="enable-background:new 0 0 106.5 106.5;" xml:space="preserve">
<style type="text/css">
	.st0{opacity:0.6;}
	.st1{fill:#FFFFFF;}
</style>
<title>icon-trial</title>
<g id="Forma_1" class="st0">
	<g id="Forma_1-2">
		<path class="st1" d="M1.7,55c1,0,1.8-0.8,1.8-1.8c0,0,0,0,0,0c0-27.4,22.3-49.7,49.7-49.6c11.1,0,21.9,3.8,30.7,10.6h-9.4
			c-1,0-1.8,0.8-1.8,1.8s0.8,1.8,1.8,1.8h14.1c0.1,0,0.2,0,0.3,0h1.6V1.7c-0.1-1-0.9-1.7-1.9-1.6c-0.9,0.1-1.6,0.8-1.6,1.6v10.4
			C64.3-6.6,30.7-3.3,12.1,19.4C4.3,29,0,40.9,0,53.3C0,54.2,0.8,55,1.7,55z M53.3,14.2c-21.5,0-39,17.5-38.9,39.1
			c0,21.5,17.5,39,39.1,38.9c21.5,0,38.9-17.5,38.9-39C92.3,31.7,74.8,14.2,53.3,14.2z M53.3,88.8c-19.6,0-35.5-15.9-35.5-35.5
			c0-19.6,15.9-35.5,35.5-35.5c19.6,0,35.5,15.9,35.5,35.5c0,0,0,0,0,0C88.7,72.8,72.8,88.7,53.3,88.8L53.3,88.8z M53.3,19.5
			c-1,0-1.8,0.8-1.8,1.8c0,0,0,0,0,0v3.5c0.1,1,0.9,1.7,1.9,1.6c0.9-0.1,1.6-0.8,1.6-1.6v-3.6C55,20.3,54.2,19.5,53.3,19.5
			C53.3,19.5,53.3,19.5,53.3,19.5L53.3,19.5z M53.3,79.9c-1,0-1.8,0.8-1.8,1.8c0,0,0,0,0,0v3.6c0.1,1,0.9,1.7,1.9,1.6
			c0.9-0.1,1.6-0.8,1.6-1.6v-3.5C55,80.7,54.2,79.9,53.3,79.9C53.3,79.9,53.3,79.9,53.3,79.9L53.3,79.9z M81.7,55h3.6
			c1,0,1.8-0.8,1.8-1.8c0-1-0.8-1.8-1.8-1.8h-3.6c-1,0-1.8,0.8-1.8,1.8C79.9,54.2,80.7,55,81.7,55L81.7,55z M24.9,51.5h-3.6
			c-1,0-1.8,0.8-1.8,1.8c0,1,0.8,1.8,1.8,1.8l0,0h3.5c1.2,0,2.2-0.5,2.2-1.8S26.1,51,24.9,51.5z M23.6,93.1
			c-0.8-0.6-1.9-0.5-2.5,0.2c-0.6,0.8-0.5,1.9,0.2,2.5c0.1,0,0.1,0.1,0.2,0.1c0.3,0.2,0.6,0.3,1,0.3c0.6,0,1.1-0.3,1.4-0.7
			C24.5,94.8,24.4,93.7,23.6,93.1z M12.8,82.1c-0.6-0.8-1.7-1-2.5-0.4s-1,1.7-0.4,2.5c0.3,0.5,0.9,0.7,1.4,0.7c0.4,0,0.7-0.1,1-0.3
			C13.2,84,13.4,82.9,12.8,82.1L12.8,82.1z M13.5,86c-0.7,0.7-0.8,1.8-0.1,2.5c0,0,0,0,0,0c0.3,0.4,0.8,0.6,1.3,0.6
			c1,0,1.8-0.8,1.8-1.8c0-1-0.8-1.8-1.8-1.8C14.3,85.5,13.8,85.7,13.5,86L13.5,86z M19.6,89.8c-0.7-0.7-1.8-0.6-2.5,0.1
			c-0.7,0.7-0.6,1.8,0.1,2.5c0.3,0.3,0.8,0.5,1.2,0.5c0.5,0,1-0.2,1.3-0.5C20.4,91.6,20.3,90.5,19.6,89.8L19.6,89.8L19.6,89.8z
			 M10.1,77.8L10.1,77.8c-0.5-0.9-1.6-1.2-2.4-0.7S6.5,78.7,7,79.5c0.3,0.6,0.9,0.9,1.6,0.9c0.3,0,0.6-0.1,0.9-0.2
			C10.2,79.7,10.5,78.7,10.1,77.8L10.1,77.8z M104.6,57L104.6,57c1-0.2,1.6-1.2,1.4-2.1c-0.2-0.9-1.2-1.5-2.1-1.3
			c-0.9,0.2-1.5,1.2-1.3,2.1C102.8,56.6,103.7,57.2,104.6,57L104.6,57z M2.2,60.3c1-0.2,1.6-1.1,1.4-2.1c-0.2-0.9-0.9-1.5-1.8-1.5
			c-1,0.1-1.7,1-1.6,1.9c0.1,0.9,0.9,1.6,1.8,1.6H2.2L2.2,60.3z M3.2,65.5c1-0.1,1.7-1,1.6-2c-0.1-1-1-1.7-2-1.6s-1.7,1-1.6,2
			c0.1,0.8,0.7,1.5,1.6,1.6C3,65.6,3.1,65.6,3.2,65.5L3.2,65.5z M7.7,73.2c-0.4-0.9-1.5-1.2-2.4-0.8c-0.8,0.4-1.2,1.4-0.9,2.2
			c0.3,0.7,0.9,1.1,1.6,1.1c0.2,0,0.5-0.1,0.7-0.2C7.7,75.2,8.1,74.1,7.7,73.2z M5.9,68.4c-0.3-0.9-1.3-1.4-2.2-1.2
			c-0.9,0.3-1.5,1.3-1.2,2.2c0.2,0.8,0.9,1.3,1.7,1.3c0.2,0,0.3,0,0.5-0.1C5.7,70.4,6.2,69.4,5.9,68.4C5.9,68.4,5.9,68.4,5.9,68.4z
			 M52.3,102.9c-1-0.1-1.8,0.6-1.9,1.6s0.6,1.8,1.6,1.9c0.1,0,0.2,0,0.3,0l0,0c1,0,1.8-0.7,1.8-1.7c0,0,0,0,0,0
			C54.1,103.8,53.3,103,52.3,102.9z M95,83.3c-0.8-0.5-1.9-0.3-2.5,0.5c-0.5,0.7-0.4,1.7,0.3,2.3c0.3,0.2,0.7,0.4,1.1,0.4
			c1,0,1.8-0.8,1.8-1.8C95.7,84.2,95.5,83.7,95,83.3z M81.4,94.2c-0.8,0.6-1,1.7-0.4,2.5c0,0,0,0,0,0c0.3,0.5,0.9,0.8,1.5,0.8
			c1,0,1.8-0.8,1.8-1.8c0-1-0.8-1.8-1.8-1.8C82,93.9,81.6,94,81.4,94.2z M85.5,91.1c-0.7,0.6-0.8,1.7-0.2,2.5c0,0,0,0,0,0
			c0.6,0.7,1.7,0.8,2.5,0.2c0.6-0.8,0.5-1.9-0.3-2.5C86.9,90.8,86.1,90.7,85.5,91.1L85.5,91.1z M97.9,78.9c-0.8-0.6-1.9-0.5-2.5,0.3
			c-0.6,0.8-0.5,1.9,0.3,2.5c0.1,0.1,0.2,0.1,0.3,0.2c0.3,0.2,0.6,0.3,0.9,0.3c0.6,0,1.2-0.3,1.5-0.8C99,80.5,98.8,79.4,97.9,78.9z
			 M89.2,87.6c-0.7,0.7-0.7,1.8,0,2.5c0,0,0,0,0,0c0.7,0.7,1.8,0.7,2.5,0c0,0,0,0,0,0c0.7-0.7,0.7-1.8,0.1-2.5
			c-0.7-0.7-1.8-0.7-2.5-0.1C89.3,87.5,89.2,87.5,89.2,87.6z M104.5,58.7c-1-0.1-1.9,0.5-2,1.5c-0.1,1,0.5,1.9,1.5,2c0,0,0,0,0,0
			c0.1,0,0.2,0,0.2,0c1-0.1,1.7-0.9,1.6-1.9C105.8,59.6,105.2,58.9,104.5,58.7z M103.7,64c-1-0.2-1.9,0.3-2.2,1.3s0.3,1.9,1.3,2.2
			c0.1,0,0.3,0.1,0.4,0.1c1-0.1,1.7-0.9,1.6-1.9C104.8,64.9,104.3,64.3,103.7,64L103.7,64z M27.9,95.9c-0.9-0.5-1.9-0.2-2.4,0.7
			C25,97.5,25.3,98.5,26,99c0.3,0.2,0.6,0.3,0.9,0.2c1,0,1.8-0.8,1.8-1.8C28.7,96.8,28.4,96.3,27.9,95.9z M102.3,69.2
			c-0.9-0.3-1.9,0.2-2.3,1.1c-0.3,0.9,0.1,1.9,1,2.2c0.2,0.1,0.4,0.1,0.6,0.1c1,0,1.8-0.8,1.8-1.8C103.4,70.1,103,69.4,102.3,69.2z
			 M100.3,74.2c-0.9-0.5-1.9-0.2-2.4,0.6c-0.5,0.9-0.2,1.9,0.6,2.4c0.1,0,0.1,0.1,0.2,0.1c0.2,0.1,0.5,0.2,0.8,0.2
			c1,0,1.8-0.7,1.8-1.7C101.4,75.1,101,74.4,100.3,74.2L100.3,74.2z M47.2,102.6c-1-0.2-1.9,0.5-2,1.4c-0.2,1,0.5,1.9,1.4,2
			c0.1,0,0.1,0,0.2,0l0,0h0.2c1-0.1,1.7-0.9,1.7-1.9C48.6,103.4,48,102.7,47.2,102.6z M37.2,100.3c-0.9-0.3-1.9,0.2-2.2,1.1
			s0.2,1.9,1.1,2.2c0.2,0.1,0.4,0.1,0.6,0.1c1,0,1.8-0.8,1.8-1.8C38.4,101.2,37.9,100.5,37.2,100.3L37.2,100.3z M42.1,101.7
			c-0.9-0.3-1.9,0.2-2.2,1.2c-0.3,0.9,0.2,1.9,1.2,2.2c0.1,0,0.2,0,0.2,0.1c0.1,0,0.3,0,0.4,0c1-0.1,1.7-0.9,1.6-1.9
			C43.3,102.5,42.8,101.9,42.1,101.7L42.1,101.7z M32.4,98.4c-0.9-0.4-1.9-0.1-2.3,0.8c0,0,0,0,0,0c-0.4,0.9,0,1.9,0.8,2.4
			c0.2,0.1,0.5,0.2,0.8,0.2c1,0,1.8-0.8,1.8-1.8C33.4,99.3,33,98.7,32.4,98.4L32.4,98.4z M62.5,102.1c-1,0.1-1.6,1-1.5,2
			c0.1,0.9,0.9,1.6,1.8,1.5c0.1,0,0.2,0,0.3,0c1-0.2,1.6-1.1,1.4-2.1C64.4,102.5,63.5,101.9,62.5,102.1
			C62.5,102.1,62.5,102.1,62.5,102.1L62.5,102.1z M67.5,100.9c-0.9,0.3-1.5,1.2-1.2,2.2c0,0,0,0,0,0c0.2,0.7,0.9,1.3,1.7,1.3
			c0.2,0,0.4,0,0.5-0.1c0.9-0.2,1.5-1.2,1.3-2.2s-1.2-1.5-2.2-1.3C67.6,100.8,67.6,100.9,67.5,100.9L67.5,100.9z M72.4,99.1
			c-0.9,0.4-1.3,1.4-1,2.3c0.3,0.7,0.9,1.1,1.6,1.1c0.2,0,0.5,0,0.7-0.1c0.9-0.4,1.4-1.4,1-2.3C74.4,99.2,73.4,98.7,72.4,99.1
			C72.4,99.1,72.4,99.1,72.4,99.1L72.4,99.1z M57.4,102.7c-1,0.1-1.7,1-1.6,2c0.1,0.9,0.8,1.6,1.7,1.6h0.1l0,0
			c1-0.1,1.7-0.9,1.6-1.8c0,0,0,0,0-0.1C59.3,103.4,58.4,102.7,57.4,102.7C57.4,102.7,57.4,102.7,57.4,102.7z M77,96.9
			c-0.9,0.5-1.2,1.6-0.7,2.4c0.3,0.6,0.9,0.9,1.6,0.9c0.3,0,0.6-0.1,0.8-0.2c0.9-0.3,1.4-1.4,1-2.3c-0.3-0.9-1.4-1.4-2.3-1
			C77.3,96.7,77.1,96.8,77,96.9L77,96.9z"/>
	</g>
</g>
</svg>
