<?xml version="1.0" encoding="utf-8"?>
<!-- Generator: Adobe Illustrator 19.2.1, SVG Export Plug-In . SVG Version: 6.00 Build 0)  -->
<svg version="1.1" id="Layer_1" xmlns="http://www.w3.org/2000/svg" xmlns:xlink="http://www.w3.org/1999/xlink" x="0px" y="0px"
	 viewBox="0 0 32 32" style="enable-background:new 0 0 32 32;" xml:space="preserve">
<style type="text/css">
	.st0{fill:#8FC44A;}
	.st1{fill:#07A3D7;}
</style>
<title>custom-code</title>
<g id="Rounded_Rectangle_1">
	<path class="st0" d="M26.7,1.9c1,0,1.9,0.8,1.9,1.9l0,0v24.4c0,1-0.8,1.9-1.9,1.9l0,0H5.3c-1,0-1.9-0.8-1.9-1.9l0,0V3.8
		c0-1,0.8-1.9,1.9-1.9H26.7 M26.7,0.3H5.3c-1.9,0-3.5,1.6-3.5,3.5l0,0v24.4c0,1.9,1.6,3.5,3.5,3.5h0h21.4c1.9,0,3.5-1.6,3.5-3.5
		c0,0,0,0,0,0V3.8C30.2,1.8,28.6,0.3,26.7,0.3L26.7,0.3C26.7,0.3,26.7,0.3,26.7,0.3z"/>
</g>
<g id="Rounded_Rectangle_2">
	<path class="st0" d="M24.7,4.1H7.1c-0.4,0-0.7,0.3-0.7,0.7c0,0.4,0.3,0.7,0.7,0.7h17.7c0.4,0,0.7-0.3,0.7-0.7
		C25.5,4.4,25.1,4.1,24.7,4.1L24.7,4.1L24.7,4.1z"/>
</g>
<g id="Rounded_Rectangle_2_copy">
	<path class="st0" d="M24.7,25.6H7.1c-0.4,0-0.7,0.3-0.7,0.7c0,0.4,0.3,0.7,0.7,0.7h17.7c0.4,0,0.7-0.3,0.7-0.7
		C25.5,25.9,25.1,25.6,24.7,25.6L24.7,25.6L24.7,25.6z"/>
</g>
<g id="Forma_1">
	<path class="st1" d="M9.1,11.1c-0.4-0.4-0.9-0.4-1.3,0c0,0,0,0,0,0L5,14c-0.4,0.4-0.4,0.9,0,1.3c0,0,0,0,0,0l2.8,2.9
		c0.4,0.3,1,0.2,1.3-0.2c0.2-0.3,0.2-0.8,0-1.1L7,14.6l2.1-2.2C9.5,12.1,9.5,11.5,9.1,11.1C9.1,11.1,9.1,11.1,9.1,11.1z M26.7,14
		l-2.8-2.8c-0.4-0.4-0.9-0.4-1.3,0c-0.4,0.4-0.4,0.9,0,1.3l2.2,2.2l-2.2,2.2c-0.4,0.4-0.4,0.9,0,1.3c0.4,0.4,0.9,0.4,1.3,0l2.8-2.8
		C27.1,14.9,27.1,14.3,26.7,14C26.7,14,26.7,14,26.7,14L26.7,14z"/>
</g>
<g id="Forma_1-2">
	<path class="st1" d="M20.6,9.8c-0.3-1.2-1.6-2-2.8-1.7c-0.6,0.2-1.1,0.6-1.4,1.1l-4.9,8.5c0,0.1,0,0.1,0,0.2l-0.4,4.6
		c0,0.2,0.1,0.4,0.4,0.4c0,0,0.1,0,0.1,0h0.1l3.4-2.2c0.1,0,0.1-0.1,0.1-0.1l5.1-9C20.7,11.1,20.8,10.4,20.6,9.8z M13.3,20.9
		c-0.1-0.2-0.3-0.4-0.6-0.5c-0.2-0.1-0.4-0.1-0.6-0.2l0.2-2l0.9-0.2l0.2,0.8c0.1,0.2,0.3,0.3,0.5,0.3l0.7-0.2l0.1,1.3L13.3,20.9z
		 M18.6,13.1L15.2,19v-0.7c0-0.2-0.2-0.4-0.4-0.4c0,0-0.1,0-0.1,0L14,18.2l-0.2-0.8c-0.1-0.2-0.2-0.3-0.4-0.3l-0.6,0.2l3.3-5.7l0,0
		c0.4-0.7,1.3-1,2-0.6c0.7,0.4,1,1.3,0.6,2C18.7,13.1,18.7,13.1,18.6,13.1L18.6,13.1z M17.7,11.6c-0.2-0.1-0.4,0-0.5,0.1l-2.7,4.8
		c-0.1,0.2-0.1,0.4,0.1,0.5c0.2,0.1,0.4,0.1,0.5-0.1c0,0,0,0,0,0l2.7-4.8C18,11.9,17.9,11.7,17.7,11.6L17.7,11.6z"/>
</g>
</svg>
