<?xml version="1.0" encoding="utf-8"?>
<!-- Generator: Adobe Illustrator 22.1.0, SVG Export Plug-In . SVG Version: 6.00 Build 0)  -->
<svg version="1.1" id="Layer_1" xmlns="http://www.w3.org/2000/svg" xmlns:xlink="http://www.w3.org/1999/xlink" x="0px" y="0px"
	 viewBox="0 0 32 32" style="enable-background:new 0 0 32 32;" xml:space="preserve">
<style type="text/css">
	.st0{fill:#1AA3D5;}
	.st1{fill-rule:evenodd;clip-rule:evenodd;fill:#FFFFFF;}
</style>
<g>
	<path class="st0" d="M16.7,26.3h10.2c1.2,0,2.1-0.9,2.1-2.1V7.4c0-1.2-0.9-2.1-2.1-2.1l0,0H5.5c-1.2,0-2.1,0.9-2.1,2.1v16.8
		c0,1.2,0.9,2.1,2.1,2.1h10.2"/>
</g>
<g id="Shape_2">
	<g>
		<path class="st1" d="M9.8,12.4h8c0.4,0,0.8-0.4,0.8-0.8c0-0.5-0.4-0.8-0.8-0.8h-8c-0.5,0-0.8,0.4-0.8,0.8C9,12,9.3,12.4,9.8,12.4z
			 M9.8,16.7h12.8c0.4,0,0.8-0.4,0.8-0.8S23,15,22.6,15H9.8C9.3,15,9,15.4,9,15.8S9.3,16.7,9.8,16.7z M22.6,19.3H9.8
			c-0.5,0-0.8,0.4-0.8,0.8s0.4,0.8,0.8,0.8h12.8c0.4,0,0.8-0.4,0.8-0.8S23,19.3,22.6,19.3z"/>
	</g>
</g>
</svg>
