<?xml version="1.0" encoding="utf-8"?>
<!-- Generator: Adobe Illustrator 19.2.1, SVG Export Plug-In . SVG Version: 6.00 Build 0)  -->
<svg version="1.1" id="Layer_1" xmlns="http://www.w3.org/2000/svg" xmlns:xlink="http://www.w3.org/1999/xlink" x="0px" y="0px"
	 viewBox="0 0 32 32" style="enable-background:new 0 0 32 32;" xml:space="preserve">
<style type="text/css">
	.st0{fill:#009DDC;}
	.st1{fill:none;stroke:#F68E1E;stroke-miterlimit:10;}
	.st2{fill:#8ACE3C;}
</style>
<g id="Forma_1_2_">
	<g>
		<path class="st0" d="M6.2,22.5l-3.7,2.7V9.5L12,3l0,0v4.3l2.1-1V1.8c0-0.9-0.6-1.6-1.6-1.6l0,0c-0.3,0-0.3,0.3-0.6,0.3L1.3,7.6
			C1,7.9,0.4,8.2,0.4,8.8v17.4c0,0.9,0.6,1.6,1.6,1.6c0.3,0,0.3,0,0.6-0.3l3.7-2.4L6.2,22.5z"/>
	</g>
</g>
<circle class="st1" cx="21.5" cy="20.8" r="6.4"/>
<line class="st1" x1="26.8" y1="25.1" x2="31.6" y2="30.2"/>
<g id="Forma_1_3_">
	<g>
		<path class="st2" d="M16,26.2L12.3,29V13l9.5-6.4l0,0v4.3l2.1-0.9V5.8c0-0.9-0.6-1.6-1.6-1.6l0,0c-0.3,0-0.3,0.3-0.6,0.3
			l-10.8,7.1c-0.3,0.3-0.9,0.6-0.9,1.3v17.4c0,0.9,0.6,1.6,1.6,1.6c0.3,0,0.3,0,0.6-0.3l3.8-2.9V26.2z"/>
	</g>
</g>
</svg>
