<?xml version="1.0" encoding="utf-8"?>
<!-- Generator: Adobe Illustrator 19.2.1, SVG Export Plug-In . SVG Version: 6.00 Build 0)  -->
<svg version="1.1" id="Layer_1" xmlns="http://www.w3.org/2000/svg" xmlns:xlink="http://www.w3.org/1999/xlink" x="0px" y="0px"
	 viewBox="0 0 32 32" style="enable-background:new 0 0 32 32;" xml:space="preserve">
<style type="text/css">
	.st0{fill:#A7A9AC;}
	.st1{fill:#626262;}
</style>
<g>
	<g>
		<polyline id="XMLID_342_" class="st0" points="16.9,18.6 17.4,29.5 15.9,30.8 14.5,29.5 14.9,18.6 		"/>
		<path class="st1" d="M4.8,26c0.3,0,0.6-0.3,0.6-0.6v-3.2c0-0.5,0.2-1,0.6-1.3c2.8-2.3,5.9-3.9,6.5-4.1c0.3-0.1,0.4-0.4,0.4-0.7
			v-4.4c0-0.2-0.1-0.4-0.3-0.5c-0.4-0.3-0.7-0.8-0.7-1.3V5.4c0-2,1.6-3.6,3.6-3.6h1c2,0,3.6,1.6,3.6,3.6V10c0,0.5-0.3,1-0.7,1.3
			c-0.2,0.1-0.3,0.3-0.3,0.5v4.4c0,0.3,0.2,0.6,0.4,0.7c0.6,0.3,3.6,1.8,6.5,4.1c0.4,0.3,0.6,0.8,0.6,1.3v3.2c0,0.3,0.3,0.6,0.6,0.6
			s0.6-0.3,0.6-0.6v-3.2c0-0.8-0.4-1.6-1-2.2c-2.7-2.2-5.5-3.7-6.5-4.2V12c0.6-0.5,0.9-1.2,0.9-2V5.4c0-2.6-2.1-4.7-4.7-4.7h-1
			c-2.6,0-4.7,2.1-4.7,4.7V10c0,0.8,0.3,1.5,0.9,2v3.9c-0.9,0.5-3.8,2-6.5,4.2c-0.6,0.5-1,1.3-1,2.2v3.2C4.2,25.7,4.5,26,4.8,26z"/>
		<path class="st1" d="M17.5,16.9c-0.3,0-0.6,0.3-0.6,0.6c0,0.3-0.1,0.5-0.3,0.7c0,0-0.1,0.1-0.1,0.1c-0.2,0.1-0.3,0.2-0.5,0.2
			c-0.5,0-1-0.4-1-1c0-0.3-0.3-0.6-0.6-0.6s-0.6,0.3-0.6,0.6c0,0.5,0.2,1,0.5,1.3l-0.5,10.7c0,0.2,0.1,0.3,0.2,0.4l1.5,1.3
			c0.1,0.1,0.2,0.1,0.4,0.1c0.1,0,0.3-0.1,0.4-0.1l1.5-1.3c0.1-0.1,0.2-0.3,0.2-0.4l-0.5-10.6c0.4-0.4,0.6-0.9,0.6-1.4
			C18.1,17.1,17.8,16.9,17.5,16.9z M15.9,30l-0.9-0.8l0.4-9.8c0.2,0,0.3,0.1,0.5,0.1c0.1,0,0.3,0,0.4,0l0.4,9.7L15.9,30z"/>
	</g>
</g>
</svg>
