<?xml version="1.0" encoding="utf-8"?>
<!-- Generator: Adobe Illustrator 19.2.1, SVG Export Plug-In . SVG Version: 6.00 Build 0)  -->
<svg version="1.1" id="Layer_1" xmlns="http://www.w3.org/2000/svg" xmlns:xlink="http://www.w3.org/1999/xlink" x="0px" y="0px"
	 viewBox="0 0 32 32" style="enable-background:new 0 0 32 32;" xml:space="preserve">
<style type="text/css">
	.st0{fill:none;stroke:#7AC143;stroke-miterlimit:10;}
	.st1{fill:#7AC143;}
</style>
<g>
	<g>
		<path class="st0" d="M22.9,0.5H9.5c-0.9,0-1.4,0.9-1.4,1.4v28.3c0,0.9,0.9,1.4,1.4,1.4h13.4c0.9,0,1.4-0.9,1.4-1.4V2
			C24.3,1.1,23.5,0.5,22.9,0.5z M17.5,4.4h-3.1 M16.2,30.2c-0.9,0-1.4-0.6-1.4-1.4c0-0.8,0.6-1.4,1.4-1.4s1.4,0.6,1.4,1.4
			C17.6,30,17.1,30.2,16.2,30.2z M24.1,26.5H7.8"/>
	</g>
</g>
<path class="st1" d="M18.9,15.4c0-1.4,1.1-2,1.4-2c-0.9-0.9-1.4-1.1-2-1.1c-0.9,0-1.4,0.6-2,0.6c-0.3,0-1.1-0.6-2-0.6
	s-2,0.6-2.3,1.4c-0.9,1.4-0.3,4,0.9,5.4c0.6,0.9,1.1,1.4,2,1.4s0.9-0.6,2-0.6c0.9,0,1.1,0.6,2,0.3c0.9,0,1.4-0.9,1.4-1.4
	c0.6-0.9,0.9-1.4,0.9-1.4C20.4,17.4,18.9,17.1,18.9,15.4z M17.8,11.7c0.3-0.6,0.9-1.1,0.6-2c-0.6,0-1.4,0.3-1.4,0.9
	c-0.3,0.3-0.9,1.1-0.6,1.4C16.6,12.6,17.2,12,17.8,11.7z"/>
</svg>
