<?xml version="1.0" encoding="utf-8"?>
<!-- Generator: Adobe Illustrator 19.2.1, SVG Export Plug-In . SVG Version: 6.00 Build 0)  -->
<svg version="1.1" id="Layer_1" xmlns="http://www.w3.org/2000/svg" xmlns:xlink="http://www.w3.org/1999/xlink" x="0px" y="0px"
	 viewBox="0 0 32 32" style="enable-background:new 0 0 32 32;" xml:space="preserve">
<style type="text/css">
	.st0{fill:#2C7DA9;}
</style>
<g>
	<g>
		<path class="st0" d="M1.4,9.6V31c0,0.3,0.3,0.8,0.8,0.8h1.9V8.8H2.3C1.7,8.5,1.4,9.1,1.4,9.6z M22.3,8.5H6.6v22.8h15.7
			c0.3,0,0.8-0.3,0.8-0.8V9.1C22.9,9.1,22.3,8.5,22.3,8.5z M7.5,3.6H5.6c-0.3,0-0.8,0.3-0.8,0.8v3.3h2.5L7.5,3.6L7.5,3.6z M25.6,3.6
			H9.9v3.8h12.4c0.8,0,1.4,0.8,1.4,1.4v18.4h1.9c0.3,0,0.8-0.3,0.8-0.8V3.9C26.4,3.9,26.1,3.6,25.6,3.6z M11.3,0H9.4
			C9.1,0,8.6,0.3,8.6,0.8v1.6H11L11.3,0L11.3,0z M29.4,0H13.8v2.5h12.4c0.8,0,1.4,0.8,1.4,1.4v18.4h1.9c0.3,0,0.8-0.3,0.8-0.8V0
			C30.3,0.6,30,0,29.4,0z"/>
	</g>
</g>
</svg>
