<?xml version="1.0" encoding="utf-8"?>
<!-- Generator: Adobe Illustrator 19.2.1, SVG Export Plug-In . SVG Version: 6.00 Build 0)  -->
<svg version="1.1" id="_" xmlns="http://www.w3.org/2000/svg" xmlns:xlink="http://www.w3.org/1999/xlink" x="0px" y="0px"
	 viewBox="0 0 16 16" style="enable-background:new 0 0 16 16;" xml:space="preserve">
<style type="text/css">
	.st0{fill:#FFFFFF;}
	.st1{fill:#699DC5;}
</style>
<title>icon-in-progress</title>
<g>
	<g id="Ellipse_1">
		<g id="Ellipse_1-2">
			<path class="st0" d="M8.1,15C4.2,15.1,1,12,1,8.1C0.9,4.2,4,1,7.9,1c3.9-0.1,7.1,3,7.1,6.9C15,11.8,12,14.9,8.1,15
				C8.1,15,8.1,15,8.1,15z"/>
			<path class="st1" d="M7.9,1.3c3.7-0.1,6.8,2.9,6.8,6.6s-2.9,6.8-6.6,6.8s-6.8-2.9-6.8-6.6c0,0,0,0,0,0C1.2,4.4,4.2,1.3,7.9,1.3
				 M7.9,0.3C3.6,0.3,0.2,3.9,0.3,8.1s3.6,7.7,7.9,7.6c4.3-0.1,7.7-3.6,7.6-7.9C15.7,3.6,12.1,0.2,7.9,0.3C7.9,0.3,7.9,0.3,7.9,0.3
				L7.9,0.3L7.9,0.3z"/>
		</g>
	</g>
	<g id="Forma_1">
		<path class="st1" d="M11.5,8.2c0-0.9-0.3-1.7-1-2.3c-0.2-0.2-0.5-0.2-0.7,0c-0.2,0.2-0.2,0.5,0,0.7c0.5,0.4,0.7,1,0.7,1.6
			c0,0.7-0.2,1.3-0.7,1.8c-0.4,0.4-1,0.7-1.6,0.7l0.6-0.6C9,9.9,9,9.6,8.8,9.4c-0.2-0.2-0.5-0.2-0.7,0l-1.7,1.7l1.7,1.7
			c0.2,0.2,0.5,0.2,0.7,0c0.2-0.2,0.2-0.5,0-0.7l-0.6-0.6c0.9,0,1.7-0.4,2.3-1C11.2,9.9,11.5,9.1,11.5,8.2z M5.4,8.2
			c0-0.7,0.2-1.3,0.7-1.8c0.4-0.4,1-0.7,1.6-0.7L7.1,6.2C7,6.4,7,6.7,7.1,6.9s0.5,0.2,0.7,0l1.7-1.7L7.8,3.4c-0.2-0.2-0.5-0.2-0.7,0
			S7,3.9,7.1,4.1l0,0l0.6,0.6c-0.9,0-1.7,0.4-2.3,1c-0.7,0.7-1,1.6-1,2.5c0,0.9,0.3,1.7,1,2.3c0.2,0.2,0.5,0.2,0.7,0
			c0.2-0.2,0.2-0.5,0-0.7l0,0C5.6,9.4,5.4,8.8,5.4,8.2L5.4,8.2z"/>
	</g>
</g>
</svg>
