<?xml version="1.0" encoding="utf-8"?>
<!-- Generator: Adobe Illustrator 19.2.1, SVG Export Plug-In . SVG Version: 6.00 Build 0)  -->
<svg version="1.1" id="Layer_1" xmlns="http://www.w3.org/2000/svg" xmlns:xlink="http://www.w3.org/1999/xlink" x="0px" y="0px"
	 viewBox="0 0 32 32" style="enable-background:new 0 0 32 32;" xml:space="preserve">
<style type="text/css">
	.st0{fill:#78C143;}
</style>
<g>
	<path class="st0" d="M30.3,16c0-7.9-6.4-14.3-14.3-14.3S1.7,8.1,1.7,16S8.1,30.3,16,30.3S30.3,23.9,30.3,16z M4.1,16
		C4.1,9.4,9.4,4.1,16,4.1S27.9,9.4,27.9,16S22.6,27.9,16,27.9S4.1,22.6,4.1,16z"/>
	<path class="st0" d="M23.2,17.8c0-0.7-0.5-1.2-1.2-1.2h-6V9.4c0-0.7-0.5-1.2-1.2-1.2c-0.7,0-1.2,0.5-1.2,1.2v8.4
		c0,0.7,0.5,1.2,1.2,1.2H22C22.6,19,23.2,18.5,23.2,17.8L23.2,17.8z"/>
</g>
</svg>
