<?xml version="1.0" encoding="utf-8"?>
<!-- Generator: Adobe Illustrator 19.2.1, SVG Export Plug-In . SVG Version: 6.00 Build 0)  -->
<svg version="1.1" xmlns="http://www.w3.org/2000/svg" xmlns:xlink="http://www.w3.org/1999/xlink" x="0px" y="0px"
	 viewBox="0 0 32 32" style="enable-background:new 0 0 32 32;" xml:space="preserve">
<style type="text/css">
	.st0{enable-background:new    ;}
	.st1{fill:#8CC63F;}
	.st2{fill:#FD8D2C;}
</style>
<g id="Layer_1">
	<g id="Shape_1_copy_1_" class="st0">
	</g>
	<g id="Rounded_Rectangle_1_1_" class="st0">
	</g>
</g>
<g id="Layer_2">
	<g>
		<g>
			<path class="st1" d="M15.9,2.6l-2.6,0.2c-0.2-0.1-0.4-0.1-0.6-0.2L3.5,2.5C2.6,2.5,1.9,3.1,1.9,4l-0.7,9.3c0,0.4,0.1,0.9,0.4,1.2
				L14.9,29c0.6,0.7,1.6,0.7,2.2,0.1l0.7-0.6l0.4,0.4c0.6,0.7,1.6,0.7,2.2,0.1l9.9-9c0.7-0.6,0.7-1.6,0.1-2.2L17.1,3.2
				C16.8,2.9,16.4,2.7,15.9,2.6C16,2.6,15.9,2.7,15.9,2.6L15.9,2.6z M15.6,28.2L2.4,13.7c-0.1-0.1-0.1-0.3-0.1-0.4l0.7-9.2
				c0-0.1,0.1-0.3,0.2-0.3c0.1-0.1,0.2-0.1,0.4-0.1l9.3,0.2c0.1,0,0.3,0.1,0.4,0.2l13.2,14.5c0.2,0.2,0.2,0.6,0,0.7l-9.9,9
				C16.2,28.5,15.8,28.5,15.6,28.2L15.6,28.2z M29.5,19.1l-9.9,9c-0.2,0.2-0.6,0.2-0.7,0l-0.4-0.4L27,20c0.7-0.6,0.7-1.6,0.1-2.2
				L14.4,3.9L16,3.7c0.1,0,0.2,0.1,0.3,0.2"/>
			<path class="st1" d="M5.7,6.4c-0.9,0.8-1,2.3-0.1,3.2s2.3,1,3.2,0.1c0.9-0.8,1-2.3,0.1-3.2S6.6,5.6,5.7,6.4z M8.3,9.2
				C7.6,9.8,6.7,9.8,6,9.1C5.4,8.4,5.5,7.4,6.2,6.8s1.7-0.6,2.3,0.1S9,8.6,8.3,9.2z"/>
		</g>
		<g id="Shape_1_1_">
			<g>
				<path class="st2" d="M13.7,16.5l2.7,3c0.3,0.3,0.9,0.4,1.2,0.1c0.3-0.3,0.4-0.9,0.1-1.2l-2.7-3l3-2.7c0.3-0.3,0.4-0.9,0.1-1.2
					s-0.9-0.4-1.2-0.1l-3,2.7L11,11.2c-0.2-0.2-0.4-0.3-0.5-0.3c-0.5,0-0.8,0.4-0.8,0.8c0,0.2,0.1,0.4,0.2,0.6l2.7,3l-3,2.7
					c-0.2,0.2-0.3,0.4-0.3,0.5c0,0.2,0.1,0.4,0.2,0.6c0.3,0.3,0.9,0.4,1.2,0.1L13.7,16.5z"/>
			</g>
		</g>
	</g>
</g>
</svg>
