<?xml version="1.0" encoding="utf-8"?>
<!-- Generator: Adobe Illustrator 22.1.0, SVG Export Plug-In . SVG Version: 6.00 Build 0)  -->
<svg version="1.1" id="Layer_1" xmlns="http://www.w3.org/2000/svg" xmlns:xlink="http://www.w3.org/1999/xlink" x="0px" y="0px"
	 viewBox="0 0 32 32" style="enable-background:new 0 0 32 32;" xml:space="preserve">
<style type="text/css">
	.st0{fill:#00A3D9;}
	.st1{fill:#FF6600;}
	.st2{fill:#8CC63F;}
</style>
<g id="Layer_3">
	<g id="Layer_3_1_">
		<g>
			<g>
				<g>
					<path class="st0" d="M13,10.5L13,10.5c-1.1,0.3-2,0.3-3.1-0.3C9.3,9.6,8.8,8.8,8.2,7.9c-0.3-0.6-0.6-1.4-0.6-2
						C7.1,3.4,8.2,1.7,9.3,1.4c0.9-0.3,2,0.3,2.3,3.1C11.9,6.8,11.6,9.1,13,10.5L13,10.5"/>
				</g>
			</g>
			<g>
				<g>
					<path class="st0" d="M14.2,12.5c4.3-0.3,7.7-4.3,8.5-5.7c1.1-2.6,0.9-4.3-0.6-4.6s-2.8,0.6-4,3.1c-1.1,2.6-2.3,5.1-4.6,6.5
						c0,0-1.1,0.6-2.6,0.3C11,11.4,11.9,12.5,14.2,12.5"/>
				</g>
			</g>
			<g>
				<g>
					<path class="st1" d="M8.8,15L8.8,15L8.8,15c0.3-2-0.3-3.7-1.7-4.8C6.8,9.9,6.5,9.6,5.9,9.6C5.3,9.4,4.8,9.1,4.2,9.1
						c-2.3-0.3-3.7,0.9-3.4,2.3c0.3,0.9,0.6,2.3,2.8,2.3C5.9,13.6,7.6,13.9,8.8,15"/>
				</g>
			</g>
			<g>
				<g>
					<path class="st1" d="M9.3,11.9c0,0,0.9,1.7,0.3,4c-0.6,2.3-2.8,3.7-4.6,4.6c-1.7,0.9-2.6,2.6-2.3,3.4c0.6,1.1,2.3,1.7,4,0.9
						c1.1-0.6,4.8-3.1,4.6-7.7C10.8,13.1,9.3,11.9,9.3,11.9"/>
				</g>
			</g>
			<g>
				<g>
					<path class="st2" d="M12.7,19.6c1.1-2.6,3.1-3.1,3.1-3.1c4-1.7,10,2,10.5,2.6c0.9,0.6,3.4,1.1,4.6-0.9c0.9-1.7-0.3-3.1-1.7-4
						c-2.6-1.7-10.2-4.3-14.8,2C14.2,16.2,13.3,17.3,12.7,19.6"/>
				</g>
			</g>
			<g>
				<g>
					<path class="st2" d="M20.4,26.1c-0.9-0.9-4.8-4.3-4.8-8.5v-0.3l-0.3,0.3c-1.1,0.9-2.6,2.3-2.6,3.7c-0.3,0.6-0.3,1.4,0.3,2.3
						c0.6,2.3,1.7,4.3,3.1,5.7c1.7,1.7,3.7,2.3,4.6,1.1C21.3,28.7,21.3,27.3,20.4,26.1"/>
				</g>
			</g>
		</g>
	</g>
</g>
</svg>
