<?xml version="1.0" encoding="utf-8"?>
<!-- Generator: Adobe Illustrator 19.2.1, SVG Export Plug-In . SVG Version: 6.00 Build 0)  -->
<svg version="1.1" id="Background_Image" xmlns="http://www.w3.org/2000/svg" xmlns:xlink="http://www.w3.org/1999/xlink" x="0px"
	 y="0px" viewBox="0 0 32 32" style="enable-background:new 0 0 32 32;" xml:space="preserve">
<style type="text/css">
	.st0{fill:#F59222;}
	.st1{fill:#00A3D7;}
</style>
<title>icon-edit-configuration</title>
<g id="Forma_1">
	<g id="Forma_1-2">
		<path class="st0" d="M19.4,8.7c-0.1-0.1-0.1-0.1-0.2-0.2c-2.2-0.9-4.7-0.9-6.9,0c-0.1,0-0.2,0.1-0.2,0.2c-3.1,1.4-5.1,4.5-5.2,7.8
			c0,3.4,2,6.5,5.1,7.9c0.1,0.1,0.1,0.1,0.2,0.2c1.1,0.5,2.3,0.7,3.5,0.7c0.7,0,1.4-0.1,2.1-0.2l-1-1c-1.3,0.2-2.7,0-3.9-0.4
			c-0.1-0.1-0.1-0.1-0.2-0.2c-3.8-1.5-5.7-5.8-4.1-9.6c0.8-1.9,2.3-3.4,4.1-4.1c0.1,0,0.2-0.1,0.2-0.2c1.8-0.7,3.8-0.7,5.5,0
			c0.1,0.1,0.1,0.1,0.2,0.2c2.8,1.1,4.7,3.9,4.7,6.9c0,0.4,0,0.7-0.1,1.1l1,0.9c0.2-0.7,0.3-1.3,0.3-2C24.6,13.2,22.5,10.1,19.4,8.7
			z M30.9,14c-0.4-0.4-0.9-0.6-1.4-0.6h-0.9c-0.2-0.9-0.6-1.9-1-2.7c-0.2-0.3-0.4-0.6-0.5-0.9l0.6-0.6c0.4-0.4,0.6-0.9,0.6-1.4
			c0-0.5-0.2-1-0.6-1.4L26,4.8c-0.8-0.8-2-0.8-2.8,0l-0.6,0.6c-1.2-0.7-2.4-1.2-3.7-1.5V3c0-1.1-0.9-1.9-2-1.9h-2.3
			c-1.1,0-2,0.9-2,1.9v0.9C11.3,4.2,10,4.7,8.9,5.4L8.2,4.8C7.5,4,6.2,4,5.4,4.8L3.8,6.4C3.4,6.8,3.2,7.3,3.2,7.8
			c0,0.6,0.2,1.1,0.6,1.5l0.6,0.6c-0.2,0.3-0.3,0.5-0.5,0.9c-0.4,0.9-0.8,1.8-1,2.7H2c-0.5,0-1,0.2-1.4,0.6C0.2,14.3,0,14.8,0,15.3
			v2.4c0,0.5,0.2,1,0.6,1.4C1,19.5,1.5,19.7,2,19.7h0.9c0.2,0.9,0.6,1.9,1,2.7C4,22.7,4.2,23,4.3,23.3l-0.6,0.6
			c-0.8,0.8-0.8,2,0,2.8c0,0,0,0,0,0l1.7,1.6c0.8,0.8,2,0.8,2.8,0l0.6-0.6c1.2,0.7,2.4,1.2,3.7,1.5v0.9c0,1.1,0.9,1.9,2,1.9h2.4
			c1.1,0,2-0.9,2-1.9v-0.9c0.8-0.2,1.6-0.5,2.3-0.8l-1-1c-0.7,0.3-1.4,0.5-2.1,0.6c-0.3,0.1-0.5,0.3-0.5,0.6v1.4
			c0,0.4-0.3,0.6-0.7,0.6c0,0,0,0,0,0h-2.3c-0.4,0-0.7-0.3-0.7-0.6c0,0,0,0,0,0v-1.4c0-0.3-0.2-0.6-0.5-0.6
			c-1.5-0.3-2.9-0.9-4.2-1.7c-0.3-0.2-0.6-0.1-0.8,0.1l-1,1c-0.3,0.2-0.7,0.2-0.9,0l-1.7-1.6c-0.1-0.1-0.2-0.3-0.2-0.5
			c0-0.2,0.1-0.4,0.2-0.5l1-1C5.9,23.6,6,23.2,5.8,23c-0.8-1.2-1.4-2.6-1.7-4.1c-0.1-0.3-0.3-0.5-0.6-0.5H2c-0.2,0-0.3-0.1-0.5-0.2
			c-0.1-0.1-0.2-0.3-0.2-0.5v-2.4c0-0.2,0.1-0.3,0.2-0.5c0.1-0.1,0.3-0.2,0.5-0.2h1.4c0.3,0,0.6-0.2,0.6-0.5
			c0.3-1.5,0.9-2.9,1.7-4.1c0.2-0.3,0.1-0.6-0.1-0.8l-1-1C4.5,8.1,4.5,7.9,4.5,7.7c0-0.2,0.1-0.3,0.2-0.5l1.7-1.6
			c0.3-0.2,0.7-0.2,0.9,0l1,1c0.2,0.2,0.6,0.2,0.8,0.1c1.3-0.8,2.7-1.4,4.2-1.7c0.3-0.1,0.5-0.3,0.5-0.6V3c0-0.4,0.3-0.6,0.7-0.6
			c0,0,0,0,0,0h2.4c0.4,0,0.7,0.3,0.7,0.6c0,0,0,0,0,0v1.4c0,0.3,0.2,0.6,0.5,0.7c1.5,0.3,2.9,0.9,4.2,1.7c0.3,0.2,0.6,0.1,0.8-0.1
			l1-1c0.3-0.2,0.7-0.2,0.9,0l1.7,1.6C26.9,7.5,27,7.7,27,7.9c0,0.2-0.1,0.4-0.2,0.5l-1,1c-0.2,0.2-0.3,0.6-0.1,0.8
			c0.2,0.4,0.5,0.8,0.7,1.2c0.5,0.9,0.8,1.9,1,2.9c0.1,0.3,0.3,0.5,0.6,0.5h1.5c0.2,0,0.3,0.1,0.5,0.2c0.1,0.1,0.2,0.3,0.2,0.5v2.4
			c0,0.2-0.1,0.3-0.2,0.5c-0.1,0.1-0.3,0.2-0.5,0.2h-1.4c-0.3,0-0.6,0.2-0.6,0.5c-0.1,0.7-0.4,1.4-0.6,2l1,1
			c0.3-0.7,0.6-1.4,0.8-2.2h0.9c0.5,0,1-0.2,1.4-0.6c0.4-0.4,0.6-0.9,0.6-1.4v-2.6C31.5,14.8,31.3,14.3,30.9,14L30.9,14z"/>
	</g>
</g>
<g id="Forma_1-3">
	<g id="Forma_1-4">
		<path class="st1" d="M28.7,25.1L22,18.6c0.7-2.2,0.1-4.7-1.6-6.3c-1.8-1.8-4.6-2.3-6.9-1.4C13.2,11,13,11.2,13,11.5
			c-0.1,0.3,0,0.5,0.2,0.7l3,3L14.4,17l-3-3c-0.2-0.2-0.5-0.3-0.8-0.2c-0.3,0.1-0.5,0.2-0.6,0.5c-1,2.3-0.4,5.1,1.4,6.8
			c1.7,1.7,4.2,2.2,6.4,1.5l6.7,6.6c1.2,1.1,3,1.1,4.2,0C29.8,28.1,29.8,26.3,28.7,25.1C28.7,25.2,28.7,25.2,28.7,25.1z M12.2,20.3
			c-1.2-1.4-1.8-3.2-1.7-5l2.8,2.8c0.4,0.4,1,0.6,1.5,0.4l2.6-2.7c0.4-0.3,0.4-0.9,0-1.3c0,0,0,0,0,0l-3.1-3
			c1.8-0.1,3.7,0.5,5.1,1.6c2,1.9,2.1,5.1,0.1,7.1c0,0-0.1,0.1-0.1,0.1C17.5,22.3,14.2,22.3,12.2,20.3z M28,28.6
			c-0.2,0.2-1.6,0.9-2.3,0.2l-6.8-6.9c0.5-0.2,1-0.5,1.5-0.8c0.3-0.5,0.6-1.1,0.8-1.7L28,26C28.5,26.8,28.5,27.8,28,28.6z"/>
	</g>
</g>
</svg>
