<?xml version="1.0" encoding="utf-8"?>
<!-- Generator: Adobe Illustrator 19.2.1, SVG Export Plug-In . SVG Version: 6.00 Build 0)  -->
<svg version="1.1" xmlns="http://www.w3.org/2000/svg" xmlns:xlink="http://www.w3.org/1999/xlink" x="0px" y="0px"
	 viewBox="0 0 32 32" style="enable-background:new 0 0 32 32;" xml:space="preserve">
<style type="text/css">
	.st0{fill:none;}
	.st1{fill:#1AA4D7;}
	.st2{fill:#8DC549;}
</style>
<g id="Layer_1">
</g>
<g id="Layer_3">
	<g>
		<path class="st0" d="M5.8,18.4C4,19.7,2.9,21.3,2.9,23v5.9H14c-1.1-1.6-1.7-3.6-1.7-5.7c0-2.5,0.9-4.8,2.4-6.6
			c-0.5,0-1-0.1-1.5-0.1C10.3,16.4,7.6,17.2,5.8,18.4z"/>
		<path class="st0" d="M13.2,12c2.6,0,4.8-2.1,4.8-4.8c0-2.6-2.1-4.8-4.8-4.8S8.4,4.6,8.4,7.2C8.4,9.9,10.5,12,13.2,12z"/>
		<polygon points="13.2,14.9 13.2,14.9 13.2,14.9 		"/>
		<path class="st1" d="M13.2,13.4c3.4,0,6.2-2.8,6.2-6.2c0-3.4-2.8-6.2-6.2-6.2S6.9,3.8,6.9,7.2C6.9,10.7,9.7,13.4,13.2,13.4z
			 M13.2,2.5c2.6,0,4.8,2.1,4.8,4.8c0,2.6-2.1,4.8-4.8,4.8S8.4,9.9,8.4,7.2C8.4,4.6,10.5,2.5,13.2,2.5z"/>
		<path class="st1" d="M2.9,28.8V23c0-1.7,1-3.3,2.9-4.5c1.8-1.2,4.5-2,7.4-2c0.5,0,1,0,1.5,0.1c0.4-0.5,0.8-0.9,1.3-1.3
			c-0.9-0.2-1.9-0.2-2.8-0.2c-3.2,0-6,0.9-8.2,2.3c-2.1,1.4-3.5,3.5-3.5,5.8v6.6c0,0.4,0.3,0.7,0.7,0.7h13c-0.4-0.4-0.8-0.9-1.2-1.5
			H2.9z"/>
	</g>
</g>
<g id="Layer_2">
	<g>
		<path class="st2" d="M24,31.3h-3c-0.2,0-0.4-0.1-0.4-0.3l-0.1-1.8c-0.5-0.1-1-0.3-1.4-0.6l-1.3,1.2c-0.1,0.1-0.4,0.1-0.5,0
			l-2.1-2.1c-0.1-0.1-0.1-0.4,0-0.5l1.2-1.3c-0.3-0.4-0.4-0.9-0.6-1.4L14,24.3c-0.2,0-0.3-0.2-0.3-0.4v-3c0-0.2,0.1-0.4,0.3-0.4
			l1.8-0.1c0.1-0.5,0.3-1,0.6-1.4l-1.2-1.3c-0.1-0.1-0.1-0.4,0-0.5l2.1-2.1c0.1-0.1,0.4-0.1,0.5,0l1.3,1.2c0.4-0.3,0.9-0.4,1.4-0.6
			l0.1-1.8c0-0.2,0.2-0.3,0.4-0.3h3c0.2,0,0.4,0.1,0.4,0.3l0.1,1.8c0.5,0.1,1,0.3,1.4,0.6l1.3-1.2c0.1-0.1,0.4-0.1,0.5,0l2.1,2.1
			c0.1,0.1,0.1,0.4,0,0.5L28.7,19c0.3,0.4,0.4,0.9,0.6,1.4l1.8,0.1c0.2,0,0.3,0.2,0.3,0.4v3c0,0.2-0.1,0.4-0.3,0.4l-1.8,0.1
			c-0.1,0.5-0.3,1-0.6,1.4l1.2,1.3c0.1,0.1,0.1,0.4,0,0.5l-2.1,2.1c-0.1,0.1-0.4,0.1-0.5,0l-1.3-1.2c-0.4,0.3-0.9,0.4-1.4,0.6
			L24.4,31C24.4,31.2,24.2,31.3,24,31.3L24,31.3z M21.4,30.4h2.3l0-1.8c0-0.1,0.1-0.3,0.3-0.3c0.6-0.1,1.2-0.4,1.7-0.7
			c0.1-0.1,0.3-0.1,0.4,0l1.3,1.2l1.6-1.6l-1.2-1.2c-0.1-0.1-0.1-0.3,0-0.4c0.3-0.5,0.6-1.1,0.7-1.7c0-0.1,0.2-0.3,0.3-0.3l1.6,0.1
			v-2.3l-1.7,0.1c-0.1,0-0.3-0.1-0.3-0.3c-0.1-0.6-0.4-1.2-0.7-1.7c-0.1-0.1-0.1-0.3,0-0.4l1.2-1.3L27.3,16l-1.1,1.2
			c-0.1,0.1-0.3,0.1-0.4,0c-0.5-0.3-1.1-0.6-1.7-0.7c-0.1,0-0.3-0.2-0.3-0.3l0-1.6h-2.3l-0.1,1.5c0,0.1-0.1,0.3-0.3,0.3
			c-0.6,0.1-1.2,0.4-1.7,0.7c-0.1,0.1-0.3,0.1-0.4,0L17.6,16L16,17.6l1.4,1.1c0.1,0.1,0.1,0.3,0,0.4c-0.3,0.5-0.6,1.1-0.7,1.7
			c0,0.1-0.2,0.3-0.3,0.3l-1.7,0.1v2.3l1.7,0.1c0.1,0,0.3,0.1,0.3,0.3c0.1,0.6,0.4,1.2,0.7,1.7c0.1,0.1,0.1,0.3,0,0.4l-1.2,1.1
			l1.6,1.6l1.1-1.2c0.1-0.1,0.3-0.1,0.4,0c0.5,0.3,1.1,0.6,1.7,0.7c0.1,0,0.3,0.2,0.3,0.3L21.4,30.4z"/>
		<path class="st2" d="M22.5,24.8c-1.3,0-2.4-1.1-2.4-2.4s1.1-2.4,2.4-2.4s2.4,1.1,2.4,2.4S23.9,24.8,22.5,24.8z M22.5,20.7
			c-0.9,0-1.7,0.7-1.7,1.7c0,0.9,0.7,1.7,1.7,1.7c0.9,0,1.7-0.7,1.7-1.7C24.2,21.5,23.5,20.7,22.5,20.7z"/>
	</g>
</g>
</svg>
