<?xml version="1.0" encoding="utf-8"?>
<!-- Generator: Adobe Illustrator 19.2.1, SVG Export Plug-In . SVG Version: 6.00 Build 0)  -->
<svg version="1.1" id="Layer_1" xmlns="http://www.w3.org/2000/svg" xmlns:xlink="http://www.w3.org/1999/xlink" x="0px" y="0px"
	 viewBox="0 0 32 32" style="enable-background:new 0 0 32 32;" xml:space="preserve">
<style type="text/css">
	.st0{fill:#2C7DA9;}
	.st1{fill:#FFFFFF;}
</style>
<path class="st0" d="M31.3,19.4V5.9c0-3.6-2.7-5.6-5.7-5.6L6.5,0.6c-3.1,0-5.7,2.2-5.7,5.6l0.1,13.8c0,3.6,3,6.4,6.1,6.4l13.2-0.2
	l4.2,5.4c0.2,0.2,0.9,0.2,1.1,0.2c0.2,0-0.2,0-0.2,0c0.2-0.2,0.5-0.6,0.5-0.8V26C28.4,26.1,31.3,22.9,31.3,19.4z"/>
<g>
	<g>
		<path class="st1" d="M7.5,14.7h18.1v-2.1H7.5V14.7z M7.5,8.6v1.9h18.1V8.5L7.5,8.6L7.5,8.6z M7.5,19.1h9.6V17H7.5V19.1z"/>
	</g>
</g>
</svg>
