<?xml version="1.0" encoding="utf-8"?>
<!-- Generator: Adobe Illustrator 19.2.1, SVG Export Plug-In . SVG Version: 6.00 Build 0)  -->
<svg version="1.1" xmlns="http://www.w3.org/2000/svg" xmlns:xlink="http://www.w3.org/1999/xlink" x="0px" y="0px"
	 viewBox="0 0 32 32" style="enable-background:new 0 0 32 32;" xml:space="preserve">
<style type="text/css">
	.st0{fill:#00A3D9;}
	.st1{fill:#FFFFFF;}
	.st2{fill:none;}
	.st3{fill:#8CC435;}
	.st4{fill:#FF6600;}
</style>
<g id="Layer_4_1_">
</g>
<g id="Layer_5">
</g>
<g id="Layer_1">
	<g id="Layer_4">
	</g>
</g>
<g id="Layer_3">
	<g>
		<g>
			<path class="st0" d="M27.4,28.5H4.6V4.1h22.7V28.5z M6,27.2h20V5.4H6V27.2z"/>
			<path class="st0" d="M5.6,19.3h20.7v1.4H5.6V19.3z"/>
			<path class="st0" d="M8.6,22.6h2v2h-2V22.6z"/>
			<path class="st0" d="M11.6,22.6h2v2h-2V22.6z"/>
		</g>
		<circle class="st1" cx="22.3" cy="17.4" r="2.6"/>
		<g>
			<path class="st2" d="M18.7,26.6h6.9V23c-0.3-0.8-0.8-1.5-1.5-1.9c-0.5,0.3-1.1,0.4-1.8,0.4c-0.3,0-0.7-0.1-1-0.1
				c-0.2,0-0.3-0.1-0.5-0.1c-0.1,0-0.1,0-0.2-0.1c-0.1,0-0.2-0.1-0.3-0.1"/>
			<path class="st2" d="M24.6,16.7c-0.3-1-1.2-1.7-2.3-1.7c-1.1,0-2,0.7-2.3,1.7c-0.2,0.7-0.1,1.4,0.3,2h4
				C24.7,18.1,24.8,17.4,24.6,16.7z"/>
			<path class="st0" d="M25.6,20v-0.2C25.6,19.9,25.5,19.9,25.6,20C25.5,19.9,25.6,20,25.6,20z"/>
			<path class="st3" d="M21.3,21.4c0.3,0.1,0.6,0.1,1,0.1c0.7,0,1.3-0.1,1.8-0.4c0,0,0,0,0,0C23.2,21.5,22.2,21.6,21.3,21.4z"/>
			<path class="st3" d="M21.1,13.4c-1.9,0.7-3.2,2.5-2.9,4.6c0,0.2,0.1,0.4,0.1,0.6h1.9c-0.4-0.6-0.5-1.3-0.3-2
				c0.3-1,1.2-1.7,2.3-1.7c1.1,0,2,0.7,2.3,1.7c0.2,0.7,0.1,1.4-0.3,2h1.3v-3.8C24.6,13.5,22.8,12.9,21.1,13.4z"/>
			<path class="st3" d="M20.8,21.3c-0.1,0-0.1,0-0.2-0.1C20.7,21.3,20.8,21.3,20.8,21.3z"/>
			<path class="st3" d="M26.2,18.7c0.3-1,0.3-2.1-0.2-3.1c-0.1-0.3-0.3-0.5-0.4-0.7v3.8H26.2z"/>
			<path class="st3" d="M24.3,18.7c-0.2,0.3-0.4,0.5-0.7,0.7c-0.8,0.6-1.9,0.6-2.6,0c-0.3-0.2-0.5-0.4-0.7-0.7h-1.9
				c0.1,0.5,0.4,1,0.7,1.4c0.3-0.3,0.7-0.5,1.1-0.7c0.3-0.1,0.7-0.1,0.9,0.1c0.8,0.6,1.9,0.6,2.6,0c0.2-0.2,0.6-0.2,0.9-0.1
				c0.3,0.2,0.6,0.4,0.9,0.6c0,0,0.1-0.1,0.1-0.1v-1.2H24.3z"/>
			<path class="st3" d="M25.6,19.8c0.3-0.4,0.5-0.7,0.6-1.2h-0.6V19.8z"/>
			<path class="st3" d="M21.3,21.4c-0.2,0-0.3-0.1-0.5-0.1C21,21.4,21.1,21.4,21.3,21.4z"/>
			<path class="st3" d="M20.4,21.1c0.1,0,0.2,0.1,0.3,0.1c-0.4-0.2-0.7-0.4-1-0.6h-1.3c-0.9,1-1.4,2.2-1.4,3.6v2.4h1.8l-0.1-2.4
				C18.6,22.9,19.3,21.8,20.4,21.1z"/>
			<path class="st3" d="M27.7,24.2c0-0.3,0-0.7-0.1-1v5c0.1-0.1,0.1-0.3,0.1-0.4V24.2z"/>
			<path class="st3" d="M24.6,20.8c-0.2,0.1-0.3,0.3-0.5,0.4c0.7,0.4,1.2,1.1,1.5,1.9v-2.4h-0.8C24.7,20.7,24.6,20.7,24.6,20.8z"/>
			<path class="st3" d="M17.9,28.6h8.8c0.1,0,0.2,0,0.4-0.1h-9.5C17.7,28.6,17.8,28.6,17.9,28.6z"/>
			<path class="st3" d="M26.3,20.6h-0.7V23c0.1,0.4,0.2,0.8,0.2,1.2v2.6h-7.1l0-0.3H17v1.2c0,0.3,0.3,0.7,0.6,0.8h9.5
				c0.1,0,0.3-0.1,0.4-0.2c0-0.1,0.1-0.2,0.1-0.2v-5C27.4,22.2,26.9,21.4,26.3,20.6z"/>
			<path class="st3" d="M19,20c-0.2,0.2-0.5,0.4-0.7,0.6h1.3C19.4,20.5,19.2,20.3,19,20z"/>
			<path class="st3" d="M25.5,19.9c-0.2,0.3-0.5,0.5-0.7,0.7h0.8L25.5,19.9C25.6,20,25.5,19.9,25.5,19.9z"/>
			<path class="st3" d="M25.6,20v0.7h0.7C26.1,20.4,25.8,20.2,25.6,20z"/>
			<path class="st3" d="M20.7,21.2c0.1,0,0.1,0,0.2,0.1c0.1,0.1,0.3,0.1,0.5,0.1c0.9,0.2,1.9,0.1,2.7-0.3c0,0,0,0,0,0
				c0.2-0.1,0.4-0.2,0.5-0.4c0.1,0,0.1-0.1,0.2-0.1h-5.1C20,20.9,20.3,21.1,20.7,21.2z"/>
			<path class="st3" d="M23.7,19.5c-0.8,0.6-1.9,0.6-2.6,0c-0.2-0.2-0.6-0.2-0.9-0.1c-0.4,0.2-0.8,0.4-1.1,0.7
				c0.2,0.2,0.4,0.4,0.6,0.6h5.1c0.3-0.2,0.5-0.5,0.7-0.7c-0.3-0.2-0.6-0.4-0.9-0.6C24.3,19.2,23.9,19.2,23.7,19.5z"/>
		</g>
		<path class="st4" d="M16.1,10.8C15.8,9.2,14.4,8,12.8,8s-3.1,1.1-3.3,2.8c-1.2,0.1-2.2,1-2.2,2.3s1,2.3,2.3,2.3H16
			c1.2,0,2.3-1,2.3-2.3C18.2,11.9,17.3,10.9,16.1,10.8z M16,14.7H9.6C8.7,14.7,8,14,8,13.1c0-0.8,0.7-1.5,1.5-1.5h0.5v-0.3
			c0.1-1.4,1.3-2.5,2.7-2.5c1.4,0,2.6,1,2.7,2.5v0.3H16c0.8,0,1.5,0.7,1.5,1.5C17.5,14,16.8,14.7,16,14.7L16,14.7z"/>
	</g>
</g>
</svg>
