<?xml version="1.0" encoding="utf-8"?>
<!-- Generator: Adobe Illustrator 19.2.1, SVG Export Plug-In . SVG Version: 6.00 Build 0)  -->
<svg version="1.1" id="Layer_1" xmlns="http://www.w3.org/2000/svg" xmlns:xlink="http://www.w3.org/1999/xlink" x="0px" y="0px"
	 viewBox="0 0 32 32" style="enable-background:new 0 0 32 32;" xml:space="preserve">
<style type="text/css">
	.st0{display:none;}
	.st1{display:inline;}
	.st2{fill:none;stroke:#CB2027;stroke-width:2;stroke-miterlimit:10;}
	.st3{fill:none;stroke:#BABABA;stroke-width:2;stroke-miterlimit:10;}
	.st4{fill-rule:evenodd;clip-rule:evenodd;fill:#9E9E9E;}
</style>
<g id="Layer_1_1_" class="st0">
	<g class="st1">
		<g>
			<path class="st2" d="M11.6,18.5c0,0-4.7,0-5.1,1.4s2.2,2,7.9,1.8c5.5-0.2,7.7-2,7.7-2 M22.4,24.2c0,0,5.5-1,4.9-4.1
				c-0.6-3.3-4.3-1.6-4.3-1.6 M10.4,22C7,22.8,9,24.2,12.7,24.4c3.3,0.2,8.3-1,8.3-1l-1.4-1 M11.2,25.3c0,0-1.4,0-1.6,1
				c-0.2,0.8,1,1.4,4.5,1.8c3.7,0.2,6.1-1,6.1-1l-1.8-1 M8.4,27.5c-0.4,0-4.5,0.2-4.7,1.4c-0.2,1,1.8,2,9.6,2s11.2-1.4,11.8-2
				s-0.2-1-0.2-1s0.8,0.2,0.4,0.6"/>
		</g>
		<path class="st3" d="M14.9,17.9c0,0-1.8-3.3-1.8-5.7c0-1.8,4.1-3.3,5.7-6.1c1.8-2.6-0.2-4.9-0.2-4.9"/>
		<path class="st3" d="M17.1,19.2c0,0,2.4-1.8,2-3.3c-0.4-2-2.2-2.4-1.4-4.3c0.8-1.4,3.7-3.3,3.7-3.3"/>
	</g>
</g>
<g>
	<g id="Forma_1_2_">
		<g>
			<path class="st4" d="M14.8,20.3c5.2-0.2,7.1-1.8,7.1-1.8c-3.4,0.9-12.4,0.8-12.4,0.2c-0.1-0.7,2.8-1.2,2.8-1.2s-4.4,0-4.8,1.1
				C7.1,19.6,9.5,20.5,14.8,20.3z M11.9,24c0,0-1.4,0-1.5,0.8c-0.1,0.7,0.9,1.4,4.3,1.6c3.4,0.2,5.9-0.9,5.9-0.9L19,24.5
				c0,0-1,0.2-2.5,0.4c-1.5,0.2-4.6-0.2-4.8-0.4C11.6,24.2,11.9,24,11.9,24z M22.3,22.8c0,0,5.1-1.1,4.6-3.8
				c-0.6-3.3-4.2-1.5-4.2-1.5s2.5,0,2.8,1.5C25.8,20.6,22.3,22.8,22.3,22.8z M9.3,29.9c0,0,6.4,1.5,13.7,0.2
				c3.5-0.6,3.7-2.3,3.7-2.3s-1.1,1.1-4.3,1.8C19.2,30.3,9.3,29.9,9.3,29.9z M19.8,21.4c0,0-1.3,0.3-3.2,0.5
				C14,22.2,11,22,10.7,21.6c-0.2-0.4,0.4-0.7,0.4-0.7c-3.1,0.7-1.4,2,2.2,2.2c3.1,0.2,7.7-0.9,7.7-0.9L19.8,21.4z M25.3,27.3
				c0.5-0.6-0.2-1-0.2-1s0.2,0.3-0.1,0.6c-0.3,0.3-3.3,1.1-8.1,1.4c-4.8,0.2-10-0.4-10.2-1c-0.2-0.6,2.7-1.1,2.7-1.1
				c-0.3,0-4.3,0.1-4.4,1.2c-0.1,1,1.7,1.9,9.1,1.9C21.5,29.2,24.8,27.8,25.3,27.3z"/>
		</g>
	</g>
	<g id="Forma_1_copy_2_">
		<g>
			<path class="st4" d="M19.1,6c1.5-2.4-0.2-4.7-0.2-4.7s0.4,1.7-0.6,3.4c-1,1.8-4.6,2.8-6,5.8c-1.4,3,3.1,6.5,3.1,6.5
				s-1.7-3.1-1.6-5.4C13.8,10,17.6,8.4,19.1,6z M18,10.9c0.7-1.2,3.6-3.3,3.6-3.3s-5.7,2.1-5.7,4.5c0,2.4,1.5,3.2,1.8,4
				c0.2,0.8-0.4,2.1-0.4,2.1s2.2-1.5,1.8-3.3C18.8,13.1,17,12.6,18,10.9z"/>
		</g>
	</g>
</g>
</svg>
