<svg id="Layer_1" data-name="Layer 1" xmlns="http://www.w3.org/2000/svg" viewBox="0 0 31.8 26.4"><defs><style>.cls-1{fill:none;stroke:red;stroke-miterlimit:10;stroke-width:2px;}</style></defs><title>icon-failed</title><path class="cls-1" d="M21.5,24.3h3.7A5.83,5.83,0,0,0,26,12.7V11.9a3.57,3.57,0,0,0-3.7-3.7,3.46,3.46,0,0,0-2.4.8C18.6,6.4,17.3,4,13,4,8,4,5.6,8,5.6,11.6v0.5A5.86,5.86,0,0,0,1.2,18,5.8,5.8,0,0,0,7,23.8h3.2" transform="translate(-0.2 -3)"/><path class="cls-1" d="M10.6,24.3" transform="translate(-0.2 -3)"/><path class="cls-1" d="M15.7,26.5" transform="translate(-0.2 -3)"/><polyline class="cls-1" points="9.4 18.4 15.5 10.3 21.3 18.4"/><line class="cls-1" x1="15.5" y1="10.3" x2="15.5" y2="26.4"/></svg>