<?xml version="1.0" encoding="utf-8"?>
<!-- Generator: Adobe Illustrator 19.2.1, SVG Export Plug-In . SVG Version: 6.00 Build 0)  -->
<svg version="1.1" id="Layer_1" xmlns="http://www.w3.org/2000/svg" xmlns:xlink="http://www.w3.org/1999/xlink" x="0px" y="0px"
	 viewBox="0 0 32 32" style="enable-background:new 0 0 32 32;" xml:space="preserve">
<style type="text/css">
	.st0{enable-background:new    ;}
	.st1{fill:#D2D2D2;}
	.st2{fill:#FFFFFF;}
</style>
<g id="Ellipse_1_copy_1_" class="st0">
	<g id="Ellipse_1_copy">
		<g>
			<circle class="st1" cx="16" cy="16" r="15.8"/>
		</g>
	</g>
</g>
<g id="Vector_Smart_Object_xA0_Image_1_">
	<path class="st2" d="M23.9,8.9l-0.7-0.1c-0.5-0.1-1.1-0.2-1.6-0.3c-1.3-0.2-2.6-0.6-4-1.3c-0.3-0.2-0.7-0.3-1-0.5l-0.3-0.1
		c0,0,0,0-0.1,0l0,0h-0.1h-0.2h-0.1l-0.2,0.1c-0.2,0.1-0.3,0.2-0.5,0.2C14,7.4,12.8,8,11.6,8.3c-0.6,0-1.2,0.1-1.8,0.2
		c-0.2,0-0.4,0.1-0.7,0.1c-0.2,0-0.5,0.1-0.7,0.1L8.1,8.9C8,8.9,7.9,9,7.9,9.1V10l0,0v0.1c0,0,0,0,0,0.1v0.6C7.9,11.5,8,12.2,8,13
		c0,1,0.2,2,0.4,2.9c0.3,1,0.6,2.2,1.2,3.4c1,1.9,2.2,3.4,3.6,4.6l0.1,0.1c0.6,0.5,1.3,1.1,2.1,1.5c0.1,0.1,0.3,0.1,0.5,0.2
		c0.1,0,0.1,0,0.2,0l0,0l0,0h0.1h0.1c0.2-0.1,0.4-0.2,0.6-0.3c0.6-0.3,1.2-0.7,1.7-1.2c0.7-0.6,1.5-1.3,2.2-2.2
		c1.3-1.7,2.2-3.4,2.7-5.2c0.2-0.9,0.5-2,0.6-3.1c0-0.6,0.1-1.1,0.1-1.7c0-0.3,0-0.5,0-0.8l0.1-1.2V9.1C24.1,9,24,8.9,23.9,8.9z"/>
</g>
<g id="Ellipse_3_copy_4_1_" class="st0">
	<g id="Ellipse_3_copy_4">
		<g>
			<path class="st1" d="M17,19.9v-2.4v-1.9c0.5-0.1,0.8-0.6,0.8-1.1c0-0.6-0.5-1.1-1.1-1.1c-0.2,0-0.4,0.1-0.5,0.1L14,12.2L11.8,11
				l0,0c0-0.6-0.5-1.1-1.1-1.1S9.6,10.4,9.6,11c0,0.1,0,0.2,0.1,0.3l-1.7,1l-2.2,1.2c-0.2-0.1-0.3-0.1-0.5-0.1
				c-0.6,0-1.1,0.5-1.1,1.1c0,0.5,0.3,0.9,0.8,1.1v1.9v2.4C4.5,20,4.2,20.5,4.2,21c0,0.6,0.5,1.1,1.1,1.1c0.2,0,0.4-0.1,0.5-0.1
				L8,23.2l1.7,1c0,0.1-0.1,0.2-0.1,0.3c0,0.6,0.5,1.1,1.1,1.1s1.1-0.5,1.1-1.1l0,0l2.1-1.3l2.2-1.2c0.2,0.1,0.3,0.1,0.5,0.1
				c0.6,0,1.1-0.5,1.1-1.1C17.8,20.4,17.5,20,17,19.9z"/>
		</g>
	</g>
</g>
<g id="Ellipse_4_copy_4_1_" class="st0">
	<g id="Ellipse_4_copy_4">
		<g>
			<path class="st2" d="M15.5,19.3v-1.8v-1.4c0.3-0.1,0.6-0.4,0.6-0.8c0-0.5-0.4-0.9-0.9-0.9c-0.1,0-0.3,0-0.4,0.1l-1.6-0.9l-1.6-1
				l0,0c0-0.5-0.4-0.9-0.9-0.9s-0.9,0.4-0.9,0.9c0,0.1,0,0.1,0,0.2l-1.3,0.8L7,14.5c-0.1-0.1-0.3-0.1-0.4-0.1
				c-0.5,0-0.9,0.4-0.9,0.9c0,0.4,0.3,0.7,0.6,0.8v1.4v1.8c-0.3,0.1-0.6,0.4-0.6,0.8c0,0.5,0.4,0.9,0.9,0.9c0.1,0,0.3,0,0.4-0.1
				l1.6,0.9l1.3,0.8c0,0.1,0,0.1,0,0.2c0,0.5,0.4,0.9,0.9,0.9s0.9-0.4,0.9-0.9l0,0l1.6-1l1.6-0.9C15,21,15.1,21,15.3,21
				c0.5,0,0.9-0.4,0.9-0.9C16.1,19.7,15.9,19.4,15.5,19.3z"/>
		</g>
	</g>
</g>
<g id="Ellipse_3_copy_1_" class="st0">
	<g id="Ellipse_3_copy">
		<g>
			<circle class="st1" cx="10.9" cy="17.7" r="2.6"/>
		</g>
	</g>
</g>
<g id="Ellipse_3_copy_2_1_" class="st0">
	<g id="Ellipse_3_copy_2">
		<g>
			<circle class="st2" cx="10.9" cy="17.7" r="0.9"/>
		</g>
	</g>
</g>
</svg>
