<?xml version="1.0" encoding="utf-8"?>
<!-- Generator: Adobe Illustrator 19.2.1, SVG Export Plug-In . SVG Version: 6.00 Build 0)  -->
<svg version="1.1" id="Capa_1" xmlns="http://www.w3.org/2000/svg" xmlns:xlink="http://www.w3.org/1999/xlink" x="0px" y="0px"
	 viewBox="0 0 16 16" style="enable-background:new 0 0 16 16;" xml:space="preserve">
<style type="text/css">
	.st0{fill:#FC6621;}
</style>
<title>icon-lock</title>
<path class="st0" d="M12.5,6.1V4.5c0-2.2-2-4.1-4.5-4.1S3.5,2.2,3.5,4.5v1.6c-1,0.2-1.7,1-1.7,2v5.5c0,1.1,0.9,2,2,2h8.3
	c1.1,0,2-0.9,2-2V8.1C14.2,7.1,13.5,6.2,12.5,6.1z M4.3,4.4C4.3,2.7,6,1.2,8,1.2s3.7,1.4,3.7,3.2v1.4H4.3V4.4z M13.4,13.4
	c0,0.8-0.6,1.4-1.4,1.4h0H4c-0.8,0-1.4-0.6-1.4-1.4l0,0V8.2c0-0.8,0.6-1.4,1.4-1.4H12c0.8,0,1.4,0.6,1.4,1.4l0,0V13.4z"/>
<path class="st0" d="M8.2,9.5C7.5,9.5,7,10,7,10.7v1c-0.1,0.6,0.3,1.2,0.9,1.3c0.6,0.1,1.2-0.3,1.3-0.9c0-0.1,0-0.3,0-0.4v-1
	C9.3,10,8.8,9.5,8.2,9.5z M8.7,11.7c0,0.3-0.3,0.6-0.6,0.6c-0.3,0-0.6-0.3-0.6-0.6v-1c0-0.3,0.3-0.6,0.6-0.6c0.3,0,0.6,0.3,0.6,0.6
	V11.7L8.7,11.7z"/>
</svg>
