<?xml version="1.0" encoding="utf-8"?>
<!-- Generator: Adobe Illustrator 19.2.1, SVG Export Plug-In . SVG Version: 6.00 Build 0)  -->
<svg version="1.1" id="Layer_1" xmlns="http://www.w3.org/2000/svg" xmlns:xlink="http://www.w3.org/1999/xlink" x="0px" y="0px"
	 viewBox="0 0 32 32" style="enable-background:new 0 0 32 32;" xml:space="preserve">
<style type="text/css">
	.st0{fill:#565555;}
	.st1{fill:#E46972;}
</style>
<title>delete-preferences</title>
<g id="Forma_1">
	<path class="st0" d="M5.7,12.7c0,0.6,0.4,1,1,1c0,0,0,0,0,0h7.7v-2.1H6.7C6.1,11.7,5.7,12.1,5.7,12.7C5.7,12.7,5.7,12.7,5.7,12.7z
		 M5.7,18.5c0,0.6,0.4,1,1,1c0,0,0,0,0,0h7.7v-2.1H6.7C6.1,17.4,5.7,17.9,5.7,18.5C5.7,18.4,5.7,18.5,5.7,18.5L5.7,18.5z M23.5,2.8
		h-3.9V1.2c0-0.6-0.5-1-1-1s-1,0.5-1,1v1.6h-3.7V1.2c0-0.6-0.5-1-1-1c-0.6,0-1,0.5-1,1v1.6H8.1V1.2c0-0.6-0.5-1-1-1s-1,0.5-1,1v1.6
		H2.1c-0.5,0-1,0.4-1,1v26.8c0,0.6,0.4,1,1,1.1c0,0,0,0,0,0h12.3v-2.1H3.1V4.7H6V6c0,0.6,0.5,1,1,1s1-0.5,1-1V4.7h3.7V6
		c0,0.6,0.5,1,1,1c0.6,0,1-0.5,1-1V4.7h3.7V6c0,0.6,0.5,1,1,1s1-0.5,1-1V4.7h2.9v5.7h2.1V3.7C24.5,3.2,24,2.7,23.5,2.8z M5.7,24.4
		c0,0.6,0.4,1,1,1c0,0,0,0,0,0h7.7v-2.2H6.7c-0.6,0-1,0.4-1,1c0,0,0,0,0,0L5.7,24.4z"/>
</g>
<g id="Forma_1-2">
	<path class="st1" d="M17.1,29.7c0,1.2,1,2.1,2.1,2.1h8.5c1.2,0,2.1-0.9,2.2-2.1c0,0,0,0,0,0V17.2H17.1V29.7L17.1,29.7z M27.2,13.9
		l-1.1-1.1h-5.3l-1,1.1h-3.7V16h14.8v-2.1L27.2,13.9L27.2,13.9z"/>
</g>
</svg>
