<?xml version="1.0" encoding="utf-8"?>
<!-- Generator: Adobe Illustrator 19.2.1, SVG Export Plug-In . SVG Version: 6.00 Build 0)  -->
<svg version="1.1" id="Layer_1" xmlns="http://www.w3.org/2000/svg" xmlns:xlink="http://www.w3.org/1999/xlink" x="0px" y="0px"
	 viewBox="0 0 57 57" style="enable-background:new 0 0 57 57;" xml:space="preserve">
<style type="text/css">
	.st0{fill:#FFFFFF;}
	.st1{fill:#456A8C;}
	.st2{fill:#30A5D7;}
</style>
<title>icon-arrow-active</title>
<g>
	<g id="Ellipse_2_copy_2">
		<g id="Ellipse_2_copy_2-2">
			<path class="st0" d="M28.5,50c-12.2,0-22-9.8-22-22s9.8-22,22-22s22,9.8,22,22S40.7,50,28.5,50z"/>
			<path class="st1" d="M28.5,11c9.4,0,17,7.6,17,17s-7.6,17-17,17s-17-7.6-17-17S19.1,11,28.5,11 M28.5,1c-14.9,0-27,12.1-27,27
				s12.1,27,27,27s27-12.1,27-27S43.4,1,28.5,1L28.5,1z"/>
		</g>
	</g>
	<g id="Shape_2_copy">
		<g id="Shape_2_copy-2">
			<polygon class="st2" points="37.2,24.8 35.2,22.8 28.5,29.5 21.8,22.8 19.8,24.8 28.5,33.4 28.5,32.9 28.5,33.4 			"/>
		</g>
	</g>
</g>
</svg>
