<?xml version="1.0" encoding="utf-8"?>
<!-- Generator: Adobe Illustrator 19.2.1, SVG Export Plug-In . SVG Version: 6.00 Build 0)  -->
<svg version="1.1" id="Layer_1" xmlns="http://www.w3.org/2000/svg" xmlns:xlink="http://www.w3.org/1999/xlink" x="0px" y="0px"
	 viewBox="0 0 32 32" style="enable-background:new 0 0 32 32;" xml:space="preserve">
<style type="text/css">
	.st0{fill:#00A2D8;}
</style>
<g>
	<path class="st0" d="M20.1,17.2c2.4-1.5,4-4.6,4-7.3c0-4-3.3-8.2-7.6-8.2S8.9,6,8.9,9.9c0,2.7,1.5,5.8,4,7.3
		c-5.8,1.5-10.3,7-10.3,13.1c0,0.3,0.3,0.6,0.9,0.6h25.8c0.3,0,0.9-0.3,0.9-0.6C30.5,24.2,26.2,18.7,20.1,17.2L20.1,17.2z M10.1,9.9
		c0-4,3.6-7,6.4-7s6.4,3.3,6.4,7c0,4-3.3,6.7-6.1,6.7C13.8,16.9,10.1,13.9,10.1,9.9L10.1,9.9z M3.7,29.7c0.3-6.4,6.4-11.9,12.8-11.9
		S28.7,23.6,29,29.7H3.7z"/>
</g>
</svg>
