<?xml version="1.0" encoding="utf-8"?>
<!-- Generator: Adobe Illustrator 19.2.1, SVG Export Plug-In . SVG Version: 6.00 Build 0)  -->
<svg version="1.1" id="Layer_1" xmlns="http://www.w3.org/2000/svg" xmlns:xlink="http://www.w3.org/1999/xlink" x="0px" y="0px"
	 viewBox="0 0 32 32" style="enable-background:new 0 0 32 32;" xml:space="preserve">
<style type="text/css">
	.st0{display:none;}
	.st1{display:inline;}
	.st2{fill:none;stroke:#009DDC;stroke-width:2;stroke-miterlimit:10;}
	.st3{fill:none;stroke:#8ACE3C;stroke-width:2;stroke-miterlimit:10;}
	.st4{fill:none;stroke:#9E9E9E;stroke-width:1.5;stroke-miterlimit:10;}
</style>
<g id="Layer_1_1_" class="st0">
	<g class="st1">
		<g>
			<path class="st2" d="M21.6,15.6c-0.6,0-2.3-1.4-2.3-3.4V9.3c0-3.4-2.9-4.8-4.9-4.8H11"/>
			<polyline class="st2" points="22.4,20.4 28.2,15.6 22.4,11.6 			"/>
			<path class="st2" d="M10.9,27.2h3.4c2,0,4.9-1.4,4.9-4.8v-2.8c0-2,2-4,2.3-4"/>
		</g>
		<ellipse class="st3" cx="7.5" cy="4.8" rx="3.4" ry="3.4"/>
		<ellipse class="st3" cx="7.5" cy="27.2" rx="3.4" ry="3.4"/>
		<line class="st2" x1="10.9" y1="15.6" x2="28.2" y2="15.6"/>
		<ellipse class="st3" cx="7.5" cy="15.6" rx="3.4" ry="3.4"/>
	</g>
</g>
<g id="Layer_2">
	<g>
		<g>
			<path class="st4" d="M21.6,15.6c-0.6,0-2.3-1.4-2.3-3.4V9.3c0-3.4-2.9-4.8-4.9-4.8H11"/>
			<polyline class="st4" points="22.4,20.4 28.2,15.6 22.4,11.6 			"/>
			<path class="st4" d="M10.9,27.2h3.4c2,0,4.9-1.4,4.9-4.8v-2.8c0-2,2-4,2.3-4"/>
		</g>
		<ellipse class="st4" cx="7.5" cy="4.8" rx="3.4" ry="3.4"/>
		<ellipse class="st4" cx="7.5" cy="27.2" rx="3.4" ry="3.4"/>
		<line class="st4" x1="10.9" y1="15.6" x2="28.2" y2="15.6"/>
		<ellipse class="st4" cx="7.5" cy="15.6" rx="3.4" ry="3.4"/>
	</g>
</g>
</svg>
