<?xml version="1.0" encoding="utf-8"?>
<!-- Generator: Adobe Illustrator 19.2.1, SVG Export Plug-In . SVG Version: 6.00 Build 0)  -->
<svg version="1.1" id="Layer_1" xmlns="http://www.w3.org/2000/svg" xmlns:xlink="http://www.w3.org/1999/xlink" x="0px" y="0px"
	 viewBox="0 0 32 32" style="enable-background:new 0 0 32 32;" xml:space="preserve">
<style type="text/css">
	.st0{enable-background:new    ;}
	.st1{fill:#D2D2D2;}
	.st2{fill:#FFFFFF;}
</style>
<g id="Ellipse_1_copy_1_" class="st0">
</g>
<g id="Ellipse_5_1_" class="st0">
</g>
<g id="Shape_1_1_" class="st0">
</g>
<g id="Ellipse_6_copy_1_" class="st0">
</g>
<g id="Ellipse_6_copy_2_1_" class="st0">
	<g>
		<g id="Ellipse_1_copy">
			<g>
				<circle class="st1" cx="16" cy="16" r="16"/>
			</g>
		</g>
		<g id="Ellipse_5">
			<g>
				<circle class="st2" cx="16.4" cy="14.7" r="2"/>
			</g>
		</g>
		<g id="Shape_1">
			<g>
				<path class="st2" d="M20.4,22.4h-2.7L17,16h-1.3L15,22.4h-1.3c0,0-2.3-0.6-2.3,2.7h10.1C21.4,25.1,21.5,22.5,20.4,22.4z"/>
			</g>
		</g>
		<g id="Ellipse_6_copy">
			<g>
				<path class="st2" d="M23.4,14.1c0-4-3.2-7.2-7.2-7.2S9,10.2,9,14.1c0,1.6,0.5,3.1,1.4,4.3c0.1,0.5,0.5,0.9,1,0.9
					c0.6,0,1-0.5,1-1s-0.3-0.9-0.8-1c-0.6-0.9-1-2-1-3.2c0-3,2.5-5.5,5.5-5.5s5.5,2.5,5.5,5.5c0,1.2-0.4,2.3-1.1,3.2
					c-0.4,0.1-0.7,0.5-0.7,1c0,0.6,0.5,1,1,1s0.9-0.4,1-0.9C22.9,17.2,23.4,15.7,23.4,14.1z"/>
			</g>
		</g>
		<g id="Ellipse_6_copy_2">
			<g>
				<path class="st2" d="M20.4,14.4c0-2.3-1.9-4.2-4.2-4.2S12,12.1,12,14.4c0,0.9,0.3,1.8,0.8,2.5c0,0.3,0.3,0.6,0.6,0.6
					s0.6-0.3,0.6-0.6c0-0.3-0.2-0.5-0.4-0.6c-0.4-0.5-0.6-1.2-0.6-1.9c0-1.8,1.5-3.3,3.3-3.3s3.3,1.5,3.3,3.3c0,0.7-0.2,1.4-0.6,1.9
					c-0.2,0.1-0.4,0.3-0.4,0.6c0,0.3,0.3,0.6,0.6,0.6c0.3,0,0.6-0.3,0.6-0.6C20.1,16.2,20.4,15.3,20.4,14.4z"/>
			</g>
		</g>
	</g>
</g>
</svg>
