<?xml version="1.0" encoding="utf-8"?>
<!-- Generator: Adobe Illustrator 19.2.1, SVG Export Plug-In . SVG Version: 6.00 Build 0)  -->
<svg version="1.0" id="Layer_1" xmlns="http://www.w3.org/2000/svg" xmlns:xlink="http://www.w3.org/1999/xlink" x="0px" y="0px"
	 viewBox="0 0 32 32" style="enable-background:new 0 0 32 32;" xml:space="preserve">
<style type="text/css">
	.st0{fill:#8CC435;}
</style>
<g>
	<path class="st0" d="M19.8,24c0.1,0.1,0.2,0.1,0.4,0.2c0.1,0,0.1,0.1,0.2,0.1c0.1,0,0.2,0.1,0.4,0c0,0,0,0,0,0V28l-1.1-0.7
		c-0.1-0.1-0.3-0.1-0.5,0L17.9,28v-3.7c0,0,0,0,0.1,0c0.2,0.1,0.3,0,0.4,0c0.1,0,0.1-0.1,0.2-0.1c0.1-0.1,0.2-0.1,0.3-0.2v1.7
		c0,0.3,0.2,0.5,0.5,0.5c0.3,0,0.5-0.2,0.5-0.5V24z M8.4,22.5L8.4,22.5c-0.6,0-0.6,1,0,0.9h5.7c0.3,0,0.5-0.2,0.5-0.5
		c0-0.3-0.2-0.5-0.5-0.5H8.4C8.4,22.5,8.4,22.5,8.4,22.5z M2.8,22.5h2.8v1.4c0,0.8-0.6,1.4-1.4,1.4h0c0,0,0,0,0,0
		c-0.8,0-1.4-0.6-1.4-1.4V22.5z M19.3,18.4c0,0.1,0.1,0.1,0.1,0.2c0,0.1,0.1,0.1,0.1,0.2c0,0.1,0.1,0.1,0.2,0.2
		c0.1,0.1,0.2,0.1,0.2,0.1c0.1,0,0.1,0,0.2,0c0.1,0,0.1,0,0.2,0c0,0-0.1,0.1-0.1,0.1c0,0-0.1,0.1-0.1,0.1c0,0.1-0.1,0.1-0.1,0.2
		c0,0.2,0,0.2,0,0.3c0,0.1,0,0.1,0,0.2c0,0.1,0,0.1,0,0.2c-0.1,0-0.1-0.1-0.2-0.1c-0.1,0-0.1-0.1-0.2-0.1c-0.1,0-0.1-0.1-0.3-0.1
		c-0.2,0-0.2,0-0.3,0.1c-0.1,0-0.1,0.1-0.2,0.1c-0.1,0-0.1,0.1-0.2,0.1c0-0.1,0-0.1,0-0.2c0-0.1,0-0.1,0-0.2c0-0.1,0-0.1,0-0.3
		c-0.1-0.2-0.1-0.2-0.1-0.2c0-0.1-0.1-0.1-0.1-0.1c0,0-0.1-0.1-0.1-0.1c0.1,0,0.1,0,0.2,0c0.1,0,0.1,0,0.2,0c0.1,0,0.1,0,0.2-0.1
		c0.1-0.1,0.1-0.2,0.2-0.2c0-0.1,0.1-0.1,0.1-0.2C19.2,18.5,19.3,18.5,19.3,18.4z M8.4,17.8L8.4,17.8c-0.6,0-0.6,1,0,0.9h4.7
		c0.3,0,0.5-0.2,0.5-0.5c0-0.3-0.2-0.5-0.5-0.5H8.4C8.4,17.8,8.4,17.8,8.4,17.8z M19.3,17c-0.3,0-0.3,0.1-0.4,0.2
		c-0.1,0.1-0.1,0.1-0.1,0.2c-0.1,0.1-0.1,0.3-0.2,0.4c-0.1,0.1-0.1,0.3-0.2,0.4c0,0,0,0,0,0c0,0,0,0,0,0c-0.1,0-0.2,0-0.4,0.1
		c-0.1,0-0.3,0-0.4,0.1c-0.1,0-0.1,0-0.2,0.1c-0.1,0-0.2,0.1-0.3,0.3c-0.1,0.2,0,0.4,0.1,0.5c0,0.1,0.1,0.1,0.1,0.2
		c0.1,0.1,0.2,0.2,0.3,0.3c0.1,0.1,0.2,0.2,0.3,0.3c0,0,0,0,0,0c0,0,0,0,0,0c0,0.1,0,0.2-0.1,0.4c0,0.1-0.1,0.3-0.1,0.4
		c0,0.1,0,0.1,0,0.2c0,0.1,0,0.2,0.2,0.4h0c0.2,0.2,0.4,0.1,0.4,0.1c0.1,0,0.2,0,0.2-0.1c0.1-0.1,0.3-0.1,0.4-0.2
		c0.1-0.1,0.2-0.1,0.3-0.2c0,0,0,0,0,0c0,0,0,0,0,0c0.1,0,0.2,0.1,0.3,0.2c0.1,0.1,0.3,0.1,0.4,0.2c0.1,0,0.1,0.1,0.2,0.1
		c0.1,0,0.2,0.1,0.4-0.1c0.2-0.2,0.2-0.3,0.2-0.4c0-0.1,0-0.2,0-0.2c0-0.1,0-0.3-0.1-0.4c0-0.1-0.1-0.3-0.1-0.4c0,0,0,0,0,0
		c0,0,0,0,0,0c0.1-0.1,0.2-0.2,0.3-0.3c0.1-0.1,0.2-0.2,0.3-0.3c0-0.1,0.1-0.1,0.1-0.2c0-0.1,0.1-0.2,0.1-0.5
		c-0.1-0.2-0.2-0.3-0.3-0.3c-0.1,0-0.2-0.1-0.2-0.1c-0.1,0-0.3-0.1-0.4-0.1c-0.1,0-0.3,0-0.4,0c0,0,0,0,0,0c0,0,0,0,0,0
		c0-0.1-0.1-0.2-0.2-0.4c-0.1-0.1-0.1-0.3-0.2-0.4c0-0.1-0.1-0.1-0.1-0.2C19.6,17.1,19.5,17,19.3,17L19.3,17z M20.4,15.1
		c0,0.1,0.1,0.1,0.1,0.2c0.1,0.1,0.2,0.3,0.2,0.4c0,0.1,0.1,0.1,0.1,0.2c0,0.1,0.1,0.1,0.2,0.2c0,0,0,0,0,0c0.1,0.1,0.2,0.1,0.3,0.1
		c0.1,0,0.1,0,0.2,0c0.1,0,0.3,0,0.5,0h0.3c0,0.1,0,0.2,0,0.3c0,0.2,0,0.3,0,0.5c0,0.1,0,0.1,0,0.2c0,0.1,0,0.1,0.1,0.3
		c0.1,0.1,0.1,0.2,0.2,0.2c0.1,0,0.1,0.1,0.2,0.1c0.1,0.1,0.3,0.1,0.4,0.2c0.1,0,0.2,0.1,0.2,0.1c0,0.1-0.1,0.1-0.1,0.2
		c-0.1,0.1-0.2,0.3-0.2,0.4c0,0.1-0.1,0.1-0.1,0.2c0,0.1-0.1,0.1-0.1,0.3c0,0.2,0,0.2,0.1,0.3c0,0.1,0.1,0.1,0.1,0.2
		c0.1,0.1,0.2,0.3,0.2,0.4c0.1,0.1,0.1,0.2,0.1,0.2c-0.1,0-0.1,0.1-0.2,0.1c-0.1,0.1-0.3,0.2-0.4,0.2c-0.1,0-0.1,0.1-0.2,0.1
		c-0.1,0-0.1,0.1-0.2,0.2c-0.1,0.1-0.1,0.2-0.1,0.3c0,0.1,0,0.1,0,0.2c0,0.1,0,0.3,0,0.5c0,0.1,0,0.2,0,0.3c-0.1,0-0.2,0-0.3,0
		c-0.2,0-0.3,0-0.5,0c-0.1,0-0.1,0-0.2,0c-0.1,0-0.1,0-0.3,0.1h0c-0.1,0.1-0.1,0.1-0.2,0.1c-0.1,0.1-0.2,0.2-0.2,0.4
		c-0.1,0.1-0.1,0.2-0.2,0.3c0,0.1-0.1,0.2-0.1,0.2c-0.1,0-0.1-0.1-0.2-0.1c-0.1-0.1-0.3-0.2-0.4-0.2c-0.1,0-0.1-0.1-0.2-0.1
		c-0.1,0-0.1-0.1-0.3-0.1c-0.2,0-0.2,0-0.3,0.1c-0.1,0-0.1,0.1-0.2,0.1c-0.1,0.1-0.3,0.2-0.4,0.2c-0.1,0.1-0.2,0.1-0.2,0.1
		c0-0.1-0.1-0.1-0.1-0.2c-0.1-0.1-0.2-0.3-0.2-0.4c0-0.1-0.1-0.1-0.1-0.2c0-0.1-0.1-0.1-0.2-0.2c-0.1-0.1-0.2-0.1-0.3-0.1
		c-0.1,0-0.1,0-0.2,0c-0.1,0-0.3,0-0.5,0h-0.3c0-0.1,0-0.2,0-0.3c0-0.2,0-0.3,0-0.5c0-0.1,0-0.1,0-0.2c0-0.1,0-0.1-0.1-0.3
		c-0.1-0.1-0.1-0.2-0.2-0.2c-0.1,0-0.1-0.1-0.2-0.1c-0.1-0.1-0.3-0.1-0.4-0.2c-0.1,0-0.2-0.1-0.2-0.1c0-0.1,0.1-0.1,0.1-0.2
		c0.1-0.1,0.2-0.3,0.2-0.4c0-0.1,0.1-0.1,0.1-0.2c0-0.1,0.1-0.1,0.1-0.3c0-0.2,0-0.2-0.1-0.3c0-0.1-0.1-0.1-0.1-0.2
		c-0.1-0.1-0.2-0.3-0.2-0.4c-0.1-0.1-0.1-0.2-0.1-0.2c0.1,0,0.1-0.1,0.2-0.1c0.1-0.1,0.3-0.2,0.4-0.2c0.1,0,0.1-0.1,0.2-0.1
		c0.1,0,0.1-0.1,0.2-0.2c0.1-0.1,0.1-0.2,0.1-0.3c0-0.1,0-0.1,0-0.2c0-0.1,0-0.3,0-0.5c0-0.1,0-0.2,0-0.3c0.1,0,0.2,0,0.3,0
		c0.2,0,0.3,0,0.5,0c0.1,0,0.1,0,0.2,0c0.1,0,0.1,0,0.3-0.1c0.1-0.1,0.2-0.1,0.2-0.2c0-0.1,0.1-0.1,0.1-0.2c0.1-0.1,0.1-0.3,0.2-0.4
		c0-0.1,0.1-0.2,0.1-0.2v0c0.1,0,0.1,0.1,0.2,0.1c0.1,0.1,0.3,0.2,0.4,0.2c0.1,0,0.1,0.1,0.2,0.1c0.1,0,0.1,0.1,0.3,0.1
		c0.2,0,0.2,0,0.3-0.1c0.1,0,0.1-0.1,0.2-0.1c0.1-0.1,0.3-0.2,0.4-0.2C20.2,15.2,20.3,15.1,20.4,15.1z M8.4,15L8.4,15
		c-0.6,0-0.6,1,0,0.9h5.7c0.3,0,0.5-0.2,0.5-0.5S14.4,15,14.1,15H8.4C8.4,15,8.4,15,8.4,15z M8.4,12.1L8.4,12.1c-0.6,0-0.6,1,0,0.9
		h15.1c0.3,0,0.5-0.2,0.5-0.5s-0.2-0.5-0.5-0.5H8.4C8.4,12.1,8.4,12.1,8.4,12.1z M8.4,9.3L8.4,9.3c-0.6,0-0.6,1,0,0.9h15.1
		c0.3,0,0.5-0.2,0.5-0.5c0-0.3-0.2-0.5-0.5-0.5H8.4C8.4,9.3,8.4,9.3,8.4,9.3z M9.9,3.7h17.9c0.8,0,1.4,0.6,1.4,1.4v1.4H26
		c0,0-0.1,0-0.1,0c0,0,0,0-0.1,0H10.3V5.1C10.3,4.5,10.2,4,9.9,3.7z M8,3.7L8,3.7C8,3.7,8,3.7,8,3.7c0.8,0,1.4,0.6,1.4,1.4v1.8
		c0,0,0,0.1,0,0.1c0,0,0,0,0,0c0,0,0,0,0,0c0.1,0.2,0.3,0.4,0.5,0.4h15.5v8.9c0,0,0,0,0,0v7.5c0,0.8-0.6,1.4-1.4,1.4h-2.4v-2.2
		c0.1,0,0.2,0,0.4,0c0.2,0,0.3,0,0.5,0c0.1,0,0.1,0,0.2,0c0.1,0,0.2,0,0.3-0.2c0.2-0.2,0.1-0.3,0.2-0.3c0-0.1,0-0.2,0-0.2
		c0-0.2,0-0.3,0-0.5c0-0.2,0-0.3,0-0.4c0,0,0,0,0,0c0,0,0,0,0,0c0.1-0.1,0.2-0.1,0.4-0.2c0.1-0.1,0.3-0.2,0.4-0.2
		c0.1,0,0.1-0.1,0.2-0.1c0.1-0.1,0.1-0.1,0.2-0.3c0.1-0.2,0-0.3,0-0.4c0-0.1-0.1-0.1-0.1-0.2c-0.1-0.1-0.2-0.3-0.2-0.4
		c-0.1-0.1-0.2-0.3-0.2-0.4c0,0,0,0,0,0c0,0,0,0,0,0c0.1-0.1,0.1-0.2,0.2-0.4c0.1-0.1,0.2-0.3,0.2-0.4c0-0.1,0.1-0.1,0.1-0.2
		c0-0.1,0.1-0.2,0-0.4c-0.1-0.2-0.1-0.3-0.2-0.3c-0.1-0.1-0.1-0.1-0.2-0.1c-0.1-0.1-0.3-0.2-0.4-0.2c-0.1-0.1-0.3-0.1-0.4-0.2
		c0,0,0,0,0,0c0,0,0,0,0,0c0-0.1,0-0.3,0-0.4c0-0.2,0-0.3,0-0.5c0-0.1,0-0.1,0-0.2c0-0.1,0-0.2-0.2-0.3c-0.2-0.2-0.3-0.1-0.3-0.2
		c-0.1,0-0.2,0-0.2,0c-0.2,0-0.3,0-0.5,0c-0.2,0-0.3,0-0.4,0c0,0,0,0,0,0c0,0,0,0,0,0c-0.1-0.1-0.1-0.2-0.2-0.4
		c-0.1-0.1-0.2-0.3-0.2-0.4c0-0.1-0.1-0.1-0.1-0.2c-0.1-0.1-0.1-0.1-0.3-0.2c-0.2-0.1-0.3,0-0.4,0c-0.1,0-0.1,0.1-0.2,0.1
		c-0.1,0.1-0.3,0.2-0.4,0.2c-0.1,0.1-0.3,0.2-0.4,0.2c0,0,0,0,0,0c0,0,0,0,0,0c-0.1-0.1-0.2-0.1-0.4-0.2c-0.1-0.1-0.3-0.2-0.4-0.2
		c-0.1,0-0.1-0.1-0.2-0.1c-0.1,0-0.2-0.1-0.4,0c-0.2,0.1-0.3,0.1-0.3,0.2c-0.1,0.1-0.1,0.1-0.1,0.2c-0.1,0.1-0.2,0.3-0.2,0.4
		c-0.1,0.1-0.1,0.3-0.2,0.4c0,0,0,0,0,0c0,0,0,0,0,0c-0.1,0-0.3,0-0.4,0c-0.2,0-0.3,0-0.5,0c-0.1,0-0.1,0-0.2,0
		c-0.1,0-0.2,0-0.3,0.2c-0.2,0.2-0.1,0.3-0.2,0.3c0,0.1,0,0.2,0,0.2c0,0.2,0,0.3,0,0.5c0,0.2,0,0.3,0,0.4c0,0,0,0,0,0c0,0,0,0,0,0
		c-0.1,0.1-0.2,0.1-0.4,0.2c-0.1,0.1-0.3,0.2-0.4,0.2c-0.1,0-0.1,0.1-0.2,0.1c-0.1,0.1-0.1,0.1-0.2,0.3c-0.1,0.2,0,0.3,0,0.4
		c0,0.1,0.1,0.1,0.1,0.2c0.1,0.1,0.2,0.3,0.2,0.4c0.1,0.1,0.2,0.3,0.2,0.4c0,0,0,0,0,0c0,0,0,0,0,0c-0.1,0.1-0.1,0.2-0.2,0.4
		c-0.1,0.1-0.2,0.3-0.2,0.4c0,0.1-0.1,0.1-0.1,0.2c0,0.1-0.1,0.2,0,0.4c0.1,0.2,0.1,0.3,0.2,0.3c0.1,0.1,0.1,0.1,0.2,0.1
		c0.1,0.1,0.3,0.2,0.4,0.2c0.1,0.1,0.3,0.1,0.4,0.2c0,0,0,0,0,0c0,0,0,0,0,0c0,0.1,0,0.3,0,0.4c0,0.2,0,0.3,0,0.5c0,0.1,0,0.1,0,0.2
		c0,0.1,0,0.2,0.2,0.3c0,0,0,0,0,0c0.2,0.2,0.3,0.1,0.3,0.2s0.2,0,0.2,0c0.2,0,0.3,0,0.5,0c0.1,0,0.2,0,0.3,0v2.2H6.1
		C6.4,25,6.5,24.5,6.6,24c0,0,0-0.1,0-0.1v-1.8c0,0,0,0,0-0.1V5.1C6.6,4.3,7.2,3.7,8,3.7z M7.9,2.7L7.9,2.7C7.9,2.7,7.9,2.7,7.9,2.7
		C6.7,2.8,5.7,3.7,5.6,5c0,0,0,0.1,0,0.1v16.5H2.4c-0.1,0-0.3,0-0.4,0.1c0,0,0,0,0,0c0,0,0,0,0,0.1c0,0,0,0,0,0c0,0,0,0,0,0
		c0,0,0,0,0,0v0l0,0c0,0,0,0.1,0,0.1c0,0,0,0,0,0c0,0.1,0,0.1,0,0.2v1.8c0,1.3,1,2.3,2.3,2.3c0,0,0,0,0,0c0,0,0,0,0,0c0,0,0,0,0,0
		h12.7v2.5c0,0.4,0.4,0.6,0.7,0.4l1.7-1l1.6,1c0.3,0.2,0.7,0,0.7-0.4v-2.5H24c1.3,0,2.3-1,2.3-2.3c0,0,0-0.1,0-0.1V7.4h3.2
		c0.1,0,0.3,0,0.4-0.1c0,0,0,0,0,0c0,0,0,0,0,0v0h0l0,0c0.1-0.1,0.2-0.3,0.1-0.4V5.1c0-1.3-1-2.3-2.3-2.3c0,0-0.1,0-0.1,0H7.9
		C8,2.7,8,2.7,7.9,2.7C8,2.7,8,2.7,7.9,2.7z"/>
</g>
</svg>
