<?xml version="1.0" encoding="utf-8"?>
<!-- Generator: Adobe Illustrator 19.2.1, SVG Export Plug-In . SVG Version: 6.00 Build 0)  -->
<svg version="1.1" id="Layer_1" xmlns="http://www.w3.org/2000/svg" xmlns:xlink="http://www.w3.org/1999/xlink" x="0px" y="0px"
	 viewBox="0 0 32 32" style="enable-background:new 0 0 32 32;" xml:space="preserve">
<style type="text/css">
	.st0{fill:none;stroke:#009DDC;stroke-width:0.75;stroke-miterlimit:10;}
	.st1{fill:#FFFFFF;stroke:#8ACE3C;stroke-miterlimit:10;}
	.st2{fill:#FFFFFF;}
</style>
<g>
	<g>
		<path class="st0" d="M31.5,2.4c0,0-5.5,4.2-12.7,0c-7.2,4.2-12.7,0-12.7,0c-1,19.9,12.7,26.6,12.7,26.6S32.5,22.3,31.5,2.4z"/>
	</g>
	<g>
		<g>
			<g>
				<path class="st1" d="M20.3,18.1l-1.2-0.5c0-0.7,0-1.7,0-2.2l1-0.5c0.7-0.2,1-1.2,0.7-1.7l-0.7-1.2c-0.2-0.7-1-1-1.7-0.7l-1,0.5
					c-0.5-0.7-1.2-1.2-1.7-1.7l0.5-1.2c0.2-0.7,0-1.2-0.7-1.7l-1.2-0.5c-0.7-0.2-1.2,0.2-1.7,0.7l-0.5,1.2c-0.7,0-1.7,0-2.2,0
					L9.1,7.2c-0.2-0.7-1-1-1.7-0.7L6.1,7.2c-0.7,0.2-1,1.2-0.7,1.7l0.5,1.2c-0.7,0.5-1.2,1.2-1.7,1.7l-1.2-0.5
					c-0.7-0.2-1.2,0.2-1.7,0.7l-0.5,1.2c-0.2,0.2,0,0.7,0,1c0.2,0.2,0.5,0.5,0.7,0.7l1.2,0.5c0,0.7,0,1.7,0,2.2l-1,0.5
					c-0.7,0.2-1,1.2-0.7,1.7l0.7,1.2c0.2,0.7,1,1,1.7,0.7l1-0.5c0.5,0.7,1.2,1.2,1.7,1.7l-0.2,1.2c-0.2,0.2,0,0.7,0,1
					c0.2,0.2,0.5,0.5,0.7,0.7l1.2,0.5c0.2,0.2,0.7,0,1,0c0.2-0.2,0.5-0.5,0.7-0.7l0.5-1.2c0.7,0,1.7,0,2.2,0l0.5,1.2
					c0.2,0.7,1,1,1.7,0.7l1.2-0.7c0.7-0.2,1-1.2,0.7-1.7l-0.5-1.2c0.7-0.5,1.2-1.2,1.7-1.7l1.2,0.5c0.2,0.2,0.7,0,1,0
					c0.2-0.2,0.5-0.5,0.7-0.7l0.5-1.2C21.3,19.4,20.8,18.6,20.3,18.1z M13,20.4c-0.5,0.2-1,0.5-1.7,0.5c-1.2,0-2.5-1-3.2-2.2
					c-1-2.2,0-4,1.7-4.7c0.5-0.2,1-0.5,1.7-0.5c1.2,0,2.5,1,3.2,2.2C15.3,17.6,14.8,19.6,13,20.4z"/>
			</g>
		</g>
		<ellipse class="st2" cx="11.4" cy="17.1" rx="3.2" ry="3.4"/>
	</g>
</g>
</svg>
