<?xml version="1.0" encoding="utf-8"?>
<!-- Generator: Adobe Illustrator 19.2.1, SVG Export Plug-In . SVG Version: 6.00 Build 0)  -->
<svg version="1.1" id="Layer_1" xmlns="http://www.w3.org/2000/svg" xmlns:xlink="http://www.w3.org/1999/xlink" x="0px" y="0px"
	 viewBox="0 0 32 32" style="enable-background:new 0 0 32 32;" xml:space="preserve">
<style type="text/css">
	.st0{display:none;}
	.st1{display:inline;}
	.st2{fill:none;stroke:#F9A350;stroke-miterlimit:10;}
	.st3{fill:#FFB345;stroke:#F9A350;stroke-miterlimit:10;}
	.st4{fill:none;stroke:#9E9E9E;stroke-width:1.5;stroke-miterlimit:10;}
	.st5{fill:#9E9E9E;stroke:#9E9E9E;stroke-width:1.5;stroke-miterlimit:10;}
</style>
<g id="Layer_1_1_" class="st0">
	<g class="st1">
		<g>
			<path class="st2" d="M25.3,8c-2.4-2.8-5.7-4.5-9.7-4.5C8.8,3.5,3.1,9.2,3.1,16c0,1.2,0.2,2.1,0.2,2.8"/>
			<path class="st2" d="M6.4,24.5c2.4,2.4,5.4,4,9.2,4c6.8,0,12.5-5.7,12.5-12.5c0-0.9-0.2-1.7-0.2-2.4"/>
		</g>
		<polygon class="st3" points="25.6,15.3 28.2,12 30.7,15.1 		"/>
		<polygon class="st3" points="1.3,16.9 3.6,19.5 6.2,16.9 		"/>
	</g>
</g>
<g id="Layer_2">
	<g>
		<g>
			<path class="st4" d="M25.3,8c-2.4-2.8-5.7-4.5-9.7-4.5C8.8,3.5,3.1,9.2,3.1,16c0,1.2,0.2,2.1,0.2,2.8"/>
			<path class="st4" d="M6.4,24.5c2.4,2.4,5.4,4,9.2,4c6.8,0,12.5-5.7,12.5-12.5c0-0.9-0.2-1.7-0.2-2.4"/>
		</g>
		<polygon class="st5" points="25.6,15.3 28.2,12 30.7,15.1 		"/>
		<polygon class="st5" points="1.3,16.9 3.6,19.5 6.2,16.9 		"/>
	</g>
</g>
</svg>
