<?xml version="1.0" encoding="utf-8"?>
<!-- Generator: Adobe Illustrator 19.2.1, SVG Export Plug-In . SVG Version: 6.00 Build 0)  -->
<svg version="1.1" id="Layer_1" xmlns="http://www.w3.org/2000/svg" xmlns:xlink="http://www.w3.org/1999/xlink" x="0px" y="0px"
	 viewBox="0 0 32 32" style="enable-background:new 0 0 32 32;" xml:space="preserve">
<style type="text/css">
	.st0{fill:none;stroke:#FFFFFF;stroke-width:0.75;stroke-miterlimit:10;}
</style>
<g>
	<path class="st0" d="M24,16.9c-0.1-3.9,3.2-5.8,3.3-5.8c-1.8-2.6-4.6-3-5.6-3.1c-2.5-0.2-4.6,1.4-5.8,1.4S12.8,8,10.8,8.1
		C8.2,8.2,5.7,9.6,4.4,12c-2.6,4.7-0.8,11.6,2,15.4c1.3,1.9,2.8,3.9,4.9,3.9c2-0.1,2.6-1.2,5.1-1.2s3.1,1.2,5.1,1.2
		c2-0.1,3.4-1.9,4.7-3.7c1.4-2.3,2-4.3,2-4.4C28.2,23.2,24,21.6,24,16.9z"/>
	<path class="st0" d="M20.2,5.6c1.1-1.3,1.8-3.1,1.7-5c-1.5,0.1-3.4,1.1-4.6,2.3c-1.1,1.2-1.9,3-1.7,4.9C17.4,7.9,19.1,6.9,20.2,5.6
		z"/>
</g>
<g>
	<path class="st0" d="M24,16.9c-0.1-3.9,3.2-5.8,3.3-5.8c-1.8-2.6-4.6-3-5.6-3.1c-2.5-0.2-4.6,1.4-5.8,1.4S12.8,8,10.8,8.1
		C8.2,8.2,5.7,9.6,4.4,12c-2.6,4.7-0.8,11.6,2,15.4c1.3,1.9,2.8,3.9,4.9,3.9c2-0.1,2.6-1.2,5.1-1.2s3.1,1.2,5.1,1.2
		c2-0.1,3.4-1.9,4.7-3.7c1.4-2.3,2-4.3,2-4.4C28.2,23.2,24,21.6,24,16.9z"/>
	<path class="st0" d="M20.2,5.6c1.1-1.3,1.8-3.1,1.7-5c-1.5,0.1-3.4,1.1-4.6,2.3c-1.1,1.2-1.9,3-1.7,4.9C17.4,7.9,19.1,6.9,20.2,5.6
		z"/>
</g>
<g>
	<path class="st0" d="M25,16.9c-0.1-3.9,3.2-5.8,3.3-5.8c-1.8-2.6-4.6-3-5.6-3.1c-2.5-0.2-4.6,1.4-5.8,1.4c-1.2,0-3.1-1.4-5.1-1.3
		C9.2,8.2,6.7,9.6,5.4,12c-2.6,4.7-0.8,11.6,2,15.4c1.3,1.9,2.8,3.9,4.9,3.9c2-0.1,2.6-1.2,5.1-1.2s3.1,1.2,5.1,1.2
		c2-0.1,3.4-1.9,4.7-3.7c1.4-2.3,2-4.3,2-4.4C29.2,23.2,25,21.6,25,16.9z"/>
	<path class="st0" d="M21.2,5.6c1.1-1.3,1.8-3.1,1.7-5c-1.5,0.1-3.4,1.1-4.6,2.3c-1.1,1.2-1.9,3-1.7,4.9C18.4,7.9,20.1,6.9,21.2,5.6
		z"/>
</g>
<g>
	<path class="st0" d="M25,16.9c-0.1-3.9,3.2-5.8,3.3-5.8c-1.8-2.6-4.6-3-5.6-3.1c-2.5-0.2-4.6,1.4-5.8,1.4c-1.2,0-3.1-1.4-5.1-1.3
		C9.2,8.2,6.7,9.6,5.4,12c-2.6,4.7-0.8,11.6,2,15.4c1.3,1.9,2.8,3.9,4.9,3.9c2-0.1,2.6-1.2,5.1-1.2s3.1,1.2,5.1,1.2
		c2-0.1,3.4-1.9,4.7-3.7c1.4-2.3,2-4.3,2-4.4C29.2,23.2,25,21.6,25,16.9z"/>
	<path class="st0" d="M21.2,5.6c1.1-1.3,1.8-3.1,1.7-5c-1.5,0.1-3.4,1.1-4.6,2.3c-1.1,1.2-1.9,3-1.7,4.9C18.4,7.9,20.1,6.9,21.2,5.6
		z"/>
</g>
</svg>
