<?xml version="1.0" encoding="utf-8"?>
<!-- Generator: Adobe Illustrator 21.1.0, SVG Export Plug-In . SVG Version: 6.00 Build 0)  -->
<svg version="1.1" id="Layer_1" xmlns="http://www.w3.org/2000/svg" xmlns:xlink="http://www.w3.org/1999/xlink" x="0px" y="0px"
	 viewBox="0 0 32 32" style="enable-background:new 0 0 32 32;" xml:space="preserve">
<style type="text/css">
	.st0{display:none;}
	.st1{display:inline;}
	.st2{fill:#005D99;}
	.st3{display:inline;fill:#FFFFFF;}
	.st4{fill:#D2D2D2;}
	.st5{fill:#FFFFFF;}
</style>
<g id="Layer_1_2_" class="st0">
	<g id="Layer_1_1_" class="st1">
		<g>
			<g id="Ellipse_1_copy">
				<g>
					<circle class="st2" cx="16" cy="16" r="15.7"/>
				</g>
			</g>
			<g id="Ellipse_4">
				<g>
					<circle class="st2" cx="16" cy="11.2" r="0.9"/>
				</g>
			</g>
			<g id="Ellipse_4_copy">
				<g>
					<circle class="st2" cx="16" cy="21.2" r="0.9"/>
				</g>
			</g>
			<g id="Ellipse_4_copy_2">
				<g>
					<circle class="st2" cx="20.5" cy="18.6" r="0.9"/>
				</g>
			</g>
			<g id="Ellipse_4_copy_3">
				<g>
					<circle class="st2" cx="20.5" cy="13.8" r="0.9"/>
				</g>
			</g>
			<g id="Ellipse_4_copy_4">
				<g>
					<circle class="st2" cx="11.9" cy="18.6" r="0.9"/>
				</g>
			</g>
			<g id="Ellipse_4_copy_4_2_">
				<g>
					<circle class="st2" cx="11.9" cy="13.8" r="0.9"/>
				</g>
			</g>
		</g>
	</g>
	<path class="st3" d="M18.8,15.1h-5.6c-0.6,0-1.1-0.5-1.1-1.1V7c0-0.6,0.5-1.1,1.1-1.1h5.6c0.6,0,1.1,0.5,1.1,1.1v7
		C19.9,14.6,19.4,15.1,18.8,15.1z"/>
	<g class="st1">
		<g>
			<path class="st2" d="M15.3,7.9h3.4c0.1,0,0.2-0.1,0.2-0.2s-0.1-0.2-0.2-0.2h-3.4c-0.1,0-0.2,0.1-0.2,0.2
				C15,7.8,15.1,7.9,15.3,7.9z M13.5,9.3c-0.1,0-0.2,0.1-0.2,0.2s0.1,0.2,0.2,0.2h3.4c0.1,0,0.2-0.1,0.2-0.2S17,9.3,16.9,9.3H13.5z
				 M13.5,11.4h3.4c0.1,0,0.2-0.1,0.2-0.2S17,11,16.9,11h-3.4c-0.1,0-0.2,0.1-0.2,0.2S13.4,11.4,13.5,11.4z M13.5,7.9h0.8
				c0.1,0,0.2-0.1,0.2-0.2s-0.1-0.2-0.2-0.2h-0.8c-0.1,0-0.2,0.1-0.2,0.2S13.4,7.9,13.5,7.9z M18.7,12.8h-3.4
				c-0.1,0-0.2,0.1-0.2,0.2s0.1,0.2,0.2,0.2h3.4c0.1,0,0.2-0.1,0.2-0.2S18.8,12.8,18.7,12.8z M14.4,12.8h-0.8
				c-0.1,0-0.2,0.1-0.2,0.2s0.1,0.2,0.2,0.2h0.8c0.1,0,0.2-0.1,0.2-0.2S14.5,12.8,14.4,12.8z M18.7,9.3h-0.8c-0.1,0-0.2,0.1-0.2,0.2
				c0,0.1,0.1,0.2,0.2,0.2h0.8c0.1,0,0.2-0.1,0.2-0.2C18.9,9.4,18.8,9.3,18.7,9.3z"/>
		</g>
	</g>
	<rect x="15.7" y="14.1" class="st3" width="0.7" height="3"/>
	<rect x="12" y="18.5" transform="matrix(0.7071 -0.7071 0.7071 0.7071 -9.1083 15.7326)" class="st3" width="4.9" height="0.7"/>
	<rect x="17.4" y="16.4" transform="matrix(0.7071 -0.7071 0.7071 0.7071 -8.127 18.0696)" class="st3" width="0.7" height="4.9"/>
	<path class="st3" d="M24.1,24.2H20c-0.6,0-1.1-0.5-1.1-1.1v-5.2c0-0.6,0.5-1.1,1.1-1.1h4.1c0.6,0,1.1,0.5,1.1,1.1v5.2
		C25.2,23.7,24.7,24.2,24.1,24.2z"/>
	<g class="st1">
		<g>
			<path class="st2" d="M21.4,18.4h2.8c0.1,0,0.2-0.1,0.2-0.2S24.3,18,24.2,18h-2.8c-0.1,0-0.2,0.1-0.2,0.2S21.3,18.4,21.4,18.4z
				 M20,19.5c-0.1,0-0.2,0.1-0.2,0.2s0.1,0.2,0.2,0.2h2.8c0.1,0,0.2-0.1,0.2-0.2s-0.1-0.2-0.2-0.2H20z M20,21.2h2.8
				c0.1,0,0.2-0.1,0.2-0.2s-0.1-0.2-0.2-0.2H20c-0.1,0-0.2,0.1-0.2,0.2S19.9,21.2,20,21.2z M20,18.4h0.7c0.1,0,0.2-0.1,0.2-0.2
				S20.8,18,20.7,18H20c-0.1,0-0.2,0.1-0.2,0.2S19.9,18.4,20,18.4z M24.2,22.3h-2.8c-0.1,0-0.2,0.1-0.2,0.2s0.1,0.2,0.2,0.2h2.8
				c0.1,0,0.2-0.1,0.2-0.2C24.4,22.4,24.3,22.3,24.2,22.3z M20.7,22.3H20c-0.1,0-0.2,0.1-0.2,0.2s0.1,0.2,0.2,0.2h0.7
				c0.1,0,0.2-0.1,0.2-0.2S20.8,22.3,20.7,22.3z M24.2,19.5h-0.7c-0.1,0-0.2,0.1-0.2,0.2s0.1,0.2,0.2,0.2h0.7c0.1,0,0.2-0.1,0.2-0.2
				S24.3,19.5,24.2,19.5z"/>
		</g>
	</g>
	<path class="st3" d="M12.2,24.2H8c-0.6,0-1.1-0.5-1.1-1.1v-5.2c0-0.6,0.5-1.1,1.1-1.1h4.1c0.6,0,1.1,0.5,1.1,1.1v5.2
		C13.3,23.7,12.8,24.2,12.2,24.2z"/>
	<g class="st1">
		<g>
			<path class="st2" d="M9.5,18.4h2.8c0.1,0,0.2-0.1,0.2-0.2S12.4,18,12.3,18H9.5c-0.1,0-0.2,0.1-0.2,0.2S9.4,18.4,9.5,18.4z
				 M8.1,19.5c-0.1,0-0.2,0.1-0.2,0.2s0.1,0.2,0.2,0.2h2.8c0.1,0,0.2-0.1,0.2-0.2s-0.1-0.2-0.2-0.2H8.1z M8.1,21.2h2.8
				c0.1,0,0.2-0.1,0.2-0.2s-0.1-0.2-0.2-0.2H8.1c-0.1,0-0.2,0.1-0.2,0.2S8,21.2,8.1,21.2z M8.1,18.4h0.7c0.1,0,0.2-0.1,0.2-0.2
				S8.9,18,8.8,18H8.1c-0.1,0-0.2,0.1-0.2,0.2S8,18.4,8.1,18.4z M12.3,22.3H9.5c-0.1,0-0.2,0.1-0.2,0.2s0.1,0.2,0.2,0.2h2.8
				c0.1,0,0.2-0.1,0.2-0.2S12.4,22.3,12.3,22.3z M8.8,22.3H8.1c-0.1,0-0.2,0.1-0.2,0.2s0.1,0.2,0.2,0.2h0.7c0.1,0,0.2-0.1,0.2-0.2
				S8.9,22.3,8.8,22.3z M12.3,19.5h-0.7c-0.1,0-0.2,0.1-0.2,0.2s0.1,0.2,0.2,0.2h0.7c0.1,0,0.2-0.1,0.2-0.2S12.4,19.5,12.3,19.5z"/>
		</g>
	</g>
</g>
<g id="Layer_1_copy">
	<g id="Layer_1_3_">
		<g>
			<g id="Ellipse_1_copy_1_">
				<g>
					<circle class="st4" cx="16" cy="16" r="15.7"/>
				</g>
			</g>
			<g id="Ellipse_4_1_">
				<g>
					<circle class="st4" cx="16" cy="11.2" r="0.9"/>
				</g>
			</g>
			<g id="Ellipse_4_copy_1_">
				<g>
					<circle class="st4" cx="16" cy="21.2" r="0.9"/>
				</g>
			</g>
			<g id="Ellipse_4_copy_2_1_">
				<g>
					<circle class="st4" cx="20.5" cy="18.6" r="0.9"/>
				</g>
			</g>
			<g id="Ellipse_4_copy_3_1_">
				<g>
					<circle class="st4" cx="20.5" cy="13.8" r="0.9"/>
				</g>
			</g>
			<g id="Ellipse_4_copy_4_3_">
				<g>
					<circle class="st4" cx="11.9" cy="18.6" r="0.9"/>
				</g>
			</g>
			<g id="Ellipse_4_copy_4_1_">
				<g>
					<circle class="st4" cx="11.9" cy="13.8" r="0.9"/>
				</g>
			</g>
		</g>
	</g>
	<path class="st5" d="M21.8,24.6H9.7c-0.6,0-1.1-0.5-1.1-1.1V9.7c0-0.6,0.5-1.1,1.1-1.1h12.1c0.6,0,1.1,0.5,1.1,1.1v13.7
		C22.9,24.1,22.4,24.6,21.8,24.6z"/>
	<path class="st4" d="M22.6,14.5c2.7,0,4.8,2.2,4.8,4.8c0,2.7-2.2,4.8-4.8,4.8s-4.8-2.2-4.8-4.8C17.7,16.7,19.9,14.5,22.6,14.5z"/>
	<path class="st5" d="M19.9,18.7c-0.2,0-0.4,0.2-0.4,0.4v0.4c0,0.2,0.1,0.4,0.4,0.4h0.3c0.1,0.2,0.1,0.4,0.2,0.5l-0.2,0.2
		c-0.1,0.2-0.1,0.4,0,0.5l0.3,0.3c0.1,0.1,0.4,0.2,0.5,0l0.2-0.2c0.2,0.1,0.4,0.2,0.5,0.2v0.3c0,0.2,0.2,0.4,0.4,0.4h0.4
		c0.2,0,0.4-0.1,0.4-0.4v-0.3c0.2-0.1,0.4-0.1,0.6-0.2l0.2,0.2c0.2,0.1,0.4,0.1,0.5,0l0.3-0.3c0.1-0.1,0.2-0.4,0-0.5l-0.2-0.2
		c0.1-0.2,0.2-0.4,0.2-0.6h0.3c0.2,0,0.4-0.2,0.4-0.4V19c0-0.2-0.1-0.4-0.4-0.4h-0.3c-0.1-0.2-0.1-0.4-0.2-0.6l0.2-0.2
		c0.1-0.2,0.1-0.4,0-0.5L24.2,17c-0.1-0.1-0.4-0.2-0.5,0l-0.2,0.2c-0.2-0.1-0.4-0.2-0.6-0.3v-0.3c0-0.2-0.2-0.4-0.4-0.4h-0.4
		c-0.2,0-0.4,0.1-0.4,0.4v0.3c-0.2,0.1-0.4,0.1-0.6,0.2V17c-0.2-0.1-0.4-0.1-0.5,0l-0.3,0.3c-0.1,0.1-0.2,0.4,0,0.5l0.2,0.2
		c-0.1,0.2-0.2,0.4-0.2,0.6L19.9,18.7z M22.6,18.2c0.6,0,1.1,0.5,1.1,1.1s-0.5,1.1-1.1,1.1s-1.1-0.5-1.1-1.1S22,18.2,22.6,18.2
		L22.6,18.2z"/>
	<path class="st4" d="M11.2,10.2h0.3c0.4,0,0.7,0.3,0.7,0.6s-0.3,0.6-0.7,0.6h-0.3c-0.4,0-0.7-0.3-0.7-0.6S10.8,10.2,11.2,10.2z"/>
	<path class="st4" d="M11.2,13.2h0.3c0.4,0,0.7,0.3,0.7,0.6s-0.3,0.6-0.7,0.6h-0.3c-0.4,0-0.7-0.3-0.7-0.6S10.8,13.2,11.2,13.2z"/>
	<path class="st4" d="M13.3,13.1h4c0.4,0,0.7,0.3,0.7,0.7s-0.3,0.7-0.7,0.7h-4c-0.4,0-0.7-0.3-0.7-0.7S12.9,13.1,13.3,13.1z"/>
	<path class="st4" d="M13.3,10.1h2.4c0.4,0,0.7,0.3,0.7,0.7s-0.3,0.7-0.7,0.7h-2.4c-0.4,0-0.7-0.3-0.7-0.7
		C12.6,10.4,12.9,10.1,13.3,10.1z"/>
	<path class="st4" d="M16.6,16.2c0,0.4-0.3,0.6-0.7,0.6h-0.3c-0.4,0-0.7-0.3-0.7-0.6s0.3-0.6,0.7-0.6h0.3
		C16.3,15.6,16.6,15.9,16.6,16.2z"/>
	<path class="st4" d="M16.3,18.5c0,0.4-0.3,0.7-0.7,0.7h-4c-0.4,0-0.7-0.3-0.7-0.7s0.3-0.7,0.7-0.7h4C15.9,17.9,16.3,18.2,16.3,18.5
		z"/>
	<path class="st4" d="M14.5,16.2c0,0.4-0.3,0.7-0.7,0.7h-2.4c-0.4,0-0.7-0.3-0.7-0.7s0.3-0.7,0.7-0.7h2.4
		C14.2,15.5,14.5,15.8,14.5,16.2z"/>
</g>
</svg>
