<?xml version="1.0" encoding="utf-8"?>
<!-- Generator: Adobe Illustrator 19.2.1, SVG Export Plug-In . SVG Version: 6.00 Build 0)  -->
<svg version="1.1" id="Layer_1" xmlns="http://www.w3.org/2000/svg" xmlns:xlink="http://www.w3.org/1999/xlink" x="0px" y="0px"
	 viewBox="0 0 32 32" style="enable-background:new 0 0 32 32;" xml:space="preserve">
<style type="text/css">
	.st0{fill:none;stroke:#2C7DA9;stroke-width:1.5;stroke-miterlimit:10;}
	.st1{fill:#2C7DA9;}
</style>
<g>
	<g>
		<path class="st0" d="M29.8,2.4H12.9c-1.1,0-1.8,0.9-1.8,2v12.3c0,1.1,0.9,2,1.8,2h10.3l4.7,4.2v-4.5h1.8c1.1,0,2-0.9,2-2V4.1
			C31.6,3.3,30.7,2.4,29.8,2.4z"/>
	</g>
</g>
<g>
	<g>
		<path class="st1" d="M3.8,30l4.7-4.7H3.8V30z M8.5,20.6V9.5H2c-1.1,0-2,0.9-2,1.8v12.3c0,1.1,0.9,2,2,2h15.8c1.1,0,2-0.9,2-2v-3.1
			L8.5,20.6L8.5,20.6z"/>
	</g>
</g>
</svg>
