<?xml version="1.0" encoding="utf-8"?>
<!-- Generator: Adobe Illustrator 19.2.1, SVG Export Plug-In . SVG Version: 6.00 Build 0)  -->
<svg version="1.1" xmlns="http://www.w3.org/2000/svg" xmlns:xlink="http://www.w3.org/1999/xlink" x="0px" y="0px"
	 viewBox="0 0 25 25" style="enable-background:new 0 0 25 25;" xml:space="preserve">
<style type="text/css">
	.st0{enable-background:new    ;}
	.st1{fill-rule:evenodd;clip-rule:evenodd;fill:#FFFFFF;}
	.st2{fill-rule:evenodd;clip-rule:evenodd;fill:#FE493B;}
	.st3{fill-rule:evenodd;clip-rule:evenodd;fill:#F9F9F9;}
</style>
<g id="Ellipse_2_copy_3_1_" class="st0">
	<g id="Ellipse_2_copy_3">
		<g>
			<circle class="st1" cx="12.5" cy="12.5" r="12.1"/>
		</g>
	</g>
</g>
<g id="Ellipse_2_copy_4_1_" class="st0">
	<g id="Ellipse_2_copy_4">
		<g>
			<circle class="st2" cx="12.5" cy="12.5" r="9.2"/>
		</g>
	</g>
</g>
<g id="x_1_" class="st0">
	<g id="x">
		<g>
			<path class="st3" d="M13.3,12.7l1.7-1.7c0.2-0.2,0.2-0.5,0-0.7c-0.2-0.2-0.5-0.2-0.7,0L12.7,12l-1.7-1.7c-0.2-0.2-0.5-0.2-0.7,0
				c-0.2,0.2-0.2,0.5,0,0.7l1.7,1.7l-1.7,1.7c-0.2,0.2-0.2,0.5,0,0.7c0.2,0.2,0.5,0.2,0.7,0l1.7-1.7l1.7,1.7c0.2,0.2,0.5,0.2,0.7,0
				c0.2-0.2,0.2-0.5,0-0.7L13.3,12.7z"/>
		</g>
	</g>
</g>
</svg>
