<?xml version="1.0" encoding="utf-8"?>
<!-- Generator: Adobe Illustrator 19.2.1, SVG Export Plug-In . SVG Version: 6.00 Build 0)  -->
<svg version="1.1" id="Layer_1" xmlns="http://www.w3.org/2000/svg" xmlns:xlink="http://www.w3.org/1999/xlink" x="0px" y="0px"
	 viewBox="0 0 32 32" style="enable-background:new 0 0 32 32;" xml:space="preserve">
<style type="text/css">
	.st0{fill:none;stroke:#FC6621;stroke-width:2.5;stroke-miterlimit:10;}
</style>
<g>
	<polyline class="st0" points="12.3,23.5 15.8,28.4 19.7,23.3 	"/>
	<line class="st0" x1="16" y1="28.4" x2="16" y2="17.3"/>
	<g>
		<path class="st0" d="M22.4,23.1H25c3.1,0,5.5-2.5,5.5-5.5s-2-5.5-4.9-5.5c0-0.3,0-0.3,0-0.9c0-2-1.5-3.7-3.4-3.7
			c-0.9,0-2,0.3-2.5,0.9c-1.2-2.5-2.3-4.9-6.3-4.9C8.4,3.6,6,7.3,6,11.3c0,0.3,0,0.3,0,0.6c-2.5,0.6-4.6,2.8-4.6,5.5
			c0,3.1,2.3,5.5,5.5,5.5h1.2"/>
		<path class="st0" d="M13.1,23.5"/>
	</g>
	<path class="st0" d="M16,25.9"/>
</g>
</svg>
