<?xml version="1.0" encoding="utf-8"?>
<!-- Generator: Adobe Illustrator 19.2.1, SVG Export Plug-In . SVG Version: 6.00 Build 0)  -->
<svg version="1.1" id="Layer_1" xmlns="http://www.w3.org/2000/svg" xmlns:xlink="http://www.w3.org/1999/xlink" x="0px" y="0px"
	 viewBox="0 0 32 32" style="enable-background:new 0 0 32 32;" xml:space="preserve">
<style type="text/css">
	.st0{fill:none;stroke:#7AC143;stroke-width:2;stroke-miterlimit:10;}
</style>
<g>
	<path class="st0" d="M30.8,15.1l-4.3-4.3c-0.3-0.3-0.5-0.3-0.8-0.3c-0.3,0-0.5,0.3-0.8,0.3c-0.3,0.3-0.3,0.5-0.3,0.8v2.3h-6.1V7.8
		h2.3c0.3,0,0.5-0.3,0.8-0.3C22,7.3,22,7,22,6.7c0-0.3-0.3-0.5-0.3-0.8l-4.3-4.3c-0.3-0.3-0.5-0.3-0.8-0.3c-0.3,0-0.5,0.3-0.8,0.3
		L11.6,6c-0.3,0.3-0.3,0.5-0.3,0.8c0,0.3,0.3,0.5,0.3,0.8c0.3,0.3,0.5,0.3,0.8,0.3h2v6.1H7.5v-2.3c0-0.3-0.3-0.5-0.3-0.8
		c-0.3-0.3-0.5-0.3-0.8-0.3c-0.3,0-0.5,0.3-0.8,0.3l-4.3,4.3c-0.3,0.3-0.3,0.5-0.3,0.8c0,0.3,0.3,0.5,0.3,0.8l4.3,4.3
		c0.3,0.3,0.5,0.3,0.8,0.3c0.3,0,0.5-0.3,0.8-0.3c0.3-0.3,0.3-0.5,0.3-0.8v-2h6.1v6.1h-2c-0.3,0-0.5,0.3-0.8,0.3
		c-0.3,0.3-0.3,0.5-0.3,0.8c0,0.3,0.3,0.5,0.3,0.8l4.3,4.3c0.3,0.3,0.5,0.3,0.8,0.3c0.3,0,0.5-0.3,0.8-0.3l4.3-4.3
		c0.3-0.3,0.3-0.5,0.3-0.8c0-0.3-0.3-0.5-0.3-0.8c-0.3-0.3-0.5-0.3-0.8-0.3h-2v-6.1h6.1v2c0,0.3,0.3,0.5,0.3,0.8
		c0.3,0.3,0.5,0.3,0.8,0.3c0.3,0,0.5-0.3,0.8-0.3l4.3-4.3c0.3-0.3,0.3-0.5,0.3-0.8C30.8,15.6,30.8,15.4,30.8,15.1z"/>
</g>
</svg>
