<?xml version="1.0" encoding="utf-8"?>
<!-- Generator: Adobe Illustrator 19.2.1, SVG Export Plug-In . SVG Version: 6.00 Build 0)  -->
<svg version="1.1" id="_" xmlns="http://www.w3.org/2000/svg" xmlns:xlink="http://www.w3.org/1999/xlink" x="0px" y="0px"
	 viewBox="0 0 16 16" style="enable-background:new 0 0 16 16;" xml:space="preserve">
<style type="text/css">
	.st0{fill:#FFFFFF;}
	.st1{fill:#A5A5A5;}
	.st2{fill:none;stroke:#A5A5A5;stroke-miterlimit:10;}
</style>
<title>icon-in-progress</title>
<g>
	<g id="Ellipse_1">
		<g id="Ellipse_1-2">
			<path class="st0" d="M8.1,15C4.2,15.1,1,12,1,8.1C0.9,4.2,4,1,7.9,1c3.9-0.1,7.1,3,7.1,6.9C15,11.8,12,14.9,8.1,15
				C8.1,15,8.1,15,8.1,15z"/>
			<path class="st1" d="M7.9,1.3c3.7-0.1,6.8,2.9,6.8,6.6s-2.9,6.8-6.6,6.8s-6.8-2.9-6.8-6.6c0,0,0,0,0,0C1.2,4.4,4.2,1.3,7.9,1.3
				 M7.9,0.3C3.6,0.3,0.2,3.9,0.3,8.1s3.6,7.7,7.9,7.6c4.3-0.1,7.7-3.6,7.6-7.9C15.7,3.6,12.1,0.2,7.9,0.3C7.9,0.3,7.9,0.3,7.9,0.3
				L7.9,0.3L7.9,0.3z"/>
		</g>
	</g>
	<line class="st2" x1="3.6" y1="5.2" x2="7.7" y2="5.2"/>
	<line class="st2" x1="3.6" y1="7.2" x2="11.4" y2="7.2"/>
	<line class="st2" x1="3.7" y1="9.2" x2="12.8" y2="9.2"/>
	<line class="st2" x1="3.8" y1="11.2" x2="11.5" y2="11.2"/>
</g>
</svg>
