<?xml version="1.0" encoding="utf-8"?>
<!-- Generator: Adobe Illustrator 19.2.1, SVG Export Plug-In . SVG Version: 6.00 Build 0)  -->
<svg version="1.1" id="Layer_1" xmlns="http://www.w3.org/2000/svg" xmlns:xlink="http://www.w3.org/1999/xlink" x="0px" y="0px"
	 viewBox="0 0 32 32" style="enable-background:new 0 0 32 32;" xml:space="preserve">
<style type="text/css">
	.st0{enable-background:new    ;}
	.st1{fill:#00A2D9;}
</style>
<g id="Background_xA0_Image_1_">
</g>
<g id="Rounded_Rectangle_1_1_" class="st0">
</g>
<g id="Rounded_Rectangle_1_copy_1_" class="st0">
</g>
<g id="Rounded_Rectangle_1_copy_2_1_" class="st0">
	<g>
		<g id="Rounded_Rectangle_1">
			<g>
				<path class="st1" d="M24.9,9.2l-6.3-5.5c-1.2-1-3-1.2-4.3-0.4l-7,4.6c-1.2,0.8-1.3,2.2-0.1,3.2l8.3,7.2l9.2-6
					C26,11.7,26,10.2,24.9,9.2z"/>
			</g>
		</g>
		<g id="Rounded_Rectangle_1_copy">
			<g>
				<path class="st1" d="M24.8,14l-9.2,6l-8.3-7.2c-0.1-0.1-0.3-0.3-0.4-0.4c-0.7,0.8-0.7,2,0.4,2.9l8.3,7.2l9.2-6
					c1-0.7,1.2-1.8,0.5-2.8C25.1,13.8,24.9,13.9,24.8,14z"/>
			</g>
		</g>
		<g id="Rounded_Rectangle_1_copy_2">
			<g>
				<path class="st1" d="M24.7,18l-9.2,6l-8.3-7.3c-0.1-0.1-0.3-0.3-0.4-0.4c-0.7,0.8-0.7,2,0.4,2.9l8.3,7.2l9.2-6
					c1-0.7,1.2-1.8,0.5-2.8C25.1,17.7,24.9,17.9,24.7,18z"/>
			</g>
		</g>
	</g>
</g>
</svg>
