<?xml version="1.0" encoding="utf-8"?>
<!-- Generator: Adobe Illustrator 19.2.1, SVG Export Plug-In . SVG Version: 6.00 Build 0)  -->
<svg version="1.1" id="Layer_1" xmlns="http://www.w3.org/2000/svg" xmlns:xlink="http://www.w3.org/1999/xlink" x="0px" y="0px"
	 viewBox="0 0 32 32" style="enable-background:new 0 0 32 32;" xml:space="preserve">
<style type="text/css">
	.st0{fill:#7AC143;}
	.st1{fill:#009DDC;}
</style>
<g id="Forma_1_10_">
	<g>
		<path class="st0" d="M7.2,15.1c-0.5,0-0.7,0-0.9,0v3c0.2,0,0.5,0,0.7,0c1.2,0,2.3-0.7,2.3-1.6C9.3,16,8.4,15.1,7.2,15.1z
			 M14.7,15.1c-0.5,0-0.7,0-0.9,0v5.9c0.2,0,0.5,0,0.7,0c1.6,0,4-1.2,4-3C18.2,16.2,16.4,15.1,14.7,15.1z M29.3,12.2h-2.1H4.9H2.7
			c-0.9,0-0.9,0.9-0.9,1.6v8.4c0,0.9,0,1.6,0.9,1.6h2.1l0,0c0,0.7,0.5,0,1.2,0H26c0.7,0,1.2,0.7,1.2,0l0,0h2.1
			c0.9,0,0.9-0.9,0.9-1.6v-8.2C30.2,13.2,30.2,12.2,29.3,12.2z M10,18.8c-0.7,0.7-1.6,0.9-3,0.9c-0.2,0-0.5,0-0.7,0v3H4.6v-8.9
			c0.7,0,2.1,0,3,0c1.2,0,1.2,0,2.1,0.7c0.7,0.5,0.9,1.2,0.9,2.1C10.7,17.4,10.7,18.3,10,18.8z M18.2,21.6c-0.9,0.9-2.1,1.2-3.8,1.2
			c-1.2,0-1.6,0-2.3-0.2v-8.9c0.7-0.2,1.6,0,2.8,0c1.6,0,2.3,0.2,3.3,0.9c0.9,0.7,1.6,1.6,1.6,3.3C19.6,19.8,18.9,20.7,18.2,21.6z
			 M27.1,18.3h-3v4.5h-1.6v-9.1h4.5v1.6h-3v1.6h3L27.1,18.3L27.1,18.3z"/>
	</g>
</g>
<g id="Forma_1_copy_8">
	<g>
		<path class="st1" d="M4.6,30.5c0,0.7,0.5,1.2,1.2,1.2h19.9c0.7,0,1.2-0.5,1.2-1.2v-6.3H4.9v6.3H4.6z M6.3,24.2h19.2v5.9H6.3V24.2z
			 M27.1,8c0-0.2,0-0.2,0-0.5l-5.9-7.3l0,0c0,0,0,0-0.2,0l0,0c0,0,0,0-0.2,0l0,0c0,0,0,0-0.2,0H5.8c-0.7,0-1.2,0.5-1.2,1.2v10.8h1.6
			V1.7h13.4v5.4c0,0.5,0.2,0.7,0.7,0.7h5.4v4.5h1.6L27.1,8L27.1,8z M6.3,12.2h19.2l0,0H6.3L6.3,12.2z"/>
	</g>
</g>
</svg>
