<?xml version="1.0" encoding="utf-8"?>
<!-- Generator: Adobe Illustrator 19.2.1, SVG Export Plug-In . SVG Version: 6.00 Build 0)  -->
<svg version="1.1" id="Layer_1" xmlns="http://www.w3.org/2000/svg" xmlns:xlink="http://www.w3.org/1999/xlink" x="0px" y="0px"
	 viewBox="0 0 32 32" style="enable-background:new 0 0 32 32;" xml:space="preserve">
<style type="text/css">
	.st0{fill:#2C7DA9;}
</style>
<g>
	<path class="st0" d="M8.5,8.5h1.1h1.1c0.9-3.2,3-5,5.5-5c2.5,0,4.8,1.6,5.5,5h1.1H24C23.1,3.7,20.1,1,16.5,1
		C12.4,1.5,9.4,4,8.5,8.5z"/>
	<path class="st0" d="M24,11.3h-1.1h-0.9H10.8H9.6H8.5H3L0,30.6H32l-3-19.4H24L24,11.3z"/>
	<path class="st0" d="M9.8,14c0.9,0,1.6,0.7,1.6,1.6c0,0.9-0.7,1.6-1.6,1.6c-0.9,0-1.6-0.7-1.6-1.6C8.5,14.5,9.2,14,9.8,14z"/>
	<path class="st0" d="M23.8,14.2c0.9,0,1.6,0.7,1.6,1.6c0,0.9-0.7,1.6-1.6,1.6s-1.6-0.7-1.6-1.6C22.4,14.9,23.1,14.2,23.8,14.2z"/>
</g>
</svg>
