<?xml version="1.0" encoding="utf-8"?>
<!-- Generator: Adobe Illustrator 19.2.1, SVG Export Plug-In . SVG Version: 6.00 Build 0)  -->
<svg version="1.1" id="Layer_1" xmlns="http://www.w3.org/2000/svg" xmlns:xlink="http://www.w3.org/1999/xlink" x="0px" y="0px"
	 viewBox="0 0 32 32" style="enable-background:new 0 0 32 32;" xml:space="preserve">
<style type="text/css">
	.st0{fill:#6A8197;}
</style>
<path class="st0" d="M20.1,16c0-1.1-0.4-2.2-1.2-3c-0.8-0.8-1.8-1.3-3-1.3c-1.1,0-2.2,0.4-3,1.2c-0.8,0.8-1.3,1.8-1.3,3
	c0,2.3,1.8,4.2,4.1,4.3h0C18.3,20.2,20.1,18.4,20.1,16L20.1,16z M16,18.5C16,18.5,15.9,18.5,16,18.5c-1.5,0-2.6-1.2-2.5-2.6
	c0-0.7,0.3-1.3,0.8-1.8c0.5-0.5,1.1-0.7,1.8-0.7c0.7,0,1.3,0.3,1.8,0.8c0.5,0.5,0.8,1.1,0.7,1.8C18.5,17.4,17.4,18.5,16,18.5
	L16,18.5z M30.7,15.2c-0.5,0-0.8,0.4-0.8,0.8c0,7.3-5.8,13.3-13.1,13.7v-2h0.1h0c0.8,0,1.4-0.6,1.6-1.3l0.3-1.5
	c0.5-0.1,0.9-0.3,1.4-0.5l1.3,0.9c0.6,0.5,1.5,0.4,2.1-0.1l1.5-1.4c0.6-0.6,0.7-1.4,0.2-2.1l-0.8-1.3c0.2-0.5,0.5-0.9,0.6-1.4
	l1.6-0.2c0.8-0.1,1.4-0.8,1.4-1.6l0-2c0-0.8-0.5-1.5-1.3-1.6L25,13.3c-0.1-0.5-0.3-0.9-0.6-1.4l0.9-1.3c0.5-0.6,0.4-1.5-0.1-2.1
	l-1.4-1.5c-0.6-0.6-1.4-0.7-2.1-0.2l-1.2,0.9c-0.5-0.2-0.9-0.5-1.4-0.6L19,5.7c-0.1-0.8-0.8-1.4-1.6-1.4h-0.2V1.5
	c0-0.5-0.4-0.8-0.8-0.8c-0.1,0-0.1,0-0.2,0C7.7,0.7,0.8,7.5,0.8,16c0,0.5,0.4,0.8,0.8,0.8c0.4,0,0.8-0.4,0.8-0.8
	c0-7.3,5.8-13.3,13.1-13.7v2h-0.2h0c-0.8,0-1.4,0.6-1.6,1.3l-0.3,1.5c-0.5,0.1-1,0.3-1.5,0.6l-1.2-0.9c-0.6-0.5-1.5-0.4-2.1,0.1
	L7.2,8.3C6.6,8.9,6.5,9.8,7,10.4l0.9,1.3c-0.2,0.4-0.4,0.9-0.6,1.4l-1.5,0.2c-0.8,0.1-1.3,0.8-1.4,1.5v0l0,2c0,0.8,0.5,1.5,1.3,1.6
	l1.5,0.3c0.1,0.5,0.3,1,0.6,1.4l-0.9,1.2C6.4,22,6.4,22.9,7,23.5l1.4,1.5c0.6,0.6,1.4,0.7,2.1,0.2l1.3-0.9c0.4,0.2,0.9,0.4,1.4,0.6
	l0.2,1.5c0.1,0.8,0.8,1.4,1.6,1.4h0.3v2.8c0,0.5,0.4,0.8,0.8,0.8c0.1,0,0.1,0,0.2,0c8.5,0,15.3-6.9,15.3-15.3
	C31.5,15.5,31.1,15.2,30.7,15.2L30.7,15.2z M14.6,24c0-0.3-0.3-0.6-0.6-0.7c-0.7-0.2-1.4-0.5-2-0.8c-0.3-0.2-0.6-0.1-0.9,0l-1.6,1.1
	l-1.4-1.4l1.2-1.6c0.2-0.3,0.2-0.6,0-0.9c-0.3-0.6-0.6-1.3-0.8-2c-0.1-0.3-0.3-0.6-0.7-0.6l-2-0.4l0-1.9l2-0.3
	c0.3,0,0.6-0.3,0.7-0.6c0.2-0.7,0.5-1.4,0.8-2c0.2-0.3,0.1-0.6,0-0.9L8.4,9.4l1.4-1.4l1.6,1.2c0.3,0.2,0.6,0.2,0.9,0
	c0.6-0.4,1.3-0.6,2-0.8c0.3-0.1,0.6-0.3,0.6-0.7l0.4-2h1h1l0.3,2c0,0.3,0.3,0.6,0.6,0.7c0.7,0.2,1.3,0.5,2,0.8
	c0.3,0.2,0.6,0.1,0.9,0l1.6-1.1l1.4,1.4l-1.2,1.6c-0.2,0.3-0.2,0.6,0,0.9c0.3,0.6,0.6,1.3,0.8,2c0.1,0.3,0.3,0.6,0.7,0.6l2,0.4l0,2
	l-2,0.3c-0.3,0-0.6,0.3-0.7,0.6c-0.2,0.7-0.5,1.3-0.8,2c-0.2,0.3-0.1,0.6,0,0.9l1.1,1.6l-1.4,1.4l-1.6-1.2c-0.3-0.2-0.6-0.2-0.9,0
	c-0.6,0.3-1.3,0.6-1.9,0.8c-0.3,0.1-0.6,0.3-0.6,0.7L17,26l-2,0L14.6,24z"/>
</svg>
