<?xml version="1.0" encoding="utf-8"?>
<!-- Generator: Adobe Illustrator 19.2.1, SVG Export Plug-In . SVG Version: 6.00 Build 0)  -->
<svg version="1.1" id="Shape_1_1_" xmlns="http://www.w3.org/2000/svg" xmlns:xlink="http://www.w3.org/1999/xlink" x="0px" y="0px"
	 viewBox="0 0 32 32" style="enable-background:new 0 0 32 32;" xml:space="preserve">
<style type="text/css">
	.st0{fill:#6F6F6F;}
</style>
<g id="Shape_1">
	<g>
		<path class="st0" d="M24,19c-2.8,0-5.1,2.3-5.1,5.1s2.3,5.1,5.1,5.1s5.1-2.3,5.1-5.1S26.8,19,24,19z M24,28.2c-2.2,0-4-1.8-4-4
			s1.8-4,4-4s4,1.8,4,4S26.2,28.2,24,28.2z M26.6,22c-0.2-0.2-0.6-0.2-0.8,0.1L23.4,25l-1.3-1.3c-0.2-0.2-0.6-0.2-0.8,0
			c-0.2,0.2-0.2,0.6,0,0.8l1.7,1.7c0.1,0.1,0.3,0.2,0.4,0.2l0,0c0.2,0,0.3-0.1,0.4-0.2l2.9-3.4C26.9,22.6,26.9,22.2,26.6,22z
			 M16.3,25.3l-2.5,1.3l-2-1.3c-0.2-0.1-0.4-0.2-0.6,0l-2.6,1.3l-2-1.3c-0.2-0.1-0.4-0.2-0.6,0l-2,1V3.5h19.4v15
			c0,0.3,0.3,0.5,0.6,0.5c0.3,0,0.6-0.3,0.6-0.5V3.1c0-0.3-0.3-0.5-0.6-0.5H3.4c-0.3,0-0.6,0.3-0.6,0.5v24.2c0,0.2,0.1,0.3,0.3,0.4
			s0.4,0.1,0.6,0l2.5-1.3l2,1.3c0.2,0.1,0.4,0.2,0.6,0l2.5-1.3l2,1.3c0.1,0.1,0.2,0.1,0.3,0.1s0.2,0,0.3-0.1l2.9-1.4
			c0.3-0.2,0.4-0.4,0.2-0.7C16.9,25.2,16.5,25.1,16.3,25.3z M9.1,6.8c0.3,0,0.6-0.3,0.6-0.6c0-0.3-0.3-0.6-0.6-0.6H6.3
			C6,5.6,5.7,5.9,5.7,6.2S6,6.8,6.3,6.8H9.1z M20,9.3h-2.9c-0.3,0-0.6,0.3-0.6,0.6s0.3,0.6,0.6,0.6H20c0.3,0,0.6-0.3,0.6-0.6
			S20.3,9.3,20,9.3z M20,12.2h-2.9c-0.3,0-0.6,0.3-0.6,0.6s0.3,0.6,0.6,0.6H20c0.3,0,0.6-0.3,0.6-0.6S20.3,12.2,20,12.2z M20,15
			h-2.9c-0.3,0-0.6,0.3-0.6,0.6c0,0.3,0.3,0.6,0.6,0.6H20c0.3,0,0.6-0.3,0.6-0.6S20.3,15,20,15z M20.6,18.5c0-0.3-0.3-0.6-0.6-0.6
			h-2.9c-0.3,0-0.6,0.3-0.6,0.6s0.3,0.6,0.6,0.6H20C20.3,19,20.6,18.8,20.6,18.5z M14.4,9.3h-8C6,9.3,5.8,9.6,5.8,9.9
			s0.3,0.6,0.6,0.6h8c0.3,0,0.6-0.3,0.6-0.6S14.6,9.3,14.4,9.3z M14.4,12.2h-8c-0.3,0-0.6,0.3-0.6,0.6s0.3,0.6,0.6,0.6h8
			c0.3,0,0.6-0.3,0.6-0.6S14.6,12.2,14.4,12.2z M14.4,15h-8c-0.3,0-0.6,0.3-0.6,0.6c0,0.3,0.3,0.6,0.6,0.6h8c0.3,0,0.6-0.3,0.6-0.6
			S14.6,15,14.4,15z M14.4,17.9h-8c-0.3,0-0.6,0.3-0.6,0.6s0.3,0.6,0.6,0.6h8c0.3,0,0.6-0.3,0.6-0.6S14.6,17.9,14.4,17.9z"/>
	</g>
</g>
</svg>
