<?xml version="1.0" encoding="utf-8"?>
<!-- Generator: Adobe Illustrator 19.2.1, SVG Export Plug-In . SVG Version: 6.00 Build 0)  -->
<svg version="1.1" id="Layer_1" xmlns="http://www.w3.org/2000/svg" xmlns:xlink="http://www.w3.org/1999/xlink" x="0px" y="0px"
	 viewBox="0 0 32 32" style="enable-background:new 0 0 32 32;" xml:space="preserve">
<style type="text/css">
	.st0{fill:#00A2DE;}
	.st1{fill:#F57E1F;}
</style>
<g id="Forma_1_copy_6">
	<g>
		<path class="st0" d="M8.5,6.3L8.5,6.3c1,0,1.2-0.7,1.2-1.2V2.1c0-0.7-0.5-1.2-1.2-1.2l0,0c-0.7,0-1.7,0.7-1.7,1.2V5
			C6.7,5.5,7.7,6.3,8.5,6.3z M23.5,6.3L23.5,6.3c1,0,1.7-0.7,1.7-1.2V2.1c0-0.7-1-1.2-1.7-1.2l0,0c-0.7,0-1.2,0.7-1.2,1.2V5
			C22.1,5.5,22.8,6.3,23.5,6.3z M28.2,4.8H27v0.5C27,7,25.3,8,23.8,8l0,0c-1.7,0-2.9-1.2-2.9-2.7V4.8h-9.3v0.5C11.6,7,10.4,8,8.7,8
			l0,0C7,8,5.3,6.7,5.3,5.3V4.8H3.8c-1.9,0-3.4,1.7-3.4,3.9v18.5c0,1.9,1.7,3.9,3.9,3.9h23.4c2.2,0,3.9-1.7,3.9-3.9V8.7
			C31.6,6.5,30.4,4.8,28.2,4.8z M29.9,27.7c0,1.2-1,1.7-1.7,1.7H4.1c-1.2,0-1.7-1-1.7-1.7V10.9h27.8L29.9,27.7L29.9,27.7z"/>
	</g>
</g>
<g id="Forma_1_6_">
	<g>
		<path class="st1" d="M8.5,14.5c-1.2,0-2.2,1.2-2.2,2.2c0,1.2,1.2,2.2,2.2,2.2c1.2,0,2.2-1.2,2.2-2.2C10.9,15.5,9.7,14.5,8.5,14.5z
			 M16,14.5c-1.2,0-2.2,1.2-2.2,2.2c0,1.2,1.2,2.2,2.2,2.2c1.2,0,2.2-1.2,2.2-2.2C18.2,15.5,17.2,14.5,16,14.5z M23.5,19.2
			c1.2,0,2.2-1.2,2.2-2.2c0-1.2-1.2-2.2-2.2-2.2c-1.2,0-2.2,1.2-2.2,2.2C21.1,17.9,22.3,19.2,23.5,19.2z M8.5,22.1
			c-1.2,0-2.2,1.2-2.2,2.2c0,1,1.2,2.2,2.2,2.2c1.2,0,2.2-1.2,2.2-2.2C10.6,23.3,9.7,22.1,8.5,22.1z M16,22.1
			c-1.2,0-2.2,1.2-2.2,2.2c0,1,1.2,2.2,2.2,2.2c1.2,0,2.2-1.2,2.2-2.2C18.2,23.3,17.2,22.1,16,22.1z M23.5,22.1
			c-1.2,0-2.2,1.2-2.2,2.2c0,1,1.2,2.2,2.2,2.2c1.2,0,2.2-1.2,2.2-2.2C25.7,23.3,24.8,22.1,23.5,22.1z"/>
	</g>
</g>
</svg>
