<?xml version="1.0" encoding="utf-8"?>
<!-- Generator: Adobe Illustrator 19.2.1, SVG Export Plug-In . SVG Version: 6.00 Build 0)  -->
<svg version="1.1" id="Layer_1" xmlns="http://www.w3.org/2000/svg" xmlns:xlink="http://www.w3.org/1999/xlink" x="0px" y="0px"
	 viewBox="0 0 32 32" style="enable-background:new 0 0 32 32;" xml:space="preserve">
<style type="text/css">
	.st0{fill:#FFFFFF;}
</style>
<title>service-configuration</title>
<g id="Forma_1">
	<g id="Forma_1-2">
		<path class="st0" d="M13.5,12.1c7.1,0,12.9-2.5,12.9-5.7s-5.9-5.7-12.9-5.7S0.6,3.1,0.6,6.3S6.3,12.1,13.5,12.1z M14.7,25.6h-1.2
			c-7.2,0-12.9-2.5-12.9-5.7v4.4c0,3.2,5.7,5.7,12.9,5.7c1,0,2,0,3-0.1c-0.4-0.8-0.4-1.7,0-2.4C15.6,27.2,15,26.4,14.7,25.6z
			 M16.2,19.5c-0.9,0.1-1.8,0.1-2.7,0.1c-7.2,0-12.9-2.5-12.9-5.7v4.4c0,3.2,5.7,5.7,12.9,5.7h1.2v-0.7c0-1.1,0.8-2.1,1.8-2.3
			C16.2,20.6,16.1,20,16.2,19.5z M13.5,18c1.2,0,2.4-0.1,3.6-0.2l1-1c0.8-0.8,2-0.9,2.9-0.3c0.2-1,1.2-1.8,2.3-1.8h1.9
			c0.7-0.6,1.1-1.4,1.2-2.4V7.9c0,3.2-5.7,5.7-12.9,5.7S0.6,11.1,0.6,7.9v4.4C0.6,15.5,6.3,18,13.5,18z M31.4,25.1v-1.8L29.3,23
			c-0.1-0.6-0.3-1-0.6-1.4l1.2-1.8l-1.2-1.2L27,19.8c-0.4-0.2-0.9-0.4-1.4-0.6l-0.3-2h-1.8l-0.3,2.1c-0.6,0.1-1,0.3-1.4,0.6
			l-1.8-1.2l-1.2,1.2l1.2,1.7c-0.2,0.4-0.4,0.9-0.6,1.4l-2.1,0.3v1.8l2.1,0.3c0.1,0.6,0.3,1,0.6,1.4l-1.2,1.8l1.2,1.2l1.8-1.2
			c0.4,0.2,0.9,0.4,1.4,0.6l0.3,2.1h1.8l0.4-2.1c0.6-0.1,1-0.3,1.4-0.6l1.8,1.2l1.2-1.2l-1.2-1.8c0.2-0.4,0.4-0.9,0.6-1.3L31.4,25.1
			z M24.2,26.8c-1.3,0-2.5-1.1-2.5-2.5c0-1.4,1.1-2.5,2.5-2.5c1.4,0,2.5,1.1,2.5,2.5C26.8,25.7,25.6,26.8,24.2,26.8L24.2,26.8z"/>
	</g>
</g>
</svg>
