<?xml version="1.0" encoding="utf-8"?>
<!-- Generator: Adobe Illustrator 19.2.1, SVG Export Plug-In . SVG Version: 6.00 Build 0)  -->
<svg version="1.1" id="Layer_1" xmlns="http://www.w3.org/2000/svg" xmlns:xlink="http://www.w3.org/1999/xlink" x="0px" y="0px"
	 viewBox="0 0 32 32" style="enable-background:new 0 0 32 32;" xml:space="preserve">
<style type="text/css">
	.st0{fill:#01A3D9;}
	.st1{fill:#F26822;}
	.st2{fill:#8DC641;}
</style>
<title>icon-sdk-kony</title>
<path class="st0" d="M13.4,11.2l-0.2,0.1c-0.9,0.3-1.8,0.1-2.5-0.6c-0.6-0.6-1.1-1.3-1.5-1.9C9,8.3,8.8,7.6,8.7,7
	c-0.6-2.4,0.5-3.9,1.6-4c0.8-0.1,1.8,0.4,1.9,2.6c0.1,2.2-0.2,4.2,0.9,5.3L13.4,11.2"/>
<path class="st0" d="M14.5,12.7c3.8-0.4,6.8-3.9,7.6-5.2c1.1-2.4,0.8-3.9-0.6-4.2s-2.5,0.5-3.5,2.6s-1.9,4.7-4.2,5.7
	c-0.7,0.4-1.6,0.5-2.4,0.2C12.3,12.5,13.4,12.9,14.5,12.7"/>
<path class="st1" d="M9.6,15.3L9.6,15.3l0.1-0.2c0.3-1.6-0.4-3.1-1.6-4.1c-0.4-0.4-0.8-0.6-1-0.8C6.6,9.9,6.1,9.8,5.6,9.8
	c-1.9-0.1-3.2,0.8-3,1.9C2.7,12.6,3,13.7,5,13.7C7.1,14,8.5,14.2,9.6,15.3"/>
<path class="st1" d="M10,12.3c0.5,1.1,0.6,2.4,0.4,3.5c-0.6,2-2.5,3.2-4.2,4.1c-1.7,0.9-2.1,2.4-1.9,3c0.6,1,1.9,1.5,3.5,0.8
	c2.6-1.3,4.1-4,4-6.8C11.4,13.3,10,12.3,10,12.3"/>
<path class="st2" d="M13.1,19.1c0.6-1.2,1.5-2.2,2.6-2.9c3.5-1.7,8.9,1.8,9.5,2.2c0.8,0.5,3,1.1,4-0.8c0.8-1.6-0.2-2.6-1.6-3.5
	c-2.2-1.4-9.2-3.8-13.3,1.8C13.9,17,13.4,18,13.1,19.1"/>
<path class="st2" d="M19.8,25c-0.6-0.8-4.3-3.8-4.2-7.5v-0.4l-0.2,0.1c-1.1,0.8-2.2,1.9-2.2,3.2c-0.1,0.6-0.1,1.3,0.1,1.9
	c0.5,1.9,1.3,3.7,2.6,5.2c1.7,1.7,3.2,1.9,4,1C20.7,27.5,20.7,25.9,19.8,25"/>
</svg>
