<?xml version="1.0" encoding="utf-8"?>
<!-- Generator: Adobe Illustrator 22.1.0, SVG Export Plug-In . SVG Version: 6.00 Build 0)  -->
<svg version="1.1" id="Layer_1" xmlns="http://www.w3.org/2000/svg" xmlns:xlink="http://www.w3.org/1999/xlink" x="0px" y="0px"
	 viewBox="0 0 32 32" style="enable-background:new 0 0 32 32;" xml:space="preserve">
<style type="text/css">
	.st0{fill:#9E9E9E;}
</style>
<g>
	<path class="st0" d="M5.4,11.4h12.8v0.8H5.4V11.4z"/>
	<path class="st0" d="M27.4,8h-9.9l-1-1.5c-0.5-0.7-1.3-1.1-2.1-1.1h-12v19.2c0,1.2,1,2.2,2.2,2.2h22.8c1.2,0,2.2-1,2.2-2.2V10.1
		C29.6,8.9,28.6,8,27.4,8L27.4,8z M14.4,6.1c0.6,0,1.1,0.3,1.4,0.8L16.5,8H4.6c-0.5,0-1,0.2-1.3,0.5V6.1L14.4,6.1L14.4,6.1z
		 M28.3,24c0,0.7-0.6,1.3-1.3,1.3H4.9c-0.7,0-1.3-0.6-1.3-1.3V10.6c0-0.7,0.6-1.3,1.3-1.3h22.1c0.7,0,1.3,0.6,1.3,1.3V24z"/>
</g>
</svg>
