<?xml version="1.0" encoding="utf-8"?>
<!-- Generator: Adobe Illustrator 19.2.1, SVG Export Plug-In . SVG Version: 6.00 Build 0)  -->
<svg version="1.1" id="Background_Image" xmlns="http://www.w3.org/2000/svg" xmlns:xlink="http://www.w3.org/1999/xlink" x="0px"
	 y="0px" viewBox="0 0 32 32" style="enable-background:new 0 0 32 32;" xml:space="preserve">
<style type="text/css">
	.st0{fill:#8EC44A;}
	.st1{fill:#FFFFFF;}
	.st2{fill:#00A3D7;}
</style>
<title>icon-rdbms-connector</title>
<g id="Forma_1">
	<g id="Forma_1-2">
		<path class="st0" d="M28.5,20.8c0.3-0.2,0.5-0.6,0.3-1s-0.6-0.5-1-0.3c0,0,0,0-0.1,0L25.6,21l0.8,1.2L28.5,20.8z M30.9,23.1
			c-0.2-0.3-0.6-0.4-1-0.2l-2.1,1.4l0.8,1.2l2.1-1.4C31,23.9,31.1,23.5,30.9,23.1C30.9,23.1,30.9,23.1,30.9,23.1z M27.7,26.1
			l-0.8-1.2l-1.4-2.1l-0.8-1.2l-0.8-1.3c-0.1-0.1-0.3-0.2-0.4-0.1c0,0,0,0,0,0c-1.6,1.2-2.2,3.2-1.6,5.1c0.1,0.2,0,0.3-0.2,0.4
			c0,0-0.1,0-0.1,0c0,0-0.1,0-0.1,0c-0.8-0.1-1.4-0.7-1.8-1.3c-0.8-0.9-1.7-1.9-3.1-1.8c-0.4,0-0.6,0.3-0.6,0.7
			c0,0.4,0.3,0.6,0.7,0.6c1-0.1,1.7,0.8,2.2,1.5c0.3,0.4,0.7,0.8,1,1.1c0.4,0.3,0.8,0.4,1.3,0.5c0.3,0,0.5,0,0.8,0
			c0.3-0.1,0.5-0.1,0.8,0c0.1,0,0.2,0.1,0.3,0.2c1.4,1.3,3.6,1.5,5.3,0.6c0.2-0.1,0.2-0.3,0.1-0.4c0,0,0,0,0,0L27.7,26.1z"/>
	</g>
</g>
<g id="Rounded_Rectangle_3">
	<g id="Rounded_Rectangle_3-2">
		<path class="st1" d="M5,27.4c-1.2,0-2.2-1-2.2-2.2V7.1c0-1.2,1-2.2,2.2-2.2h17.1c1.2,0,2.2,1,2.2,2.2v10.2
			c-3.5,0.8-5.9,4.1-5.9,8.4c0,0.6,0,1.1,0.1,1.7H5z"/>
		<path class="st0" d="M22.1,5.6c0.8,0,1.5,0.7,1.5,1.5v9.6c-3.6,1.1-5.9,4.5-5.9,8.9c0,0.3,0,0.7,0,1H5c-0.8,0-1.5-0.7-1.5-1.5V7.1
			c0-0.8,0.7-1.5,1.5-1.5H22.1 M22.1,4.2H5C3.3,4.2,2,5.5,2,7.1v18.1c0,1.6,1.3,2.9,2.9,2.9h14.5c-0.2-0.8-0.3-1.6-0.3-2.4
			c0-4,2.1-7.3,5.9-7.7V7.1C25,5.5,23.7,4.2,22.1,4.2L22.1,4.2z"/>
	</g>
</g>
<g id="Shape_1">
	<g id="Shape_1-2">
		<path class="st2" d="M16.8,9.7c-1.3-0.4-2.7-0.7-4-0.6c-1.4,0-2.7,0.2-4,0.6c-1.2,0.5-1.8,1.1-1.8,1.8v7.8c0,0.7,0.7,1.4,1.8,1.8
			c1.3,0.4,2.7,0.7,4,0.6c1.4,0,2.7-0.2,4-0.6c1.2-0.5,1.8-1.1,1.8-1.8v-7.8C18.6,10.8,18,10.1,16.8,9.7z M17.9,19.3
			c0,0.4-0.5,0.8-1.4,1.2c-1.2,0.4-2.5,0.6-3.8,0.6c-1.3,0-2.6-0.2-3.8-0.6c-0.9-0.3-1.4-0.8-1.4-1.2v-1.3c0.3,0.3,0.7,0.5,1.1,0.6
			c1.3,0.4,2.7,0.7,4,0.6c1.4,0,2.7-0.2,4-0.6c0.4-0.1,0.8-0.4,1.1-0.6L17.9,19.3L17.9,19.3z M17.9,16.8c0,0.4-0.5,0.8-1.4,1.2
			c-1.2,0.4-2.5,0.6-3.8,0.6c-1.3,0-2.6-0.2-3.8-0.6c-0.9-0.3-1.4-0.8-1.4-1.2v-1.4C8,15.6,8.3,15.8,8.8,16c1.3,0.4,2.7,0.7,4,0.6
			c1.4,0,2.7-0.2,4-0.6c0.4-0.1,0.8-0.4,1.1-0.6L17.9,16.8L17.9,16.8z M17.9,14.2c0,0.4-0.5,0.8-1.4,1.2c-1.2,0.4-2.5,0.6-3.8,0.6
			c-1.3,0-2.6-0.2-3.8-0.6c-0.9-0.3-1.4-0.8-1.4-1.2v-1.4C8,13,8.3,13.2,8.8,13.3c1.3,0.5,2.7,0.7,4,0.7c1.4,0,2.7-0.2,4-0.6
			c0.4-0.1,0.8-0.4,1.1-0.6L17.9,14.2L17.9,14.2z M16.5,12.7c-1.2,0.4-2.5,0.6-3.8,0.6c-1.3,0-2.6-0.2-3.8-0.6
			c-0.9-0.3-1.4-0.8-1.4-1.2c0-0.4,0.5-0.8,1.4-1.2c1.2-0.4,2.5-0.6,3.8-0.6c1.3,0,2.6,0.2,3.8,0.6c0.9,0.3,1.4,0.8,1.4,1.2
			C17.9,11.9,17.4,12.3,16.5,12.7L16.5,12.7z"/>
	</g>
</g>
</svg>
