<?xml version="1.0" encoding="utf-8"?>
<!-- Generator: Adobe Illustrator 19.2.1, SVG Export Plug-In . SVG Version: 6.00 Build 0)  -->
<svg version="1.1" id="Layer_1" xmlns="http://www.w3.org/2000/svg" xmlns:xlink="http://www.w3.org/1999/xlink" x="0px" y="0px"
	 viewBox="0 0 32 32" style="enable-background:new 0 0 32 32;" xml:space="preserve">
<style type="text/css">
	.st0{fill:#7AC143;}
</style>
<path class="st0" d="M26.9,14.1h-9v-9c0-1.2-1.2-1.9-1.9-1.9c-1.2,0-1.9,1.2-1.9,1.9v9.1h-9c-1.2,0-1.9,1.2-1.9,1.9
	c0,1.2,1.2,1.9,1.9,1.9h9.1v9.1c0,1.2,1.2,1.9,1.9,1.9c1.2,0,1.9-1.2,1.9-1.9v-9.2h9.1c1.2,0,1.9-1.2,1.9-1.9
	C28.8,14.9,27.7,14.1,26.9,14.1z"/>
</svg>
