<svg xmlns="http://www.w3.org/2000/svg" viewBox="0 0 16 16"><defs><style>.cls-1{isolation:isolate;}.cls-2{fill:#1699dd;}.cls-3{fill:#fff;fill-rule:evenodd;}</style></defs><title>icon-filter</title><g id="Rounded_Rectangle_1" data-name="Rounded Rectangle 1" class="cls-1"><g id="Rounded_Rectangle_1-2" data-name="Rounded Rectangle 1"><rect class="cls-2" width="16" height="16" rx="3" ry="3"/></g></g><g id="Rectangle_1" data-name="Rectangle 1" class="cls-1"><g id="Rectangle_1-2" data-name="Rectangle 1"><path class="cls-3" d="M13,5H9a2.75,2.75,0,1,0-.09,1H13V5ZM6.25,6.9A1.65,1.65,0,1,1,7.9,5.25,1.65,1.65,0,0,1,6.25,6.9Z"/></g></g><g id="Rectangle_1_copy" data-name="Rectangle 1 copy" class="cls-1"><g id="Rectangle_1_copy-2" data-name="Rectangle 1 copy"><path class="cls-3" d="M10.25,8a2.74,2.74,0,0,0-2.63,2H3.5v1h4A2.74,2.74,0,1,0,10.25,8Zm0,4.4a1.65,1.65,0,1,1,1.65-1.65A1.65,1.65,0,0,1,10.25,12.4Z"/></g></g></svg>