<?xml version="1.0" encoding="utf-8"?>
<!-- Generator: Adobe Illustrator 19.2.1, SVG Export Plug-In . SVG Version: 6.00 Build 0)  -->
<svg version="1.1" id="Layer_1" xmlns="http://www.w3.org/2000/svg" xmlns:xlink="http://www.w3.org/1999/xlink" x="0px" y="0px"
	 viewBox="0 0 32 32" style="enable-background:new 0 0 32 32;" xml:space="preserve">
<style type="text/css">
	.st0{fill:#7AC143;}
	.st1{fill:#F68E1E;}
	.st2{fill:#009DDC;}
</style>
<g id="Forma_1_14_">
	<g>
		<path class="st0" d="M29.7,26H14c-0.5-1.7-2.1-3.1-3.8-3.1S6.9,24.1,6.4,26h-5c-0.5,0-1,0.2-1,1c0,0.7,0.5,1,1,1h5
			c0.5,1.7,2.1,3.1,3.8,3.1s3.3-1.2,3.8-3.1H30c0.5,0,1-0.2,1-1C30.7,26.3,30.2,26,29.7,26z M10.2,28.9c-1.2,0-2.1-1.2-2.1-2.1
			c0-1.2,1.2-2.1,2.1-2.1c1.2,0,2.1,1.2,2.1,2.1C12.6,27.9,11.4,28.9,10.2,28.9z"/>
	</g>
</g>
<g id="Forma_1_copy_3">
	<g>
		<path class="st1" d="M29.7,15.6h-6.2c-0.5-1.7-1.9-3.1-3.8-3.1c-1.7,0-3.3,1.2-3.8,3.1H1.4c-0.5,0-1,0.2-1,1c0,0.5,0.5,1,1,1h14.5
			c0.5,1.7,1.9,3.1,3.8,3.1c1.7,0,3.3-1.2,3.8-3.1H30c0.5,0,1-0.2,1-1C30.7,15.6,30.2,15.6,29.7,15.6z M19.7,18.4
			c-1.2,0-2.1-1.2-2.1-2.1c0-1.2,1.2-2.1,2.1-2.1s2.1,1.2,2.1,2.1C21.9,17.5,20.9,18.4,19.7,18.4z"/>
	</g>
</g>
<g id="Forma_1_copy_4">
	<g>
		<path class="st2" d="M29.7,4.7H14c-0.5-1.7-2.1-3.1-3.8-3.1S6.9,2.8,6.4,4.7h-5c-0.5,0-1,0.2-1,1c0,0.5,0.5,0.7,1,0.7h5
			C6.9,8,8.6,9.4,10.2,9.4s3.3-1.7,3.8-3.1H30c0.5,0,1-0.2,1-0.7C30.9,5.1,30.2,4.7,29.7,4.7z M10.2,7.7C9,7.7,8.1,6.6,8.1,5.6
			c0-1.2,1.2-2.1,2.1-2.1c1.2,0,2.1,1.2,2.1,2.1S11.4,7.7,10.2,7.7z"/>
	</g>
</g>
</svg>
