<?xml version="1.0" encoding="utf-8"?>
<!-- Generator: Adobe Illustrator 19.2.1, SVG Export Plug-In . SVG Version: 6.00 Build 0)  -->
<svg version="1.1" id="Layer_1" xmlns="http://www.w3.org/2000/svg" xmlns:xlink="http://www.w3.org/1999/xlink" x="0px" y="0px"
	 viewBox="0 0 24 24" style="enable-background:new 0 0 24 24;" xml:space="preserve">
<style type="text/css">
	.st0{fill:#5A2479;}
	.st1{fill:#8034AD;}
</style>
<g>
	<polygon class="st0" points="12,1.4 12,3.1 20.9,3.1 20.9,20.9 12,20.9 12,22.6 22.6,22.6 22.6,1.4 	"/>
	<polygon class="st1" points="3.1,20.9 3.1,3.1 12,3.1 12,1.4 1.4,1.4 1.4,22.6 12,22.6 12,20.9 	"/>
	<path class="st1" d="M17,14.5l0.8,0.1l0.9-3.7c-0.2,0-1.6-0.1-1.8-0.2L17,14.5z"/>
	<path class="st1" d="M10.5,13c0,0.3,0.1,2.1,0,2.3c-0.3,0.3-1.5,0.2-1.7,0.2l-0.1,0.6c0.5,0,2.2,0,2.8,0c1,0,2.9,0,3.1,0l0-0.6
		c-0.3,0-1.7,0-1.9,0c0-0.3-0.1-2.2,0-2.4c0.2-0.6,3.2-2.9,3.6-3c0.1,0,0.2,0,0.3-0.1h1l0.2-0.2c0,0,0,0,0,0L18,9.1c0,0,0,0,0,0
		L18,9h-5.3l0.2,0.8h1.4l-2.4,2.2c-0.5-0.7-1.7-2.1-2.5-3.3h1.8V8.1l0-0.1c0,0,0,0,0,0V7.9h-6v0.8H7C7.7,9.3,10.4,12.6,10.5,13z"/>
	<polygon class="st1" points="16.9,15.1 16.9,16 17.3,16 17.7,16.1 17.9,15.2 17.4,15.2 	"/>
</g>
</svg>
