<?xml version="1.0" encoding="utf-8"?>
<!-- Generator: Adobe Illustrator 19.2.1, SVG Export Plug-In . SVG Version: 6.00 Build 0)  -->
<svg version="1.1" id="A" xmlns="http://www.w3.org/2000/svg" xmlns:xlink="http://www.w3.org/1999/xlink" x="0px" y="0px"
	 viewBox="0 0 12.2 11.7" style="enable-background:new 0 0 12.2 11.7;" xml:space="preserve">
<style type="text/css">
	.st0{fill:#807F7F;}
	.st1{fill:none;}
	.st2{font-family:'ProximaNova-Bold';}
	.st3{font-size:7px;}
</style>
<title>icon-sort-type</title>
<g id="Forma_1_copy_2">
	<g id="Forma_1_copy_2-2">
		<path class="st0" d="M5.3,8.5L5,8.2c-0.1-0.1-0.4-0.1-0.5,0L3.2,9.5V1.2c0-0.2-0.2-0.4-0.4-0.4H2.5C2.3,0.8,2.1,1,2.1,1.2v0v8.2
			L0.9,8.2c-0.1-0.1-0.4-0.1-0.5,0L0.1,8.5C0,8.6,0,8.8,0.1,9l2.3,2.3c0.1,0.1,0.4,0.1,0.5,0L5.3,9C5.4,8.8,5.4,8.6,5.3,8.5z"/>
	</g>
</g>
<g id="Rectangle_2">
	<g id="Rectangle_2-2">
		<rect x="2.2" y="0.2" class="st0" width="4.5" height="1"/>
	</g>
</g>
<rect x="7.9" y="-1" class="st1" width="2.9" height="8.2"/>
<text transform="matrix(1 0 0 1 7.915 4.8311)" class="st0 st2 st3">1</text>
<rect x="8" y="5.5" class="st1" width="4.3" height="8.2"/>
<text transform="matrix(1 0 0 1 7.9541 11.2946)" class="st0 st2 st3">9</text>
</svg>
