<?xml version="1.0" encoding="utf-8"?>
<!-- Generator: Adobe Illustrator 19.2.1, SVG Export Plug-In . SVG Version: 6.00 Build 0)  -->
<svg version="1.1" xmlns="http://www.w3.org/2000/svg" xmlns:xlink="http://www.w3.org/1999/xlink" x="0px" y="0px"
	 viewBox="0 0 32 32" style="enable-background:new 0 0 32 32;" xml:space="preserve">
<style type="text/css">
	.st0{enable-background:new    ;}
	.st1{fill-rule:evenodd;clip-rule:evenodd;fill:#8EC449;}
	.st2{fill-rule:evenodd;clip-rule:evenodd;fill:#FFFFFF;}
</style>
<g id="Ellipse_1_1_" class="st0">
	<g id="Ellipse_1">
		<g>
			<ellipse class="st1" cx="15.8" cy="16" rx="15.8" ry="15.8"/>
		</g>
	</g>
</g>
<g id="admin_1_" class="st0">
	<g id="admin">
		<g>
			<path class="st2" d="M32,11.6C30.4,6,26,1.6,20.4,0h-9.3C6,1.5,1.9,5.2,0,10.1v12.2c0.9,2.4,2.4,4.6,4.3,6.4l0,0l0.5,0.5
				c0,0,0.1,0.1,0.1,0.1c0.3,0.2,0.6,0.5,0.9,0.7C6,30,6.1,30.1,6.2,30.2c0.3,0.2,0.7,0.4,1,0.6c0.1,0,0.2,0.1,0.2,0.1
				c0.4,0.2,0.8,0.4,1.2,0.6c0,0,0.1,0,0.1,0c0.3,0.1,0.6,0.3,1,0.4h12.3c0.3-0.1,0.6-0.2,0.9-0.4c0,0,0.1,0,0.1-0.1
				c0.4-0.2,0.8-0.4,1.1-0.6c0.1-0.1,0.2-0.1,0.3-0.2c0.3-0.2,0.7-0.4,1-0.6c0.1-0.1,0.2-0.2,0.3-0.2c0.3-0.2,0.5-0.4,0.8-0.6
				c0.1,0,0.1-0.1,0.2-0.1l0.6-0.5l0,0c2.3-2.1,4-4.8,4.9-7.9V11.6z M24.9,28.9c-0.2,0.2-0.4,0.3-0.7,0.5c-0.1,0.1-0.2,0.1-0.3,0.2
				c-0.3,0.2-0.6,0.4-0.9,0.5c-0.1,0-0.1,0.1-0.2,0.1c-0.7,0.4-1.4,0.7-2.1,0.9c0,0-0.1,0-0.1,0c-0.4,0.1-0.8,0.2-1.2,0.3
				c0,0,0,0,0,0c-0.4,0.1-0.8,0.2-1.2,0.2c0,0,0,0,0,0c-0.4,0.1-0.8,0.1-1.2,0.1c-0.1,0-0.1,0-0.2,0c-0.4,0-0.8,0-1.2,0
				c-0.4,0-0.8,0-1.2,0c-0.1,0-0.1,0-0.2,0c-0.4,0-0.8-0.1-1.2-0.1c0,0,0,0-0.1,0c-0.8-0.1-1.6-0.3-2.4-0.6c0,0,0,0-0.1,0
				c-0.4-0.1-0.8-0.3-1.1-0.4c0,0,0,0,0,0c-0.4-0.2-0.7-0.3-1-0.5c0,0-0.1,0-0.1-0.1c-0.3-0.2-0.6-0.3-0.9-0.5
				c-0.1-0.1-0.2-0.1-0.3-0.2c-0.3-0.2-0.6-0.4-0.8-0.6c0,0-0.1,0-0.1-0.1c0,0,0,0,0.1,0l4.9-2.7c0.8-0.5,1.4-1.3,1.4-2.3l0-2.2
				l-0.1-0.2c0,0-1.3-1.6-1.8-3.8l-0.1-0.2l-0.2-0.1C10,17,9.8,16.7,9.8,16.3v-2.2c0-0.3,0.1-0.6,0.3-0.8l0.2-0.2V9.8l0-0.1
				c0,0-0.2-1.5,0.9-2.7c0.9-1,2.4-1.5,4.5-1.5c2.1,0,3.6,0.5,4.5,1.5c1,1.2,0.9,2.7,0.9,2.7l0,3.5l0.2,0.2c0.2,0.2,0.3,0.5,0.3,0.8
				v2.2c0,0.4-0.3,0.8-0.7,1l-0.3,0.1l-0.1,0.3c-0.4,1.1-0.9,2.2-1.5,3.1c-0.2,0.2-0.3,0.4-0.5,0.6l-0.2,0.2v2.3
				c0,1,0.6,1.9,1.4,2.3l5.2,2.6c0,0,0.1,0,0.1,0.1C25.1,28.8,25,28.9,24.9,28.9z M26.1,28c-0.2-0.1-0.4-0.2-0.5-0.3L20.4,25
				c-0.5-0.2-0.8-0.7-0.8-1.2V22c0.1-0.1,0.2-0.3,0.4-0.5c0.7-1,1.2-2,1.6-3.2c0.8-0.4,1.3-1.1,1.3-2v-2.2c0-0.5-0.2-1.1-0.5-1.5
				V9.8c0-0.3,0.1-2.1-1.2-3.6c-1.1-1.3-3-1.9-5.5-1.9c-2.5,0-4.3,0.7-5.5,1.9C9,7.7,9.1,9.5,9.1,9.8v2.9c-0.3,0.4-0.5,0.9-0.5,1.5
				v2.2c0,0.7,0.3,1.3,0.8,1.7c0.5,2,1.5,3.4,1.9,3.9v1.8c0,0.5-0.3,1-0.7,1.2l-4.9,2.7c-0.2,0.1-0.3,0.2-0.5,0.3
				c-3.2-2.9-5.2-7-5.2-11.7c0-8.6,7-15.7,15.7-15.7c8.6,0,15.7,7,15.7,15.7C31.4,20.9,29.4,25.1,26.1,28z"/>
		</g>
	</g>
</g>
</svg>
