<?xml version="1.0" encoding="utf-8"?>
<!-- Generator: Adobe Illustrator 19.2.1, SVG Export Plug-In . SVG Version: 6.00 Build 0)  -->
<svg version="1.1" id="Layer_1" xmlns="http://www.w3.org/2000/svg" xmlns:xlink="http://www.w3.org/1999/xlink" x="0px" y="0px"
	 viewBox="0 0 32 32" style="enable-background:new 0 0 32 32;" xml:space="preserve">
<style type="text/css">
	.st0{fill:#B3B3B3;}
</style>
<title>custom-data-adapter-inactive</title>
<g id="Forma_1">
	<g id="Forma_1-2">
		<path class="st0" d="M30.7,1c-0.5-0.5-1.2-0.5-1.7,0l0,0l-2.5,2.5c-2.5-1.6-5.8-1.4-8.1,0.7l-3.6,3.6c-0.5,0.5-0.5,1.2,0,1.7l0,0
			l7.2,7.2c0.5,0.5,1.2,0.5,1.7,0l0,0l3.6-3.6c2.1-2.1,2.5-5.6,0.7-8.1l2.5-2.5C31.2,2.2,31.1,1.5,30.7,1z M25.6,11.5l-2.7,2.7
			l-5.5-5.5l2.7-2.7c1.5-1.5,4-1.5,5.5,0C27.1,7.6,27.1,9.9,25.6,11.5L25.6,11.5z"/>
	</g>
</g>
<g id="Forma_1_copy">
	<g id="Forma_1_copy-2">
		<path class="st0" d="M18.6,16.9c-0.5-0.5-1.2-0.5-1.7,0l0,0l0,0l-2.5,2.4l-2-2l2.4-2.4c0.5-0.5,0.5-1.2,0-1.7s-1.2-0.5-1.7,0
			l-2.2,2.4l-0.9-0.9c-0.5-0.5-1.2-0.5-1.7,0l0,0l-3.6,3.6c-2.1,2.1-2.5,5.6-0.9,8.1l-2.5,2.5c-0.4,0.6-0.2,1.4,0.2,1.7
			c0.5,0.2,1,0.2,1.5,0l2.5-2.5c2.5,1.6,5.8,1.4,8.1-0.7l3.6-3.6c0.5-0.5,0.5-1.2,0-1.7l0,0l-0.9-0.9l2.4-2.4
			C19,18.3,19,17.5,18.6,16.9L18.6,16.9z M11.7,25.5c-1.6,1.5-4,1.4-5.5-0.2c-1.4-1.5-1.4-3.7,0-5.2l0,0L9,17.3l5.5,5.5L11.7,25.5z"
			/>
	</g>
</g>
</svg>
