<?xml version="1.0" encoding="utf-8"?>
<!-- Generator: Adobe Illustrator 19.2.1, SVG Export Plug-In . SVG Version: 6.00 Build 0)  -->
<svg version="1.1" id="Layer_1" xmlns="http://www.w3.org/2000/svg" xmlns:xlink="http://www.w3.org/1999/xlink" x="0px" y="0px"
	 viewBox="0 0 32 32" style="enable-background:new 0 0 32 32;" xml:space="preserve">
<style type="text/css">
	.st0{fill-rule:evenodd;clip-rule:evenodd;fill:#8FC541;}
	.st1{fill-rule:evenodd;clip-rule:evenodd;fill:#F26922;}
</style>
<g id="Rounded_Rectangle_1_copy_2">
	<g>
		<path class="st0" d="M16.7,1.3c-2,0-3.9,0.4-5.6,1.1l0.2,0.3c-0.1,0.2-0.2,0.4-0.2,0.7c0,0.7,0.6,1.3,1.3,1.3
			c0.2,0,0.4-0.1,0.6-0.2c1.2-0.4,2.4-0.6,3.7-0.6c7,0,12.6,5.6,12.6,12.6S23.6,29,16.7,29c-7,0-12.6-5.6-12.6-12.6
			c0-3.1,1.1-5.9,2.9-8l0.6,3.8c0.1,0.6,0.7,1.1,1.3,1c0.6-0.1,1.1-0.7,1-1.3l-1-6.2C8.9,5.3,8.7,5,8.4,4.8c-0.2-0.3-0.6-0.5-1-0.4
			L1.2,5c-0.6,0.1-1.1,0.6-1,1.3c0.1,0.6,0.6,1.1,1.3,1L4.9,7c-2.1,2.6-3.4,5.9-3.4,9.5c0,8.4,6.8,15.2,15.2,15.2
			c8.4,0,15.2-6.8,15.2-15.2S25.1,1.3,16.7,1.3z"/>
	</g>
</g>
<g id="Rounded_Rectangle_1_copy_3">
	<g>
		<path class="st1" d="M16.5,10.3c-3.4,0-6.1,2.7-6.1,6.1c0,3.4,2.7,6.1,6.1,6.1c3.4,0,6.1-2.7,6.1-6.1C22.6,13,19.9,10.3,16.5,10.3
			z M16.5,20.5c-2.3,0-4.1-1.8-4.1-4.1c0-2.3,1.8-4.1,4.1-4.1s4.1,1.8,4.1,4.1C20.6,18.7,18.8,20.5,16.5,20.5z"/>
	</g>
</g>
</svg>
