<?xml version="1.0" encoding="utf-8"?>
<!-- Generator: Adobe Illustrator 19.2.1, SVG Export Plug-In . SVG Version: 6.00 Build 0)  -->
<svg version="1.1" id="Layer_1" xmlns="http://www.w3.org/2000/svg" xmlns:xlink="http://www.w3.org/1999/xlink" x="0px" y="0px"
	 viewBox="0 0 32 32" style="enable-background:new 0 0 32 32;" xml:space="preserve">
<style type="text/css">
	.st0{fill:#B4B4B5;}
</style>
<title>icon-apple</title>
<g id="Forma_1">
	<path class="st0" d="M24.1,16.9c0-2.3,1.2-4.5,3.2-5.7c-1.2-1.8-3.3-2.9-5.4-3c-2.3-0.2-4.5,1.4-5.7,1.4s-3-1.3-4.9-1.3
		c-2.5,0.1-4.9,1.5-6.1,3.7c-2.6,4.6-0.7,11.3,1.9,15c1.2,1.8,2.7,3.8,4.7,3.8s2.6-1.2,4.9-1.2s2.9,1.2,4.9,1.2s3.3-1.8,4.5-3.7
		c0.9-1.3,1.6-2.7,2.1-4.2C25.7,21.9,24.1,19.6,24.1,16.9z M20.4,5.9c1.1-1.3,1.7-3,1.5-4.8c-1.7,0.2-3.3,1-4.4,2.3
		C16.4,4.6,15.8,6.3,16,8C17.7,8,19.3,7.2,20.4,5.9z"/>
</g>
</svg>
