<?xml version="1.0" encoding="utf-8"?>
<!-- Generator: Adobe Illustrator 19.2.1, SVG Export Plug-In . SVG Version: 6.00 Build 0)  -->
<svg version="1.1" id="Layer_1" xmlns="http://www.w3.org/2000/svg" xmlns:xlink="http://www.w3.org/1999/xlink" x="0px" y="0px"
	 viewBox="0 0 32 32" style="enable-background:new 0 0 32 32;" xml:space="preserve">
<style type="text/css">
	.st0{enable-background:new    ;}
	.st1{fill:#6D9A00;}
	.st2{fill:#FFFFFF;}
</style>
<g id="Ellipse_1_1_" class="st0">
</g>
<g id="Ellipse_2_1_" class="st0">
	<g>
		<g id="Ellipse_1">
			<g>
				<circle class="st1" cx="16" cy="16" r="13.2"/>
			</g>
		</g>
		<g id="Ellipse_2">
			<g>
				<path class="st2" d="M23.7,13.4v-2.9c0,0-0.4-2.2-1.9-2.2h-1.7v1.7h1c0,0,0.7,0,0.7,1s0,4.8,1.6,5.2c0,0-1.4,0.7-1.4,2.7
					s0,2.4,0,2.4s-0.2,1.1-0.7,1.1l0,0c-0.6,0-1,0-1,0v1.6h1.7c0,0,1.5-0.2,1.7-2.4V19c0,0,0.1-2.1,1.9-1.9v-2
					C25.4,15.1,23.7,15.3,23.7,13.4z M11,22.3c-0.6,0-0.7-1.1-0.7-1.1s0-0.5,0-2.4s-1.4-2.7-1.4-2.7c1.6-0.2,1.6-4.2,1.6-5.2
					s0.7-1,0.7-1h1V8.3h-1.7c-1.6-0.1-1.9,2.2-1.9,2.2v2.9c0,1.9-1.7,1.7-1.7,1.7v2C8.6,16.9,8.7,19,8.7,19v2.4
					c0.2,2.2,1.7,2.4,1.7,2.4h1.7v-1.6C12,22.3,11.6,22.3,11,22.3L11,22.3z M12.3,14.9c-0.6,0-1.1,0.5-1.1,1.1s0.5,1.1,1.1,1.1
					s1.1-0.5,1.1-1.1C13.4,15.4,12.9,14.9,12.3,14.9z M16.1,14.9c-0.6,0-1.1,0.5-1.1,1.1s0.5,1.1,1.1,1.1s1.1-0.5,1.1-1.1
					S16.7,14.9,16.1,14.9z M21,16.1c0-0.6-0.5-1.1-1.1-1.1c-0.6,0-1.1,0.5-1.1,1.1s0.5,1.1,1.1,1.1C20.5,17.2,21,16.7,21,16.1z"/>
			</g>
		</g>
	</g>
</g>
</svg>
