<?xml version="1.0" encoding="utf-8"?>
<!-- Generator: Adobe Illustrator 19.2.1, SVG Export Plug-In . SVG Version: 6.00 Build 0)  -->
<svg version="1.1" id="Shape_1_1_" xmlns="http://www.w3.org/2000/svg" xmlns:xlink="http://www.w3.org/1999/xlink" x="0px" y="0px"
	 viewBox="0 0 32 32" style="enable-background:new 0 0 32 32;" xml:space="preserve">
<style type="text/css">
	.st0{fill-rule:evenodd;clip-rule:evenodd;fill:#9E9E9E;}
</style>
<g>
	<g id="Shape_1">
		<g>
			<path class="st0" d="M30.8,7.5c0-0.1,0-0.2-0.1-0.4c-0.1-0.2-0.3-0.4-0.5-0.4L16.3,0c-0.2-0.1-0.5-0.1-0.7,0L1.7,6.8
				C1.4,6.9,1.2,7.2,1.2,7.5v0c0,0,0,0,0,0v17c0,0.3,0.2,0.6,0.5,0.7L15.6,32c0,0,0,0,0,0c0,0,0,0,0.1,0c0,0,0,0,0,0c0,0,0,0,0.1,0
				c0,0,0,0,0,0c0,0,0,0,0.1,0c0,0,0,0,0,0c0,0,0.1,0,0.1,0c0,0,0.1,0,0.1,0c0,0,0,0,0,0c0,0,0,0,0.1,0c0,0,0,0,0,0c0,0,0,0,0.1,0
				c0,0,0,0,0,0c0,0,0,0,0.1,0c0,0,0,0,0,0l14-6.8c0.3-0.1,0.5-0.4,0.5-0.7L30.8,7.5C30.8,7.5,30.8,7.5,30.8,7.5z M16,1.7l12.1,5.9
				l-4.5,2.2L11.5,3.8L16,1.7z M15.2,29.9L2.8,24V8.8l12.3,6V29.9z M16,13.4L3.9,7.5l5.8-2.8l12.1,5.9L16,13.4z M29.1,23.9l-12.4,6
				V14.8l5.8-2.8v4c0,0.4,0.4,0.8,0.8,0.8c0.4,0,0.8-0.4,0.8-0.8v-4.8l4.9-2.4V23.9z"/>
		</g>
	</g>
</g>
</svg>
