<?xml version="1.0" encoding="utf-8"?>
<!-- Generator: Adobe Illustrator 19.2.1, SVG Export Plug-In . SVG Version: 6.00 Build 0)  -->
<svg version="1.1" xmlns="http://www.w3.org/2000/svg" xmlns:xlink="http://www.w3.org/1999/xlink" x="0px" y="0px"
	 viewBox="0 0 32 32" style="enable-background:new 0 0 32 32;" xml:space="preserve">
<style type="text/css">
	.st0{fill:#84C434;}
	.st1{fill:none;}
	.st2{fill:#FC8F19;}
</style>
<g id="Layer_1">
</g>
<g id="Layer_2">
	<g>
		<path class="st0" d="M2.1,21.5c1.4,3.8,4.3,6.9,8,8.5c3.6,1.6,7.6,1.7,11.3,0.2c7.7-3,11.5-11.8,8.6-19.7L28.7,11
			c2.7,7.2-0.8,15.3-7.8,18c-3.4,1.3-7,1.2-10.3-0.2c-3.4-1.5-6-4.3-7.3-7.8C0.6,13.9,4.1,5.8,11.1,3C16,1.1,21.6,2.3,25.4,5.9h-4.2
			v1.3h6.4l0-6.5h-1.3v4.2C23.4,2.2,19.7,0.8,16,0.8c-1.8,0-3.6,0.3-5.4,1C2.9,4.8-0.9,13.7,2.1,21.5L2.1,21.5z"/>
	</g>
	<g>
		<path class="st1" d="M19.8,7.2c-1.2-0.5-2.4-0.8-3.8-0.8c-5.3,0-9.6,4.3-9.6,9.6s4.3,9.6,9.6,9.6c5.3,0,9.5-4.3,9.6-9.6
			c0-2.9-1.3-5.5-3.3-7.2h-2.5V7.2z M20.7,12.3c0.1,0.1,0.1,0.1,0.1,0.2s0,0.2-0.1,0.2l-0.8,0.8c0.3,0.4,0.5,1,0.6,1.5h0.9v0
			c0.2,0,0.3,0.1,0.3,0.3v1.4c0,0.2-0.1,0.3-0.3,0.3h-0.9c-0.1,0.5-0.3,1-0.6,1.4l0.7,0.7c0.1,0.1,0.1,0.1,0.1,0.2
			c0,0.1,0,0.2-0.1,0.2l-1,1c-0.1,0.1-0.1,0.1-0.2,0.1c-0.1,0-0.2,0-0.2-0.1l-0.6-0.6c-0.5,0.3-1,0.5-1.5,0.7v0.8
			c0,0.1-0.1,0.3-0.3,0.3h-1.5c-0.1,0-0.3-0.1-0.3-0.3l0-0.8c-0.6-0.1-1.1-0.4-1.6-0.7l-0.7,0.7c-0.1,0.1-0.1,0.1-0.2,0.1
			c-0.1,0-0.2,0-0.2-0.1l-1-1c-0.1-0.1-0.1-0.1-0.1-0.2c0-0.1,0-0.2,0.1-0.2l0.8-0.8c-0.3-0.4-0.5-0.9-0.6-1.4h-0.9
			c-0.1,0-0.3-0.1-0.3-0.3v-1.5c0-0.1,0.1-0.3,0.3-0.3h0.9c0.1-0.6,0.4-1.1,0.7-1.6l-0.8-0.8c-0.1-0.1-0.1-0.1-0.1-0.2
			c0-0.1,0-0.2,0.1-0.2l1-1c0.1-0.1,0.3-0.1,0.4,0l0.8,0.8c0.4-0.3,0.9-0.5,1.5-0.6v-1c0-0.1,0.1-0.3,0.3-0.3h1.5
			c0.1,0,0.3,0.1,0.3,0.3v1c0.5,0.1,1,0.3,1.4,0.6l0.8-0.8c0.1-0.1,0.3-0.1,0.4,0L20.7,12.3z"/>
		<path class="st1" d="M16,13.1c-1.6,0-2.9,1.3-2.9,2.9s1.3,2.9,2.9,2.9s2.9-1.3,2.9-2.9S17.6,13.1,16,13.1z"/>
		<path class="st2" d="M24.9,8.8h-2.7c2,1.8,3.3,4.3,3.3,7.2c0,5.3-4.3,9.6-9.6,9.6c-5.3,0-9.6-4.3-9.6-9.6s4.3-9.6,9.6-9.6
			c1.3,0,2.6,0.3,3.8,0.8V5.2c-1.2-0.4-2.5-0.7-3.8-0.7C9.7,4.5,4.5,9.7,4.5,16c0,6.3,5.2,11.5,11.5,11.5c6.4,0,11.5-5.1,11.5-11.5
			C27.5,13.3,26.5,10.8,24.9,8.8z"/>
		<path class="st2" d="M19.3,11.3L18.5,12c-0.4-0.3-0.9-0.5-1.4-0.6v-1c0-0.2-0.1-0.3-0.3-0.3h-1.5c-0.2,0-0.3,0.1-0.3,0.3v1
			c-0.5,0.1-1,0.3-1.5,0.6l-0.8-0.8c-0.1-0.1-0.3-0.1-0.4,0l-1,1c0,0-0.1,0.1-0.1,0.2c0,0.1,0,0.1,0.1,0.2l0.8,0.8
			c-0.3,0.5-0.5,1-0.7,1.6h-0.9c-0.2,0-0.3,0.1-0.3,0.3v1.5c0,0.2,0.1,0.3,0.3,0.3h0.9c0.1,0.5,0.3,1,0.6,1.4l-0.8,0.8
			c0,0-0.1,0.1-0.1,0.2c0,0.1,0,0.1,0.1,0.2l1,1c0,0,0.1,0.1,0.2,0.1c0.1,0,0.1,0,0.2-0.1l0.7-0.7c0.5,0.3,1,0.5,1.6,0.7l0,0.8
			c0,0.2,0.1,0.3,0.3,0.3h1.5c0.2,0,0.3-0.1,0.3-0.3v-0.8c0.5-0.1,1.1-0.4,1.5-0.7l0.6,0.6c0,0,0.1,0.1,0.2,0.1c0.1,0,0.1,0,0.2-0.1
			l1-1c0,0,0.1-0.1,0.1-0.2c0-0.1,0-0.1-0.1-0.2L20,18.4c0.3-0.4,0.5-0.9,0.6-1.4h0.9c0.2,0,0.3-0.1,0.3-0.3v-1.4
			c0-0.2-0.1-0.3-0.3-0.3v0h-0.9c-0.1-0.6-0.4-1.1-0.6-1.5l0.8-0.8c0,0,0.1-0.1,0.1-0.2s0-0.1-0.1-0.2l-1-1
			C19.5,11.1,19.3,11.1,19.3,11.3z M16,18.9c-1.6,0-2.9-1.3-2.9-2.9s1.3-2.9,2.9-2.9c1.6,0,2.9,1.3,2.9,2.9S17.6,18.9,16,18.9z"/>
	</g>
</g>
</svg>
