<svg id="Background_Image" data-name="Background Image" xmlns="http://www.w3.org/2000/svg" viewBox="0 0 29.17 21.02"><defs><style>.cls-1{fill:#2d7ca9;}</style></defs><title>icon-support</title><g id="Forma_1" data-name="Forma 1"><g id="Forma_1-2" data-name="Forma 1-2"><path class="cls-1" d="M19.31,19.78H4V7.33H24.19v3h0.58a6.62,6.62,0,0,1,1.55.17V6.17a0.66,0.66,0,0,0-.66-0.66H2.57a0.66,0.66,0,0,0-.66.66V20.94a0.66,0.66,0,0,0,.66.66h8.16a16.08,16.08,0,0,1-1.18,4,0.66,0.66,0,0,0,.6.93h7.4a1.32,1.32,0,0,1,0-.62c0.12-.74.27-1.55,0.45-2.35a17.26,17.26,0,0,1-.44-1.92h1A6.76,6.76,0,0,1,19.31,19.78Zm1-8.34a1.11,1.11,0,1,0-1.08-.93l-5,3.89a1.09,1.09,0,0,0-1,.07L8.83,12h0a1.1,1.1,0,1,0-.53.94l4.36,2.5h0a1.1,1.1,0,0,0,2.2,0,1.08,1.08,0,0,0,0-.17l5.07-3.88a1.09,1.09,0,0,0,.41.06h0Zm9.1,8.91A11.25,11.25,0,0,0,27,18.7a0.23,0.23,0,0,0-.25,0,3,3,0,0,1-1.22.59,0.23,0.23,0,0,0-.17.14l-0.44,1.16-0.44-1.16a0.23,0.23,0,0,0-.17-0.14,3,3,0,0,1-1.22-.59,0.23,0.23,0,0,0-.25,0,11.27,11.27,0,0,0-2.47,1.66C19.54,21.44,19,24.67,18.73,26a0.23,0.23,0,0,0,.19.27H30.85A0.31,0.31,0,0,0,31.08,26c-0.21-1.33-.8-4.56-1.63-5.64h0ZM21.59,14.1a2.07,2.07,0,0,0-1,1,1.8,1.8,0,0,0,.24,1.61,0.39,0.39,0,0,0,.06.31L21,17.24a0.39,0.39,0,0,0,.54.11h0a0.39,0.39,0,0,0,.11-0.54h0l-0.14-.2a0.39,0.39,0,0,0-.21-0.15,1.27,1.27,0,0,1-.19-1.11,1.25,1.25,0,0,1,.43-0.53v0.36a3.57,3.57,0,0,0,3.34,3.75,3.57,3.57,0,0,0,3.34-3.75c0-2.07-.3-3.75-3.34-3.75C22.39,11.41,21.74,12.55,21.59,14.1Z" transform="translate(-1.91 -5.51)"/></g></g></svg>