<?xml version="1.0" encoding="utf-8"?>
<!-- Generator: Adobe Illustrator 19.2.1, SVG Export Plug-In . SVG Version: 6.00 Build 0)  -->
<svg version="1.1" id="Layer_1" xmlns="http://www.w3.org/2000/svg" xmlns:xlink="http://www.w3.org/1999/xlink" x="0px" y="0px"
	 viewBox="0 0 32 32" style="enable-background:new 0 0 32 32;" xml:space="preserve">
<style type="text/css">
	.st0{fill:#00A3D9;}
	.st1{fill:#FF6600;}
	.st2{fill:#8CC63F;}
	.st3{fill:#49545E;}
</style>
<g>
	<g>
		<g>
			<path class="st0" d="M25.9,14L25.9,14c-0.4,0.1-0.7,0.1-1-0.2c-0.2-0.2-0.4-0.5-0.5-0.7c-0.1-0.2-0.2-0.5-0.2-0.7
				c-0.2-0.9,0.2-1.4,0.6-1.4c0.3,0,0.7,0.1,0.7,0.9C25.5,12.8,25.4,13.5,25.9,14C25.9,14,25.9,14,25.9,14"/>
		</g>
	</g>
	<g>
		<g>
			<path class="st0" d="M26.3,14.6c1.4-0.1,2.5-1.4,2.8-1.9c0.4-0.9,0.3-1.4-0.2-1.5c-0.5-0.1-0.9,0.2-1.3,0.9
				c-0.3,0.8-0.7,1.7-1.5,2.1c0,0-0.4,0.2-0.9,0.1C25.3,14.2,25.5,14.6,26.3,14.6"/>
		</g>
	</g>
	<g>
		<g>
			<path class="st1" d="M24.6,15.5L24.6,15.5L24.6,15.5c0.1-0.7-0.1-1.2-0.5-1.6c-0.1-0.1-0.3-0.2-0.4-0.3c-0.2-0.1-0.4-0.1-0.6-0.1
				c-0.7,0-1.2,0.3-1.1,0.7c0,0.3,0.2,0.7,0.9,0.7C23.6,15,24.1,15.1,24.6,15.5"/>
		</g>
	</g>
	<g>
		<g>
			<path class="st1" d="M24.7,14.4c0,0,0.3,0.6,0.1,1.3c-0.2,0.7-0.9,1.2-1.5,1.5c-0.6,0.3-0.8,0.9-0.7,1.1c0.2,0.4,0.7,0.5,1.3,0.3
				c0.4-0.2,1.6-1,1.4-2.5C25.2,14.8,24.7,14.4,24.7,14.4"/>
		</g>
	</g>
	<g>
		<g>
			<path class="st2" d="M25.8,16.9c0.4-0.8,0.9-1,0.9-1c1.3-0.6,3.2,0.7,3.4,0.8c0.3,0.2,1.1,0.4,1.4-0.3c0.3-0.6-0.1-0.9-0.6-1.3
				c-0.8-0.5-3.3-1.4-4.8,0.7C26.2,15.8,26,16.2,25.8,16.9"/>
		</g>
	</g>
	<g>
		<g>
			<path class="st2" d="M28.2,19c-0.2-0.3-1.6-1.4-1.5-2.7v-0.1l-0.1,0c-0.4,0.3-0.8,0.7-0.8,1.2c0,0.2,0,0.5,0,0.7
				c0.2,0.7,0.5,1.4,0.9,1.9c0.6,0.6,1.2,0.7,1.4,0.4C28.6,19.9,28.5,19.4,28.2,19"/>
		</g>
	</g>
	<g>
		<g>
			<path class="st3" d="M2.6,18.6h-1v-7.1h1V18.6z M2.6,16.2L4.6,14h1.3l-2.1,2.1l2.1,2.5H4.7L2.6,16.2z"/>
		</g>
	</g>
	<g>
		<g>
			<path class="st3" d="M8.3,13.9c1.4,0,2.4,1,2.4,2.4s-1,2.4-2.4,2.4S6,17.8,6,16.3S7,13.9,8.3,13.9 M8.3,14.8
				c-0.7,0-1.3,0.6-1.3,1.5s0.6,1.5,1.3,1.5c0.8,0,1.4-0.6,1.4-1.5C9.7,15.4,9.1,14.8,8.3,14.8"/>
		</g>
	</g>
	<g>
		<g>
			<path class="st3" d="M11.6,14.3c0.7-0.3,1.4-0.4,2.1-0.4c1.2,0,1.9,0.5,1.9,1.8v3h-1v-2.9c0-0.7-0.4-0.9-1-0.9
				c-0.4,0-0.7,0-1,0.2v3.7h-1L11.6,14.3L11.6,14.3z"/>
		</g>
	</g>
	<g>
		<g>
			<polygon class="st3" points="18.4,17.6 19.8,14 20.8,14 18.3,20.5 17.3,20.5 17.9,18.8 16,14 17.1,14 			"/>
		</g>
	</g>
	<g>
		<g>
			<polygon class="st3" points="19.9,18.2 19.9,18.2 20.3,18.2 20.3,18.2 20.1,18.2 20.1,18.6 20.1,18.6 20.1,18.2 			"/>
		</g>
	</g>
	<g>
		<g>
			<polygon class="st3" points="20.5,18.2 20.6,18.6 20.8,18.2 20.8,18.2 20.8,18.6 20.8,18.6 20.8,18.3 20.8,18.3 20.7,18.6 
				20.6,18.6 20.5,18.3 20.5,18.3 20.5,18.6 20.4,18.6 20.4,18.2 			"/>
		</g>
	</g>
</g>
</svg>
