<?xml version="1.0" encoding="utf-8"?>
<!-- Generator: Adobe Illustrator 19.2.1, SVG Export Plug-In . SVG Version: 6.00 Build 0)  -->
<svg version="1.1" id="Layer_1" xmlns="http://www.w3.org/2000/svg" xmlns:xlink="http://www.w3.org/1999/xlink" x="0px" y="0px"
	 viewBox="0 0 32 32" style="enable-background:new 0 0 32 32;" xml:space="preserve">
<style type="text/css">
	.st0{fill:none;}
	.st1{fill:#9E9E9E;}
</style>
<g id="Layer_1_1_">
</g>
<g id="Layer_2">
</g>
<g id="Layer_3">
	<g>
		<g>
			<path class="st0" d="M15.9,16.8v3.8c0.2,0.2,0.3,0.5,0.3,0.8l0,0H21c0.1,0,0.2-0.1,0.2-0.2v-4.6c-0.2,0.1-0.4,0.2-0.6,0.2
				C20.6,16.8,15.9,16.8,15.9,16.8z"/>
			<path class="st0" d="M25.2,16.3v4.9c0,0.1,0.1,0.2,0.2,0.2v-5.3C25.3,16.1,25.2,16.2,25.2,16.3z"/>
			<path class="st0" d="M21,25.4h-4.9c-0.1,0-0.2,0.1-0.2,0.2v3.6h5.3v-3.6C21.2,25.5,21.1,25.4,21,25.4z"/>
			<path class="st0" d="M24.3,21.2v-4.9c0-0.6,0.5-1.1,1.1-1.1l1-10.4c0-0.5-1.2-1-1.6-1.4s-0.9-0.6-1.4-0.6H11.8v4.8
				c0,1.5-1.3,2.8-2.8,2.8H4.6v16.8c0,1.1,0.9,2,2,2H15v-3.6c0-0.6,0.5-1.1,1.1-1.1H21c0.6,0,1.1,0.5,1.1,1.1v3.6h1.3
				c0.3,0,0.6-0.1,0.9-0.2v-3.4c0-0.6,0.5-1.1,1.1-1.1v-2.2C24.8,22.3,24.3,21.8,24.3,21.2z M22.1,21.2c0,0.6-0.5,1.1-1.1,1.1h-4.9
				c-0.1,0-0.2,0-0.3,0c-0.2,0.2-0.5,0.3-0.8,0.3H9.4c-0.7,0-1.2-0.5-1.2-1.2s0.5-1.2,1.2-1.2H15v-3.4H9.4c-0.7,0-1.2-0.5-1.2-1.2
				s0.5-1.2,1.2-1.2h11.2c0.6,0,1.2,0.5,1.2,1.1c0.2,0.2,0.3,0.5,0.3,0.8C22.1,16.3,22.1,21.2,22.1,21.2z"/>
			<path class="st0" d="M10,8.4c0.1-0.1,0.2-0.3,0.2-0.5l0.3-4.6l-6,5.2h5C9.7,8.6,9.9,8.5,10,8.4z"/>
			<path class="st0" d="M30.3,21.4c0.1,0,0.2-0.1,0.2-0.2v-4.9c0-0.1-0.1-0.2-0.2-0.2h-2.5v5.3C27.8,21.4,30.3,21.4,30.3,21.4z"/>
			<path class="st1" d="M15,30.5v-0.3H6.6c-1.1,0-2.8-1.9-2.8-3V10.4H9c1.5,0,2.8-1.3,2.8-2.8V1.8h11.6c0.5,0,1.7,0.5,2.1,0.8
				c0.5,0.3,0.9,1,0.9,2.1v10.5h-1h2.4V4.8c0-2.4-2-4.4-4.4-4.4l0,0H10.5c-0.3,0-0.6,0.1-0.9,0.4L2.5,8.1C2.3,8.3,2.2,8.6,2.2,8.9
				v18.3c0,2.4,2,4.4,4.4,4.4h9.5C15.5,31.6,15,31.1,15,30.5z M10.2,2.7v5.2c0,0.2-0.1,0.3-0.2,0.5S9.7,8.6,9.5,8.6h-5L10.2,2.7z"/>
			<path class="st1" d="M21.8,15.5C21.8,15.6,21.8,15.6,21.8,15.5c0,0.5-0.2,0.9-0.6,1.1v4.6c0,0.1-0.1,0.2-0.2,0.2h-4.8
				c0,0.3-0.2,0.6-0.4,0.9c0.1,0,0.2,0,0.3,0H21c0.6,0,1.1-0.5,1.1-1.1v-4.9C22.1,16,22,15.7,21.8,15.5z"/>
			<path class="st1" d="M15.9,20.6v-3.8H15v3.4C15.4,20.2,15.7,20.4,15.9,20.6z"/>
			<path class="st1" d="M15.9,16.3c0-0.1,0.1-0.2,0.2-0.2H21c0.1,0,0.2,0.1,0.2,0.2v0.3c0.3-0.2,0.6-0.6,0.6-1c0,0,0,0,0-0.1
				c-0.2-0.2-0.5-0.3-0.8-0.3h-4.9c-0.6,0-1.1,0.5-1.1,1.1v0.5h0.9C15.9,16.8,15.9,16.3,15.9,16.3z"/>
			<path class="st1" d="M16.2,21.4L16.2,21.4c-0.2,0-0.3-0.1-0.3-0.2v-0.6c-0.2-0.3-0.5-0.4-0.9-0.4v1c0,0.5,0.3,0.9,0.8,1.1
				C16,22.1,16.2,21.8,16.2,21.4z"/>
			<path class="st1" d="M30.3,16.1c0.1,0,0.2,0.1,0.2,0.2v4.9c0,0.1-0.1,0.2-0.2,0.2h-2.5v0.9h2.5c0.6,0,1.1-0.5,1.1-1.1v-4.9
				c0-0.6-0.5-1.1-1.1-1.1h-2.5v0.9H30.3z"/>
			<path class="st1" d="M25.2,21.2v-4.9c0-0.1,0.1-0.2,0.2-0.2v-0.9c-0.6,0-1.1,0.5-1.1,1.1v4.9c0,0.6,0.5,1.1,1.1,1.1v-0.9
				C25.3,21.4,25.2,21.3,25.2,21.2z"/>
			<polygon class="st1" points="25.4,15.2 25.4,16.1 25.4,16.1 27.8,16.1 27.8,15.2 			"/>
			<polygon class="st1" points="25.4,21.4 25.4,21.4 25.4,22.3 25.4,22.3 27.8,22.3 27.8,21.4 			"/>
			<path class="st1" d="M21,24.5h-4.9c-0.6,0-1.1,0.5-1.1,1.1v3.6h0.9v-3.6c0-0.1,0.1-0.2,0.2-0.2H21c0.1,0,0.2,0.1,0.2,0.2v3.6h0.9
				v-3.6C22.1,25,21.6,24.5,21,24.5z"/>
			<path class="st1" d="M22.1,30.5v-1.3h-0.9v1.3c0,0.1-0.1,0.2-0.2,0.2h-4.9c-0.1,0-0.2-0.1-0.2-0.2v-1.3H15v1.3
				c0,0.6,0.5,1.1,1.1,1.1H21C21.6,31.6,22.1,31.1,22.1,30.5z"/>
			<path class="st1" d="M24.7,31.4c0.2,0.1,0.4,0.2,0.7,0.2h4.9c0.6,0,1.1-0.5,1.1-1.1v-4.9c0-0.6-0.5-1.1-1.1-1.1h-2.5v2.7
				C27.8,29.2,26.5,30.8,24.7,31.4z"/>
			<path class="st1" d="M24.3,25.6V29c0.2-0.1,0.4-0.2,0.5-0.4c0.4-0.4,0.6-0.9,0.6-1.4v-2.7C24.8,24.5,24.3,25,24.3,25.6z"/>
			<path class="st1" d="M25.4,24.5v2.7c0,0.5-0.2,1-0.6,1.4c-0.2,0.2-0.3,0.3-0.5,0.4v1.5c0,0.4,0.2,0.7,0.5,0.9
				c1.8-0.6,3.1-2.2,3.1-4.2v-2.7H25.4L25.4,24.5z"/>
		</g>
		<path class="st1" d="M21.3,13.7H7.5c-0.4,0-0.8-0.4-0.8-0.8v-0.2c0-0.4,0.4-0.8,0.8-0.8h13.8c0.4,0,0.8,0.4,0.8,0.8v0.2
			C22.1,13.4,21.8,13.7,21.3,13.7z"/>
		<path class="st1" d="M23.3,10.7h-9.9c-0.4,0-0.7-0.3-0.7-0.7V9.5c0-0.4,0.3-0.7,0.7-0.7h9.9c0.4,0,0.7,0.3,0.7,0.7V10
			C24,10.4,23.7,10.7,23.3,10.7z"/>
		<path class="st1" d="M23.3,7.5h-9.9c-0.4,0-0.7-0.3-0.7-0.7V6.4c0-0.4,0.3-0.7,0.7-0.7h9.9C23.7,5.7,24,6,24,6.4v0.4
			C24,7.2,23.7,7.5,23.3,7.5z"/>
		<path class="st1" d="M12.8,16.9H7.3c-0.3,0-0.5-0.2-0.5-0.5v-0.7c0-0.3,0.2-0.5,0.5-0.5h5.6c0.3,0,0.5,0.2,0.5,0.5v0.7
			C13.4,16.7,13.1,16.9,12.8,16.9z"/>
		<path class="st1" d="M12.8,19.8H7.3c-0.3,0-0.5-0.2-0.5-0.5v-0.7C6.7,18.3,7,18,7.3,18h5.6c0.3,0,0.5,0.2,0.5,0.5v0.7
			C13.4,19.6,13.1,19.8,12.8,19.8z"/>
		<path class="st1" d="M12.8,22.8H7.3c-0.3,0-0.5-0.2-0.5-0.5v-0.7C6.7,21.2,7,21,7.3,21h5.6c0.3,0,0.5,0.2,0.5,0.5v0.7
			C13.4,22.5,13.1,22.8,12.8,22.8z"/>
		<path class="st1" d="M12.8,25.7H7.3c-0.3,0-0.5-0.2-0.5-0.5v-0.7C6.8,24.2,7,24,7.3,24h5.6c0.3,0,0.5,0.2,0.5,0.5v0.7
			C13.4,25.5,13.1,25.7,12.8,25.7z"/>
	</g>
</g>
</svg>
