<?xml version="1.0" encoding="utf-8"?>
<!-- Generator: Adobe Illustrator 19.2.1, SVG Export Plug-In . SVG Version: 6.00 Build 0)  -->
<svg version="1.1" id="Layer_1" xmlns="http://www.w3.org/2000/svg" xmlns:xlink="http://www.w3.org/1999/xlink" x="0px" y="0px"
	 viewBox="0 0 32 32" style="enable-background:new 0 0 32 32;" xml:space="preserve">
<style type="text/css">
	.st0{fill:none;stroke:#006197;stroke-width:1.5;stroke-miterlimit:10;}
	.st1{display:none;}
	.st2{display:inline;fill:#006197;}
	.st3{fill:#26A9E0;}
	.st4{display:inline;fill:#6DCEF5;}
	.st5{display:inline;fill:none;stroke:#006197;stroke-miterlimit:10;}
	.st6{fill:#6DCEF5;}
</style>
<g>
	<g>
		<path class="st0" d="M20.2,24.6c5.7-0.6,10.2-5.3,10.2-11.1c0-6.1-5-11.1-11.1-11.1c-4.2,0-8,2.4-9.7,5.8c-4.4,0.1-7.9,3.6-7.9,8
			s3.6,8,8,8c0.6,0,1.1-0.1,1.8-0.2"/>
	</g>
	<g class="st1">
		<path class="st2" d="M15.7,12.7l1.3,1.5l-5.7,5.7L10,18.4L15.7,12.7z"/>
		<path class="st2" d="M18,10.4l1.3,1.5l-1.8,1.9l-1.3-1.5L18,10.4z"/>
	</g>
	<g>
		<path class="st3" d="M14.7,28.6v-5.9h0.9v5.9"/>
		<path class="st3" d="M15.3,30.1l3-3.4h-5.7L15.3,30.1"/>
	</g>
	<g class="st1">
		<path class="st4" d="M25.5,12.2L24.1,12c-0.1,0-0.2-0.1-0.2-0.2l-0.6-1.3c-0.1-0.2-0.4-0.2-0.6,0l-0.6,1.3
			C22.1,11.9,22.1,12,22,12l-1.4,0.2c-0.2,0-0.3,0.3-0.2,0.4l1,0.9c0.1,0.1,0.1,0.2,0.1,0.2L21.2,15c-0.1,0.2,0.2,0.4,0.4,0.3
			l1.2-0.6c0.1-0.1,0.2-0.1,0.2,0l1.2,0.6c0.2,0.1,0.4-0.1,0.4-0.3l-0.2-1.3c0-0.1,0-0.2,0.1-0.2l1-0.9
			C25.8,12.4,25.7,12.2,25.5,12.2z"/>
		<path class="st4" d="M23.2,7.2L22,7.1c-0.1,0-0.2-0.1-0.2-0.2l-0.4-1c-0.1-0.2-0.3-0.2-0.4,0L20.6,7c0,0.1,0,0.1-0.2,0.1l-1.1,0.1
			c-0.2,0-0.2,0.2-0.1,0.4l0.9,0.7c0.1,0.1,0.1,0.2,0.1,0.2l-0.3,1c-0.1,0.2,0.2,0.4,0.3,0.2l1-0.6c0.1-0.1,0.2-0.1,0.2,0l1,0.6
			c0.2,0.1,0.4-0.1,0.3-0.2l-0.4-0.9c0-0.1,0-0.2,0.1-0.2l0.9-0.7C23.6,7.5,23.4,7.2,23.2,7.2z"/>
		<path class="st4" d="M18.6,6.2l-0.9-0.1c-0.1,0-0.1-0.1-0.2-0.1l-0.4-0.7c-0.1-0.2-0.2-0.2-0.3,0L16.5,6c0,0.1-0.1,0.1-0.2,0.1
			l-0.9,0.1c-0.2,0-0.2,0.2-0.1,0.3L16,7.1c0.1,0.1,0.1,0.1,0.1,0.2l-0.2,0.8c-0.1,0.2,0.1,0.2,0.2,0.2l0.7-0.6
			c0.1-0.1,0.1-0.1,0.2,0l0.7,0.6c0.2,0.1,0.3-0.1,0.2-0.2l-0.2-0.8c0-0.1,0-0.1,0.1-0.2l0.6-0.6C18.9,6.4,18.8,6.2,18.6,6.2z"/>
		<path class="st4" d="M15.2,8l-0.7-0.1c-0.1,0-0.1-0.1-0.1-0.1l-0.3-0.6C14,7,13.9,7,13.9,7.1l-0.3,0.6c0,0.1-0.1,0.1-0.1,0.1
			L12.8,8c-0.1,0-0.2,0.2-0.1,0.2l0.6,0.6c0.1,0,0.1,0.1,0.1,0.1l-0.4,0.7c-0.1,0.1,0.1,0.2,0.2,0.2l0.6-0.4c0.1-0.1,0.1-0.1,0.2,0
			l0.6,0.4c0.1,0.1,0.2-0.1,0.2-0.2l-0.2-0.6c0-0.1,0-0.1,0.1-0.2l0.6-0.6C15.4,8.1,15.3,8,15.2,8z"/>
		<path class="st4" d="M13.5,10.8l-0.6-0.1c-0.1,0-0.1-0.1-0.1-0.1l-0.2-0.6c-0.1-0.1-0.2-0.1-0.2,0l-0.2,0.6c0,0.1-0.1,0.1-0.1,0.1
			l-0.6,0.1c-0.1,0-0.2,0.2-0.1,0.2l0.4,0.4c0.1,0.1,0.1,0.1,0.1,0.1L11.6,12c0,0.1,0.1,0.2,0.2,0.1l0.6-0.3c0.1,0,0.1,0,0.1,0
			l0.6,0.3c0.1,0.1,0.2-0.1,0.2-0.1L13,11.5c0-0.1,0-0.1,0.1-0.1l0.4-0.4C13.6,10.9,13.5,10.8,13.5,10.8z"/>
	</g>
</g>
<g class="st1">
	<path class="st5" d="M9.1,27.4l11.4,0.4c6.1-0.6,11-5.7,11-12c0-6.6-5.4-12-12-12C15,3.9,11,6.5,9.1,10.1c-4.7,0.1-8.5,3.8-8.5,8.6
		C0.5,23.5,4.4,27.4,9.1,27.4"/>
</g>
<g>
	<g>
		<path class="st6" d="M10.7,19c-0.4,0-0.7-0.1-0.7-0.1c-0.5,0-0.5-0.5-0.3-0.9c0.3-0.5,4.7-7.5,4.9-7.9c0.3-0.4,0.7-0.4,0.8,0.1
			c0,0.1,0.1,0.2,0.1,0.4l0.3-0.5c-0.7-1.2-1.3-2.1-1.4-2.2c-0.4-0.5-1.2-0.5-1.5,0c-0.4,0.7-6.6,10.4-6.9,11
			c-0.3,0.5,0.1,1.2,0.7,1.2h4.1C10.5,19.8,10.5,19.3,10.7,19z M16.5,11L16.5,11L16.5,11c-2.1,3.1-4.7,7.6-4.9,7.8
			c-0.4,0.7,0.1,1.2,0.7,1.2h8.4c0.7,0,1.1-0.7,0.7-1.2C21.2,18.6,18.4,14.1,16.5,11z M18.4,19.2c-0.7,0.1-1.4,0.1-1.9,0.1
			c-0.5-0.1-1.2-0.1-1.9-0.1c-0.1-0.2-0.2-0.5-0.1-0.7c0.1-0.3,1.2-3.3,2.1-5.7c0.9,2.4,1.9,5.5,2.1,5.7
			C18.6,18.8,18.5,19.1,18.4,19.2z M26.9,18.8c-0.5-0.7-6.6-10.4-6.9-11c-0.3-0.5-1.2-0.5-1.6,0C18.3,8.1,17.7,8.9,17,10l0.3,0.5
			c0.1-0.2,0.1-0.3,0.1-0.4c0.1-0.5,0.7-0.5,0.9-0.1c0.3,0.5,4.6,7.5,4.9,7.9s0.1,0.8-0.3,0.9c-0.1,0-0.3,0-0.7,0.1
			c0.1,0.3,0.1,0.7-0.1,1h4.1C26.8,20,27.2,19.4,26.9,18.8z"/>
	</g>
</g>
</svg>
