<?xml version="1.0" encoding="utf-8"?>
<!-- Generator: Adobe Illustrator 19.2.1, SVG Export Plug-In . SVG Version: 6.00 Build 0)  -->
<svg version="1.1" id="Layer_1" xmlns="http://www.w3.org/2000/svg" xmlns:xlink="http://www.w3.org/1999/xlink" x="0px" y="0px"
	 viewBox="0 0 32 32" style="enable-background:new 0 0 32 32;" xml:space="preserve">
<style type="text/css">
	.st0{fill:#939BA5;}
	.st1{fill:none;stroke:#FFAA39;stroke-width:2;stroke-miterlimit:10;}
	.st2{fill:none;}
</style>
<g>
	<rect x="9.3" y="5.2" class="st0" width="1.6" height="12.5"/>
	<rect x="9.3" y="22.7" class="st0" width="1.6" height="4.2"/>
	<path class="st1" d="M10.1,22.4h1.3c1.5,0,2.6-1.2,2.6-2.4c0-1.2-1.3-2.4-2.6-2.4h-1.3"/>
	<path class="st1" d="M10.1,17.6H8.4c-1.7,0-2.6,1.2-2.6,2.4s1.3,2.4,2.6,2.4h1.7"/>
	<line class="st2" x1="10.7" y1="17.5" x2="9.5" y2="17.5"/>
	<line class="st2" x1="9.5" y1="22.6" x2="10.7" y2="22.6"/>
</g>
<g>
	<rect x="20.8" y="5.1" class="st0" width="1.7" height="4.2"/>
	<rect x="20.8" y="14.5" class="st0" width="1.8" height="12.5"/>
	<path class="st1" d="M21.7,14.3H23c1.7,0,2.6-1.2,2.6-2.4S24.3,9.5,23,9.5h-1.3"/>
	<path class="st1" d="M21.7,9.5H20c-1.7,0-2.6,1.2-2.6,2.4s1.3,2.4,2.6,2.4h1.7"/>
	<line class="st2" x1="22.4" y1="9.2" x2="21.2" y2="9.2"/>
	<line class="st2" x1="21.2" y1="14.5" x2="22.4" y2="14.5"/>
</g>
</svg>
