<?xml version="1.0" encoding="utf-8"?>
<!-- Generator: Adobe Illustrator 19.2.1, SVG Export Plug-In . SVG Version: 6.00 Build 0)  -->
<svg version="1.1" xmlns="http://www.w3.org/2000/svg" xmlns:xlink="http://www.w3.org/1999/xlink" x="0px" y="0px"
	 viewBox="0 0 13 11.7" style="enable-background:new 0 0 13 11.7;" xml:space="preserve">
<style type="text/css">
	.st0{enable-background:new    ;}
	.st1{fill-rule:evenodd;clip-rule:evenodd;fill:#807F7F;}
	.st2{fill:#807F7F;}
</style>
<g id="Rectangle_2_1_" class="st0">
	<g id="Rectangle_2">
		<g>
			<path class="st1" d="M3.6,10.5V2.6l1.3,1.3C5,3.9,5.1,3.9,5.1,3.9s0.2,0,0.3-0.1l0.3-0.3c0.1-0.1,0.1-0.4,0-0.5L3.3,0.7
				C3.3,0.7,3.2,0.6,3.1,0.6c-0.1,0-0.2,0-0.3,0.1L0.5,3.1c-0.1,0.1-0.1,0.4,0,0.5l0.3,0.3C0.8,3.9,0.9,3.9,1,3.9s0.2,0,0.3-0.1
				l1.3-1.3v8.2c0,0.1,0.1,0.2,0.2,0.3v0.4h4.5v-1H3.6z"/>
		</g>
	</g>
</g>
<g id="A">
	<g>
		<path class="st2" d="M11.7,10.9H9.6l-0.3,0.8H8.3L10.1,7h1.2l1.8,4.7H12L11.7,10.9z M9.9,10h1.5l-0.8-2.1L9.9,10z"/>
	</g>
</g>
<g id="Z">
	<g>
		<path class="st2" d="M8.6,4.9l2.2-3H8.6V1h3.5v0.8l-2.2,3h2.3v0.9H8.6V4.9z"/>
	</g>
</g>
</svg>
