<?xml version="1.0" encoding="utf-8"?>
<!-- Generator: Adobe Illustrator 19.2.1, SVG Export Plug-In . SVG Version: 6.00 Build 0)  -->
<svg version="1.1" xmlns="http://www.w3.org/2000/svg" xmlns:xlink="http://www.w3.org/1999/xlink" x="0px" y="0px"
	 viewBox="0 0 32 32" style="enable-background:new 0 0 32 32;" xml:space="preserve">
<style type="text/css">
	.st0{enable-background:new    ;}
	.st1{fill-rule:evenodd;clip-rule:evenodd;fill:#F6F6F6;}
	.st2{fill:#ACACAC;}
	.st3{fill-rule:evenodd;clip-rule:evenodd;fill:#989898;}
</style>
<g id="Rounded_Rectangle_1_1_" class="st0">
	<g id="Rounded_Rectangle_1">
		<g>
			<path class="st1" d="M6,31c-2.8,0-5-2.2-5-5V6c0-2.8,2.2-5,5-5h20c2.8,0,5,2.2,5,5v20c0,2.8-2.2,5-5,5H6z"/>
		</g>
		<g>
			<path class="st2" d="M26,2c2.2,0,4,1.8,4,4v20c0,2.2-1.8,4-4,4H6c-2.2,0-4-1.8-4-4V6c0-2.2,1.8-4,4-4H26 M26,0H6C2.7,0,0,2.7,0,6
				v20c0,3.3,2.7,6,6,6h20c3.3,0,6-2.7,6-6V6C32,2.7,29.3,0,26,0L26,0z"/>
		</g>
	</g>
</g>
<g id="_x5C__x2F__copy_2_1_" class="st0">
	<g id="_x5C__x2F__copy_2">
		<g>
			<polygon class="st3" points="23.6,13.2 22,11.7 16,17.7 10,11.7 8.4,13.2 15.6,20.3 16,19.9 16.4,20.3 			"/>
		</g>
	</g>
</g>
</svg>
