<?xml version="1.0" encoding="utf-8"?>
<!-- Generator: Adobe Illustrator 19.2.1, SVG Export Plug-In . SVG Version: 6.00 Build 0)  -->
<svg version="1.0" id="Layer_1" xmlns="http://www.w3.org/2000/svg" xmlns:xlink="http://www.w3.org/1999/xlink" x="0px" y="0px"
	 viewBox="0 0 32 32" style="enable-background:new 0 0 32 32;" xml:space="preserve">
<style type="text/css">
	.st0{enable-background:new    ;}
	.st1{fill:#87D050;}
	.st2{fill:#FFFFFF;}
	.st3{fill:#00A2D9;}
</style>
<g id="Background_xA0_Image_1_">
</g>
<g id="Rectangle_1_1_" class="st0">
</g>
<g id="Rectangle_1_copy_1_" class="st0">
</g>
<g id="Rectangle_1_copy_2_1_" class="st0">
</g>
<g id="Rectangle_1_copy_3_1_" class="st0">
	<g>
		<g id="Rectangle_1">
			<g>
				<rect x="2.9" y="16.6" class="st1" width="7" height="6.4"/>
			</g>
		</g>
		<g id="Rectangle_1_copy">
			<g>
				<rect x="4.2" y="17.9" class="st2" width="24.1" height="3.8"/>
			</g>
		</g>
		<g>
			<g id="Rectangle_1_copy_2">
				<g>
					<rect x="2.9" y="7.7" class="st3" width="26" height="6.4"/>
				</g>
			</g>
			<path class="st3" d="M10.6,19.6c0,0.1,0.1,0.3,0.1,0.3l3.3,3.5c0.2,0.2,0.4,0.2,0.6,0c0.2-0.2,0.2-0.4,0-0.6L11.9,20h10.4
				c0.3,0,0.4-0.2,0.4-0.4s-0.2-0.4-0.4-0.4H12l2.7-2.9c0.2-0.2,0.2-0.4,0-0.6s-0.4-0.2-0.6,0l-3.4,3.6
				C10.6,19.5,10.6,19.5,10.6,19.6z"/>
			<g id="Rectangle_1_copy_3">
				<g>
					<rect x="4.2" y="9" class="st2" width="23.5" height="3.8"/>
				</g>
			</g>
		</g>
	</g>
</g>
</svg>
