<?xml version="1.0" encoding="utf-8"?>
<!-- Generator: Adobe Illustrator 19.2.1, SVG Export Plug-In . SVG Version: 6.00 Build 0)  -->
<svg version="1.1" id="Capa_1" xmlns="http://www.w3.org/2000/svg" xmlns:xlink="http://www.w3.org/1999/xlink" x="0px" y="0px"
	 viewBox="0 0 32 32" style="enable-background:new 0 0 32 32;" xml:space="preserve">
<style type="text/css">
	.st0{fill:#00A3D7;}
</style>
<path class="st0" d="M31.4,16c0,8.5-6.9,15.4-15.4,15.4c-0.5,0-0.9-0.4-0.9-0.9v-7.4c-3.5-0.4-6.2-3.4-6.2-7c0-0.5,0.4-0.9,0.9-0.9
	h1.9V9.3c0-0.5,0.4-0.9,0.9-0.9s0.9,0.4,0.9,0.9v5.9h4.8V9.3c0-0.5,0.4-0.9,0.9-0.9c0.5,0,0.9,0.4,0.9,0.9v5.9h1.9
	c0.5,0,0.9,0.4,0.9,0.9c0,3.6-2.7,6.6-6.2,7v6.5C24,29,29.5,23.2,29.5,16c0-7.5-6.1-13.5-13.5-13.5S2.5,8.5,2.5,16
	c0,2.8,0.9,5.6,2.5,7.9c0.3,0.4,0.2,1-0.2,1.3c-0.4,0.3-1,0.2-1.3-0.2c-1.9-2.7-2.9-5.8-2.9-9C0.6,7.5,7.5,0.6,16,0.6
	C24.5,0.6,31.4,7.5,31.4,16z"/>
</svg>
