<?xml version="1.0" encoding="utf-8"?>
<!-- Generator: Adobe Illustrator 19.2.1, SVG Export Plug-In . SVG Version: 6.00 Build 0)  -->
<svg version="1.1" xmlns="http://www.w3.org/2000/svg" xmlns:xlink="http://www.w3.org/1999/xlink" x="0px" y="0px"
	 viewBox="0 0 32 32" style="enable-background:new 0 0 32 32;" xml:space="preserve">
<style type="text/css">
	.st0{fill:#9E9E9E;}
</style>
<g id="Layer_1">
	<g>
		<path class="st0" d="M20.2,19.9c0.3,0,0.5-0.2,0.5-0.5s-0.2-0.5-0.5-0.5H1.4V6.2c0-0.5,0.4-0.9,0.9-0.9H25c0.5,0,0.9,0.4,0.9,0.9
			v2.2c0,0.3,0.2,0.5,0.5,0.5s0.5-0.2,0.5-0.5V6.2c0-1.1-0.9-1.9-1.9-2H2.3c-1.1,0-1.9,0.9-1.9,2v14.3c0,1.1,0.9,1.9,1.9,2h9.5v4.2
			H7.1c-0.3,0-0.5,0.2-0.5,0.5s0.2,0.5,0.5,0.5h13c0.3,0,0.5-0.2,0.5-0.5s-0.2-0.5-0.5-0.5h-4.7v-4.2h4.7c0.3,0,0.5-0.2,0.5-0.5
			c0-0.3-0.2-0.5-0.5-0.5H2.3c-0.5,0-0.9-0.4-0.9-0.9v-0.7L20.2,19.9z M14.4,22.5v4.2h-1.6v-4.2H14.4z"/>
		<path class="st0" d="M11.7,12.2c-0.2-0.2-0.5-0.2-0.7,0c-0.2,0.2-0.2,0.5,0,0.7l2.1,2.1c0.1,0.1,0.2,0.2,0.4,0.2
			c0.1,0,0.3-0.1,0.4-0.2l4.2-4.2c0.2-0.2,0.2-0.5,0-0.7c-0.2-0.2-0.5-0.2-0.7,0L13.4,14L11.7,12.2z"/>
		<path class="st0" d="M8.7,12.1c0,1.5,0.6,3,1.7,4.1s2.5,1.7,4.1,1.7s3-0.6,4.1-1.7c1.1-1.1,1.7-2.5,1.7-4.1s-0.6-3-1.7-4.1
			C17.4,7,16,6.4,14.4,6.4S11.5,7,10.4,8S8.7,10.6,8.7,12.1z M19.1,12.1c0,1.9-1.1,3.6-2.9,4.3c-1.8,0.7-3.8,0.3-5.1-1
			c-1.3-1.3-1.7-3.4-1-5.1c0.7-1.8,2.4-2.9,4.3-2.9C17,7.4,19.1,9.5,19.1,12.1L19.1,12.1z"/>
	</g>
</g>
<g id="Layer_2">
	<path class="st0" d="M29.9,10.1h-6.8c-0.9,0-1.6,0.7-1.6,1.6v14.6c0,0.9,0.7,1.6,1.6,1.6h6.8c0.9,0,1.6-0.7,1.6-1.6V11.7
		C31.5,10.8,30.8,10.1,29.9,10.1z M22.6,13.2h7.8v10.9h-7.8V13.2z M23.1,11.2h6.8c0.1,0,0.3,0.1,0.4,0.2c0.1,0.1,0.2,0.2,0.2,0.4
		v0.5h-7.8v-0.5C22.6,11.4,22.8,11.2,23.1,11.2L23.1,11.2z M29.9,26.8h-6.8c-0.3,0-0.5-0.2-0.5-0.5v-1h7.8v1c0,0.1-0.1,0.3-0.2,0.4
		C30.2,26.7,30,26.8,29.9,26.8L29.9,26.8z"/>
</g>
<g id="Layer_3">
	<path class="st0" d="M27.5,17.5l-1.4,1.2l-0.5-0.5c-0.2-0.2-0.5-0.1-0.7,0.1c-0.2,0.2-0.2,0.5,0,0.7l0.9,0.8c0.2,0.2,0.5,0.2,0.7,0
		l1.7-1.6c0.1-0.1,0.2-0.2,0.2-0.4c0-0.1,0-0.3-0.1-0.4c-0.1-0.1-0.2-0.2-0.4-0.2C27.7,17.4,27.6,17.4,27.5,17.5L27.5,17.5z"/>
	<path class="st0" d="M26.5,15.3c-1.4,0-2.6,0.8-3.1,2.1c-0.5,1.3-0.2,2.7,0.7,3.7c1,1,2.4,1.3,3.7,0.7c1.3-0.5,2.1-1.8,2.1-3.1
		C29.9,16.8,28.4,15.3,26.5,15.3L26.5,15.3z M26.5,21c-0.9,0-1.8-0.6-2.2-1.4c-0.4-0.9-0.2-1.9,0.5-2.6c0.7-0.7,1.7-0.9,2.6-0.5
		c0.9,0.4,1.4,1.2,1.4,2.2C28.9,20,27.8,21,26.5,21z"/>
</g>
</svg>
