<?xml version="1.0" encoding="utf-8"?>
<!-- Generator: Adobe Illustrator 19.2.1, SVG Export Plug-In . SVG Version: 6.00 Build 0)  -->
<svg version="1.1" id="_" xmlns="http://www.w3.org/2000/svg" xmlns:xlink="http://www.w3.org/1999/xlink" x="0px" y="0px"
	 viewBox="0 0 16 16" style="enable-background:new 0 0 16 16;" xml:space="preserve">
<style type="text/css">
	.st0{fill:#FFFFFF;}
</style>
<title>icon-in-progress</title>
<g>
	<g id="Ellipse_1">
		<g id="Ellipse_1-2">
			<path class="st0" d="M7.9,1.3c3.7-0.1,6.8,2.9,6.8,6.6s-2.9,6.8-6.6,6.8s-6.8-2.9-6.8-6.6l0,0C1.2,4.4,4.2,1.3,7.9,1.3 M7.9,0.3
				c-4.3,0-7.7,3.6-7.6,7.8s3.6,7.7,7.9,7.6c4.3-0.1,7.7-3.6,7.6-7.9C15.7,3.6,12.1,0.2,7.9,0.3L7.9,0.3L7.9,0.3L7.9,0.3z"/>
		</g>
	</g>
</g>
<g id="Forma_1">
	<path class="st0" d="M8,2.8C7.3,2.8,6.7,3.3,6.7,4l0,0v4.1c0.1,0.7,0.7,1.2,1.4,1.1c0.7-0.1,1.1-0.6,1.1-1.1V4
		C9.2,3.3,8.6,2.8,8,2.8z M8,10.5c-0.7,0-1.2,0.6-1.2,1.3c0,0.7,0.6,1.2,1.3,1.2c0.7,0,1.2-0.6,1.2-1.2C9.2,11.1,8.6,10.5,8,10.5
		L8,10.5z"/>
</g>
</svg>
