<?xml version="1.0" encoding="utf-8"?>
<!-- Generator: Adobe Illustrator 19.2.1, SVG Export Plug-In . SVG Version: 6.00 Build 0)  -->
<svg version="1.1" id="icon_1_" xmlns="http://www.w3.org/2000/svg" xmlns:xlink="http://www.w3.org/1999/xlink" x="0px" y="0px"
	 viewBox="0 0 32 32" style="enable-background:new 0 0 32 32;" xml:space="preserve">
<style type="text/css">
	.st0{fill-rule:evenodd;clip-rule:evenodd;fill:#2A333C;}
</style>
<g id="icon">
	<g>
		<path class="st0" d="M18.7,18.3c-1.5,0-2.8-1.2-2.8-2.8c0-0.4,0.1-0.8,0.2-1.1c0,0-0.1,0-0.1,0c-2.1,0-3.8,1.7-3.8,3.8
			c0,2.1,1.7,3.8,3.8,3.8c2.1,0,3.8-1.7,3.8-3.8c0,0,0-0.1,0-0.1C19.4,18.2,19.1,18.3,18.7,18.3z M5.8,9.2C8.9,7.4,12.4,6.4,16,6.4
			c3.6,0,7.1,1,10.2,2.8c1.3,0.8,2.5,1.6,3.6,2.7l1.3-1.4c-1.2-1.1-2.5-2.1-3.9-2.9c-3.4-2-7.2-3-11.2-3c-3.9,0-7.8,1.1-11.2,3
			C3.5,8.4,2.1,9.4,1,10.5l1.3,1.4C3.3,10.8,4.5,10,5.8,9.2z M31.2,17.7c-1.5-2.6-3.7-4.8-6.3-6.4C22.2,9.8,19.1,9,16,9
			s-6.2,0.8-8.9,2.4c-2.6,1.5-4.8,3.7-6.3,6.4l-0.3,0.5l0.3,0.5c1.5,2.6,3.7,4.8,6.3,6.4c2.7,1.6,5.8,2.4,8.9,2.4s6.2-0.8,8.9-2.4
			c2.6-1.5,4.8-3.7,6.3-6.4l0.3-0.5L31.2,17.7z M8.5,23.7c-2.3-1.3-4.4-3.1-5.8-5.5c1.5-2.3,3.5-4.2,5.8-5.5
			c-1.1,1.5-1.8,3.4-1.8,5.5C6.7,20.3,7.4,22.1,8.5,23.7z M16,25.6c-4.1,0-7.4-3.3-7.4-7.4c0-4.1,3.3-7.4,7.4-7.4
			c4.1,0,7.4,3.3,7.4,7.4C23.4,22.3,20.1,25.6,16,25.6z M23.5,23.7c1.1-1.5,1.8-3.4,1.8-5.5c0-2-0.7-3.9-1.8-5.5
			c2.3,1.3,4.4,3.1,5.8,5.5C27.8,20.5,25.8,22.4,23.5,23.7z"/>
	</g>
</g>
</svg>
