<?xml version="1.0" encoding="utf-8"?>
<!-- Generator: Adobe Illustrator 19.2.1, SVG Export Plug-In . SVG Version: 6.00 Build 0)  -->
<svg version="1.1" id="Layer_1" xmlns="http://www.w3.org/2000/svg" xmlns:xlink="http://www.w3.org/1999/xlink" x="0px" y="0px"
	 viewBox="0 0 32 32" style="enable-background:new 0 0 32 32;" xml:space="preserve">
<style type="text/css">
	.st0{fill:#FDFDFD;}
</style>
<g id="surface247888">
	<path class="st0" d="M16,0.7C7.5,0.7,0.7,7.5,0.7,16S7.5,31.3,16,31.3S31.3,24.5,31.3,16S24.5,0.7,16,0.7z M23.6,14.2l-7.7,7.3
		c-0.6,0.5-1.5,0.5-2-0.1l-3.9-4c-0.6-0.6-0.6-1.5,0-2c0.6-0.5,1.5-0.6,2,0l2.9,3l6.7-6.3c0.7-0.4,1.5-0.3,2,0.3
		C24,12.9,24,13.6,23.6,14.2L23.6,14.2z"/>
</g>
</svg>
