<?xml version="1.0" encoding="utf-8"?>
<!-- Generator: Adobe Illustrator 19.2.1, SVG Export Plug-In . SVG Version: 6.00 Build 0)  -->
<svg version="1.1" id="Layer_1" xmlns="http://www.w3.org/2000/svg" xmlns:xlink="http://www.w3.org/1999/xlink" x="0px" y="0px"
	 viewBox="0 0 32 32" style="enable-background:new 0 0 32 32;" xml:space="preserve">
<style type="text/css">
	.st0{fill:none;stroke:#9E9E9E;stroke-width:1.5;stroke-miterlimit:10;}
	.st1{fill:#FFFFFF;stroke:#9E9E9E;stroke-width:1.5;stroke-miterlimit:10;}
	.st2{fill:#FFFFFF;}
</style>
<path class="st0" d="M30.2,3.9c-3.7,2.4-8.4,2.4-12.1,0C14.4,6.3,9.7,6.3,6,3.9C5.1,22.8,18.1,29.2,18.1,29.2S31.1,22.8,30.2,3.9z"
	/>
<path class="st1" d="M20.3,18.7l-1.2-0.5v-2.1l0.9-0.5c0.6-0.3,0.9-1,0.7-1.6L20,12.9c-0.2-0.6-0.9-1-1.5-0.7h-0.1l-0.9,0.5
	c-0.5-0.6-1-1.1-1.6-1.6l0.5-1.2c0.2-0.6-0.1-1.4-0.7-1.6l-1.2-0.5c-0.6-0.1-1.3,0.1-1.6,0.7l-0.5,1.2h-2.1L9.8,8.5
	c-0.2-0.6-0.9-1-1.5-0.7H8.2L7,8.5c-0.6,0.3-0.9,1-0.7,1.6l0.5,1.2c-0.6,0.5-1.1,1-1.6,1.6L4,12.5c-0.6-0.1-1.3,0.1-1.6,0.7
	l-0.5,1.2c-0.1,0.3-0.1,0.6,0,0.9L2.6,16l1.2,0.5v2.1l-1,0.4c-0.6,0.3-0.9,1-0.7,1.6l0.7,1.2c0.2,0.6,0.9,1,1.5,0.7h0.1l1-0.5
	c0.5,0.6,1,1.1,1.6,1.6l-0.2,1.2c-0.1,0.3-0.1,0.6,0,0.9l0.7,0.7l1.2,0.5C9,27,9.3,27,9.6,26.9l0.7-0.7l0.5-1.2h2.1l0.5,1.2
	c0.2,0.6,0.9,1,1.5,0.7H15l1.2-0.7c0.6-0.3,0.9-1,0.7-1.6l-0.5-1.2c0.6-0.5,1.1-1,1.6-1.6l1.2,0.5c0.3,0.1,0.6,0.1,0.9,0l0.7-0.7
	l0.5-1.2C21.1,19.7,20.8,19.2,20.3,18.7z M12.9,20.5c-0.4,0.3-0.9,0.4-1.5,0.4c-1.2-0.1-2.2-0.8-2.7-1.9c-0.8-1.3-0.3-3,1.1-3.8
	c0.1-0.1,0.3-0.1,0.4-0.2c0.4-0.3,0.9-0.4,1.5-0.4c1.2,0.1,2.2,0.8,2.7,1.9C15,18.1,14.3,19.8,12.9,20.5L12.9,20.5z"/>
<ellipse class="st2" cx="11.5" cy="17.8" rx="2.4" ry="2.6"/>
</svg>
