<?xml version="1.0" encoding="utf-8"?>
<!-- Generator: Adobe Illustrator 19.2.1, SVG Export Plug-In . SVG Version: 6.00 Build 0)  -->
<svg version="1.1" id="Layer_1" xmlns="http://www.w3.org/2000/svg" xmlns:xlink="http://www.w3.org/1999/xlink" x="0px" y="0px"
	 viewBox="0 0 32 32" style="enable-background:new 0 0 32 32;" xml:space="preserve">
<style type="text/css">
	.st0{fill:#AFAFAF;}
	.st1{fill:#C9C9C9;}
</style>
<path class="st0" d="M8.9,8.9c-0.7-0.7-1.4-0.7-2,0l-6.1,6.5c-0.2,0.2-0.5,0.7-0.5,1.1c0,0.5,0.2,0.7,0.5,1.1l6.1,6.5
	c0.2,0.2,0.7,0.5,0.9,0.5s0.7-0.2,0.9-0.5c0.7-0.7,0.7-1.6,0-2l-5.2-5.4l5.2-5.4C9.3,10.5,9.3,9.6,8.9,8.9z"/>
<path class="st0" d="M25.4,8.9c-0.7-0.7-1.4-0.7-2,0c-0.7,0.7-0.7,1.6,0,2l5.2,5.4l-5.2,5.4c-0.7,0.7-0.7,1.6,0,2
	c0.2,0.2,0.7,0.5,0.9,0.5c0.2,0,0.7-0.2,0.9-0.5l6.1-6.5c0.2-0.2,0.5-0.7,0.5-1.1c0-0.5-0.2-0.7-0.5-1.1L25.4,8.9z"/>
<path class="st1" d="M20.2,8.5c-0.7-0.2-1.1,0.2-1.6,1.1l-6.5,13.3c-0.2,0.7-0.5,1.1,0.2,1.6c0.2,0.2,0.2,0,0.2,0
	c0.5,0,1.1-0.2,1.1-0.7l6.5-13.3C20.6,9.6,20.6,8.9,20.2,8.5z"/>
</svg>
