<?xml version="1.0" encoding="utf-8"?>
<!-- Generator: Adobe Illustrator 19.2.1, SVG Export Plug-In . SVG Version: 6.00 Build 0)  -->
<svg version="1.1" xmlns="http://www.w3.org/2000/svg" xmlns:xlink="http://www.w3.org/1999/xlink" x="0px" y="0px"
	 viewBox="0 0 32 32" style="enable-background:new 0 0 32 32;" xml:space="preserve">
<style type="text/css">
	.st0{enable-background:new    ;}
	.st1{fill-rule:evenodd;clip-rule:evenodd;fill:#2EB744;}
	.st2{fill-rule:evenodd;clip-rule:evenodd;fill:#00A3D7;}
</style>
<g id="Shape_2_1_" class="st0">
</g>
<g id="Shape_1_1_" class="st0">
	<g>
		<g id="Shape_2">
			<g>
				<path class="st1" d="M10,12.6L7.6,15l5.6,5.9l8.8-9.5l-2.4-2.6L13.1,16L10,12.6z M14.7,0.4c-7.7,0-14,6.3-14,14
					c0,7.4,5.7,13.4,13,13.9l-4.3-3l0,0c-4.1-2-6.9-6.1-6.9-10.9C2.6,7.7,8,2.2,14.7,2.2c6.7,0,12.1,5.4,12.1,12.1
					c0,1.5-0.3,2.9-0.8,4.2c1.3-1.3,2.1-2.4,2.6-3.4c0-0.3,0-0.5,0-0.8C28.7,6.7,22.5,0.4,14.7,0.4z"/>
			</g>
		</g>
		<g id="Shape_1">
			<g>
				<path class="st2" d="M29.1,10.1c3.9,9.6-9.3,13.6-9.3,13.6v-3.1l-8.7,4.8l8.8,5.8v-3.5C38.1,22.9,29.1,10.1,29.1,10.1z"/>
			</g>
		</g>
	</g>
</g>
</svg>
