<?xml version="1.0" encoding="utf-8"?>
<!-- Generator: Adobe Illustrator 19.2.1, SVG Export Plug-In . SVG Version: 6.00 Build 0)  -->
<svg version="1.1" id="Layer_1" xmlns="http://www.w3.org/2000/svg" xmlns:xlink="http://www.w3.org/1999/xlink" x="0px" y="0px"
	 viewBox="0 0 32 32" style="enable-background:new 0 0 32 32;" xml:space="preserve">
<style type="text/css">
	.st0{fill:#00A3D7;}
	.st1{fill:none;stroke:#63BC48;stroke-width:1.5;stroke-miterlimit:10;}
</style>
<g id="Layer_2">
	<path class="st0" d="M6.3,17.8c2.6,2.6,6.1,4,9.7,4s7-1.4,9.7-4l0.6-0.6c0.4-0.3,0.9-1.4,0-2.5l-0.6-0.6c-5.4-5.4-14-5.4-19.3,0
		l-0.6,0.6c-0.9,1.1-0.3,2.1,0,2.5C5.7,17.3,6.3,17.8,6.3,17.8z M6.6,15.6L7.2,15c2.5-2.5,5.6-3.7,8.8-3.7s6.4,1.2,8.8,3.7l0.6,0.6
		c0.3,0.3,0.1,0.7,0,0.8L24.8,17C20,21.9,12,21.9,7.2,17l-0.6-0.6C6.5,16.3,6.2,15.9,6.6,15.6L6.6,15.6z"/>
	<path class="st0" d="M16,19.7c2,0,3.7-1.7,3.7-3.7S18,12.3,16,12.3S12.3,14,12.3,16S14,19.7,16,19.7z M16,13.4
		c1.4,0,2.5,1.1,2.5,2.5c0,1.4-1.1,2.5-2.5,2.5s-2.5-1.1-2.5-2.5S14.6,13.4,16,13.4z"/>
</g>
<path class="st1" d="M27.2,30.9H4.8c-2.1,0-3.7-1.7-3.7-3.7V4.8c0-2.1,1.7-3.7,3.7-3.7h22.4c2.1,0,3.7,1.7,3.7,3.7v22.4
	C30.9,29.3,29.3,30.9,27.2,30.9z"/>
</svg>
