<?xml version="1.0" encoding="utf-8"?>
<!-- Generator: Adobe Illustrator 19.2.1, SVG Export Plug-In . SVG Version: 6.00 Build 0)  -->
<svg version="1.1" xmlns="http://www.w3.org/2000/svg" xmlns:xlink="http://www.w3.org/1999/xlink" x="0px" y="0px"
	 viewBox="0 0 32 32" style="enable-background:new 0 0 32 32;" xml:space="preserve">
<style type="text/css">
	.st0{fill:none;}
	.st1{fill:#FC8F19;}
	.st2{fill:#84C434;}
</style>
<g id="Layer_1">
</g>
<g id="Layer_2">
	<g>
		<g>
			<path class="st0" d="M29,2h-9.8c-0.5,0-0.9,0.4-0.9,0.9v9.8c0,0.5,0.4,0.9,0.9,0.9H29c0.5,0,0.9-0.4,0.9-0.9l0,0l0,0c0,0,0,0,0,0
				l0,0V2.9c0-0.2-0.1-0.5-0.3-0.6C29.5,2.1,29.3,2,29,2z"/>
			<path class="st0" d="M3,13.6h9.8c0.5,0,0.9-0.4,0.9-0.9v0l0-9.8c0-0.2-0.1-0.5-0.3-0.6C13.2,2.1,13,2,12.8,2H3
				C2.5,2,2.1,2.4,2.1,2.9v9.8C2.1,13.2,2.5,13.6,3,13.6z"/>
			<path class="st0" d="M13.4,18.7c-0.2-0.2-0.4-0.3-0.6-0.3H3c-0.5,0-0.9,0.4-0.9,0.9v9.8C2.1,29.6,2.5,30,3,30h9.8
				c0.5,0,0.9-0.4,0.9-0.9v0v-2H8.7c-1.6,0-2.9-1.3-2.9-2.9c0-1.6,1.3-2.9,2.9-2.9h4.9v-2C13.7,19.1,13.6,18.8,13.4,18.7z"/>
			<path class="st1" d="M3,15h9.8c1.3,0,2.3-1,2.3-2.3V2.9c0-1.3-1-2.3-2.3-2.3v0H3c-1.3,0-2.3,1-2.3,2.3v9.8C0.7,14,1.7,15,3,15z
				 M13.7,12.7"/>
			<path class="st1" d="M29,0.6L29,0.6l-9.8,0c-1.3,0-2.3,1-2.3,2.3v9.8c0,1.3,1,2.3,2.3,2.3H29c1.3,0,2.3-1,2.3-2.3V2.9
				C31.3,1.7,30.3,0.6,29,0.6z M29.6,12.4L29.6,12.4c0,0.5-0.4,0.8-0.8,0.8h-9.2c-0.5,0-0.8-0.4-0.8-0.8V3.2c0-0.5,0.4-0.8,0.8-0.8
				h9.2c0.2,0,0.4,0.1,0.6,0.2c0.2,0.2,0.2,0.4,0.2,0.6V12.4z"/>
			<polygon points="29.9,12.7 29.9,12.7 29.9,12.7 			"/>
			<path class="st1" d="M13.7,29.1L13.7,29.1c0,0.5-0.4,0.9-0.9,0.9H3c-0.5,0-0.9-0.4-0.9-0.9v-9.8c0-0.5,0.4-0.9,0.9-0.9h9.8
				c0.2,0,0.5,0.1,0.6,0.3c0.2,0.2,0.3,0.4,0.3,0.6v2h1.4v-2c0-1.3-1-2.3-2.3-2.3v0H3c-1.3,0-2.3,1-2.3,2.3v9.8c0,1.3,1,2.3,2.3,2.3
				h9.8c1.3,0,2.3-1,2.3-2.3v-2h-1.4V29.1z"/>
		</g>
		<path class="st2" d="M30.7,24.2c0-0.3-0.1-0.5-0.2-0.7l-4.8-5.9c-0.4-0.5-1.1-0.5-1.6-0.2c-0.4,0.4-0.5,1.1-0.2,1.6l3.3,4.1H9
			c-0.6,0-1.1,0.5-1.1,1.1c0,0.6,0.5,1.1,1.1,1.1h18.3L24,29.4c-0.4,0.4-0.3,1.2,0.2,1.6c0.5,0.4,1.2,0.3,1.6-0.2l4.8-5.9
			C30.7,24.7,30.7,24.5,30.7,24.2L30.7,24.2z"/>
	</g>
</g>
</svg>
