<?xml version="1.0" encoding="utf-8"?>
<!-- Generator: Adobe Illustrator 19.2.1, SVG Export Plug-In . SVG Version: 6.00 Build 0)  -->
<svg version="1.1" id="Layer_1" xmlns="http://www.w3.org/2000/svg" xmlns:xlink="http://www.w3.org/1999/xlink" x="0px" y="0px"
	 viewBox="0 0 32 32" style="enable-background:new 0 0 32 32;" xml:space="preserve">
<style type="text/css">
	.st0{fill:none;stroke:#F9BF2B;stroke-width:2;stroke-miterlimit:10;}
	.st1{fill:none;stroke:#F68E1E;stroke-width:2;stroke-miterlimit:10;}
</style>
<path class="st0" d="M22.5,30.8c-0.3,0-11.1,0-11.1,0c-2.2,0-3.7-2.2-3.7-3.7H6.4c-2.2,0-3.7-1.5-3.7-3.7V4.9c0-2.2,1.5-3.7,3.7-3.7
	h13.9c2.2,0,3.7,2.2,3.7,3.7h0.9c2.2,0,3.7,2.2,3.7,3.7v14.8L22.5,30.8z"/>
<path class="st1" d="M24.6,4.9h0.9c2.2,0,3.7,2.2,3.7,3.7v14.8l-6.5,7.4c-0.3,0-11.1,0-11.1,0c-2.2,0-3.7-2.2-3.7-3.7"/>
<path class="st1" d="M7.7,27.1V8.6c0-2.2,1.5-3.7,3.7-3.7c0,0,12,0,13.3,0"/>
</svg>
