<?xml version="1.0" encoding="utf-8"?>
<!-- Generator: Adobe Illustrator 19.2.1, SVG Export Plug-In . SVG Version: 6.00 Build 0)  -->
<svg version="1.1" id="Layer_1" xmlns="http://www.w3.org/2000/svg" xmlns:xlink="http://www.w3.org/1999/xlink" x="0px" y="0px"
	 viewBox="0 0 32 32" style="enable-background:new 0 0 32 32;" xml:space="preserve">
<style type="text/css">
	.st0{fill:none;stroke:#9E9E9E;stroke-miterlimit:10;}
</style>
<g>
	<path class="st0" d="M4.6,10.3c-0.6,0-1,0.2-1.3,0.6c-0.3,0.4-0.6,0.8-0.6,1.3v8.1c0,0.6,0.2,1,0.6,1.3C3.7,22,4,22.2,4.6,22.2
		s1-0.2,1.3-0.6c0.3-0.4,0.6-0.8,0.6-1.3v-8.1c0-0.6-0.2-1-0.6-1.3C5.6,10.5,5.1,10.3,4.6,10.3z"/>
	<path class="st0" d="M20.2,3.5L21.5,1c0.1-0.1,0.1-0.3-0.1-0.4c-0.1-0.1-0.3-0.1-0.3,0.1l-1.3,2.5c-1.1-0.6-2.5-0.8-3.7-0.8
		s-2.6,0.3-3.7,0.8L11,0.7c-0.1-0.1-0.2-0.2-0.4-0.1c-0.1,0.1-0.2,0.2-0.1,0.4l1.3,2.5c-1.3,0.8-2.5,1.7-3.3,2.9s-1.2,2.6-1.2,4
		h17.4c0-1.5-0.4-2.8-1.2-4C22.5,5.2,21.5,4.1,20.2,3.5z M12.5,7c-0.1,0.1-0.3,0.2-0.6,0.2c-0.2,0-0.3-0.1-0.6-0.2
		c-0.1-0.1-0.2-0.3-0.2-0.6c0-0.2,0.1-0.3,0.2-0.6c0.1-0.1,0.3-0.2,0.6-0.2c0.2,0,0.3,0.1,0.6,0.2c0.1,0.1,0.2,0.3,0.2,0.6
		C12.8,6.7,12.5,7,12.5,7z M20.4,7c-0.1,0.1-0.3,0.2-0.6,0.2S19.5,7.1,19.3,7c-0.1-0.1-0.2-0.3-0.2-0.6c0-0.2,0.1-0.3,0.2-0.6
		c0.1-0.2,0.3-0.2,0.6-0.2s0.3,0.1,0.6,0.2c0.1,0.1,0.2,0.3,0.2,0.6C20.6,6.7,20.5,7,20.4,7z"/>
	<path class="st0" d="M7.2,23.2c0,0.6,0.2,1.1,0.6,1.5s0.9,0.6,1.5,0.6h1.3v4.3c0,0.6,0.2,1,0.6,1.3c0.3,0.3,0.8,0.6,1.3,0.6
		s1-0.2,1.3-0.6s0.6-0.8,0.6-1.3v-4.3H17v4.4c0,0.6,0.2,1,0.6,1.3c0.3,0.3,0.8,0.6,1.3,0.6c0.6,0,1-0.2,1.3-0.6s0.6-0.8,0.6-1.3
		v-4.3h1.5c0.6,0,1-0.2,1.5-0.6c0.4-0.4,0.6-0.9,0.6-1.5V10.7H6.9v12.5H7.2L7.2,23.2z"/>
	<path class="st0" d="M27.2,10.3c-0.6,0-0.9,0.2-1.3,0.6s-0.6,0.8-0.6,1.3v8.1c0,0.6,0.2,1,0.6,1.3s0.8,0.6,1.3,0.6
		c0.6,0,1-0.2,1.3-0.6s0.6-0.8,0.6-1.3v-8.1c0-0.6-0.2-1-0.6-1.3C28.1,10.5,27.7,10.3,27.2,10.3z"/>
</g>
</svg>
