<?xml version="1.0" encoding="utf-8"?>
<!-- Generator: Adobe Illustrator 22.1.0, SVG Export Plug-In . SVG Version: 6.00 Build 0)  -->
<svg version="1.0" xmlns="http://www.w3.org/2000/svg" xmlns:xlink="http://www.w3.org/1999/xlink" x="0px" y="0px"
	 viewBox="0 0 32 32" style="enable-background:new 0 0 32 32;" xml:space="preserve">
<style type="text/css">
	.st0{enable-background:new    ;}
	.st1{fill-rule:evenodd;clip-rule:evenodd;fill:#009DDD;}
	.st2{fill-rule:evenodd;clip-rule:evenodd;fill:#F7941F;}
</style>
<g id="Shape_1_1_" class="st0">
</g>
<g id="Shape_2_1_" class="st0">
	<g>
		<g id="Shape_1">
			<g>
				<path class="st1" d="M20.4,2.6C19,1.8,17.1,1.3,15,1.3c-2.1,0-4,0.5-5.4,1.3C8.1,3.4,7.1,4.6,7.1,6v12.2c0,1.4,1,2.6,2.4,3.4
					c1.3,0.7,3,1.2,4.9,1.3v3l0,1.4H5c-0.3-0.8-1-1.5-1.9-1.5c-1.1,0-2,0.9-2,2s0.9,2,2,2c0.9,0,1.7-0.6,2-1.5h11.5
					c-0.2-0.4-0.4-0.8-0.5-1.2h-0.4l0-1.4v-3c0.1,0,0.2,0,0.4,0c0.1-0.4,0.3-0.8,0.5-1.2c-0.5,0.1-0.9,0.1-1.4,0.1
					c-1.9,0-3.7-0.4-4.9-1.1s-1.8-1.5-1.8-2.4l0-1.6c0.4,0.3,0.8,0.7,1.3,0.9c1.4,0.8,3.3,1.3,5.4,1.3s4-0.5,5.4-1.3
					c0.5-0.3,0.9-0.6,1.3-0.9v0.9c0.4-0.1,0.8-0.1,1.2-0.2V6C22.9,4.6,21.9,3.4,20.4,2.6z M3,28.7c-0.5,0-0.9-0.4-0.9-0.9
					C2.2,27.4,2.6,27,3,27c0.5,0,0.9,0.4,0.9,0.9C3.9,28.3,3.5,28.7,3,28.7z M21.7,14.2c0,0.8-0.6,1.7-1.8,2.4
					c-1.2,0.7-2.9,1.1-4.9,1.1s-3.7-0.4-4.9-1.1S8.3,15,8.3,14.2l0-1.6c0.4,0.3,0.8,0.7,1.3,0.9c1.4,0.8,3.3,1.3,5.4,1.3
					s4-0.5,5.4-1.3c0.5-0.3,0.9-0.6,1.3-0.9V14.2z M21.7,10.1c0,0.8-0.6,1.7-1.8,2.4s-2.9,1.1-4.9,1.1s-3.7-0.4-4.9-1.1
					s-1.8-1.5-1.8-2.4l0-1.6c0.4,0.3,0.8,0.7,1.3,0.9c1.4,0.8,3.3,1.3,5.4,1.3s4-0.5,5.4-1.3c0.5-0.3,0.9-0.6,1.3-0.9V10.1z
					 M19.9,8.4C18.6,9,16.9,9.5,15,9.5S11.3,9,10.1,8.4S8.3,6.8,8.3,6c0-0.8,0.6-1.7,1.8-2.4c1.2-0.7,2.9-1.1,4.9-1.1
					c1.9,0,3.7,0.4,4.9,1.1s1.8,1.5,1.8,2.4C21.7,6.8,21.1,7.7,19.9,8.4z"/>
			</g>
		</g>
		<g id="Shape_2">
			<g>
				<path class="st2" d="M29.2,22.5L29.2,22.5c-0.8-2-2.6-3.4-4.7-3.8c-2.1-0.4-4.2,0.3-5.8,1.8c-1.5,1.5-2.1,3.7-1.7,5.8
					c0.4,2.1,1.9,3.8,3.8,4.6c2,0.8,4.2,0.6,6-0.6c1.8-1.2,2.8-3.2,2.8-5.3C29.7,24.1,29.5,23.2,29.2,22.5z M23.3,30.4
					c-3,0-5.5-2.4-5.5-5.4s2.4-5.4,5.5-5.4s5.5,2.4,5.5,5.4S26.3,30.4,23.3,30.4z M24,24.9l1.7-1.7c0.2-0.2,0.2-0.5,0-0.6
					c-0.2-0.2-0.5-0.2-0.6,0l-1.7,1.7l-1.7-1.7c-0.2-0.2-0.5-0.2-0.6,0c-0.2,0.2-0.2,0.5,0,0.6l1.7,1.7L21,26.6v0
					c-0.1,0.1-0.1,0.2-0.1,0.3c0,0.1,0,0.2,0.1,0.3c0.1,0.1,0.2,0.1,0.3,0.1c0.1,0,0.2-0.1,0.3-0.1l1.7-1.7l1.7,1.7
					c0.1,0.1,0.2,0.1,0.3,0.1c0.1,0,0.2,0,0.3-0.1c0.1-0.1,0.1-0.2,0.1-0.3c0-0.1-0.1-0.2-0.1-0.3L24,24.9z"/>
			</g>
		</g>
	</g>
</g>
</svg>
