<?xml version="1.0" encoding="utf-8"?>
<!-- Generator: Adobe Illustrator 19.2.1, SVG Export Plug-In . SVG Version: 6.00 Build 0)  -->
<svg version="1.1" id="Layer_1" xmlns="http://www.w3.org/2000/svg" xmlns:xlink="http://www.w3.org/1999/xlink" x="0px" y="0px"
	 viewBox="0 0 32 32" style="enable-background:new 0 0 32 32;" xml:space="preserve">
<style type="text/css">
	.st0{fill:#8CC63F;}
</style>
<path class="st0" d="M3.8,31h20.6c1.5,0,2.8-1.3,2.8-2.8c0-0.4-0.1-0.7-0.2-1.1c1.2-0.3,2.1-1.4,2.1-2.7c0-0.4-0.1-0.7-0.2-1.1
	c1.2-0.3,2.1-1.4,2.1-2.7c0-0.7-0.3-1.4-0.7-1.9c0.4-0.5,0.7-1.2,0.7-1.9c0-1.5-1.3-2.8-2.8-2.8h-7.5c-0.3,0-0.6,0-0.9,0.1
	c0.1-0.9,0.4-1.7,0.8-2.6c0.6-1.3,1-2.8,1-4.4V3.8c0-1.5-1.3-2.8-2.8-2.8C17.3,1,16,2.3,16,3.8c0,2.3-0.6,4.5-1.8,6.5l-2.7,4.5
	c-0.4,0.7-1.2,1.2-2,1.2H3.8C2.3,16,1,17.3,1,18.8v9.4C1,29.7,2.3,31,3.8,31L3.8,31z M24.4,29.1h-5.6c-0.5,0-0.9-0.4-0.9-0.9
	s0.4-0.9,0.9-0.9h5.6c0.5,0,0.9,0.4,0.9,0.9S25,29.1,24.4,29.1z M26.3,25.4h-7.5c-0.5,0-0.9-0.4-0.9-0.9s0.4-0.9,0.9-0.9h7.5
	c0.5,0,0.9,0.4,0.9,0.9S26.8,25.4,26.3,25.4z M28.2,21.6h-9.4c-0.5,0-0.9-0.4-0.9-0.9c0-0.5,0.4-0.9,0.9-0.9h9.4
	c0.5,0,0.9,0.4,0.9,0.9C29.1,21.2,28.7,21.6,28.2,21.6z M20.7,16h7.5c0.5,0,0.9,0.4,0.9,0.9c0,0.5-0.4,0.9-0.9,0.9h-7.5
	c-0.5,0-0.9-0.4-0.9-0.9C19.8,16.4,20.2,16,20.7,16z M2.9,18.8c0-0.5,0.4-0.9,0.9-0.9h5.6c1.5,0,2.9-0.8,3.6-2.1l2.7-4.5
	c1.4-2.3,2.1-4.8,2.1-7.5c0-0.5,0.4-0.9,0.9-0.9c0.5,0,0.9,0.4,0.9,0.9v3.5c0,1.2-0.3,2.4-0.8,3.6c-0.7,1.4-1.1,2.9-1.1,4.4v1.6
	c0,0.4,0.1,0.7,0.2,1.1c-1.2,0.3-2.1,1.4-2.1,2.7c0,0.7,0.3,1.4,0.7,1.9c-0.4,0.5-0.7,1.2-0.7,1.9s0.3,1.4,0.7,1.9
	c-0.4,0.5-0.7,1.2-0.7,1.9c0,0.3,0.1,0.6,0.1,0.9H3.8c-0.5,0-0.9-0.4-0.9-0.9L2.9,18.8z"/>
</svg>
