<?xml version="1.0" encoding="utf-8"?>
<!-- Generator: Adobe Illustrator 19.2.1, SVG Export Plug-In . SVG Version: 6.00 Build 0)  -->
<svg version="1.1" id="Capa_1" xmlns="http://www.w3.org/2000/svg" xmlns:xlink="http://www.w3.org/1999/xlink" x="0px" y="0px"
	 viewBox="0 0 32 32" style="enable-background:new 0 0 32 32;" xml:space="preserve">
<style type="text/css">
	.st0{fill:#789CA8;}
</style>
<g>
	<g>
		<path class="st0" d="M16,10.5c-3.1,0-5.5,2.5-5.5,5.5s2.5,5.5,5.5,5.5s5.5-2.5,5.5-5.5S19.1,10.5,16,10.5z M16,20.2
			c-2.3,0-4.1-1.8-4.1-4.1s1.8-4.1,4.1-4.1s4.1,1.8,4.1,4.1S18.3,20.2,16,20.2z"/>
		<path class="st0" d="M27.5,12h-0.2l-0.5-1.2l0.2-0.2c1.6-1.6,1.6-4.1,0-5.6c-1.6-1.6-4.1-1.6-5.6,0l-0.2,0.2L20,4.7V4.5
			c0-2.2-1.8-4-4-4s-4,1.8-4,4v0.2l-1.2,0.5L10.7,5C9.1,3.5,6.6,3.5,5,5s-1.6,4.1,0,5.6l0.2,0.2L4.7,12H4.5c-2.2,0-4,1.8-4,4
			s1.8,4,4,4h0.2l0.5,1.2L5,21.3c-1.6,1.6-1.6,4.1,0,5.6c1.6,1.6,4.1,1.6,5.6,0l0.2-0.2l1.2,0.5v0.2c0,2.2,1.8,4,4,4s4-1.8,4-4v-0.2
			l1.2-0.5l0.2,0.2c0.7,0.7,1.7,1.2,2.8,1.2c1.1,0,2.1-0.4,2.8-1.2c1.6-1.6,1.6-4.1,0-5.6l-0.2-0.2l0.5-1.2h0.2c2.2,0,4-1.8,4-4
			S29.7,12,27.5,12z M27.5,18.6h-1.2l-1.2,2.9l0.8,0.8c1,1,1,2.6,0,3.6c-0.5,0.5-1.1,0.8-1.8,0.8c-0.7,0-1.3-0.3-1.8-0.8l-0.8-0.8
			l-2.9,1.2v1.2c0,1.5-1.2,2.6-2.6,2.6s-2.6-1.2-2.6-2.6v-1.2l-2.9-1.2l-0.8,0.8c-1,1-2.6,1-3.6,0s-1-2.6,0-3.6l0.8-0.8l-1.2-2.9
			H4.5c-1.5,0-2.6-1.2-2.6-2.6c0-1.4,1.2-2.6,2.6-2.6h1.2l1.2-2.9L6,9.8c-1-1-1-2.6,0-3.6s2.6-1,3.6,0L10.4,7l2.9-1.2V4.6
			c0-1.5,1.2-2.6,2.6-2.6c1.4,0,2.6,1.2,2.6,2.6v1.2l2.9,1.2l0.8-0.8c1-1,2.6-1,3.6,0s1,2.6,0,3.6L25,10.6l1.2,2.9h1.2
			c1.5,0,2.6,1.2,2.6,2.6C30,17.5,28.9,18.6,27.5,18.6z"/>
	</g>
</g>
</svg>
