<?xml version="1.0" encoding="utf-8"?>
<!-- Generator: Adobe Illustrator 19.2.1, SVG Export Plug-In . SVG Version: 6.00 Build 0)  -->
<svg version="1.1" id="Layer_1" xmlns="http://www.w3.org/2000/svg" xmlns:xlink="http://www.w3.org/1999/xlink" x="0px" y="0px"
	 viewBox="0 0 32 32" style="enable-background:new 0 0 32 32;" xml:space="preserve">
<style type="text/css">
	.st0{fill:#F75555;}
	.st1{fill:#FFFFFF;}
</style>
<title>error</title>
<g id="Ellipse_1">
	<g id="Ellipse_1-2">
		<path class="st0" d="M16,30.6C7.9,30.6,1.4,24.1,1.4,16S7.9,1.4,16,1.4S30.6,7.9,30.6,16S24.1,30.6,16,30.6z"/>
		<path class="st0" d="M16,2.1c7.7,0,13.9,6.2,13.9,13.9S23.7,29.9,16,29.9S2.1,23.7,2.1,16S8.3,2.1,16,2.1 M16,0.6
			C7.5,0.6,0.6,7.5,0.6,16S7.5,31.4,16,31.4S31.4,24.5,31.4,16S24.5,0.6,16,0.6L16,0.6L16,0.6z"/>
	</g>
</g>
<g id="Forma_1_copy_2">
	<g id="Forma_1_copy_2-2">
		<path class="st1" d="M19.3,15.5l4.6-4.6c1-1,1-2.7,0-3.8s-2.7-1-3.8,0l-4.6,4.6l-4.6-4.6c-1-1-2.7-1-3.8,0s-1,2.7,0,3.8l4.6,4.6
			l-4.6,4.6c-1,1-1,2.7,0,3.8s2.7,1,3.8,0l4.6-4.6l4.6,4.6c1,1,2.7,1,3.8,0s1-2.7,0-3.8L19.3,15.5z"/>
	</g>
</g>
</svg>
