<?xml version="1.0" encoding="utf-8"?>
<!-- Generator: Adobe Illustrator 19.2.1, SVG Export Plug-In . SVG Version: 6.00 Build 0)  -->
<svg version="1.1" xmlns="http://www.w3.org/2000/svg" xmlns:xlink="http://www.w3.org/1999/xlink" x="0px" y="0px"
	 viewBox="0 0 32 32" style="enable-background:new 0 0 32 32;" xml:space="preserve">
<style type="text/css">
	.st0{enable-background:new    ;}
	.st1{fill-rule:evenodd;clip-rule:evenodd;fill:#C3CDD6;}
	.st2{fill:#C3CDD6;}
	.st3{fill-rule:evenodd;clip-rule:evenodd;fill:#F2F5F7;}
</style>
<g id="Layer_1_xA0_Image_1_">
</g>
<g id="Shape_1_1_" class="st0">
</g>
<g id="Ellipse_1_copy_1_" class="st0">
	<g>
		<g id="Shape_1">
			<g>
				<path class="st1" d="M17.4,0H4.9C3.1,0,3.1,1.6,3.1,1.6v11.1c0,0,0,12.3,0,14.7c0,0.1,0,0.2,0,0.2c0.1,2.2,1.8,2.1,1.8,2.1
					s15.9,0,17.3,0c1.4,0,2.1-1.6,2.1-1.6V6.9L17.4,0z M22.9,28.3H4.5V12.7V1.6h12.4V6c0,1.2,1.8,1.6,1.8,1.6h4.1V28.3z"/>
			</g>
		</g>
		<rect x="6.3" y="7.2" class="st2" width="9.4" height="1.1"/>
		<rect x="6.3" y="11.9" class="st2" width="7.2" height="1.1"/>
		<rect x="6.3" y="16.6" class="st2" width="7.2" height="1.1"/>
		<rect x="6.3" y="21.3" class="st2" width="9.4" height="1.1"/>
		<g id="Ellipse_1_copy">
			<g>
				<circle class="st3" cx="20.8" cy="23.9" r="7.6"/>
			</g>
			<g>
				<path class="st2" d="M20.8,16.9c3.9,0,7.1,3.2,7.1,7.1S24.7,31,20.8,31s-7.1-3.2-7.1-7.1S16.9,16.9,20.8,16.9 M20.8,15.9
					c-4.5,0-8.1,3.6-8.1,8.1s3.6,8.1,8.1,8.1c4.5,0,8.1-3.6,8.1-8.1S25.3,15.9,20.8,15.9L20.8,15.9z"/>
			</g>
		</g>
		<g>
			<path class="st2" d="M20.6,27.2c0.2,0.2,0.5,0.3,0.7,0.1c0.2-0.2,0.3-0.5,0.1-0.7l-0.1-0.1c-0.2-0.3-0.3-0.6-0.1-0.8l0.3-1
				c0.3-0.7,0.1-1.5-0.4-2c-0.1-0.1-0.3-0.1-0.3-0.1c-0.1,0-0.3,0.1-0.4,0.2c-0.2,0.2-0.2,0.5,0,0.7c0.3,0.3,0.3,0.6,0.2,0.9l-0.3,1
				C19.9,25.9,20.1,26.6,20.6,27.2L20.6,27.2z"/>
			<path class="st2" d="M21.6,21.4c0,0.9-1.4,0.9-1.4,0C20.2,20.5,21.6,20.5,21.6,21.4"/>
		</g>
	</g>
</g>
</svg>
