<?xml version="1.0" encoding="utf-8"?>
<!-- Generator: Adobe Illustrator 19.2.1, SVG Export Plug-In . SVG Version: 6.00 Build 0)  -->
<svg version="1.1" id="Layer_1" xmlns="http://www.w3.org/2000/svg" xmlns:xlink="http://www.w3.org/1999/xlink" x="0px" y="0px"
	 viewBox="0 0 32 32" style="enable-background:new 0 0 32 32;" xml:space="preserve">
<style type="text/css">
	.st0{display:none;}
	.st1{display:inline;}
	.st2{fill:none;stroke:#7AC143;stroke-width:2;stroke-miterlimit:10;}
	.st3{fill:none;stroke:#009DDC;stroke-width:2;stroke-miterlimit:10;}
	.st4{fill:none;stroke:#9E9E9E;stroke-width:1.5;stroke-miterlimit:10;}
</style>
<g id="Layer_1_1_" class="st0">
	<g class="st1">
		<path class="st2" d="M11.8,15c-2.1-2.1-2.1-6.1,0-8.8c2.4-2.1,6-2.1,8.7,0c2.4,2.4,2.4,6.1,0,8.8"/>
		<path class="st2" d="M9.8,16.8c-1.8-1.9-2.6-4-2.6-6.4s1-4.5,2.6-6.4c1.8-1.9,3.9-2.7,6.3-2.7s4.5,1.1,6.3,2.7
			c3.7,3.7,3.7,9.3,0,13.1"/>
		<path class="st3" d="M22.8,26.9h-2.1c-2.1-0.3-3.1-1.9-3.4-13.4c1-0.5,1.8-1.3,1.8-2.7c0-1.9-1.3-2.9-2.9-2.9
			c-1.8,0-2.9,1.3-2.9,2.9c0,1.3,0.8,2.4,1.8,2.7c-0.3,12-1.3,13.1-3.4,13.4H9.4c-1,0-1.8,0.8-1.8,1.9v1.3c0,0.3,0.3,0.8,0.8,0.8
			h15.7c0.3,0,0.8-0.3,0.8-0.8v-1.3C24.3,27.7,23.8,26.9,22.8,26.9z"/>
	</g>
</g>
<g id="Layer_2">
	<g>
		<path class="st4" d="M11.8,15c-2.1-2.1-2.1-6.1,0-8.8c2.4-2.1,6-2.1,8.7,0c2.4,2.4,2.4,6.1,0,8.8"/>
		<path class="st4" d="M9.8,16.8c-1.8-1.9-2.6-4-2.6-6.4s1-4.5,2.6-6.4c1.8-1.9,3.9-2.7,6.3-2.7s4.5,1.1,6.3,2.7
			c3.7,3.7,3.7,9.3,0,13.1"/>
		<path class="st4" d="M22.8,26.9h-2.1c-2.1-0.3-3.1-1.9-3.4-13.4c1-0.5,1.8-1.3,1.8-2.7c0-1.9-1.3-2.9-2.9-2.9
			c-1.8,0-2.9,1.3-2.9,2.9c0,1.3,0.8,2.4,1.8,2.7c-0.3,12-1.3,13.1-3.4,13.4H9.4c-1,0-1.8,0.8-1.8,1.9v1.3c0,0.3,0.3,0.8,0.8,0.8
			h15.7c0.3,0,0.8-0.3,0.8-0.8v-1.3C24.3,27.7,23.8,26.9,22.8,26.9z"/>
	</g>
</g>
</svg>
