<?xml version="1.0" encoding="utf-8"?>
<!-- Generator: Adobe Illustrator 19.2.1, SVG Export Plug-In . SVG Version: 6.00 Build 0)  -->
<svg version="1.1" id="Layer_1" xmlns="http://www.w3.org/2000/svg" xmlns:xlink="http://www.w3.org/1999/xlink" x="0px" y="0px"
	 viewBox="0 0 57 57" style="enable-background:new 0 0 57 57;" xml:space="preserve">
<style type="text/css">
	.st0{fill:#FFFFFF;}
	.st1{fill:#4CB1DC;}
	.st2{fill:#30A5D7;}
</style>
<title>icon-arrow-inactive</title>
<g>
	<g id="Ellipse_2_copy_2">
		<g id="Ellipse_2_copy_2-2">
			<path class="st0" d="M28.8,55c-14.4,0-26-11.6-26-26s11.6-26,26-26s26,11.6,26,26S43.2,55,28.8,55z"/>
			<path class="st1" d="M28.5,3.5c13.8,0,25,11.2,25,25s-11.2,25-25,25s-25-11.2-25-25S14.7,3.5,28.5,3.5 M28.5,1.5
				c-14.9,0-27,12.1-27,27s12.1,27,27,27s27-12.1,27-27S43.4,1.5,28.5,1.5L28.5,1.5z"/>
		</g>
	</g>
	<g id="Shape_2_copy">
		<g id="Shape_2_copy-2">
			<polygon class="st2" points="37.2,31.7 28.5,23.1 28.5,23.6 28.5,23.1 19.8,31.7 21.8,33.7 28.5,27 35.2,33.7 			"/>
		</g>
	</g>
</g>
</svg>
