<?xml version="1.0" encoding="utf-8"?>
<!-- Generator: Adobe Illustrator 19.2.1, SVG Export Plug-In . SVG Version: 6.00 Build 0)  -->
<svg version="1.1" id="Layer_1" xmlns="http://www.w3.org/2000/svg" xmlns:xlink="http://www.w3.org/1999/xlink" x="0px" y="0px"
	 viewBox="0 0 32 32" style="enable-background:new 0 0 32 32;" xml:space="preserve">
<style type="text/css">
	.st0{fill:#2D7CA9;}
</style>
<title>icon_additional_help</title>
<g id="Forma_1">
	<g id="Forma_1-2">
		<path class="st0" d="M3.8,22.3h24.3c1.1,0,1.9-0.8,1.9-1.9c0,0,0,0,0,0V4.6c0-1.1-0.9-1.9-1.9-1.9c0,0,0,0,0,0H3.8
			c-1.1,0-1.9,0.8-1.9,1.9c0,0,0,0,0,0v15.8C1.9,21.5,2.7,22.3,3.8,22.3C3.8,22.3,3.8,22.3,3.8,22.3z M4.4,5.7
			c0-0.3,0.2-0.5,0.5-0.5h22.2c0.3,0,0.5,0.2,0.5,0.5v13.6c0,0.3-0.2,0.5-0.5,0.5H4.9c-0.3,0-0.5-0.2-0.5-0.5V5.7z M31.7,28
			l-1.4-3.2c-0.2-0.4-0.5-0.6-0.9-0.6H2.6c-0.4,0-0.8,0.2-0.9,0.6L0.3,28c-0.1,0.3-0.1,0.7,0.1,0.9c0.2,0.3,0.5,0.4,0.8,0.4h29.6
			c0.3,0,0.6-0.2,0.8-0.4C31.8,28.6,31.9,28.3,31.7,28z M8.4,14.5v-1.7h2.1v1.7c0,0.4,0.3,0.6,0.6,0.6s0.6-0.3,0.6-0.6v-4.4
			c0-0.4-0.3-0.6-0.6-0.6c0,0,0,0,0,0c-0.9,0-0.6,1.3-0.6,2.2H8.4c0-0.9,0.2-2.2-0.6-2.2c-0.4,0-0.6,0.3-0.6,0.6l0,0v4.3
			c0,0.4,0.3,0.6,0.6,0.6S8.4,14.8,8.4,14.5z M13.4,15.1H16c0.3,0,0.5-0.2,0.5-0.5c0-0.3-0.2-0.5-0.5-0.5h-1.8v-1.4h1.6
			c0.3,0,0.5-0.2,0.5-0.5s-0.2-0.5-0.5-0.5h-1.6v-1.2h1.7c0.3,0,0.5-0.2,0.5-0.5c0-0.3-0.2-0.5-0.5-0.5c0,0,0,0,0,0h-2.4
			c-0.3,0-0.5,0.2-0.5,0.5v4.6C12.8,14.8,13,15.1,13.4,15.1C13.3,15.1,13.4,15.1,13.4,15.1z M17.8,15.1h2.5c0.3,0,0.5-0.2,0.5-0.5
			s-0.2-0.5-0.5-0.5h-1.7v-3.9c0-0.4-0.3-0.6-0.6-0.6c-0.4,0-0.6,0.3-0.6,0.6v4.5C17.3,14.9,17.5,15.1,17.8,15.1
			C17.8,15.1,17.8,15.1,17.8,15.1L17.8,15.1z M22.3,15.1c0.8,0,0.6-1.2,0.6-2c1,0.2,2.8-0.2,2.8-1.9c0-1.3-1-1.8-2.3-1.8
			c-0.7,0-1.8-0.1-1.8,0.5v4.5C21.6,14.8,21.9,15.1,22.3,15.1C22.2,15.1,22.2,15.1,22.3,15.1L22.3,15.1z M22.9,10.5
			c2.1-0.6,2,2.1,0,1.7V10.5z"/>
	</g>
</g>
</svg>
