<?xml version="1.0" encoding="utf-8"?>
<!-- Generator: Adobe Illustrator 22.1.0, SVG Export Plug-In . SVG Version: 6.00 Build 0)  -->
<svg version="1.1" id="Forma_1_1_" xmlns="http://www.w3.org/2000/svg" xmlns:xlink="http://www.w3.org/1999/xlink" x="0px" y="0px"
	 viewBox="0 0 32 32" style="enable-background:new 0 0 32 32;" xml:space="preserve">
<style type="text/css">
	.st0{fill-rule:evenodd;clip-rule:evenodd;fill:#0898D6;}
	.st1{fill:#0898D6;}
</style>
<g id="Forma_1">
	<g>
		<path class="st0" d="M26.9,13.4c-0.3-1-0.7-2.1-1.2-3l2.7-2.7l-0.3-0.3c-1-1-2.3-1.5-3.7-1.5c-0.9,0-1.8,0.2-2.6,0.7
			c-0.9-0.6-1.9-1-3-1.3V1.5h-0.5c-2.3,0-4.4,1.5-5,3.8c-1.1,0.3-2.1,0.7-3,1.2L7.6,3.8L7.3,4.1c-1.7,1.6-2,4.1-0.8,6.2
			c-0.6,0.9-1,1.9-1.3,3H1.3v0.5c0,2.3,1.6,4.3,3.8,4.9c0.3,1,0.7,2,1.2,3l-2.7,2.7l0.3,0.3c1,1,2.3,1.5,3.7,1.5
			c0.9,0,1.8-0.2,2.6-0.7c0.9,0.6,1.9,1,3,1.3v3.8h0.5c2.3,0,4.4-1.5,5-3.7c1.1-0.3,2.1-0.7,3-1.2l2.7,2.7l0.3-0.3
			c1.7-1.6,2-4.1,0.8-6.2c0.6-0.9,1-1.9,1.3-3h3.8v-0.5C30.7,16.1,29.1,14,26.9,13.4z M16,24.3c-4.6,0-8.3-3.7-8.3-8.3
			s3.7-8.3,8.3-8.3s8.3,3.7,8.3,8.3S20.6,24.3,16,24.3z"/>
	</g>
</g>
<path class="st1" d="M19.5,14.9H17c-0.2,0-0.4-0.2-0.4-0.4v-3.7c0-0.4-0.5-0.6-0.7-0.2l-3.7,5.9c-0.2,0.3,0,0.6,0.3,0.6H15
	c0.2,0,0.4,0.2,0.4,0.4v3.7c0,0.4,0.5,0.6,0.7,0.2l3.7-5.9C20.1,15.3,19.9,14.9,19.5,14.9L19.5,14.9z"/>
</svg>
