<?xml version="1.0" encoding="utf-8"?>
<!-- Generator: Adobe Illustrator 22.1.0, SVG Export Plug-In . SVG Version: 6.00 Build 0)  -->
<svg version="1.1" id="Layer_1" xmlns="http://www.w3.org/2000/svg" xmlns:xlink="http://www.w3.org/1999/xlink" x="0px" y="0px"
	 viewBox="0 0 32 32" style="enable-background:new 0 0 32 32;" xml:space="preserve">
<style type="text/css">
	.st0{fill:#1AA3D5;}
	.st1{fill:#FFFFFF;}
	.st2{fill:#FFFFFF;stroke:#1AA3D5;stroke-linejoin:round;stroke-miterlimit:10;}
</style>
<circle class="st0" cx="16" cy="16" r="12.5"/>
<g>
	<path class="st1" d="M16,7.8c-2.3,0-4.3,0.9-5.8,2.4l1,1c1.2-1.2,2.9-2,4.8-2s3.6,0.8,4.8,2l1-1C20.3,8.7,18.3,7.8,16,7.8L16,7.8z"
		/>
	<path class="st1" d="M16.4,14.7v-3.8c0-0.2-0.2-0.4-0.4-0.4s-0.4,0.2-0.4,0.4v3.8c-0.6,0.2-1,0.7-1,1.3c0,0.7,0.6,1.4,1.4,1.4
		s1.4-0.6,1.4-1.4C17.4,15.3,16.9,14.8,16.4,14.7L16.4,14.7z M16,16.6c-0.3,0-0.6-0.3-0.6-0.6s0.3-0.6,0.6-0.6s0.6,0.3,0.6,0.6
		S16.3,16.6,16,16.6z"/>
	<path class="st2" d="M16,3.5C9.1,3.5,3.5,9.1,3.5,16c0,4.5,2.4,8.4,5.9,10.6c1.9,1.2,4.2,1.9,6.6,1.9c2.5,0,4.7-0.7,6.7-1.9
		c3.5-2.2,5.8-6.1,5.8-10.6C28.5,9.1,22.9,3.5,16,3.5L16,3.5z M21.6,25.4c-1.4-1.3-3.4-2.1-5.5-2.1c-2.1,0-4.1,0.8-5.6,2.2
		C7.2,23.6,5,20,5,16C5,9.9,9.9,5,16,5s11,4.9,11,11C27,20,24.8,23.5,21.6,25.4L21.6,25.4z"/>
</g>
</svg>
