<?xml version="1.0" encoding="utf-8"?>
<!-- Generator: Adobe Illustrator 19.2.1, SVG Export Plug-In . SVG Version: 6.00 Build 0)  -->
<svg version="1.1" id="Layer_1" xmlns="http://www.w3.org/2000/svg" xmlns:xlink="http://www.w3.org/1999/xlink" x="0px" y="0px"
	 viewBox="0 0 32 32" style="enable-background:new 0 0 32 32;" xml:space="preserve">
<style type="text/css">
	.st0{fill:#B6CCD8;}
	.st1{fill:#FFFFFF;}
</style>
<g>
	<path class="st0" d="M3.2,2H29c0.6,0,1.2,0.5,1.2,1.2v25.7c0,0.6-0.5,1.2-1.2,1.2H3.2c-0.6,0-1.2-0.5-1.2-1.2V3.1
		C2.1,2.5,2.6,2,3.2,2z"/>
	<rect x="2.8" y="6.1" class="st1" width="26.6" height="23.2"/>
	<g>
		<path class="st0" d="M11.8,3.3h15.7c0.1,0,0.2,0.1,0.2,0.2v0.7c0,0.1-0.1,0.2-0.2,0.2H11.8c-0.1,0-0.2-0.1-0.2-0.2V3.5
			C11.5,3.4,11.6,3.3,11.8,3.3z"/>
		<path class="st0" d="M4.8,3.1c0.4,0,0.8,0.4,0.8,0.8c0,0.4-0.4,0.8-0.8,0.8c-0.4,0-0.8-0.4-0.8-0.8C3.9,3.4,4.3,3.1,4.8,3.1z
			 M9.1,3.1c0.4,0,0.8,0.4,0.8,0.8c0,0.4-0.4,0.8-0.8,0.8c-0.4,0-0.8-0.4-0.8-0.8C8.2,3.4,8.6,3.1,9.1,3.1z M6.9,3.1
			c0.4,0,0.8,0.4,0.8,0.8c0,0.4-0.4,0.8-0.8,0.8c-0.4,0-0.8-0.4-0.8-0.8C6.1,3.4,6.4,3.1,6.9,3.1z"/>
	</g>
	<rect x="4.6" y="8" class="st0" width="23.1" height="6.8"/>
	<rect x="20.2" y="16.9" class="st0" width="7.4" height="5.9"/>
	<path class="st0" d="M4.5,16.9h13.9V18H4.5V16.9L4.5,16.9z M4.5,25.4h13.9v1.1H4.5V25.4L4.5,25.4z M4.5,23.2h13.9v1.1H4.5V23.2
		L4.5,23.2z M4.5,21.1h13.9v1.1H4.5V21.1L4.5,21.1z M4.5,19h13.9v1.1H4.5V19L4.5,19z"/>
</g>
</svg>
