<?xml version="1.0" encoding="utf-8"?>
<!-- Generator: Adobe Illustrator 19.2.1, SVG Export Plug-In . SVG Version: 6.00 Build 0)  -->
<svg version="1.1" id="Layer_1" xmlns="http://www.w3.org/2000/svg" xmlns:xlink="http://www.w3.org/1999/xlink" x="0px" y="0px"
	 viewBox="0 0 32 32" style="enable-background:new 0 0 32 32;" xml:space="preserve">
<style type="text/css">
	.st0{fill:none;stroke:#009DDC;stroke-width:2;stroke-miterlimit:10;}
</style>
<g>
	<path class="st0" d="M11.5,27.1h-0.9c-1.6,0-2.4-0.9-2.4-2.9v-4.7c0-2.5-1.6-3.1-2.7-3.5c1.3-0.5,2.7-1.3,2.7-3.5V7.8
		c0-1.9,0.9-2.9,2.4-2.9h0.9"/>
</g>
<g>
	<path class="st0" d="M19.9,4.8h0.9c1.5,0,2.4,0.9,2.4,2.9v4.7c0,2.5,1.5,3.1,2.7,3.5c-1.3,0.5-2.7,1.3-2.7,3.5v4.7
		c0,1.9-0.9,2.9-2.4,2.9h-0.9"/>
</g>
</svg>
