<?xml version="1.0" encoding="utf-8"?>
<!-- Generator: Adobe Illustrator 21.0.0, SVG Export Plug-In . SVG Version: 6.00 Build 0)  -->
<svg version="1.1" xmlns="http://www.w3.org/2000/svg" xmlns:xlink="http://www.w3.org/1999/xlink" x="0px" y="0px"
	 viewBox="0 0 100 100" style="enable-background:new 0 0 100 100;" xml:space="preserve">
<style type="text/css">
	.st0{fill:none;stroke:#CBCBCB;stroke-width:2;stroke-linecap:round;stroke-linejoin:round;}
	.st1{fill:none;stroke:#C3CDD5;stroke-width:2;stroke-linecap:round;stroke-linejoin:round;}
	.st2{fill:none;stroke:#C3CDD5;stroke-width:2;stroke-linejoin:round;}
	.st3{fill:#C3CDD5;}
	.st4{fill:#FFFFFF;}
	.st5{fill:none;stroke:#C3CDD5;stroke-width:3;stroke-linecap:round;stroke-linejoin:round;}
</style>
<g id="Layer_1">
	<path class="st0" d="M1.7,85v6.7c0,1.8,1.5,3.3,1.9,3.3h49.8"/>
	<path class="st1" d="M95,55V28.3c0-1.8-1.5-3.3-3.3-3.3H5c-1.8,0-3.3,1.5-3.3,3.3V75"/>
	<path class="st2" d="M90,25V15c0-1.8-1.5-3.3-3.3-3.3H51.1c-0.7,0-1.4-0.2-2-0.7L37.6,2.3c-0.6-0.4-1.3-0.7-2-0.7H10
		C8.2,1.7,6.7,3.2,6.7,5v20"/>
	<path class="st2" d="M15,25v-3.3c0-1.8,1.5-3.3,3.3-3.3h60c1.8,0,3.3,1.5,3.3,3.3V25"/>
	<path class="st3" d="M0,80c0-0.9,0.7-1.7,1.7-1.7c0.9,0,1.7,0.7,1.7,1.7s-0.7,1.7-1.7,1.7C0.7,81.7,0,80.9,0,80"/>
</g>
<g id="Layer_2">
	<path class="st3" d="M48.4,39.9c-5.4,0-9.8,4.4-9.8,9.8s4.4,9.8,9.8,9.8s9.8-4.4,9.8-9.8S53.8,39.9,48.4,39.9z M48.4,43.6
		c3.4,0,6.1,2.7,6.1,6.1c0,3.4-2.7,6.1-6.1,6.1c-3.4,0-6.1-2.7-6.1-6.1C42.3,46.3,45,43.6,48.4,43.6z M48.4,60.5
		c-9.3,0-17,7.4-17,16.5v1h5.2v-1c0-6.3,5.2-11.4,11.8-11.4s11.8,5.1,11.8,11.4v1h5.2v-1C65.4,67.9,57.7,60.5,48.4,60.5z"/>
</g>
<g id="Layer_4">
	<circle class="st4" cx="75.2" cy="75" r="23"/>
</g>
<g id="Layer_3">
	<path class="st5" d="M98.3,75c0,12.9-10.4,23.3-23.3,23.3S51.7,87.9,51.7,75S62.1,51.7,75,51.7S98.3,62.1,98.3,75z"/>
	<path class="st5" d="M58.3,91.7l33.3-33.3"/>
</g>
</svg>
