<?xml version="1.0" encoding="utf-8"?>
<!-- Generator: Adobe Illustrator 19.2.1, SVG Export Plug-In . SVG Version: 6.00 Build 0)  -->
<svg version="1.1" id="Layer_1" xmlns="http://www.w3.org/2000/svg" xmlns:xlink="http://www.w3.org/1999/xlink" x="0px" y="0px"
	 viewBox="0 0 32 32" style="enable-background:new 0 0 32 32;" xml:space="preserve">
<style type="text/css">
	.st0{fill:none;stroke:#DD855E;stroke-width:0.75;stroke-miterlimit:10;}
	.st1{fill-rule:evenodd;clip-rule:evenodd;fill:#FF9700;}
</style>
<g>
	<g>
		<path class="st0" d="M22.9,0.6H9.7C8.9,0.6,8.3,1.4,8.3,2v28c0,0.8,0.8,1.4,1.4,1.4h13.2c0.8,0,1.4-0.8,1.4-1.4V2
			C24.6,1.2,24,0.6,22.9,0.6z M24,4H8.6 M20.7,28h2 M10.9,28h2 M15.1,27.8h3.6"/>
	</g>
</g>
<g id="Forma_1">
	<g>
		<path class="st1" d="M12.4,14.2L12.4,14.2c-0.4,0-0.6,0.3-0.6,0.6v2.7c0,0.3,0.3,0.6,0.6,0.6h0c0.3,0,0.6-0.3,0.6-0.6v-2.7
			C13.1,14.5,12.8,14.2,12.4,14.2z M13.4,18.5c0,0.3,0.3,0.6,0.6,0.6h0.6v1.4c0,0.3,0.3,0.6,0.6,0.6h0c0.3,0,0.6-0.3,0.6-0.6v-1.4
			h0.9v1.4c0,0.3,0.3,0.6,0.6,0.6h0c0.3,0,0.6-0.3,0.6-0.6v-1.4h0.6c0.3,0,0.6-0.3,0.6-0.6v-4.2h-5.8V18.5z M20.1,14.2L20.1,14.2
			c-0.4,0-0.7,0.3-0.7,0.6v2.7c0,0.3,0.3,0.6,0.6,0.6h0c0.3,0,0.6-0.3,0.6-0.6v-2.7C20.7,14.5,20.4,14.2,20.1,14.2z M17.7,11.8
			l0.5-0.7c0,0,0-0.1,0-0.1c0,0-0.1,0-0.1,0l-0.5,0.8c-0.4-0.2-0.8-0.2-1.2-0.2c-0.4,0-0.9,0.1-1.2,0.2l-0.5-0.8c0,0-0.1-0.1-0.1,0
			c0,0-0.1,0.1,0,0.1l0.5,0.7c-0.9,0.4-1.5,1.2-1.5,2.1c0,0.1,0,0.1,0,0.2h5.8c0-0.1,0-0.1,0-0.2C19.2,13,18.6,12.2,17.7,11.8z
			 M14.9,13.1c-0.2,0-0.3-0.1-0.3-0.3c0-0.2,0.1-0.3,0.3-0.3c0.2,0,0.3,0.1,0.3,0.3C15.2,13,15.1,13.1,14.9,13.1z M17.6,13.1
			c-0.2,0-0.3-0.1-0.3-0.3c0-0.2,0.1-0.3,0.3-0.3c0.2,0,0.3,0.1,0.3,0.3C17.9,13,17.7,13.1,17.6,13.1z"/>
	</g>
</g>
</svg>
