<?xml version="1.0" encoding="utf-8"?>
<!-- Generator: Adobe Illustrator 19.2.1, SVG Export Plug-In . SVG Version: 6.00 Build 0)  -->
<svg version="1.1" id="Layer_1" xmlns="http://www.w3.org/2000/svg" xmlns:xlink="http://www.w3.org/1999/xlink" x="0px" y="0px"
	 viewBox="0 0 32 32" style="enable-background:new 0 0 32 32;" xml:space="preserve">
<style type="text/css">
	.st0{fill:#575656;}
	.st1{fill:#E56973;}
</style>
<title>fix-reference</title>
<g id="Forma_1">
	<path class="st0" d="M19.5,11.7h-12c-0.6,0-1,0.5-1,1c0,0.6,0.5,1,1,1h12h0.1c0.2-0.5,0.4-1,0.8-1.5C20.3,12,19.9,11.7,19.5,11.7z
		 M7.6,19.5h11.7c-0.1-0.7-0.1-1.4-0.1-2H7.5c-0.6,0-1,0.5-1,1C6.5,19,7,19.5,7.6,19.5L7.6,19.5L7.6,19.5z M24.1,2.9h-3.8V1.4
		c0-0.6-0.5-1-1-1s-1,0.5-1,1v1.5h-3.7V1.4c0-0.6-0.5-1-1-1c-0.6,0-1,0.5-1,1c0,0,0,0,0,0v1.5H8.9V1.4c0-0.6-0.5-1-1-1
		c-0.6,0-1,0.5-1,1c0,0,0,0,0,0v1.5H3c-0.6,0-1,0.5-1,1v26.4c0,0.6,0.5,1,1,1h0h14.3l0.6-2H4V4.9h2.8v1.2c0,0.6,0.5,1,1,1
		c0.6,0,1-0.5,1-1c0,0,0,0,0,0V4.9h3.7v1.2c0,0.6,0.5,1,1,1c0.6,0,1-0.5,1-1c0,0,0,0,0,0V4.9h3.7v1.2c0,0.6,0.5,1,1,1s1-0.5,1-1V4.9
		H23v5.3c0.6-0.3,1.3-0.4,2-0.4V3.9C25.1,3.4,24.6,2.9,24.1,2.9z M7.5,23.1c-0.6,0-1,0.5-1,1c0,0.6,0.5,1,1,1l0,0h11.6l0.6-2h-0.1
		L7.5,23.1L7.5,23.1z"/>
</g>
<g id="Forma_1-2">
	<path class="st1" d="M29.2,14.6c-0.1-0.1-0.2-0.2-0.4-0.2c-0.1,0-0.3,0.1-0.3,0.2l-0.7,2c-0.2,0.6-0.9,0.9-1.5,0.7c0,0,0,0,0,0
		L25.1,17c-0.6-0.2-0.9-0.9-0.7-1.5l0.7-2c0-0.1,0-0.3-0.1-0.4C25,13,24.8,12.9,24.7,13c-1.3,0.4-2.3,1.4-2.8,2.6
		c-0.5,1.5-0.2,3.2,1,4.4l-3.3,9.5c-0.2,0.6,0.1,1.3,0.7,1.6c0,0,0,0,0,0l1.2,0.4c0.6,0.2,1.3-0.1,1.5-0.8c0,0,0,0,0,0l3.3-9.5
		c1.6-0.2,2.9-1.3,3.4-2.8C30.1,17.1,30,15.7,29.2,14.6z"/>
</g>
</svg>
