<?xml version="1.0" encoding="utf-8"?>
<!-- Generator: Adobe Illustrator 19.2.1, SVG Export Plug-In . SVG Version: 6.00 Build 0)  -->
<svg version="1.1" id="Layer_1" xmlns="http://www.w3.org/2000/svg" xmlns:xlink="http://www.w3.org/1999/xlink" x="0px" y="0px"
	 viewBox="0 0 32 32" style="enable-background:new 0 0 32 32;" xml:space="preserve">
<style type="text/css">
	.st0{fill:#23A3D7;}
	.st1{fill:#8FC44A;}
</style>
<title>details</title>
<g id="Forma_1">
	<path class="st0" d="M18,16.4c1.3-1.8,2-4.1,2-6.4c0-5.5-4-10-9-10S2,4.5,2,10c0,2.3,0.7,4.5,2,6.4c-2.4,0.8-4,3.1-4,5.6v4
		c0,3.3,2.7,6,6,6h10c3.3,0,6-2.7,6-6v-4C22,19.5,20.4,17.2,18,16.4z M4,10c0-4.4,3.1-8,7-8s7,3.6,7,8s-3.1,8-7,8S4,14.4,4,10z
		 M20,25.5c-0.1,2.6-2.3,4.6-4.9,4.5H6.9c-2.6,0.1-4.8-1.9-4.9-4.5v-3c0.1-2.2,1.6-4,3.8-4.4c3,2.5,7.4,2.5,10.4,0
		c2.1,0.4,3.7,2.2,3.8,4.4V25.5z"/>
</g>
<g id="Forma_1_copy">
	<path class="st1" d="M31,24h-6c-0.6,0-1,0.4-1,1s0.4,1,1,1h6c0.6,0,1-0.4,1-1S31.6,24,31,24z M23,8h8c0.6,0,1-0.4,1-1s-0.4-1-1-1
		h-8c-0.6,0-1,0.4-1,1S22.4,8,23,8z M31,12h-8c-0.6,0-1,0.4-1,1s0.4,1,1,1h8c0.6,0,1-0.4,1-1S31.6,12,31,12z M31,18h-6
		c-0.6,0-1,0.4-1,1s0.4,1,1,1h6c0.6,0,1-0.4,1-1S31.6,18,31,18z"/>
</g>
</svg>
