<?xml version="1.0" encoding="utf-8"?>
<!-- Generator: Adobe Illustrator 19.2.1, SVG Export Plug-In . SVG Version: 6.00 Build 0)  -->
<svg version="1.1" id="Layer_1" xmlns="http://www.w3.org/2000/svg" xmlns:xlink="http://www.w3.org/1999/xlink" x="0px" y="0px"
	 viewBox="0 0 32 32" style="enable-background:new 0 0 32 32;" xml:space="preserve">
<style type="text/css">
	.st0{fill:#9E9E9E;}
</style>
<g id="Layer_1_1_">
	<path class="st0" d="M23.7,25.6H2.5c-1.1,0-1.9-0.9-1.9-1.9V2.5c0-1.1,0.9-1.9,1.9-1.9h21.1c1.1,0,1.9,0.9,1.9,1.9v21.1
		C25.6,24.8,24.8,25.6,23.7,25.6z M3.1,23.1h20v-20h-20C3.1,3.1,3.1,23.1,3.1,23.1z M8.3,8.3h9.6v2.8H8.3V8.3z M8.3,14.1h5.8v2.8
		H8.3V14.1z"/>
</g>
<g id="Layer_2">
	<path class="st0" d="M29.5,31.4H8.3c-1.1,0-1.9-0.9-1.9-1.9v-0.9h22.1V6.4h0.9c1.1,0,1.9,0.9,1.9,1.9v21.1
		C31.4,30.5,30.5,31.4,29.5,31.4z"/>
</g>
</svg>
