<?xml version="1.0" encoding="utf-8"?>
<!-- Generator: Adobe Illustrator 19.2.1, SVG Export Plug-In . SVG Version: 6.00 Build 0)  -->
<svg version="1.1" id="Layer_1" xmlns="http://www.w3.org/2000/svg" xmlns:xlink="http://www.w3.org/1999/xlink" x="0px" y="0px"
	 viewBox="0 0 32 32" style="enable-background:new 0 0 32 32;" xml:space="preserve">
<style type="text/css">
	.st0{fill:#8C96A4;}
</style>
<g>
	<path class="st0" d="M10.5,14.6H5c-2.3,0-4.1-1.9-4.1-4.1V5c0-2.3,1.9-4.1,4.1-4.1h5.5c2.3,0,4.1,1.9,4.1,4.1v5.5
		C14.6,12.8,12.8,14.6,10.5,14.6z M5,3.6C4.2,3.6,3.6,4.2,3.6,5v5.5c0,0.4,0.1,0.7,0.4,1c0.3,0.3,0.6,0.4,1,0.4h5.5
		c0.4,0,0.7-0.1,1-0.4c0.3-0.3,0.4-0.6,0.4-1V5c0-0.4-0.1-0.7-0.4-1c-0.3-0.3-0.6-0.4-1-0.4L5,3.6z"/>
	<path class="st0" d="M10.5,31.2H5c-2.3,0-4.1-1.9-4.1-4.1v-5.5c0-2.3,1.9-4.1,4.1-4.1h5.5c2.3,0,4.1,1.9,4.1,4.1V27
		C14.6,29.3,12.8,31.2,10.5,31.2z M5,20.1c-0.8,0-1.4,0.6-1.4,1.4V27c0,0.4,0.1,0.7,0.4,1s0.6,0.4,1,0.4h5.5c0.4,0,0.7-0.1,1-0.4
		s0.4-0.6,0.4-1v-5.5c0-0.4-0.1-0.7-0.4-1s-0.6-0.4-1-0.4L5,20.1z"/>
	<path class="st0" d="M27,14.6h-5.5c-2.3,0-4.1-1.9-4.1-4.1V5c0-2.3,1.9-4.1,4.1-4.1H27c2.3,0,4.1,1.9,4.1,4.1v5.5
		C31.2,12.8,29.3,14.6,27,14.6z M21.5,3.6c-0.8,0-1.4,0.6-1.4,1.4v5.5c0,0.4,0.1,0.7,0.4,1c0.3,0.3,0.6,0.4,1,0.4H27
		c0.4,0,0.7-0.1,1-0.4c0.3-0.3,0.4-0.6,0.4-1V5c0-0.4-0.1-0.7-0.4-1c-0.3-0.3-0.6-0.4-1-0.4L21.5,3.6z"/>
	<path class="st0" d="M24.3,31.2c-2.8,0-5.3-1.7-6.4-4.3c-1.1-2.6-0.5-5.5,1.5-7.5c2-2,4.9-2.6,7.5-1.5c2.6,1.1,4.3,3.6,4.3,6.4
		c0,1.8-0.7,3.6-2,4.9C27.9,30.4,26.1,31.2,24.3,31.2L24.3,31.2z M24.3,20.1c-1.7,0-3.2,1-3.8,2.6c-0.6,1.5-0.3,3.3,0.9,4.5
		c1.2,1.2,3,1.5,4.5,0.9c1.5-0.6,2.6-2.1,2.6-3.8C28.4,22,26.6,20.1,24.3,20.1z"/>
</g>
</svg>
