<svg xmlns="http://www.w3.org/2000/svg" viewBox="0 0 32.1 31.1"><defs><style>.cls-1{opacity:0.5;}.cls-1,.cls-3{isolation:isolate;}.cls-2,.cls-4{fill-rule:evenodd;}.cls-4{fill:#fff;}.cls-5{fill:#84ca84;}</style></defs><title>icon-not-published</title><g id="Forma_1_copy_4" data-name="Forma 1 copy 4" class="cls-1"><g id="Forma_1_copy_4-2" data-name="Forma 1 copy 4"><path class="cls-2" d="M21,2.46H17.3V1H6.7V2.46H3A3,3,0,0,0,0,5.51V28.95A3,3,0,0,0,3,32H21a3,3,0,0,0,3-3.05V5.51A3,3,0,0,0,21,2.46Zm-13-.2h8.1V3.92H7.95V2.26ZM22.75,28.95A1.78,1.78,0,0,1,21,30.74H3a1.78,1.78,0,0,1-1.77-1.79V5.51A1.78,1.78,0,0,1,3,3.72H6.7V5.18H17.3V3.72H21a1.78,1.78,0,0,1,1.77,1.79V28.95ZM10.33,10.86h-7v1.26h7V10.86Zm-7,4.35H17.37V13.94H3.29v1.26Z" transform="translate(0 -1)"/></g></g><g id="Ellipse_1_copy_4" data-name="Ellipse 1 copy 4" class="cls-3"><g id="Ellipse_1_copy_4-2" data-name="Ellipse 1 copy 4"><path class="cls-4" d="M19.5,31.1A11.6,11.6,0,1,1,31.1,19.5,11.61,11.61,0,0,1,19.5,31.1Z" transform="translate(0 -1)"/><path class="cls-5" d="M19.5,8.9A10.6,10.6,0,1,1,8.9,19.5,10.61,10.61,0,0,1,19.5,8.9m0-2A12.6,12.6,0,1,0,32.1,19.5,12.6,12.6,0,0,0,19.5,6.9h0Z" transform="translate(0 -1)"/></g></g><g id="Rectangle_1" data-name="Rectangle 1" class="cls-3"><g id="Rectangle_1-2" data-name="Rectangle 1"><rect class="cls-5" x="7.13" y="18.52" width="25" height="2" transform="translate(-8.05 18.13) rotate(-44.04)"/></g></g></svg>