<?xml version="1.0" encoding="utf-8"?>
<!-- Generator: Adobe Illustrator 19.2.1, SVG Export Plug-In . SVG Version: 6.00 Build 0)  -->
<svg version="1.1" id="Layer_1" xmlns="http://www.w3.org/2000/svg" xmlns:xlink="http://www.w3.org/1999/xlink" x="0px" y="0px"
	 viewBox="0 0 32 32" style="enable-background:new 0 0 32 32;" xml:space="preserve">
<style type="text/css">
	.st0{enable-background:new    ;}
	.st1{fill:#8C96A5;}
	.st2{fill:#F3F5F8;}
</style>
<g id="Shape_1_1_" class="st0">
</g>
<g id="Rounded_Rectangle_1_1_" class="st0">
</g>
<g id="JAR">
	<g>
		<g id="Shape_1">
			<g>
				<path class="st1" d="M22.2,0.1H8.8c-2,0-2,1.7-2,1.7v11.8h1.5V1.8h13.3v4.7c0,1.3,2,1.7,2,1.7H28v22.2H8.3v-3.9H6.9
					c0,0,0,0.3,0,3c0,0.1,0,0.2,0,0.3c0.1,2.4,2,2.2,2,2.2s17.1,0,18.5,0c1.5,0,2.2-1.7,2.2-1.7V7.5L22.2,0.1z"/>
			</g>
		</g>
		<g id="Rounded_Rectangle_1">
			<g>
				<path class="st1" d="M23.7,15.6H3.9c-0.8,0-1.5,0.7-1.5,1.5V23c0,0.8,0.7,1.5,1.5,1.5h19.7c0.8,0,1.5-0.7,1.5-1.5v-5.9
					C25.1,16.3,24.5,15.6,23.7,15.6z"/>
			</g>
		</g>
		<g>
			<path class="st2" d="M6.6,21.2c0.1,0.1,0.2,0.1,0.4,0.1c0.4,0,0.6-0.3,0.6-0.7v-2.9h1v3.1c0,0.8-0.4,1.3-1.3,1.3
				c-0.3,0-0.5,0-0.7-0.1L6.6,21.2z"/>
			<path class="st2" d="M10.8,22l1.6-4.3h1.2l1.6,4.3h-1L14,20.9h-1.8L11.8,22H10.8z M12.3,20.2h1.4l-0.7-2L12.3,20.2z"/>
			<path class="st2" d="M17.7,22v-4.3h1.7c0.7,0,1.5,0.3,1.5,1.1c0,0.6-0.4,1-1,1.1c0.4,0.1,0.5,0.3,0.7,0.7l0.5,1.4h-1l-0.4-1.1
				c-0.2-0.5-0.3-0.7-0.8-0.7h-0.3V22H17.7z M18.6,19.5H19c0.4,0,0.9-0.1,0.9-0.7c0-0.5-0.4-0.6-0.9-0.6h-0.5v1.3H18.6z"/>
		</g>
	</g>
</g>
</svg>
