<?xml version="1.0" encoding="utf-8"?>
<!-- Generator: Adobe Illustrator 19.2.1, SVG Export Plug-In . SVG Version: 6.00 Build 0)  -->
<svg version="1.1" id="Layer_2" xmlns="http://www.w3.org/2000/svg" xmlns:xlink="http://www.w3.org/1999/xlink" x="0px" y="0px"
	 viewBox="0 0 32 32" style="enable-background:new 0 0 32 32;" xml:space="preserve">
<style type="text/css">
	.st0{fill:#1AA4D5;}
</style>
<path class="st0" d="M16,2.9c-3.1,0-6,1.2-8.2,3.4s-3.4,5.1-3.4,8.2s1.2,6,3.4,8.2s5.1,3.4,8.2,3.4s6-1.2,8.2-3.4s3.4-5.1,3.4-8.2
	s-1.2-6-3.4-8.2S19.1,2.9,16,2.9z M16.9,19.1c0,0.7-0.4,1.2-1.1,1.2c-0.7,0-1.2-0.4-1.2-1.1c0-0.9,0.4-1.3,1.2-1.3
	C16.3,17.9,17,18.3,16.9,19.1L16.9,19.1z M18.5,13.8c-0.3,0.3-0.7,0.5-1,0.7c-0.5,0.3-0.8,0.9-0.7,1.5c0,0.4-0.3,0.8-0.7,0.9
	c-0.4,0.2-0.9,0-1.2-0.4c-0.1-0.1-0.1-0.3-0.1-0.5c0-1.1,0.5-2.1,1.3-2.7c0.4-0.3,0.7-0.6,1.1-0.9c0.2-0.2,0.3-0.4,0.3-0.7
	c0.1-0.7-0.4-1.1-1.1-1.1c-0.8-0.1-1.5,0.2-2,0.9c-0.2,0.4-0.6,0.5-1,0.5c-0.7-0.1-1-0.7-0.7-1.3c0.3-0.6,0.8-1.1,1.5-1.4
	c0.7-0.3,1.4-0.5,2.1-0.5c0.4,0,0.8,0.1,1.2,0.2c1.2,0.4,2,1.3,2.1,2.7h0C19.6,12.4,19.2,13.3,18.5,13.8L18.5,13.8z"/>
</svg>
