<?xml version="1.0" encoding="utf-8"?>
<!-- Generator: Adobe Illustrator 19.2.1, SVG Export Plug-In . SVG Version: 6.00 Build 0)  -->
<svg version="1.1" id="Layer_1" xmlns="http://www.w3.org/2000/svg" xmlns:xlink="http://www.w3.org/1999/xlink" x="0px" y="0px"
	 viewBox="0 0 32 32" style="enable-background:new 0 0 32 32;" xml:space="preserve">
<style type="text/css">
	.st0{fill:#9E9E9E;}
</style>
<g id="Layer_1_1_">
	<path class="st0" d="M15.6,26.2c0.3,0,0.5,0.2,0.5,0.5s-0.2,0.5-0.5,0.5H8.5C8.2,27.2,8,27,8,26.7s0.2-0.5,0.5-0.5H15.6z M7,18.3
		c-0.3,0-0.5,0.2-0.5,0.5s0.2,0.5,0.5,0.5s0.5-0.2,0.5-0.5S7.3,18.3,7,18.3z M7,23.6c-0.3,0-0.5,0.2-0.5,0.5s0.2,0.5,0.5,0.5
		s0.5-0.2,0.5-0.5S7.3,23.6,7,23.6z M7,26.2c-0.3,0-0.5,0.2-0.5,0.5s0.2,0.5,0.5,0.5s0.5-0.2,0.5-0.5S7.3,26.2,7,26.2z M7,20.9
		c-0.3,0-0.5,0.2-0.5,0.5S6.7,22,7,22s0.5-0.2,0.5-0.5S7.3,20.9,7,20.9z M18.6,27.3c0.3,0,0.5-0.2,0.5-0.5s-0.2-0.5-0.5-0.5
		s-0.5,0.2-0.5,0.5S18.3,27.3,18.6,27.3z M16.7,26.7c0,0.3,0.2,0.5,0.5,0.5s0.5-0.2,0.5-0.5s-0.2-0.5-0.5-0.5
		C16.9,26.2,16.7,26.4,16.7,26.7z M20.5,27c-0.3-0.2-0.6-0.4-0.8-0.6c-0.1,0.1-0.2,0.2-0.2,0.4c0,0.3,0.2,0.5,0.5,0.5
		S20.5,27.2,20.5,27L20.5,27z M17.9,23.6H8.5c-0.3,0-0.5,0.2-0.5,0.5s0.2,0.5,0.5,0.5h10C18.2,24.3,18.1,23.9,17.9,23.6L17.9,23.6z
		 M8.5,22h9.2c0-0.2,0-0.5,0-0.7c0-0.1,0-0.2,0-0.4H8.5c-0.3,0-0.5,0.2-0.5,0.5C7.9,21.8,8.1,22,8.5,22z M7.9,18.9
		c0,0.3,0.2,0.5,0.5,0.5h9.4c0.1-0.4,0.2-0.7,0.4-1.1H8.5C8.1,18.3,7.9,18.6,7.9,18.9L7.9,18.9z M23.7,28.1c-0.3,1-1.2,1.7-2.2,1.7
		H5.8c-1.3,0-2.3-1-2.3-2.3V4.6c0-1.3,1-2.3,2.3-2.3h15.7c1.3,0,2.3,1,2.3,2.3v10c0.2,0,0.4,0,0.5,0s0.4,0,0.5,0v-10
		c0-1.9-1.5-3.4-3.4-3.4H5.8c-1.9,0-3.4,1.5-3.4,3.4v22.9c0,1.9,1.5,3.4,3.4,3.4h15.7c1.6,0,3-1.2,3.3-2.7c-0.1,0-0.3,0-0.5,0
		C24.1,28.1,23.9,28.1,23.7,28.1L23.7,28.1z M13.6,10C12.2,10,11,8.9,11,7.5s1.2-2.6,2.6-2.6s2.6,1.1,2.6,2.6S15.1,10,13.6,10z
		 M13.6,9c0.9,0,1.5-0.7,1.5-1.5S14.5,6,13.6,6s-1.5,0.7-1.5,1.5S12.8,9,13.6,9z M13.5,10.7h0.2c2.2,0,4,1.8,4,4v1H9.5v-1
		C9.5,12.5,11.3,10.7,13.5,10.7L13.5,10.7z M10.6,14.6h6.1c-0.1-1.5-1.4-2.8-2.9-2.8h-0.2C11.9,11.8,10.6,13,10.6,14.6L10.6,14.6z"
		/>
</g>
<g id="Layer_1_copy">
	<path class="st0" d="M29.7,21.2v0.2c0,0.4-0.3,0.6-0.6,0.6c-0.3,0-0.5,0.2-0.6,0.5c0,0.1-0.1,0.2-0.1,0.3c-0.1,0.2-0.1,0.3-0.2,0.5
		s-0.1,0.6,0.1,0.8c0.2,0.2,0.2,0.7,0,0.9l-0.1,0.1c-0.2,0.2-0.7,0.2-0.9,0c-0.2-0.2-0.5-0.2-0.8-0.1c-0.1,0.1-0.2,0.1-0.3,0.1
		c-0.1,0.1-0.3,0.1-0.4,0.1c-0.3,0.1-0.5,0.3-0.5,0.6c0,0.4-0.3,0.6-0.6,0.6h-0.2c-0.4,0-0.6-0.3-0.6-0.6c0-0.3-0.2-0.5-0.5-0.6
		c-0.1,0-0.3-0.1-0.4-0.2c-0.1,0-0.2-0.1-0.3-0.1c-0.2-0.1-0.6-0.1-0.8,0.1c-0.2,0.2-0.7,0.2-0.9,0h-0.5c-0.2-0.2-0.2-0.7,0-0.9
		c0.2-0.2,0.2-0.5,0.1-0.8c-0.1-0.1-0.1-0.2-0.2-0.4c-0.1-0.1-0.1-0.2-0.1-0.4C20.2,22.2,20,22,19.7,22c-0.4,0-0.6-0.3-0.6-0.6v-0.2
		c0-0.4,0.3-0.6,0.6-0.6h0.5c0.1-0.3,0.1-0.6,0.2-0.9c0-0.1,0.1-0.2,0.2-0.4c0.1-0.2,0.1-0.6-0.1-0.8c-0.2-0.2-0.2-0.7,0-0.9
		l0.1-0.1c0.2-0.2,0.7-0.2,0.9,0c0.2,0.2,0.5,0.2,0.8,0.1c0.1-0.1,0.2-0.1,0.3-0.1c0.1,0,0.3-0.1,0.4-0.1c0.3-0.1,0.5-0.4,0.5-0.6
		c0-0.4,0.3-0.6,0.6-0.6h0.2c0.4,0,0.6,0.3,0.6,0.6c0,0.3,0.2,0.5,0.5,0.6c0.1,0,0.2,0.1,0.4,0.1s0.2,0.1,0.4,0.2
		c0.2,0.1,0.6,0.1,0.8-0.1c0.2-0.2,0.7-0.2,0.9,0l0.1,0.1c0.2,0.2,0.2,0.7,0,0.9c-0.2,0.2-0.2,0.5-0.1,0.8c0.1,0.1,0.1,0.2,0.1,0.3
		c0,0.1,0.1,0.3,0.1,0.5c0.1,0.3,0.4,0.5,0.6,0.5C29.4,20.6,29.7,20.9,29.7,21.2L29.7,21.2z M26.5,20.8c-0.2-0.8-0.8-1.4-1.6-1.6
		c-1.6-0.4-3,1-2.6,2.6c0.2,0.8,0.8,1.4,1.6,1.6C25.4,23.8,26.8,22.4,26.5,20.8z M24.4,20.5c-0.4,0-0.8,0.4-0.8,0.8s0.4,0.8,0.8,0.8
		s0.8-0.4,0.8-0.8S24.8,20.5,24.4,20.5z"/>
</g>
</svg>
