<?xml version="1.0" encoding="utf-8"?>
<!-- Generator: Adobe Illustrator 19.2.1, SVG Export Plug-In . SVG Version: 6.00 Build 0)  -->
<svg version="1.1" xmlns="http://www.w3.org/2000/svg" xmlns:xlink="http://www.w3.org/1999/xlink" x="0px" y="0px"
	 viewBox="0 0 32 32" style="enable-background:new 0 0 32 32;" xml:space="preserve">
<style type="text/css">
	.st0{enable-background:new    ;}
	.st1{fill-rule:evenodd;clip-rule:evenodd;fill:#DCDCDC;}
	.st2{fill-rule:evenodd;clip-rule:evenodd;fill:#EE8B00;}
</style>
<g id="Ellipse_1_1_" class="st0">
</g>
<g id="Ellipse_2_copy_1_" class="st0">
	<g>
		<g id="Ellipse_1">
			<g>
				<path class="st1" d="M16,0.2C7.2,0.2,0.2,7.3,0.2,16S7.2,31.8,16,31.8c8.7,0,15.8-7.1,15.8-15.8S24.7,0.2,16,0.2z M16,27.9
					C9.4,27.9,4.1,22.6,4.1,16S9.4,4.1,16,4.1c6.6,0,11.9,5.3,11.9,11.9S22.5,27.9,16,27.9z"/>
			</g>
		</g>
		<g id="Ellipse_2_copy">
			<g>
				<path class="st2" d="M31.8,16c0-8.7-7.1-15.8-15.8-15.8c-0.2,0-0.4,0-0.7,0c-0.1,0-0.2,0-0.3,0c-1.1,0-2,0.9-2,2
					c0,1.1,0.9,2,2,2c0.1,0,0.2,0,0.2,0v0.1c0.2,0,0.5,0,0.7,0c6.6,0,11.9,5.3,11.9,11.9c0,0.3,0,0.7,0,1h0.1c0.2,1,1,1.7,1.9,1.7
					c1.1,0,2-0.9,2-2.1c0-0.1,0-0.1,0-0.2C31.8,16.3,31.8,16.1,31.8,16z"/>
			</g>
		</g>
	</g>
</g>
</svg>
