<?xml version="1.0" encoding="utf-8"?>
<!-- Generator: Adobe Illustrator 19.2.1, SVG Export Plug-In . SVG Version: 6.00 Build 0)  -->
<svg version="1.1" id="Layer_1" xmlns="http://www.w3.org/2000/svg" xmlns:xlink="http://www.w3.org/1999/xlink" x="0px" y="0px"
	 viewBox="0 0 32 32" style="enable-background:new 0 0 32 32;" xml:space="preserve">
<style type="text/css">
	.st0{fill:#00A3D9;}
	.st1{fill:#FF6600;}
	.st2{fill:#8CC63F;}
</style>
<g>
	<g>
		<g>
			<path class="st0" d="M13.1,10.7l-0.3,0.1C12,11,11,11,10.1,10.2C9.5,9.5,9,8.8,8.6,8C8.3,7.4,8.1,6.6,8,6
				C7.3,3.3,8.5,1.7,9.7,1.6c0.9-0.1,2,0.4,2.1,2.9c0,2.4-0.3,4.7,1,5.9C13,10.5,13.1,10.7,13.1,10.7"/>
		</g>
	</g>
	<g>
		<g>
			<path class="st0" d="M14.4,12.3c4.2-0.4,7.6-4.3,8.5-5.7C24.1,4,23.7,2.3,22.2,2c-1.4-0.4-2.8,0.5-3.9,2.9
				c-1,2.4-2.1,5.2-4.7,6.3c0,0-1.1,0.6-2.7,0.3C11.1,11.3,11.9,12.6,14.4,12.3"/>
		</g>
	</g>
	<g>
		<g>
			<path class="st1" d="M9,15.2L9,15.2L9.1,15c0.3-1.8-0.4-3.5-1.8-4.5C6.9,10,6.4,9.8,6.2,9.5C5.6,9.3,5.1,9.2,4.4,9.2
				C2.3,9,0.9,10,1,11.3c0.1,0.9,0.5,2.1,2.8,2.1C6.1,13.7,7.7,13.9,9,15.2"/>
		</g>
	</g>
	<g>
		<g>
			<path class="st1" d="M9.3,11.9c0,0,0.9,1.9,0.4,3.9c-0.6,2.1-2.8,3.5-4.7,4.5c-1.9,1-2.4,2.7-2.1,3.4c0.6,1.1,2.1,1.6,3.9,0.9
				c1.3-0.6,4.8-3,4.4-7.6C10.9,13.1,9.3,11.9,9.3,11.9"/>
		</g>
	</g>
	<g>
		<g>
			<path class="st2" d="M12.9,19.5c1.3-2.4,2.9-3.2,2.9-3.2c3.9-1.9,9.8,2,10.5,2.4c0.9,0.5,3.4,1.3,4.4-0.9
				c0.9-1.8-0.3-2.9-1.8-3.9c-2.4-1.5-10.2-4.2-14.6,2C14.1,16.1,13.4,17.4,12.9,19.5"/>
		</g>
	</g>
	<g>
		<g>
			<path class="st2" d="M20.2,25.9c-0.6-0.9-4.8-4.2-4.7-8.3v-0.4l-0.3,0.1c-1.3,0.9-2.4,2.1-2.4,3.5c-0.1,0.6-0.1,1.4,0.1,2.1
				c0.5,2.1,1.5,4.2,2.9,5.7c1.9,1.9,3.5,2.1,4.4,1.1C21.3,28.6,21.1,27.2,20.2,25.9"/>
		</g>
	</g>
</g>
</svg>
