<svg xmlns="http://www.w3.org/2000/svg" viewBox="0 0 31.48 31.48"><defs><style>.cls-1{opacity:0.6;isolation:isolate;}.cls-2{fill-rule:evenodd;}</style></defs><title>call</title><g id="Forma_1" data-name="Forma 1" class="cls-1"><g id="Forma_1-2" data-name="Forma 1"><path class="cls-2" d="M17.74,1.51a15.74,15.74,0,0,0,0,31.48,1,1,0,0,0,0-1.94,13.8,13.8,0,1,1,13.8-13.8,8.94,8.94,0,0,1-4.11,7.67,5.94,5.94,0,0,1-2.85.73,4.55,4.55,0,0,0,1.53-1.47,2.06,2.06,0,0,0,.23-0.35,15.76,15.76,0,0,0,.54-2.43c0.23-1-4.49-3-4.9-1.75A12.33,12.33,0,0,1,21.3,22,1,1,0,0,1,20,21.86c-1.08-.92-2.28-2.27-3.33-3.33h0l-0.09-.09-0.09-.09h0C15.39,17.3,14,16.1,13.13,15A1,1,0,0,1,13,13.69,12.27,12.27,0,0,1,15.34,13c1.28-.41-0.72-5.13-1.75-4.9a15.57,15.57,0,0,0-2.42.53,2.29,2.29,0,0,0-.35.23c-2.7,1.71-3,5.86-.41,9,1,1.18,2.05,2.33,3.13,3.45h0l0.09,0.09,0.08,0.09h0a29.68,29.68,0,0,0,4.6,4.1c4.53,3,8,2.18,10.06,1.06,3.54-1.95,5.12-6.11,5.12-9.37A15.76,15.76,0,0,0,17.74,1.51Zm0.32,9.17a6.73,6.73,0,0,1,6.73,6.73h1.61a8.34,8.34,0,0,0-8.33-8.33v1.6Zm9.5,6.73h1.61A11.11,11.11,0,0,0,18.06,6.31v1.6A9.51,9.51,0,0,1,27.56,17.41Z" transform="translate(-2 -1.51)"/></g></g></svg>