<svg xmlns="http://www.w3.org/2000/svg" viewBox="0 0 93 30"><defs><style>.cls-1{isolation:isolate;}.cls-2{fill:#fff;fill-rule:evenodd;}</style></defs><title>arrow</title><g id="Shape_1" data-name="Shape 1" class="cls-1"><g id="Shape_1-2" data-name="Shape 1"><path class="cls-2" d="M93.8,5.62c-3.2,1.94-10.5,8.6-30.52,6.72,0,0-1.71,2.52,3,3.09S85.26,13.33,90,10.88c0,0-37.18,43.62-82.66,7.5,0,0-2.22-1.7-3.35.25,0,0,43.06,41.41,89.3-7.44,0,0-1.59,13.71-6.75,19.59,0,0-.4,3.53,2.7.81,0,0,3.46-3.73,7.75-24.55C97,7,97,3.67,93.8,5.62Z" transform="translate(-4 -5.01)"/></g></g></svg>