<?xml version="1.0" encoding="utf-8"?>
<!-- Generator: Adobe Illustrator 19.2.1, SVG Export Plug-In . SVG Version: 6.00 Build 0)  -->
<svg version="1.1" id="Layer_1" xmlns="http://www.w3.org/2000/svg" xmlns:xlink="http://www.w3.org/1999/xlink" x="0px" y="0px"
	 viewBox="0 0 32 32" style="enable-background:new 0 0 32 32;" xml:space="preserve">
<style type="text/css">
	.st0{fill:#007DC1;}
</style>
<g>
	<g>
		<g>
			<path class="st0" d="M4.2,13.4c-2.2,0-4,1.8-4,4s1.8,4,4,4s4-1.8,4-4S6.4,13.4,4.2,13.4z M4.2,19.3c-1.1,0-2-0.9-2-2s0.9-2,2-2
				s2,0.9,2,2C6.2,18.4,5.3,19.3,4.2,19.3z"/>
		</g>
		<path class="st0" d="M11.2,18.6c0-0.3,0.4-0.5,0.6-0.2c1,1,2.6,2.7,2.6,2.7c0,0,0,0.1,0.1,0.1c0,0,0.1,0,0.2,0h1.8
			c0.3,0,0.4-0.4,0.3-0.6l-3-3l-0.2-0.2c-0.3-0.4-0.3-0.6,0.1-1l2.3-2.6c0.1-0.2,0.1-0.6-0.3-0.6h-1.6c-0.1,0-0.1,0-0.2,0
			c-0.1,0-0.1,0.1-0.2,0.1c0,0-1.3,1.4-2.1,2.3c-0.2,0.2-0.6,0.1-0.6-0.2V11c0-0.2-0.2-0.3-0.3-0.3H9.5c-0.2,0-0.3,0.1-0.3,0.3v9.9
			c0,0.2,0.2,0.3,0.3,0.3h1.3c0.2,0,0.3-0.1,0.3-0.3v-0.1L11.2,18.6L11.2,18.6z"/>
		<path class="st0" d="M22,20.9l-0.1-1.3c0-0.2-0.2-0.3-0.4-0.3c-0.1,0-0.2,0-0.3,0c-1.1,0-1.9-0.8-2-1.9c0,0,0-0.1,0-0.1v-1.6
			c0-0.2,0.2-0.4,0.4-0.4h1.8c0.1,0,0.3-0.1,0.3-0.3v-1.2c0-0.2-0.2-0.4-0.3-0.4h-1.8c-0.2,0-0.4-0.1-0.4-0.4v-2
			c0-0.1-0.1-0.3-0.3-0.3h-1.3c-0.2,0-0.3,0.1-0.3,0.3c0,0,0,6.4,0,6.4c0.1,2.1,1.8,3.8,4,3.8c0.2,0,0.4,0,0.5,0
			C21.9,21.2,22,21.1,22,20.9z"/>
	</g>
	<g>
		<path class="st0" d="M31.5,19.2c-1.1,0-1.3-0.4-1.3-1.9c0,0,0,0,0,0v-3.6c0-0.1-0.1-0.3-0.3-0.3h-1.3c-0.2,0-0.3,0.1-0.3,0.3v0.2
			c-0.6-0.3-1.2-0.5-1.9-0.5c-2.2,0-4,1.8-4,4s1.8,4,4,4c1,0,1.9-0.4,2.6-1c0.4,0.6,1,0.9,1.9,1c0.2,0,1,0,1-0.4v-1.4
			C31.7,19.4,31.6,19.2,31.5,19.2z M26.2,19.3c-1.1,0-2-0.9-2-2c0-1.1,0.9-2,2-2c1.1,0,2,0.9,2,2C28.2,18.4,27.3,19.3,26.2,19.3z"/>
	</g>
</g>
</svg>
