<?xml version="1.0" encoding="utf-8"?>
<!-- Generator: Adobe Illustrator 19.2.1, SVG Export Plug-In . SVG Version: 6.00 Build 0)  -->
<svg version="1.1" xmlns="http://www.w3.org/2000/svg" xmlns:xlink="http://www.w3.org/1999/xlink" x="0px" y="0px"
	 viewBox="0 0 32 32" style="enable-background:new 0 0 32 32;" xml:space="preserve">
<style type="text/css">
	.st0{fill:none;}
	.st1{fill:#00A3D7;}
	.st2{fill:#63BC48;}
</style>
<g id="Layer_1">
</g>
<g id="Layer_3">
</g>
<g id="Layer_2">
	<g>
		<g>
			<path class="st0" d="M29.6,6.3c0-1.1-0.9-1.9-1.9-1.9h-9.9v3.9h11.8V6.3z"/>
			<path class="st0" d="M2.4,28.3c0,1.1,0.9,1.9,1.9,1.9h5.3l10.1-10.1c-0.3-0.5-0.4-1.1-0.4-1.7c0-2.4,1.9-4.3,4.3-4.3
				c0.6,0,1.2,0.1,1.7,0.4L23,16.9c-0.6,0.6-0.6,1.6,0,2.2c0.6,0.6,1.6,0.6,2.2,0v0l2.4-2.4c0.3,0.5,0.4,1.1,0.4,1.7
				c0,2.4-1.9,4.3-4.3,4.3c-0.6,0-1.2-0.1-1.7-0.4l-7.9,7.9h8.2L19.1,27l2.5-2.5l5.5,5.6c0.1,0.1,0.1,0.1,0.2,0.2h0.3
				c1.1,0,1.9-0.9,1.9-1.9V9.5H17.8v3.7H3.9V9.5H2.4V28.3z M10.3,14.6l2.6,2.3c0,0-0.2,0.5,0,0.7l3.9,3.9L16,22.1l-3.9-3.9
				c-0.1-0.1-0.7,0-0.7,0l-2.3-2.6L10.3,14.6z"/>
			<path class="st0" d="M2.4,6.3v1.9h1.4V4.4C3,4.7,2.4,5.4,2.4,6.3z"/>
			<path class="st1" d="M9.7,30.2L9.7,30.2l-5.3,0c-1.1,0-1.9-0.9-1.9-1.9V9.5h1.4V8.2H2.4V6.3c0-0.9,0.6-1.6,1.4-1.9V3.1
				C2.3,3.4,1.1,4.7,1.1,6.3v22c0,1.8,1.4,3.2,3.2,3.2h4.9C9.2,31,9.3,30.6,9.7,30.2z"/>
			<polygon class="st1" points="14.1,30.2 12.8,31.5 23.6,31.5 22.3,30.2 			"/>
			<path class="st1" d="M27.6,3.1h-9.9v1.3h9.9c1.1,0,1.9,0.9,1.9,1.9v1.9H17.8v1.3h11.8v18.7c0,1.1-0.9,1.9-1.9,1.9h-0.3
				c0.1,0.2,0.2,0.4,0.2,0.6c0,0.3-0.1,0.5-0.2,0.7h0.4c1.8,0,3.2-1.5,3.2-3.2v-22C30.9,4.5,29.4,3.1,27.6,3.1z"/>
			<path class="st1" d="M12.2,18.3l3.9,3.9l0.7-0.7l-3.9-3.9c-0.2-0.2,0-0.7,0-0.7l-2.6-2.3l-1,1l2.3,2.6
				C11.5,18.3,12.1,18.1,12.2,18.3z"/>
			<path class="st1" d="M21.6,24.4L19.1,27l3.2,3.2h5c0-0.1-0.1-0.2-0.2-0.2L21.6,24.4z"/>
			<path class="st1" d="M27.3,30.2h-5l1.3,1.3h3.6c0.2-0.2,0.2-0.4,0.2-0.7C27.5,30.6,27.4,30.4,27.3,30.2z"/>
			<path class="st1" d="M23.7,22.7c2.4,0,4.3-1.9,4.3-4.3c0-0.6-0.2-1.2-0.4-1.7l-2.4,2.4v0c-0.6,0.6-1.6,0.6-2.2,0
				c-0.6-0.6-0.6-1.6,0-2.2l2.5-2.4c-0.5-0.2-1.1-0.4-1.7-0.4c-2.4,0-4.3,1.9-4.3,4.3c0,0.6,0.1,1.2,0.4,1.7L9.7,30.2h4.4l7.9-7.9
				C22.5,22.6,23.1,22.7,23.7,22.7z"/>
			<path class="st1" d="M9.7,30.2L9.7,30.2c-0.4,0.4-0.5,0.8-0.5,1.3h3.5l1.3-1.3H9.7z"/>
		</g>
		<path class="st2" d="M8.6,4.2l1.5-1.5l0,7.5c0,0.4,0.3,0.6,0.6,0.6c0.4,0,0.6-0.3,0.6-0.6V2.7l1.5,1.5c0.1,0.1,0.3,0.2,0.5,0.2
			c0.2,0,0.3-0.1,0.5-0.2c0.3-0.3,0.3-0.7,0-0.9l-2.6-2.6c-0.1-0.1-0.1-0.1-0.2-0.1c0,0,0,0,0,0c0,0,0,0,0,0c-0.1,0-0.2,0-0.3,0
			c0,0-0.1,0-0.1,0c-0.1,0-0.2,0.1-0.3,0.2c0,0,0,0,0,0L7.7,3.3c-0.3,0.3-0.3,0.7,0,0.9C8,4.4,8.4,4.4,8.6,4.2L8.6,4.2z"/>
		<path class="st2" d="M15.9,9.2c-0.4,0-0.6,0.3-0.6,0.6l0,1.9h-9V9.8c0-0.4-0.3-0.6-0.6-0.6c-0.4,0-0.6,0.3-0.6,0.6v2.6
			c0,0.4,0.3,0.6,0.6,0.6h10.3c0.4,0,0.6-0.3,0.6-0.6V9.8C16.6,9.4,16.3,9.2,15.9,9.2z"/>
	</g>
</g>
</svg>
