<?xml version="1.0" encoding="utf-8"?>
<!-- Generator: Adobe Illustrator 19.2.1, SVG Export Plug-In . SVG Version: 6.00 Build 0)  -->
<svg version="1.1" id="Layer_1" xmlns="http://www.w3.org/2000/svg" xmlns:xlink="http://www.w3.org/1999/xlink" x="0px" y="0px"
	 viewBox="0 0 32 32" style="enable-background:new 0 0 32 32;" xml:space="preserve">
<style type="text/css">
	.st0{fill:#00A2D8;}
	.st1{fill:#FFFFFF;}
	.st2{fill:none;}
</style>
<g>
	<path class="st0" d="M28.1,24.6h-7v7L28.1,24.6z"/>
	<path class="st0" d="M28.1,2.1c0-1-1-2.1-2.1-2.1H4.1C3.1,0,2,1,2,2.1v27.8c0,1,1,2.1,2.1,2.1h14.8v-8.5c0-0.6,0.4-1,1-1h8.2
		L28.1,2.1L28.1,2.1z"/>
</g>
<circle class="st1" cx="12.9" cy="11.5" r="1.2"/>
<circle class="st1" cx="10" cy="16.5" r="1.2"/>
<circle class="st1" cx="21.2" cy="11.7" r="1.5"/>
<line class="st2" x1="10.3" y1="15.3" x2="12.2" y2="12.5"/>
<line class="st2" x1="18" y1="14.5" x2="20.3" y2="12.8"/>
</svg>
