<?xml version="1.0" encoding="utf-8"?>
<!-- Generator: Adobe Illustrator 19.2.1, SVG Export Plug-In . SVG Version: 6.00 Build 0)  -->
<svg version="1.1" xmlns="http://www.w3.org/2000/svg" xmlns:xlink="http://www.w3.org/1999/xlink" x="0px" y="0px"
	 viewBox="0 0 32 32" style="enable-background:new 0 0 32 32;" xml:space="preserve">
<style type="text/css">
	.st0{fill-rule:evenodd;clip-rule:evenodd;fill:#005D99;}
	.st1{fill:#FFFFFF;}
</style>
<g id="Layer_1">
	<g>
		<g id="Ellipse_1_copy">
			<g>
				<circle class="st0" cx="16" cy="16" r="15.7"/>
			</g>
		</g>
		<g id="Polygon_1">
			<g>
				<polygon class="st0" points="20.8,13.4 18.5,12.1 16.2,10.8 13.9,12.1 11.6,13.4 11.7,16 11.6,19 13.9,20.3 16.2,21.6 
					18.5,20.3 20.8,19 20.7,16 				"/>
			</g>
		</g>
		<g id="Ellipse_4">
			<g>
				<circle class="st0" cx="16" cy="11.2" r="0.9"/>
			</g>
		</g>
		<g id="Ellipse_4_copy">
			<g>
				<circle class="st0" cx="16" cy="21.2" r="0.9"/>
			</g>
		</g>
		<g id="Ellipse_4_copy_2">
			<g>
				<circle class="st0" cx="20.5" cy="18.6" r="0.9"/>
			</g>
		</g>
		<g id="Ellipse_4_copy_3">
			<g>
				<circle class="st0" cx="20.5" cy="13.8" r="0.9"/>
			</g>
		</g>
		<g id="Ellipse_4_copy_4">
			<g>
				<circle class="st0" cx="11.9" cy="18.6" r="0.9"/>
			</g>
		</g>
		<g id="Ellipse_4_copy_4_2_">
			<g>
				<circle class="st0" cx="11.9" cy="13.8" r="0.9"/>
			</g>
		</g>
	</g>
</g>
<g id="Layer_2">
	<g>
		<path class="st1" d="M8.9,16.3C8.8,14.4,9.6,12.4,11,11c2.7-2.7,7.2-2.7,10,0c0.1,0.1,0.3,0.3,0.4,0.4l2.1,0
			c-0.4-0.6-0.8-1.2-1.3-1.7c-3.4-3.4-9-3.4-12.5,0c-1.8,1.8-2.7,4.2-2.6,6.6L8.9,16.3z"/>
		<path class="st1" d="M23.1,15.9c0.1,1.8-0.7,3.7-2.1,5.1c-2.7,2.7-7.2,2.7-10,0c-0.1-0.1-0.3-0.3-0.4-0.4H8.4
			c0.4,0.6,0.8,1.2,1.3,1.7c3.4,3.4,9,3.4,12.5,0c1.7-1.7,2.6-4.1,2.6-6.3L23.1,15.9z"/>
		<polygon class="st1" points="12.3,14.1 8.5,18.5 4.8,14.1 		"/>
		<polygon class="st1" points="19.7,17.9 23.5,13.5 27.2,17.9 		"/>
	</g>
</g>
</svg>
