<?xml version="1.0" encoding="utf-8"?>
<!-- Generator: Adobe Illustrator 19.2.1, SVG Export Plug-In . SVG Version: 6.00 Build 0)  -->
<svg version="1.1" id="Layer_1" xmlns="http://www.w3.org/2000/svg" xmlns:xlink="http://www.w3.org/1999/xlink" x="0px" y="0px"
	 viewBox="0 0 32 32" style="enable-background:new 0 0 32 32;" xml:space="preserve">
<style type="text/css">
	.st0{fill:#2A333C;}
</style>
<path class="st0" d="M16,0.8C7.6,0.8,0.8,7.6,0.8,16S7.6,31.2,16,31.2S31.2,24.4,31.2,16S24.4,0.8,16,0.8z M16,29.5
	C8.5,29.5,2.5,23.5,2.5,16S8.5,2.5,16,2.5S29.5,8.5,29.5,16S23.5,29.5,16,29.5z M24,20.3H8c-0.5,0-0.9,0.4-0.9,0.9
	c0,0.5,0.4,0.9,0.9,0.9H24c0.5,0,0.9-0.4,0.9-0.9C24.8,20.7,24.4,20.3,24,20.3z M9.9,14.8c1.4,0,2.5-1.1,2.5-2.5s-1.1-2.5-2.5-2.5
	c-1.4,0-2.5,1.1-2.5,2.5S8.5,14.8,9.9,14.8z M9.9,11.5c0.4,0,0.8,0.4,0.8,0.8c0,0.4-0.4,0.8-0.8,0.8c-0.4,0-0.8-0.4-0.8-0.8
	C9.1,11.8,9.5,11.5,9.9,11.5z M22.1,14.8c1.4,0,2.5-1.1,2.5-2.5s-1.1-2.5-2.5-2.5c-1.4,0-2.5,1.1-2.5,2.5
	C19.6,13.7,20.7,14.8,22.1,14.8z M22.1,11.5c0.4,0,0.8,0.4,0.8,0.8c0,0.4-0.4,0.8-0.8,0.8s-0.8-0.4-0.8-0.8
	C21.3,11.8,21.7,11.5,22.1,11.5z"/>
</svg>
