<?xml version="1.0" encoding="utf-8"?>
<!-- Generator: Adobe Illustrator 19.2.1, SVG Export Plug-In . SVG Version: 6.00 Build 0)  -->
<svg version="1.1" xmlns="http://www.w3.org/2000/svg" xmlns:xlink="http://www.w3.org/1999/xlink" x="0px" y="0px"
	 viewBox="0 0 32 32" style="enable-background:new 0 0 32 32;" xml:space="preserve">
<style type="text/css">
	.st0{display:none;}
	.st1{display:inline;}
	.st2{fill:#00A2D8;}
	.st3{fill:none;stroke:#9E9E9E;stroke-miterlimit:10;}
</style>
<g id="Layer_1" class="st0">
	<g id="Layer_2" class="st1">
	</g>
	<g id="Layer_1_1_" class="st1">
		<g>
			<g>
				<rect class="st2" width="8.5" height="8.5"/>
				<g>
					<rect x="11.8" class="st2" width="8.5" height="8.5"/>
				</g>
				<g>
					<rect x="23.5" class="st2" width="8.5" height="8.5"/>
				</g>
			</g>
			<g>
				<rect y="12" class="st2" width="8.5" height="8.5"/>
				<g>
					<rect x="11.8" y="12" class="st2" width="8.5" height="8.5"/>
				</g>
				<g>
					<rect x="23.5" y="12" class="st2" width="8.5" height="8.5"/>
				</g>
			</g>
			<g>
				<rect y="23.5" class="st2" width="8.5" height="8.5"/>
				<g>
					<rect x="11.8" y="23.5" class="st2" width="8.5" height="8.5"/>
				</g>
				<g>
					<rect x="23.5" y="23.5" class="st2" width="8.5" height="8.5"/>
				</g>
			</g>
		</g>
	</g>
</g>
<g id="Layer_2_1_">
	<g id="Layer_1_2_">
		<g>
			<g>
				<rect x="0.7" y="0.7" class="st3" width="8.1" height="8.1"/>
				<g>
					<rect x="12" y="0.7" class="st3" width="8.1" height="8.1"/>
				</g>
				<g>
					<rect x="23.2" y="0.7" class="st3" width="8.1" height="8.1"/>
				</g>
			</g>
			<g>
				<rect x="0.7" y="12.2" class="st3" width="8.1" height="8.1"/>
				<g>
					<rect x="12" y="12.2" class="st3" width="8.1" height="8.1"/>
				</g>
				<g>
					<rect x="23.2" y="12.2" class="st3" width="8.1" height="8.1"/>
				</g>
			</g>
			<g>
				<rect x="0.7" y="23.2" class="st3" width="8.1" height="8.1"/>
				<g>
					<rect x="12" y="23.2" class="st3" width="8.1" height="8.1"/>
				</g>
				<g>
					<rect x="23.2" y="23.2" class="st3" width="8.1" height="8.1"/>
				</g>
			</g>
		</g>
	</g>
</g>
</svg>
