<?xml version="1.0" encoding="utf-8"?>
<!-- Generator: Adobe Illustrator 19.2.1, SVG Export Plug-In . SVG Version: 6.00 Build 0)  -->
<svg version="1.1" id="Layer_1" xmlns="http://www.w3.org/2000/svg" xmlns:xlink="http://www.w3.org/1999/xlink" x="0px" y="0px"
	 viewBox="0 0 32 32" style="enable-background:new 0 0 32 32;" xml:space="preserve">
<style type="text/css">
	.st0{fill:none;stroke:#006197;stroke-miterlimit:10;}
	.st1{display:none;}
	.st2{display:inline;fill:#006197;}
	.st3{fill:#26A9E0;}
	.st4{display:inline;fill:#6DCEF5;}
	.st5{display:inline;fill:none;stroke:#006197;stroke-miterlimit:10;}
	.st6{display:inline;}
	.st7{fill:#6DCEF5;}
</style>
<g>
	<g>
		<path class="st0" d="M20.5,25.3c6.2-0.6,11-5.7,11-12c0-6.6-5.4-12-12-12C15,1.3,10.9,3.9,9,7.6c-4.7,0.1-8.5,3.9-8.5,8.6
			s3.9,8.6,8.6,8.6c0.7,0,1.2-0.1,1.9-0.2"/>
	</g>
	<g class="st1">
		<path class="st2" d="M15.7,12.4l1.4,1.6l-6.2,6.2l-1.4-1.6L15.7,12.4z"/>
		<path class="st2" d="M18.2,9.9l1.4,1.6l-1.9,2l-1.4-1.6L18.2,9.9z"/>
	</g>
	<g>
		<path class="st3" d="M14.6,29.6v-6.4h1v6.4"/>
		<path class="st3" d="M15.2,31.2l3.2-3.7h-6.2L15.2,31.2"/>
	</g>
	<g class="st1">
		<path class="st4" d="M26.3,11.9l-1.6-0.2c-0.1,0-0.2-0.1-0.2-0.2l-0.6-1.4c-0.1-0.2-0.4-0.2-0.6,0l-0.6,1.4
			c-0.1,0.1-0.1,0.2-0.2,0.2L21,11.9c-0.2,0-0.3,0.3-0.2,0.4l1.1,1c0.1,0.1,0.1,0.2,0.1,0.2l-0.4,1.4c-0.1,0.2,0.2,0.4,0.4,0.3
			l1.3-0.7c0.1-0.1,0.2-0.1,0.2,0l1.3,0.7c0.2,0.1,0.4-0.1,0.4-0.3l-0.2-1.4c0-0.1,0-0.2,0.1-0.2l1.1-1
			C26.6,12.1,26.5,11.9,26.3,11.9z"/>
		<path class="st4" d="M23.8,6.5l-1.3-0.1c-0.1,0-0.2-0.1-0.2-0.2l-0.4-1.1c-0.1-0.2-0.3-0.2-0.4,0L21,6.3C21,6.4,21,6.4,20.8,6.4
			l-1.2,0.1c-0.2,0-0.2,0.2-0.1,0.4l1,0.8c0.1,0.1,0.1,0.2,0.1,0.2l-0.3,1.1c-0.1,0.2,0.2,0.4,0.3,0.2l1.1-0.6
			c0.1-0.1,0.2-0.1,0.2,0l1.1,0.6c0.2,0.1,0.4-0.1,0.3-0.2L22.9,8c0-0.1,0-0.2,0.1-0.2l1-0.8C24.2,6.8,24,6.5,23.8,6.5z"/>
		<path class="st4" d="M18.8,5.4l-1-0.1c-0.1,0-0.1-0.1-0.2-0.1l-0.4-0.8c-0.1-0.2-0.2-0.2-0.3,0l-0.4,0.8c0,0.1-0.1,0.1-0.2,0.1
			l-1,0.1c-0.2,0-0.2,0.2-0.1,0.3L16,6.4c0.1,0.1,0.1,0.1,0.1,0.2l-0.2,0.9c-0.1,0.2,0.1,0.2,0.2,0.2l0.8-0.6C17,7,17,7,17.1,7.1
			l0.8,0.6c0.2,0.1,0.3-0.1,0.2-0.2l-0.2-0.9c0-0.1,0-0.1,0.1-0.2l0.7-0.7C19.1,5.6,19,5.4,18.8,5.4z"/>
		<path class="st4" d="M15.1,7.3l-0.8-0.1c-0.1,0-0.1-0.1-0.1-0.1l-0.3-0.7c-0.1-0.1-0.2-0.1-0.2,0l-0.3,0.7c0,0.1-0.1,0.1-0.1,0.1
			l-0.8,0.1c-0.1,0-0.2,0.2-0.1,0.2l0.6,0.6c0.1,0,0.1,0.1,0.1,0.1L12.7,9c-0.1,0.1,0.1,0.2,0.2,0.2l0.7-0.4c0.1-0.1,0.1-0.1,0.2,0
			l0.7,0.4c0.1,0.1,0.2-0.1,0.2-0.2l-0.2-0.7c0-0.1,0-0.1,0.1-0.2l0.6-0.6C15.4,7.5,15.2,7.3,15.1,7.3z"/>
		<path class="st4" d="M13.3,10.4l-0.7-0.1c-0.1,0-0.1-0.1-0.1-0.1l-0.2-0.6c-0.1-0.1-0.2-0.1-0.2,0l-0.2,0.6c0,0.1-0.1,0.1-0.1,0.1
			l-0.7,0.1c-0.1,0-0.2,0.2-0.1,0.2l0.4,0.4c0.1,0.1,0.1,0.1,0.1,0.1l-0.2,0.6c0,0.1,0.1,0.2,0.2,0.1l0.6-0.3c0.1,0,0.1,0,0.1,0
			l0.6,0.3c0.1,0.1,0.2-0.1,0.2-0.1l-0.2-0.6c0-0.1,0-0.1,0.1-0.1l0.4-0.4C13.4,10.5,13.3,10.4,13.3,10.4z"/>
	</g>
</g>
<g class="st1">
	<path class="st5" d="M9.1,27.4l11.4,0.4c6.1-0.6,11-5.7,11-12c0-6.6-5.4-12-12-12C15,3.9,11,6.5,9.1,10.1c-4.7,0.1-8.5,3.8-8.5,8.6
		C0.5,23.5,4.4,27.4,9.1,27.4"/>
</g>
<g class="st1">
	<g class="st6">
		<path class="st7" d="M10.7,19c-0.4,0-0.7-0.1-0.7-0.1c-0.5,0-0.5-0.5-0.3-0.9c0.3-0.5,4.7-7.5,4.9-7.9c0.3-0.4,0.7-0.4,0.8,0.1
			c0,0.1,0.1,0.2,0.1,0.4l0.3-0.5c-0.7-1.2-1.3-2.1-1.4-2.2c-0.4-0.5-1.2-0.5-1.5,0c-0.4,0.7-6.6,10.4-6.9,11
			c-0.3,0.5,0.1,1.2,0.7,1.2h4.1C10.5,19.8,10.5,19.3,10.7,19z M16.5,11L16.5,11L16.5,11c-2.1,3.1-4.7,7.6-4.9,7.8
			c-0.4,0.7,0.1,1.2,0.7,1.2h8.4c0.7,0,1.1-0.7,0.7-1.2C21.2,18.6,18.4,14.1,16.5,11z M18.4,19.2c-0.7,0.1-1.4,0.1-1.9,0.1
			c-0.5-0.1-1.2-0.1-1.9-0.1c-0.1-0.2-0.2-0.5-0.1-0.7c0.1-0.3,1.2-3.3,2.1-5.7c0.9,2.4,1.9,5.5,2.1,5.7
			C18.6,18.8,18.5,19.1,18.4,19.2z M26.9,18.8c-0.5-0.7-6.6-10.4-6.9-11c-0.3-0.5-1.2-0.5-1.6,0C18.3,8.1,17.7,8.9,17,10l0.3,0.5
			c0.1-0.2,0.1-0.3,0.1-0.4c0.1-0.5,0.7-0.5,0.9-0.1c0.3,0.5,4.6,7.5,4.9,7.9s0.1,0.8-0.3,0.9c-0.1,0-0.3,0-0.7,0.1
			c0.1,0.3,0.1,0.7-0.1,1h4.1C26.8,20,27.2,19.4,26.9,18.8z"/>
	</g>
</g>
<g>
	<path class="st7" d="M15.4,10.8L15.4,10.8c-0.5,0.1-1.1,0.1-1.7-0.2c-0.4-0.3-0.7-0.7-0.9-1.2c-0.1-0.4-0.3-0.7-0.3-1.1
		c-0.3-1.5,0.3-2.4,1-2.4c0.5-0.1,1.1,0.2,1.2,1.6C14.8,8.9,14.7,10.1,15.4,10.8L15.4,10.8"/>
	<path class="st7" d="M16.1,11.6c2.3-0.2,4.3-2.4,4.6-3.1c0.7-1.4,0.5-2.4-0.3-2.6c-0.7-0.2-1.5,0.3-2.1,1.6
		c-0.5,1.3-1.2,2.8-2.6,3.5c0,0-0.5,0.3-1.5,0.1C14.4,11.2,14.6,11.8,16.1,11.6"/>
	<path class="st7" d="M13.1,13.2L13.1,13.2l0.1-0.1c0.1-0.9-0.3-1.9-1-2.5c-0.2-0.2-0.5-0.3-0.7-0.5c-0.3-0.1-0.7-0.2-1-0.2
		c-1.2-0.1-1.9,0.5-1.9,1.2c0,0.5,0.3,1.2,1.6,1.2C11.4,12.4,12.3,12.6,13.1,13.2"/>
	<path class="st7" d="M13.4,11.5c0,0,0.5,1,0.2,2.2c-0.4,1.2-1.6,1.9-2.6,2.5c-1,0.5-1.4,1.4-1.2,1.9c0.3,0.7,1.2,0.9,2.2,0.5
		c0.7-0.3,2.7-1.7,2.4-4.3C14.1,12,13.4,11.5,13.4,11.5"/>
	<path class="st7" d="M15.3,15.6c0.7-1.4,1.6-1.7,1.6-1.7c2.1-1.1,5.5,1.1,5.9,1.4c0.5,0.3,1.9,0.7,2.4-0.5c0.5-0.9-0.1-1.7-1-2.1
		c-1.4-0.9-5.7-2.3-8.1,1.1C16,13.9,15.4,14.5,15.3,15.6"/>
	<path class="st7" d="M19.3,19.2c-0.4-0.5-2.7-2.2-2.6-4.6v-0.1l-0.1,0.1c-0.7,0.5-1.3,1.2-1.4,1.9c-0.1,0.4,0,0.8,0,1.2
		c0.3,1.2,0.9,2.2,1.7,3.1c1,1,1.9,1.2,2.4,0.7C19.9,20.7,19.8,20,19.3,19.2"/>
</g>
</svg>
