<?xml version="1.0" encoding="utf-8"?>
<!-- Generator: Adobe Illustrator 19.2.1, SVG Export Plug-In . SVG Version: 6.00 Build 0)  -->
<svg version="1.1" id="Layer_1" xmlns="http://www.w3.org/2000/svg" xmlns:xlink="http://www.w3.org/1999/xlink" x="0px" y="0px"
	 viewBox="0 0 32 32" style="enable-background:new 0 0 32 32;" xml:space="preserve">
<style type="text/css">
	.st0{display:none;}
	.st1{display:inline;}
	.st2{fill:none;stroke:#83D9FF;stroke-miterlimit:10;}
	.st3{fill:none;stroke:#009DDC;stroke-miterlimit:10;}
	.st4{fill:none;stroke:#9E9E9E;stroke-width:1.3;stroke-miterlimit:10;}
</style>
<g id="Layer_1_1_" class="st0">
	<g class="st1">
		<path class="st2" d="M12.4,29.4h3c-0.8,0-1.6-0.8-1.6-1.3v-6.4c-0.5,0.3-1.3,0.5-1.9,0.5c-1.9,0-3.5-1.3-3.5-3.5s1.3-3.5,3.5-3.5
			c0.8,0,1.3,0.3,1.9,0.5V9.8c0-0.8,0.5-1.9,1.1-1.9l-2.3,0.4C12.8,7.8,13,7.1,13,6.6c0-1.9-1.3-3.5-3.5-3.5C7.6,3.1,6,4.4,6,6.6
			c0,0.8,0.3,1.3,0.5,1.9H1.9c-0.8,0-1.3,0.8-1.3,1.3v5.6v3.2v9.5c0,0.8,0.4,1.4,1,1.4h10.8"/>
		<path class="st3" d="M31.5,13.8V9.2c0-0.8-0.8-1.3-1.3-1.3h-5.9l0,0c-0.3,0-0.5,0.3-0.5,0.5C23.7,8.7,24,8.7,24,9
			c0.8,0.5,1.1,1.3,1.1,1.9c0,1.3-1.1,2.4-2.2,2.4c-1.3,0-2.4-1.1-2.4-2.4c0-0.8,0.3-1.3,1.1-1.9c0.3-0.3,0.3-0.3,0.3-0.8
			c0-0.3-0.3-0.3-0.5-0.3h-6.5"/>
		<path class="st3" d="M17.3,29.4h-1.9l0,0H21c0.3,0,0.5-0.3,0.5-0.3s0-0.5-0.3-0.8c-0.8-0.5-1.1-1.3-1.1-1.9c0-1.3,1.1-2.4,2.2-2.4
			c1.3,0,2.4,1.1,2.4,2.4c0,0.8-0.3,1.3-1.1,1.9c-0.3,0.3-0.3,0.3-0.3,0.8c0.3,0.3,0.3,0.3,0.5,0.3h5.9c0.8,0,1.5-0.8,1.5-1.3
			l0.1-14.4"/>
	</g>
</g>
<g id="Layer_2">
	<g>
		<path class="st4" d="M12.4,29.4h3c-0.8,0-1.6-0.8-1.6-1.3v-6.4c-0.5,0.3-1.3,0.5-1.9,0.5c-1.9,0-3.5-1.3-3.5-3.5s1.3-3.5,3.5-3.5
			c0.8,0,1.3,0.3,1.9,0.5V9.8c0-0.8,0.5-1.9,1.1-1.9l-2.3,0.4C12.8,7.8,13,7.1,13,6.6c0-1.9-1.3-3.5-3.5-3.5C7.6,3.1,6,4.4,6,6.6
			c0,0.8,0.3,1.3,0.5,1.9H1.9c-0.8,0-1.3,0.8-1.3,1.3v5.6v3.2v9.5c0,0.8,0.4,1.4,1,1.4h10.8"/>
		<path class="st4" d="M31.5,13.8V9.2c0-0.8-0.8-1.3-1.3-1.3h-5.9l0,0c-0.3,0-0.5,0.3-0.5,0.5C23.7,8.7,24,8.7,24,9
			c0.8,0.5,1.1,1.3,1.1,1.9c0,1.3-1.1,2.4-2.2,2.4c-1.3,0-2.4-1.1-2.4-2.4c0-0.8,0.3-1.3,1.1-1.9c0.3-0.3,0.3-0.3,0.3-0.8
			c0-0.3-0.3-0.3-0.5-0.3h-6.5"/>
		<path class="st4" d="M17.3,29.4h-1.9l0,0H21c0.3,0,0.5-0.3,0.5-0.3s0-0.5-0.3-0.8c-0.8-0.5-1.1-1.3-1.1-1.9c0-1.3,1.1-2.4,2.2-2.4
			c1.3,0,2.4,1.1,2.4,2.4c0,0.8-0.3,1.3-1.1,1.9c-0.3,0.3-0.3,0.3-0.3,0.8c0.3,0.3,0.3,0.3,0.5,0.3h5.9c0.8,0,1.5-0.8,1.5-1.3
			l0.1-14.4"/>
	</g>
</g>
</svg>
