<?xml version="1.0" encoding="utf-8"?>
<!-- Generator: Adobe Illustrator 19.2.1, SVG Export Plug-In . SVG Version: 6.00 Build 0)  -->
<svg version="1.1" id="Ellipse_1_copy_2_1_" xmlns="http://www.w3.org/2000/svg" xmlns:xlink="http://www.w3.org/1999/xlink"
	 x="0px" y="0px" viewBox="0 0 24 24" style="enable-background:new 0 0 24 24;" xml:space="preserve">
<style type="text/css">
	.st0{fill-rule:evenodd;clip-rule:evenodd;fill:#00AEF0;}
</style>
<g id="Ellipse_1_copy_2">
	<g>
		<path class="st0" d="M20.3,13.7l2.2-2.5c0.4-0.5,0.4-1.1,0-1.4c-0.4-0.3-1-0.2-1.4,0.2l-2,2.3l-2-2.3c-0.4-0.5-1-0.6-1.4-0.2
			c-0.4,0.3-0.4,1,0,1.4l2.2,2.5l-2.2,2.5c-0.4,0.5-0.4,1.1,0,1.4c0.4,0.3,1,0.2,1.4-0.2l2-2.3l2,2.3c0.4,0.5,1,0.6,1.4,0.2
			c0.4-0.3,0.4-1,0-1.4L20.3,13.7z M12.2,9.8c-1.6,0-3,1-3.6,2.4c-0.6-1.4-2-2.4-3.6-2.4c-0.7,0-1.4,0.2-2,0.6V7.1
			c0-0.5-0.4-0.9-0.9-0.9c-0.5,0-0.9,0.4-0.9,0.9V14c0,0.1,0,0.2,0.1,0.3c0.3,1.9,1.9,3.3,3.8,3.3c1.6,0,3-1,3.6-2.4
			c0.6,1.4,2,2.4,3.6,2.4c2.1,0,3.9-1.7,3.9-3.9S14.4,9.8,12.2,9.8z M5.1,15.7c-1.1,0-2-0.9-2-2c0-1.1,0.9-2,2-2s2,0.9,2,2
			C7.1,14.8,6.2,15.7,5.1,15.7z M12.2,15.7c-1.1,0-2-0.9-2-2c0-1.1,0.9-2,2-2s2,0.9,2,2C14.3,14.8,13.3,15.7,12.2,15.7z"/>
	</g>
</g>
</svg>
