<?xml version="1.0" encoding="utf-8"?>
<!-- Generator: Adobe Illustrator 19.2.1, SVG Export Plug-In . SVG Version: 6.00 Build 0)  -->
<svg version="1.1" id="Layer_1" xmlns="http://www.w3.org/2000/svg" xmlns:xlink="http://www.w3.org/1999/xlink" x="0px" y="0px"
	 viewBox="0 0 32 32" style="enable-background:new 0 0 32 32;" xml:space="preserve">
<style type="text/css">
	.st0{enable-background:new    ;}
	.st1{fill:#EAEAEA;}
	.st2{fill:#8D8C8C;}
</style>
<g id="Rounded_Rectangle_1_1_" class="st0">
	<g id="Rounded_Rectangle_1">
		<g>
			<path class="st1" d="M6,31c-2.8,0-5-2.2-5-5V6c0-2.8,2.2-5,5-5h20c2.8,0,5,2.2,5,5v20c0,2.8-2.2,5-5,5H6z"/>
		</g>
		<g>
			<path class="st2" d="M26,2c2.2,0,4,1.8,4,4v20c0,2.2-1.8,4-4,4H6c-2.2,0-4-1.8-4-4V6c0-2.2,1.8-4,4-4H26 M26,0H6C2.6,0,0,2.6,0,6
				v20c0,3.4,2.6,6,6,6h20c3.4,0,6-2.6,6-6V6C32,2.6,29.4,0,26,0L26,0z"/>
		</g>
	</g>
</g>
<path class="st2" d="M24.5,21.8h-5.4c-0.6-2.6,0.1-4.4,0.8-6.3c0.6-1.7,1.3-3.4,1.3-5.9c0-5.9-3.9-5.9-5.2-5.9s-5.2,0-5.2,5.9
	c0,2.4,0.7,4.2,1.3,5.9c0.7,2,1.4,3.7,0.8,6.3H7.5l-0.9,4.4h0.8v2h17.2v-2h0.8L24.5,21.8z M13.1,15.1c-0.6-1.6-1.2-3.2-1.2-5.5
	c0-4.8,2.8-4.8,4.2-4.8s4.2,0,4.2,4.8c0,2.2-0.6,3.9-1.2,5.5c-0.8,2-1.5,3.9-0.9,6.7h-4C14.5,19,13.8,17.1,13.1,15.1z M8.4,22.9
	h15.2l0.5,2.3H7.9L8.4,22.9z M23.5,27.2h-15v-0.9h15V27.2z"/>
</svg>
