<?xml version="1.0" encoding="utf-8"?>
<!-- Generator: Adobe Illustrator 19.2.1, SVG Export Plug-In . SVG Version: 6.00 Build 0)  -->
<svg version="1.1" id="Layer_1" xmlns="http://www.w3.org/2000/svg" xmlns:xlink="http://www.w3.org/1999/xlink" x="0px" y="0px"
	 viewBox="0 0 32 32" style="enable-background:new 0 0 32 32;" xml:space="preserve">
<style type="text/css">
	.st0{fill:#3ED925;}
	.st1{fill:#FFFFFF;}
</style>
<title>success</title>
<g id="Ellipse_1">
	<g id="Ellipse_1-2">
		<path class="st0" d="M16,30.5C8,30.5,1.5,24,1.5,16S8,1.5,16,1.5S30.5,8,30.5,16l0,0C30.5,24,24,30.5,16,30.5z"/>
		<path class="st0" d="M16,2.2c7.6,0,13.8,6.1,13.8,13.8S23.6,29.8,16,29.8S2.2,23.6,2.2,16S8.4,2.2,16,2.2 M16,0.7
			C7.5,0.7,0.7,7.5,0.7,16S7.5,31.3,16,31.3S31.3,24.5,31.3,16S24.5,0.7,16,0.7L16,0.7L16,0.7z"/>
	</g>
</g>
<g id="Forma_1_copy">
	<g id="Forma_1_copy-2">
		<path class="st1" d="M23.9,10.5c-0.8-0.7-2-0.7-2.8,0l-7.1,7c-0.2,0.2-0.5,0.2-0.7,0l0,0L10.5,15c-0.8-0.7-2-0.7-2.8,0
			c-0.7,0.7-0.8,2,0,2.8l0,0l4.4,4.4c0.8,0.7,2,0.7,2.8,0l8.9-8.8C24.7,12.6,24.7,11.4,23.9,10.5L23.9,10.5z"/>
	</g>
</g>
</svg>
