<?xml version="1.0" encoding="utf-8"?>
<!-- Generator: Adobe Illustrator 19.2.1, SVG Export Plug-In . SVG Version: 6.00 Build 0)  -->
<svg version="1.1" xmlns="http://www.w3.org/2000/svg" xmlns:xlink="http://www.w3.org/1999/xlink" x="0px" y="0px"
	 viewBox="0 0 32 32" style="enable-background:new 0 0 32 32;" xml:space="preserve">
<style type="text/css">
	.st0{enable-background:new    ;}
	.st1{fill-rule:evenodd;clip-rule:evenodd;fill:#9E9E9E;}
</style>
<g id="Shape_1_1_" class="st0">
</g>
<g id="Shape_1_copy_1_" class="st0">
	<g>
		<g id="Shape_1">
			<g>
				<path class="st1" d="M29.2,15.4c-0.3,0.3-0.6,0.6-0.9,0.8l0,0c0,0.1,0.1,0.2,0.1,0.3v1.4c0,0.5-0.4,0.9-0.9,0.9h-2.3l-0.1,0.4
					c-0.2,1.2-0.7,2.3-1.4,3.3l-0.2,0.4l1.6,1.7c0.2,0.2,0.3,0.4,0.3,0.6c0,0.2-0.1,0.4-0.3,0.6l-1,1c-0.2,0.2-0.4,0.3-0.6,0.3
					c-0.2,0-0.5-0.1-0.6-0.3l-1.6-1.6l-0.4,0.2c-1,0.7-2.1,1.1-3.3,1.4l-0.4,0.1v2.3c0,0.5-0.4,0.9-0.9,0.9h-1.4
					c-0.5,0-0.9-0.4-0.9-0.9v-2.3l-0.4-0.1c-1.2-0.2-2.3-0.7-3.3-1.4l-0.4-0.2l-1.6,1.6c-0.3,0.3-0.9,0.3-1.3,0l-1-1
					c-0.2-0.2-0.3-0.4-0.3-0.6c0-0.2,0.1-0.4,0.3-0.6l1.6-1.6l-0.2-0.4c-0.7-1-1.1-2.1-1.4-3.3l-0.1-0.4H3.4c-0.5,0-0.9-0.4-0.9-0.9
					v-1.4c0-0.5,0.4-0.9,0.9-0.9h2.3l0.1-0.4c0.2-1.2,0.7-2.3,1.4-3.3l0.2-0.4L5.8,9.8C5.7,9.6,5.6,9.4,5.6,9.2
					c0-0.2,0.1-0.4,0.3-0.6l1-1c0.3-0.3,0.9-0.3,1.3,0l1.6,1.6l0.4-0.2c1-0.7,2.5-1.1,3.6-1.4c0.1-0.7-0.1-1.3,0.1-2l0-0.4
					c0-0.4,0.2-0.7,0.5-0.8c0.2-0.4,0.5-0.8,0.8-1.2h-0.4c-1.1,0-2,0.9-2,2v1.4c-1,0.2-1.9,0.7-2.8,1.2l-1-1c-0.8-0.8-2.1-0.8-2.8,0
					l-1,1C4.7,8.1,4.5,8.6,4.5,9.2c0,0.6,0.2,1.1,0.6,1.4l1,1c-0.5,0.9-0.9,1.8-1.2,2.8H3.5c-1.1,0-2,0.9-2,2l0,1.4c0,1.1,0.9,2,2,2
					h1.4c0.2,1,0.7,1.9,1.2,2.8l-1,1c-0.4,0.4-0.6,0.9-0.6,1.4c0,0.6,0.2,1.1,0.6,1.4l1,1c0.4,0.4,0.9,0.6,1.4,0.6
					c0.5,0,1-0.2,1.4-0.6l1-1c0.9,0.5,1.8,0.9,2.8,1.2v1.4c0,1.1,0.9,2,2,2h1.4c1.1,0,2-0.9,2-2v-1.4c1-0.2,1.9-0.7,2.8-1.2l1,1
					c0.4,0.4,0.9,0.6,1.4,0.6c0.5,0,1-0.2,1.4-0.6l1-1c0.4-0.4,0.6-0.9,0.6-1.4c0-0.6-0.2-1-0.6-1.4l-1-1c0.5-0.9,0.9-1.8,1.2-2.8
					h1.4c1.1,0,2-0.9,2-2v-1.4C29.5,16.1,29.4,15.7,29.2,15.4z M8.7,17.2c0-3.1,2.1-5.7,4.9-6.6l0,0c-0.1-0.4-0.1-0.8-0.2-1.1
					c-3.4,0.9-5.8,4-5.8,7.7c0,4.4,3.5,7.9,7.9,7.9c4.1,0,7.4-3.1,7.9-7.1c-0.2,0-0.4,0-0.7,0h-0.5c-0.4,3.3-3.3,6-6.7,6
					C11.7,24,8.7,20.9,8.7,17.2z"/>
			</g>
		</g>
		<g id="Shape_1_copy">
			<g>
				<path class="st1" d="M22.7,0.8c-4.4,0-7.9,3.5-7.9,7.9c0,4.4,3.5,7.9,7.9,7.9v0c4.4,0,7.9-3.6,7.9-7.9C30.5,4.3,27,0.8,22.7,0.8
					z M22.7,15.4c-3.7,0-6.7-3-6.7-6.7c0-3.7,3-6.7,6.7-6.7c3.7,0,6.7,3,6.7,6.7S26.3,15.4,22.7,15.4z M26.4,5.9
					c-0.2,0-0.3,0.1-0.4,0.2l-3.9,4.1L20,8.1c-0.1-0.1-0.2-0.2-0.4-0.2c-0.3,0-0.6,0.3-0.6,0.6c0,0.2,0.1,0.3,0.2,0.4l2.5,2.5
					c0.1,0.1,0.2,0.2,0.4,0.2s0.3-0.1,0.4-0.2l4.4-4.5C26.9,6.8,27,6.7,27,6.5C27,6.2,26.7,5.9,26.4,5.9z"/>
			</g>
		</g>
	</g>
</g>
</svg>
