<?xml version="1.0" encoding="utf-8"?>
<!-- Generator: Adobe Illustrator 19.2.1, SVG Export Plug-In . SVG Version: 6.00 Build 0)  -->
<svg version="1.1" id="Layer_1" xmlns="http://www.w3.org/2000/svg" xmlns:xlink="http://www.w3.org/1999/xlink" x="0px" y="0px"
	 viewBox="0 0 128 43" style="enable-background:new 0 0 128 43;" xml:space="preserve">
<style type="text/css">
	.st0{fill:#00A3D9;}
	.st1{fill:#FF6600;}
	.st2{fill:#8CC63F;}
	.st3{fill:#35414D;}
</style>
<g>
	<g>
		<g>
			<path class="st0" d="M104.9,14.4L104.9,14.4c-1.6,0.4-2.8,0.4-4-0.8c-0.8-0.8-1.6-2-2-2.8s-0.8-2-0.8-2.8
				c-0.8-3.6,0.8-5.6,2.4-5.6c1.2,0,2.8,0.4,2.8,3.6C103.3,9.7,102.9,12.4,104.9,14.4L104.9,14.4"/>
		</g>
	</g>
	<g>
		<g>
			<path class="st0" d="M106.5,16.8c5.6-0.4,9.9-5.6,11.1-7.5c1.6-3.6,1.2-5.6-0.8-6s-3.6,0.8-5.2,3.6c-1.2,3.2-2.8,6.8-6,8.3
				c0,0-1.6,0.8-3.6,0.4C102.5,15.2,103.3,16.8,106.5,16.8"/>
		</g>
	</g>
	<g>
		<g>
			<path class="st1" d="M99.7,20.4L99.7,20.4L99.7,20.4c0.4-2.8-0.4-4.8-2-6.4c-0.4-0.4-1.2-0.8-1.6-1.2c-0.8-0.4-1.6-0.4-2.4-0.4
				c-2.8,0-4.8,1.2-4.4,2.8c0,1.2,0.8,2.8,3.6,2.8C95.8,18.4,97.8,18.8,99.7,20.4"/>
		</g>
	</g>
	<g>
		<g>
			<path class="st1" d="M100.1,16c0,0,1.2,2.4,0.4,5.2c-0.8,2.8-3.6,4.8-6,6s-3.2,3.6-2.8,4.4c0.8,1.6,2.8,2,5.2,1.2
				c1.6-0.8,6.4-4,5.6-9.9C102.1,17.6,100.1,16,100.1,16"/>
		</g>
	</g>
	<g>
		<g>
			<path class="st2" d="M104.5,25.9c1.6-3.2,3.6-4,3.6-4c5.2-2.4,12.7,2.8,13.5,3.2c1.2,0.8,4.4,1.6,5.6-1.2
				c1.2-2.4-0.4-3.6-2.4-5.2c-3.2-2-13.1-5.6-19.1,2.8C106.1,21.6,105.3,23.2,104.5,25.9"/>
		</g>
	</g>
	<g>
		<g>
			<path class="st2" d="M114,34.3c-0.8-1.2-6.4-5.6-6-10.7v-0.4h-0.4c-1.6,1.2-3.2,2.8-3.2,4.8c0,0.8,0,2,0,2.8
				c0.8,2.8,2,5.6,3.6,7.5c2.4,2.4,4.8,2.8,5.6,1.6C115.6,37.9,115.2,35.9,114,34.3"/>
		</g>
	</g>
	<g>
		<g>
			<path class="st3" d="M4.4,32.7h-4V4.5h4V32.7z M4.4,23.2l7.9-8.7h5.2l-8.3,8.3l8.3,9.9h-4.8L4.4,23.2z"/>
		</g>
	</g>
	<g>
		<g>
			<path class="st3" d="M27,14c5.6,0,9.5,4,9.5,9.5S32.5,33,27,33s-9.1-3.6-9.1-9.5S21.9,14,27,14 M27,17.6c-2.8,0-5.2,2.4-5.2,6
				s2.4,6,5.2,6c3.2,0,5.6-2.4,5.6-6S30.2,17.6,27,17.6"/>
		</g>
	</g>
	<g>
		<g>
			<path class="st3" d="M40.2,15.6c2.8-1.2,5.6-1.6,8.3-1.6c4.8,0,7.5,2,7.5,7.2v11.9h-4V21.6c0-2.8-1.6-3.6-4-3.6
				c-1.6,0-2.8,0-4,0.8v14.7h-4V15.6H40.2z"/>
		</g>
	</g>
	<g>
		<g>
			<polygon class="st3" points="67.2,28.7 72.7,14.4 76.7,14.4 66.8,40.2 62.8,40.2 65.2,33.5 57.6,14.4 62,14.4 			"/>
		</g>
	</g>
	<g>
		<path class="st3" d="M75.2,32.4v-1.9h-0.7v-0.4h1.8v0.4h-0.7v1.9H75.2z"/>
		<path class="st3" d="M76.9,32.4v-2.2h0.7l0.4,1.5l0.4-1.5h0.7v2.2h-0.4v-1.8l-0.4,1.8h-0.4l-0.4-1.8v1.8H76.9z"/>
	</g>
</g>
</svg>
