<?xml version="1.0" encoding="utf-8"?>
<!-- Generator: Adobe Illustrator 21.1.0, SVG Export Plug-In . SVG Version: 6.00 Build 0)  -->
<svg version="1.1" id="Layer_1" xmlns="http://www.w3.org/2000/svg" xmlns:xlink="http://www.w3.org/1999/xlink" x="0px" y="0px"
	 viewBox="0 0 511 167" style="enable-background:new 0 0 511 167;" xml:space="preserve">
<style type="text/css">
	.st0{fill:#231F20;}
	.st1{clip-path:url(#SVGID_2_);fill:url(#SVGID_3_);}
	.st2{clip-path:url(#SVGID_2_);fill:url(#SVGID_4_);}
	.st3{clip-path:url(#SVGID_2_);fill:url(#SVGID_5_);}
	.st4{clip-path:url(#SVGID_2_);fill:url(#SVGID_6_);}
	.st5{fill:#F9F9F9;}
</style>
<path class="st0" d="M511.1,144.8c0,12.5-10.1,22.6-22.6,22.6H22.3c-12.5,0-22.6-10.1-22.6-22.6V22.7c0-12.5,10.1-22.6,22.6-22.6
	h466.3c12.5,0,22.6,10.1,22.6,22.6V144.8z"/>
<g id="PLAY_1_">
	<defs>
		<path id="SVGID_1_" d="M110.5,73.7L87.4,60.4c0,0-42-24.3-44.5-25.7S38,34.2,38,37.1c0,5,0,51.8,0,51.8s0,50.6,0,52.9
			c0,2.2,1.8,3.2,3.9,2c2.1-1.2,45.5-26.3,45.5-26.3l23.1-13.3c0,0,19.6-11.3,22.2-12.8c2.6-1.5,2.4-3.6,0.2-4.7
			C130.6,85.4,110.5,73.7,110.5,73.7z"/>
	</defs>
	<clipPath id="SVGID_2_">
		<use xlink:href="#SVGID_1_"  style="overflow:visible;"/>
	</clipPath>
	<linearGradient id="SVGID_3_" gradientUnits="userSpaceOnUse" x1="66.5727" y1="32.2852" x2="66.5727" y2="145.5879">
		<stop  offset="0" style="stop-color:#257DB0"/>
		<stop  offset="0.208" style="stop-color:#3C90B3"/>
		<stop  offset="0.7416" style="stop-color:#73BDB9"/>
		<stop  offset="1" style="stop-color:#89CEBC"/>
	</linearGradient>
	<polygon class="st1" points="38,32.3 38,88.9 38,145.6 95.1,88.9 	"/>
	<linearGradient id="SVGID_4_" gradientUnits="userSpaceOnUse" x1="38.0059" y1="60.4053" x2="110.4854" y2="60.4053">
		<stop  offset="0" style="stop-color:#51BFAC"/>
		<stop  offset="1" style="stop-color:#DEE899"/>
	</linearGradient>
	<polygon class="st2" points="110.5,73.7 87.4,60.4 38,31.9 38,32.3 95.1,88.9 	"/>
	<linearGradient id="SVGID_5_" gradientUnits="userSpaceOnUse" x1="74.2451" y1="88.9375" x2="74.2451" y2="146">
		<stop  offset="0" style="stop-color:#EB403D"/>
		<stop  offset="0.1937" style="stop-color:#D64252"/>
		<stop  offset="0.7369" style="stop-color:#9F4887"/>
		<stop  offset="1" style="stop-color:#894A9C"/>
	</linearGradient>
	<polygon class="st3" points="38,145.6 38,146 87.4,117.5 110.5,104.2 95.1,88.9 	"/>
	<linearGradient id="SVGID_6_" gradientUnits="userSpaceOnUse" x1="115.9904" y1="73.7207" x2="115.9904" y2="104.1523">
		<stop  offset="0" style="stop-color:#F48779"/>
		<stop  offset="0.6121" style="stop-color:#FAB076"/>
		<stop  offset="1" style="stop-color:#FDC674"/>
	</linearGradient>
	<polygon class="st4" points="110.5,73.7 95.1,88.9 110.5,104.2 136.8,88.9 	"/>
</g>
<g>
	<path class="st5" d="M397.7,111.1c-2.1,0-4.1-0.4-5.9-1.2c-1.8-0.8-3.3-2-4.5-3.7H387c0.2,1.9,0.4,3.7,0.4,5.5v13.6h-5V77.5h4.1
		l0.7,4.5h0.2c1.3-1.8,2.8-3.1,4.5-3.9c1.7-0.8,3.7-1.2,5.9-1.2c4.4,0,7.7,1.5,10.1,4.5c2.4,3,3.6,7.2,3.6,12.6
		c0,5.4-1.2,9.6-3.6,12.6C405.3,109.6,402,111.1,397.7,111.1z M397,81.2c-3.4,0-5.8,0.9-7.3,2.8c-1.5,1.9-2.3,4.8-2.3,8.9V94
		c0,4.6,0.8,7.9,2.3,9.9c1.5,2,4,3,7.4,3c2.8,0,5.1-1.2,6.7-3.5c1.6-2.3,2.4-5.5,2.4-9.5c0-4.1-0.8-7.3-2.4-9.5
		C402.2,82.3,399.9,81.2,397,81.2z"/>
	<path class="st5" d="M422.9,110.5h-5V63.7h5V110.5z"/>
	<path class="st5" d="M451.6,110.5l-1-4.7h-0.2c-1.6,2.1-3.3,3.5-4.9,4.2c-1.6,0.7-3.7,1.1-6.1,1.1c-3.3,0-5.8-0.8-7.7-2.5
		c-1.9-1.7-2.8-4.1-2.8-7.2c0-6.7,5.3-10.1,16-10.5l5.6-0.2v-2c0-2.6-0.6-4.5-1.7-5.7c-1.1-1.2-2.9-1.8-5.3-1.8
		c-2.7,0-5.9,0.8-9.3,2.5l-1.5-3.8c1.6-0.9,3.4-1.6,5.3-2.1c1.9-0.5,3.9-0.8,5.8-0.8c3.9,0,6.8,0.9,8.7,2.6c1.9,1.7,2.8,4.5,2.8,8.4
		v22.5H451.6z M440.4,107c3.1,0,5.5-0.9,7.3-2.6c1.8-1.7,2.7-4.1,2.7-7.2v-3l-5,0.2c-4,0.1-6.8,0.8-8.6,1.9
		c-1.8,1.1-2.6,2.8-2.6,5.1c0,1.8,0.5,3.2,1.6,4.1C436.9,106.5,438.4,107,440.4,107z"/>
	<path class="st5" d="M458.2,77.5h5.3l7.2,18.8c1.6,4.3,2.6,7.4,2.9,9.3h0.2c0.3-1,0.8-2.8,1.6-5.2c0.8-2.5,3.6-10.1,8.2-22.8h5.4
		L475,115.1c-1.4,3.7-3,6.3-4.9,7.9c-1.9,1.6-4.2,2.3-6.9,2.3c-1.5,0-3-0.2-4.5-0.5v-4c1.1,0.2,2.3,0.4,3.7,0.4
		c3.4,0,5.9-1.9,7.3-5.8l1.8-4.7L458.2,77.5z"/>
</g>
<g>
	<path class="st5" d="M305.2,80.6c1.6,1.3,4.9,4.1,4.9,9.3c0,5.1-2.9,7.5-5.8,9.8c-0.9,0.9-1.9,1.9-1.9,3.4c0,1.5,1,2.3,1.8,3
		l2.5,1.9c3,2.6,5.8,4.9,5.8,9.7c0,6.5-6.3,13-18.1,13c-10,0-14.8-4.8-14.8-9.9c0-2.5,1.2-6,5.3-8.4c4.3-2.6,10.1-3,13.2-3.2
		c-1-1.2-2.1-2.5-2.1-4.7c0-1.2,0.3-1.9,0.7-2.7c-0.8,0.1-1.5,0.1-2.2,0.1c-7.3,0-11.4-5.4-11.4-10.8c0-3.2,1.4-6.7,4.4-9.2
		c3.9-3.2,8.6-3.8,12.3-3.8h14.2l-4.4,2.5H305.2z M300.4,111.2c-0.6-0.1-0.9-0.1-1.6-0.1c-0.6,0-4.3,0.1-7.2,1.1
		c-1.5,0.5-5.9,2.2-5.9,7.1c0,4.9,4.8,8.4,12.1,8.4c6.6,0,10.1-3.2,10.1-7.4C307.9,116.8,305.6,114.9,300.4,111.2z M302.4,98.1
		c1.6-1.6,1.7-3.8,1.7-5c0-5-3-12.7-8.7-12.7c-1.8,0-3.7,0.9-4.8,2.3c-1.2,1.4-1.5,3.3-1.5,5.1c0,4.6,2.7,12.3,8.6,12.3
		C299.4,100,301.2,99.2,302.4,98.1z"/>
	<path class="st5" d="M261.9,110.1c-10.9,0-16.8-8.5-16.8-16.2c0-9,7.4-16.7,17.8-16.7c10.1,0,16.4,7.9,16.4,16.2
		C279.3,101.5,273.1,110.1,261.9,110.1z M270.5,104.5c1.7-2.2,2.1-5,2.1-7.6c0-6.1-2.9-17.6-11.4-17.6c-2.3,0-4.5,0.9-6.2,2.3
		c-2.7,2.4-3.2,5.4-3.2,8.4c0,6.8,3.4,18,11.7,18C266.1,108,268.9,106.7,270.5,104.5z"/>
	<path class="st5" d="M224.6,110.1c-10.9,0-16.8-8.5-16.8-16.2c0-9,7.4-16.7,17.8-16.7c10.1,0,16.4,7.9,16.4,16.2
		C242,101.5,235.8,110.1,224.6,110.1z M233.2,104.5c1.7-2.2,2.1-5,2.1-7.6c0-6.1-2.9-17.6-11.4-17.6c-2.3,0-4.5,0.9-6.2,2.3
		c-2.7,2.4-3.2,5.4-3.2,8.4c0,6.8,3.4,18,11.7,18C228.8,108,231.6,106.7,233.2,104.5z"/>
	<path class="st5" d="M202.5,109l-9.9,2.3c-4,0.6-7.6,1.2-11.4,1.2c-19.1,0-26.4-14-26.4-25c0-13.4,10.3-25.9,27.9-25.9
		c3.7,0,7.3,0.6,10.6,1.5c5.2,1.5,7.6,3.3,9.1,4.3l-5.7,5.5l-2.4,0.6l1.7-2.8c-2.4-2.3-6.6-6.5-14.8-6.5c-10.9,0-19.2,8.3-19.2,20.4
		c0,13,9.4,25.2,24.5,25.2c4.4,0,6.7-0.9,8.8-1.7V96.8l-10.4,0.6l5.5-3h14.7l-1.8,1.7c-0.5,0.4-0.6,0.6-0.7,1.1
		c-0.1,0.6-0.1,2.6-0.1,3.3V109z"/>
	<path class="st5" d="M327.1,107c-2.3-0.2-2.8-0.6-2.8-3.3v-0.8V64.5c0-0.1,0-0.3,0-0.4c0.3-2.4,1-2.8,3.1-4.1h-9.9l-5.2,2.5h5.3v0
		l0,0v40.4v2.3c0,1.4-0.3,1.6-1.9,3.7h12.2l2.6-1.5C329.5,107.2,328.3,107.2,327.1,107z"/>
	<path class="st5" d="M355.3,107.7c-0.8,0.4-1.5,0.9-2.3,1.2c-2.3,1-4.6,1.3-6.7,1.3c-2.2,0-5.6-0.1-9.1-2.7c-4.9-3.4-7-9.3-7-14.5
		c0-10.6,8.7-15.9,15.7-15.9c2.5,0,5,0.6,7.1,1.9c3.4,2.3,4.3,5.2,4.8,6.8l-16.1,6.5l-5.3,0.4c1.7,8.7,7.6,13.8,14.2,13.8
		c3.5,0,6-1.2,8.4-2.4L355.3,107.7z M348.8,87.2c1.3-0.5,2-0.9,2-1.9c0-2.7-3.1-5.9-6.8-5.9c-2.8,0-7.9,2.1-7.9,9.5
		c0,1.2,0.1,2.4,0.2,3.6L348.8,87.2z"/>
	<g>
		<path class="st5" d="M361.9,77.6v4.5h-0.6v-4.5h-1.5v-0.5h3.5v0.5H361.9z"/>
		<path class="st5" d="M368.1,82.2v-4.6h0l-1.4,4.6h-0.4l-1.4-4.6h0v4.6h-0.5v-5h0.9l1.3,4h0l1.3-4h0.9v5H368.1z"/>
	</g>
</g>
<g>
	<path class="st5" d="M168.6,48.1h-3.4c0-0.5-0.3-1.8-1-4h-5c-0.7,2.2-1,3.5-1,4H155c0-0.3,0.8-2.6,2.5-6.9c1.7-4.3,2.5-6.7,2.5-7.1
		h4.1c0,0.4,0.8,2.7,2.3,7C167.8,45.4,168.6,47.7,168.6,48.1z M163.6,42c-1.2-3.7-1.8-5.7-1.8-6h-0.2c0,0.3-0.6,2.3-1.9,6H163.6z"/>
	<path class="st5" d="M182.4,48.1h-2.7c0-0.3-1-1.8-3-4.7c-2.1-3-3.2-5-3.5-6.1h-0.2c0.2,1.6,0.3,3,0.3,4.3c0,1.8,0,3.9,0.2,6.5
		h-2.6c0.1-2.2,0.2-4.7,0.2-7.3c0-2.6-0.1-4.8-0.2-6.7h3.2c0,0.4,0.9,1.9,2.7,4.5c1.9,2.8,3,4.7,3.2,5.7h0.2c-0.2-1.6-0.3-3-0.3-4.3
		c0-1.9-0.1-3.9-0.2-6h2.7c-0.1,1.8-0.2,4-0.2,6.7C182.3,43.5,182.3,45.9,182.4,48.1z"/>
	<path class="st5" d="M198,40.6c0,2-0.7,3.8-2,5.3c-1.3,1.5-3.1,2.3-5.5,2.3c-1.1,0-2.5,0-4.4-0.1c0.1-2.2,0.1-4.6,0.1-7.3
		c0-2.6,0-4.8-0.1-6.7h1.9c0.3,0,0.8,0,1.4,0c0.6,0,1,0,1.2,0c2.6,0,4.5,0.6,5.6,1.9C197.4,37.3,198,38.8,198,40.6z M195.1,41.1
		c0-1.4-0.4-2.5-1.2-3.5c-0.8-0.9-2-1.4-3.7-1.4c-0.3,0-0.7,0-1.3,0.1c0.1,1.4,0.1,2.9,0.1,4.5c0,1.7,0,3.4,0.1,5.1
		c0.5,0.1,0.9,0.1,1.4,0.1c1.5,0,2.7-0.5,3.4-1.4C194.7,43.6,195.1,42.4,195.1,41.1z"/>
	<path class="st5" d="M212.4,48.1h-3.2c-0.8-2.5-1.5-4.1-1.9-4.7c-0.4-0.6-1.2-0.9-2.1-0.9c-0.4,0-0.8,0-1.2,0c0,1.8,0,3.7,0.1,5.6
		h-3c0.1-2.2,0.1-4.6,0.1-7.3c0-2.6,0-4.8-0.1-6.7h1.9c0.2,0,0.7,0,1.3,0c0.7,0,1.3,0,1.9,0c3.3,0,4.9,1.1,4.9,3.4
		c0,1.8-0.9,3-2.8,3.7v0.2c0.7,0.2,1.4,0.8,1.9,1.7C210.7,43.9,211.4,45.6,212.4,48.1z M208.3,38.2c0-1.4-0.9-2.1-2.8-2.1
		c-0.7,0-1.3,0-1.8,0.2c0.1,1.1,0.1,2.6,0.1,4.3c0.4,0,0.7,0,1,0C207.2,40.6,208.3,39.8,208.3,38.2z"/>
	<path class="st5" d="M227.8,40.8c0,2.2-0.7,4-2,5.5c-1.3,1.4-3,2.2-5,2.2c-1.9,0-3.5-0.7-4.7-2c-1.3-1.3-1.9-3-1.9-5.1
		c0-2.2,0.7-4,2-5.5c1.3-1.4,3-2.2,5-2.2c1.9,0,3.5,0.7,4.7,2C227.1,37.1,227.8,38.8,227.8,40.8z M224.8,41.1c0-1.5-0.4-2.7-1.1-3.6
		c-0.8-0.9-1.7-1.4-2.8-1.4c-1,0-1.9,0.5-2.7,1.4c-0.7,0.9-1.1,2.1-1.1,3.6c0,1.5,0.4,2.7,1.2,3.6c0.8,0.9,1.7,1.4,2.8,1.4
		c1,0,1.9-0.5,2.7-1.4C224.4,43.8,224.8,42.6,224.8,41.1z"/>
	<path class="st5" d="M233.8,48.1h-3c0.1-2.2,0.1-4.7,0.1-7.3c0-2.6,0-4.8-0.1-6.7h3c-0.1,1.8-0.1,4-0.1,6.7
		C233.7,43.5,233.8,45.9,233.8,48.1z"/>
	<path class="st5" d="M249.4,40.6c0,2-0.7,3.8-2,5.3c-1.3,1.5-3.1,2.3-5.5,2.3c-1.1,0-2.5,0-4.4-0.1c0.1-2.2,0.1-4.6,0.1-7.3
		c0-2.6,0-4.8-0.1-6.7h1.9c0.3,0,0.8,0,1.4,0c0.6,0,1,0,1.2,0c2.6,0,4.5,0.6,5.6,1.9C248.8,37.3,249.4,38.8,249.4,40.6z M246.5,41.1
		c0-1.4-0.4-2.5-1.2-3.5c-0.8-0.9-2-1.4-3.7-1.4c-0.3,0-0.7,0-1.3,0.1c0.1,1.4,0.1,2.9,0.1,4.5c0,1.7,0,3.4,0.1,5.1
		c0.5,0.1,0.9,0.1,1.4,0.1c1.5,0,2.7-0.5,3.4-1.4C246.1,43.6,246.5,42.4,246.5,41.1z"/>
	<path class="st5" d="M270.1,48.1h-3.4c0-0.5-0.3-1.8-1-4h-5c-0.7,2.2-1,3.5-1,4h-3.2c0-0.3,0.8-2.6,2.5-6.9
		c1.7-4.3,2.5-6.7,2.5-7.1h4.1c0,0.4,0.8,2.7,2.3,7C269.3,45.4,270.1,47.7,270.1,48.1z M265.1,42c-1.2-3.7-1.8-5.7-1.8-6h-0.2
		c0,0.3-0.6,2.3-1.9,6H265.1z"/>
	<path class="st5" d="M282.6,37.8c0,1.7-0.6,3-1.9,3.8c-1.3,0.8-2.8,1.2-4.7,1.2c-0.3,0-0.6,0-0.7,0c0,1.3,0,3.1,0.1,5.3h-3
		c0.1-2.1,0.1-4.5,0.1-7.3c0-2.6,0-4.8-0.1-6.7h1.9c0.3,0,0.8,0,1.5,0c0.8,0,1.4,0,2,0c1.4,0,2.5,0.3,3.4,0.9
		C282.1,35.6,282.6,36.5,282.6,37.8z M279.8,38.4c0-1.5-1-2.3-3.1-2.3c-0.5,0-1,0.1-1.6,0.2c0.1,1.4,0.1,2.9,0.1,4.6
		c0.2,0,0.4,0,0.6,0C278.5,40.8,279.8,40,279.8,38.4z"/>
	<path class="st5" d="M295.5,37.8c0,1.7-0.6,3-1.9,3.8c-1.3,0.8-2.8,1.2-4.7,1.2c-0.3,0-0.6,0-0.7,0c0,1.3,0,3.1,0.1,5.3h-3
		c0.1-2.1,0.1-4.5,0.1-7.3c0-2.6,0-4.8-0.1-6.7h1.9c0.3,0,0.8,0,1.5,0c0.8,0,1.4,0,2,0c1.4,0,2.5,0.3,3.4,0.9
		C295,35.6,295.5,36.5,295.5,37.8z M292.7,38.4c0-1.5-1-2.3-3.1-2.3c-0.5,0-1,0.1-1.6,0.2c0.1,1.4,0.1,2.9,0.1,4.6
		c0.2,0,0.4,0,0.6,0C291.4,40.8,292.7,40,292.7,38.4z"/>
	<path class="st5" d="M316.5,40.8c0,2.2-0.7,4-2,5.5c-1.3,1.4-3,2.2-5,2.2c-1.9,0-3.5-0.7-4.7-2c-1.3-1.3-1.9-3-1.9-5.1
		c0-2.2,0.7-4,2-5.5c1.3-1.4,3-2.2,5-2.2c1.9,0,3.5,0.7,4.7,2C315.9,37.1,316.5,38.8,316.5,40.8z M313.6,41.1c0-1.5-0.4-2.7-1.1-3.6
		c-0.8-0.9-1.7-1.4-2.8-1.4c-1,0-1.9,0.5-2.7,1.4c-0.7,0.9-1.1,2.1-1.1,3.6c0,1.5,0.4,2.7,1.2,3.6c0.8,0.9,1.7,1.4,2.8,1.4
		c1,0,1.9-0.5,2.7-1.4C313.2,43.8,313.6,42.6,313.6,41.1z"/>
	<path class="st5" d="M331.1,48.1h-2.7c0-0.3-1-1.8-3-4.7c-2.1-3-3.2-5-3.5-6.1h-0.2c0.2,1.6,0.3,3,0.3,4.3c0,1.8,0,3.9,0.2,6.5
		h-2.6c0.1-2.2,0.2-4.7,0.2-7.3c0-2.6-0.1-4.8-0.2-6.7h3.2c0,0.4,0.9,1.9,2.7,4.5c1.9,2.8,3,4.7,3.2,5.7h0.2c-0.2-1.6-0.3-3-0.3-4.3
		c0-1.9,0-3.9-0.2-6h2.7c-0.1,1.8-0.2,4-0.2,6.7C331,43.5,331,45.9,331.1,48.1z"/>
</g>
</svg>
