<?xml version="1.0" encoding="utf-8"?>
<!-- Generator: Adobe Illustrator 22.1.0, SVG Export Plug-In . SVG Version: 6.00 Build 0)  -->
<svg version="1.1" id="Layer_1" xmlns="http://www.w3.org/2000/svg" xmlns:xlink="http://www.w3.org/1999/xlink" x="0px" y="0px"
	 viewBox="0 0 32 32" style="enable-background:new 0 0 32 32;" xml:space="preserve">
<style type="text/css">
	.st0{fill:#79B843;}
	.st1{fill:#0B99D7;}
</style>
<g>
	<path class="st0" d="M5.7,16c0-5.7,4.6-10.3,10.3-10.3v1.1c0,0.1,0.1,0.2,0.2,0.1l2.8-2c0.1-0.1,0.1-0.2,0-0.2l-2.8-2
		c-0.1-0.1-0.2,0-0.2,0.1v1.1C9.3,3.9,3.9,9.3,3.9,16h0c0,3.9,1.9,7.5,5,9.8l1.1-1.5C7.3,22.4,5.7,19.3,5.7,16z"/>
	<path class="st1" d="M14.9,23.1c0,0.3,0.2,0.5,0.5,0.5h1.4c0.3,0,0.5-0.2,0.5-0.5v-1.1c0.8-0.1,1.5-0.5,2.2-0.9l0.8,0.8
		c0.2,0.2,0.5,0.2,0.7,0l1-1c0.2-0.2,0.2-0.5,0-0.7l-0.8-0.8c0.4-0.7,0.7-1.4,0.9-2.2h1.1c0.3,0,0.5-0.2,0.5-0.5v-1.4
		c0-0.3-0.2-0.5-0.5-0.5H22c-0.1-0.8-0.5-1.5-0.9-2.2l0.8-0.8v0c0.2-0.2,0.2-0.5-0.1-0.7l-1-1c-0.2-0.2-0.5-0.2-0.7,0L19.3,11
		c-0.7-0.4-1.4-0.7-2.2-0.9V9c0-0.3-0.2-0.5-0.5-0.5h-1.4c-0.3,0-0.5,0.2-0.5,0.5v1.1c-0.8,0.1-1.5,0.5-2.2,0.9l-0.8-0.8
		c-0.2-0.2-0.5-0.2-0.7,0l-1,1c-0.2,0.2-0.2,0.5,0,0.7l0.8,0.8c-0.4,0.7-0.7,1.4-0.9,2.2H8.9c-0.3,0-0.5,0.2-0.5,0.5v1.4
		c0,0.3,0.2,0.5,0.5,0.5H10c0.1,0.8,0.5,1.5,0.9,2.2l-0.8,0.8c-0.2,0.2-0.2,0.5,0,0.7l1,0.9c0.2,0.2,0.5,0.2,0.7,0l0.8-0.8
		c0.7,0.4,1.4,0.7,2.2,0.9V23.1z M14.5,19.3L13,17.8c-0.8-0.8-1.4-1.1-0.8-1.7c0.5-0.6,0.8-0.9,1.2-0.5c0.4,0.4,1.1,1.1,1.5,1.5l0,0
		c0.2-0.1,2.6-2.5,3.1-3c1.1-1.1,1-1.1,1.7-0.4c0.8,0.7,0.6,0.7-0.4,1.7l-3,3C15.5,19,15,19.8,14.5,19.3z"/>
	<path class="st0" d="M23.1,6.2L23.1,6.2L22,7.6c2.7,1.9,4.3,5.1,4.3,8.4c0,5.7-4.6,10.3-10.3,10.3v-1.1c0-0.1-0.1-0.2-0.2-0.1
		l-2.8,2c-0.1,0.1-0.1,0.2,0,0.2l2.8,2c0.1,0.1,0.2,0,0.2-0.1v-1.1c6.7,0,12.1-5.4,12.1-12.1C28.1,12.2,26.3,8.5,23.1,6.2z"/>
</g>
</svg>
