<?xml version="1.0" encoding="utf-8"?>
<!-- Generator: Adobe Illustrator 19.2.1, SVG Export Plug-In . SVG Version: 6.00 Build 0)  -->
<svg version="1.1" id="Layer_1" xmlns="http://www.w3.org/2000/svg" xmlns:xlink="http://www.w3.org/1999/xlink" x="0px" y="0px"
	 viewBox="0 0 32 32" style="enable-background:new 0 0 32 32;" xml:space="preserve">
<style type="text/css">
	.st0{fill:#009DDC;}
</style>
<g>
	<path class="st0" d="M9.2,11.9c-0.9,0-1.6-0.3-2.3-0.9C5.8,9.8,5.8,7.9,7,6.6c0.6-0.6,1.5-0.9,2.3-0.9c0.9,0,1.6,0.3,2.3,0.9
		c1.2,1.2,1.2,3.2,0,4.4C10.8,11.7,10,11.9,9.2,11.9z M9.2,7.5c-0.3,0-0.7,0.1-0.9,0.3c-0.6,0.6-0.6,1.5,0,1.9
		c0.3,0.3,0.6,0.3,0.9,0.3s0.7-0.1,0.9-0.3c0.6-0.6,0.6-1.5,0-1.9C9.9,7.6,9.6,7.5,9.2,7.5z"/>
	<path class="st0" d="M22.2,31.2c-0.7,0-1.4-0.3-1.8-0.8c-0.5-0.5-0.8-1.1-0.8-1.8s0.3-1.4,0.8-1.8l1.2-1.2l-0.3-0.3l-1.2,1.2
		c-0.5,0.5-1.1,0.8-1.8,0.8c-0.7,0-1.4-0.3-1.8-0.8c-0.5-0.5-0.8-1.1-0.8-1.8s0.3-1.4,0.8-1.8l1.2-1.2L15,18.9
		c-1.2,0.6-2.6,0.9-4.1,0.9c-2.5,0-4.8-0.9-6.6-2.7S1.6,13,1.6,10.5c0-2.4,0.9-4.7,2.7-6.5s4.1-2.7,6.6-2.7s4.8,0.9,6.6,2.7
		c2.8,2.8,3.5,7.1,1.8,10.6l10.1,10.1c0.6,0.6,0.9,1.4,0.9,2.1c0,0.9-0.3,1.6-0.9,2.1s-1.4,0.9-2.1,0.9c-0.8,0-1.5-0.3-2-0.8
		l-1.2,1.2C23.5,30.8,23,31.2,22.2,31.2z M21.3,22.7l2.9,2.9l-2.5,2.5c-0.2,0.2-0.2,0.3-0.2,0.6s0.1,0.3,0.2,0.6
		c0.2,0.2,0.3,0.2,0.6,0.2c0.2,0,0.3-0.1,0.6-0.2l2.5-2.5l1.1,1.1c0.3,0.3,0.6,0.3,0.9,0.3s0.7-0.1,0.9-0.3c0.3-0.3,0.3-0.6,0.3-0.9
		c0-0.3-0.1-0.7-0.3-0.9L17,15l0.3-0.6c1.7-2.9,1.2-6.6-1.2-9c-1.5-1.5-3.3-2.3-5.3-2.3S7,3.7,5.5,5.2s-2.1,3.3-2.1,5.4
		s0.8,3.8,2.1,5.3S8.8,18,10.8,18c1.4,0,2.6-0.3,3.7-1l0.6-0.3l5,5l-2.5,2.5c-0.2,0.2-0.2,0.3-0.2,0.6s0.1,0.3,0.2,0.6
		c0.2,0.2,0.3,0.2,0.6,0.2c0.2,0,0.3-0.1,0.6-0.2L21.3,22.7z"/>
</g>
</svg>
