<?xml version="1.0" encoding="utf-8"?>
<!-- Generator: Adobe Illustrator 19.2.1, SVG Export Plug-In . SVG Version: 6.00 Build 0)  -->
<svg version="1.1" id="Layer_1" xmlns="http://www.w3.org/2000/svg" xmlns:xlink="http://www.w3.org/1999/xlink" x="0px" y="0px"
	 viewBox="0 0 32 32" style="enable-background:new 0 0 32 32;" xml:space="preserve">
<style type="text/css">
	.st0{fill:#D2D2D2;}
	.st1{fill:#FFFFFF;}
</style>
<g>
	<g id="Ellipse_1_copy">
		<g>
			<circle class="st0" cx="16" cy="16" r="15.7"/>
		</g>
	</g>
	<g id="Rounded_Rectangle_2">
		<g>
			<path class="st1" d="M20.8,7.4h-9.3c-2.1,0-3.7,1.7-3.7,3.7v10.1c0,2.1,1.7,3.7,3.7,3.7h9.3c2.1,0,3.7-1.7,3.7-3.7v-10
				C24.6,9.1,22.9,7.4,20.8,7.4z"/>
		</g>
	</g>
	<g id="Polygon_1">
		<g>
			<polygon class="st0" points="20.8,13.4 18.5,12.1 16.2,10.8 13.9,12.1 11.6,13.4 11.7,16 11.6,19 13.9,20.3 16.2,21.6 18.5,20.3 
				20.8,19 20.7,16 			"/>
		</g>
	</g>
	<g id="Ellipse_4">
		<g>
			<circle class="st0" cx="16" cy="11.2" r="0.9"/>
		</g>
	</g>
	<g id="Ellipse_4_copy">
		<g>
			<circle class="st0" cx="16" cy="21.2" r="0.9"/>
		</g>
	</g>
	<g id="Ellipse_4_copy_2">
		<g>
			<circle class="st0" cx="20.5" cy="18.6" r="0.9"/>
		</g>
	</g>
	<g id="Ellipse_4_copy_3">
		<g>
			<circle class="st0" cx="20.5" cy="13.8" r="0.9"/>
		</g>
	</g>
	<g id="Ellipse_4_copy_4">
		<g>
			<circle class="st0" cx="11.9" cy="18.6" r="0.9"/>
		</g>
	</g>
	<g id="Ellipse_4_copy_4_2_">
		<g>
			<circle class="st0" cx="11.9" cy="13.8" r="0.9"/>
		</g>
	</g>
	<g id="Ellipse_3">
		<g>
			<circle class="st1" cx="16.2" cy="16.2" r="3"/>
		</g>
	</g>
	<g id="Ellipse_3_copy">
		<g>
			<circle class="st0" cx="16.2" cy="16.2" r="0.9"/>
		</g>
	</g>
</g>
</svg>
