<?xml version="1.0" encoding="utf-8"?>
<!-- Generator: Adobe Illustrator 19.2.1, SVG Export Plug-In . SVG Version: 6.00 Build 0)  -->
<svg version="1.1" id="Layer_1" xmlns="http://www.w3.org/2000/svg" xmlns:xlink="http://www.w3.org/1999/xlink" x="0px" y="0px"
	 viewBox="0 0 32 32" style="enable-background:new 0 0 32 32;" xml:space="preserve">
<style type="text/css">
	.st0{fill:#6F6F6F;}
</style>
<g>
	<g>
		<path class="st0" d="M25,12.1h0.5c0.9,0,1.5,0.7,1.5,1.5v2.4c0,0.2-0.1,0.3-0.2,0.4c-0.2,0.1-0.3,0.3-0.3,0.5v2.3
			c0,0.3,0.2,0.5,0.4,0.7c0.3,0.1,1.9,0.9,3.3,2.1c0.1,0.1,0.2,0.3,0.2,0.4v1.7c0,0.4,0.3,0.6,0.6,0.6c0.4,0,0.6-0.3,0.6-0.6v-1.7
			c0-0.5-0.2-1.1-0.7-1.4c-1.3-1.1-2.6-1.8-3.3-2.1v-1.7c0.3-0.3,0.5-0.7,0.5-1.2v-2.4c0-1.6-1.3-2.8-2.8-2.8H25
			c-1.6,0-2.8,1.3-2.8,2.8v2.4c0,0.5,0.2,0.9,0.5,1.2v0.8c0,0.4,0.3,0.6,0.6,0.6s0.6-0.3,0.6-0.6V17c0-0.2-0.1-0.4-0.3-0.5
			c-0.1-0.1-0.2-0.2-0.2-0.4v-2.4C23.4,12.8,24.1,12.1,25,12.1z"/>
		<path class="st0" d="M0.9,21.2c-0.4,0.3-0.7,0.9-0.7,1.4v1.7c0,0.4,0.3,0.6,0.6,0.6s0.6-0.3,0.6-0.6v-1.7c0-0.2,0.1-0.3,0.2-0.4
			c1.5-1.2,3-2,3.3-2.1c0.3-0.1,0.4-0.4,0.4-0.7V17c0-0.2-0.1-0.4-0.3-0.5C5.1,16.4,5,16.3,5,16.1v-2.4c0-0.9,0.7-1.5,1.5-1.5H7
			c0.9,0,1.5,0.7,1.5,1.5v2.4c0,0.2-0.1,0.3-0.2,0.4c-0.2,0.1-0.3,0.3-0.3,0.5v1.2c0,0.4,0.3,0.6,0.6,0.6s0.6-0.3,0.6-0.6v-0.9
			c0.3-0.3,0.5-0.7,0.5-1.2v-2.4c0-1.6-1.3-2.8-2.8-2.8H6.5c-1.6,0-2.8,1.3-2.8,2.8v2.4c0,0.5,0.2,0.9,0.5,1.2V19
			C3.6,19.4,2.2,20.1,0.9,21.2z"/>
		<path class="st0" d="M23.6,24.9c0.4,0,0.6-0.3,0.6-0.6v-2.1c0-0.6-0.3-1.3-0.8-1.7c-1.7-1.4-3.5-2.4-4.3-2.8v-2.4
			c0.4-0.4,0.6-0.9,0.6-1.5v-3.1c0-1.9-1.6-3.5-3.5-3.5h-0.7c-1.9,0-3.5,1.6-3.5,3.5v3.1c0,0.6,0.2,1.1,0.6,1.5v2.4
			c-0.8,0.4-2.6,1.4-4.3,2.8c-0.5,0.4-0.8,1-0.8,1.7v2.1c0,0.4,0.3,0.6,0.6,0.6c0.4,0,0.6-0.3,0.6-0.6v-2.1c0-0.3,0.1-0.5,0.3-0.7
			c1.9-1.6,3.9-2.6,4.3-2.8c0.3-0.1,0.4-0.4,0.4-0.7v-3c0-0.2-0.1-0.4-0.3-0.5c-0.2-0.1-0.3-0.4-0.3-0.6v-3.1c0-1.2,1-2.2,2.2-2.2
			h0.7c1.2,0,2.2,1,2.2,2.2v3.1c0,0.3-0.1,0.5-0.3,0.6c-0.2,0.1-0.3,0.3-0.3,0.5v3c0,0.3,0.2,0.6,0.4,0.7c0.4,0.2,2.4,1.2,4.3,2.8
			c0.2,0.2,0.3,0.4,0.3,0.7v2.1C23,24.6,23.3,24.9,23.6,24.9z"/>
	</g>
</g>
</svg>
