<?xml version="1.0" encoding="utf-8"?>
<!-- Generator: Adobe Illustrator 19.2.1, SVG Export Plug-In . SVG Version: 6.00 Build 0)  -->
<svg version="1.1" id="Layer_1" xmlns="http://www.w3.org/2000/svg" xmlns:xlink="http://www.w3.org/1999/xlink" x="0px" y="0px"
	 viewBox="0 0 32 32" style="enable-background:new 0 0 32 32;" xml:space="preserve">
<style type="text/css">
	.st0{fill:none;stroke:#2680D1;stroke-width:2;stroke-miterlimit:10;}
</style>
<path class="st0" d="M21.4,4.4h-3c-3.4,0-5.5,2.1-5.5,5.5v2.6H9.9c-0.2,0-0.6,0.2-0.6,0.6v3.6c0,0.2,0.2,0.6,0.6,0.6h3v9.6
	c0,0.2,0.2,0.6,0.6,0.6h4.1c0.2,0,0.6-0.2,0.6-0.6v-9.5h3.6c0.2,0,0.6-0.2,0.6-0.6v-3.6c0-0.2,0-0.2-0.2-0.4
	c-0.2-0.2-0.2-0.2-0.4-0.2h-3.6v-2.2c0-1.1,0.2-1.5,1.9-1.5h1.9c0.2,0,0.6-0.2,0.6-0.6V4.6C21.8,4.4,21.5,4.4,21.4,4.4z"/>
</svg>
