<?xml version="1.0" encoding="utf-8"?>
<!-- Generator: Adobe Illustrator 19.2.1, SVG Export Plug-In . SVG Version: 6.00 Build 0)  -->
<svg version="1.1" id="Layer_1" xmlns="http://www.w3.org/2000/svg" xmlns:xlink="http://www.w3.org/1999/xlink" x="0px" y="0px"
	 viewBox="0 0 32 32" style="enable-background:new 0 0 32 32;" xml:space="preserve">
<style type="text/css">
	.st0{fill:none;stroke:#009DDC;stroke-width:2;stroke-miterlimit:10;}
	.st1{fill:none;stroke:#009DDC;stroke-miterlimit:10;}
</style>
<circle class="st0" cx="16" cy="16" r="12.6"/>
<path class="st1" d="M13.3,20.5c-1.5-0.8-2.7-2.4-2.7-4.4c0-1,0.3-2,0.9-2.7l3.4,5.2H17l3.4-5.2c0.5,0.8,0.9,1.7,0.9,2.7
	c0,1.8-0.9,3.4-2.4,4.2l0.7,2.6c2.6-1.3,4.3-4,4.3-7C23.9,12.9,20,9,20,9l-4,6.2L12,9c-2.3,1.4-3.9,3.9-3.9,6.8
	c0,3.2,1.9,5.9,4.6,7.1L13.3,20.5z"/>
</svg>
