<svg id="Layer_1" data-name="Layer 1" xmlns="http://www.w3.org/2000/svg" viewBox="0 0 28.34 27.38"><defs><style>.cls-1{fill:#05a2d9;}.cls-1,.cls-2{fill-rule:evenodd;}.cls-2{fill:#fff;}.cls-3{fill:#8ac757;stroke:#5b7f39;stroke-miterlimit:10;}</style></defs><title>icon-admin</title><g id="Ellipse_2" data-name="Ellipse 2"><path class="cls-1" d="M2.05,27.46h23.2c-0.72-6.15-5.63-10.92-11.6-10.92S2.78,21.31,2.05,27.46Z" transform="translate(-2.05 -2.5)"/></g><g id="Ellipse_2_copy" data-name="Ellipse 2 copy"><path class="cls-2" d="M4.32,25.71H23a9.92,9.92,0,0,0-9.34-7.17A9.92,9.92,0,0,0,4.32,25.71Z" transform="translate(-2.05 -2.5)"/></g><g id="Ellipse_1" data-name="Ellipse 1"><path class="cls-1" d="M13.65,2.5a7,7,0,1,0,7,7A7,7,0,0,0,13.65,2.5Zm0,12.64a5.62,5.62,0,1,1,5.62-5.62A5.62,5.62,0,0,1,13.65,15.14Z" transform="translate(-2.05 -2.5)"/></g><path class="cls-3" d="M29.58,23.64l-1.46-1a5.5,5.5,0,0,0,0-1.94l1.49-1a0.73,0.73,0,0,0,.18-1L28.4,16.69a0.73,0.73,0,0,0-1-.18l-1.29.91a5.46,5.46,0,0,0-1.45-.82v-1.8a0.73,0.73,0,0,0-.73-0.73H21.55a0.73,0.73,0,0,0-.73.73v1.8a5.46,5.46,0,0,0-1.53.88l-1.38-1a0.73,0.73,0,0,0-1,.18l-1.36,1.94a0.73,0.73,0,0,0,.18,1l1.63,1.15a5.51,5.51,0,0,0,0,1.74l-1.61,1.1a0.73,0.73,0,0,0-.19,1l1.34,2a0.73,0.73,0,0,0,1,.19l1.31-.9a5.46,5.46,0,0,0,1.63,1v1.8a0.73,0.73,0,0,0,.73.73h2.37a0.73,0.73,0,0,0,.73-0.73v-1.8A5.46,5.46,0,0,0,26.19,26l1.22,0.84a0.73,0.73,0,0,0,1-.19l1.34-2A0.73,0.73,0,0,0,29.58,23.64Zm-5.76-1.91a1.09,1.09,0,1,1-1.09-1.09A1.09,1.09,0,0,1,23.82,21.73Z" transform="translate(-2.05 -2.5)"/></svg>