<?xml version="1.0" encoding="utf-8"?>
<!-- Generator: Adobe Illustrator 19.2.1, SVG Export Plug-In . SVG Version: 6.00 Build 0)  -->
<svg version="1.1" id="Layer_1" xmlns="http://www.w3.org/2000/svg" xmlns:xlink="http://www.w3.org/1999/xlink" x="0px" y="0px"
	 viewBox="0 0 32 32" style="enable-background:new 0 0 32 32;" xml:space="preserve">
<style type="text/css">
	.st0{fill:none;stroke:#009DDC;stroke-width:1.5;stroke-miterlimit:10;}
	.st1{fill:none;stroke:#F68E1E;stroke-miterlimit:10;}
	.st2{fill:#F9A350;stroke:#79B743;stroke-width:0.5;stroke-miterlimit:10;}
</style>
<g>
	<g>
		<path class="st0" d="M30,18.5V3.9C30,3.2,29.4,3,29.1,3H1.9C1.3,3,1,3.6,1,3.9v24.3C1,28.8,1.6,29,1.9,29h25.8"/>
	</g>
	<g>
		<g>
			<path class="st1" d="M21,12.9c-0.6-0.3-2.1-1.5-2.1-1.5c-0.6,1.2-1.5,1.5-2.3,2.1c0,0.6,0.9,2.1,1.5,2.6"/>
			<path class="st1" d="M16,6.7h-5c1.5,0,2.1,2.6,2.1,2.9l0,0l0,0c0,1.5,1.5,2.9,2.9,2.9s2.9-1.5,2.9-2.9C18.4,7.6,17.2,6.7,16,6.7
				L16,6.7z"/>
		</g>
		<path class="st1" d="M24.8,15.8c-1.5-1.5-2.6-2.6-3.5-3.2c-0.3,0.9-0.6,1.5-1.2,2.1c-0.9,0.9-1.5,1.2-2.6,1.5
			c0.9,1.2,2.1,2.6,2.9,4.1c4.4,4.4,9.7,7.9,10.3,7l0,0l0,0l0,0C31.9,26.1,28.7,20.5,24.8,15.8z"/>
	</g>
	<g>
		<g>
			<path class="st2" d="M10.2,27.1H8.7c-0.3,0-0.5-0.2-0.6-0.5L8,25.8c-0.3-0.1-0.6-0.2-0.9-0.3L6.3,26c-0.1,0.1-0.2,0.1-0.3,0.1
				c-0.2,0-0.3-0.1-0.4-0.2l-1-1c-0.2-0.2-0.2-0.5,0-0.8L5,23.2c-0.2-0.3-0.3-0.5-0.3-0.9l-0.9-0.2c-0.2,0-0.5-0.3-0.5-0.6V20
				c0-0.3,0.2-0.5,0.5-0.6l0.9-0.2c0.1-0.1,0.3-0.3,0.4-0.6l-0.5-0.8c-0.2-0.2-0.2-0.5,0-0.8l1-1c0.2-0.2,0.5-0.2,0.8,0l0.8,0.5
				c0.3-0.2,0.5-0.3,0.9-0.3l0.2-0.9c0-0.3,0.3-0.5,0.6-0.5h1.5c0.3,0,0.5,0.2,0.6,0.5l0.2,0.9c0.3,0.1,0.5,0.2,0.8,0.3l0.8-0.5
				C12.9,16,13,16,13.1,16c0.2,0,0.3,0.1,0.4,0.2l1,1c0.2,0.2,0.2,0.5,0,0.8l-0.6,0.7c0.2,0.3,0.3,0.5,0.3,0.9l0.9,0.2
				c0.3,0,0.5,0.3,0.5,0.6v1.5c0,0.3-0.2,0.5-0.5,0.6l-0.9,0.2c-0.1,0.3-0.2,0.6-0.3,0.9l0.5,0.8c0.2,0.2,0.2,0.5,0,0.8l-1,1
				c-0.2,0.2-0.5,0.2-0.8,0l-0.8-0.5c-0.3,0.2-0.5,0.3-0.9,0.3l-0.1,0.7C10.8,26.9,10.5,27.1,10.2,27.1z M7.2,24.9L7.2,24.9
				c0.4,0.2,0.8,0.3,1.1,0.4c0.1,0,0.1,0.1,0.2,0.2l0.2,1c0,0.1,0.1,0.2,0.2,0.2h1.5c0.1,0,0.2-0.1,0.2-0.2l0.2-1.1
				c0-0.1,0.1-0.2,0.2-0.2c0.3-0.1,0.7-0.2,1-0.4c0.1,0,0.2,0,0.2,0l0.9,0.6c0.1,0.1,0.2,0,0.2,0l1-1c0.1-0.1,0.1-0.2,0-0.2
				l-0.6-0.9c0-0.1,0-0.2,0-0.2c0.2-0.3,0.3-0.7,0.4-1c0-0.1,0.1-0.1,0.2-0.2l1-0.2c0.1,0,0.2-0.1,0.2-0.2V20c0-0.1-0.1-0.2-0.2-0.2
				l-1.1-0.2c-0.1,0-0.2-0.1-0.2-0.2c-0.1-0.3-0.2-0.7-0.4-1c0-0.1,0-0.2,0-0.2l0.6-0.9c0.1-0.1,0.1-0.2,0-0.2l-1-1
				C13.1,16,13,16,13,16.1l-1,0.8c-0.1,0-0.2,0-0.2,0c-0.3-0.2-0.7-0.3-1-0.4c-0.1,0-0.1-0.1-0.2-0.2l-0.2-1c0-0.1-0.1-0.2-0.2-0.2
				H8.8c-0.1,0-0.2,0.1-0.2,0.2l-0.2,1.1c0,0.1-0.1,0.2-0.2,0.2c-0.3,0.1-0.7,0.2-1,0.4C7.1,17,7,17,7,17l-0.9-0.6
				c-0.1-0.1-0.2-0.1-0.2,0l-1,1c-0.1,0.1-0.1,0.2,0,0.2l0.6,0.9c0,0.1,0,0.2,0,0.2c-0.2,0.3-0.3,0.7-0.4,1c0,0.1-0.1,0.1-0.2,0.2
				l-1,0.2c-0.1,0-0.2,0.1-0.2,0.2v1.5c0,0.1,0.1,0.2,0.2,0.2L5,22.2c0.1,0,0.2,0.1,0.2,0.2c0.1,0.3,0.2,0.7,0.4,1
				c0,0.1,0,0.2,0,0.2L5,24.5c-0.1,0.1-0.1,0.2,0,0.2l1,1c0.1,0.1,0.2,0.1,0.2,0l0.9-0.6C7.1,24.9,7.1,24.9,7.2,24.9z M9.5,23.4
				c-1.4,0-2.4-1.1-2.4-2.4s1.1-2.4,2.4-2.4s2.4,1.1,2.4,2.4S10.8,23.4,9.5,23.4z M9.5,18.9c-1.1,0-2.1,0.9-2.1,2.1s0.9,2.1,2.1,2.1
				s2.1-0.9,2.1-2.1S10.6,18.9,9.5,18.9z"/>
		</g>
	</g>
</g>
</svg>
