<?xml version="1.0" encoding="utf-8"?>
<!-- Generator: Adobe Illustrator 19.2.1, SVG Export Plug-In . SVG Version: 6.00 Build 0)  -->
<svg version="1.1" id="checkbox_1_" xmlns="http://www.w3.org/2000/svg" xmlns:xlink="http://www.w3.org/1999/xlink" x="0px"
	 y="0px" viewBox="0 0 32 32" style="enable-background:new 0 0 32 32;" xml:space="preserve">
<style type="text/css">
	.st0{fill-rule:evenodd;clip-rule:evenodd;fill:#FFFFFF;}
</style>
<g id="checkbox">
	<g>
		<path class="st0" d="M24.2,0.4H7.8c-4.1,0-7.4,3.3-7.4,7.4v16.4c0,4.1,3.3,7.4,7.4,7.4h16.4c4.1,0,7.4-3.3,7.4-7.4V7.8
			C31.6,3.7,28.3,0.4,24.2,0.4z M23.7,14.1L23.7,14.1l-7.9,7.4c-0.6,0.5-1.5,0.5-2.1-0.1l-4-4.1c-0.6-0.6-0.6-1.6,0-2.1
			c0.6-0.5,1.6-0.6,2.1,0l3,3l6.8-6.4c0.7-0.4,1.6-0.3,2.1,0.3C24.1,12.8,24.1,13.6,23.7,14.1z"/>
	</g>
</g>
</svg>
