<?xml version="1.0" encoding="utf-8"?>
<!-- Generator: Adobe Illustrator 19.2.1, SVG Export Plug-In . SVG Version: 6.00 Build 0)  -->
<svg version="1.1" xmlns="http://www.w3.org/2000/svg" xmlns:xlink="http://www.w3.org/1999/xlink" x="0px" y="0px"
	 viewBox="0 0 32 32" style="enable-background:new 0 0 32 32;" xml:space="preserve">
<style type="text/css">
	.st0{enable-background:new    ;}
	.st1{fill-rule:evenodd;clip-rule:evenodd;fill:#00A3D7;}
	.st2{fill:#FFFFFF;}
</style>
<g id="Rounded_Rectangle_9_copy_1_" class="st0">
	<g id="Rounded_Rectangle_9_copy">
		<g>
			<path class="st1" d="M30.2,0H1.8C0.8,0,0,0.8,0,1.8v28.4c0,1,0.8,1.8,1.8,1.8h28.3c1,0,1.8-0.8,1.8-1.8V1.8C32,0.8,31.2,0,30.2,0
				z"/>
		</g>
	</g>
	<g id="no_access_copy">
		<g>
			<path class="st2" d="M23.1,10.5L23.1,10.5L21.8,9l-0.1,0.1c-1.5-1.3-3.5-2.1-5.7-2.1c-5-0.1-9,4-9,9c0,2.1,0.7,3.9,1.9,5.5
				l-0.1,0.1l1.4,1.4l0.1-0.1c1.5,1.3,3.5,2.1,5.7,2.1c5,0,9-4,9-9C25,13.9,24.3,12.1,23.1,10.5z M8.6,16c0-4.1,3.3-7.5,7.4-7.5
				c1.7,0,3.3,0.6,4.5,1.5L10,20.3C9.1,19.1,8.6,17.6,8.6,16z M16,23.5c-1.7,0-3.3-0.6-4.5-1.5L22,11.7c0.9,1.3,1.4,2.7,1.4,4.3
				C23.5,20.1,20.1,23.5,16,23.5z"/>
		</g>
	</g>
</g>
<g id="Forma_1_1_" class="st0">
</g>
</svg>
