<?xml version="1.0" encoding="utf-8"?>
<!-- Generator: Adobe Illustrator 19.2.1, SVG Export Plug-In . SVG Version: 6.00 Build 0)  -->
<svg version="1.1" xmlns="http://www.w3.org/2000/svg" xmlns:xlink="http://www.w3.org/1999/xlink" x="0px" y="0px"
	 viewBox="0 0 32 32" style="enable-background:new 0 0 32 32;" xml:space="preserve">
<style type="text/css">
	.st0{enable-background:new    ;}
	.st1{fill-rule:evenodd;clip-rule:evenodd;fill:#7AC144;}
	.st2{fill-rule:evenodd;clip-rule:evenodd;fill:#009DDC;}
</style>
<g id="Shape_1_1_" class="st0">
</g>
<g id="Shape_1_copy_2_1_" class="st0">
</g>
<g id="Shape_1_copy_1_" class="st0">
	<g>
		<g id="Shape_1">
			<g>
				<path class="st1" d="M18.3,9.2H30c0.5,0,1-0.4,1-1s-0.4-1-1-1H18.3c-0.5,0-1,0.4-1,1S17.7,9.2,18.3,9.2z M30,22.8H18.3
					c-0.5,0-1,0.4-1,1s0.4,1,1,1H30c0.5,0,1-0.4,1-1S30.6,22.8,30,22.8z M23.2,12.1v5.5l-2.2-2.2c-0.4-0.4-1-0.4-1.4,0s-0.4,1,0,1.4
					l3.9,3.9c0,0,0.1,0.1,0.2,0.1c0,0,0,0,0.1,0c0,0,0.1,0,0.1,0.1c0,0,0.1,0,0.1,0c0,0,0.1,0,0.1,0c0.1,0,0.1,0,0.2,0
					c0.1,0,0.1,0,0.2,0c0,0,0.1,0,0.1,0c0,0,0.1,0,0.1,0c0,0,0.1,0,0.1-0.1c0,0,0,0,0.1,0c0.1,0,0.1-0.1,0.2-0.1l3.9-3.9
					c0.4-0.4,0.4-1,0-1.4s-1-0.4-1.4,0l-2.2,2.2v-5.5c0-0.5-0.4-1-1-1S23.2,11.5,23.2,12.1z"/>
			</g>
		</g>
		<g id="Shape_1_copy_2">
			<g>
				<path class="st2" d="M15.1,17H2.3c-0.5,0-1,0.4-1,1v11.7c0,0.5,0.4,1,1,1h12.8c0.5,0,1-0.4,1-1V18C16.1,17.4,15.7,17,15.1,17z
					 M14.2,28.7H3.3v-9.8h10.9V28.7z"/>
			</g>
		</g>
		<g id="Shape_1_copy">
			<g>
				<path class="st2" d="M15.1,1.3H2.3c-0.5,0-1,0.4-1,1V14c0,0.5,0.4,1,1,1h12.8c0.5,0,1-0.4,1-1V2.3C16.1,1.8,15.7,1.3,15.1,1.3z
					 M14.2,13.1H3.3V3.3h10.9V13.1z"/>
			</g>
		</g>
	</g>
</g>
</svg>
