<?xml version="1.0" encoding="utf-8"?>
<!-- Generator: Adobe Illustrator 19.2.1, SVG Export Plug-In . SVG Version: 6.00 Build 0)  -->
<svg version="1.1" id="Capa_1" xmlns="http://www.w3.org/2000/svg" xmlns:xlink="http://www.w3.org/1999/xlink" x="0px" y="0px"
	 viewBox="0 0 32 32" style="enable-background:new 0 0 32 32;" xml:space="preserve">
<style type="text/css">
	.st0{fill:#D80027;}
</style>
<g>
	<path class="st0" d="M15.1,2.6L0.8,27.9C0.3,28.9,0.9,30,2,30c6,0,22,0,28,0c1.1,0,1.7-1.1,1.2-2.1C26.5,19.6,16.9,2.6,16.9,2.6
		C16.5,1.9,15.4,1.9,15.1,2.6z M15.9,26.8c-1.1,0-1.9-0.9-1.9-1.9c0-1.1,0.9-1.9,1.9-1.9c1.1,0,1.9,0.9,1.9,1.9
		C17.8,25.9,17,26.8,15.9,26.8z M17.5,11c0,0,0,0.1,0,0.2L17,22.1c-0.3-0.1-0.7-0.2-1.1-0.2s-0.7,0.1-1.1,0.2l-0.5-10.9
		c0-0.9,0.6-1.6,1.5-1.7C16.7,9.5,17.5,10.1,17.5,11z"/>
</g>
</svg>
