<?xml version="1.0" encoding="utf-8"?>
<!-- Generator: Adobe Illustrator 19.2.1, SVG Export Plug-In . SVG Version: 6.00 Build 0)  -->
<svg version="1.1" xmlns="http://www.w3.org/2000/svg" xmlns:xlink="http://www.w3.org/1999/xlink" x="0px" y="0px"
	 viewBox="0 0 32 32" style="enable-background:new 0 0 32 32;" xml:space="preserve">
<style type="text/css">
	.st0{enable-background:new    ;}
	.st1{fill:#FF6600;}
	.st2{fill-rule:evenodd;clip-rule:evenodd;fill:#07A3D7;}
	.st3{fill:#07A3D7;}
</style>
<g id="Rounded_Rectangle_2_copy_4_1_" class="st0">
</g>
<g id="Rounded_Rectangle_2_copy_5_1_" class="st0">
</g>
<g id="Rectangle_2_copy_1_" class="st0">
</g>
<g id="Rectangle_2_copy_2_1_" class="st0">
</g>
<g id="Rectangle_1_copy_1_" class="st0">
</g>
<g id="Rectangle_1_copy_2_1_" class="st0">
	<g>
		<g id="Rounded_Rectangle_2_copy_4">
			<g>
				<path class="st1" d="M17,5.8c0.4,0,0.7,0.3,0.7,0.7v5.9c0,0.4-0.3,0.7-0.7,0.7H4.5c-0.4,0-0.7-0.3-0.7-0.7V6.4
					c0-0.4,0.3-0.7,0.7-0.7H17 M17,3.8H4.5C3,3.8,1.8,5,1.8,6.4v5.9c0,1.5,1.2,2.7,2.7,2.7H17c1.5,0,2.7-1.2,2.7-2.7V6.4
					C19.7,5,18.5,3.8,17,3.8L17,3.8z"/>
			</g>
		</g>
		<g id="Rounded_Rectangle_2_copy_5">
			<g>
				<path class="st1" d="M28.3,19.1c0.4,0,0.7,0.3,0.7,0.7v5.9c0,0.4-0.3,0.7-0.7,0.7H15.8c-0.4,0-0.7-0.3-0.7-0.7v-5.9
					c0-0.4,0.3-0.7,0.7-0.7H28.3 M28.3,17.1H15.8c-1.5,0-2.7,1.2-2.7,2.7v5.9c0,1.5,1.2,2.7,2.7,2.7h12.5c1.5,0,2.7-1.2,2.7-2.7
					v-5.9C31,18.3,29.8,17.1,28.3,17.1L28.3,17.1z"/>
			</g>
		</g>
		<g id="Rectangle_2_copy">
			<g>
				<polygon class="st2" points="21.3,5.8 21.3,7.1 28,7.1 28,12.4 29.3,12.4 29.3,7.1 29.3,5.8 				"/>
			</g>
			<g>
				<polygon class="st3" points="29.3,5.8 21.3,5.8 21.3,7.1 28,7.1 28,12.4 29.3,12.4 29.3,7.1 29.3,5.8 				"/>
			</g>
		</g>
		<g id="Rectangle_2_copy_2">
			<g>
				<polygon class="st2" points="4,25 4,19.7 2.7,19.7 2.7,26.4 4,26.4 11.3,26.4 11.3,25 				"/>
			</g>
			<g>
				<polygon class="st3" points="4,19.7 2.7,19.7 2.7,26.4 4,26.4 11.3,26.4 11.3,25 4,25 4,19.7 				"/>
			</g>
		</g>
		<g id="Rectangle_1_copy">
			<g>
				<polygon class="st2" points="32,10.9 31.3,9.7 28.6,12.1 26,9.7 25.3,10.9 28.5,13.7 28.6,13.5 28.8,13.7 				"/>
			</g>
			<g>
				<polygon class="st3" points="31.3,9.7 28.6,12.1 26,9.7 25.3,10.9 28.5,13.7 28.6,13.5 28.8,13.7 32,10.9 31.3,9.7 				"/>
			</g>
		</g>
		<g id="Rectangle_1_copy_2">
			<g>
				<polygon class="st2" points="6.7,20.6 3.5,17.7 3.4,17.9 3.2,17.7 0,20.6 0.7,21.7 3.4,19.3 6,21.7 				"/>
			</g>
			<g>
				<polygon class="st3" points="3.5,17.7 3.4,17.9 3.2,17.7 0,20.6 0.7,21.7 3.4,19.3 6,21.7 6.7,20.6 3.5,17.7 				"/>
			</g>
		</g>
	</g>
</g>
</svg>
