<?xml version="1.0" encoding="utf-8"?>
<!-- Generator: Adobe Illustrator 19.2.1, SVG Export Plug-In . SVG Version: 6.00 Build 0)  -->
<svg version="1.1" xmlns="http://www.w3.org/2000/svg" xmlns:xlink="http://www.w3.org/1999/xlink" x="0px" y="0px"
	 viewBox="0 0 32 32" style="enable-background:new 0 0 32 32;" xml:space="preserve">
<style type="text/css">
	.st0{enable-background:new    ;}
	.st1{fill-rule:evenodd;clip-rule:evenodd;fill:#83C54B;}
	.st2{fill-rule:evenodd;clip-rule:evenodd;fill:#FF6509;}
</style>
<g id="Rounded_Rectangle_1_1_" class="st0">
</g>
<g id="Shape_1_1_" class="st0">
	<g>
		<g id="Rounded_Rectangle_1">
			<g>
				<path class="st1" d="M26.4,1.5H5.6c-2.3,0-4.1,1.9-4.1,4.1v20.7c0,2.3,1.9,4.1,4.1,4.1h20.7c2.3,0,4.1-1.9,4.1-4.1V5.6
					C30.5,3.4,28.6,1.5,26.4,1.5z M28.4,26.4c0,1.1-0.9,2.1-2.1,2.1H5.6c-1.1,0-2.1-0.9-2.1-2.1V5.6c0-1.1,0.9-2.1,2.1-2.1h20.7
					c1.1,0,2.1,0.9,2.1,2.1V26.4z"/>
			</g>
		</g>
		<g id="Shape_1">
			<g>
				<polygon class="st2" points="20.4,18.1 20.4,22.2 19.4,22.2 19.4,12.7 15,12.7 15,22.2 14.3,22.2 14.3,15.4 9.6,15.4 9.6,22.2 
					8.5,22.2 8.5,9.2 5.8,9.2 5.8,10.2 7.2,10.2 7.2,23.9 10.9,23.9 10.9,16.8 12.9,16.8 12.9,23.9 16.3,23.9 16.3,14.4 18,14.4 
					18,23.9 21.7,23.9 21.7,19.5 23.8,19.5 23.8,23.9 25.1,23.9 25.1,18.1 				"/>
			</g>
		</g>
	</g>
</g>
</svg>
