<?xml version="1.0" encoding="utf-8"?>
<!-- Generator: Adobe Illustrator 19.2.1, SVG Export Plug-In . SVG Version: 6.00 Build 0)  -->
<svg version="1.1" id="Layer_1" xmlns="http://www.w3.org/2000/svg" xmlns:xlink="http://www.w3.org/1999/xlink" x="0px" y="0px"
	 viewBox="0 0 32 32" style="enable-background:new 0 0 32 32;" xml:space="preserve">
<style type="text/css">
	.st0{fill:#9E9E9E;}
</style>
<g>
	<path class="st0" d="M30.1,13.8h-2.3c-0.3-1.6-0.9-3.2-1.9-4.6l1.6-1.6c0.2-0.2,0.3-0.4,0.3-0.6s-0.1-0.5-0.3-0.6l-1.9-1.9
		c-0.2-0.2-0.4-0.3-0.6-0.3s-0.5,0.1-0.6,0.3l-1.6,1.6c-1.4-0.9-2.9-1.6-4.6-1.9V1.9c0-0.2-0.1-0.5-0.3-0.6C17.8,1.1,17.6,1,17.3,1
		h-2.7c-0.5,0-0.9,0.4-0.9,0.9v2.3c-1.6,0.3-3.2,0.9-4.6,1.9L7.6,4.4C7.4,4.3,7.2,4.2,7,4.2S6.5,4.3,6.4,4.5l-2,1.8
		C4.3,6.5,4.2,6.7,4.2,7s0.1,0.5,0.3,0.6l1.6,1.6l0,0c-0.9,1.4-1.6,2.9-1.9,4.5H1.9c-0.5,0-0.9,0.4-0.9,0.9v2.7
		c0,0.2,0.1,0.5,0.3,0.6c0.2,0.2,0.4,0.3,0.6,0.3h2.3c0.3,1.6,0.9,3.2,1.9,4.6l-1.6,1.6c-0.2,0.2-0.3,0.4-0.3,0.6s0.1,0.5,0.3,0.6
		l1.9,1.9c0.2,0.2,0.4,0.3,0.6,0.3s0.5-0.1,0.6-0.3l1.6-1.6c1.4,0.9,2.9,1.6,4.6,1.9v2.3c0,0.2,0.1,0.5,0.3,0.6
		c0.2,0.2,0.4,0.3,0.6,0.3h2.7c0.2,0,0.5-0.1,0.6-0.3s0.3-0.4,0.3-0.6v-2.3c1.6-0.3,3.2-0.9,4.6-1.9l1.6,1.6
		c0.2,0.2,0.4,0.3,0.6,0.3s0.5-0.1,0.6-0.3l1.9-1.9c0.2-0.2,0.3-0.4,0.3-0.6s-0.1-0.5-0.3-0.6L26,22.8c0.9-1.4,1.6-2.9,1.9-4.6h2.3
		c0.2,0,0.5-0.1,0.6-0.3c0.2-0.2,0.3-0.4,0.3-0.6v-2.7c0-0.2-0.1-0.5-0.3-0.6S30.3,13.8,30.1,13.8L30.1,13.8z M16,23.8
		c-2.1,0-4.1-0.8-5.5-2.3C9,20.1,8.2,18.1,8.2,16s0.8-4.1,2.3-5.5C11.9,9,13.9,8.2,16,8.2s4.1,0.8,5.5,2.3C23,12,23.8,14,23.8,16
		s-0.8,4.1-2.3,5.5C20.1,23,18.1,23.8,16,23.8z"/>
	<path class="st0" d="M20.2,16c0,2.3-1.9,4.2-4.2,4.2s-4.2-1.9-4.2-4.2s1.9-4.2,4.2-4.2S20.2,13.7,20.2,16"/>
</g>
</svg>
