<?xml version="1.0" encoding="utf-8"?>
<!-- Generator: Adobe Illustrator 19.2.1, SVG Export Plug-In . SVG Version: 6.00 Build 0)  -->
<svg version="1.1" id="Layer_2" xmlns="http://www.w3.org/2000/svg" xmlns:xlink="http://www.w3.org/1999/xlink" x="0px" y="0px"
	 viewBox="0 0 32 32" style="enable-background:new 0 0 32 32;" xml:space="preserve">
<style type="text/css">
	.st0{fill:none;stroke:#9C9C9C;stroke-width:0.8;stroke-miterlimit:10;}
</style>
<g id="Forma_1_1_">
	<g>
		<g>
			<path class="st0" d="M21.5,30.6c-0.9,0-1.5-0.3-2.2-0.6c-0.7-0.3-1.5-0.6-2.7-0.6s-2,0.3-2.7,0.6c-0.6,0.3-1.3,0.6-2.2,0.6
				c-1.9,0-3.3-1.9-4.5-3.7C4.4,23,2.8,16.5,5.3,12.1c1.1-2.1,3.5-3.5,5.9-3.6c1,0,2,0.4,2.9,0.7c0.8,0.3,1.4,0.6,2,0.6
				c0.5,0,1.2-0.3,1.9-0.6c1-0.4,2.2-0.9,3.4-0.9c0.1,0,0.3,0,0.4,0c2,0.1,4,1.1,5.1,2.7c-1.9,1.2-3.1,3.4-3.1,5.8
				c0,2.7,1.5,5,4,6.1c-0.5,1.4-1.2,2.7-2,4C24.7,28.9,23.4,30.6,21.5,30.6z M16.1,7.8c-0.1-1.5,0.4-3.1,1.5-4.3
				c1-1.2,2.4-2,4.1-2.2c0.1,1.6-0.4,3.2-1.5,4.4C19.1,7.1,17.6,7.8,16.1,7.8z"/>
		</g>
	</g>
</g>
</svg>
