<?xml version="1.0" encoding="utf-8"?>
<!-- Generator: Adobe Illustrator 19.2.1, SVG Export Plug-In . SVG Version: 6.00 Build 0)  -->
<svg version="1.1" xmlns="http://www.w3.org/2000/svg" xmlns:xlink="http://www.w3.org/1999/xlink" x="0px" y="0px"
	 viewBox="0 0 32 32" style="enable-background:new 0 0 32 32;" xml:space="preserve">
<style type="text/css">
	.st0{enable-background:new    ;}
	.st1{fill:#1582B5;}
	.st2{fill-rule:evenodd;clip-rule:evenodd;fill:#1582B5;}
</style>
<g id="OAUTH">
</g>
<g id="PROVIDER">
</g>
<g id="Ellipse_1_1_" class="st0">
</g>
<g id="Ellipse_1_copy_1_" class="st0">
</g>
<g id="Rounded_Rectangle_1_1_" class="st0">
</g>
<g id="Rounded_Rectangle_1_copy_1_" class="st0">
</g>
<g id="Rectangle_2_1_" class="st0">
</g>
<g id="Rectangle_1_1_" class="st0">
	<g>
		<g>
			<path class="st1" d="M11.1,5.7c-0.1,0.3-0.3,0.6-0.6,0.8c-0.3,0.2-0.6,0.2-1,0.1C9.2,6.5,8.9,6.3,8.8,6C8.6,5.7,8.5,5.4,8.6,5
				c0.1-0.3,0.3-0.6,0.6-0.8c0.3-0.2,0.6-0.2,1-0.1c0.3,0.1,0.6,0.3,0.8,0.6C11.2,5.1,11.2,5.4,11.1,5.7z M10.1,4.5
				c-0.2-0.1-0.5,0-0.7,0.1C9.2,4.7,9.1,4.9,9,5.1C9,5.4,9,5.6,9.1,5.8C9.3,6,9.4,6.2,9.7,6.2c0.2,0.1,0.5,0,0.7-0.1
				c0.2-0.1,0.3-0.3,0.4-0.5c0.1-0.2,0-0.5-0.1-0.7S10.3,4.6,10.1,4.5z"/>
			<path class="st1" d="M12.4,5l-0.1,0.6l-0.4,0.1l0.4-2.7L12.7,3l1.7,2.1l-0.4,0.1l-0.4-0.5L12.4,5z M13.3,4.4l-0.7-0.9l-0.2,1.1
				L13.3,4.4z"/>
			<path class="st1" d="M15.3,4.5c0.1,0.1,0.3,0.2,0.5,0.2c0.2,0,0.3-0.1,0.5-0.2c0.1-0.1,0.2-0.3,0.2-0.5l0-1.4l0.4,0l0,1.4
				c0,0.4-0.1,0.6-0.3,0.8s-0.4,0.3-0.7,0.3c-0.3,0-0.6-0.1-0.8-0.3c-0.2-0.2-0.3-0.5-0.3-0.8l0-1.4l0.4,0l0,1.4
				C15.1,4.2,15.2,4.4,15.3,4.5z"/>
			<path class="st1" d="M18.9,3.3l-0.4,2l-0.4-0.1l0.4-2L17.8,3l0.1-0.4l1.9,0.4l-0.1,0.4L18.9,3.3z"/>
			<path class="st1" d="M19.7,5.6l1-2.2l0.4,0.2l-0.5,1l1.1,0.5l0.5-1l0.4,0.2l-1,2.2l-0.4-0.2l0.4-0.9l-1.1-0.5l-0.4,0.9L19.7,5.6z
				"/>
		</g>
		<g>
			<path class="st1" d="M24.9,25.8c-0.2,0-0.4-0.1-0.6-0.3c-0.2-0.2-0.3-0.4-0.3-0.7c0-0.2,0.2-0.5,0.4-0.7l0.3-0.3l-0.5-0.5
				l0.3-0.3l1.7,1.8l-0.6,0.6C25.4,25.6,25.1,25.8,24.9,25.8z M24.4,24.9c0,0.1,0.1,0.2,0.2,0.4c0.1,0.1,0.2,0.2,0.4,0.1
				c0.1,0,0.3-0.1,0.4-0.3l0.3-0.3L25,24.1l-0.3,0.3C24.5,24.6,24.4,24.7,24.4,24.9z"/>
			<path class="st1" d="M21.8,27.2c-0.2-0.3-0.2-0.7,0.1-0.9l-1-0.4l0.5-0.3l0.9,0.4l0.5-0.3l-0.4-0.7l0.4-0.2l1.3,2.1l-0.8,0.5
				c-0.3,0.2-0.6,0.3-0.8,0.3C22.1,27.5,22,27.4,21.8,27.2z M22.1,26.6c0,0.1,0,0.2,0.1,0.4c0.1,0.1,0.2,0.2,0.3,0.2
				c0.1,0,0.3,0,0.4-0.2l0.5-0.3L22.9,26l-0.4,0.3C22.3,26.4,22.2,26.5,22.1,26.6z"/>
			<path class="st1" d="M18.5,26.9c0.2-0.3,0.4-0.5,0.8-0.6c0.4-0.1,0.7-0.1,1,0.1s0.5,0.4,0.6,0.8c0.1,0.3,0.1,0.7-0.1,1
				c-0.2,0.3-0.4,0.5-0.8,0.6c-0.4,0.1-0.7,0.1-1-0.1c-0.3-0.2-0.5-0.4-0.6-0.8C18.2,27.6,18.3,27.2,18.5,26.9z M19.2,28.3
				c0.2,0.1,0.4,0.1,0.7,0.1c0.2-0.1,0.4-0.2,0.5-0.4c0.1-0.2,0.1-0.4,0.1-0.7c-0.1-0.2-0.2-0.4-0.4-0.5c-0.2-0.1-0.4-0.1-0.7-0.1
				c-0.2,0.1-0.4,0.2-0.5,0.4c-0.1,0.2-0.1,0.4-0.1,0.7C18.8,28,19,28.2,19.2,28.3z"/>
			<path class="st1" d="M16.3,26.8l0.5,0l1.1,2.4l-0.5,0l-0.8-1.8l-0.7,1.9l-0.5,0L16.3,26.8z"/>
			<path class="st1" d="M14.5,29.2l-0.4-0.1l0.3-2.4l0.4,0.1L14.5,29.2z"/>
			<path class="st1" d="M11.2,28.1c-0.2-0.3-0.2-0.6-0.1-1c0.1-0.4,0.3-0.6,0.6-0.8c0.3-0.1,0.7-0.1,1.1,0l0.8,0.3l-0.8,2.3
				l-0.8-0.3C11.7,28.5,11.4,28.3,11.2,28.1z M11.6,27.2c-0.2,0.5,0,0.9,0.7,1.1l0.4,0.1l0.5-1.6l-0.4-0.1c-0.3-0.1-0.5-0.1-0.7,0
				C11.8,26.8,11.7,26.9,11.6,27.2z"/>
			<path class="st1" d="M8.2,26.8l0.2-0.3l1.1,0.7l0.3-0.6l-1-0.6l0.2-0.3l1,0.6l0.3-0.6L9.3,25l0.2-0.3l1.5,0.9l-1.3,2.1L8.2,26.8z
				"/>
			<path class="st1" d="M6.4,24.1c0.3-0.3,0.6-0.3,0.9-0.2l0.2-1.1l0.4,0.4l-0.2,1l0.4,0.4L8.7,24L9,24.3L7.3,26l-0.7-0.6
				c-0.3-0.3-0.4-0.5-0.4-0.7C6.1,24.5,6.2,24.3,6.4,24.1z M7.1,24.2c-0.1,0-0.2,0-0.3,0.2c-0.1,0.1-0.2,0.2-0.1,0.3
				c0,0.1,0.1,0.2,0.3,0.4l0.4,0.4l0.6-0.6l-0.4-0.4C7.3,24.3,7.2,24.2,7.1,24.2z"/>
		</g>
		<g id="Ellipse_1">
			<g>
				<path class="st2" d="M16,0.9C7.6,0.9,0.8,7.6,0.8,16c0,8.4,6.8,15.1,15.1,15.1c8.4,0,15.1-6.8,15.1-15.1
					C31.1,7.6,24.3,0.9,16,0.9z M16,30.1C8.2,30.1,1.9,23.8,1.9,16S8.2,1.9,16,1.9C23.7,1.9,30,8.2,30,16S23.7,30.1,16,30.1z"/>
			</g>
		</g>
		<g id="Ellipse_1_copy">
			<g>
				<path class="st2" d="M16,5.7C10.3,5.7,5.7,10.3,5.7,16S10.3,26.3,16,26.3S26.3,21.7,26.3,16S21.7,5.7,16,5.7z M16,25.6
					c-5.3,0-9.6-4.3-9.6-9.6s4.3-9.6,9.6-9.6c5.3,0,9.6,4.3,9.6,9.6S21.3,25.6,16,25.6z"/>
			</g>
		</g>
		<g id="Rounded_Rectangle_1">
			<g>
				<path class="st2" d="M15.9,9.9C15,9.6,14,10.1,13.7,11l-3.1,9.6c-0.3,0.9,0.2,1.9,1.1,2.2c0.9,0.3,1.9-0.2,2.2-1.1l3.1-9.6
					C17.3,11.2,16.8,10.2,15.9,9.9z"/>
			</g>
		</g>
		<g id="Rounded_Rectangle_1_copy">
			<g>
				<path class="st2" d="M21.5,20.6L18.4,11c-0.3-0.9-1.3-1.4-2.2-1.1c-0.9,0.3-1.4,1.3-1.1,2.2l3.1,9.6c0.3,0.9,1.3,1.4,2.2,1.1
					C21.3,22.5,21.8,21.5,21.5,20.6z"/>
			</g>
		</g>
		<g id="Rectangle_2">
			<g>
				<rect x="14.8" y="9.8" class="st2" width="2.1" height="1.4"/>
			</g>
		</g>
		<g id="Rectangle_1">
			<g>
				<rect x="13.1" y="13.7" class="st2" width="5.3" height="5.9"/>
			</g>
		</g>
	</g>
</g>
</svg>
