<?xml version="1.0" encoding="utf-8"?>
<!-- Generator: Adobe Illustrator 19.2.1, SVG Export Plug-In . SVG Version: 6.00 Build 0)  -->
<svg version="1.1" id="Layer_1" xmlns="http://www.w3.org/2000/svg" xmlns:xlink="http://www.w3.org/1999/xlink" x="0px" y="0px"
	 viewBox="0 0 32 32" style="enable-background:new 0 0 32 32;" xml:space="preserve">
<style type="text/css">
	.st0{fill:#2E7CA8;}
	.st1{fill:none;stroke:#1B75BB;stroke-miterlimit:10;}
	.st2{fill:none;stroke:#FFFFFF;stroke-miterlimit:10;}
</style>
<g>
	<polygon class="st0" points="22.6,20.2 15.6,24.1 8.2,20.2 8.2,11.6 15.6,7.3 22.6,11.6 	"/>
	<g>
		<polyline class="st1" points="22.6,11.8 29,8.1 22.6,11.8 		"/>
		<polyline class="st2" points="8.2,11.4 16,15.7 22.6,11.8 		"/>
		<polyline class="st1" points="16,24.1 16,30.9 16,30.9 29.2,23.1 29,8.1 16,0.5 2.8,8.1 2.8,8.1 8.2,11.4 		"/>
		<polyline class="st2" points="22.6,11.8 16,15.7 16,24.1 		"/>
		<polyline class="st2" points="16,24.1 16,15.7 8.2,11.4 		"/>
		<polyline class="st1" points="8.2,11.4 2.8,8.1 2.8,23.3 16,30.9 16,24.1 		"/>
	</g>
</g>
</svg>
