<?xml version="1.0" encoding="utf-8"?>
<!-- Generator: Adobe Illustrator 19.2.1, SVG Export Plug-In . SVG Version: 6.00 Build 0)  -->
<svg version="1.1" id="Layer_1" xmlns="http://www.w3.org/2000/svg" xmlns:xlink="http://www.w3.org/1999/xlink" x="0px" y="0px"
	 viewBox="0 0 32 32" style="enable-background:new 0 0 32 32;" xml:space="preserve">
<style type="text/css">
	.st0{fill:url(#SVGID_1_);}
	.st1{fill:url(#SVGID_2_);}
	.st2{fill:url(#SVGID_3_);}
	.st3{fill:url(#SVGID_4_);}
	.st4{fill:url(#SVGID_5_);}
	.st5{fill:url(#SVGID_6_);}
	.st6{fill:url(#SVGID_7_);}
	.st7{fill:url(#SVGID_8_);}
	.st8{fill:url(#SVGID_9_);}
	.st9{fill:url(#SVGID_10_);}
	.st10{fill:url(#SVGID_11_);}
	.st11{opacity:0.14;}
	.st12{fill:#6F9D10;}
</style>
<g>
	<linearGradient id="SVGID_1_" gradientUnits="userSpaceOnUse" x1="21.7138" y1="9.3484" x2="23.5841" y2="36.6231">
		<stop  offset="0" style="stop-color:#90B91B"/>
		<stop  offset="0.5092" style="stop-color:#85B017"/>
		<stop  offset="1" style="stop-color:#6F9D10"/>
	</linearGradient>
	<path class="st0" d="M27.1,18.7c-1.3,0.7-2.7,1.1-4,1.1c-0.9,0-1.8-0.1-2.5-0.4c-1.4,1.2-2.8,2.1-3.5,2.5c1.1,1.7,2.8,3,4.8,3.5
		c0.6,0.2,1.3,0.2,1.9,0.2c1.4,0,2.8-0.4,4-1c0.2-0.7,0.3-1.4,0.3-2C28.1,21.2,27.8,19.9,27.1,18.7z"/>
	<linearGradient id="SVGID_2_" gradientUnits="userSpaceOnUse" x1="25.6669" y1="9.0793" x2="27.5451" y2="36.4703">
		<stop  offset="0" style="stop-color:#90B91B"/>
		<stop  offset="0.5092" style="stop-color:#85B017"/>
		<stop  offset="1" style="stop-color:#6F9D10"/>
	</linearGradient>
	<path class="st1" d="M25.8,8.6c-0.1,0-0.2-0.1-0.3-0.1l0,0C25.6,8.6,25.7,8.6,25.8,8.6z"/>
	<linearGradient id="SVGID_3_" gradientUnits="userSpaceOnUse" x1="25.5677" y1="9.0843" x2="27.438" y2="36.3595">
		<stop  offset="0" style="stop-color:#90B91B"/>
		<stop  offset="0.5092" style="stop-color:#85B017"/>
		<stop  offset="1" style="stop-color:#6F9D10"/>
	</linearGradient>
	<path class="st2" d="M25.5,8.6c-0.2,1.6-0.9,3-1.9,4.1c0.1,0.3,0.1,0.6,0.1,0.9c0,1.9-1,3.5-2.2,4.8c0.3,0,0.7,0.1,1,0.1
		c1.7,0,3.5-0.6,4.9-1.7c1.7-1.3,2.7-3.2,3-5.1c-1.1-1.5-2.8-2.6-4.7-3.1C25.7,8.6,25.6,8.6,25.5,8.6L25.5,8.6z"/>
	<linearGradient id="SVGID_4_" gradientUnits="userSpaceOnUse" x1="20.7876" y1="9.4118" x2="22.6578" y2="36.6854">
		<stop  offset="0" style="stop-color:#90B91B"/>
		<stop  offset="0.5092" style="stop-color:#85B017"/>
		<stop  offset="1" style="stop-color:#6F9D10"/>
	</linearGradient>
	<path class="st3" d="M24.2,7.3c0-2.2-0.9-4.1-2.2-5.5c0,0-0.1,0-0.1,0c-1.9,0-3.6,0.7-5.1,2.1c1.5,1.5,2,3.5,2,5.5
		c0,0.2,0,0.3,0,0.5c0.3-0.1,0.7-0.1,1-0.1c0,0,0.1,0,0.1,0c1.2,0,2.5,0.6,3.2,1.8C23.8,10.2,24.2,8.8,24.2,7.3z"/>
	<linearGradient id="SVGID_5_" gradientUnits="userSpaceOnUse" x1="12.7156" y1="9.9651" x2="14.5858" y2="37.2388">
		<stop  offset="0" style="stop-color:#90B91B"/>
		<stop  offset="0.5092" style="stop-color:#85B017"/>
		<stop  offset="1" style="stop-color:#6F9D10"/>
	</linearGradient>
	<path class="st4" d="M9.8,1.9c-0.1,0-0.2,0-0.3,0C8.2,3.3,7.4,5.2,7.4,7.2c0,0,0,0.1,0,0.1c0.1,0,0.2,0,0.3,0
		c2.2,0,4.2,0.9,5.6,2.3c1.2,0.1,2.4,0.7,3.1,2c0.3-0.7,0.9-1.2,1.4-1.4c0-0.1,0-0.2,0-0.3c0-2.2-0.9-4.4-2.7-6
		C13.6,2.5,11.7,1.9,9.8,1.9z"/>
	<linearGradient id="SVGID_6_" gradientUnits="userSpaceOnUse" x1="12.2844" y1="9.7439" x2="12.2845" y2="9.7458">
		<stop  offset="0" style="stop-color:#90B91B"/>
		<stop  offset="0.5092" style="stop-color:#85B017"/>
		<stop  offset="1" style="stop-color:#6F9D10"/>
	</linearGradient>
	<polygon class="st5" points="12.3,9.7 12.3,9.7 12.3,9.7 	"/>
	<linearGradient id="SVGID_7_" gradientUnits="userSpaceOnUse" x1="6.7585" y1="10.3742" x2="8.6288" y2="37.6473">
		<stop  offset="0" style="stop-color:#90B91B"/>
		<stop  offset="0.5092" style="stop-color:#85B017"/>
		<stop  offset="1" style="stop-color:#6F9D10"/>
	</linearGradient>
	<path class="st6" d="M12,9.7C10.8,9,9.5,8.6,8,8.6c-0.5,0-0.9,0-1.4,0.1c-2.1,0.4-3.9,1.6-5.1,3.1c0.3,1.9,1.3,3.7,3,5
		c1.2-1.6,2.9-2.7,4.6-3c0-0.1,0-0.2,0-0.3C9.1,11.5,10.5,10.1,12,9.7z"/>
	<linearGradient id="SVGID_8_" gradientUnits="userSpaceOnUse" x1="6.9895" y1="10.3581" x2="8.8599" y2="37.6341">
		<stop  offset="0" style="stop-color:#90B91B"/>
		<stop  offset="0.5092" style="stop-color:#85B017"/>
		<stop  offset="1" style="stop-color:#6F9D10"/>
	</linearGradient>
	<path class="st7" d="M5,18.7c-0.6,1.2-0.9,2.5-0.9,3.7c0,0.8,0.1,1.5,0.3,2.2c1.2,0.6,2.5,1,3.8,1c0.6,0,1.3-0.1,2-0.2
		c-0.2-0.7-0.3-1.5-0.3-2.2c0-1.7,0.5-3.4,1.5-4.7c-0.9-1-1.7-2.2-2-3.5C7.5,15.6,6,16.9,5,18.7z"/>
	<linearGradient id="SVGID_9_" gradientUnits="userSpaceOnUse" x1="10.6004" y1="9.7944" x2="12.5074" y2="37.604">
		<stop  offset="0" style="stop-color:#90B91B"/>
		<stop  offset="0.5092" style="stop-color:#85B017"/>
		<stop  offset="1" style="stop-color:#6F9D10"/>
	</linearGradient>
	<polygon class="st8" points="11.8,26.2 11.8,26.2 11.7,26.2 11.7,26.2 	"/>
	<linearGradient id="SVGID_10_" gradientUnits="userSpaceOnUse" x1="14.6904" y1="9.8309" x2="16.5606" y2="37.1045">
		<stop  offset="0" style="stop-color:#90B91B"/>
		<stop  offset="0.5092" style="stop-color:#85B017"/>
		<stop  offset="1" style="stop-color:#6F9D10"/>
	</linearGradient>
	<path class="st9" d="M16.1,30.3c1.8-0.8,3.3-2.2,4.2-4.1c-2-0.9-3.6-2.4-4.3-4.3c-0.7-0.3-2.3-1.3-3.9-2.7
		c-0.6,1.1-0.9,2.4-0.9,3.7c0,1.1,0.2,2.2,0.7,3.3C12.7,28.1,14.3,29.5,16.1,30.3z"/>
	<linearGradient id="SVGID_11_" gradientUnits="userSpaceOnUse" x1="10.7116" y1="10.1327" x2="12.5784" y2="37.3574">
		<stop  offset="0" style="stop-color:#90B91B"/>
		<stop  offset="0.5092" style="stop-color:#85B017"/>
		<stop  offset="1" style="stop-color:#6F9D10"/>
	</linearGradient>
	<polygon class="st10" points="11.9,26.1 11.8,26.2 11.8,26.2 	"/>
	<g class="st11">
		<path class="st12" d="M23.3,20.1c1.4,0,2.7-0.3,4-1c-0.1-0.1-0.1-0.3-0.2-0.4c-1.3,0.7-2.7,1.1-4,1.1c-0.9,0-1.8-0.1-2.5-0.4
			c-1.4,1.2-2.8,2.1-3.5,2.5c0.1,0.1,0.2,0.2,0.2,0.3c0.7-0.4,2.2-1.2,3.5-2.4C21.5,20,22.4,20.1,23.3,20.1z"/>
		<path class="st12" d="M25.5,8.5L25.5,8.5c0.1,0,0.2,0.1,0.3,0.1C25.7,8.6,25.6,8.6,25.5,8.5z"/>
		<path class="st12" d="M23.8,13.1c1-1.1,1.7-2.5,1.9-4.1l0-0.1l0,0c0.1,0,0.2,0.1,0.3,0.1c1.8,0.4,3.4,1.4,4.5,2.8c0,0,0-0.1,0-0.1
			c-1.1-1.5-2.8-2.6-4.7-3.1c-0.1,0-0.2-0.1-0.3-0.1l0,0.1c-0.2,1.6-0.9,3-1.9,4.1c0.1,0.3,0.1,0.6,0.1,0.9c0,1.9-1,3.5-2.2,4.8
			c0.2,0,0.3,0,0.5,0c1.1-1.3,1.9-2.8,1.9-4.5C23.8,13.7,23.8,13.4,23.8,13.1z"/>
		<path class="st12" d="M22.1,2.1c0,0,0.1,0,0.1,0c0.5,0.5,0.9,1.1,1.2,1.7C23.1,3,22.6,2.3,22,1.7c0,0-0.1,0-0.1,0
			c-1.9,0-3.6,0.7-5.1,2.1C16.9,3.9,17,4,17.1,4.1C18.6,2.7,20.2,2.1,22.1,2.1z"/>
		<path class="st12" d="M18.1,5.7c0.5,1.1,0.7,2.3,0.7,3.5c0,0.2,0,0.3,0,0.5c0.1,0,0.1,0,0.2,0c0,0,0,0,0-0.1
			C19,8.3,18.7,6.9,18.1,5.7z"/>
		<path class="st12" d="M9.7,2.2c0,0,0.2,0,0.3,0c1.9,0,3.8,0.7,5.3,2c0.8,0.7,1.4,1.5,1.9,2.4c-0.5-1-1.1-2-2-2.8
			c-1.5-1.4-3.4-2-5.3-2c-0.1,0-0.2,0-0.3,0C8.2,3.3,7.4,5.2,7.4,7.2c0,0,0,0.1,0,0.1c0.1,0,0.1,0,0.2,0C7.7,5.3,8.5,3.6,9.7,2.2z"
			/>
		<polygon class="st12" points="12.3,9.7 12.3,9.7 12.3,9.7 		"/>
		<path class="st12" d="M1.7,12.2c1.2-1.6,2.9-2.7,5.1-3.1C7.2,9,7.7,9,8.2,9c1.2,0,2.4,0.3,3.5,0.8c0.1,0,0.2-0.1,0.3-0.1
			C10.8,9,9.4,8.6,8,8.6c-0.5,0-0.9,0-1.4,0.1c-2.1,0.4-3.9,1.6-5.1,3.1c0.1,0.8,0.4,1.6,0.8,2.3C2,13.6,1.8,12.9,1.7,12.2z"/>
		<path class="st12" d="M11.3,18.5c-0.6-0.6-1.1-1.3-1.5-2C10.2,17.2,10.7,17.9,11.3,18.5C11.3,18.5,11.3,18.5,11.3,18.5z"/>
		<path class="st12" d="M5.2,19.1c0.9-1.8,2.5-3.1,4.2-3.7c0-0.1-0.1-0.3-0.1-0.4c-1.8,0.7-3.3,2-4.3,3.8C4.3,19.9,4,21.2,4,22.4
			c0,0.8,0.1,1.5,0.3,2.2c0,0,0.1,0,0.1,0.1c-0.1-0.6-0.2-1.2-0.2-1.9C4.2,21.5,4.5,20.3,5.2,19.1z"/>
		<polygon class="st12" points="11.7,26.2 11.7,26.2 11.8,26.1 11.8,26.1 		"/>
		<path class="st12" d="M20.1,26.4c0-0.1,0.1-0.2,0.1-0.2c-1.8-0.7-3.2-2-4-3.6C17,24.2,18.4,25.6,20.1,26.4z"/>
		<path class="st12" d="M12.2,19.5c1.5,1.4,3.2,2.4,3.9,2.7C16,22.1,16,22,15.9,21.9c-0.7-0.3-2.3-1.3-3.9-2.7
			c-0.6,1.1-0.9,2.4-0.9,3.7c0,1.1,0.2,2.2,0.7,3.3c0,0.1,0.1,0.2,0.2,0.3c-0.5-1-0.7-2.1-0.7-3.2C11.3,21.9,11.6,20.7,12.2,19.5z"
			/>
		<polygon class="st12" points="11.8,26.1 11.8,26.1 11.8,26.1 		"/>
	</g>
</g>
</svg>
