<?xml version="1.0" encoding="utf-8"?>
<!-- Generator: Adobe Illustrator 19.2.1, SVG Export Plug-In . SVG Version: 6.00 Build 0)  -->
<svg version="1.1" xmlns="http://www.w3.org/2000/svg" xmlns:xlink="http://www.w3.org/1999/xlink" x="0px" y="0px"
	 viewBox="0 0 32 32" style="enable-background:new 0 0 32 32;" xml:space="preserve">
<style type="text/css">
	.st0{fill:#808285;}
	.st1{fill:none;stroke:#009DDC;stroke-miterlimit:10;}
	.st2{fill:#FFFFFF;}
	.st3{fill:#FF6600;stroke:#FFFFFF;stroke-width:1.5;stroke-miterlimit:10;}
</style>
<g id="Layer_1">
	<path class="st0" d="M16,30.7C7.8,30.7,1.3,24.1,1.3,16S7.8,1.3,16,1.3S30.5,7.9,30.5,16C30.5,23.9,24.1,30.7,16,30.7z M16,2.7
		C8.5,2.7,2.5,8.5,2.5,16S8.5,29.3,16,29.3s13.4-5.9,13.4-13.4C29.4,8.7,23.4,2.7,16,2.7z"/>
	<path class="st1" d="M22.6,22.2L17.9,8.4C17.7,8.2,17.7,8,17.2,8H16h-0.2h-0.2h-1.2c-0.2,0-0.7,0.2-0.7,0.5L8.7,22.2
		c-0.2,0.2,0,0.5,0.2,0.7s0.2,0.2,0.7,0.2h2c0.2,0,0.7-0.2,0.7-0.5l1-3.5h5.3l0.7,3.7c0.2,0.2,0.2,0.5,0.7,0.5h2.3
		c0.2,0,0.5-0.2,0.7-0.2C23.4,22.7,23,22.4,22.6,22.2z"/>
</g>
<g id="Layer_3">
	<circle class="st2" cx="23.7" cy="21.8" r="2.9"/>
</g>
<g id="Layer_2">
	<path class="st3" d="M23.7,16.2c-4,0-7.2,3.2-7.2,7.2s3.2,7.2,7.2,7.2s7.2-3.2,7.2-7.2S27.7,16.2,23.7,16.2z M24.5,23.2l-0.3,0.2
		v3.4h-1.1v-3.4l-0.3-0.2c-0.5-0.3-0.8-0.8-0.8-1.4c0-0.9,0.7-1.7,1.7-1.7c0.9,0,1.7,0.7,1.7,1.7C25.4,22.4,25.1,22.9,24.5,23.2
		L24.5,23.2z"/>
</g>
</svg>
