<?xml version="1.0" encoding="utf-8"?>
<!-- Generator: Adobe Illustrator 19.2.1, SVG Export Plug-In . SVG Version: 6.00 Build 0)  -->
<svg version="1.1" id="Layer_1" xmlns="http://www.w3.org/2000/svg" xmlns:xlink="http://www.w3.org/1999/xlink" x="0px" y="0px"
	 viewBox="0 0 32 32" style="enable-background:new 0 0 32 32;" xml:space="preserve">
<style type="text/css">
	.st0{enable-background:new    ;}
	.st1{fill:#FB5155;}
	.st2{fill:#FD4F50;}
</style>
<g id="Ellipse_1_1_" class="st0">
</g>
<g id="Ellipse_6_1_" class="st0">
</g>
<g id="Ellipse_6_copy_3_1_" class="st0">
	<g>
		<g id="Ellipse_1">
			<g>
				<path class="st1" d="M12.3,26.3C7.9,25,4.6,20.8,4.6,16c0-5.9,4.7-10.7,10.7-10.7c1.7,0,3.3,0.4,4.7,1.1V2.6
					c-1.5-0.5-3.1-0.8-4.7-0.8C7.5,1.8,1,8.1,1,16c0,6.8,4.8,12.5,11.2,13.9v-3.6H12.3z"/>
			</g>
		</g>
		<g id="Ellipse_6">
			<g>
				<circle class="st1" cx="20.2" cy="4.5" r="1.9"/>
			</g>
		</g>
		<g id="Ellipse_6_copy_3">
			<g>
				<circle class="st1" cx="12.3" cy="28.2" r="1.9"/>
			</g>
		</g>
		<g>
			<rect x="20.9" y="12.7" class="st1" width="1.9" height="6.8"/>
			<path class="st1" d="M29.4,24c-0.1,0.1-0.3,0.4-0.7,0.4H14.9c-0.5,0-0.6-0.3-0.7-0.4c-0.1-0.1-0.2-0.5,0-0.8l6.9-13.8
				c0.1-0.3,0.4-0.5,0.7-0.5c0.3,0,0.6,0.2,0.7,0.5l6.9,13.8C29.7,23.5,29.4,23.8,29.4,24z M31.3,22.2L24.4,8.4
				c-0.5-1-1.5-1.6-2.5-1.6c-1.1,0-2,0.6-2.5,1.6l-6.9,13.8c-0.5,0.8-0.4,1.9,0.1,2.8c0.6,0.8,1.5,1.4,2.4,1.4h13.8
				c1,0,1.8-0.5,2.4-1.4C31.7,24.1,31.7,23.2,31.3,22.2z"/>
			<g id="Rounded_Rectangle_1_copy_3">
				<g>
					<circle class="st2" cx="21.8" cy="21.5" r="1.1"/>
				</g>
			</g>
		</g>
	</g>
</g>
</svg>
