<?xml version="1.0" encoding="utf-8"?>
<!-- Generator: Adobe Illustrator 19.2.1, SVG Export Plug-In . SVG Version: 6.00 Build 0)  -->
<svg version="1.1" id="Layer_1" xmlns="http://www.w3.org/2000/svg" xmlns:xlink="http://www.w3.org/1999/xlink" x="0px" y="0px"
	 viewBox="0 0 32 32" style="enable-background:new 0 0 32 32;" xml:space="preserve">
<style type="text/css">
	.st0{opacity:0.6;}
	.st1{fill:#FCFCFC;}
</style>
<title>call</title>
<g id="Forma_1" class="st0">
	<g id="Forma_1-2">
		<path class="st1" d="M16,2C8.3,2,2,8.3,2,16c0,7.7,6.3,14,14,14c0.5-0.1,0.8-0.6,0.6-1.1c-0.1-0.3-0.3-0.6-0.6-0.6
			C9.2,28.3,3.7,22.8,3.7,16C3.7,9.2,9.2,3.7,16,3.7S28.3,9.2,28.3,16c0,2.7-1.3,5.3-3.7,6.8c-0.8,0.4-1.6,0.6-2.5,0.6
			c0.5-0.3,1-0.8,1.4-1.3c0.1-0.1,0.1-0.2,0.2-0.3c0.2-0.7,0.4-1.4,0.5-2.2c0.2-0.9-4-2.7-4.4-1.6c-0.1,0.7-0.3,1.4-0.6,2.1
			c-0.4,0.3-0.9,0.2-1.2-0.1c-1-0.8-2-2-3-3l0,0L15,17.1L14.9,17l0,0c-1-0.9-2.2-2-3-3c-0.3-0.3-0.4-0.8-0.1-1.2
			c0.7-0.3,1.4-0.5,2.1-0.6c1.1-0.4-0.6-4.6-1.6-4.4c-0.7,0.1-1.4,0.3-2.1,0.5C10.1,8.4,10,8.5,9.9,8.5c-2.4,1.5-2.7,5.2-0.4,8
			c0.9,1,1.8,2.1,2.8,3.1l0,0l0.1,0.1l0.1,0.1l0,0c1.2,1.4,2.6,2.6,4.1,3.6c4,2.7,7.1,1.9,8.9,0.9c3.1-1.7,4.5-5.4,4.5-8.3
			C30,8.3,23.7,2,16,2C16,2,16,2,16,2z M16.3,10.2c3.3,0,6,2.7,6,6h1.4c0-4.1-3.3-7.4-7.4-7.4L16.3,10.2L16.3,10.2z M24.7,16.1h1.4
			c0-5.4-4.4-9.9-9.9-9.9v1.4C20.9,7.7,24.7,11.5,24.7,16.1z"/>
	</g>
</g>
</svg>
