<?xml version="1.0" encoding="utf-8"?>
<!-- Generator: Adobe Illustrator 19.2.1, SVG Export Plug-In . SVG Version: 6.00 Build 0)  -->
<svg version="1.1" id="Shape_2_1_" xmlns="http://www.w3.org/2000/svg" xmlns:xlink="http://www.w3.org/1999/xlink" x="0px" y="0px"
	 viewBox="0 0 32 32" style="enable-background:new 0 0 32 32;" xml:space="preserve">
<style type="text/css">
	.st0{fill-rule:evenodd;clip-rule:evenodd;fill:#00A2D8;}
</style>
<g id="Shape_2">
	<g>
		<path class="st0" d="M15.6,28.3H17l-0.7-1.6L15.6,28.3z M22.6,4.3c0,0,0,1.4,0,3.2c-1.8-1.4-4.1-2.2-6.6-2.2
			c-6.2,0-11.2,5-11.2,11.2c0,3.6,1.8,6.9,4.5,8.9v-8.8h0c0,0,0-0.1,0-0.1c0-3.7,3-6.7,6.7-6.7s6.7,3,6.7,6.7c0,3.7-3,6.7-6.7,6.7
			c-0.7,0-1.4-0.1-2-0.3v-3.6c0.6,0.4,1.3,0.7,2.1,0.7c1.9,0,3.4-1.5,3.4-3.4c0-1.9-1.5-3.4-3.4-3.4c-1.7,0-3.1,1.3-3.3,3l0,0v0.3
			c0,0,0,0.1,0,0.1s0,0.1,0,0.1v5.5v4.8v1.2v0.2v0.6v0.2v0.9c0,0.5,0.4,0.9,0.9,0.9h12.6c0.5,0,0.9-0.4,0.9-0.9v-14v-0.1V0.9
			C22.4,0.4,22.6,4.3,22.6,4.3z M17.9,30.5l-0.5-1.2h-2.3l-0.5,1.2h-1.3l2.4-5.5h1.2l2.4,5.5H17.9z M23.7,28.5
			c-0.4,0.3-1,0.5-1.8,0.5h-0.7v1.5h-1.2V25h1.9c0.8,0,1.5,0.2,1.8,0.5c0.4,0.3,0.6,0.8,0.6,1.5C24.3,27.7,24.1,28.2,23.7,28.5z
			 M26.5,30.5h-1.2V25h1.2V30.5z M21.8,26.1h-0.7v1.9h0.8c0.4,0,0.7-0.1,0.8-0.2c0.1-0.2,0.2-0.4,0.2-0.7c0-0.3-0.1-0.5-0.3-0.7
			C22.5,26.1,22.2,26.1,21.8,26.1z"/>
	</g>
</g>
</svg>
