<?xml version="1.0" encoding="utf-8"?>
<!-- Generator: Adobe Illustrator 19.2.1, SVG Export Plug-In . SVG Version: 6.00 Build 0)  -->
<svg version="1.1" id="Layer_1" xmlns="http://www.w3.org/2000/svg" xmlns:xlink="http://www.w3.org/1999/xlink" x="0px" y="0px"
	 viewBox="0 0 32 32" style="enable-background:new 0 0 32 32;" xml:space="preserve">
<style type="text/css">
	.st0{fill:#00A3D9;}
</style>
<g>
	<path class="st0" d="M30.9,12.1l-1.6,0.5c-1-3.2-3.1-5.9-5.9-7.6l-2.9,1.9c2.7,1.3,4.9,3.6,5.8,6.7l-0.2,0L24.8,14
		c-0.2,0.1-0.3,0.3-0.1,0.4l4.6,3.6c0.2,0.1,0.4,0.1,0.4-0.1l1.5-5.6C31.3,12.2,31.1,12,30.9,12.1z"/>
	<path class="st0" d="M28.3,19.4l-1.3-1c-0.3,2.9-1.9,5.7-4.3,7.5l-0.1-0.1l-0.9-1.2c-0.1-0.2-0.4-0.1-0.4,0.1l-2,5.4
		c-0.1,0.2,0.1,0.3,0.3,0.3l5.8-0.4c0.2,0,0.3-0.3,0.2-0.4l-1-1.3c2.6-2,4.4-4.8,5.2-7.8L28.3,19.4z"/>
	<path class="st0" d="M9.6,26.1l0.1-0.1l0.9-1.2c0.1-0.2,0-0.4-0.2-0.4l-5.8-0.2c-0.2,0-0.3,0.2-0.3,0.3l2.2,5.4
		C6.5,30,6.8,30,6.9,29.9l0.9-1.3c2.8,2,6,2.8,9.3,2.5l1.2-3.3C15.3,28.5,12.2,27.9,9.6,26.1z"/>
	<path class="st0" d="M5.4,13.4l0.2,0.1L6.9,14c0.2,0.1,0.4-0.1,0.3-0.3L5.9,8c0-0.2-0.3-0.3-0.4-0.1l-4.6,3.6
		c-0.2,0.1-0.1,0.4,0.1,0.4l1.5,0.5c-1.1,3.3-1,6.9,0.3,9.9l3.5,0.1C4.7,19.8,4.3,16.5,5.4,13.4z"/>
	<path class="st0" d="M21.2,4.1l-4.8-3.1c-0.2-0.1-0.4,0-0.4,0.2v1.6C12.5,2.8,9.4,4,7,5.9l0.9,3.4c2.1-2.2,4.9-3.5,8.1-3.5v1.6
		c0,0.2,0.2,0.3,0.4,0.2l4.8-3.1C21.3,4.4,21.3,4.2,21.2,4.1z"/>
</g>
</svg>
