<?xml version="1.0" encoding="utf-8"?>
<!-- Generator: Adobe Illustrator 19.2.1, SVG Export Plug-In . SVG Version: 6.00 Build 0)  -->
<svg version="1.1" id="Layer_1" xmlns="http://www.w3.org/2000/svg" xmlns:xlink="http://www.w3.org/1999/xlink" x="0px" y="0px"
	 viewBox="0 0 32 32" style="enable-background:new 0 0 32 32;" xml:space="preserve">
<style type="text/css">
	.st0{fill:#8FC44A;}
	.st1{fill:#23A3D7;}
</style>
<title>change-password</title>
<g id="Forma_1">
	<path class="st0" d="M26.9,0H5.2C2.3,0,0,2.3,0,5.2v6c0,1.8,1,3.4,2.4,4.3c-0.2,0.6-0.3,1.3-0.3,1.9c0,0.1-1.9-0.5-2.1,1.4v11.9
		c0,0.7,0.6,1.4,1.3,1.4l0,0h16.3c0.7,0,1.4-0.6,1.4-1.4l0,0V18.8c-0.2-1.8-2.1-1.3-2.1-1.4c0-0.4,0-0.7-0.1-1.2h10.1
		c2.9,0,5.2-2.3,5.2-5.2V5.2C32,2.3,29.7,0,26.9,0z M16.3,29.4H2.6v-9.3h13.6V29.4z M4.8,17.4c0-2.6,2.1-4.6,4.6-4.6
		c2.6,0,4.6,2.1,4.6,4.6H4.8z M29.4,11.2c0,1.4-1.2,2.4-2.5,2.5H15.7C13.5,10.2,9,9.3,5.5,11.5c-0.7,0.4-1.4,1.1-1.9,1.7
		c-0.6-0.4-1-1.2-1-1.9V5.2c0-1.4,1.2-2.5,2.5-2.5h21.8c1.4,0,2.4,1.2,2.5,2.5v6H29.4z"/>
</g>
<g id="Forma_1_copy">
	<path class="st1" d="M7,6.9H6.5c-0.7,0-1.4,0.5-1.4,1.3s0.6,1.4,1.4,1.4l0,0H7c0.7,0,1.4-0.6,1.4-1.4C8.2,7.4,7.7,6.9,7,6.9z
		 M13.1,6.9h-0.4c-0.7,0-1.4,0.6-1.4,1.4c0,0.6,0.6,1.3,1.4,1.3h0.4c0.7,0,1.4-0.6,1.4-1.4S13.8,6.9,13.1,6.9L13.1,6.9z M19.3,6.9
		h-0.4c-0.7,0-1.4,0.6-1.4,1.4c0,0.7,0.6,1.4,1.4,1.4h0.4c0.7,0,1.4-0.6,1.4-1.4C20.7,7.4,20.1,6.9,19.3,6.9z M25.6,6.9h-0.4
		c-0.7,0-1.4,0.6-1.4,1.4c0,0.7,0.6,1.4,1.4,1.4h0.4c0.7,0,1.4-0.6,1.4-1.4C26.8,7.4,26.3,6.9,25.6,6.9L25.6,6.9z"/>
</g>
</svg>
