<svg xmlns="http://www.w3.org/2000/svg" viewBox="0 0 30.04 29.1"><defs><style>.cls-1{opacity:0.5;}.cls-1,.cls-4{isolation:isolate;}.cls-2{opacity:0.5;}.cls-3,.cls-5,.cls-7{fill-rule:evenodd;}.cls-5{fill:#fff;}.cls-6,.cls-7{fill:#f05e5e;}</style></defs><title>icon-error</title><g id="Forma_1_copy_2" data-name="Forma 1 copy 2" class="cls-1"><g id="Forma_1_copy_2-2" data-name="Forma 1 copy 2"><g class="cls-2"><path class="cls-3" d="M20.67,3.37H17.22V2H7.3V3.37H3.85A2.84,2.84,0,0,0,1,6.22V28.15A2.84,2.84,0,0,0,3.85,31H20.67a2.84,2.84,0,0,0,2.82-2.86V6.22A2.84,2.84,0,0,0,20.67,3.37ZM8.47,3.18h7.58V4.73H8.47V3.18Zm13.85,25a1.67,1.67,0,0,1-1.66,1.67H3.85A1.67,1.67,0,0,1,2.2,28.15V6.22A1.67,1.67,0,0,1,3.85,4.55H7.3V5.91h9.92V4.55h3.45a1.67,1.67,0,0,1,1.66,1.67V28.15ZM10.7,11.23H4.11v1.18H10.7V11.23ZM4.11,15.29H17.28V14.11H4.11v1.18Z" transform="translate(-1.03 -2)"/></g></g></g><g id="Ellipse_1_copy_2" data-name="Ellipse 1 copy 2" class="cls-4"><g id="Ellipse_1_copy_2-2" data-name="Ellipse 1 copy 2"><path class="cls-5" d="M19.28,30.1A10.79,10.79,0,1,1,30.07,19.31,10.8,10.8,0,0,1,19.28,30.1Z" transform="translate(-1.03 -2)"/><path class="cls-6" d="M19.28,9.52a9.79,9.79,0,1,1-9.79,9.79,9.8,9.8,0,0,1,9.79-9.79m0-2A11.79,11.79,0,1,0,31.07,19.31,11.79,11.79,0,0,0,19.28,7.52h0Z" transform="translate(-1.03 -2)"/></g></g><g id="Forma_1" data-name="Forma 1" class="cls-4"><g id="Forma_1-2" data-name="Forma 1"><path class="cls-7" d="M19.28,13.13a1.65,1.65,0,0,0-1.68,1.62v5.4a1.69,1.69,0,0,0,3.37,0v-5.4A1.65,1.65,0,0,0,19.28,13.13Zm0,10.23A1.62,1.62,0,1,0,21,25,1.65,1.65,0,0,0,19.28,23.37Z" transform="translate(-1.03 -2)"/></g></g></svg>