<?xml version="1.0" encoding="utf-8"?>
<!-- Generator: Adobe Illustrator 19.2.1, SVG Export Plug-In . SVG Version: 6.00 Build 0)  -->
<svg version="1.1" id="Layer_1" xmlns="http://www.w3.org/2000/svg" xmlns:xlink="http://www.w3.org/1999/xlink" x="0px" y="0px"
	 viewBox="0 0 32 32" style="enable-background:new 0 0 32 32;" xml:space="preserve">
<style type="text/css">
	.st0{fill:none;stroke:#939598;stroke-width:2;stroke-miterlimit:10;}
	.st1{fill:none;stroke:#00A2D8;stroke-width:2;stroke-miterlimit:10;}
	.st2{fill:none;stroke:#009BE0;stroke-width:2;stroke-miterlimit:10;}
	.st3{fill:none;stroke:#0071BC;stroke-width:2;stroke-miterlimit:10;}
</style>
<g>
	<g>
		<g>
			<path class="st0" d="M9.7,16.2c-0.8-0.5-2.3-0.8-2.1-1.8s1.2-1.7,2.3-1.5c0.8,0.2,1.1,0.3,1.2,0.5 M9.7,16.2
				c1.1,0.5,1.4,0.8,1.4,1.4c0,1.4-1.2,1.8-2.4,1.5c-0.8-0.2-1.2-0.5-1.4-0.8"/>
		</g>
		<g>
			<line class="st1" x1="14.8" y1="14.8" x2="16.1" y2="14.8"/>
			<path class="st2" d="M9.9,22.3c0,0.2,0,0.2,0,0.3c0,0.2,0.2,0.3,0.6,0.3c1.1,0,1.5-1.2,2.4-3.6l1.4-4.4h-1.4 M14.1,14.8
				c0.8-2.1,1.5-3.3,2.6-3.3c1.1,0,1.4,0.6,1.4,1.1c0,0.2-0.2,0.3-0.3,0.3"/>
		</g>
	</g>
	<g>
		<path class="st3" d="M12.1,26.7c-0.2,0-0.4,0-0.5,0c-2.5-0.2-3.8-1.6-4.7-3.5c-3.5,0.5-5.6-1.8-5.6-4.7c0-0.2,0-0.4,0-0.5
			c0.2-2,1.3-3.1,2.5-4c-0.9-1.8-0.4-4.2,0.7-5.3C5.3,7.4,7,6.5,8.8,6.2c0.2,0,0.4,0,0.5,0l0,0c2.2,0.2,3.1,1.3,4.4,2.2
			c0.9-0.9,2.7-1.8,4.6-1.5c1.8,0.4,2.9,1.5,3.8,2.7c1.8-0.9,4.6-0.5,6,0.5c1.5,0.9,2.5,2.5,2.7,4.7c0.2,2.4-0.7,4.2-2,5.3
			c-1.3,1.3-3.1,2-5.6,1.6c-0.5,0.9-1.3,1.6-2.5,2c-1.3,0.5-2.7,0.4-3.8-0.2C15.9,25.3,14.4,26.6,12.1,26.7z"/>
	</g>
</g>
</svg>
