<?xml version="1.0" encoding="utf-8"?>
<!-- Generator: Adobe Illustrator 21.0.0, SVG Export Plug-In . SVG Version: 6.00 Build 0)  -->
<svg version="1.1" id="Capa_1" xmlns="http://www.w3.org/2000/svg" xmlns:xlink="http://www.w3.org/1999/xlink" x="0px" y="0px"
	 viewBox="0 0 31.1 31.1" style="enable-background:new 0 0 31.1 31.1;" xml:space="preserve">
<style type="text/css">
	.st0{fill:#EAEAEA;}
	.st1{fill:#C9C9C9;}
	.st2{fill:#515151;}
</style>
<g>
	<g>
		<path class="st0" d="M15.5,31.1C7,31.1,0,24.1,0,15.5S7,0,15.5,0S31,7,31,15.5C31.1,24.1,24.1,31.1,15.5,31.1z"/>
	</g>
	<g>
		<path class="st1" d="M21.7,16.4H9.4c-0.5,0-0.9-0.4-0.9-0.9s0.4-0.9,0.9-0.9h12.2c0.5,0,0.9,0.4,0.9,0.9
			C22.5,16,22.1,16.4,21.7,16.4z"/>
	</g>
</g>
<g>
	<g>
		<path class="st2" d="M15.5,31.1C7,31.1,0,24.1,0,15.5S7,0,15.5,0S31,7,31,15.5C31.1,24.1,24.1,31.1,15.5,31.1z M15.5,1.8
			C7.9,1.8,1.8,7.9,1.8,15.5S8,29.3,15.6,29.3s13.8-6.2,13.8-13.8S23.1,1.8,15.5,1.8z"/>
	</g>
	<path class="st2" d="M21.5,16.6h-12c-0.6,0-1-0.5-1-1l0,0c0-0.6,0.5-1,1-1h12c0.6,0,1,0.5,1,1l0,0C22.6,16.1,22.1,16.6,21.5,16.6z"
		/>
</g>
</svg>
