<?xml version="1.0" encoding="utf-8"?>
<!-- Generator: Adobe Illustrator 19.2.1, SVG Export Plug-In . SVG Version: 6.00 Build 0)  -->
<svg version="1.1" id="Layer_1" xmlns="http://www.w3.org/2000/svg" xmlns:xlink="http://www.w3.org/1999/xlink" x="0px" y="0px"
	 viewBox="0 0 30 28" style="enable-background:new 0 0 30 28;" xml:space="preserve">
<style type="text/css">
	.st0{fill:#849EB5;}
</style>
<title>icon-edit</title>
<g id="Rounded_Rectangle_1">
	<g id="Rounded_Rectangle_1-2">
		<path class="st0" d="M26,2c1.1,0,2,0.9,2,2v20c0,1.1-0.9,2-2,2H4c-1.1,0-2-0.9-2-2V4c0-1.1,0.9-2,2-2H26 M26,0H4C1.8,0,0,1.8,0,4
			v20c0,2.2,1.8,4,4,4h22c2.2,0,4-1.8,4-4V4C30,1.8,28.2,0,26,0L26,0z"/>
	</g>
</g>
<g id="Forma_1">
	<g id="Forma_1-2">
		<path class="st0" d="M10.6,16.3l2.2,2.1l6.6-6.6l-2.1-2.1L10.6,16.3z M21.1,7.9c-0.6-0.6-1.5-0.6-2.1,0c0,0,0,0,0,0L17.9,9
			l2.1,2.1l1.1-1.1C21.7,9.4,21.7,8.5,21.1,7.9C21.2,7.9,21.2,7.9,21.1,7.9z M8.4,20.6l3.6-1.5L9.9,17L8.4,20.6z"/>
	</g>
</g>
</svg>
