<?xml version="1.0" encoding="utf-8"?>
<!-- Generator: Adobe Illustrator 19.2.1, SVG Export Plug-In . SVG Version: 6.00 Build 0)  -->
<svg version="1.1" id="Layer_1" xmlns="http://www.w3.org/2000/svg" xmlns:xlink="http://www.w3.org/1999/xlink" x="0px" y="0px"
	 viewBox="0 0 32 32" style="enable-background:new 0 0 32 32;" xml:space="preserve">
<style type="text/css">
	.st0{fill:#2A333C;}
</style>
<path class="st0" d="M16,0.8C7.6,0.8,0.8,7.6,0.8,16S7.6,31.2,16,31.2S31.2,24.4,31.2,16S24.4,0.8,16,0.8z M16,29.5
	C8.5,29.5,2.5,23.5,2.5,16S8.5,2.5,16,2.5S29.5,8.5,29.5,16S23.5,29.5,16,29.5z M9.1,12.3c0-0.4,0.4-0.8,0.8-0.8s0.8,0.4,0.8,0.8
	c0,0.5,0.4,0.9,0.9,0.9s0.9-0.4,0.9-0.9c0-1.4-1.1-2.5-2.5-2.5c-1.4,0-2.5,1.1-2.5,2.5c0,0.5,0.4,0.9,0.9,0.9
	C8.7,13.1,9.1,12.8,9.1,12.3z M22.1,9.8c-1.4,0-2.5,1.1-2.5,2.5c0,0.5,0.4,0.9,0.9,0.9s0.9-0.4,0.9-0.9c0-0.4,0.4-0.8,0.8-0.8
	s0.8,0.4,0.8,0.8c0,0.5,0.4,0.9,0.9,0.9s0.9-0.4,0.9-0.9C24.6,10.9,23.5,9.8,22.1,9.8z M16,18.7c-3.1,0-6.1,1.7-7.7,4.4
	c-0.2,0.4-0.1,0.9,0.3,1.2C9,24.6,9.6,24.4,9.8,24c1.3-2.2,3.7-3.6,6.2-3.6s4.9,1.4,6.2,3.6c0.2,0.3,0.4,0.4,0.7,0.4
	c0.1,0,0.3,0,0.4-0.1c0.4-0.2,0.5-0.8,0.3-1.2C22.1,20.4,19.1,18.7,16,18.7L16,18.7z"/>
</svg>
