<?xml version="1.0" encoding="utf-8"?>
<!-- Generator: Adobe Illustrator 19.2.1, SVG Export Plug-In . SVG Version: 6.00 Build 0)  -->
<svg version="1.1" id="Layer_1" xmlns="http://www.w3.org/2000/svg" xmlns:xlink="http://www.w3.org/1999/xlink" x="0px" y="0px"
	 viewBox="0 0 32 32" style="enable-background:new 0 0 32 32;" xml:space="preserve">
<style type="text/css">
	.st0{fill:#9E9E9E;}
</style>
<g>
	<path class="st0" d="M27.1,11.2H9.6v-0.9c0-4.8,3-8,7.1-8c3,0,5.6,1.8,7.1,4.5c0.3,0.3,0.6,0.6,1.2,0.3c0.6-0.3,0.6-0.6,0.3-1.2
		c-1.5-3.6-5-5.6-8.6-5.6c-5,0-8.9,4.2-8.9,9.8V11H6c-0.9,0-1.8,0.9-1.8,1.8V30c0,0.9,0.9,1.8,1.8,1.8h21.1c0.9,0,1.8-0.9,1.8-1.8
		V12.7C28.9,11.8,28.3,11.2,27.1,11.2L27.1,11.2z M27.1,30.3H6V13h21.1V30.3z"/>
</g>
</svg>
