<?xml version="1.0" encoding="utf-8"?>
<!-- Generator: Adobe Illustrator 19.2.1, SVG Export Plug-In . SVG Version: 6.00 Build 0)  -->
<svg version="1.1" id="Layer_1" xmlns="http://www.w3.org/2000/svg" xmlns:xlink="http://www.w3.org/1999/xlink" x="0px" y="0px"
	 viewBox="0 0 32 32" style="enable-background:new 0 0 32 32;" xml:space="preserve">
<style type="text/css">
	.st0{fill:#9E9E9E;}
</style>
<g id="Layer_1_1_">
	<g>
		<path class="st0" d="M7.1,10.3c0.8,3.7,4.1,6.2,7.7,6.2c0.6,0,1.1-0.1,1.8-0.2c2.1-0.5,3.8-1.7,4.9-3.5s1.5-3.9,1-6
			c-1-4.2-5.2-6.9-9.4-6C8.8,1.8,6.2,6,7.1,10.3L7.1,10.3z M13.6,3c0.4-0.1,0.8-0.2,1.2-0.2c1,0,2.1,0.3,3,0.9
			c1.3,0.8,2.2,2.1,2.5,3.5c0.3,1.5,0.1,3-0.7,4.3c-0.8,1.3-2.1,2.2-3.5,2.5C13,14.7,10,12.8,9.3,9.7C8.6,6.7,10.6,3.7,13.6,3
			L13.6,3z"/>
		<path class="st0" d="M1.3,24.8v5.4c0,0.6,0.5,1.1,1.1,1.1s1.1-0.5,1.1-1.1v-5.4c0-2.5,2.1-4.6,4.6-4.6h12.6c0.6,0,1.1-0.5,1.1-1.1
			S21.3,18,20.7,18H8.1C4.3,18,1.3,21,1.3,24.8L1.3,24.8z"/>
	</g>
</g>
<g id="Layer_2">
	<path class="st0" d="M15,24.3c-0.4-0.4-1.1-0.4-1.6,0c-0.4,0.4-0.4,1.1,0,1.6l5,5c0.2,0.2,0.5,0.3,0.8,0.3s0.6-0.1,0.8-0.3
		l10.3-10.3c0.4-0.4,0.4-1.1,0-1.6c-0.4-0.4-1.1-0.4-1.6,0l-9.5,9.5L15,24.3z"/>
</g>
</svg>
