<?xml version="1.0" encoding="utf-8"?>
<!-- Generator: Adobe Illustrator 19.2.1, SVG Export Plug-In . SVG Version: 6.00 Build 0)  -->
<svg version="1.1" id="Background_Image" xmlns="http://www.w3.org/2000/svg" xmlns:xlink="http://www.w3.org/1999/xlink" x="0px"
	 y="0px" viewBox="0 0 32 32" style="enable-background:new 0 0 32 32;" xml:space="preserve">
<style type="text/css">
	.st0{fill:#10A3DA;}
	.st1{fill:#FF5D32;}
</style>
<title>disable</title>
<g id="Forma_1_copy">
	<path class="st0" d="M23.3,9.4V8.6c0-0.8,0-1.5,0-2.3c0-1.6-0.5-3.1-1.6-4.3c-0.9-0.9-2-1.5-3.3-1.7C17,0,15.5,0,14.1,0.4
		c-1.4,0.3-2.6,1.2-3.4,2.3c-0.6,1-1,2.2-1,3.5c0,0.7,0,1.4,0,2.1v1c0,0.1-0.1,0.1-0.1,0.2c-0.7,1.3-0.4,3,0.7,4l0.1,0.2
		c0.4,1.1,0.9,2.1,1.6,3v0.9c0,1.5-1.2,2.7-2.7,2.7H7.4H7.1c-0.2,0-3.7,1.1-6.1,6.1v2.3c0,1.5,1.2,2.8,2.8,2.8h15.8
		c-1.3-0.4-2.5-1.1-3.5-2H3.8c-0.5,0-0.9-0.4-0.9-0.8l0,0v-1.6c1.7-3.5,4.1-4.6,4.6-4.8h1.7c1.5,0,2.9-0.8,3.8-2
		c0.2-0.9,0.4-1.7,0.8-2.5c0-0.1,0-0.1,0-0.2V16l-0.2-0.3c-0.7-0.8-1.2-1.7-1.5-2.8c-0.1-0.4-0.3-0.7-0.6-1
		c-0.4-0.4-0.5-1.1-0.2-1.6c0.2-0.3,0.3-0.6,0.3-0.9V8.3c0-0.7,0-1.4,0-2.1c0-0.9,0.3-1.7,0.7-2.4c0.5-0.8,1.3-1.3,2.3-1.5
		C15.7,2,16.9,2,18.1,2.2c0.8,0.1,1.6,0.5,2.2,1.1c0.7,0.8,1,1.9,1,3c0,0.8,0,1.5,0,2.3v0.9c0,0.4,0.1,0.7,0.3,1L21,12.6
		c0.8-0.1,1.7-0.1,2.5,0c0.4-1,0.4-2.1-0.1-3L23.3,9.4z M31.9,26.5c-0.1-0.3-0.3-0.6-0.5-0.9c-0.3,0.9-0.8,1.8-1.4,2.6v0.6
		c0,0.5-0.4,0.9-0.8,0.9l0,0h-0.5c-1,0.9-2.2,1.6-3.5,2h4c1.5,0,2.8-1.3,2.8-2.8V27L31.9,26.5z"/>
</g>
<g id="Ellipse_1">
	<path class="st1" d="M22.2,14.9c4.1-0.1,7.5,3.1,7.6,7.2c0.1,4-3.2,7.4-7.3,7.5c-4.1,0.1-7.5-3.1-7.6-7.2c0-0.1,0-0.1,0-0.2
		C14.9,18.2,18.2,14.9,22.2,14.9 M22.4,13c-5.1-0.1-9.3,4-9.4,9.1c-0.1,5.1,4,9.3,9.1,9.4s9.3-4,9.4-9.1c0-0.1,0-0.1,0-0.2
		C31.5,17.2,27.5,13,22.4,13L22.4,13z"/>
</g>
<g id="x_copy">
	<polygon class="st1" points="26.7,19 25.8,18.1 22.5,21.4 19.2,18.1 18.3,19 21.5,22.3 18.3,25.6 19.2,26.6 22.5,23.3 25.8,26.6 
		26.7,25.6 23.4,22.3 	"/>
</g>
</svg>
