<?xml version="1.0" encoding="utf-8"?>
<!-- Generator: Adobe Illustrator 19.2.1, SVG Export Plug-In . SVG Version: 6.00 Build 0)  -->
<svg version="1.0" id="Layer_1" xmlns="http://www.w3.org/2000/svg" xmlns:xlink="http://www.w3.org/1999/xlink" x="0px" y="0px"
	 viewBox="0 0 32 32" style="enable-background:new 0 0 32 32;" xml:space="preserve">
<style type="text/css">
	.st0{fill-rule:evenodd;clip-rule:evenodd;fill:#6CA339;}
	.st1{fill-rule:evenodd;clip-rule:evenodd;fill:#4E5A2F;}
	.st2{fill-rule:evenodd;clip-rule:evenodd;fill:#94D500;}
	.st3{fill-rule:evenodd;clip-rule:evenodd;fill:#424143;}
</style>
<g>
	<g id="Ellipse_1">
		<g>
			<path class="st0" d="M15.1,12l0.1-7.5c-2.5,0-4.8,0.7-6.7,1.9l3.9,6.4C13.1,12.3,14.1,12.1,15.1,12z"/>
		</g>
	</g>
	<g id="Ellipse_1_copy">
		<g>
			<path class="st1" d="M17.1,12.4l5.5-5.6c-2-1.4-4.3-2.2-6.9-2.3v7.5C16.2,12.1,16.6,12.2,17.1,12.4z"/>
		</g>
	</g>
	<g id="Ellipse_1_copy_2">
		<g>
			<path class="st2" d="M11.9,13.1L8,6.7C7.4,7.1,6.8,7.5,6.3,8l5.3,5.3C11.7,13.3,11.8,13.2,11.9,13.1z"/>
		</g>
	</g>
	<g id="Ellipse_1_copy_3">
		<g>
			<path class="st1" d="M9.7,17.5c0-1.5,0.6-2.9,1.6-3.8L5.9,8.3c-2.4,2.4-3.8,5.6-3.8,9.2c0,0,0,0,0,0.1L9.7,17.5
				C9.7,17.6,9.7,17.6,9.7,17.5z"/>
		</g>
	</g>
	<g id="Ellipse_1_copy_4">
		<g>
			<path class="st2" d="M9.7,18H2.2c0.1,2.1,0.6,4,1.6,5.8l6.4-3.9C9.9,19.3,9.7,18.7,9.7,18z"/>
		</g>
	</g>
	<g id="Ellipse_1_copy_5">
		<g>
			<path class="st0" d="M10.5,20.4L4,24.2c0.6,0.9,1.2,1.8,2,2.6l5.2-5.4C11,21.1,10.7,20.8,10.5,20.4z"/>
		</g>
	</g>
	<g id="Ellipse_1_copy_6">
		<g>
			<path class="st1" d="M11.7,21.7l-5.3,5.3c1,0.9,2.1,1.6,3.3,2.2l2.9-6.9C12.2,22.2,11.9,22,11.7,21.7z"/>
		</g>
	</g>
	<g id="Ellipse_1_copy_8">
		<g>
			<path class="st2" d="M17.9,22.2c-0.8,0.5-1.8,0.8-2.8,0.8c-0.7,0-1.4-0.1-2-0.4l-2.9,6.9c1.5,0.6,3.2,1,5,1
				c2.5,0,4.7-0.7,6.7-1.9L17.9,22.2z"/>
		</g>
	</g>
	<g id="Ellipse_1_copy_7">
		<g>
			<path class="st1" d="M18.7,21.7c-0.1,0.1-0.2,0.2-0.4,0.3l3.9,6.4c0.6-0.4,1.1-0.8,1.7-1.3L18.7,21.7z"/>
		</g>
	</g>
	<g id="Ellipse_1_copy_9">
		<g>
			<path class="st0" d="M20.6,17.5c0,1.5-0.6,2.9-1.6,3.9l5.3,5.3c2.4-2.4,3.8-5.6,3.8-9.2H20.6z"/>
		</g>
	</g>
	<g id="Ellipse_1_copy_14">
		<g>
			<path class="st1" d="M20.6,17.1h7.5c-0.1-2.6-0.9-5-2.3-7l-5.5,5.6C20.5,16.2,20.6,16.6,20.6,17.1z"/>
		</g>
	</g>
	<g id="Shape_2">
		<g>
			<polygon class="st3" points="26,5 15.5,15.5 17.4,16.9 27.5,6.8 			"/>
		</g>
	</g>
	<g id="Ellipse_1_copy_10">
		<g>
			<circle class="st3" cx="15.1" cy="17.5" r="3.7"/>
		</g>
	</g>
	<g id="Ellipse_1_copy_12">
		<g>
			<circle class="st3" cx="27.9" cy="4.7" r="3.7"/>
		</g>
	</g>
</g>
</svg>
