<?xml version="1.0" encoding="utf-8"?>
<!-- Generator: Adobe Illustrator 22.1.0, SVG Export Plug-In . SVG Version: 6.00 Build 0)  -->
<svg version="1.1" xmlns="http://www.w3.org/2000/svg" xmlns:xlink="http://www.w3.org/1999/xlink" x="0px" y="0px"
	 viewBox="0 0 32 32" style="enable-background:new 0 0 32 32;" xml:space="preserve">
<style type="text/css">
	.st0{fill:#B8C3CD;}
</style>
<g id="Layer_1">
	<g>
		<path class="st0" d="M14,19.6c-2,0-3.6-1.7-3.6-3.6c0-2,1.6-3.6,3.6-3.6c1.9,0,3.4,1.4,3.6,3.2c0.7-0.5,1.5-1,2.4-1.3
			c-0.7-2.6-3.1-4.5-6-4.5c-3.4,0-6.2,2.8-6.2,6.2s2.8,6.2,6.2,6.2c0.1,0,0.2,0,0.3,0c0-0.9,0.2-1.8,0.4-2.6
			C14.5,19.6,14.3,19.6,14,19.6z"/>
		<path class="st0" d="M14.5,24c-0.2,0-0.3,0-0.5,0c-4.4,0-8-3.6-8-8s3.6-8,8-8c3.7,0,6.8,2.5,7.7,5.9c0.3,0,0.6-0.1,0.9-0.1
			c0.7,0,1.4,0.1,2,0.3c0-0.2-0.1-0.4-0.1-0.6l2.6-2.2L24.6,7l-3.2,1.2c-1.2-1.2-2.7-2-4.3-2.5l-0.6-3.4h-5l-0.6,3.4
			C9.3,6.2,7.8,7.1,6.6,8.2L3.4,7l-2.5,4.3l2.6,2.2c-0.2,0.8-0.3,1.6-0.3,2.5h0c0,0.9,0.1,1.7,0.3,2.5l-2.6,2.2L3.4,25l3.2-1.2
			c1.2,1.2,2.7,2,4.3,2.5l0.6,3.4h5l0.3-1.6C15.7,27,14.8,25.6,14.5,24z"/>
	</g>
</g>
<g id="Layer_3">
</g>
<g id="Layer_2">
	<g>
		<path class="st0" d="M22.6,14.5c-4.3,0-7.7,3.5-7.7,7.7s3.5,7.7,7.7,7.7s7.7-3.5,7.7-7.7S26.9,14.5,22.6,14.5z M22.6,28.4
			c-3.4,0-6.2-2.8-6.2-6.2s2.8-6.2,6.2-6.2s6.2,2.8,6.2,6.2S26.1,28.4,22.6,28.4z"/>
		<path class="st0" d="M23.4,26.1c0,1-1.5,1-1.5,0S23.4,25.1,23.4,26.1"/>
		<path class="st0" d="M22.5,17.9c-0.6,0.1-1.1,0.6-1.1,1.3l0.4,4.6c0,0.4,0.3,0.7,0.7,0.7c0.4,0,0.8-0.3,0.8-0.7l0.4-4.6v-0.2
			C23.7,18.3,23.2,17.8,22.5,17.9L22.5,17.9z"/>
	</g>
</g>
</svg>
