<?xml version="1.0" encoding="utf-8"?>
<!-- Generator: Adobe Illustrator 19.2.1, SVG Export Plug-In . SVG Version: 6.00 Build 0)  -->
<svg version="1.1" id="Layer_1" xmlns="http://www.w3.org/2000/svg" xmlns:xlink="http://www.w3.org/1999/xlink" x="0px" y="0px"
	 viewBox="0 0 32 32" style="enable-background:new 0 0 32 32;" xml:space="preserve">
<style type="text/css">
	.st0{fill:none;stroke:#9E9E9E;stroke-miterlimit:10;}
	.st1{fill:#FFFFFF;}
	.st2{fill:none;}
	.st3{fill:none;stroke:#9A9A9A;stroke-miterlimit:10;}
</style>
<g>
	<path class="st0" d="M27.7,24H21v6.7L27.7,24z"/>
	<path class="st0" d="M28.1,2.7c0-1-1-2-2-2H5.2c-1,0-2,1-2,2v26.5c0,1,1,2,2,2h14.1v-8.1c0-0.6,0.4-1,1-1h7.8V2.7L28.1,2.7z"/>
</g>
<circle class="st1" cx="12.9" cy="11.5" r="1.2"/>
<circle class="st1" cx="10" cy="16.5" r="1.2"/>
<circle class="st1" cx="16.9" cy="14.7" r="1"/>
<circle class="st1" cx="21.2" cy="11.7" r="1.5"/>
<line class="st2" x1="10.3" y1="15.3" x2="12.2" y2="12.5"/>
<line class="st2" x1="14.1" y1="11.4" x2="16.5" y2="13.8"/>
<line class="st2" x1="18" y1="14.5" x2="20.3" y2="12.8"/>
<g>
	<circle class="st3" cx="12.8" cy="11.5" r="1.2"/>
	<circle class="st3" cx="9.9" cy="16.5" r="1.2"/>
	<circle class="st3" cx="16.9" cy="14.7" r="1"/>
	<circle class="st3" cx="21" cy="11.7" r="1.5"/>
	<line class="st3" x1="10.3" y1="15.3" x2="12" y2="12.5"/>
	<line class="st3" x1="14" y1="11.3" x2="16.4" y2="13.8"/>
	<line class="st3" x1="17.9" y1="14.5" x2="20.2" y2="12.8"/>
</g>
</svg>
