<?xml version="1.0" encoding="utf-8"?>
<!-- Generator: Adobe Illustrator 19.2.1, SVG Export Plug-In . SVG Version: 6.00 Build 0)  -->
<svg version="1.1" id="Layer_1" xmlns="http://www.w3.org/2000/svg" xmlns:xlink="http://www.w3.org/1999/xlink" x="0px" y="0px"
	 viewBox="0 0 32 32" style="enable-background:new 0 0 32 32;" xml:space="preserve">
<style type="text/css">
	.st0{fill:none;stroke:#78D0EF;stroke-width:2;stroke-miterlimit:10;}
	.st1{fill:none;stroke:#059ED7;stroke-width:2;stroke-miterlimit:10;}
</style>
<g>
	<path class="st0" d="M5.7,8.1H3c-1,0-1.7,1-1.7,1.7v18.6c0,1,1,1.7,1.7,1.7h18.6c1,0,1.7-1,1.7-1.7v-1.7"/>
	<path class="st0" d="M16.8,23.9H29c1,0,1.7-1,1.7-1.7V3.7c0-1-1-1.7-1.7-1.7H10.4c-1,0-1.7,1-1.7,1.7v15.2"/>
	<path class="st0" d="M16.8,23.9"/>
	<path class="st0" d="M8.7,18.2"/>
</g>
<polyline class="st1" points="22.6,17.2 21.2,10.1 13.8,10.4 "/>
<line class="st1" x1="21.2" y1="10.1" x2="12.1" y2="21.9"/>
</svg>
