<?xml version="1.0" encoding="utf-8"?>
<!-- Generator: Adobe Illustrator 19.2.1, SVG Export Plug-In . SVG Version: 6.00 Build 0)  -->
<svg version="1.1" id="Capa_1" xmlns="http://www.w3.org/2000/svg" xmlns:xlink="http://www.w3.org/1999/xlink" x="0px" y="0px"
	 viewBox="0 0 32 32" style="enable-background:new 0 0 32 32;" xml:space="preserve">
<style type="text/css">
	.st0{fill:#789CA8;}
</style>
<g>
	<g id="Remove">
		<g>
			<path class="st0" d="M20.7,14.1h-9.4c-1,0-1.9,0.8-1.9,1.9s0.8,1.9,1.9,1.9h9.4c1,0,1.9-0.8,1.9-1.9S21.7,14.1,20.7,14.1z M16,1
				C7.7,1,1,7.7,1,16s6.7,15,15,15s15-6.7,15-15S24.3,1,16,1z M16,28.2C9.3,28.2,3.8,22.7,3.8,16S9.3,3.8,16,3.8S28.2,9.3,28.2,16
				S22.7,28.2,16,28.2z"/>
		</g>
	</g>
</g>
</svg>
