<?xml version="1.0" encoding="utf-8"?>
<!-- Generator: Adobe Illustrator 19.2.1, SVG Export Plug-In . SVG Version: 6.00 Build 0)  -->
<svg version="1.1" id="Layer_1" xmlns="http://www.w3.org/2000/svg" xmlns:xlink="http://www.w3.org/1999/xlink" x="0px" y="0px"
	 viewBox="0 0 32 32" style="enable-background:new 0 0 32 32;" xml:space="preserve">
<style type="text/css">
	.st0{fill:#10A3DA;}
	.st1{fill:#8CC640;}
</style>
<title>icon-manage-cloud-access</title>
<g id="Forma_1">
	<g id="Shape_1-2">
		<path class="st0" d="M25.9,7.3c-0.4-2-1.4-3.8-2.9-5C21.3,0.8,19.1,0,16.9,0c-1.8,0-3.5,0.5-5,1.4c-1.2,0.7-2.2,1.8-3,3
			c-0.3-0.1-0.7-0.1-1-0.1c-2.6-0.1-4.8,2-5,4.8c0,0.3,0,0.7,0.1,1c-1.7,1.2-2.8,3.2-2.9,5.4c0,1.8,0.7,3.5,1.9,4.8
			c1.2,1.4,2.9,2.2,4.7,2.3h3.2c0.4,0.1,0.8-0.3,0.9-0.7c0-0.5-0.3-0.9-0.7-0.9c-0.1,0-0.1,0-0.2,0h-3c-2.7-0.2-4.8-2.5-4.9-5.4
			C2,13.7,3,12.1,4.5,11.3c0.4-0.2,0.6-0.7,0.4-1.1C4.8,9.8,4.7,9.5,4.7,9.1C4.8,7.3,6.3,5.9,7.9,6c0.4,0,0.8,0.1,1.1,0.2
			c0.4,0.2,0.9,0,1.1-0.4c1.4-2.6,4-4.2,6.7-4.1c3.9,0,7,2.8,7.4,6.4c0.1,0.4,0.4,0.7,0.7,0.8c2.8,0.4,5,2.9,5.1,6
			c-0.2,3.3-2.6,5.9-5.7,6h-2.8c-0.4-0.1-0.8,0.3-0.9,0.7s0.3,0.9,0.7,0.9c0.1,0,0.1,0,0.2,0h2.9c2-0.1,3.8-1,5.2-2.5
			c1.3-1.4,2.1-3.3,2.1-5.3C31.7,11.2,29.3,8.1,25.9,7.3z"/>
	</g>
	<g id="Forma_1-2">
		<path class="st1" d="M15.8,25.3c-1.2,0-2.1,1-2.1,2.1c0,0.5,0.2,1.1,0.6,1.5c0.4,0.4,0.9,0.6,1.5,0.6c1.2,0,2.1-1,2.1-2.1
			c0-0.5-0.2-1.1-0.6-1.5C16.8,25.5,16.3,25.3,15.8,25.3z M15.8,28.3c-0.2,0-0.5-0.1-0.6-0.3c-0.2-0.2-0.2-0.4-0.2-0.6
			c0-0.5,0.4-0.9,0.9-0.9c0.2,0,0.5,0.1,0.6,0.3c0.2,0.2,0.3,0.4,0.3,0.6C16.7,27.9,16.3,28.3,15.8,28.3
			C15.8,28.3,15.8,28.3,15.8,28.3L15.8,28.3z M20.1,21.4c-0.6-0.7-1.4-1.2-2.3-1.5v-2.6h1.1c0.4,0,0.9-0.2,1.2-0.5
			c0.7-0.7,0.7-1.8,0-2.4c-0.3-0.3-0.7-0.5-1.2-0.5h-1.1v-0.3h1.1c0.4,0,0.9-0.2,1.2-0.5c0.7-0.7,0.7-1.8,0-2.4
			c-0.3-0.3-0.7-0.5-1.2-0.5h-1.1c-0.1-0.5-0.3-1-0.7-1.3c-0.8-0.8-2.1-0.8-2.8,0c0,0,0,0,0,0c-0.4,0.4-0.6,0.9-0.6,1.5V20
			c-3.2,1.2-4.9,4.8-3.7,8c0.3,0.8,0.8,1.6,1.4,2.2c2.4,2.4,6.2,2.4,8.6,0.1c0,0,0,0,0.1-0.1C22.4,27.8,22.5,23.9,20.1,21.4
			L20.1,21.4z M19.3,29.3c-1.9,1.9-5,2-6.9,0.1c0,0,0,0-0.1-0.1c-1.9-2-1.9-5.2,0.1-7.1c0.6-0.6,1.3-1,2.2-1.3l0.4-0.1V10.3
			c0-0.2,0.1-0.4,0.2-0.6c0.3-0.3,0.9-0.3,1.2,0c0,0,0,0,0,0c0.2,0.2,0.2,0.4,0.2,0.6v1h2.3c0.1,0,0.3,0.1,0.4,0.2
			c0.2,0.2,0.2,0.5,0,0.7c-0.1,0.1-0.2,0.2-0.4,0.2h-2.3v2.7h2.3c0.1,0,0.3,0.1,0.4,0.2c0.2,0.2,0.2,0.5,0,0.7
			c-0.1,0.1-0.2,0.2-0.4,0.2h-2.3v4.7L17,21c0.8,0.2,1.6,0.7,2.2,1.3C21.2,24.2,21.2,27.4,19.3,29.3z"/>
	</g>
</g>
</svg>
