<?xml version="1.0" encoding="utf-8"?>
<!-- Generator: Adobe Illustrator 19.2.1, SVG Export Plug-In . SVG Version: 6.00 Build 0)  -->
<svg version="1.1" id="Layer_1" xmlns="http://www.w3.org/2000/svg" xmlns:xlink="http://www.w3.org/1999/xlink" x="0px" y="0px"
	 viewBox="0 0 32 32" style="enable-background:new 0 0 32 32;" xml:space="preserve">
<style type="text/css">
	.st0{fill:#019BD8;}
	.st1{enable-background:new    ;}
	.st2{fill:#FF9700;}
	.st3{font-family:'FrutigerNextLT-Bold';}
	.st4{font-size:9.2764px;}
</style>
<path class="st0" d="M24.8,26.9H7c-3.7,0-6.8-3.3-6.8-6.8c0-3,2.4-7.5,5.4-8.2c0-0.2,0-0.3,0-0.5c0-3.3,3-6.8,6.4-6.8
	c2.4,0,5.6,2.6,6.4,4.7c2.6-0.5,5.8,1.2,7,3.5c3,0.5,6.1,4,6.1,7.1C31.6,23.7,28.5,26.9,24.8,26.9z M11.9,5.9
	c-2.8,0-5.4,2.8-5.4,5.6c0,0.2,0,0.5,0.2,0.9c0,0.2,0,0.2-0.2,0.5c-0.2,0.2-0.2,0.2-0.3,0.2c-2.6,0.3-4.9,4.4-4.9,7.1
	c0,3,2.6,5.6,5.6,5.6h18c3,0,5.8-2.6,5.8-5.6c0-2.6-2.8-5.8-5.4-6.1c-0.2,0-0.3-0.2-0.5-0.3c-1-2.1-4-3.7-6.4-3.1
	c-0.2,0.2-0.5-0.2-0.5-0.3C16.8,8.2,14,5.9,11.9,5.9z"/>
<g class="st1">
	<text transform="matrix(1 0 0 1 4.7744 21.2568)" class="st2 st3 st4">AWS</text>
</g>
</svg>
