<?xml version="1.0" encoding="utf-8"?>
<!-- Generator: Adobe Illustrator 19.2.1, SVG Export Plug-In . SVG Version: 6.00 Build 0)  -->
<svg version="1.1" xmlns="http://www.w3.org/2000/svg" xmlns:xlink="http://www.w3.org/1999/xlink" x="0px" y="0px"
	 viewBox="0 0 32 32" style="enable-background:new 0 0 32 32;" xml:space="preserve">
<style type="text/css">
	.st0{opacity:0.502;enable-background:new    ;}
	.st1{fill-rule:evenodd;clip-rule:evenodd;}
	.st2{enable-background:new    ;}
	.st3{fill-rule:evenodd;clip-rule:evenodd;fill:#FFFFFF;}
	.st4{fill:#20A7FD;}
	.st5{fill-rule:evenodd;clip-rule:evenodd;fill:#20A7FD;}
</style>
<g id="Forma_1_copy_2_1_" class="st0">
	<g id="Forma_1_copy_2">
		<g>
			<path class="st1" d="M21,2.5h-3.7V1H6.7v1.5H3c-1.7,0-3,1.4-3,3.1v23.4C0,30.6,1.4,32,3,32h18c1.7,0,3-1.4,3-3.1V5.5
				C24,3.8,22.6,2.5,21,2.5z M7.9,2.3h8.1v1.7H7.9V2.3z M22.8,28.9c0,1-0.8,1.8-1.8,1.8H3c-1,0-1.8-0.8-1.8-1.8V5.5
				c0-1,0.8-1.8,1.8-1.8h3.7v1.5h10.6V3.7H21c1,0,1.8,0.8,1.8,1.8V28.9z M10.3,10.9h-7v1.3h7V10.9z M3.3,15.2h14.1v-1.3H3.3V15.2z"
				/>
		</g>
	</g>
</g>
<g id="Ellipse_1_copy_3_1_" class="st2">
	<g id="Ellipse_1_copy_3">
		<g>
			<path class="st3" d="M19.5,31.1c-6.4,0-11.6-5.2-11.6-11.6S13.1,7.9,19.5,7.9s11.6,5.2,11.6,11.6S25.9,31.1,19.5,31.1z"/>
		</g>
		<g>
			<path class="st4" d="M19.5,8.9c5.8,0,10.6,4.8,10.6,10.6s-4.8,10.6-10.6,10.6c-5.8,0-10.6-4.8-10.6-10.6S13.7,8.9,19.5,8.9
				 M19.5,6.9c-7,0-12.6,5.6-12.6,12.6s5.6,12.6,12.6,12.6c7,0,12.6-5.6,12.6-12.6S26.5,6.9,19.5,6.9L19.5,6.9z"/>
		</g>
	</g>
</g>
<g id="Forma_1_1_" class="st2">
	<g id="Forma_1">
		<g>
			<path class="st5" d="M25.8,20.1c0-1.6-0.5-2.9-1.7-4.1c-0.3-0.3-0.9-0.3-1.2,0c-0.3,0.3-0.3,0.9,0,1.2c0.9,0.9,1.3,1.7,1.3,2.9
				c0,1.2-0.5,2.4-1.4,3.3c-0.8,0.8-1.8,1.3-2.9,1.3l1.1-1.1c0.3-0.3,0.3-0.9,0-1.2c-0.3-0.3-0.9-0.3-1.2,0l-3.1,3.1l3.1,3.1
				c0.2,0.2,0.4,0.2,0.6,0.2c0.2,0,0.4-0.1,0.6-0.2c0.3-0.3,0.3-0.9,0-1.2l-1.1-1.1c1.6-0.1,3-0.7,4.2-1.8
				C25.2,23.4,25.8,21.8,25.8,20.1z M14.8,20.1c0-1.2,0.5-2.4,1.4-3.3c0.9-0.9,1.8-1.3,2.9-1.3l-1.1,1.1c-0.3,0.3-0.3,0.9,0,1.2
				c0.2,0.2,0.4,0.2,0.6,0.2c0.2,0,0.4-0.1,0.6-0.2l3.1-3.1l-3.1-3.1c-0.3-0.3-0.9-0.3-1.2,0c-0.3,0.3-0.3,0.9,0,1.2l1.1,1.1
				c-1.6,0.1-3,0.7-4.2,1.8c-1.2,1.2-1.9,2.8-1.9,4.5c0,1.6,0.5,2.9,1.7,4.1c0.2,0.2,0.4,0.2,0.6,0.2c0.2,0,0.4-0.1,0.6-0.2
				c0.3-0.3,0.3-0.9,0-1.2C15.2,22.1,14.8,21.3,14.8,20.1z"/>
		</g>
	</g>
</g>
</svg>
