<?xml version="1.0" encoding="utf-8"?>
<!-- Generator: Adobe Illustrator 19.2.1, SVG Export Plug-In . SVG Version: 6.00 Build 0)  -->
<svg version="1.1" id="Layer_1" xmlns="http://www.w3.org/2000/svg" xmlns:xlink="http://www.w3.org/1999/xlink" x="0px" y="0px"
	 viewBox="0 0 32 32" style="enable-background:new 0 0 32 32;" xml:space="preserve">
<style type="text/css">
	.st0{fill:#00A3D7;}
	.st1{fill:#63BC48;}
	.st2{fill:#105B27;}
	.st3{fill:none;stroke:#63BC48;stroke-width:1.5;stroke-miterlimit:10;}
</style>
<g>
	<g id="Layer_1_1_">
		<path id="App_Store" class="st0" d="M9.4,23.6l-1.5,1c-0.2,0.1-0.4,0.1-0.4-0.2l0.2-1.8c0-0.3,0.3-0.4,0.4-0.3L9.3,23
			C9.6,23.2,9.6,23.5,9.4,23.6z M9.8,22.6l-1.2-0.7c-0.2-0.1-0.4-0.4-0.2-0.6l5.5-9.4c0.1-0.2,0.4-0.4,0.6-0.2l1.2,0.7
			c0.2,0.1,0.4,0.4,0.2,0.6l-5.5,9.4C10.3,22.7,10,22.7,9.8,22.6z M20.8,19.5c-0.4-0.3-2.9-5.6-3.4-7c-0.6-1.3-2.4-5.1-1.8-5.4
			c0.4-0.2,1.9,2.7,3.1,4.5s3.5,6.4,3.8,6.8c0.4,0.5-0.3,1-0.5,1.1C21.4,19.7,21.2,19.8,20.8,19.5z M22.3,22l-0.7-1.2
			c-0.1-0.3-0.1-0.5,0.2-0.6l0.7-0.4c0.3-0.1,0.5,0,0.7,0.2l0.5,1.1c0.1,0.3,0.1,0.5-0.2,0.7l-0.6,0.3C22.7,22.3,22.4,22.2,22.3,22z
			 M24.9,25c-0.1-0.5-1.3-0.5-1.8-1.2s-0.1-1.1,0.1-1.3C25.3,21.4,24.9,25,24.9,25z"/>
	</g>
	<g id="Layer_2">
		<path class="st1" d="M6,18v-2.7c0-0.3,0.2-0.4,0.4-0.4h4.8l-2.1,3.6H6.5C6.2,18.4,6,18.3,6,18z"/>
		<polygon class="st1" points="14,18.4 16.1,14.8 17.3,14.8 18.9,18.4 		"/>
		<path class="st1" d="M22.6,17.3c-0.4-0.6-0.7-1.4-1.3-2.4h4.2c0.3,0,0.4,0.2,0.4,0.4V18l0,0l0,0c0,0.3-0.2,0.4-0.4,0.4h-2.4
			c0-0.1-0.1-0.3-0.1-0.4"/>
		<path class="st2" d="M22.9,18.1c-0.1-0.1-0.2-0.4-0.4-0.8"/>
	</g>
</g>
<path class="st3" d="M27.2,30.9H4.8c-2.1,0-3.7-1.7-3.7-3.7V4.8c0-2.1,1.7-3.7,3.7-3.7h22.4c2.1,0,3.7,1.7,3.7,3.7v22.4
	C30.9,29.3,29.3,30.9,27.2,30.9z"/>
</svg>
