<?xml version="1.0" encoding="utf-8"?>
<!-- Generator: Adobe Illustrator 19.2.1, SVG Export Plug-In . SVG Version: 6.00 Build 0)  -->
<svg version="1.1" id="Layer_1" xmlns="http://www.w3.org/2000/svg" xmlns:xlink="http://www.w3.org/1999/xlink" x="0px" y="0px"
	 viewBox="0 0 32 32" style="enable-background:new 0 0 32 32;" xml:space="preserve">
<style type="text/css">
	.st0{fill:#A2A2A2;}
</style>
<path class="st0" d="M16,6C9,6,3,10,0,16c3,6,9,10,16,10s13-4,16-10C29,10,23,6,16,6z M24,11.3c1.8,1.2,3.4,2.8,4.6,4.7
	c-1.2,2-2.8,3.5-4.7,4.7c-3,1.5-6,2.3-8,2.3s-6-0.8-8-2.3C6,19.5,4,18,3,16c1.5-2,3-3.5,5-4.7l0.6-0.2C8,12,8,13,8,14
	c0,4.5,3.5,8,8,8s8-3.5,8-8c0-1-0.3-2-0.6-2.6l0.4,0.3L24,11.3z M16,13c0,1.7-1.3,3-3,3s-3-1.3-3-3s1.3-3,3-3S16,11.3,16,13z"/>
</svg>
