<?xml version="1.0" encoding="utf-8"?>
<!-- Generator: Adobe Illustrator 19.2.1, SVG Export Plug-In . SVG Version: 6.00 Build 0)  -->
<svg version="1.1" id="Layer_1" xmlns="http://www.w3.org/2000/svg" xmlns:xlink="http://www.w3.org/1999/xlink" x="0px" y="0px"
	 viewBox="0 0 32 32" style="enable-background:new 0 0 32 32;" xml:space="preserve">
<style type="text/css">
	.st0{fill:#24B5EF;}
	.st1{fill:#7CC04B;}
</style>
<g>
	<path class="st0" d="M16,0.9c4.2,0,7.9,1.7,10.7,4.4c2.7,2.7,4.4,6.4,4.4,10.7c0,4.2-1.7,7.9-4.4,10.7c-2.7,2.7-6.4,4.4-10.7,4.4
		c-4.2,0-7.9-1.7-10.7-4.4C2.6,23.9,0.9,20.2,0.9,16S2.6,8.1,5.3,5.3C8.1,2.6,11.8,0.9,16,0.9z M25.9,6.1c-2.6-2.5-6-4.1-9.9-4.1
		S8.7,3.6,6.1,6.1c-2.5,2.6-4.1,6-4.1,9.9s1.6,7.3,4.1,9.9c2.5,2.5,6,4.1,9.9,4.1s7.3-1.6,9.9-4.1c2.5-2.5,4.1-6,4.1-9.9
		S28.4,8.7,25.9,6.1z"/>
	<path class="st1" d="M22,15.9l-7.3,4.2c-4.8,2.9,1.1,8.4,3.5,3.2L22,15.9z M16,4.6c3.2,0,6.1,1.2,8.2,3.4s3.4,5,3.4,8.2
		s-1.2,6.1-3.4,8.2c-0.4,0.4-0.9,0.7-1.4,1.1L21.7,24c2.4-1.7,4-4.6,4-7.8c0-1-0.1-2-0.5-3L24,13.8c-0.5,0.2-1.2,0.1-1.5-0.5
		c-0.2-0.5-0.1-1.2,0.5-1.5l1.4-0.7c-1.5-2.5-4.1-4.3-7.2-4.7l0,0v1.4c0,0.6-0.5,1.1-1.1,1.1c-0.6,0-1.1-0.5-1.1-1.1V6.5l0,0
		C11.8,6.8,9,8.7,7.6,11.3L9,12.2c0.5,0.4,0.7,1,0.4,1.5c-0.4,0.5-1,0.7-1.6,0.4l-1.2-0.7C6.3,14.2,6.2,15,6.2,16
		c0,3.4,1.7,6.3,4.2,8.1l-1,1.5c-0.6-0.4-1.1-0.9-1.6-1.4c-2.1-2.1-3.4-5-3.4-8.2S5.7,10,7.8,7.8C9.9,5.9,12.8,4.6,16,4.6L16,4.6z"
		/>
</g>
</svg>
