<?xml version="1.0" encoding="utf-8"?>
<!-- Generator: Adobe Illustrator 19.2.1, SVG Export Plug-In . SVG Version: 6.00 Build 0)  -->
<svg version="1.1" id="Layer_1" xmlns="http://www.w3.org/2000/svg" xmlns:xlink="http://www.w3.org/1999/xlink" x="0px" y="0px"
	 viewBox="0 0 32 32" style="enable-background:new 0 0 32 32;" xml:space="preserve">
<style type="text/css">
	.st0{display:none;}
	.st1{display:inline;fill:#2C7DA9;}
	.st2{display:none;fill:none;stroke:#2E7DA9;stroke-miterlimit:10;}
	.st3{fill:#949393;}
	.st4{fill:none;stroke:#949393;stroke-miterlimit:10;}
</style>
<g class="st0">
	<path class="st1" d="M19.1,19.8H6.9v3h12.1V19.8z M16.1,13.6h10.4V4.8H16.1V13.6z M14.6,4.8H7.1V14h7.5V4.8z M13.1,15.5h-6v3h6
		V15.5z M14.6,18.3h12.1v-3H14.6V18.3z M20.6,27.4h6.2V20h-6.2V27.4z"/>
	<path class="st1" d="M13.1,24.2h-6v3h6V24.2z"/>
</g>
<rect x="2.6" y="0.5" class="st2" width="27.4" height="31"/>
<g>
	<path class="st3" d="M19.1,19.8H6.9v3h12.2V19.8L19.1,19.8z M16.1,13.6h10.5V4.8H16.1V13.6L16.1,13.6z M14.6,4.8H7.1V14h7.5V4.8z
		 M13.1,15.5h-6v3h6V15.5z M14.6,18.3h12.2v-3H14.6V18.3z M20.5,27.5h6.2V20h-6.2V27.5z"/>
	<path class="st3" d="M13.1,24.2h-6v3h6V24.2z"/>
</g>
<rect x="2.6" y="0.5" class="st4" width="27.4" height="31"/>
</svg>
