<svg id="Login" xmlns="http://www.w3.org/2000/svg" viewBox="0 0 80.5 80.5"><defs><style>.cls-1{isolation:isolate;}.cls-2{fill:#00a3d9;}.cls-3{fill:#34404c;}.cls-3,.cls-6{fill-rule:evenodd;}.cls-4{fill:#8ac832;}.cls-5{font-size:11px;font-family:Frutiger Next Pro;}.cls-5,.cls-6{fill:#fff;}</style></defs><title>icon-login</title><g id="Ellipse_1" data-name="Ellipse 1" class="cls-1"><g id="Ellipse_1-2" data-name="Ellipse 1"><circle class="cls-2" cx="40.25" cy="40.25" r="40.25"/></g></g><g id="Rounded_Rectangle_1" data-name="Rounded Rectangle 1" class="cls-1"><g id="Rounded_Rectangle_1-2" data-name="Rounded Rectangle 1"><path class="cls-3" d="M24.62,30.23V79.18A40.25,40.25,0,0,0,78.74,25.23H29.62A5,5,0,0,0,24.62,30.23Z" transform="translate(-2.5 -3)"/></g></g><g id="Rounded_Rectangle_2" data-name="Rounded Rectangle 2" class="cls-1"><g id="Rounded_Rectangle_2-2" data-name="Rounded Rectangle 2"><rect class="cls-4" x="14.5" y="28.5" width="39.5" height="20.5" rx="2" ry="2"/></g></g><text class="cls-5" transform="translate(21.56 42.16)">L<tspan x="4.84" y="0">ogin</tspan></text><g id="Shape_1" data-name="Shape 1" class="cls-1"><g id="Shape_1-2" data-name="Shape 1"><path class="cls-6" d="M56.37,62.19a1.61,1.61,0,0,0-1-1.55l-14.63-6a1.59,1.59,0,0,0-.62-0.13,1.61,1.61,0,0,0-1.34.72,1.58,1.58,0,0,0-.15,1.51l6,14.64a1.62,1.62,0,0,0,3-.09l1.94-5.67,5.67-1.94A1.6,1.6,0,0,0,56.37,62.19Zm-1.47.39-5.94,2a0.56,0.56,0,0,0-.36.36l-2,5.94a0.45,0.45,0,0,1-.44.31,0.45,0.45,0,0,1-.43-0.29l-6-14.64a0.43,0.43,0,0,1,0-.43,0.46,0.46,0,0,1,.39-0.22,0.51,0.51,0,0,1,.18,0l14.63,6A0.47,0.47,0,0,1,54.9,62.58Zm-2,5.47a0.57,0.57,0,0,0-.81.81l8,8.05a0.58,0.58,0,0,0,.82-0.81Zm8.47,1.8-2.92-2.91a0.57,0.57,0,0,0-.81.81l2.91,2.91A0.58,0.58,0,0,0,61.33,69.86Zm-9.58,3.75a0.57,0.57,0,0,0-.81.81l2.91,2.91a0.57,0.57,0,1,0,.81-0.81Z" transform="translate(-2.5 -3)"/></g></g></svg>