<?xml version="1.0" encoding="utf-8"?>
<!-- Generator: Adobe Illustrator 19.2.1, SVG Export Plug-In . SVG Version: 6.00 Build 0)  -->
<svg version="1.1" id="Ellipse_1_copy_2_1_" xmlns="http://www.w3.org/2000/svg" xmlns:xlink="http://www.w3.org/1999/xlink"
	 x="0px" y="0px" viewBox="0 0 32 32" style="enable-background:new 0 0 32 32;" xml:space="preserve">
<style type="text/css">
	.st0{fill-rule:evenodd;clip-rule:evenodd;fill:#FFFFFF;}
</style>
<g id="Ellipse_1_copy_2">
	<g>
		<path class="st0" d="M29.3,13.4c-0.9,0-1.6,0.6-1.8,1.4h-1.3V9h-0.1c0.9-0.1,1.6-0.9,1.6-1.8c0-1-0.8-1.9-1.9-1.9S24,6.1,24,7.2
			c0,0.9,0.7,1.7,1.6,1.8h-0.2v5.8h-1.3v-2.3c0-0.6-0.5-1.1-1.1-1.1h-1.2l0.2-0.6c0.3-0.9-0.1-1.9-1.1-2.3l-8.7-3.2
			c-0.3-0.1-0.7-0.1-1,0.1c-0.3,0.1-0.6,0.4-0.7,0.7L9.7,8.6H9.5c-0.6,0-1.1,0.5-1.1,1.1v1.7c-0.6,0-1,0.4-1.1,1v-0.2H3.2V8.3
			C4,8.1,4.5,7.4,4.5,6.5c0-1-0.8-1.9-1.9-1.9S0.8,5.5,0.8,6.5c0,0.9,0.7,1.7,1.5,1.8v3.8V13h4.9v8c0,0.6,0.5,1.1,1.1,1.1h0.3v1.5
			H4.8c0-1-0.9-1.8-1.9-1.8c-1,0-1.9,0.8-1.9,1.9s0.8,1.9,1.9,1.9c0.8,0,1.5-0.5,1.7-1.2h4.8v-2.3h5.8v1.2h-3.9V24H16v-1.9H20v3.1
			v0.7V26h3.7c0.2,0.8,0.9,1.4,1.8,1.4c1,0,1.9-0.8,1.9-1.9s-0.8-1.9-1.9-1.9c-0.9,0-1.7,0.6-1.8,1.5h-2.9v-3.1H23
			c0.6,0,1.1-0.5,1.1-1.1v-5.3h3.4c0.2,0.9,0.9,1.6,1.8,1.6c1,0,1.9-0.8,1.9-1.9S30.4,13.4,29.3,13.4z M1.6,6.5
			c0-0.6,0.5-1.1,1.1-1.1s1.1,0.5,1.1,1.1c0,0.6-0.5,1.1-1.1,1.1S1.6,7.1,1.6,6.5z M2.9,24.8c-0.6,0-1.1-0.5-1.1-1.1
			c0-0.6,0.5-1.1,1.1-1.1S4,23.1,4,23.7C4,24.3,3.5,24.8,2.9,24.8z M25.5,24.4c0.6,0,1.1,0.5,1.1,1.1c0,0.6-0.5,1.1-1.1,1.1
			c-0.6,0-1.1-0.5-1.1-1.1C24.3,24.9,24.8,24.4,25.5,24.4z M11.1,6.2c0.1-0.2,0.2-0.3,0.4-0.4c0.2-0.1,0.4-0.1,0.6,0L20.8,9
			c0.6,0.3,1,1,0.7,1.6l-0.3,0.8h-4L16.9,11l-0.4-0.6l1.6,0.6c0,0,0.1,0,0.1,0c0.1,0,0.2-0.1,0.3-0.2c0.1-0.1,0-0.3-0.2-0.4
			l-2.4-0.9l-0.7-0.9c-0.1-0.1-0.1-0.1-0.2-0.1H14c0,0,0,0-0.1,0h-3.7L11.1,6.2z M8.9,9.7c0-0.3,0.3-0.6,0.6-0.6h0.4h4h0.1h1
			l1.6,2.2H8.9V9.7z M23.5,20.9c0,0.3-0.3,0.6-0.6,0.6H8.4c-0.3,0-0.6-0.3-0.6-0.6v-8.4c0-0.3,0.3-0.6,0.6-0.6h0.3h8.4h4.3H23
			c0.3,0,0.6,0.3,0.6,0.6V20.9z M24.7,7.2c0-0.6,0.5-1.1,1.1-1.1C26.4,6,27,6.5,27,7.2c0,0.6-0.5,1.1-1.1,1.1
			C25.2,8.3,24.7,7.8,24.7,7.2z M29.3,16.4c-0.6,0-1.1-0.5-1.1-1.1c0-0.6,0.5-1.1,1.1-1.1c0.6,0,1.1,0.5,1.1,1.1
			C30.4,15.9,29.9,16.4,29.3,16.4z M12.6,13.1H9.2c-0.2,0-0.3,0.1-0.3,0.3s0.1,0.3,0.3,0.3h3.4c0.2,0,0.3-0.1,0.3-0.3
			S12.7,13.1,12.6,13.1z M12.6,14.2H9.2c-0.2,0-0.3,0.1-0.3,0.3s0.1,0.3,0.3,0.3h3.4c0.2,0,0.3-0.1,0.3-0.3S12.7,14.2,12.6,14.2z
			 M20.5,10.3c0.1,0,0.2-0.1,0.3-0.2c0.1-0.1,0-0.3-0.2-0.4l-8.5-3.1c-0.1-0.1-0.3,0-0.4,0.2c-0.1,0.1,0,0.3,0.2,0.4L20.5,10.3
			C20.4,10.3,20.4,10.3,20.5,10.3z"/>
	</g>
</g>
</svg>
