<?xml version="1.0" encoding="utf-8"?>
<!-- Generator: Adobe Illustrator 19.2.1, SVG Export Plug-In . SVG Version: 6.00 Build 0)  -->
<svg version="1.1" id="Layer_1" xmlns="http://www.w3.org/2000/svg" xmlns:xlink="http://www.w3.org/1999/xlink" x="0px" y="0px"
	 viewBox="0 0 32 32" style="enable-background:new 0 0 32 32;" xml:space="preserve">
<style type="text/css">
	.st0{enable-background:new    ;}
	.st1{fill:#00A3D7;}
	.st2{fill:#FFFFFF;}
</style>
<g id="Layer_1_xA0_Image_1_">
</g>
<g id="Rounded_Rectangle_1_1_" class="st0">
</g>
<g id="Rounded_Rectangle_1_copy_1_" class="st0">
</g>
<g id="API">
</g>
<g id="Rounded_Rectangle_2_1_" class="st0">
	<g>
		<g id="Rounded_Rectangle_1">
			<g>
				<path class="st1" d="M24.7,0.2H7.3c-2.1,0-3.9,1.7-3.9,3.9v23.8c0,2.1,1.7,3.9,3.9,3.9h17.5c2.1,0,3.9-1.7,3.9-3.9V4.1
					C28.6,2,26.8,0.2,24.7,0.2z M27.7,4.3H4.3V4.1c0-1.6,1.3-2.9,2.9-2.9h17.5c1.6,0,2.9,1.3,2.9,2.9v0.2
					C27.6,4.3,27.7,4.3,27.7,4.3z"/>
			</g>
		</g>
		<g id="Rounded_Rectangle_1_copy">
			<g>
				<path class="st1" d="M26.2,0.2H5.8c-1.4,0-2.4,1.1-2.4,2.4v1.9h25.3V2.6C28.6,1.4,27.6,0.2,26.2,0.2z M6,3.3
					C5.6,3.3,5.2,3,5.2,2.5S5.6,1.6,6,1.6S6.8,2,6.8,2.4C7,2.9,6.5,3.3,6,3.3z M8.5,3.3C8,3.3,7.6,2.9,7.6,2.4S8,1.6,8.5,1.6
					S9.3,2,9.3,2.4C9.3,2.9,9,3.3,8.5,3.3z M10.9,3.3c-0.5,0-0.8-0.3-0.8-0.8s0.4-0.8,0.8-0.8s0.8,0.3,0.8,0.8S11.4,3.3,10.9,3.3z"
					/>
			</g>
		</g>
		<g class="st0">
			<path class="st2" d="M8.2,17.6l2.5-6.5h1.4l2.5,6.5h-1.3l-0.5-1.3h-3l-0.5,1.3H8.2z M10.3,15.4h2.3l-1.2-3.1L10.3,15.4z"/>
			<path class="st2" d="M15.4,17.6v-6.5h2.8c0.7,0,1.2,0.2,1.5,0.6c0.4,0.4,0.6,0.9,0.6,1.4c0,0.6-0.2,1-0.6,1.4
				c-0.4,0.4-0.9,0.6-1.5,0.6h-1.7v2.4H15.4z M16.5,14.2h1.6c0.3,0,0.6-0.1,0.8-0.3c0.2-0.2,0.3-0.4,0.3-0.7c0-0.3-0.1-0.6-0.3-0.7
				c-0.2-0.2-0.5-0.3-0.8-0.3h-1.6V14.2z"/>
			<path class="st2" d="M21.3,17.6v-6.5h1.1v6.5H21.3z"/>
		</g>
		<g id="Rounded_Rectangle_2">
			<g>
				<path class="st2" d="M24.3,20.6c0-0.3-0.2-0.5-0.5-0.5H8.2c-0.3,0-0.5,0.2-0.5,0.5s0.2,0.5,0.5,0.5h15.5
					C24.1,21.1,24.3,20.9,24.3,20.6z M23.7,22.6H13.1c-0.3,0-0.5,0.2-0.5,0.5s0.2,0.5,0.5,0.5h10.7c0.3,0,0.5-0.2,0.5-0.5
					C24.3,22.8,24.1,22.6,23.7,22.6z M23.7,25h-5.8c-0.3,0-0.5,0.2-0.5,0.5s0.2,0.5,0.5,0.5h5.8c0.3,0,0.5-0.2,0.5-0.5
					C24.3,25.2,24.1,25,23.7,25z"/>
			</g>
		</g>
	</g>
</g>
</svg>
