<?xml version="1.0" encoding="utf-8"?>
<!-- Generator: Adobe Illustrator 19.2.1, SVG Export Plug-In . SVG Version: 6.00 Build 0)  -->
<svg version="1.0" xmlns="http://www.w3.org/2000/svg" xmlns:xlink="http://www.w3.org/1999/xlink" x="0px" y="0px"
	 viewBox="0 0 32 32" style="enable-background:new 0 0 32 32;" xml:space="preserve">
<style type="text/css">
	.st0{enable-background:new    ;}
	.st1{fill-rule:evenodd;clip-rule:evenodd;fill:#00A4D8;}
	.st2{fill-rule:evenodd;clip-rule:evenodd;fill:#FFFFFF;}
	.st3{fill-rule:evenodd;clip-rule:evenodd;fill:#7BB224;}
</style>
<g id="Ellipse_1_1_" class="st0">
</g>
<g id="Ellipse_1_copy_2_1_" class="st0">
</g>
<g id="Ellipse_1_copy_1_" class="st0">
	<g>
		<g id="Ellipse_1">
			<g>
				<path class="st1" d="M24.1,22.6c-1.9,2.4-4.9,3.9-8.3,3.9c-5.8,0-10.6-4.6-10.6-10.4c0-5.2,4-9.6,9.1-10.3V1.4
					C6.7,2.1,0.7,8.5,0.7,16.2C0.7,24.3,7.5,31,15.8,31c4.9,0,9.3-2.3,12.1-5.9L24.1,22.6z"/>
			</g>
		</g>
		<g id="Ellipse_1_copy_2">
			<g>
				<path class="st2" d="M24.4,24.3c-2.2,2.2-5.2,3.5-8.5,3.5c-6.6,0-11.9-5.2-11.9-11.6c0-5.5,3.9-10.1,9.1-11.3v-2
					C6.8,4.1,2,9.6,2,16.2c0,7.5,6.2,13.6,13.9,13.6c4,0,7.7-1.7,10.2-4.4L24.4,24.3z"/>
			</g>
		</g>
		<g id="Ellipse_1_copy">
			<g>
				<path class="st3" d="M17.4,1.4v4.5c5.1,0.7,9,5,9,10.2c0,1.3-0.2,2.5-0.7,3.6l3.9,2.3c0.8-1.8,1.3-3.8,1.3-6
					C30.9,8.5,25,2.2,17.4,1.4z"/>
			</g>
		</g>
	</g>
</g>
</svg>
