<?xml version="1.0" encoding="utf-8"?>
<!-- Generator: Adobe Illustrator 19.2.1, SVG Export Plug-In . SVG Version: 6.00 Build 0)  -->
<svg version="1.1" id="no_access_copy_1_" xmlns="http://www.w3.org/2000/svg" xmlns:xlink="http://www.w3.org/1999/xlink" x="0px"
	 y="0px" viewBox="0 0 32 32" style="enable-background:new 0 0 32 32;" xml:space="preserve">
<style type="text/css">
	.st0{fill:#2A333C;}
</style>
<g id="no_access_copy">
	<g>
		<path class="st0" d="M28.5,6.4L28.5,6.4l-2.4-2.6L26,3.9c-2.7-2.3-6.2-3.6-10-3.6C7.3,0.2,0.2,7.3,0.2,16c0,3.6,1.2,6.9,3.3,9.6
			l-0.1,0.1l2.4,2.5L6,28.1c2.7,2.3,6.2,3.6,10,3.6c8.7,0,15.8-7.1,15.8-15.8C31.8,12.4,30.5,9.1,28.5,6.4z M3,16
			C3,8.8,8.8,2.9,16,2.9c2.9,0,5.8,1,7.9,2.7L5.5,23.6C3.9,21.4,3,18.8,3,16z M16,29.1c-2.9,0-5.8-1-7.9-2.7L26.6,8.4
			c1.5,2.2,2.4,4.8,2.4,7.6C29.1,23.2,23.2,29.1,16,29.1z"/>
	</g>
</g>
</svg>
