<?xml version="1.0" encoding="utf-8"?>
<!-- Generator: Adobe Illustrator 19.2.1, SVG Export Plug-In . SVG Version: 6.00 Build 0)  -->
<svg version="1.1" id="Layer_1" xmlns="http://www.w3.org/2000/svg" xmlns:xlink="http://www.w3.org/1999/xlink" x="0px" y="0px"
	 viewBox="0 0 32 32" style="enable-background:new 0 0 32 32;" xml:space="preserve">
<style type="text/css">
	.st0{fill:none;stroke:#9E9E9E;stroke-width:0.75;stroke-miterlimit:10;}
	.st1{fill:#9E9E9E;}
</style>
<g>
	<path class="st0" d="M1,5.5C0.7,5.8,0.5,6.3,0.5,6.9v18.3c0,0.6,0.3,1.1,0.6,1.4s0.8,0.6,1.4,0.6h14.7h12.4c1.1,0,1.9-0.8,1.9-1.9
		V6.9c0-0.6-0.3-0.8-0.6-1.4c-0.3-0.6-0.8-0.6-1.4-0.6H14.8H2.4C1.6,4.9,1.3,4.9,1,5.5z"/>
</g>
<rect x="28.5" y="14.7" class="st1" width="1.3" height="2.7"/>
<g id="Forma_1">
	<g>
		<path class="st1" d="M10.1,14.7L10.1,14.7c-0.4,0-0.7,0.3-0.7,0.6V18c0,0.3,0.3,0.6,0.6,0.6l0,0c0.4,0,0.6-0.3,0.6-0.6v-2.7
			C10.7,15,10.5,14.7,10.1,14.7z M15.5,12.2l0.5-0.8v-0.1h-0.1l-0.5,0.8c-0.4-0.2-0.8-0.2-1.3-0.2s-0.9,0.1-1.3,0.2l-0.5-0.8
			c0,0-0.1-0.1-0.1,0c0,0-0.1,0.1,0,0.1l0.5,0.8c-0.9,0.4-1.5,1.2-1.5,2.2c0,0.1,0,0.1,0,0.2H17c0-0.1,0-0.1,0-0.2
			C17,13.4,16.4,12.6,15.5,12.2z M12.6,13.5c-0.2,0-0.3-0.1-0.3-0.3s0.1-0.3,0.3-0.3s0.3,0.1,0.3,0.3C12.9,13.4,12.8,13.5,12.6,13.5
			z M15.4,13.5c-0.2,0-0.3-0.1-0.3-0.3s0.1-0.3,0.3-0.3s0.3,0.1,0.3,0.3S15.5,13.5,15.4,13.5z M11,19.1c0,0.3,0.3,0.6,0.6,0.6h0.6
			v1.5c0,0.3,0.3,0.6,0.6,0.6l0,0c0.4,0,0.6-0.3,0.6-0.6v-1.5h0.9v1.5c0,0.3,0.3,0.6,0.6,0.6l0,0c0.4,0,0.6-0.3,0.6-0.6v-1.5h0.6
			c0.3,0,0.6-0.3,0.6-0.6v-4.3H11V19.1z M17.9,14.7L17.9,14.7c-0.4,0-0.7,0.3-0.7,0.6V18c0,0.3,0.3,0.6,0.6,0.6l0,0
			c0.4,0,0.6-0.3,0.6-0.6v-2.7C18.6,15,18.3,14.7,17.9,14.7z"/>
	</g>
</g>
</svg>
