<?xml version="1.0" encoding="utf-8"?>
<!-- Generator: Adobe Illustrator 19.2.1, SVG Export Plug-In . SVG Version: 6.00 Build 0)  -->
<svg version="1.1" id="Layer_1" xmlns="http://www.w3.org/2000/svg" xmlns:xlink="http://www.w3.org/1999/xlink" x="0px" y="0px"
	 viewBox="0 0 32 32" style="enable-background:new 0 0 32 32;" xml:space="preserve">
<style type="text/css">
	.st0{display:none;}
	.st1{display:inline;}
	.st2{fill:#F9A350;stroke:#F9A350;stroke-miterlimit:10;}
	.st3{fill:#9E9E9E;stroke:#9E9E9E;stroke-width:0.5;stroke-miterlimit:10;}
</style>
<g id="Layer_1_1_" class="st0">
	<g class="st1">
		<g>
			<path class="st2" d="M17.9,31.4h-3.7c-0.7,0-1.4-0.6-1.4-1.3l-0.4-2.3c-0.7-0.2-1.4-0.5-2.1-0.9l-1.9,1.4
				c-0.2,0.2-0.6,0.3-0.9,0.3c-0.4,0-0.7-0.2-1-0.4l-2.6-2.6c-0.5-0.5-0.6-1.4-0.1-1.9L5,21.8c-0.4-0.7-0.6-1.4-0.9-2.1l-2.3-0.4
				c-0.7-0.1-1.3-0.7-1.3-1.4v-3.7c0-0.7,0.6-1.4,1.3-1.4l2.3-0.4C4.3,11.7,4.6,11,5,10.3l-1.3-2C3.2,7.8,3.3,6.9,3.8,6.4l2.6-2.6
				c0.5-0.5,1.4-0.5,1.9-0.1L10.2,5c0.7-0.3,1.4-0.6,2.1-0.9l0.4-2.3c0.1-0.7,0.7-1.3,1.4-1.3h3.7c0.7,0,1.4,0.6,1.4,1.3l0.4,2.3
				C20.3,4.3,21,4.6,21.7,5l1.9-1.4c0.2-0.2,0.6-0.3,0.9-0.3c0.4,0,0.7,0.1,1,0.4l2.6,2.6c0.5,0.5,0.6,1.4,0.1,1.9l-1.2,2
				c0.4,0.7,0.6,1.4,0.9,2.1l2.3,0.4c0.7,0.1,1.3,0.7,1.3,1.4v3.7c0,0.7-0.6,1.4-1.3,1.4l-2.3,0.4c-0.2,0.7-0.5,1.4-0.9,2.1l1.4,1.9
				c0.5,0.5,0.4,1.4-0.1,1.9l-2.6,2.6c-0.5,0.5-1.4,0.6-1.9,0.1l-2-1.2c-0.7,0.4-1.4,0.6-2.1,0.9l-0.4,2.3
				C19.2,30.9,18.6,31.4,17.9,31.4z M10.2,25.9c0.1,0,0.2,0,0.2,0.1c0.8,0.4,1.6,0.8,2.5,1c0.2,0.1,0.3,0.2,0.4,0.4l0.4,2.6
				c0,0.2,0.2,0.4,0.4,0.4h3.7c0.2,0,0.4-0.2,0.4-0.4l0.4-2.7c0-0.2,0.2-0.4,0.4-0.4c0.9-0.2,1.7-0.6,2.5-1c0.2-0.1,0.4-0.1,0.5,0
				l2.2,1.6c0.2,0.2,0.4,0.1,0.6,0l2.6-2.6c0.2-0.2,0.2-0.4,0-0.6L26,22.1c-0.1-0.2-0.1-0.4,0-0.5c0.4-0.8,0.8-1.6,1-2.5
				c0.1-0.2,0.2-0.3,0.4-0.4l2.6-0.4c0.2,0,0.4-0.2,0.4-0.4v-3.7c0-0.2-0.2-0.4-0.4-0.4l-2.7-0.4c-0.2,0-0.4-0.2-0.4-0.4
				c-0.2-0.9-0.6-1.7-1-2.5c-0.1-0.2-0.1-0.4,0-0.5l1.6-2.2c0.2-0.2,0.1-0.4,0-0.6l-2.6-2.6c-0.1-0.1-0.4-0.2-0.6,0L22.1,6
				c-0.2,0.1-0.4,0.1-0.5,0c-0.8-0.4-1.6-0.8-2.5-1c-0.2-0.1-0.3-0.2-0.4-0.4L18.3,2c0-0.3-0.2-0.4-0.4-0.4h-3.7
				c-0.2,0-0.4,0.2-0.4,0.4l-0.4,2.7c0,0.2-0.2,0.4-0.4,0.4c-0.9,0.2-1.7,0.6-2.5,1c-0.2,0.1-0.4,0.1-0.5,0L7.7,4.5
				c-0.2-0.2-0.4-0.1-0.6,0L4.5,7.1c-0.2,0.2-0.2,0.4,0,0.6L6,9.9c0.1,0.2,0.1,0.4,0,0.5c-0.4,0.8-0.8,1.6-1,2.5
				c-0.1,0.2-0.2,0.3-0.4,0.4L2,13.7c-0.2,0-0.4,0.2-0.4,0.4v3.7c0,0.2,0.2,0.4,0.4,0.4l2.7,0.4c0.2,0,0.4,0.2,0.4,0.4
				c0.2,0.9,0.6,1.7,1,2.5c0.1,0.2,0.1,0.4,0,0.5l-1.6,2.2c-0.2,0.2-0.1,0.4,0,0.6l2.6,2.6c0.1,0.1,0.4,0.2,0.6,0L9.9,26
				C10,25.9,10.1,25.9,10.2,25.9z M16,22.1c-3.4,0-6.1-2.7-6.1-6.1s2.7-6.1,6.1-6.1s6.1,2.7,6.1,6.1S19.4,22.1,16,22.1z M16,10.9
				c-2.8,0-5.1,2.3-5.1,5.1s2.3,5.1,5.1,5.1s5.1-2.3,5.1-5.1S18.8,10.9,16,10.9z"/>
		</g>
	</g>
</g>
<g id="Layer_2">
	<g>
		<g>
			<path class="st3" d="M17.9,31.4h-3.7c-0.7,0-1.4-0.6-1.4-1.3l-0.4-2.3c-0.7-0.2-1.4-0.5-2.1-0.9l-1.9,1.4
				c-0.2,0.2-0.6,0.3-0.9,0.3c-0.4,0-0.7-0.2-1-0.4l-2.6-2.6c-0.5-0.5-0.6-1.4-0.1-1.9L5,21.8c-0.4-0.7-0.6-1.4-0.9-2.1l-2.3-0.4
				c-0.7-0.1-1.3-0.7-1.3-1.4v-3.7c0-0.7,0.6-1.4,1.3-1.4l2.3-0.4C4.3,11.7,4.6,11,5,10.3l-1.3-2C3.2,7.8,3.3,6.9,3.8,6.4l2.6-2.6
				c0.5-0.5,1.4-0.5,1.9-0.1L10.2,5c0.7-0.3,1.4-0.6,2.1-0.9l0.4-2.3c0.1-0.7,0.7-1.3,1.4-1.3h3.7c0.7,0,1.4,0.6,1.4,1.3l0.4,2.3
				C20.3,4.3,21,4.6,21.7,5l1.9-1.4c0.2-0.2,0.6-0.3,0.9-0.3c0.4,0,0.7,0.1,1,0.4l2.6,2.6c0.5,0.5,0.6,1.4,0.1,1.9l-1.2,2
				c0.4,0.7,0.6,1.4,0.9,2.1l2.3,0.4c0.7,0.1,1.3,0.7,1.3,1.4v3.7c0,0.7-0.6,1.4-1.3,1.4l-2.3,0.4c-0.2,0.7-0.5,1.4-0.9,2.1l1.4,1.9
				c0.5,0.5,0.4,1.4-0.1,1.9l-2.6,2.6c-0.5,0.5-1.4,0.6-1.9,0.1l-2-1.2c-0.7,0.4-1.4,0.6-2.1,0.9l-0.4,2.3
				C19.2,30.9,18.6,31.4,17.9,31.4z M10.2,25.9c0.1,0,0.2,0,0.2,0.1c0.8,0.4,1.6,0.8,2.5,1c0.2,0.1,0.3,0.2,0.4,0.4l0.4,2.6
				c0,0.2,0.2,0.4,0.4,0.4h3.7c0.2,0,0.4-0.2,0.4-0.4l0.4-2.7c0-0.2,0.2-0.4,0.4-0.4c0.9-0.2,1.7-0.6,2.5-1c0.2-0.1,0.4-0.1,0.5,0
				l2.2,1.6c0.2,0.2,0.4,0.1,0.6,0l2.6-2.6c0.2-0.2,0.2-0.4,0-0.6L26,22.1c-0.1-0.2-0.1-0.4,0-0.5c0.4-0.8,0.8-1.6,1-2.5
				c0.1-0.2,0.2-0.3,0.4-0.4l2.6-0.4c0.2,0,0.4-0.2,0.4-0.4v-3.7c0-0.2-0.2-0.4-0.4-0.4l-2.7-0.4c-0.2,0-0.4-0.2-0.4-0.4
				c-0.2-0.9-0.6-1.7-1-2.5c-0.1-0.2-0.1-0.4,0-0.5l1.6-2.2c0.2-0.2,0.1-0.4,0-0.6l-2.6-2.6c-0.1-0.1-0.4-0.2-0.6,0L22.1,6
				c-0.2,0.1-0.4,0.1-0.5,0c-0.8-0.4-1.6-0.8-2.5-1c-0.2-0.1-0.3-0.2-0.4-0.4L18.3,2c0-0.3-0.2-0.4-0.4-0.4h-3.7
				c-0.2,0-0.4,0.2-0.4,0.4l-0.4,2.7c0,0.2-0.2,0.4-0.4,0.4c-0.9,0.2-1.7,0.6-2.5,1c-0.2,0.1-0.4,0.1-0.5,0L7.7,4.5
				c-0.2-0.2-0.4-0.1-0.6,0L4.5,7.1c-0.2,0.2-0.2,0.4,0,0.6L6,9.9c0.1,0.2,0.1,0.4,0,0.5c-0.4,0.8-0.8,1.6-1,2.5
				c-0.1,0.2-0.2,0.3-0.4,0.4L2,13.7c-0.2,0-0.4,0.2-0.4,0.4v3.7c0,0.2,0.2,0.4,0.4,0.4l2.7,0.4c0.2,0,0.4,0.2,0.4,0.4
				c0.2,0.9,0.6,1.7,1,2.5c0.1,0.2,0.1,0.4,0,0.5l-1.6,2.2c-0.2,0.2-0.1,0.4,0,0.6l2.6,2.6c0.1,0.1,0.4,0.2,0.6,0L9.9,26
				C10,25.9,10.1,25.9,10.2,25.9z M16,22.1c-3.4,0-6.1-2.7-6.1-6.1s2.7-6.1,6.1-6.1s6.1,2.7,6.1,6.1S19.4,22.1,16,22.1z M16,10.9
				c-2.8,0-5.1,2.3-5.1,5.1s2.3,5.1,5.1,5.1s5.1-2.3,5.1-5.1S18.8,10.9,16,10.9z"/>
		</g>
	</g>
</g>
</svg>
