<?xml version="1.0" encoding="utf-8"?>
<!-- Generator: Adobe Illustrator 19.2.1, SVG Export Plug-In . SVG Version: 6.00 Build 0)  -->
<svg version="1.1" id="Layer_1" xmlns="http://www.w3.org/2000/svg" xmlns:xlink="http://www.w3.org/1999/xlink" x="0px" y="0px"
	 viewBox="0 0 32 32" style="enable-background:new 0 0 32 32;" xml:space="preserve">
<style type="text/css">
	.st0{fill:#F2F2F2;}
	.st1{fill:#40596B;}
	.st2{fill:#FFFFFF;}
	.st3{fill:#FF7058;}
	.st4{fill:#CDD6E0;}
	.st5{fill:#ACB3BA;}
	.st6{fill:#84DBFF;}
	.st7{fill:#54C0EB;}
	.st8{fill:#334A5E;}
	.st9{fill:#284154;}
	.st10{fill:#E23C2B;}
	.st11{fill:#F1543F;}
	.st12{fill:#EFA53A;}
	.st13{fill:#FFD15C;}
	.st14{fill:#F8B64C;}
	.st15{fill:#20ADCE;}
</style>
<circle class="st0" cx="16" cy="16" r="15.7"/>
<circle class="st1" cx="16" cy="16" r="1.5"/>
<circle class="st2" cx="16" cy="16" r="0.7"/>
<g>
	<path id="SVGCleanerId_0" class="st3" d="M16,16L16,16L16,16z"/>
</g>
<g>
	<path id="SVGCleanerId_0_1_" class="st3" d="M16,16L16,16L16,16z"/>
</g>
<g>
	<path class="st3" d="M16,16L16,16L16,16z"/>
	<path class="st3" d="M16,16L16,16L16,16z"/>
</g>
<g>
	<path id="SVGCleanerId_0_2_" class="st3" d="M16,16L16,16L16,16z"/>
</g>
<g>
	<path id="SVGCleanerId_0_3_" class="st3" d="M16,16L16,16L16,16z"/>
</g>
<g>
	<path id="SVGCleanerId_0_4_" class="st3" d="M16,16L16,16L16,16z"/>
</g>
<g>
	<path id="SVGCleanerId_0_5_" class="st3" d="M16,16L16,16L16,16z"/>
</g>
<g>
	<path id="SVGCleanerId_0_6_" class="st3" d="M16,16L16,16L16,16z"/>
</g>
<g>
	<path id="SVGCleanerId_0_7_" class="st3" d="M16,16L16,16L16,16z"/>
</g>
<path class="st1" d="M29.1,16c0,1.8-0.4,3.5-1,5l-6.5-2.7c0.3-0.7,0.5-1.5,0.5-2.3H29.1z"/>
<g>
	<path id="SVGCleanerId_0_8_" class="st3" d="M16,16L16,16L16,16z"/>
</g>
<g>
	<path id="SVGCleanerId_0_9_" class="st3" d="M16,16L16,16L16,16z"/>
</g>
<path class="st3" d="M16,16L16,16L16,16z"/>
<g>
	<path id="SVGCleanerId_0_10_" class="st3" d="M16,16L16,16L16,16z"/>
</g>
<path class="st3" d="M16,16L16,16L16,16z"/>
<path class="st4" d="M13.7,21.6L11,28c-1.6-0.7-3.1-1.6-4.2-2.8l5-5C12.3,20.8,12.9,21.3,13.7,21.6z"/>
<path class="st5" d="M11.8,20.2l-5,5C5.6,24,4.6,22.6,3.9,21l6.5-2.7C10.7,19.1,11.2,19.6,11.8,20.2z"/>
<path class="st6" d="M10.4,18.3L3.9,21c-0.7-1.5-1-3.2-1-5h7C10,16.9,10.1,17.6,10.4,18.3z"/>
<path class="st7" d="M10.4,13.7C10.1,14.4,10,15.2,10,16h-7c0-1.8,0.3-3.5,1-5L10.4,13.7z"/>
<path class="st8" d="M28.1,21c-0.7,1.6-1.7,3-2.9,4.2l-5-5l0,0c0.6-0.5,1-1.2,1.3-2L28.1,21z"/>
<path class="st9" d="M25.2,25.2C24,26.4,22.6,27.4,21,28l-2.7-6.5c0.7-0.3,1.4-0.8,2-1.3L25.2,25.2z"/>
<path class="st10" d="M29.1,16h-7c0-0.9-0.2-1.6-0.5-2.3l6.5-2.7C28.7,12.5,29.1,14.2,29.1,16z"/>
<path class="st3" d="M25.2,6.8l-5,5c-0.5-0.5-1.2-1-1.9-1.3L21,3.9C22.7,4.5,24,5.6,25.2,6.8z"/>
<path class="st11" d="M28.1,11l-6.5,2.7c-0.3-0.7-0.7-1.4-1.3-2l5-5C26.4,8,27.4,9.4,28.1,11z"/>
<g>
	<path id="SVGCleanerId_0_11_" class="st3" d="M16,16L16,16L16,16z"/>
</g>
<path class="st12" d="M21,3.9l-2.7,6.5C17.6,10.1,16.8,10,16,10v-7C17.7,2.9,19.5,3.3,21,3.9z"/>
<path class="st13" d="M13.7,10.4c-0.7,0.3-1.4,0.8-2,1.3l-5-5C7.9,5.6,9.4,4.6,11,4L13.7,10.4z"/>
<path class="st14" d="M16,2.9v7c-0.9,0-1.7,0.2-2.3,0.5L11,4C12.5,3.3,14.3,2.9,16,2.9z"/>
<path class="st15" d="M11.8,11.8c-0.6,0.6-1,1.2-1.3,2L3.9,11c0.7-1.6,1.6-3,2.8-4.2L11.8,11.8z"/>
</svg>
