<?xml version="1.0" encoding="utf-8"?>
<!-- Generator: Adobe Illustrator 19.2.1, SVG Export Plug-In . SVG Version: 6.00 Build 0)  -->
<svg version="1.1" id="Layer_1" xmlns="http://www.w3.org/2000/svg" xmlns:xlink="http://www.w3.org/1999/xlink" x="0px" y="0px"
	 viewBox="0 0 32 32" style="enable-background:new 0 0 32 32;" xml:space="preserve">
<style type="text/css">
	.st0{fill:#C3CDD6;}
</style>
<g>
	<path class="st0" d="M5.1,1.7C4.8,1.7,4.5,2,4.5,2.4v27.2c0,0.4,0.2,0.6,0.5,0.6h22c0.3,0,0.5-0.3,0.5-0.6V2.4
		c0-0.4-0.2-0.6-0.5-0.6H5.1z M27.4,31.2H4.6c-0.6,0-1.1-0.6-1.1-1.3V2.2c0-0.7,0.5-1.3,1.1-1.3h22.8c0.6,0,1.1,0.6,1.1,1.3v27.7
		C28.5,30.6,28,31.2,27.4,31.2z"/>
	<g>
		<path class="st0" d="M23.3,22.4H8.6c-0.3,0-0.5-0.2-0.5-0.5s0.2-0.5,0.5-0.5h14.7c0.3,0,0.5,0.2,0.5,0.5S23.6,22.4,23.3,22.4z"/>
		<path class="st0" d="M20.3,24.8h-8.7c-0.1,0-0.2-0.2-0.2-0.4c0-0.2,0.1-0.4,0.2-0.4h8.7c0.1,0,0.2,0.2,0.2,0.4
			C20.5,24.6,20.5,24.8,20.3,24.8z"/>
		<path class="st0" d="M18.1,14.8c0.1,0.1,0.1,0.2,0,0.3c0,0-0.1,0-0.2,0c0,0-0.1,0-0.2,0l-1.8-1.8l-1.8,1.8c0,0-0.1,0-0.2,0
			c0,0-0.1,0-0.2,0c-0.1-0.1-0.1-0.2,0-0.3l1.8-1.8l-1.8-1.8c-0.1-0.1-0.1-0.2,0-0.3c0.1-0.1,0.2-0.1,0.3,0l1.8,1.8l1.8-1.8
			c0.1-0.1,0.2-0.1,0.3,0c0.1,0.1,0.1,0.2,0,0.3L16.2,13L18.1,14.8z M16,7.7c-2.9,0-5.3,2.3-5.3,5.3c0,1.4,0.5,2.8,1.6,3.7
			c1,1,2.3,1.6,3.7,1.6c2.9,0,5.3-2.3,5.3-5.3C21.2,10.1,18.9,7.7,16,7.7z"/>
	</g>
</g>
</svg>
