<?xml version="1.0" encoding="utf-8"?>
<!-- Generator: Adobe Illustrator 19.2.1, SVG Export Plug-In . SVG Version: 6.00 Build 0)  -->
<svg version="1.1" id="Layer_1" xmlns="http://www.w3.org/2000/svg" xmlns:xlink="http://www.w3.org/1999/xlink" x="0px" y="0px"
	 viewBox="0 0 32 32" style="enable-background:new 0 0 32 32;" xml:space="preserve">
<style type="text/css">
	.st0{fill:#9E9E9E;}
</style>
<path class="st0" d="M1.5,9h1v17c0,0.6,0.4,1,1,1h3v1c0,0.6,0.4,1,1,1h4c0.6,0,1-0.4,1-1v-4c0-0.6-0.4-1-1-1h-4c-0.6,0-1,0.4-1,1v1
	h-2v-8h2v1c0,0.6,0.4,1,1,1h4c0.6,0,1-0.4,1-1v-4c0-0.6-0.4-1-1-1h-4c-0.6,0-1,0.4-1,1v1h-2V9h1c0.6,0,1-0.4,1-1V4c0-0.6-0.4-1-1-1
	h-4c-0.6,0-1,0.4-1,1v4C0.5,8.6,1,9,1.5,9L1.5,9z"/>
<g id="Layer_2">
	<path class="st0" d="M11.5,7h14c0.6,0,1-0.4,1-1s-0.4-1-1-1h-14c-0.6,0-1,0.4-1,1S11,7,11.5,7z"/>
	<path class="st0" d="M15,16c0,0.6,0.4,1,1,1h14c0.6,0,1-0.4,1-1c0-0.6-0.4-1-1-1H16C15.4,15,15,15.4,15,16z"/>
	<path class="st0" d="M30,25H16c-0.6,0-1,0.4-1,1c0,0.6,0.4,1,1,1h14c0.6,0,1-0.4,1-1C31,25.4,30.6,25,30,25z"/>
</g>
</svg>
