<?xml version="1.0" encoding="utf-8"?>
<!-- Generator: Adobe Illustrator 19.2.1, SVG Export Plug-In . SVG Version: 6.00 Build 0)  -->
<svg version="1.1" id="Capa_1" xmlns="http://www.w3.org/2000/svg" xmlns:xlink="http://www.w3.org/1999/xlink" x="0px" y="0px"
	 viewBox="0 0 32 32" style="enable-background:new 0 0 32 32;" xml:space="preserve">
<style type="text/css">
	.st0{fill:#009DDC;}
	.st1{fill:#F16730;}
</style>
<g>
	<g>
		<g>
			<path class="st0" d="M19.8,25.3H4.8V3.9h14.9v1.6h2v-2c0-1.9-1.6-3.5-3.5-3.5H6.3C4.4,0,2.8,1.6,2.8,3.5v25
				c0,1.9,1.6,3.5,3.5,3.5h11.9c1.9,0,3.5-1.6,3.5-3.5v-3.2L19.8,25.3C19.8,25.3,19.8,25.3,19.8,25.3z M12.3,30.3
				c-0.9,0-1.6-0.7-1.6-1.6s0.7-1.6,1.6-1.6c0.9,0,1.6,0.7,1.6,1.6C13.9,29.6,13.2,30.3,12.3,30.3z"/>
			<rect x="6.5" y="6.1" class="st0" width="4.5" height="2.7"/>
			<rect x="6.5" y="13.1" class="st0" width="4.5" height="2.7"/>
			<rect x="6.5" y="20.4" class="st0" width="4.5" height="2.7"/>
			<path class="st1" d="M26.9,14.3c-0.2-0.8-0.5-1.6-0.9-2.3l1.6-1.6l-1.6-1.6l-1.6,1.6c-0.7-0.5-1.4-0.8-2.3-0.9V7.1h-2.3v2.3
				c-0.8,0.2-1.6,0.5-2.3,0.9l-1.6-1.6l-1.6,1.6l1.6,1.6c-0.5,0.7-0.8,1.4-0.9,2.3h-2.3v2.3h2.3c0.2,0.8,0.5,1.6,0.9,2.3l-1.6,1.6
				l1.6,1.6l1.6-1.6c0.7,0.5,1.4,0.8,2.3,0.9v2.3h2.3v-2.3c0.8-0.2,1.6-0.5,2.3-0.9l1.6,1.6l1.6-1.6L26,18.8
				c0.5-0.7,0.8-1.4,0.9-2.3h2.3l0,0v-2.3L26.9,14.3L26.9,14.3z M20.9,17.9c-1.4,0-2.5-1.1-2.5-2.5s1.1-2.5,2.5-2.5s2.5,1.1,2.5,2.5
				C23.4,16.8,22.3,17.9,20.9,17.9z"/>
		</g>
	</g>
</g>
</svg>
