<?xml version="1.0" encoding="utf-8"?>
<!-- Generator: Adobe Illustrator 19.2.1, SVG Export Plug-In . SVG Version: 6.00 Build 0)  -->
<svg version="1.1" id="Layer_1" xmlns="http://www.w3.org/2000/svg" xmlns:xlink="http://www.w3.org/1999/xlink" x="0px" y="0px"
	 viewBox="0 0 32 32" style="enable-background:new 0 0 32 32;" xml:space="preserve">
<style type="text/css">
	.st0{fill:#009DDC;}
	.st1{fill:#F68E1E;}
</style>
<g id="Forma_1_copy_9">
	<g>
		<path class="st0" d="M25.6,22.4v7.7H6.5v-7.2H4.9v7.7c0,0.7,0.5,1.2,1.2,1.2h19.8c0.7,0,1.2-0.5,1.2-1.2v-8.1l-7.2,0.2L25.6,22.4
			L25.6,22.4z M6.3,22.4L6.3,22.4H20H6.3z M6.3,12.2h19.1l0,0H6.3L6.3,12.2z M27,8c0-0.2,0-0.2,0-0.5l-5.8-7.2l0,0c0,0,0,0-0.2,0
			l0,0c0,0,0,0-0.2,0l0,0c0,0,0,0-0.2,0H6c-0.7,0-1.2,0.5-1.2,1.2v10.7h1.6V1.7h13.3V7c0,0.5,0.2,0.7,0.7,0.7h5.4v4.4H27L27,8L27,8z
			"/>
	</g>
</g>
<g id="Forma_1_8_">
	<g>
		<path class="st1" d="M28.4,12.2h-1.6H4.6H3.5c-0.9,0-1.6,0.9-1.6,1.6v6.8c0,0.9,0.9,1.6,1.6,1.6h1.2l0,0c0.2,0.2,0.9,0,1.2,0h19.8
			c0.5,0,0.9,0,1.2,0l0,0h1.2c0.9,0,1.6-0.9,1.6-1.6V14C30,13.1,29.3,12.2,28.4,12.2z M19.1,21h-1.9c-0.5,0-0.9-0.2-1.2-0.5l0.2-1.2
			c0.5,0.2,1.2,0.5,1.6,0.5c0.7,0,1.2-0.2,1.2-0.9c0-0.5-0.5-0.7-1.2-1.2c-1.2-0.5-2.1-1.2-2.1-2.1c0-1.2,1.2-2.1,2.6-2.1
			c0.9,0,1.2,0.2,1.6,0.5l-0.5,1.2c-0.2-0.2-0.9-0.5-1.6-0.5c-0.7,0-1.2,0.2-1.2,0.7c0,0.5,0.5,0.7,1.2,1.2c1.2,0.5,1.6,1.2,1.6,2.1
			C20.9,20.1,20.5,20.8,19.1,21z M15.3,19.6v1.6h-4.4V14h1.6v6.1L15.3,19.6L15.3,19.6z M4.4,21l1.9-3.5l-1.9-4H6l0.7,1.6
			c0.2,0.5,0.5,0.9,0.5,1.2l0,0c0.2-0.5,0.2-0.9,0.5-1.2l0.7-1.6H10l-1.9,4l2.1,3.7H8.6l-0.7-1.2c-0.2-0.5-0.5-0.9-0.7-1.2l0,0
			C7,19.4,7,19.8,6.5,20.1l-0.7,1.2H4.2L4.4,21L4.4,21z M26,21L26,21l-0.7-1.2c-0.2-0.5-0.5-0.9-0.7-1.2l0,0
			c-0.2,0.5-0.2,0.9-0.7,1.2L23.3,21h-1.4l1.9-3.5l-1.9-4h1.6l0.7,1.6c0.2,0.5,0.5,0.9,0.5,1.2l0,0c0.2-0.5,0.2-0.9,0.5-1.2l0.7-1.6
			h1.6l-2.1,4l2.1,3.7h-1.6V21H26z"/>
	</g>
</g>
</svg>
