<?xml version="1.0" encoding="utf-8"?>
<!-- Generator: Adobe Illustrator 19.2.1, SVG Export Plug-In . SVG Version: 6.00 Build 0)  -->
<svg version="1.1" id="Capa_1" xmlns="http://www.w3.org/2000/svg" xmlns:xlink="http://www.w3.org/1999/xlink" x="0px" y="0px"
	 viewBox="0 0 32 32" style="enable-background:new 0 0 32 32;" xml:space="preserve">
<style type="text/css">
	.st0{fill:#009DDC;}
</style>
<g>
	<g id="data_1_">
		<path class="st0" d="M16,3.1c-5.4,0-11.2,1.6-11.2,5.2v15.2c0,3.6,5.8,5.2,11.2,5.2s11.2-1.6,11.2-5.2V8.3
			C27.2,4.8,21.4,3.1,16,3.1z M25.6,23.5c0,2-4.3,3.6-9.6,3.6s-9.6-1.6-9.6-3.6v-3C8,22.2,12,23.1,16,23.1s8-0.9,9.6-2.6V23.5z
			 M25.6,18.7L25.6,18.7C25.6,18.7,25.6,18.8,25.6,18.7c0,2-4.3,3.6-9.6,3.6s-9.6-1.6-9.6-3.6l0,0l0,0v-3C8,17.4,12,18.3,16,18.3
			s8-0.9,9.6-2.6V18.7z M25.6,13.9L25.6,13.9C25.6,14,25.6,14,25.6,13.9c0,2-4.3,3.7-9.6,3.7S6.4,15.9,6.4,14l0,0l0,0v-2.8
			c2.1,1.6,5.9,2.4,9.6,2.4s7.5-0.7,9.6-2.4V13.9z M16,12c-5.3,0-9.6-1.6-9.6-3.6s4.3-3.7,9.6-3.7s9.6,1.6,9.6,3.6S21.3,12,16,12z"
			/>
		<circle class="st0" cx="23.2" cy="23.9" r="0.8"/>
		<circle class="st0" cx="23.2" cy="19.1" r="0.8"/>
		<circle class="st0" cx="23.2" cy="14.3" r="0.8"/>
	</g>
</g>
</svg>
