<?xml version="1.0" encoding="utf-8"?>
<!-- Generator: Adobe Illustrator 19.2.1, SVG Export Plug-In . SVG Version: 6.00 Build 0)  -->
<svg version="1.1" xmlns="http://www.w3.org/2000/svg" xmlns:xlink="http://www.w3.org/1999/xlink" x="0px" y="0px"
	 viewBox="0 0 32 32" style="enable-background:new 0 0 32 32;" xml:space="preserve">
<style type="text/css">
	.st0{enable-background:new    ;}
	.st1{fill-rule:evenodd;clip-rule:evenodd;fill:#00A3D7;}
	.st2{fill:#FFFFFF;}
</style>
<g id="Rounded_Rectangle_9_copy_1_" class="st0">
	<g id="Rounded_Rectangle_9_copy">
		<g>
			<path class="st1" d="M30.2,0H1.8C0.8,0,0,0.8,0,1.8v28.4c0,1,0.8,1.8,1.8,1.8h28.3c1,0,1.8-0.8,1.8-1.8V1.8C32,0.8,31.2,0,30.2,0
				z"/>
		</g>
	</g>
	<g id="full_access_copy">
		<g>
			<path class="st2" d="M16,5.2C10,5.2,5.2,10,5.2,16S10,26.8,16,26.8S26.8,22,26.8,16S22,5.2,16,5.2z M16,25.1
				c-5,0-9.1-4.1-9.1-9.1S11,6.9,16,6.9s9.1,4.1,9.1,9.1S21,25.1,16,25.1z M19.4,12.6l-5,5l-1.9-1.9c-0.3-0.3-0.9-0.3-1.2,0
				c-0.3,0.3-0.3,0.9,0,1.2l2.5,2.5c0.1,0.1,0.4,0.3,0.6,0.3s0.4-0.1,0.6-0.3l5.7-5.7c0.3-0.3,0.3-0.9,0-1.2S19.8,12.2,19.4,12.6z"
				/>
		</g>
	</g>
</g>
<g id="Forma_1_1_" class="st0">
</g>
</svg>
