<?xml version="1.0" encoding="utf-8"?>
<!-- Generator: Adobe Illustrator 19.2.1, SVG Export Plug-In . SVG Version: 6.00 Build 0)  -->
<svg version="1.1" xmlns="http://www.w3.org/2000/svg" xmlns:xlink="http://www.w3.org/1999/xlink" x="0px" y="0px"
	 viewBox="0 0 32 32" style="enable-background:new 0 0 32 32;" xml:space="preserve">
<style type="text/css">
	.st0{enable-background:new    ;}
	.st1{fill:#9E9E9E;}
</style>
<g id="Rectangle_1_1_" class="st0">
</g>
<g id="Rectangle_1_copy_2_1_" class="st0">
</g>
<g id="Rectangle_1_copy_1_" class="st0">
</g>
<g id="Rectangle_1_copy_4_1_" class="st0">
</g>
<g id="Rectangle_1_copy_3_1_" class="st0">
	<g>
		<g id="Rectangle_1">
			<g>
				<path class="st1" d="M20.7,5.5v3.9H2.5V5.5H20.7 M21.7,4.5H1.5v5.9h20.3V4.5L21.7,4.5z"/>
			</g>
		</g>
		<g id="Rectangle_1_copy_2">
			<g>
				<path class="st1" d="M29.5,22.6v3.9H11.3v-3.9H29.5 M30.5,21.6H10.3v5.9h20.3V21.6L30.5,21.6z"/>
			</g>
		</g>
		<g id="Rectangle_1_copy">
			<g>
				<path class="st1" d="M7.7,13v13.5H2.5V13H7.7 M8.7,12H1.5v15.5h7.2V12L8.7,12z"/>
			</g>
		</g>
		<g id="Rectangle_1_copy_4">
			<g>
				<path class="st1" d="M20.8,13v6h-9.5v-6H20.8 M21.8,12H10.2v8h11.5V12L21.8,12z"/>
			</g>
		</g>
		<g id="Rectangle_1_copy_3">
			<g>
				<path class="st1" d="M29.5,5.5V19h-5.2V5.5H29.5 M30.5,4.5h-7.2V20h7.2V4.5L30.5,4.5z"/>
			</g>
		</g>
	</g>
</g>
</svg>
