<?xml version="1.0" encoding="utf-8"?>
<!-- Generator: Adobe Illustrator 19.2.1, SVG Export Plug-In . SVG Version: 6.00 Build 0)  -->
<svg version="1.1" id="Layer_1" xmlns="http://www.w3.org/2000/svg" xmlns:xlink="http://www.w3.org/1999/xlink" x="0px" y="0px"
	 viewBox="0 0 32 32" style="enable-background:new 0 0 32 32;" xml:space="preserve">
<style type="text/css">
	.st0{fill:#2C7DA9;}
</style>
<path class="st0" d="M22.3,0H9.6C8.5,0,7.4,1.1,7.4,2.4v27.2c0,1.5,1.1,2.4,2.2,2.4h12.8c1.1,0,2.2-1.1,2.2-2.4V2.4
	C24.5,1.1,23.6,0,22.3,0z M13,1.5h6.3c0.2,0,0.2,0.2,0.2,0.6c0,0.4-0.2,0.6-0.2,0.6H13c-0.2,0-0.2-0.2-0.2-0.6
	C12.8,1.7,12.8,1.6,13,1.5z M16.1,29.6c-0.9,0-1.5-0.6-1.5-1.5c0-0.9,0.6-1.5,1.5-1.5s1.5,0.6,1.5,1.5C17.6,29,16.7,29.6,16.1,29.6z
	 M22.8,24.6H8.7v-21h14.1V24.6z"/>
</svg>
