<?xml version="1.0" encoding="utf-8"?>
<!-- Generator: Adobe Illustrator 19.2.1, SVG Export Plug-In . SVG Version: 6.00 Build 0)  -->
<svg version="1.1" id="Layer_1" xmlns="http://www.w3.org/2000/svg" xmlns:xlink="http://www.w3.org/1999/xlink" x="0px" y="0px"
	 viewBox="0 0 24 24" style="enable-background:new 0 0 24 24;" xml:space="preserve">
<style type="text/css">
	.st0{fill:url(#XMLID_2_);}
	.st1{fill:url(#XMLID_3_);}
	.st2{fill:url(#XMLID_4_);}
</style>
<g id="XMLID_13_">
	
		<linearGradient id="XMLID_2_" gradientUnits="userSpaceOnUse" x1="12" y1="-332.273" x2="12" y2="-351.632" gradientTransform="matrix(1 0 0 1 0 354)">
		<stop  offset="0" style="stop-color:#E09B3D"/>
		<stop  offset="0.3" style="stop-color:#C74C4D"/>
		<stop  offset="0.6" style="stop-color:#C21975"/>
		<stop  offset="1" style="stop-color:#7024C4"/>
	</linearGradient>
	<path id="XMLID_17_" class="st0" d="M16,2.2H8C4.8,2.2,2.2,4.8,2.2,8V16c0,3.2,2.6,5.8,5.8,5.8H16c3.2,0,5.8-2.6,5.8-5.8V8
		C21.8,4.8,19.2,2.2,16,2.2z M19.8,16c0,2.1-1.7,3.9-3.9,3.9H8c-2.1,0-3.9-1.7-3.9-3.9V8c0-2.1,1.7-3.9,3.9-3.9H16
		c2.1,0,3.9,1.7,3.9,3.9L19.8,16L19.8,16z"/>
	
		<linearGradient id="XMLID_3_" gradientUnits="userSpaceOnUse" x1="12" y1="-332.273" x2="12" y2="-351.632" gradientTransform="matrix(1 0 0 1 0 354)">
		<stop  offset="0" style="stop-color:#E09B3D"/>
		<stop  offset="0.3" style="stop-color:#C74C4D"/>
		<stop  offset="0.6" style="stop-color:#C21975"/>
		<stop  offset="1" style="stop-color:#7024C4"/>
	</linearGradient>
	<path id="XMLID_81_" class="st1" d="M12,6.9c-2.8,0-5.1,2.3-5.1,5.1s2.3,5.1,5.1,5.1s5.1-2.3,5.1-5.1S14.8,6.9,12,6.9z M12,15.1
		c-1.7,0-3.1-1.4-3.1-3.1s1.4-3.1,3.1-3.1c1.7,0,3.1,1.4,3.1,3.1C15.1,13.7,13.7,15.1,12,15.1z"/>
	
		<linearGradient id="XMLID_4_" gradientUnits="userSpaceOnUse" x1="17.0706" y1="-332.273" x2="17.0706" y2="-351.632" gradientTransform="matrix(1 0 0 1 0 354)">
		<stop  offset="0" style="stop-color:#E09B3D"/>
		<stop  offset="0.3" style="stop-color:#C74C4D"/>
		<stop  offset="0.6" style="stop-color:#C21975"/>
		<stop  offset="1" style="stop-color:#7024C4"/>
	</linearGradient>
	<circle id="XMLID_83_" class="st2" cx="17.1" cy="7" r="1.2"/>
</g>
</svg>
