<?xml version="1.0" encoding="utf-8"?>
<!-- Generator: Adobe Illustrator 19.2.1, SVG Export Plug-In . SVG Version: 6.00 Build 0)  -->
<svg version="1.1" id="_x32__1_" xmlns="http://www.w3.org/2000/svg" xmlns:xlink="http://www.w3.org/1999/xlink" x="0px" y="0px"
	 viewBox="0 0 63 104" style="enable-background:new 0 0 63 104;" xml:space="preserve">
<style type="text/css">
	.st0{fill-rule:evenodd;clip-rule:evenodd;fill:#CEF0FD;}
	.st1{fill-rule:evenodd;clip-rule:evenodd;fill:#80DEFA;}
	.st2{fill-rule:evenodd;clip-rule:evenodd;fill:#4ACAF0;}
	.st3{fill-rule:evenodd;clip-rule:evenodd;fill:#0AC8F3;}
	.st4{fill-rule:evenodd;clip-rule:evenodd;fill:#80DDF9;}
	.st5{fill-rule:evenodd;clip-rule:evenodd;fill:#F9F9F9;}
	.st6{opacity:0.502;}
	.st7{fill-rule:evenodd;clip-rule:evenodd;fill:#384D5C;}
	.st8{fill:none;stroke:#C6C6C6;stroke-width:0.3;stroke-miterlimit:10;}
</style>
<g id="Rounded_Rectangle_2_copy_3">
	<g>
		<rect x="0" y="44.3" class="st0" width="21" height="30"/>
	</g>
</g>
<g id="Rounded_Rectangle_2_copy_5">
	<g>
		<rect x="21" y="44.3" class="st0" width="21" height="30"/>
	</g>
</g>
<g id="Rounded_Rectangle_2_copy_6">
	<g>
		<rect x="42" y="44.3" class="st1" width="21" height="30"/>
	</g>
</g>
<g id="Rounded_Rectangle_2_copy_7">
	<g>
		<path class="st2" d="M0,73.8v21.5c0,4.7,3.8,8.5,8.5,8.5H21v-30H0z"/>
	</g>
</g>
<g id="Rounded_Rectangle_2_copy_7_1_">
	<g>
		<rect x="21" y="73.8" class="st3" width="21" height="30"/>
	</g>
</g>
<g id="Rounded_Rectangle_2_copy_7_2_">
	<g>
		<path class="st4" d="M42,73.8v30h12.5c4.7,0,8.5-3.8,8.5-8.5V73.8H42z"/>
	</g>
</g>
<g id="Rounded_Rectangle_2_copy_4">
	<g>
		<path class="st5" d="M54.5,0.4h-46C3.8,0.4,0,4.2,0,8.9v35.9h63V8.9C63,4.2,59.2,0.4,54.5,0.4z"/>
	</g>
</g>
<g id="Rounded_Rectangle_2_copy_4_2_">
	<g>
		<path class="st5" d="M54.5,0.4h-46C3.8,0.4,0,4.2,0,8.9v35.9h63V8.9C63,4.2,59.2,0.4,54.5,0.4z"/>
	</g>
</g>
<g id="Rectangle_1" class="st6">
	<g>
		<path class="st7" d="M45.8,10.1V11h7.9v-0.9H45.8z M45.8,13.8h7.9v-0.9h-7.9V13.8z M45.8,16.6h7.9v-0.9h-7.9V16.6z"/>
	</g>
</g>
<line class="st8" x1="0" y1="44.7" x2="63" y2="44.7"/>
</svg>
