<?xml version="1.0" encoding="utf-8"?>
<!-- Generator: Adobe Illustrator 19.2.1, SVG Export Plug-In . SVG Version: 6.00 Build 0)  -->
<svg version="1.1" id="Layer_1" xmlns="http://www.w3.org/2000/svg" xmlns:xlink="http://www.w3.org/1999/xlink" x="0px" y="0px"
	 viewBox="0 0 32 32" style="enable-background:new 0 0 32 32;" xml:space="preserve">
<style type="text/css">
	.st0{fill:#7F7F7F;}
	.st1{fill:url(#SVGID_1_);}
</style>
<g transform="matrix(.569 0 0 .569 199.451 -82.735)">
	<path class="st0" d="M-315.4,171.6l-9.9,3.2l-8.6,3.8l-2.4,0.6c-0.6,0.6-1.3,1.2-2,1.8c-0.8,0.7-1.5,1.3-2,1.7
		c-0.6,0.5-1.5,1.4-2,2c-0.7,0.9-1.2,1.8-1.5,2.5c-0.4,1.3-0.2,2.5,0.6,3.7c1,1.5,3.1,3,5.4,4.1c1.2,0.5,3.2,1.2,4.8,1.6
		c2.5,0.6,7.5,1.3,10.2,1.4c0.5,0,1.3,0,1.3,0c0.1,0,0.5-0.8,1-1.8c1.7-3.4,2.9-6.6,3.5-9.3c0.4-1.7,0.7-3.9,0.9-6.5
		c0.1-0.7,0.1-3.2,0-4c-0.1-1.4-0.2-2.4-0.4-3.5c0-0.2,0-0.3,0-0.3c0,0,0.1-0.1,1.3-0.4L-315.4,171.6L-315.4,171.6L-315.4,171.6
		L-315.4,171.6z M-317.7,172.9c0.1,0,0.3,2.3,0.4,3.8c0,0.3,0,0.5,0,0.5c-0.1,0-1.3-0.7-2.1-1.3c-0.8-0.5-2.2-1.4-2.4-1.6
		c-0.1-0.1-0.1-0.1,0.5-0.3C-320.2,173.7-317.7,172.9-317.7,172.9z M-322.7,174.6c0.1,0,0.2,0.1,0.7,0.4c1.5,1,3.6,2.1,4.6,2.5
		c0.3,0.1,0.3,0.1-0.3,0.5c-1.4,0.9-3.1,1.8-5.2,2.8c-0.4,0.2-0.7,0.3-0.7,0.3c0,0,0-0.2,0.1-0.4c0.5-1.9,0.8-3.8,0.8-5.3
		C-322.8,174.6-322.8,174.6-322.7,174.6C-322.7,174.6-322.7,174.6-322.7,174.6L-322.7,174.6z M-323.8,175c0,0,0,1.7,0,2.2
		c-0.1,1.1-0.3,2.1-0.7,3.3c-0.1,0.3-0.2,0.5-0.2,0.5c0,0-1.1-1-1.4-1.4c-0.6-0.7-1-1.4-1.4-2c-0.2-0.3-0.4-1-0.4-1
		C-327.8,176.5-323.8,175-323.8,175L-323.8,175z M-328.7,176.9C-328.7,176.9-328.7,176.9-328.7,176.9c0,0,0.1,0.1,0.1,0.3
		c0.2,0.7,0.8,1.6,1.2,2.2c0.5,0.7,1.2,1.4,1.7,1.9c0.2,0.2,0.3,0.3,0.4,0.3c0,0,0.1,0-1.2,0.5c-1.4,0.5-3,1.1-4.7,1.7
		c-0.4,0.1-0.8,0.3-1.3,0.4c-0.1,0,0,0,0.2-0.3c0.9-1.4,2.2-4.1,3-6c0.1-0.3,0.3-0.7,0.3-0.7c0-0.1,0.1-0.1,0.2-0.2
		C-328.8,176.9-328.7,176.9-328.7,176.9L-328.7,176.9z M-330.2,177.6c0,0-0.4,0.8-0.7,1.6c-0.7,1.4-1.5,2.8-2.6,4.5
		c-0.2,0.3-0.4,0.6-0.4,0.6c0,0.1-0.1,0-0.2-0.2c-0.3-0.5-0.5-1.1-0.6-1.7c-0.1-0.6-0.1-1.6,0-2.2c0.1-0.5,0.1-0.5,0.3-0.6
		C-333.3,179-330.2,177.5-330.2,177.6L-330.2,177.6z M-317.2,178.1v0.3c0,1.7-0.2,4-0.4,5.6c0,0.3-0.1,0.5-0.1,0.5
		c0,0-0.2-0.1-0.5-0.1c-1.1-0.4-2.4-0.9-3.5-1.5c-0.7-0.4-1.8-1.1-1.8-1.1c0,0,0.3-0.2,0.7-0.4c1.5-0.8,2.9-1.6,4.1-2.4
		c0.5-0.3,1.1-0.8,1.3-0.9L-317.2,178.1L-317.2,178.1z M-335.9,180.3c0,0,0,0.1,0,0.3c0,0.2-0.1,0.6-0.1,0.8c-0.1,1.1,0.1,1.9,0.7,3
		c0.2,0.3,0.3,0.6,0.3,0.6c-0.1,0-5,1.5-6.6,1.9c-0.5,0.1-0.9,0.2-0.9,0.2c-0.1,0-0.1,0,0-0.1c0.2-1.1,1-2.5,2.2-3.8
		c0.8-0.8,1.4-1.3,2.5-1.9C-337.1,181-336,180.3-335.9,180.3C-335.9,180.3-335.9,180.3-335.9,180.3L-335.9,180.3z M-324.1,182.4
		c0,0,0.2,0.1,0.4,0.2c1.6,0.9,3.8,1.8,5.8,2.2l0.2,0l-0.2,0.1c-1,0.6-4.3,1.9-7.6,3.2c-0.5,0.2-1,0.4-1.1,0.4
		c-0.1,0-0.2,0.1-0.2,0.1c0,0,0.1-0.3,0.3-0.6c0.9-1.8,1.9-3.9,2.4-5.4C-324.2,182.5-324.1,182.4-324.1,182.4L-324.1,182.4z
		 M-325.3,182.8c0,0-0.1,0.2-0.1,0.3c-0.7,1.6-1.5,3.3-2.6,5.2c-0.3,0.5-0.5,0.9-0.5,0.9c0,0-0.2-0.1-0.5-0.3c-1.6-1-3-2.2-3.9-3.3
		l-0.1-0.2l0.7-0.2c2.4-0.7,4.5-1.4,6.6-2.3C-325.6,182.9-325.3,182.8-325.3,182.8z M-317.9,185.4
		C-317.9,185.4-317.9,185.4-317.9,185.4c0,0.2-0.4,1.7-0.7,2.8c-0.3,0.9-0.5,1.7-0.9,3c-0.2,0.6-0.3,1-0.3,1c0,0-0.1,0-0.1,0
		c-2.2-0.4-4.2-1-6.1-1.7c-0.5-0.2-1.3-0.5-1.3-0.6c0,0,0.4-0.2,1-0.5c3.4-1.5,7-3.2,8.2-3.9C-318,185.4-317.9,185.4-317.9,185.4
		L-317.9,185.4z M-335,186c0,0-0.9,1.4-2.3,3.3c-0.5,0.7-1,1.4-1.2,1.7c-0.2,0.3-0.5,0.7-0.7,1l-0.3,0.5l-0.3-0.3
		c-0.4-0.3-1.1-1-1.4-1.4c-0.6-0.8-1.1-1.7-1.3-2.4c-0.1-0.4-0.1-0.5,0-0.6c0.1,0,2.1-0.5,4-0.9c1-0.2,2.3-0.5,2.7-0.6
		C-335.4,186-335,186-335,186L-335,186z M-334.1,186.3l0.2,0.3c1.1,1.2,2.2,2.1,3.5,2.9c0.2,0.1,0.4,0.3,0.4,0.3
		c-0.1,0-4.6,1.7-6.8,2.4c-1.2,0.4-2.2,0.8-2.2,0.8c0,0-0.1,0-0.2-0.1l-0.1-0.1l0.2-0.3c0.7-1,1.6-2.1,3.5-4.5L-334.1,186.3
		L-334.1,186.3z M-328.1,190.6c0,0,0.3,0.1,0.7,0.3c1,0.4,1.7,0.6,2.8,0.9c1.3,0.3,3.1,0.6,4.2,0.7c0.2,0,0.3,0,0.2,0.1
		c-0.1,0-1.2,0.4-2,0.7c-1.3,0.4-5.2,1.6-8.4,2.5c-0.6,0.2-1.1,0.3-1.1,0.3c-0.1,0-0.3-0.1-0.3-0.1c0,0,0.2-0.2,0.4-0.5
		c1.1-1.3,2.2-2.7,3-4.1C-328.3,190.9-328.1,190.6-328.1,190.6L-328.1,190.6z M-329.4,190.7c0,0-0.5,0.9-1.5,2.3
		c-0.4,0.6-0.8,1.3-1,1.6c-0.2,0.2-0.4,0.6-0.5,0.8l-0.2,0.4l-0.1,0c-0.3-0.1-2.2-0.7-2.7-0.9c-0.6-0.2-1.3-0.5-1.7-0.8
		c-0.6-0.3-1.4-0.8-1.3-0.8c0,0,1-0.3,2.3-0.6c3.3-0.9,5.1-1.4,6.3-1.8C-329.6,190.7-329.4,190.6-329.4,190.7L-329.4,190.7z
		 M-320.1,192.8L-320.1,192.8c0,0.1-1.2,3.5-1.6,4.5c-0.1,0.2-0.1,0.3-0.2,0.3c-0.1,0-1.9-0.3-3-0.4c-1.9-0.3-5-0.8-5.8-1l-0.2,0
		l1.1-0.3c2.4-0.5,3.6-0.8,4.7-1.2c1.5-0.5,2.9-1,4.4-1.7C-320.3,192.9-320.1,192.9-320.1,192.8L-320.1,192.8z"/>
	<path class="st0" d="M-325.6,148.4c-0.2,0-2.8,0.9-4.6,1.6c-2.3,0.9-4.1,1.8-5.2,2.6c-0.4,0.3-0.9,0.8-1,1c0,0.1,0,0.2,0,0.3l1,1
		l2.4,0.8l5.7,1l6.5,1.1l0.1-0.6c0,0,0,0-0.1,0l-0.9-0.1l-0.2-0.3c-0.9-1.6-1.9-3.5-2.4-4.8c-0.4-1-0.9-2.2-1.1-3
		C-325.5,148.5-325.6,148.5-325.6,148.4L-325.6,148.4L-325.6,148.4L-325.6,148.4z M-325.8,148.8L-325.8,148.8c0,0,0,0.2,0.1,0.5
		c0.1,1.1,0.4,2.1,0.7,3.2c0.3,0.8,0.3,0.8,0,0.7c-0.8-0.2-4.2-0.8-6.7-1.1c-0.4-0.1-0.7-0.1-0.7-0.1c0,0,1.8-1,2.6-1.4
		C-328.8,150-326,148.9-325.8,148.8L-325.8,148.8z M-333,152.2l0.3,0.1c1.6,0.5,5.6,1.3,7.8,1.5c0.2,0,0.5,0,0.5,0
		c0,0-0.2,0.1-0.5,0.2c-1.1,0.5-2.2,1.2-3,1.7c-0.2,0.2-0.5,0.3-0.5,0.3c0,0-0.2,0-0.4-0.1l-0.3,0l-0.8-0.7
		c-1.3-1.3-2.4-2.3-2.8-2.7L-333,152.2z M-333.3,152.4l1.1,1.3c0.6,0.7,1.2,1.4,1.3,1.6c0.1,0.2,0.2,0.3,0.2,0.3
		c0,0-1.5-0.3-2.3-0.5c-0.8-0.2-1.2-0.3-1.7-0.4l-0.4-0.1v-0.1C-335.1,154-334.5,153.3-333.3,152.4L-333.3,152.4L-333.3,152.4z
		 M-324.3,154.2c0,0,0.1,0.1,0.2,0.3c0.3,0.6,1.1,2.1,1.2,2.4c0.1,0.1,0.2,0.1-0.9-0.1c-2.5-0.4-3.4-0.5-3.4-0.6
		c0,0,0.1-0.1,0.2-0.1c0.8-0.4,1.6-1,2.3-1.6C-324.5,154.4-324.4,154.3-324.3,154.2C-324.3,154.2-324.3,154.2-324.3,154.2
		L-324.3,154.2z"/>
	
		<radialGradient id="SVGID_1_" cx="-1619.8495" cy="-10610.6953" r="18.3918" gradientTransform="matrix(-0.114 -1.712736e-02 3.463960e-02 -0.228 -139.0197 -2281.0642)" gradientUnits="userSpaceOnUse">
		<stop  offset="0" style="stop-color:#EF382D"/>
		<stop  offset="1" style="stop-color:#A91F24"/>
	</radialGradient>
	<path class="st1" d="M-336.4,153.6c0,0-0.2,0.3,0,0.7c0.1,0.2,0.4,0.5,0.7,0.8c0,0,3.3,3.3,3.7,3.7c1.8,2.1,2.7,4.2,2.7,7.1
		c0,1.9-0.3,3.5-1.2,5.4c-1.6,3.4-4.9,7.2-9.9,11.3l0.7-0.2c0.5-0.4,1.1-0.7,2.7-1.6c3.5-1.9,7.5-3.7,12.4-5.5
		c7-2.6,18.6-5.7,25.2-6.7l0.7-0.1l-0.1-0.2c-0.6-0.9-1-1.5-1.5-2.1c-1.4-1.8-3.2-3.2-5.3-4.4c-2.9-1.6-6.8-2.9-11.6-3.9
		c-0.9-0.2-2.9-0.5-4.5-0.8c-3.4-0.5-5.7-0.9-8.1-1.3c-0.9-0.2-2.2-0.4-3.1-0.6c-0.5-0.1-1.3-0.3-2-0.5
		C-335.4,154.5-336.2,154.3-336.4,153.6L-336.4,153.6z M-334.4,155.5c0,0,0.1,0,0.3,0.1c0.3,0.1,0.7,0.2,1.1,0.3
		c0.3,0.1,0.7,0.2,1,0.3c0.5,0.1,0.8,0.2,0.8,0.2c0.1,0.1,0.8,2.5,1.1,3.4c0.1,0.4,0.2,0.7,0.2,0.7c0,0-0.1-0.1-0.2-0.3
		c-0.9-1.5-2.3-3.1-3.9-4.4C-334.3,155.6-334.4,155.5-334.4,155.5L-334.4,155.5z M-330.8,156.5c0,0,0.2,0,0.4,0.1
		c1.3,0.3,3.6,0.7,5,1c0.2,0,0.4,0.1,0.4,0.1c0,0-0.1,0.1-0.2,0.1c-0.2,0.1-1.2,0.7-1.6,0.9c-0.8,0.6-1.6,1.2-2.1,1.7
		c-0.2,0.2-0.4,0.4-0.4,0.4s0-0.1-0.1-0.3c-0.3-1-0.8-2.6-1.3-3.7C-330.7,156.7-330.8,156.5-330.8,156.5
		C-330.8,156.5-330.8,156.5-330.8,156.5L-330.8,156.5z M-324.3,157.8c0,0,0.1,0.3,0.3,0.8c0.3,1.1,0.4,2.3,0.4,3.4
		c0,0.3,0,0.6,0,0.6l0,0.1l-0.4-0.1c-0.8-0.3-2.1-0.6-3.2-1c-0.6-0.2-1.2-0.3-1.2-0.3c0,0,0.9-1,1.3-1.3
		C-326.4,159.3-324.3,157.7-324.3,157.8L-324.3,157.8z M-323.7,157.8c0,0,3.1,0.5,4.5,0.8c1,0.2,2.6,0.5,2.7,0.6
		c0,0-0.1,0.1-0.6,0.3c-2,0.9-3.5,1.7-4.9,2.7c-0.4,0.3-0.7,0.5-0.7,0.5s0-0.2,0-0.5c0-1.4-0.3-2.9-0.8-4.1
		C-323.7,158-323.7,157.8-323.7,157.8z M-315.8,159.4c0,0-0.1,0.6-0.2,1c-0.3,1.1-1,2.8-1.9,4.3c-0.2,0.3-0.3,0.5-0.3,0.5
		c0,0-0.2-0.1-0.5-0.2c-0.9-0.5-1.9-1-2.9-1.4c-0.3-0.1-0.6-0.2-0.6-0.2c-0.1,0,2.4-1.6,3.6-2.4
		C-317.4,160.3-315.8,159.4-315.8,159.4L-315.8,159.4z M-315.2,159.5c0.1,0,1.4,0.4,2.1,0.6c1.8,0.5,3.8,1.3,5.1,1.9l0.5,0.2
		l-0.4,0.1c-3.2,0.7-6,1.6-8.7,2.7c-0.2,0.1-0.4,0.2-0.4,0.2c0,0,0.1-0.2,0.2-0.4c0.8-1.7,1.3-3.5,1.4-5
		C-315.2,159.6-315.2,159.5-315.2,159.5L-315.2,159.5z M-328.8,162.6c0,0,1.1,0.2,1.6,0.4c0.9,0.2,2.7,0.8,2.7,0.9
		c0,0-0.2,0.2-0.4,0.4c-1,0.8-1.9,1.7-3.1,2.8c-0.3,0.3-0.6,0.6-0.6,0.6c0,0,0,0,0-0.1c0.2-1.3,0.1-2.9-0.1-4.5
		C-328.8,162.8-328.8,162.6-328.8,162.6z M-306.9,162.6c0,0-0.5,0.8-0.8,1.2c-0.5,0.6-1.1,1.5-2.6,3.4c-0.8,1-1.7,2.1-2,2.5
		c-0.3,0.4-0.5,0.7-0.6,0.7c0,0-0.1-0.1-0.2-0.3c-0.8-1.3-1.8-2.4-3-3.4c-0.2-0.2-0.5-0.4-0.6-0.5c-0.1-0.1-0.2-0.1-0.2-0.1
		c0,0,1.3-0.6,2.2-1c1.7-0.7,4-1.5,5.7-2.1C-307.8,162.9-306.9,162.6-306.9,162.6L-306.9,162.6z M-306.3,162.8c0,0,0.2,0.1,0.4,0.2
		c1.8,1,3.6,2.4,5,3.8c0.4,0.4,1.4,1.4,1.4,1.4c0,0-0.3,0-0.8,0.1c-3.2,0.2-7.2,0.9-11.1,1.8c-0.3,0.1-0.5,0.1-0.5,0.1
		c0,0,0.3-0.3,0.6-0.6c2.3-2.2,3.3-3.6,4.6-6.1C-306.4,163.1-306.3,162.8-306.3,162.8C-306.3,162.8-306.3,162.8-306.3,162.8
		L-306.3,162.8z M-323,164.5c0.1,0,1.1,0.5,1.8,0.8c0.7,0.3,1.7,0.9,1.7,0.9c0,0-0.4,0.2-0.8,0.4c-1.4,0.7-2.6,1.4-3.9,2.1
		c-0.4,0.2-0.7,0.4-0.7,0.4c0,0,0,0,0.2-0.4c0.7-1.2,1.2-2.7,1.5-4.1C-323,164.6-323,164.5-323,164.5L-323,164.5z M-324,164.7
		c0,0-0.2,0.9-0.4,1.4c-0.3,1-0.8,2.1-1.3,3c-0.1,0.2-0.3,0.5-0.4,0.7l-0.2,0.3l-0.4-0.4c-0.5-0.5-0.9-0.8-1.4-1
		c-0.2-0.1-0.4-0.2-0.4-0.2c0-0.1,1.3-1.2,2.3-2.1C-325.5,165.9-324,164.7-324,164.7L-324,164.7z M-318,167.1l0.4,0.2
		c0.8,0.5,1.8,1.3,2.6,1.9c0.4,0.4,1.3,1.1,1.4,1.3l0.1,0.1l-0.6,0.2c-3.4,1-6.1,1.8-9.2,2.9c-0.3,0.1-0.6,0.2-0.7,0.2
		c0,0-0.1,0,0.7-0.7c2-1.8,3.7-3.8,5-5.8L-318,167.1L-318,167.1z M-319.6,167.5c0,0-1,1.5-1.6,2.3c-0.7,1-2,2.6-2.9,3.7
		c-0.4,0.4-0.7,0.8-0.7,0.8c0,0,0-0.1,0-0.3c0-0.9-0.2-1.9-0.6-2.7c-0.2-0.3-0.2-0.4-0.2-0.5c0.1-0.1,2.3-1.4,3.7-2.1
		C-321.1,168.3-319.6,167.5-319.6,167.5L-319.6,167.5z M-329.1,169.9c0,0,0.2,0.1,0.4,0.2c0.5,0.3,0.9,0.6,1.3,0.9
		c0,0-0.2,0.2-0.4,0.4c-0.7,0.5-1.8,1.3-2.4,1.8c-0.7,0.5-0.7,0.5-0.6,0.4c0.5-0.8,0.7-1.2,1-1.7c0.2-0.5,0.5-1.1,0.6-1.6
		C-329.2,170-329.1,169.9-329.1,169.9L-329.1,169.9z M-326.5,171.8c0,0,0.1,0.1,0.3,0.4c0.4,0.6,0.8,1.5,0.8,2.2l0,0.2l-1,0.4
		c-1.8,0.7-3.5,1.4-4.7,1.9c-0.3,0.2-0.9,0.4-1.3,0.6c-0.4,0.2-0.7,0.3-0.7,0.3s0.2-0.2,0.5-0.4c2.2-1.6,4.2-3.4,5.6-5.2
		C-326.7,172-326.6,171.9-326.5,171.8L-326.5,171.8L-326.5,171.8z M-327.7,172.1c0,0-0.8,1-1.4,1.6c-1.4,1.5-2.9,2.6-4.7,3.8
		c-0.2,0.1-0.4,0.3-0.5,0.3c-0.1,0,0,0,0.8-0.9c0.5-0.5,0.9-1,1.3-1.5c0.3-0.4,0.3-0.4,0.8-0.7
		C-330.3,173.8-327.7,172.1-327.7,172.1z"/>
</g>
</svg>
