<?xml version="1.0" encoding="utf-8"?>
<!-- Generator: Adobe Illustrator 19.2.1, SVG Export Plug-In . SVG Version: 6.00 Build 0)  -->
<svg version="1.1" xmlns="http://www.w3.org/2000/svg" xmlns:xlink="http://www.w3.org/1999/xlink" x="0px" y="0px"
	 viewBox="0 0 32 32" style="enable-background:new 0 0 32 32;" xml:space="preserve">
<style type="text/css">
	.st0{fill:none;}
	.st1{fill:#9E9E9E;}
</style>
<g id="Layer_1">
</g>
<g id="Layer_3">
	<g>
		<path class="st0" d="M5.8,18.4C4,19.7,2.9,21.3,2.9,23v5.9H14c-1.1-1.6-1.7-3.6-1.7-5.7c0-2.5,0.9-4.8,2.4-6.6
			c-0.5,0-1-0.1-1.5-0.1C10.3,16.4,7.6,17.2,5.8,18.4z"/>
		<path class="st0" d="M13.2,12c2.6,0,4.8-2.1,4.8-4.8c0-2.6-2.1-4.8-4.8-4.8S8.4,4.6,8.4,7.2C8.4,9.9,10.5,12,13.2,12z"/>
		<polygon points="13.2,14.9 13.2,14.9 13.2,14.9 		"/>
		<path class="st1" d="M13.2,13.4c3.4,0,6.2-2.8,6.2-6.2c0-3.4-2.8-6.2-6.2-6.2S6.9,3.8,6.9,7.2C6.9,10.7,9.7,13.4,13.2,13.4z
			 M13.2,2.5c2.6,0,4.8,2.1,4.8,4.8c0,2.6-2.1,4.8-4.8,4.8S8.4,9.9,8.4,7.2C8.4,4.6,10.5,2.5,13.2,2.5z"/>
		<path class="st1" d="M2.9,28.8V23c0-1.7,1-3.3,2.9-4.5c1.8-1.2,4.5-2,7.4-2c0.5,0,1,0,1.5,0.1c0.4-0.5,0.8-0.9,1.3-1.3
			c-0.9-0.2-1.9-0.2-2.8-0.2c-3.2,0-6,0.9-8.2,2.3c-2.1,1.4-3.5,3.5-3.5,5.8v6.6c0,0.4,0.3,0.7,0.7,0.7h13c-0.4-0.4-0.8-0.9-1.2-1.5
			H2.9z"/>
	</g>
</g>
<g id="Layer_2">
	<path class="st1" d="M22.5,14.9c-4.1,0-7.5,3.3-7.5,7.5s3.3,7.5,7.5,7.5s7.5-3.3,7.5-7.5S26.6,14.9,22.5,14.9z M26.1,20.8l-4.4,4.4
		c-0.1,0.1-0.3,0.2-0.5,0.2s-0.4-0.1-0.5-0.2l-2.2-2.2c-0.3-0.3-0.3-0.7,0-1c0.3-0.3,0.7-0.3,1,0l1.7,1.7l3.9-3.9
		c0.3-0.3,0.7-0.3,1,0C26.4,20.1,26.4,20.6,26.1,20.8L26.1,20.8z"/>
</g>
</svg>
