<?xml version="1.0" encoding="utf-8"?>
<!-- Generator: Adobe Illustrator 19.2.1, SVG Export Plug-In . SVG Version: 6.00 Build 0)  -->
<svg version="1.1" id="Layer_1" xmlns="http://www.w3.org/2000/svg" xmlns:xlink="http://www.w3.org/1999/xlink" x="0px" y="0px"
	 viewBox="0 0 32 32" style="enable-background:new 0 0 32 32;" xml:space="preserve">
<style type="text/css">
	.st0{fill:#808285;}
	.st1{fill:none;stroke:#009DDC;stroke-miterlimit:10;}
</style>
<path class="st0" d="M16,29C8.8,29,3,23.2,3,16S8.8,3,16,3s12.9,5.8,12.9,13C28.9,23,23.2,29,16,29z M16,3.7C9.2,3.7,3.8,9,3.8,15.8
	S9.2,27.9,16,27.9s12.2-5.4,12.2-12.2C28.2,9.2,22.8,3.7,16,3.7z"/>
<path class="st1" d="M21.9,21.5L17.7,9.3c-0.2-0.2-0.2-0.4-0.6-0.4H16h-0.2h-0.2h-1.1c-0.2,0-0.6,0.2-0.6,0.4L9.6,21.5
	c-0.2,0.2,0,0.4,0.2,0.6c0.2,0.2,0.2,0.2,0.6,0.2h1.8c0.2,0,0.6-0.2,0.6-0.4l0.9-3.1h4.7l0.6,3.3c0.2,0.2,0.2,0.4,0.6,0.4h2
	c0.2,0,0.4-0.2,0.6-0.2C22.6,21.9,22.2,21.7,21.9,21.5z"/>
</svg>
