<?xml version="1.0" encoding="utf-8"?>
<!-- Generator: Adobe Illustrator 19.2.1, SVG Export Plug-In . SVG Version: 6.00 Build 0)  -->
<svg version="1.1" id="Layer_1" xmlns="http://www.w3.org/2000/svg" xmlns:xlink="http://www.w3.org/1999/xlink" x="0px" y="0px"
	 viewBox="0 0 32 32" style="enable-background:new 0 0 32 32;" xml:space="preserve">
<style type="text/css">
	.st0{fill:#FFFFFF;}
</style>
<g>
	<path class="st0" d="M30.2,8.7H1.8v-4c0-1.2,1-2.1,2.1-2.1h24.1c1.2,0,2.1,1,2.1,2.1L30.2,8.7L30.2,8.7z M30.2,27.2
		c0,1.2-1,2.1-2.1,2.1H3.9c-1.2,0-2.1-1-2.1-2.1V10.3h28.4V27.2z M28.1,1H3.9C1.9,1,0.2,2.7,0.2,4.8v22.5c0,2.1,1.7,3.7,3.7,3.7
		h24.1c2.1,0,3.7-1.7,3.7-3.7V4.8C31.8,2.7,30.1,1,28.1,1z"/>
	<rect x="4.2" y="5.1" class="st0" width="2.3" height="1.6"/>
	<rect x="8" y="5.1" class="st0" width="2.3" height="1.6"/>
	<rect x="11.8" y="5.1" class="st0" width="2.3" height="1.6"/>
	<path class="st0" d="M8.4,20.9c0.4,0,0.8,0.4,0.8,0.8c0,0.4-0.4,0.8-0.8,0.8c-0.4,0-0.8-0.4-0.8-0.8C7.6,21.3,8,20.9,8.4,20.9z
		 M13.5,15.6c0.4,0,0.8,0.4,0.8,0.8c0,0.4-0.4,0.8-0.8,0.8c-0.4,0-0.8-0.4-0.8-0.8C12.7,15.9,13,15.6,13.5,15.6z M18.5,20.9
		c0.4,0,0.8,0.4,0.8,0.8c0,0.4-0.4,0.8-0.8,0.8c-0.4,0-0.8-0.4-0.8-0.8C17.7,21.3,18.1,20.9,18.5,20.9z M23.6,15.6
		c0.4,0,0.8,0.4,0.8,0.8c0,0.4-0.4,0.8-0.8,0.8c-0.4,0-0.8-0.4-0.8-0.8C22.8,15.9,23.1,15.6,23.6,15.6z M8.4,24.1
		c1.3,0,2.4-1.1,2.4-2.4c0-0.4-0.1-0.8-0.3-1.1l1.9-2c0.3,0.1,0.6,0.2,1,0.2c0.3,0,0.7-0.1,1-0.2l1.9,2c-0.2,0.3-0.3,0.7-0.3,1.1
		c0,1.3,1.1,2.4,2.4,2.4c1.3,0,2.4-1.1,2.4-2.4c0-0.4-0.1-0.8-0.3-1.1l1.9-2c0.3,0.1,0.6,0.2,1,0.2c1.3,0,2.4-1.1,2.4-2.4
		c0-1.3-1.1-2.4-2.4-2.4c-1.3,0-2.4,1.1-2.4,2.4c0,0.4,0.1,0.8,0.3,1.1l-1.9,2c-0.3-0.1-0.6-0.2-1-0.2c-0.3,0-0.7,0.1-1,0.2l-1.9-2
		c0.2-0.3,0.3-0.7,0.3-1.1c0-1.3-1.1-2.4-2.4-2.4c-1.3,0-2.4,1.1-2.4,2.4c0,0.4,0.1,0.8,0.3,1.1l-1.9,2c-0.3-0.1-0.6-0.2-1-0.2
		c-1.3,0-2.4,1.1-2.4,2.4C6,23,7.1,24.1,8.4,24.1z"/>
</g>
</svg>
