<?xml version="1.0" encoding="utf-8"?>
<!-- Generator: Adobe Illustrator 19.2.1, SVG Export Plug-In . SVG Version: 6.00 Build 0)  -->
<svg version="1.1" id="Layer_1" xmlns="http://www.w3.org/2000/svg" xmlns:xlink="http://www.w3.org/1999/xlink" x="0px" y="0px"
	 viewBox="0 0 32 32" style="enable-background:new 0 0 32 32;" xml:space="preserve">
<style type="text/css">
	.st0{fill:#2C7DA9;}
</style>
<g>
	<path class="st0" d="M13.1,10.2L13.1,10.2c-1,0.2-2.2,0.2-3-0.4C9.3,9.2,8.7,8.4,8.5,7.4C8.3,6.6,7.9,6,7.9,5.4
		c-0.6-2.8,0.6-4.4,2-4.6c1-0.2,2,0.4,2.2,3.2C11.9,6.6,11.9,8.8,13.1,10.2L13.1,10.2"/>
	<path class="st0" d="M14.3,12c4.4-0.4,8.2-4.4,9-6.2c1.4-2.8,1-4.4-0.6-5c-1.4-0.4-3,0.6-4.2,3.2c-1,2.4-2.2,5.4-4.8,6.6
		c0,0-1,0.6-3,0.2C10.9,11,11.5,12.2,14.3,12"/>
	<path class="st0" d="M8.5,15L8.5,15l0.2-0.2C8.9,13.2,8.1,11,6.9,10c-0.4-0.4-1-0.6-1.4-1c-0.6-0.2-1.4-0.4-2-0.4
		c-2.2-0.2-3.8,1-3.4,2.2c0,1,0.6,2.4,3,2.4C5.3,13.4,7.1,13.6,8.5,15"/>
	<path class="st0" d="M9.1,11.6c0,0,1,2,0.4,4.2c-0.8,2.4-3,3.8-5,4.8s-2.6,2.8-2.2,3.8c0.6,1.4,2.4,1.6,4.2,1
		c1.4-0.6,5.2-3.2,4.8-8.2C10.5,12.6,9.1,11.6,9.1,11.6"/>
	<path class="st0" d="M12.7,19.6c1.4-2.8,3-3.4,3-3.4c4.2-2,10.3,2.2,11.3,2.6c1,0.6,3.8,1.4,4.6-0.8c1-1.8-0.2-3.2-1.8-4.2
		C27.2,12,18.8,9.4,14.3,16C14.3,16,13.3,17.4,12.7,19.6"/>
	<path class="st0" d="M20.4,26.5c-0.8-1-5.2-4.4-4.8-9v-0.2l-0.2,0.2c-1.4,1-2.4,2.4-2.6,3.8c-0.2,0.8,0,1.4,0,2.2
		c0.6,2.2,1.6,4.4,3.2,5.8c2,2,3.8,2.4,4.6,1.4C21.8,29.3,21.4,27.7,20.4,26.5"/>
</g>
</svg>
