<?xml version="1.0" encoding="utf-8"?>
<!-- Generator: Adobe Illustrator 21.0.2, SVG Export Plug-In . SVG Version: 6.00 Build 0)  -->
<svg version="1.1" id="Isolation_Mode" xmlns="http://www.w3.org/2000/svg" xmlns:xlink="http://www.w3.org/1999/xlink" x="0px"
	 y="0px" viewBox="0 0 32 32" style="enable-background:new 0 0 32 32;" xml:space="preserve">
<style type="text/css">
	.st0{fill:#005D99;}
	.st1{fill:#FFFFFF;}
	.st2{fill-rule:evenodd;clip-rule:evenodd;fill:#005D99;}
</style>
<g>
	<g id="Ellipse_1_copy">
		<g>
			<circle class="st0" cx="16" cy="16" r="15.7"/>
		</g>
	</g>
	<path class="st1" d="M21.6,25H10.4c-0.9,0-1.7-0.8-1.7-1.7V9.6c0-0.9,0.8-1.7,1.7-1.7h11.2c0.9,0,1.7,0.8,1.7,1.7v13.7
		C23.3,24.3,22.5,25,21.6,25z"/>
	<g>
		<g>
			<path class="st2" d="M14.5,11.2h7.1c0.3,0,0.5-0.2,0.5-0.5c0-0.3-0.2-0.5-0.5-0.5h-7.1c-0.3,0-0.5,0.2-0.5,0.5
				C14,10.9,14.2,11.2,14.5,11.2z M17.9,12.1h-7.1c-0.3,0-0.5,0.2-0.5,0.5s0.2,0.5,0.5,0.5h7.1c0.3,0,0.5-0.2,0.5-0.5
				S18.2,12.1,17.9,12.1z M17.9,14h-7.1c-0.3,0-0.5,0.2-0.5,0.5c0,0.3,0.2,0.5,0.5,0.5h7.1c0.3,0,0.5-0.2,0.5-0.5
				C18.4,14.2,18.2,14,17.9,14z M10.8,11.2h1.7c0.3,0,0.5-0.2,0.5-0.5c0-0.3-0.2-0.5-0.5-0.5h-1.7c-0.3,0-0.5,0.2-0.5,0.5
				C10.3,11,10.6,11.2,10.8,11.2z M21.6,12.1h-1.7c-0.3,0-0.5,0.2-0.5,0.5s0.2,0.5,0.5,0.5h1.7c0.3,0,0.5-0.2,0.5-0.5
				S21.9,12.1,21.6,12.1z"/>
		</g>
	</g>
	<g id="Forma_1_14_">
		<g>
			<path class="st0" d="M21.6,21h-6c-0.2-0.6-0.8-1.2-1.5-1.2s-1.3,0.5-1.5,1.2h-1.9c-0.2,0-0.4,0.1-0.4,0.4c0,0.3,0.2,0.4,0.4,0.4
				h1.9c0.2,0.6,0.8,1.2,1.5,1.2s1.3-0.5,1.5-1.2h6.1c0.2,0,0.4-0.1,0.4-0.4C22,21.1,21.8,21,21.6,21z M14.1,22.1
				c-0.5,0-0.8-0.5-0.8-0.8c0-0.5,0.5-0.8,0.8-0.8c0.5,0,0.8,0.5,0.8,0.8C15,21.7,14.6,22.1,14.1,22.1z"/>
		</g>
	</g>
	<g id="Forma_1_copy_3">
		<g>
			<path class="st0" d="M21.6,17.9h-2.4c-0.2-0.6-0.7-1.2-1.5-1.2c-0.7,0-1.3,0.5-1.5,1.2h-5.6c-0.2,0-0.4,0.1-0.4,0.4
				c0,0.2,0.2,0.4,0.4,0.4h5.6c0.2,0.6,0.7,1.2,1.5,1.2c0.7,0,1.3-0.5,1.5-1.2h2.5c0.2,0,0.4-0.1,0.4-0.4
				C22,17.9,21.8,17.9,21.6,17.9z M17.7,19c-0.5,0-0.8-0.5-0.8-0.8c0-0.5,0.5-0.8,0.8-0.8s0.8,0.5,0.8,0.8
				C18.6,18.6,18.2,19,17.7,19z"/>
		</g>
	</g>
</g>
</svg>
