<?xml version="1.0" encoding="utf-8"?>
<!-- Generator: Adobe Illustrator 19.2.1, SVG Export Plug-In . SVG Version: 6.00 Build 0)  -->
<svg version="1.1" id="Layer_1" xmlns="http://www.w3.org/2000/svg" xmlns:xlink="http://www.w3.org/1999/xlink" x="0px" y="0px"
	 viewBox="0 0 32 32" style="enable-background:new 0 0 32 32;" xml:space="preserve">
<style type="text/css">
	.st0{fill:none;stroke:#9E9E9E;stroke-miterlimit:10;}
	.st1{fill:#9E9E9E;}
</style>
<g>
	<path class="st0" d="M1.1,5.5C0.9,5.8,0.6,6.4,0.6,6.9v18.2c0,0.6,0.3,1.1,0.6,1.4C1.4,26.7,2,27,2.5,27h14.6h12.4
		c1.1,0,1.9-0.8,1.9-1.9V6.9c0-0.6-0.3-0.8-0.6-1.4C30.6,5.3,30,5,29.5,5H14.9H2.5C1.7,5,1.4,5,1.1,5.5z M29.3,15.4
		c0.6,0.6,0.6,1.4,0,1.9s-1.4,0.6-1.9,0s-0.6-1.4,0-1.9S28.7,14.9,29.3,15.4z"/>
</g>
<path class="st1" d="M18.2,16c0-1.4,1.1-1.9,1.4-1.9c-0.8-0.8-1.4-1.1-1.9-1.1c-0.8-0.3-1.4,0.6-1.9,0.6c-0.3,0-1.1-0.6-1.9-0.6
	c-0.8,0-1.9,0.6-2.5,1.4c-0.8,1.4-0.3,3.9,0.8,5.2c0.6,0.8,1.1,1.4,1.9,1.4c0.8,0,0.8-0.6,1.9-0.6c0.8,0,1.1,0.6,1.9,0.3
	c0.8,0,1.4-0.8,1.4-1.4c0.6-0.8,0.8-1.4,0.8-1.4C19.6,17.9,18.2,17.7,18.2,16z M16.8,12.1c0.3-0.6,0.8-1.1,0.6-1.9
	c-0.6,0-1.4,0.3-1.4,0.8c-0.3,0.3-0.8,1.1-0.6,1.4C16.3,13,16.8,12.7,16.8,12.1z"/>
</svg>
