<?xml version="1.0" encoding="utf-8"?>
<!-- Generator: Adobe Illustrator 19.2.1, SVG Export Plug-In . SVG Version: 6.00 Build 0)  -->
<svg version="1.1" id="Layer_1" xmlns="http://www.w3.org/2000/svg" xmlns:xlink="http://www.w3.org/1999/xlink" x="0px" y="0px"
	 viewBox="0 0 32 32" style="enable-background:new 0 0 32 32;" xml:space="preserve">
<style type="text/css">
	.st0{fill:#009DDC;}
	.st1{fill:#F68E1E;stroke:#F9A350;stroke-miterlimit:10;}
</style>
<g id="Forma_1_copy_2">
	<g>
		<path class="st0" d="M19.1,28.8H5.6c-2.1,0-3.9-1.6-3.9-3.7V6.4c0-1.8,1.6-3.7,3.9-3.7h13.5c1.6,0,3.4,1.1,3.7,3
			c0.5-0.2,1.1-0.2,1.6-0.2c-0.5-2.3-2.5-3.9-5-3.9H5.8c-3,0-5.2,2.3-5.2,5v18.7c0,2.7,2.3,5,5.2,5h13.5c2.3,0,3.9-0.9,4.8-2.7
			c-0.5,0-1.1-0.2-1.6-0.5C21.8,28.5,20.7,28.8,19.1,28.8z M15.2,7.1H4.9v1.6h10.3V7.1z M12,11.4H4.9V13H12V11.4z M4.9,17.4H12V16
			H4.9V17.4z M4.9,21.7h10.3v-1.6H4.9V21.7z"/>
	</g>
</g>
<g id="Forma_1_16_">
	<g>
		<path class="st1" d="M24.2,24.8h-1.8c-0.4,0-0.6-0.3-0.7-0.6l-0.2-1.1c-0.3-0.1-0.7-0.2-1-0.4l-0.9,0.6c-0.1,0.1-0.3,0.1-0.4,0.1
			c-0.2,0-0.4-0.1-0.5-0.2L17.4,22c-0.2-0.2-0.3-0.6,0-0.9l0.6-0.9c-0.2-0.3-0.3-0.6-0.4-1l-1.1-0.2c-0.3,0-0.6-0.3-0.6-0.7v-1.8
			c0-0.4,0.3-0.6,0.6-0.7l1.1-0.2c0.1-0.3,0.3-0.6,0.4-1l-0.6-0.9c-0.2-0.3-0.2-0.6,0-0.9l1.2-1.2c0.2-0.2,0.6-0.3,0.9,0l0.9,0.6
			c0.3-0.2,0.6-0.3,1-0.4l0.2-1.1c0-0.3,0.3-0.6,0.7-0.6h1.8c0.4,0,0.6,0.3,0.7,0.6l0.2,1.1c0.3,0.1,0.6,0.3,1,0.4l0.9-0.6
			c0.1-0.1,0.3-0.1,0.4-0.1c0.2,0,0.4,0.1,0.5,0.2l1.2,1.2c0.2,0.2,0.3,0.6,0,0.9l-0.6,0.9c0.2,0.3,0.3,0.6,0.4,1l1.1,0.2
			c0.3,0,0.6,0.3,0.6,0.7v1.8c0,0.4-0.3,0.6-0.6,0.7L29,19.2c-0.1,0.3-0.2,0.7-0.4,1l0.6,0.9c0.2,0.3,0.2,0.6,0,0.9L28,23.3
			c-0.2,0.2-0.6,0.3-0.9,0l-0.9-0.6c-0.3,0.2-0.6,0.3-1,0.4l-0.2,1.1C24.9,24.5,24.6,24.8,24.2,24.8z M20.5,22.1c0,0,0.1,0,0.1,0
			c0.4,0.2,0.8,0.4,1.2,0.5c0.1,0,0.1,0.1,0.2,0.2l0.2,1.2c0,0.1,0.1,0.2,0.2,0.2h1.8c0.1,0,0.2-0.1,0.2-0.2l0.2-1.3
			c0-0.1,0.1-0.2,0.2-0.2c0.4-0.1,0.8-0.3,1.2-0.5c0.1,0,0.2,0,0.3,0l1.1,0.7c0.1,0.1,0.2,0,0.3,0l1.2-1.2c0.1-0.1,0.1-0.2,0-0.3
			l-0.7-1.1c0-0.1,0-0.2,0-0.3c0.2-0.4,0.4-0.8,0.5-1.2c0-0.1,0.1-0.1,0.2-0.2l1.2-0.2c0.1,0,0.2-0.1,0.2-0.2v-1.8
			c0-0.1-0.1-0.2-0.2-0.2L28.8,16c-0.1,0-0.2-0.1-0.2-0.2c-0.1-0.4-0.3-0.8-0.5-1.2c0-0.1,0-0.2,0-0.3l0.7-1.1
			c0.1-0.1,0.1-0.2,0-0.3l-1.2-1.2c-0.1-0.1-0.2-0.1-0.3,0l-1.1,0.7c-0.1,0-0.2,0-0.3,0c-0.4-0.2-0.8-0.4-1.2-0.5
			c-0.1,0-0.1-0.1-0.2-0.2l-0.2-1.2c0-0.1-0.1-0.2-0.2-0.2h-1.8c-0.1,0-0.2,0.1-0.2,0.2L22,11.9c0,0.1-0.1,0.2-0.2,0.2
			c-0.4,0.1-0.8,0.3-1.2,0.5c-0.1,0-0.2,0-0.3,0l-1.1-0.7c-0.1-0.1-0.2-0.1-0.3,0l-1.2,1.2c-0.1,0.1-0.1,0.2,0,0.3l0.7,1.1
			c0,0.1,0,0.2,0,0.3c-0.2,0.4-0.4,0.8-0.5,1.2c0,0.1-0.1,0.1-0.2,0.2l-1.2,0.2c-0.1,0-0.2,0.1-0.2,0.2v1.8c0,0.1,0.1,0.2,0.2,0.2
			l1.3,0.2c0.1,0,0.2,0.1,0.2,0.2c0.1,0.4,0.3,0.8,0.5,1.2c0,0.1,0,0.2,0,0.3l-0.7,1.1c-0.1,0.1-0.1,0.2,0,0.3l1.2,1.2
			c0.1,0.1,0.2,0.1,0.3,0l1.1-0.7C20.5,22.1,20.5,22.1,20.5,22.1z M23.3,20.3c-1.6,0-2.9-1.3-2.9-2.9s1.3-2.9,2.9-2.9
			s2.9,1.3,2.9,2.9S24.9,20.3,23.3,20.3z M23.3,14.9c-1.3,0-2.5,1.1-2.5,2.5s1.1,2.5,2.5,2.5s2.5-1.1,2.5-2.5S24.7,14.9,23.3,14.9z"
			/>
	</g>
</g>
</svg>
