<?xml version="1.0" encoding="utf-8"?>
<!-- Generator: Adobe Illustrator 19.2.1, SVG Export Plug-In . SVG Version: 6.00 Build 0)  -->
<svg version="1.1" id="Background_Image" xmlns="http://www.w3.org/2000/svg" xmlns:xlink="http://www.w3.org/1999/xlink" x="0px"
	 y="0px" viewBox="0 0 32 32" style="enable-background:new 0 0 32 32;" xml:space="preserve">
<style type="text/css">
	.st0{fill:#6AC052;}
	.st1{fill:#10A3DA;}
</style>
<title>enable</title>
<g id="Forma_1">
	<g id="Forma_1-2">
		<path class="st0" d="M24.3,12.4c-3.3,0-6,2.6-6,5.9c0,0.7,0.2,1.5,0.4,2.1l-7.3,7.1c-0.2,0.2-0.3,0.4-0.3,0.7V30
			c0,0.6,0.6,1.2,1.2,1.2h1.8c0.3,0,0.6-0.1,0.7-0.3l0.9-0.8h1.4c0.7,0,1.2-0.5,1.2-1.2v-1.2h1.2c0.7,0,1.2-0.5,1.2-1.2v-1.4
			l1.4-1.4c0.7,0.3,1.4,0.4,2.2,0.4c3.2,0,5.9-2.6,5.9-5.9S27.5,12.4,24.3,12.4L24.3,12.4z M24.3,22.9c-0.9,0-1.7-0.2-2.4-0.7
			l-0.2,0.2L21,23.1l-1.1,1.1c-0.2,0.2-0.3,0.5-0.4,0.8v1.4h-1.2c-0.7,0-1.2,0.5-1.2,1.2v1.2h-1.4c-0.3,0-0.6,0.1-0.9,0.3L14,30
			h-1.7v-1.7l7-6.8l0,0l0.9-0.9c-0.4-0.7-0.7-1.5-0.7-2.4c-0.1-2.7,2-4.9,4.7-4.9c2.7-0.1,4.9,2,4.9,4.7S27.1,22.9,24.3,22.9
			C24.4,22.9,24.3,22.9,24.3,22.9z M27.8,17.2c-0.7-0.9-1.5-1.7-2.4-2.4c-0.2-0.1-0.4-0.1-0.5-0.1c-0.8,0.3-1.4,0.9-1.7,1.7
			c0,0.1,0,0.1,0,0.2s0,0.2,0.1,0.3c0.7,0.9,1.5,1.7,2.4,2.4c0.2,0.1,0.4,0.1,0.5,0.1c0.8-0.3,1.4-0.9,1.7-1.7
			C28,17.5,27.9,17.4,27.8,17.2L27.8,17.2z M26,18.8c-0.9-0.6-1.7-1.4-2.3-2.2c0.2-0.6,0.7-1.1,1.3-1.3c0.9,0.6,1.7,1.4,2.3,2.2
			C27.1,18.2,26.6,18.6,26,18.8z"/>
	</g>
</g>
<g id="Forma_1_copy">
	<g id="Forma_1_copy-2">
		<path class="st1" d="M20,3.3c0.7,0.8,1,1.9,1,2.9c0,0.8,0,1.5,0,2.3v0.9c0,0.4,0.1,0.7,0.4,1c0.1,0.2,0.2,0.5,0.2,0.7
			c0.7-0.1,1.3-0.2,2-0.2c0-0.5-0.2-1-0.5-1.5L23,9.3V8.5c0-0.8,0-1.5,0-2.3c0-1.6-0.5-3.1-1.6-4.2c-0.9-0.9-2.1-1.5-3.4-1.7
			C16.5,0,15,0,13.5,0.4c-1.4,0.3-2.6,1.2-3.5,2.3c-0.7,1-1,2.2-1,3.4c0,0.7,0,1.4,0,2.1v1c0,0.1-0.1,0.1-0.1,0.2
			c-0.7,1.3-0.4,3,0.7,3.9l0.1,0.2c0.4,1.1,0.9,2.1,1.6,3v0.9c0,1.5-1.2,2.7-2.7,2.7H8.5H6.6H6.4c-0.2,0-3.9,1.1-6.3,6L0,28.5
			c0,1.6,1.3,2.8,2.9,2.8l0,0h7.4v-2H2.9C2.4,29.3,2,29,2,28.5v-1.6c0.9-2.1,2.6-3.8,4.8-4.7h1.7c2.6,0,4.7-2,4.8-4.6V16L13,15.7
			c-0.7-0.8-1.2-1.7-1.5-2.7c-0.1-0.4-0.3-0.7-0.6-1c-0.5-0.4-0.6-1.1-0.2-1.6c0.2-0.3,0.4-0.6,0.4-0.9V8.2c0-0.7,0-1.4,0-2.1
			c0-0.9,0.3-1.7,0.7-2.4C12.3,3,13.1,2.5,14,2.3C15.2,2,16.4,2,17.6,2.2C18.5,2.3,19.4,2.7,20,3.3z M31.9,26.3
			c-0.5-1.1-1.2-2.1-2-3.1c-0.4,0.5-0.9,1-1.6,1.2c0.7,0.8,1.2,1.6,1.7,2.5v1.6c0,0.5-0.4,0.9-0.9,0.9h-9.5L18,31l-0.6,0.3h11.7
			c1.6,0,2.9-1.2,2.9-2.8l0,0v-1.8L31.9,26.3z"/>
	</g>
</g>
</svg>
