<?xml version="1.0" encoding="utf-8"?>
<!-- Generator: Adobe Illustrator 19.2.1, SVG Export Plug-In . SVG Version: 6.00 Build 0)  -->
<svg version="1.1" id="Layer_1" xmlns="http://www.w3.org/2000/svg" xmlns:xlink="http://www.w3.org/1999/xlink" x="0px" y="0px"
	 viewBox="0 0 32 32" style="enable-background:new 0 0 32 32;" xml:space="preserve">
<style type="text/css">
	.st0{fill:#00A2D8;}
</style>
<g>
	<path class="st0" d="M16,0.1C7.2,0.1,0.1,7.2,0.1,16c0,8.8,7.1,15.9,15.9,15.9S31.9,24.8,31.9,16C31.9,7.4,24.6,0.1,16,0.1z
		 M16,30.1c-7.7,0-13.9-6.1-13.9-13.9C2.1,8.3,8.1,2.3,16,2.3s13.9,6.1,13.9,13.9C29.7,23.7,23.5,30.1,16,30.1z M21.9,15.2H17v-4.9
		c0-0.6-0.6-1-1-1c-0.6,0-1,0.6-1,1v4.9h-4.9c-0.6,0-1,0.6-1,1c0,0.6,0.6,1,1,1H15v4.9c0,0.6,0.6,1,1,1c0.6,0,1-0.6,1-1v-4.9h4.9
		c0.6,0,1-0.6,1-1C22.9,15.6,22.3,15.2,21.9,15.2z"/>
</g>
</svg>
