<?xml version="1.0" encoding="utf-8"?>
<!-- Generator: Adobe Illustrator 21.0.2, SVG Export Plug-In . SVG Version: 6.00 Build 0)  -->
<svg version="1.1" id="Layer_1" xmlns="http://www.w3.org/2000/svg" xmlns:xlink="http://www.w3.org/1999/xlink" x="0px" y="0px"
	 viewBox="0 0 32 32" style="enable-background:new 0 0 32 32;" xml:space="preserve">
<style type="text/css">
	.st0{enable-background:new    ;}
	.st1{fill:#EE5D5A;}
</style>
<g id="Background_xA0_Image_1_">
</g>
<g id="Shape_1_1_" class="st0">
	<g id="Shape_1">
		<g>
			<path class="st1" d="M15.1,5.9c6.2,0,11.2,5,11.2,11.2c0,1.5-0.3,2.9-0.8,4.3l2.2,2.2c1-1.9,1.6-4.1,1.6-6.5
				C29.3,9.3,23,3,15.1,3c-2.3,0-4.5,0.6-6.5,1.6l2.2,2.2C12.1,6.2,13.6,5.9,15.1,5.9z M0.8,4.9l3.3,3.3c-2,2.4-3.2,5.5-3.2,8.9
				c0,7.8,6.3,14.1,14.2,14.1c3.4,0,6.5-1.2,8.9-3.1l3.2,3.2l2-2.1L2.8,2.8L0.8,4.9z M21.8,25.9c-1.9,1.4-4.2,2.3-6.8,2.3
				c-6.2,0-11.2-5-11.2-11.2c0-2.5,0.9-4.9,2.3-6.8L21.8,25.9z"/>
		</g>
	</g>
</g>
</svg>
