<?xml version="1.0" encoding="utf-8"?>
<!-- Generator: Adobe Illustrator 19.2.1, SVG Export Plug-In . SVG Version: 6.00 Build 0)  -->
<svg version="1.1" xmlns="http://www.w3.org/2000/svg" xmlns:xlink="http://www.w3.org/1999/xlink" x="0px" y="0px"
	 viewBox="0 0 32 32" style="enable-background:new 0 0 32 32;" xml:space="preserve">
<style type="text/css">
	.st0{enable-background:new    ;}
	.st1{fill:#B3B3B3;}
</style>
<g id="Layer_1">
	<g id="Shape_2_1_" class="st0">
	</g>
	<g id="Rounded_Rectangle_1_1_" class="st0">
	</g>
	<g id="Ellipse_1_copy_1_" class="st0">
		<g>
			<g id="Shape_2">
				<g>
					<path class="st1" d="M26.6,10.5c2.7,0,4.9-2.2,4.9-4.9s-2.2-4.9-4.9-4.9s-4.9,2.2-4.9,4.9S23.9,10.5,26.6,10.5z M26.6,2
						c2,0,3.6,1.6,3.6,3.6s-1.6,3.6-3.6,3.6S23,7.6,23,5.6S24.6,2,26.6,2z M5.3,21.7c-2.7,0-4.9,2.2-4.9,4.9s2.2,4.9,4.9,4.9
						s4.9-2.2,4.9-4.9S8,21.7,5.3,21.7z M5.3,30.2c-2,0-3.6-1.6-3.6-3.6S3.3,23,5.3,23s3.6,1.6,3.6,3.6C8.8,28.6,7.2,30.2,5.3,30.2z
						 M15.8,21.7c-2.7,0-4.9,2.2-4.9,4.9s2.2,4.9,4.9,4.9s4.9-2.2,4.9-4.9S18.5,21.7,15.8,21.7z M15.8,30.2c-2,0-3.6-1.6-3.6-3.6
						s1.6-3.6,3.6-3.6s3.6,1.6,3.6,3.6C19.3,28.6,17.7,30.2,15.8,30.2z M26.7,21.7c-2.7,0-4.9,2.2-4.9,4.9s2.2,4.9,4.9,4.9
						s4.9-2.2,4.9-4.9S29.5,21.7,26.7,21.7z M26.7,30.2c-2,0-3.6-1.6-3.6-3.6s1.6-3.6,3.6-3.6s3.6,1.6,3.6,3.6
						C30.3,28.6,28.7,30.2,26.7,30.2z M26.7,11.2c-2.7,0-4.9,2.2-4.9,4.9S24,21,26.7,21s4.9-2.2,4.9-4.9
						C31.7,13.4,29.5,11.2,26.7,11.2z M26.7,19.7c-2,0-3.6-1.6-3.6-3.6s1.6-3.6,3.6-3.6s3.6,1.6,3.6,3.6
						C30.3,18.1,28.7,19.7,26.7,19.7z"/>
				</g>
			</g>
			<g id="Ellipse_1_copy">
				<g>
					<path class="st1" d="M13.7,9c0,0,0.7-0.4,1.5-0.5c1.2,0.4,2.7,0,3.6-1c1-1,1.3-2.4,1-3.7l-2.4,2.4l-2.1-0.5l-0.6-2.1L17,1.3
						c-1.3-0.4-2.8-0.1-3.7,1c-1,1-1.3,2.2-1.1,3.4c0,0.6-0.2,1.3-0.5,1.7c-0.5,0.5-3.7,3.7-4.5,4.5c-0.4,0.4-1.1,0.5-1.7,0.5
						c-1.2-0.2-2.4,0.1-3.4,1.1s-1.3,2.4-1,3.7l2.4-2.4l2.1,0.6l0.5,2.1l-2.4,2.4c1.3,0.4,2.8,0.1,3.7-1c1-1,1.3-2.4,1-3.6
						c0.1-0.7,0.5-1.5,0.5-1.5L13.7,9z M5.1,5.8l3.1,3.1l0.7-0.7L5.8,4.9L5.1,3.2L3,2L2,2.9L3.3,5L5.1,5.8z M15.6,12.5
						c-0.2-0.2-0.6-0.2-1-0.2L13.3,11l-2.2,2.3l1.2,1.2c-0.1,0.4-0.1,0.7,0.2,1.1l3.5,3.5c0.4,0.4,1,0.4,1.5,0l1.6-1.6
						c0.4-0.4,0.4-1,0-1.5L15.6,12.5z M17.5,17.5c-0.1,0.1-0.5,0.1-0.6,0L14,14.6c-0.1-0.1-0.1-0.5,0-0.6c0.1-0.1,0.5-0.1,0.6,0
						l2.9,2.9C17.8,17.1,17.8,17.4,17.5,17.5z"/>
				</g>
			</g>
		</g>
	</g>
	<g id="Layer_4">
	</g>
</g>
<g id="Layer_2">
</g>
</svg>
