<?xml version="1.0" encoding="utf-8"?>
<!-- Generator: Adobe Illustrator 19.2.1, SVG Export Plug-In . SVG Version: 6.00 Build 0)  -->
<svg version="1.1" id="Layer_1" xmlns="http://www.w3.org/2000/svg" xmlns:xlink="http://www.w3.org/1999/xlink" x="0px" y="0px"
	 viewBox="0 0 32 32" style="enable-background:new 0 0 32 32;" xml:space="preserve">
<style type="text/css">
	.st0{fill:none;stroke:#AEAFAF;stroke-width:1.5;stroke-miterlimit:10;}
</style>
<g>
	<path class="st0" d="M23,0.5h1.6c2.3,0,4.4,1.8,4.4,3.9v18l-8.1,9.1c-0.3,0-13.8,0-13.8,0c-2.3,0-4.4-2.3-4.4-4.4 M2.7,27.3V4.9
		c0-2.3,2.1-4.4,4.4-4.4c0,0,14.8,0,15.9,0 M9.7,7.4H22 M9.7,12.6H22 M21,21.6c-1.3,0-1.3,1.3-1.3,2.3c0,0,0,2.1,0,4.4l0,0l5.7-6.8
		L21,21.6L21,21.6z M9.7,17.6H22"/>
</g>
</svg>
