<?xml version="1.0" encoding="utf-8"?>
<!-- Generator: Adobe Illustrator 19.2.1, SVG Export Plug-In . SVG Version: 6.00 Build 0)  -->
<svg version="1.1" id="Layer_1" xmlns="http://www.w3.org/2000/svg" xmlns:xlink="http://www.w3.org/1999/xlink" x="0px" y="0px"
	 viewBox="0 0 32 32" style="enable-background:new 0 0 32 32;" xml:space="preserve">
<style type="text/css">
	.st0{fill:none;stroke:#79B743;stroke-width:2;stroke-miterlimit:10;}
	.st1{fill:none;stroke:#009DDC;stroke-width:2;stroke-miterlimit:10;}
</style>
<g>
	<g>
		<path class="st0" d="M30.8,19.6V2.4c0-0.6-0.3-0.9-0.9-0.9H2.2c-0.6,0-0.9,0.3-0.9,0.9v24.4c0,0.6,0.3,0.9,0.9,0.9h13 M26.6,4.3
			c0.9,0,1.5,0.6,1.5,1.5c0,1.2-0.6,1.5-1.5,1.5c-0.9,0-1.5-0.6-1.5-1.5C25.4,4.9,25.7,4.3,26.6,4.3z M22.4,4.3
			c0.9,0,1.5,0.6,1.5,1.5c0,1.2-0.6,1.5-1.5,1.5c-0.9,0-1.5-0.6-1.5-1.5C21.1,4.9,22,4.3,22.4,4.3z M18.1,5.5H4.6"/>
	</g>
	<circle class="st1" cx="22.4" cy="22.3" r="6.3"/>
	<line class="st1" x1="22.4" y1="13.3" x2="22.4" y2="19"/>
	<line class="st1" x1="22.4" y1="25.3" x2="22.4" y2="31.7"/>
	<line class="st1" x1="13.6" y1="22.3" x2="19.3" y2="22.3"/>
	<line class="st1" x1="25.4" y1="22.3" x2="31.4" y2="22.3"/>
	<line class="st0" x1="1.6" y1="9.1" x2="30.8" y2="9.1"/>
</g>
</svg>
