<?xml version="1.0" encoding="utf-8"?>
<!-- Generator: Adobe Illustrator 19.2.1, SVG Export Plug-In . SVG Version: 6.00 Build 0)  -->
<svg version="1.1" id="Forma_1_copy_2_1_" xmlns="http://www.w3.org/2000/svg" xmlns:xlink="http://www.w3.org/1999/xlink" x="0px"
	 y="0px" viewBox="0 0 32 32" style="enable-background:new 0 0 32 32;" xml:space="preserve">
<style type="text/css">
	.st0{fill-rule:evenodd;clip-rule:evenodd;fill:#2A333C;}
</style>
<g id="Forma_1_copy_2">
	<g>
		<path class="st0" d="M25.4,22.7l-5-2.5c-0.5-0.2-0.8-0.7-0.8-1.2v-1.8c0.1-0.1,0.2-0.3,0.4-0.5c0.6-0.9,1.2-1.9,1.5-3
			c0.7-0.3,1.2-1.1,1.2-1.9V9.7c0-0.5-0.2-1-0.5-1.4V5.6c0-0.3,0.1-2-1.1-3.4C20.1,1,18.4,0.4,16,0.4c-2.4,0-4.1,0.6-5.2,1.8
			C9.6,3.6,9.7,5.3,9.7,5.6v2.8C9.4,8.8,9.2,9.2,9.2,9.7v2.1c0,0.6,0.3,1.2,0.8,1.6c0.5,1.9,1.5,3.3,1.8,3.8v1.7
			c0,0.5-0.3,1-0.7,1.2l-4.7,2.5C4.9,23.5,4,25.1,4,26.8v1.7c0,2.5,7.8,3.1,12,3.1s12-0.7,12-3.1v-1.6C28,25.1,27,23.5,25.4,22.7z
			 M26.9,28.5c0,0.7-3.9,2.1-10.9,2.1S5.1,29.2,5.1,28.5v-1.7c0-1.3,0.7-2.6,1.9-3.2l4.7-2.5c0.8-0.4,1.3-1.2,1.3-2.1v-2.1l-0.1-0.1
			c0,0-1.3-1.6-1.8-3.7l0-0.2l-0.2-0.1c-0.3-0.2-0.5-0.5-0.5-0.9V9.7c0-0.3,0.1-0.6,0.3-0.8l0.2-0.2V5.6l0-0.1c0,0-0.2-1.5,0.8-2.6
			c0.9-1,2.3-1.5,4.4-1.5c2,0,3.5,0.5,4.4,1.5c1,1.1,0.8,2.6,0.8,2.6l0,3.3L21.4,9c0.2,0.2,0.3,0.5,0.3,0.8v2.1c0,0.5-0.3,0.9-0.7,1
			l-0.3,0.1l-0.1,0.3c-0.3,1.1-0.8,2.1-1.5,3c-0.2,0.2-0.3,0.4-0.4,0.6l-0.1,0.1V19c0,0.9,0.5,1.8,1.3,2.2l5,2.5
			c1.2,0.6,2,1.9,2,3.3V28.5z"/>
	</g>
</g>
</svg>
