<?xml version="1.0" encoding="utf-8"?>
<!-- Generator: Adobe Illustrator 19.2.1, SVG Export Plug-In . SVG Version: 6.00 Build 0)  -->
<svg version="1.1" xmlns="http://www.w3.org/2000/svg" xmlns:xlink="http://www.w3.org/1999/xlink" x="0px" y="0px"
	 viewBox="0 0 32 32" style="enable-background:new 0 0 32 32;" xml:space="preserve">
<style type="text/css">
	.st0{fill:#E7E5E5;}
	.st1{display:none;}
	.st2{display:inline;}
	.st3{fill:#A2A2A2;}
</style>
<g id="Layer_1">
	<path class="st0" d="M16,6C9,6,3,10,0,16c3,6,9,10,16,10s13-4,16-10C29,10,23,6,16,6z M24,11.3c1.8,1.2,3.4,2.8,4.6,4.7
		c-1.2,2-2.8,3.5-4.7,4.7c-3,1.5-6,2.3-8,2.3s-6-0.8-8-2.3C6,19.5,4,18,3,16c1.5-2,3-3.5,5-4.7l0.6-0.2C8,12,8,13,8,14
		c0,4.5,3.5,8,8,8s8-3.5,8-8c0-1-0.3-2-0.6-2.6l0.4,0.3L24,11.3z M16,13c0,1.7-1.3,3-3,3s-3-1.3-3-3s1.3-3,3-3S16,11.3,16,13z"/>
</g>
<g id="Layer_2" class="st1">
	<g class="st2">
		<path class="st3" d="M29.6,0.3c-0.6-0.4-1.6-0.4-2.2,0L21,6.7c-1.4-0.5-3-0.8-5-0.8c-7,0-13,4-16,10c1.3,2.6,3,4.8,5.4,6.5l-5,5
			c-0.5,0.5-0.5,1.5,0,2c0.3,0.4,0.7,0.5,1,0.5s1,0,1.2-0.4l27-27C30,1.9,30,0.9,29.6,0.3z M13,9.9c1.3,0,2.4,1,2.8,2L12,15.7
			c-1-0.4-2-1.5-2-2.8C10,11.2,11.3,9.9,13,9.9z M3.4,15.9c1.2-2,2.8-3.5,4.7-4.7L8.8,11c-0.4,1-0.6,2-0.6,3c0,1.8,0.6,3.4,1.6,4.7
			l-2,2c-1.6-1.2-3-2.7-4-4.4L3.4,15.9z M24,13.7c0-0.8,0-1.7-0.4-2.4l-10,10c0.7,0.3,1.6,0.4,2.4,0.4C20.4,21.7,24,18.1,24,13.7z"
			/>
		<path class="st3" d="M26,8.9l-2.2,2.2c2,1.3,3.6,3,4.8,4.8c-1.2,2-2.8,3.5-4.7,4.7c-2.7,1.5-5.4,2.3-8,2.3c-1.4,0-2.6,0-3.8-0.4
			L10,24.9c2,0.6,4,1,6,1c7,0,13-4,16-10C30.6,13.1,28.5,10.7,26,8.9z"/>
	</g>
</g>
</svg>
