<?xml version="1.0" encoding="utf-8"?>
<!-- Generator: Adobe Illustrator 19.2.1, SVG Export Plug-In . SVG Version: 6.00 Build 0)  -->
<svg version="1.1" id="Layer_1" xmlns="http://www.w3.org/2000/svg" xmlns:xlink="http://www.w3.org/1999/xlink" x="0px" y="0px"
	 viewBox="0 0 32 32" style="enable-background:new 0 0 32 32;" xml:space="preserve">
<style type="text/css">
	.st0{fill:none;stroke:#009DDC;stroke-width:2;stroke-miterlimit:10;}
</style>
<g>
	<line class="st0" x1="14.4" y1="1.1" x2="17.3" y2="6.6"/>
	<line class="st0" x1="26.1" y1="2.5" x2="21.4" y2="7.2"/>
	<line class="st0" x1="20.3" y1="0.5" x2="19.7" y2="7.2"/>
</g>
<g>
	<path class="st0" d="M15,9.9l-1.2-1.5c-1.5-2-3.8-2.6-5.6-1.5L5.3,9.6c-1.5,1.5-1.5,3.5-0.3,5.6l6.4,8.5c1.5,2,3.8,2.3,5.6,1.5
		l2.9-2.3c1.5-1.2,1.5-3.5,0.3-5.6L19.4,16"/>
</g>
<g>
	<path class="st0" d="M15.6,19.5l-0.3-2.9c-0.3-2.3,0.9-4.4,2.6-5l3.8-0.9c2-0.3,3.8,1.5,4.1,3.5l2,10.5c0.3,2.6-0.9,4.4-2.6,5
		l-3.8,0.9c-2,0.3-3.8-1.5-4.1-3.5l0,0"/>
</g>
</svg>
