<?xml version="1.0" encoding="utf-8"?>
<!-- Generator: Adobe Illustrator 19.2.1, SVG Export Plug-In . SVG Version: 6.00 Build 0)  -->
<svg version="1.1" id="Layer_1" xmlns="http://www.w3.org/2000/svg" xmlns:xlink="http://www.w3.org/1999/xlink" x="0px" y="0px"
	 viewBox="0 0 32 32" style="enable-background:new 0 0 32 32;" xml:space="preserve">
<style type="text/css">
	.st0{display:none;}
	.st1{display:inline;}
	.st2{fill:none;stroke:#CB2027;stroke-width:2;stroke-miterlimit:10;}
	.st3{fill:none;stroke:#BABABA;stroke-width:2;stroke-miterlimit:10;}
	.st4{fill:#CB2027;}
	.st5{fill:#BABABA;}
</style>
<g id="Layer_1_1_" class="st0">
	<g class="st1">
		<g>
			<path class="st2" d="M11.6,18.5c0,0-4.7,0-5.1,1.4s2.2,2,7.9,1.8c5.5-0.2,7.7-2,7.7-2 M22.4,24.2c0,0,5.5-1,4.9-4.1
				c-0.6-3.3-4.3-1.6-4.3-1.6 M10.4,22C7,22.8,9,24.2,12.7,24.4c3.3,0.2,8.3-1,8.3-1l-1.4-1 M11.2,25.3c0,0-1.4,0-1.6,1
				c-0.2,0.8,1,1.4,4.5,1.8c3.7,0.2,6.1-1,6.1-1l-1.8-1 M8.4,27.5c-0.4,0-4.5,0.2-4.7,1.4c-0.2,1,1.8,2,9.6,2s11.2-1.4,11.8-2
				s-0.2-1-0.2-1s0.8,0.2,0.4,0.6"/>
		</g>
		<path class="st3" d="M14.9,17.9c0,0-1.8-3.3-1.8-5.7c0-1.8,4.1-3.3,5.7-6.1c1.8-2.6-0.2-4.9-0.2-4.9"/>
		<path class="st3" d="M17.1,19.2c0,0,2.4-1.8,2-3.3c-0.4-2-2.2-2.4-1.4-4.3c0.8-1.4,3.7-3.3,3.7-3.3"/>
	</g>
</g>
<g>
	<g id="Forma_1">
		<g>
			<path class="st4" d="M12.2,23.5c0,0-1.3,0-1.4,0.8c-0.1,0.7,0.8,1.3,4,1.5c3.2,0.2,5.5-0.8,5.5-0.8L18.8,24c0,0-0.9,0.2-2.3,0.4
				S12.2,24.2,12,24C11.9,23.7,12.2,23.5,12.2,23.5z M14.9,20c4.9-0.2,6.7-1.7,6.7-1.7c-3.2,0.8-11.6,0.8-11.6,0.2
				c-0.1-0.7,2.6-1.1,2.6-1.1s-4.1,0-4.5,1C7.7,19.4,9.9,20.2,14.9,20z M21.9,22.4c0,0,4.8-1,4.3-3.6c-0.6-3.1-3.9-1.4-3.9-1.4
				s2.3,0,2.6,1.4C25.2,20.3,21.9,22.4,21.9,22.4z M19.6,21.1c0,0-1.2,0.3-3,0.5c-2.4,0.3-5.3,0.1-5.5-0.3c-0.2-0.4,0.4-0.7,0.4-0.7
				c-2.9,0.7-1.3,1.9,2.1,2.1c2.9,0.2,7.2-0.8,7.2-0.8L19.6,21.1z M24.7,26.6c0.5-0.6-0.2-0.9-0.2-0.9s0.2,0.3-0.1,0.6
				c-0.3,0.3-3.1,1-7.6,1.3c-4.5,0.2-9.4-0.4-9.6-0.9s2.5-1,2.5-1c-0.3,0-4,0.1-4.1,1.1c-0.1,0.9,1.6,1.8,8.5,1.8
				C21.2,28.4,24.2,27.1,24.7,26.6z M9.7,29c0,0,6,1.4,12.8,0.2c3.3-0.6,3.5-2.2,3.5-2.2s-1,1-4,1.7C19,29.4,9.7,29,9.7,29z"/>
		</g>
	</g>
	<g id="Forma_1_copy">
		<g>
			<path class="st5" d="M17.9,11.2c0.7-1.1,3.4-3.1,3.4-3.1s-5.3,2-5.3,4.2s1.4,3,1.7,3.8c0.2,0.8-0.4,2-0.4,2s2.1-1.4,1.7-3.1
				C18.6,13.3,16.9,12.8,17.9,11.2z M18.9,6.6c1.4-2.3-0.2-4.4-0.2-4.4s0.4,1.6-0.6,3.2c-0.9,1.7-4.3,2.6-5.6,5.4s2.9,6.1,2.9,6.1
				s-1.6-2.9-1.5-5.1C13.9,10.4,17.5,8.9,18.9,6.6z"/>
		</g>
	</g>
</g>
</svg>
