<?xml version="1.0" encoding="utf-8"?>
<!-- Generator: Adobe Illustrator 19.2.1, SVG Export Plug-In . SVG Version: 6.00 Build 0)  -->
<svg version="1.1" id="Layer_1" xmlns="http://www.w3.org/2000/svg" xmlns:xlink="http://www.w3.org/1999/xlink" x="0px" y="0px"
	 viewBox="0 0 32 32" style="enable-background:new 0 0 32 32;" xml:space="preserve">
<style type="text/css">
	.st0{fill:#009DDC;}
	.st1{fill:#7AC143;}
</style>
<g>
	<g>
		<path class="st0" d="M3.2,23.8c0-1.6,0-20.1,0-21.7c1.6,0,18.3,0,19.8,0c0,0.6,0,3.2,0,6.5c0.4-0.1,0.8-0.1,1.2-0.1
			c0.2,0,0.4,0,0.6,0.1V0.4H1.4v25.3h14.7v-1.8C10.7,23.8,4.1,23.8,3.2,23.8z"/>
		<path class="st0" d="M5.7,13.9h12.1c0.1-0.7,0.4-1.3,0.7-1.9H5.7V13.9z"/>
		<rect x="5.7" y="6.2" class="st0" width="14.8" height="1.9"/>
		<path class="st0" d="M5.7,19.7h12.5c0.3-0.2,0.7-0.4,1.1-0.5c-0.4-0.4-0.7-0.9-0.9-1.4H5.7V19.7z"/>
		<path class="st1" d="M24.2,19.9c2.7,0,4.9-2.2,4.9-4.9c0-2.7-2.2-4.9-4.9-4.9c-2.7,0-4.9,2.2-4.9,4.9
			C19.3,17.8,21.5,19.9,24.2,19.9z"/>
		<path class="st1" d="M28.1,20.7h-7.8c-1.4,0-2.5,1.3-2.5,2.8v7.8c0,0.1,0,0.2,0,0.3h12.8c0-0.1,0-0.2,0-0.3v-7.8
			C30.6,22,29.5,20.7,28.1,20.7z"/>
	</g>
</g>
</svg>
