<?xml version="1.0" encoding="utf-8"?>
<!-- Generator: Adobe Illustrator 19.2.1, SVG Export Plug-In . SVG Version: 6.00 Build 0)  -->
<svg version="1.1" id="Layer_1" xmlns="http://www.w3.org/2000/svg" xmlns:xlink="http://www.w3.org/1999/xlink" x="0px" y="0px"
	 viewBox="0 0 32 32" style="enable-background:new 0 0 32 32;" xml:space="preserve">
<style type="text/css">
	.st0{fill:none;stroke:#9E9E9E;stroke-miterlimit:10;}
	.st1{fill:#9E9E9E;}
</style>
<g>
	<path class="st0" d="M2.2,7.7h27.7c0.9,0,1.5,0.6,1.5,1.5v14.3c0,0.9-0.6,1.5-1.5,1.5H2.2c-0.9,0-1.5-0.6-1.5-1.5V9.2
		C0.7,8.4,1.5,7.7,2.2,7.7z"/>
</g>
<g>
	<path class="st1" d="M8.8,17.4c0,0.4-0.1,0.8-0.3,1.1c-0.2,0.3-0.5,0.6-0.9,0.8c-0.4,0.2-0.9,0.3-1.5,0.3c-0.7,0-1.2-0.1-1.7-0.4
		c-0.3-0.2-0.6-0.4-0.8-0.7c-0.2-0.3-0.3-0.6-0.3-0.9c0-0.2,0.1-0.3,0.2-0.4S3.8,17,4,17c0.1,0,0.3,0,0.4,0.1
		c0.1,0.1,0.2,0.2,0.3,0.4c0.1,0.2,0.2,0.4,0.3,0.6c0.1,0.1,0.2,0.3,0.4,0.4c0.2,0.1,0.4,0.1,0.7,0.1c0.4,0,0.7-0.1,1-0.3
		c0.3-0.2,0.4-0.4,0.4-0.7c0-0.2-0.1-0.4-0.2-0.6c-0.1-0.1-0.3-0.3-0.5-0.3c-0.2-0.1-0.5-0.2-0.9-0.2c-0.5-0.1-0.9-0.3-1.2-0.4
		c-0.3-0.2-0.6-0.4-0.8-0.6s-0.3-0.6-0.3-1c0-0.4,0.1-0.7,0.3-1c0.2-0.3,0.5-0.5,0.9-0.7c0.4-0.2,0.9-0.2,1.4-0.2
		c0.4,0,0.8,0.1,1.1,0.2c0.3,0.1,0.6,0.2,0.8,0.4s0.4,0.4,0.4,0.5c0.1,0.2,0.1,0.4,0.1,0.6c0,0.2-0.1,0.3-0.2,0.4
		c-0.1,0.1-0.3,0.2-0.4,0.2c-0.2,0-0.3,0-0.4-0.1c-0.1-0.1-0.2-0.2-0.3-0.4C7.1,14,7,13.8,6.8,13.7c-0.2-0.1-0.5-0.2-0.8-0.2
		c-0.4,0-0.7,0.1-0.9,0.2c-0.2,0.2-0.3,0.3-0.3,0.6c0,0.1,0,0.3,0.1,0.4c0.1,0.1,0.2,0.2,0.3,0.3C5.3,15,5.5,15,5.6,15.1
		c0.1,0,0.4,0.1,0.7,0.2c0.4,0.1,0.7,0.2,1.1,0.3c0.3,0.1,0.6,0.2,0.8,0.4c0.2,0.2,0.4,0.4,0.5,0.6C8.8,16.8,8.8,17.1,8.8,17.4z"/>
	<path class="st1" d="M13,12.5c0.7,0,1.3,0.1,1.8,0.4c0.5,0.3,0.9,0.7,1.2,1.2c0.3,0.5,0.4,1.2,0.4,1.9c0,0.5-0.1,1-0.2,1.5
		c-0.1,0.4-0.4,0.8-0.6,1.1c-0.3,0.3-0.6,0.6-1.1,0.7c-0.4,0.2-0.9,0.3-1.4,0.3c-0.5,0-1-0.1-1.4-0.3c-0.4-0.2-0.8-0.4-1.1-0.7
		c-0.3-0.3-0.5-0.7-0.6-1.1C9.8,17,9.7,16.5,9.7,16c0-0.5,0.1-1,0.2-1.5s0.4-0.8,0.7-1.1c0.3-0.3,0.6-0.5,1.1-0.7
		C12,12.6,12.5,12.5,13,12.5z M15,16c0-0.5-0.1-0.9-0.2-1.3c-0.2-0.4-0.4-0.6-0.7-0.8c-0.3-0.2-0.6-0.3-1-0.3
		c-0.3,0-0.5,0.1-0.8,0.2c-0.2,0.1-0.4,0.3-0.6,0.5c-0.2,0.2-0.3,0.5-0.4,0.8c-0.1,0.3-0.1,0.7-0.1,1.1c0,0.4,0,0.7,0.1,1.1
		c0.1,0.3,0.2,0.6,0.4,0.8c0.2,0.2,0.4,0.4,0.6,0.5c0.2,0.1,0.5,0.2,0.8,0.2c0.4,0,0.7-0.1,1-0.3c0.3-0.2,0.5-0.5,0.7-0.8
		C14.9,17,15,16.6,15,16z"/>
	<path class="st1" d="M21.7,18.7l-0.3-0.9h-2.8l-0.3,0.9c-0.1,0.3-0.2,0.6-0.3,0.7c-0.1,0.1-0.2,0.2-0.4,0.2c-0.2,0-0.3-0.1-0.5-0.2
		s-0.2-0.3-0.2-0.4c0-0.1,0-0.2,0-0.3c0-0.1,0.1-0.2,0.2-0.4l1.8-4.5c0.1-0.1,0.1-0.3,0.2-0.5c0.1-0.2,0.1-0.3,0.2-0.4
		c0.1-0.1,0.2-0.2,0.3-0.3c0.1-0.1,0.3-0.1,0.5-0.1c0.2,0,0.4,0,0.5,0.1c0.1,0.1,0.2,0.2,0.3,0.3c0.1,0.1,0.1,0.2,0.2,0.4
		c0.1,0.1,0.1,0.3,0.2,0.5l1.8,4.4c0.1,0.3,0.2,0.6,0.2,0.7c0,0.2-0.1,0.3-0.2,0.4c-0.1,0.1-0.3,0.2-0.5,0.2c-0.1,0-0.2,0-0.3-0.1
		c-0.1,0-0.1-0.1-0.2-0.2s-0.1-0.2-0.2-0.3C21.8,18.9,21.7,18.8,21.7,18.7z M18.9,16.8H21l-1-2.8L18.9,16.8z"/>
	<path class="st1" d="M26.9,16.8h-1.3v2c0,0.3-0.1,0.5-0.2,0.6c-0.1,0.1-0.3,0.2-0.5,0.2c-0.2,0-0.4-0.1-0.5-0.2
		c-0.1-0.1-0.2-0.4-0.2-0.6v-5.3c0-0.3,0.1-0.5,0.2-0.7s0.4-0.2,0.7-0.2h1.8c0.5,0,0.9,0,1.2,0.1c0.3,0.1,0.5,0.2,0.7,0.4
		c0.2,0.2,0.4,0.4,0.5,0.7c0.1,0.3,0.2,0.6,0.2,0.9c0,0.7-0.2,1.2-0.6,1.6C28.4,16.6,27.7,16.8,26.9,16.8z M26.5,13.6h-0.9v2.1h0.9
		c0.3,0,0.6,0,0.8-0.1c0.2-0.1,0.4-0.2,0.5-0.3c0.1-0.2,0.2-0.4,0.2-0.6c0-0.3-0.1-0.6-0.3-0.7C27.6,13.7,27.1,13.6,26.5,13.6z"/>
</g>
<g>
	<path class="st1" d="M9,17.6c0,0.4-0.1,0.9-0.3,1.2c-0.2,0.4-0.6,0.6-1,0.8c-0.4,0.2-1,0.3-1.6,0.3c-0.7,0-1.3-0.1-1.8-0.4
		c-0.3-0.2-0.6-0.5-0.8-0.8c-0.2-0.3-0.3-0.7-0.3-1c0-0.2,0.1-0.3,0.2-0.5c0.1-0.1,0.3-0.2,0.5-0.2c0.2,0,0.3,0.1,0.4,0.2
		c0.1,0.1,0.2,0.3,0.3,0.5c0.1,0.2,0.2,0.4,0.3,0.6c0.1,0.2,0.3,0.3,0.5,0.4c0.2,0.1,0.5,0.2,0.8,0.2c0.4,0,0.8-0.1,1.1-0.3
		c0.3-0.2,0.4-0.5,0.4-0.8c0-0.2-0.1-0.4-0.2-0.6C7.2,17,7,16.9,6.7,16.8c-0.2-0.1-0.6-0.2-1-0.3c-0.5-0.1-1-0.3-1.3-0.4
		c-0.4-0.2-0.6-0.4-0.9-0.7s-0.3-0.6-0.3-1.1c0-0.4,0.1-0.8,0.3-1.1c0.2-0.3,0.5-0.6,1-0.7c0.4-0.2,0.9-0.3,1.5-0.3
		c0.5,0,0.8,0.1,1.2,0.2c0.3,0.1,0.6,0.3,0.8,0.5c0.2,0.2,0.4,0.4,0.5,0.6c0.1,0.2,0.2,0.4,0.2,0.6c0,0.2-0.1,0.3-0.2,0.5
		c-0.1,0.1-0.3,0.2-0.5,0.2c-0.2,0-0.3,0-0.4-0.1c-0.1-0.1-0.2-0.2-0.3-0.4c-0.1-0.3-0.3-0.5-0.5-0.7c-0.2-0.2-0.5-0.2-0.9-0.2
		c-0.4,0-0.7,0.1-0.9,0.3c-0.2,0.2-0.4,0.4-0.4,0.6c0,0.1,0,0.3,0.1,0.4c0.1,0.1,0.2,0.2,0.3,0.3C5.3,14.9,5.4,15,5.6,15
		c0.1,0,0.4,0.1,0.7,0.2c0.4,0.1,0.8,0.2,1.1,0.3C7.7,15.7,8,15.8,8.3,16c0.2,0.2,0.4,0.4,0.6,0.6C9,16.9,9,17.2,9,17.6z"/>
	<path class="st1" d="M13,12.3c0.8,0,1.4,0.2,2,0.5s1,0.8,1.3,1.3c0.3,0.6,0.4,1.3,0.4,2c0,0.6-0.1,1.1-0.2,1.6
		c-0.2,0.5-0.4,0.9-0.7,1.2c-0.3,0.3-0.7,0.6-1.1,0.8c-0.5,0.2-1,0.3-1.6,0.3c-0.6,0-1.1-0.1-1.6-0.3c-0.5-0.2-0.8-0.5-1.1-0.8
		c-0.3-0.3-0.5-0.8-0.7-1.2c-0.2-0.5-0.2-1-0.2-1.6c0-0.6,0.1-1.1,0.2-1.6c0.2-0.5,0.4-0.9,0.7-1.2c0.3-0.3,0.7-0.6,1.1-0.8
		C12,12.4,12.5,12.3,13,12.3z M15.2,16.1c0-0.5-0.1-1-0.3-1.4c-0.2-0.4-0.4-0.7-0.8-0.9c-0.3-0.2-0.7-0.3-1.1-0.3
		c-0.3,0-0.6,0.1-0.8,0.2c-0.3,0.1-0.5,0.3-0.7,0.5c-0.2,0.2-0.3,0.5-0.4,0.8c-0.1,0.3-0.2,0.7-0.2,1.1c0,0.4,0.1,0.8,0.2,1.1
		c0.1,0.3,0.3,0.6,0.5,0.8c0.2,0.2,0.4,0.4,0.7,0.5c0.3,0.1,0.5,0.2,0.8,0.2c0.4,0,0.7-0.1,1.1-0.3c0.3-0.2,0.6-0.5,0.8-0.9
		C15.1,17.2,15.2,16.7,15.2,16.1z"/>
	<path class="st1" d="M21.8,19L21.4,18h-3l-0.4,1c-0.1,0.4-0.3,0.6-0.4,0.8c-0.1,0.1-0.3,0.2-0.5,0.2c-0.2,0-0.4-0.1-0.5-0.2
		c-0.1-0.1-0.2-0.3-0.2-0.5c0-0.1,0-0.2,0.1-0.3c0-0.1,0.1-0.3,0.2-0.5l1.9-4.8c0.1-0.1,0.1-0.3,0.2-0.5c0.1-0.2,0.2-0.4,0.2-0.5
		c0.1-0.1,0.2-0.2,0.3-0.3c0.1-0.1,0.3-0.1,0.5-0.1c0.2,0,0.4,0,0.5,0.1c0.1,0.1,0.3,0.2,0.3,0.3c0.1,0.1,0.2,0.3,0.2,0.4
		s0.1,0.3,0.2,0.6l1.9,4.8c0.2,0.4,0.2,0.6,0.2,0.8c0,0.2-0.1,0.3-0.2,0.5c-0.1,0.1-0.3,0.2-0.5,0.2c-0.1,0-0.2,0-0.3-0.1
		c-0.1,0-0.2-0.1-0.2-0.2S22,19.5,22,19.4C21.9,19.2,21.8,19.1,21.8,19z M18.8,16.9H21l-1.1-3.1L18.8,16.9z"/>
	<path class="st1" d="M26.9,16.9h-1.4V19c0,0.3-0.1,0.5-0.2,0.7c-0.1,0.2-0.3,0.2-0.5,0.2c-0.2,0-0.4-0.1-0.5-0.2
		C24.1,19.6,24,19.3,24,19v-5.7c0-0.3,0.1-0.6,0.2-0.7c0.2-0.1,0.4-0.2,0.7-0.2h1.9c0.6,0,1,0,1.3,0.1c0.3,0.1,0.6,0.2,0.8,0.4
		c0.2,0.2,0.4,0.4,0.5,0.7c0.1,0.3,0.2,0.6,0.2,1c0,0.8-0.2,1.3-0.7,1.7C28.5,16.7,27.8,16.9,26.9,16.9z M26.5,13.5h-1v2.3h1
		c0.4,0,0.7,0,0.9-0.1c0.2-0.1,0.4-0.2,0.5-0.4c0.1-0.2,0.2-0.4,0.2-0.7c0-0.3-0.1-0.6-0.3-0.8C27.6,13.6,27.2,13.5,26.5,13.5z"/>
</g>
</svg>
