<?xml version="1.0" encoding="utf-8"?>
<!-- Generator: Adobe Illustrator 19.2.1, SVG Export Plug-In . SVG Version: 6.00 Build 0)  -->
<svg version="1.1" id="Layer_1" xmlns="http://www.w3.org/2000/svg" xmlns:xlink="http://www.w3.org/1999/xlink" x="0px" y="0px"
	 viewBox="0 0 32 32" style="enable-background:new 0 0 32 32;" xml:space="preserve">
<style type="text/css">
	.st0{fill:#3F3F3F;}
</style>
<title>icon-phonegap</title>
<path class="st0" d="M10.9,20H10v0.5c-0.1,0.7,0.3,1.3,1,1.4c0.1,0,0.2,0,0.3,0h0.1l1.6-0.1c0-0.1,0-0.2,0-0.3
	c0,0-0.2-10.1-0.2-11.3c0-0.2-0.1-0.5-0.2-0.7l-1.5-0.1h-0.2c-0.3,0-0.7,0.1-0.9,0.3c-0.2,0.2-0.3,0.5-0.2,0.8l0,0v0.7l1.4,0.1
	c0.5,0.1,0.9,0.6,0.9,1.1v6.6C12,19.5,11.5,20,10.9,20C10.9,20,10.9,20,10.9,20L10.9,20L10.9,20z M7.9,20.2l-1.6,0.1
	c-0.6,0.1-1.3-0.3-1.4-1c0-0.1,0-0.2,0-0.3c0-1.1-0.1-7.1-0.1-7.1c0-0.6,0.4-1,1-1c0.1,0,0.2,0,0.3,0L7.7,11c0-1,0-1.9-0.1-2.6
	C6.8,8.4,6,8.3,5.4,8.3C3.6,8.1,3.7,9.6,3.7,9.6S3.9,20.7,4,22c0,0.8,0.7,1.4,1.5,1.4c0.1,0,0.2,0,0.3,0l2.2-0.2
	C7.9,22.3,7.9,21.3,7.9,20.2L7.9,20.2L7.9,20.2z M27.1,6.4c0-1.2-0.8-2.2-1.9-2.5c0,0-6.4-1-9.1-1.3c-1.2-0.3-2.3,0.4-2.6,1.6
	c-0.1,0.2-0.1,0.5,0,0.8c0,0,0.6,19.6,0.7,22.1c-0.1,1.3,0.9,2.4,2.1,2.5c0.2,0,0.4,0,0.6,0l9.6-1.6c1.8-0.3,1.8-2.5,1.8-2.5
	S27.2,8.7,27.1,6.4L27.1,6.4z M25,23.1l-7.1,0.7c0,0-2.1,0.3-2.1-2.2c0-1.9-0.4-12.5-0.4-12.5c-0.1-0.9,0.6-1.7,1.5-1.8
	c0.2,0,0.3,0,0.5,0L24.7,8c0.8,0.2,1.4,1,1.5,1.9c0.1,1.8,0.7,11.3,0.7,11.3C26.8,22.2,26,23.1,25,23.1L25,23.1z M17.9,23.5l2.7-0.3
	C20.4,20.4,19.9,9.5,19.9,8l0,0l-2.6-0.2H17c-0.4,0-0.7,0.1-1,0.3c-0.2,0.3-0.4,0.6-0.3,1l0,0c0,0.1,0,0.1,0,0.2l2,0.2
	c0.7,0.2,1.2,0.8,1.2,1.5c0,1.4,0.4,9.1,0.4,9.1c0,0.8-0.6,1.5-1.4,1.6c0,0,0,0-0.1,0l-1.6,0.1c-0.1,0.8,0.5,1.5,1.3,1.6
	c0,0,0,0,0,0L17.9,23.5L17.9,23.5z M13.7,22.1l-2.2,0.2c-0.9,0.1-1.7-0.4-1.9-1.3c0-0.2,0-0.3,0-0.5c0-1.5-0.2-10.1-0.2-10.1
	C9.3,9.6,9.9,9,10.7,8.9c0.1,0,0.3,0,0.4,0l2.1,0.2c-0.1-1.6-0.1-2.9-0.1-3.6l-2.9-0.3c-1-0.3-1.9,0.3-2.2,1.2C8,6.6,8,6.8,8,7.1
	c0,0,0.3,15.8,0.3,17.7c0,1.1,0.9,2,2,2c0.1,0,0.3,0,0.4,0l3-0.4C13.8,25.4,13.7,23.9,13.7,22.1L13.7,22.1L13.7,22.1z"/>
</svg>
