<?xml version="1.0" encoding="utf-8"?>
<!-- Generator: Adobe Illustrator 19.2.1, SVG Export Plug-In . SVG Version: 6.00 Build 0)  -->
<svg version="1.1" id="Layer_1" xmlns="http://www.w3.org/2000/svg" xmlns:xlink="http://www.w3.org/1999/xlink" x="0px" y="0px"
	 viewBox="0 0 32 32" style="enable-background:new 0 0 32 32;" xml:space="preserve">
<style type="text/css">
	.st0{fill:#7AC143;}
	.st1{fill:#FDA148;}
</style>
<g>
	<path class="st0" d="M30.6,0.8H1.4c-0.4,0-0.6,0.3-0.6,0.6v29.1c0,0.4,0.3,0.6,0.6,0.6h29.1c0.4,0,0.6-0.3,0.6-0.6l0-29.1
		C31.2,1.1,30.9,0.8,30.6,0.8L30.6,0.8z M29.9,29.9H2.1V7.1h27.9L29.9,29.9z M29.9,5.9H2.1V2.1h27.9L29.9,5.9z"/>
	<path class="st1" d="M16,23.4c2.7,0,4.9-2.2,4.9-4.9c0-2.7-2.2-4.9-4.9-4.9c-2.7,0-4.9,2.2-4.9,4.9C11.1,21.2,13.3,23.4,16,23.4z
		 M16,14.9c2,0,3.6,1.6,3.6,3.6c0,2-1.6,3.6-3.6,3.6c-2,0-3.6-1.6-3.6-3.6C12.4,16.6,14,14.9,16,14.9z"/>
	<path class="st1" d="M7.1,20.4h1.3c0.2,0.8,0.5,1.5,0.9,2.1l-0.9,0.9c-0.3,0.3-0.3,0.6,0,0.9l1.8,1.8c0.1,0.1,0.3,0.2,0.4,0.2
		c0.2,0,0.3-0.1,0.4-0.2l0.9-0.9c0.6,0.4,1.4,0.7,2.1,0.9v1.3c0,0.4,0.3,0.6,0.6,0.6h2.5c0.4,0,0.6-0.3,0.6-0.6v-1.3
		c0.8-0.2,1.5-0.5,2.1-0.9l0.9,0.9c0.3,0.3,0.6,0.3,0.9,0l1.8-1.8c0.3-0.3,0.3-0.6,0-0.9l-0.9-0.9c0.4-0.6,0.7-1.4,0.9-2.1h1.3
		c0.4,0,0.6-0.3,0.6-0.6v-2.5c0-0.4-0.3-0.6-0.6-0.6h-1.3c-0.2-0.8-0.5-1.5-0.9-2.1l0.9-0.9c0.1-0.1,0.2-0.3,0.2-0.4
		s-0.1-0.3-0.2-0.4l-1.6-1.9c-0.3-0.3-0.6-0.3-0.9,0l-0.9,0.9c-0.6-0.4-1.4-0.7-2.1-0.9V9.7C18,9.3,17.7,9,17.3,9h-2.5
		c-0.4,0-0.6,0.3-0.6,0.6v1.3c-0.8,0.2-1.5,0.5-2.1,0.9l-1-0.9c-0.3-0.3-0.6-0.3-0.9,0l-1.8,1.8c-0.1,0.1-0.2,0.3-0.2,0.4
		c0,0.2,0.1,0.3,0.2,0.4l0.9,0.9c-0.4,0.6-0.7,1.4-0.9,2.1H7.1c-0.4,0-0.6,0.3-0.6,0.6v2.5C6.5,20.2,6.8,20.4,7.1,20.4L7.1,20.4z
		 M7.8,17.9H9c0.3,0,0.6-0.2,0.6-0.5c0.2-0.9,0.5-1.8,1.1-2.6c0.2-0.3,0.1-0.6-0.1-0.8l-0.8-0.8l0.9-0.9l0.8,0.8
		c0.2,0.2,0.6,0.3,0.8,0.1c0.8-0.6,1.6-0.9,2.6-1.1c0.3-0.1,0.5-0.3,0.5-0.6l0-1.1h1.3v1.2c0,0.3,0.2,0.6,0.5,0.6
		c0.9,0.2,1.8,0.5,2.6,1.1c0.3,0.2,0.6,0.1,0.8-0.1l0.8-0.8l0.9,0.9L21.5,14c-0.2,0.2-0.3,0.6-0.1,0.8c0.6,0.8,0.9,1.6,1.1,2.6
		c0.1,0.3,0.3,0.5,0.6,0.5l1.1,0v1.3H23c-0.3,0-0.6,0.2-0.6,0.5c-0.2,0.9-0.5,1.8-1.1,2.6c-0.2,0.3-0.1,0.6,0.1,0.8l0.8,0.8
		l-0.9,0.9L20.5,24c-0.2-0.2-0.6-0.3-0.8-0.1c-0.8,0.6-1.6,0.9-2.6,1.1c-0.3,0.1-0.5,0.3-0.5,0.6l0,1.1h-1.3v-1.2
		c0-0.3-0.2-0.6-0.5-0.6c-0.9-0.2-1.8-0.5-2.6-1.1c-0.3-0.2-0.6-0.1-0.8,0.1l-0.8,0.8l-0.9-0.9l0.8-0.8c0.2-0.2,0.3-0.6,0.1-0.8
		c-0.6-0.8-0.9-1.6-1.1-2.6c-0.1-0.3-0.3-0.5-0.6-0.5H7.8L7.8,17.9z"/>
	<path class="st0" d="M26.1,4.6h1c0.4,0,0.6-0.3,0.6-0.6c0-0.4-0.3-0.6-0.6-0.6l-1,0c-0.4,0-0.6,0.3-0.6,0.6
		C25.5,4.4,25.8,4.6,26.1,4.6z"/>
	<path class="st0" d="M22.4,4.6h1C23.8,4.6,24,4.4,24,4c0-0.4-0.3-0.6-0.6-0.6h-1c-0.4,0-0.6,0.3-0.6,0.6
		C21.8,4.4,22.1,4.6,22.4,4.6z"/>
	<path class="st0" d="M18.7,4.6h1c0.4,0,0.6-0.3,0.6-0.6c0-0.4-0.3-0.6-0.6-0.6h-1C18.3,3.3,18,3.6,18,4C18,4.4,18.3,4.6,18.7,4.6z"
		/>
	<path class="st0" d="M4.9,4.6h10.8c0.4,0,0.6-0.3,0.6-0.6c0-0.4-0.3-0.6-0.6-0.6H4.9C4.5,3.3,4.2,3.6,4.2,4
		C4.2,4.4,4.5,4.6,4.9,4.6z"/>
</g>
</svg>
