<?xml version="1.0" encoding="utf-8"?>
<!-- Generator: Adobe Illustrator 19.2.1, SVG Export Plug-In . SVG Version: 6.00 Build 0)  -->
<svg version="1.1" id="Layer_1" xmlns="http://www.w3.org/2000/svg" xmlns:xlink="http://www.w3.org/1999/xlink" x="0px" y="0px"
	 viewBox="0 0 32 32" style="enable-background:new 0 0 32 32;" xml:space="preserve">
<style type="text/css">
	.st0{fill:#0FA5DA;}
	.st1{fill:#6EB727;stroke:#6EB727;stroke-width:0.8;stroke-miterlimit:10;}
</style>
<path class="st0" d="M11.2,23.1L24,16.5L11.2,10V23.1z"/>
<path class="st1" d="M30.2,13.7l-1.7,0.3c0.1,0.3,0.1,0.7,0.1,1c0.6,5.5-2.6,10.8-7.7,13.1c-3.1,1.3-6.5,1.3-9.7,0s-5.6-3.7-6.9-6.9
	c-1.3-3.1-1.3-6.5,0-9.7C5.6,8.5,8,6,11.2,4.8c5.1-2.1,11-0.7,14.5,3.4l-4-0.2l-0.1,1.7l6.6,0.5l0.5-6.8l-1.7-0.1l-0.2,3.6
	c-4.1-4.5-10.5-6.1-16.3-3.6c-3.5,1.5-6.3,4.3-7.8,7.8c-1.5,3.6-1.4,7.5,0,11.1c1.5,3.5,4.3,6.3,7.8,7.8c1.7,0.7,3.6,1,5.5,1
	s3.7-0.3,5.6-1.2c5.8-2.4,9.4-8.5,8.7-14.8C30.3,14.6,30.2,14.2,30.2,13.7L30.2,13.7z"/>
</svg>
