<?xml version="1.0" encoding="utf-8"?>
<!-- Generator: Adobe Illustrator 19.2.1, SVG Export Plug-In . SVG Version: 6.00 Build 0)  -->
<svg version="1.1" id="Layer_1" xmlns="http://www.w3.org/2000/svg" xmlns:xlink="http://www.w3.org/1999/xlink" x="0px" y="0px"
	 viewBox="0 0 32 32" style="enable-background:new 0 0 32 32;" xml:space="preserve">
<style type="text/css">
	.st0{opacity:0.6;}
	.st1{fill:#FFFFFF;}
</style>
<title>mail</title>
<g id="Forma_1" class="st0">
	<g id="Forma_1-2">
		<path class="st1" d="M29.2,11.1l-8.3-8.3c-1-1-2.6-1-3.6,0L2.8,17.3c-1,1-1,2.6,0,3.6l8.3,8.3c1,1,2.6,1,3.6,0l14.6-14.6
			C30.2,13.7,30.2,12.1,29.2,11.1z M12.6,28.2c-0.1,0-0.2-0.1-0.3-0.2L4,19.8h8.6L12.6,28.2L12.6,28.2z M4.5,18L18,4.5v13.2
			c0,0.2-0.2,0.4-0.4,0.4L4.5,18L4.5,18z M14.3,27.2v-7.5h3.4c1.1,0,2.1-0.9,2.1-2c0,0,0,0,0-0.1v-3.4h7.5L14.3,27.2z M19.8,12.6V4
			l0,0l8.3,8.3c0.1,0.1,0.2,0.2,0.2,0.3H19.8z M2.8,5.6h8.7c0.5,0,0.9-0.3,0.9-0.7c0-0.5-0.3-0.9-0.7-0.9c-0.1,0-0.1,0-0.2,0H2.8
			C2.4,3.9,2,4.2,1.9,4.7c0,0.5,0.3,0.9,0.7,0.9C2.7,5.6,2.8,5.6,2.8,5.6z M2.8,8.9h5.5c0.5,0,0.9-0.3,0.9-0.7
			c0-0.5-0.3-0.9-0.7-0.9c-0.1,0-0.1,0-0.2,0H2.8C2.4,7.2,2,7.6,2,8C2,8.5,2.4,8.9,2.8,8.9L2.8,8.9z M2.8,12h3.5
			c0.5,0,0.8-0.5,0.7-0.9c0-0.4-0.4-0.7-0.7-0.7H2.8C2.6,10.6,3.2,11.4,2.8,12L2.8,12z M6.4,27.2H2.8c-0.5,0-0.9,0.3-0.9,0.7
			c0,0.5,0.3,0.9,0.7,0.9c0.1,0,0.1,0,0.2,0h3.5c0.5,0.1,0.9-0.2,1-0.7c0.1-0.5-0.2-0.9-0.7-1C6.6,27.2,6.5,27.2,6.4,27.2L6.4,27.2z
			"/>
	</g>
</g>
</svg>
