<?xml version="1.0" encoding="utf-8"?>
<!-- Generator: Adobe Illustrator 22.1.0, SVG Export Plug-In . SVG Version: 6.00 Build 0)  -->
<svg version="1.0" id="Layer_1" xmlns="http://www.w3.org/2000/svg" xmlns:xlink="http://www.w3.org/1999/xlink" x="0px" y="0px"
	 viewBox="0 0 32 32" style="enable-background:new 0 0 32 32;" xml:space="preserve">
<style type="text/css">
	.st0{fill-rule:evenodd;clip-rule:evenodd;fill:#7AC043;}
	.st1{fill-rule:evenodd;clip-rule:evenodd;fill:#00A0D6;}
</style>
<g>
	<g id="Rounded_Rectangle_1">
		<g>
			<path class="st0" d="M15,25.1H8.7c-1.5,0-2.8-1.3-2.8-2.8v-14c0-1.5,1.3-2.8,2.8-2.8h9.6c1.5,0,2.8,1.3,2.8,2.8v3.2
				c0.1,0,0.3,0,0.4,0c0.5,0,0.9,0,1.4,0.1V8.3c0-2.5-2-4.5-4.5-4.5H8.6c-2.5,0-4.5,2-4.5,4.5v14c0,2.5,2,4.5,4.5,4.5h8.3
				C16.2,26.3,15.6,25.8,15,25.1z"/>
		</g>
	</g>
	<g id="Rounded_Rectangle_2">
		<g>
			<path class="st0" d="M16.7,8.7h-6.3C10,8.7,9.7,9,9.7,9.4c0,0.4,0.3,0.7,0.7,0.7h6.3c0.4,0,0.7-0.3,0.7-0.7
				C17.3,9,17,8.7,16.7,8.7z"/>
		</g>
	</g>
	<g id="Shape_1">
		<g>
			<path class="st1" d="M27.5,18l-3.2-3.2L23.1,16l2.8,2.8l-2.8,2.8l1.2,1.2l3.2-3.2C27.9,19.1,27.9,18.4,27.5,18z M15.3,14.8L12,18
				c-0.4,0.4-0.4,1.2,0,1.6l3.2,3.2l1.2-1.2l-2.8-2.8l2.8-2.8L15.3,14.8z M18.3,23.3h1.7l1.2-9.1h-1.7L18.3,23.3z"/>
		</g>
	</g>
</g>
</svg>
