<?xml version="1.0" encoding="utf-8"?>
<!-- Generator: Adobe Illustrator 19.2.1, SVG Export Plug-In . SVG Version: 6.00 Build 0)  -->
<svg version="1.1" id="Layer_1" xmlns="http://www.w3.org/2000/svg" xmlns:xlink="http://www.w3.org/1999/xlink" x="0px" y="0px"
	 viewBox="0 0 32 32" style="enable-background:new 0 0 32 32;" xml:space="preserve">
<style type="text/css">
	.st0{display:none;}
	.st1{display:inline;}
	.st2{fill:none;stroke:#006197;stroke-miterlimit:10;}
	.st3{fill:#006197;}
	.st4{fill:#26A9E0;}
	.st5{fill:#6DCEF5;}
	.st6{fill:none;stroke:#006197;stroke-width:1.8;stroke-miterlimit:10;}
</style>
<g class="st0">
	<g class="st1">
		<path class="st2" d="M20.5,25.3c6.2-0.6,11-5.7,11-12c0-6.6-5.4-12-12-12C15,1.3,10.9,3.9,9,7.6c-4.7,0.1-8.5,3.9-8.5,8.6
			s3.9,8.6,8.6,8.6c0.7,0,1.2-0.1,1.9-0.2"/>
	</g>
	<g class="st1">
		<path class="st3" d="M15.7,12.4l1.4,1.6l-6.2,6.2l-1.4-1.6L15.7,12.4z"/>
		<path class="st3" d="M18.2,9.9l1.4,1.6l-1.9,2l-1.4-1.6L18.2,9.9z"/>
	</g>
	<g class="st1">
		<path class="st4" d="M14.6,29.6v-6.4h1v6.4"/>
		<path class="st4" d="M15.2,31.2l3.2-3.7h-6.2L15.2,31.2"/>
	</g>
	<g class="st1">
		<path class="st5" d="M26.3,11.9l-1.6-0.2c-0.1,0-0.2-0.1-0.2-0.2l-0.6-1.4c-0.1-0.2-0.4-0.2-0.6,0l-0.6,1.4
			c-0.1,0.1-0.1,0.2-0.2,0.2L21,11.9c-0.2,0-0.3,0.3-0.2,0.4l1.1,1c0.1,0.1,0.1,0.2,0.1,0.2l-0.4,1.4c-0.1,0.2,0.2,0.4,0.4,0.3
			l1.3-0.7c0.1-0.1,0.2-0.1,0.2,0l1.3,0.7c0.2,0.1,0.4-0.1,0.4-0.3L25,13.5c0-0.1,0-0.2,0.1-0.2l1.1-1
			C26.6,12.1,26.5,11.9,26.3,11.9z"/>
		<path class="st5" d="M23.8,6.5l-1.3-0.1c-0.1,0-0.2-0.1-0.2-0.2l-0.4-1.1c-0.1-0.2-0.3-0.2-0.4,0L21,6.3c0,0.1,0,0.1-0.2,0.1
			l-1.2,0.1c-0.2,0-0.2,0.2-0.1,0.4l1,0.8c0.1,0.1,0.1,0.2,0.1,0.2L20.3,9c-0.1,0.2,0.2,0.4,0.3,0.2l1.1-0.6c0.1-0.1,0.2-0.1,0.2,0
			L23,9.2c0.2,0.1,0.4-0.1,0.3-0.2l-0.4-1c0-0.1,0-0.2,0.1-0.2L24,7C24.2,6.8,24,6.5,23.8,6.5z"/>
		<path class="st5" d="M18.8,5.4l-1-0.1c-0.1,0-0.1-0.1-0.2-0.1l-0.4-0.8c-0.1-0.2-0.2-0.2-0.3,0l-0.4,0.8c0,0.1-0.1,0.1-0.2,0.1
			l-1,0.1c-0.2,0-0.2,0.2-0.1,0.3L16,6.4c0.1,0.1,0.1,0.1,0.1,0.2l-0.2,0.9c-0.1,0.2,0.1,0.2,0.2,0.2l0.8-0.6C17,7,17,7,17.1,7.1
			l0.8,0.6c0.2,0.1,0.3-0.1,0.2-0.2l-0.2-0.9c0-0.1,0-0.1,0.1-0.2l0.7-0.7C19.1,5.6,19,5.4,18.8,5.4z"/>
		<path class="st5" d="M15.1,7.3l-0.8-0.1c-0.1,0-0.1-0.1-0.1-0.1l-0.3-0.7c-0.1-0.1-0.2-0.1-0.2,0l-0.3,0.7c0,0.1-0.1,0.1-0.1,0.1
			l-0.8,0.1c-0.1,0-0.2,0.2-0.1,0.2L13,8.1c0.1,0,0.1,0.1,0.1,0.1L12.7,9c-0.1,0.1,0.1,0.2,0.2,0.2l0.7-0.4c0.1-0.1,0.1-0.1,0.2,0
			l0.7,0.4c0.1,0.1,0.2-0.1,0.2-0.2l-0.2-0.7c0-0.1,0-0.1,0.1-0.2l0.6-0.6C15.4,7.5,15.2,7.3,15.1,7.3z"/>
		<path class="st5" d="M13.3,10.4l-0.7-0.1c-0.1,0-0.1-0.1-0.1-0.1l-0.2-0.6c-0.1-0.1-0.2-0.1-0.2,0l-0.2,0.6c0,0.1-0.1,0.1-0.1,0.1
			l-0.7,0.1c-0.1,0-0.2,0.2-0.1,0.2l0.4,0.4c0.1,0.1,0.1,0.1,0.1,0.1l-0.2,0.6c0,0.1,0.1,0.2,0.2,0.1l0.6-0.3c0.1,0,0.1,0,0.1,0
			l0.6,0.3c0.1,0.1,0.2-0.1,0.2-0.1l-0.2-0.6c0-0.1,0-0.1,0.1-0.1l0.4-0.4C13.4,10.5,13.3,10.4,13.3,10.4z"/>
	</g>
</g>
<g>
	<path class="st6" d="M9.6,26.6l10.6,0.4c5.7-0.6,10.2-5.3,10.2-11.1c0-6.1-5-11.1-11.1-11.1c-4.2,0.1-7.9,2.5-9.6,5.8
		c-4.4,0.1-7.9,3.5-7.9,8C1.6,22.9,5.2,26.6,9.6,26.6"/>
</g>
</svg>
