<?xml version="1.0" encoding="utf-8"?>
<!-- Generator: Adobe Illustrator 19.2.1, SVG Export Plug-In . SVG Version: 6.00 Build 0)  -->
<svg version="1.1" id="Layer_1" xmlns="http://www.w3.org/2000/svg" xmlns:xlink="http://www.w3.org/1999/xlink" x="0px" y="0px"
	 viewBox="0 0 24.1 22.5" style="enable-background:new 0 0 24.1 22.5;" xml:space="preserve">
<style type="text/css">
	.st0{fill:none;stroke:#1E2128;stroke-miterlimit:10;}
	.st1{fill:#0289AD;}
</style>
<title>icon-raml</title>
<g id="Rounded_Rectangle_1-2">
	<g id="Rounded_Rectangle_1-3">
		<path class="st0" d="M5.8,3.3h12.5c1.3,0,2.3,1,2.3,2.3v11.3c0,1.3-1,2.3-2.3,2.3H5.8c-1.3,0-2.3-1-2.3-2.3V5.6
			C3.5,4.3,4.6,3.3,5.8,3.3z"/>
	</g>
	<g id="Rounded_Rectangle_1-4">
		<path class="st1" d="M13.5,6H7l0.6,1h5.7c1,0,1.9,0.8,1.9,1.9v0.9c0,1-0.8,1.9-1.9,1.9l0,0h-1.2c-0.1,0-0.2,0-0.3,0h-1.5l0.5,0.9
			h0.7l2.3,3.9c0.2,0.2,0.5,0.3,0.7,0.2c0.3-0.1,0.4-0.4,0.2-0.7c0,0,0,0,0,0l0,0l-2-3.4h0.7c1.4,0,2.6-1.2,2.6-2.6V8.6
			C16.1,7.1,14.9,6,13.5,6C13.5,6,13.5,6,13.5,6L13.5,6L13.5,6z"/>
	</g>
</g>
</svg>
