<?xml version="1.0" encoding="utf-8"?>
<!-- Generator: Adobe Illustrator 19.2.1, SVG Export Plug-In . SVG Version: 6.00 Build 0)  -->
<svg version="1.1" id="Layer_1" xmlns="http://www.w3.org/2000/svg" xmlns:xlink="http://www.w3.org/1999/xlink" x="0px" y="0px"
	 viewBox="0 0 32 32" style="enable-background:new 0 0 32 32;" xml:space="preserve">
<style type="text/css">
	.st0{display:none;}
	.st1{display:inline;}
	.st2{fill:#8CC348;}
	.st3{fill:none;stroke:#F26627;stroke-miterlimit:10;}
</style>
<g id="Layer_1_1_" class="st0">
	<g id="Forma_1" class="st1">
		<g>
			<path class="st2" d="M29.3,9.4h-6c-0.5,0-0.9-0.4-0.9-0.9V2.7c0-0.5-0.4-0.9-0.9-0.9h-6.3c-0.7,0-1.3,0.6-1.3,1.3v4.6l0,0
				l5.1,5.1c0.4,0.4,0.6,1,0.6,1.5l0,0v8.8h9.1c0.7,0,1.3-0.6,1.3-1.3V10.3l0,0C30.2,9.8,29.8,9.4,29.3,9.4z M24.6,7.8h5.1
				c0.4,0,0.6-0.5,0.3-0.7L24.9,2c-0.3-0.3-0.7-0.1-0.7,0.3v5.1C24.2,7.6,24.4,7.8,24.6,7.8z M17.1,16.6H14h-2.8
				c-0.5,0-0.9-0.4-0.9-0.9v-1.3V9.7c0-0.5-0.4-0.9-0.9-0.9H3.1c-0.7,0-1.3,0.6-1.3,1v18.7c0,0.3,0,0.5,0.1,0.7
				c0.2,0.6,0.7,0.9,1.2,0.9h13.6c0.7,0,1.3-0.6,1.3-1.3v-5.7v-5.7C18,17,17.6,16.6,17.1,16.6z M14,10.1L12.8,9
				c-0.1-0.1-0.2-0.1-0.3-0.1c-0.2,0-0.4,0.2-0.4,0.4v5.1c0,0.2,0.2,0.4,0.4,0.4H14h3.6c0.3,0,0.4-0.2,0.4-0.4c0-0.1,0-0.2-0.1-0.3
				L14,10.1z"/>
		</g>
	</g>
</g>
<g id="Layer_1_copy">
	<g id="Forma_1_2_">
		<g>
			<path class="st3" d="M30.4,8.9h-6.5c-0.5,0-1-0.4-1-1V1.6c0-0.5-0.4-1-1-1h-6.8c-0.8,0-1.4,0.6-1.4,1.4v5l0,0l5.5,5.5
				c0.4,0.4,0.6,1.1,0.6,1.6l0,0v9.5h9.9c0.8,0,1.4-0.6,1.4-1.4V9.8l0,0C31.4,9.3,30.9,8.9,30.4,8.9z M25.3,7.1h5.5
				c0.4,0,0.6-0.5,0.3-0.8l-5.5-5.5c-0.3-0.3-0.8-0.1-0.8,0.3v5.5C24.9,6.9,25.1,7.1,25.3,7.1z M17.2,16.7h-3.4h-3c-0.5,0-1-0.4-1-1
				v-1.4V9.2c0-0.5-0.4-1-1-1H2c-0.8,0-1.4,0.6-1.4,1.1v20.2c0,0.3,0,0.5,0.1,0.8c0.2,0.6,0.8,1,1.3,1h14.7c0.8,0,1.4-0.6,1.4-1.4
				v-6.2v-6.2C18.2,17.1,17.7,16.7,17.2,16.7z M13.8,9.6l-1.3-1.2c-0.1-0.1-0.2-0.1-0.3-0.1c-0.2,0-0.4,0.2-0.4,0.4v5.5
				c0,0.2,0.2,0.4,0.4,0.4h1.6h3.9c0.3,0,0.4-0.2,0.4-0.4c0-0.1,0-0.2-0.1-0.3L13.8,9.6z"/>
		</g>
	</g>
</g>
</svg>
