<?xml version="1.0" encoding="utf-8"?>
<!-- Generator: Adobe Illustrator 19.2.1, SVG Export Plug-In . SVG Version: 6.00 Build 0)  -->
<svg version="1.0" id="Layer_1" xmlns="http://www.w3.org/2000/svg" xmlns:xlink="http://www.w3.org/1999/xlink" x="0px" y="0px"
	 viewBox="0 0 32 32" style="enable-background:new 0 0 32 32;" xml:space="preserve">
<style type="text/css">
	.st0{enable-background:new    ;}
	.st1{fill:#87D050;}
	.st2{fill:#FFFFFF;}
	.st3{fill:#00A2D9;}
</style>
<g id="Background_xA0_Image_1_">
</g>
<g id="Rectangle_1_1_" class="st0">
</g>
<g id="Rectangle_1_copy_1_" class="st0">
</g>
<g id="Rectangle_1_copy_2_1_" class="st0">
</g>
<g id="Rectangle_1_copy_3_1_" class="st0">
	<g>
		<g id="Rectangle_1">
			<g>
				<rect x="3" y="16.6" class="st1" width="12.1" height="6.4"/>
			</g>
		</g>
		<g id="Rectangle_1_copy">
			<g>
				<rect x="4.3" y="17.9" class="st2" width="24" height="3.8"/>
			</g>
		</g>
		<g>
			<g id="Rectangle_1_copy_2">
				<g>
					<rect x="3" y="7.8" class="st3" width="25.9" height="6.4"/>
				</g>
			</g>
			<path class="st3" d="M29,19.6c0-0.1-0.1-0.3-0.1-0.3l-3.3-3.5c-0.2-0.2-0.4-0.2-0.6,0c-0.2,0.2-0.2,0.4,0,0.6l2.7,2.8H17.2
				c-0.3,0-0.4,0.2-0.4,0.4s0.2,0.4,0.4,0.4h10.4L24.9,23c-0.2,0.2-0.2,0.4,0,0.6c0.2,0.2,0.4,0.2,0.6,0l3.3-3.5
				C29,19.8,29,19.7,29,19.6z"/>
			<g id="Rectangle_1_copy_3">
				<g>
					<rect x="4.3" y="9" class="st2" width="23.4" height="3.8"/>
				</g>
			</g>
		</g>
	</g>
</g>
</svg>
