<?xml version="1.0" encoding="utf-8"?>
<!-- Generator: Adobe Illustrator 19.2.1, SVG Export Plug-In . SVG Version: 6.00 Build 0)  -->
<svg version="1.1" id="Layer_1" xmlns="http://www.w3.org/2000/svg" xmlns:xlink="http://www.w3.org/1999/xlink" x="0px" y="0px"
	 viewBox="0 0 32 32" style="enable-background:new 0 0 32 32;" xml:space="preserve">
<style type="text/css">
	.st0{fill:#00A2D8;}
	.st1{fill:none;stroke:#FFFFFF;stroke-miterlimit:10;}
	.st2{fill:#FFFFFF;}
</style>
<circle class="st0" cx="24" cy="25.5" r="6.2"/>
<path class="st0" d="M25.5,0H6.6C4.5,0,3.1,1.6,3.1,3.5v25c0,1.9,1.6,3.5,3.5,3.5h12c-1.9-1.6-3-4-3-6.7c0-5,3.8-8.8,8.8-8.8
	c1.8,0,3.4,0.5,4.6,1.4V3.2C29,1.6,27.5,0,25.5,0z M16,17H6.9c-0.3,0-0.6-0.5-0.6-1.1c0-0.5,0.2-1.1,0.6-1.1H16
	c0.3,0,0.6,0.5,0.6,1.1C16.5,16.7,16.2,17,16,17z M23.1,12H7.2c-0.5,0-1.1-0.5-1.1-1.1s0.5-1.1,1.1-1.1H23c0.5,0,1.1,0.5,1.1,1.1
	S23.5,12,23.1,12z M23.1,6.9H7.2c-0.5,0-1.1-0.5-1.1-1.1c0-0.5,0.5-1.1,1.1-1.1H23c0.5,0,1.1,0.5,1.1,1.1S23.5,6.9,23.1,6.9z"/>
<g>
	<g>
		<path class="st1" d="M21.5,21.6c0,0,3.7-1.6,4.5,0.8c0.7,2.4-2.9,2.1-2.7,4.9"/>
	</g>
	
		<ellipse transform="matrix(0.9972 -7.441065e-02 7.441065e-02 0.9972 -2.1074 1.8296)" class="st2" cx="23.5" cy="29.2" rx="1.1" ry="1.1"/>
</g>
</svg>
