<?xml version="1.0" encoding="utf-8"?>
<!-- Generator: Adobe Illustrator 19.2.1, SVG Export Plug-In . SVG Version: 6.00 Build 0)  -->
<svg version="1.1" xmlns="http://www.w3.org/2000/svg" xmlns:xlink="http://www.w3.org/1999/xlink" x="0px" y="0px"
	 viewBox="0 0 32 32" style="enable-background:new 0 0 32 32;" xml:space="preserve">
<style type="text/css">
	.st0{enable-background:new    ;}
	.st1{fill-rule:evenodd;clip-rule:evenodd;fill:#8DC63F;}
</style>
<g id="Ellipse_1_1_" class="st0">
</g>
<g id="Rounded_Rectangle_1_copy_1_" class="st0">
	<g>
		<g id="Ellipse_1">
			<g>
				<path class="st1" d="M16,0C7.2,0,0,7.2,0,16s7.2,16,16,16s16-7.2,16-16S24.8,0,16,0z M16,28.8C8.9,28.8,3.2,23.1,3.2,16
					S8.9,3.2,16,3.2S28.8,8.9,28.8,16S23.1,28.8,16,28.8z"/>
			</g>
		</g>
		<g id="Rounded_Rectangle_1_copy">
			<g>
				<path class="st1" d="M22.4,11.9l-0.7-0.6c-0.4-0.4-1-0.3-1.4,0.1l-5.8,6.5l-2.9-2.6c-0.4-0.4-1-0.3-1.4,0.1l-0.6,0.7
					c-0.4,0.4-0.3,1,0.1,1.4l3.3,2.9c0.1,0.1,0.1,0.1,0.2,0.1c0,0.1,0.1,0.1,0.1,0.2l0.7,0.6c0.4,0.4,1,0.3,1.4-0.1l7.1-8
					C22.8,12.8,22.8,12.2,22.4,11.9z"/>
			</g>
		</g>
	</g>
</g>
</svg>
