<?xml version="1.0" encoding="utf-8"?>
<!-- Generator: Adobe Illustrator 19.2.1, SVG Export Plug-In . SVG Version: 6.00 Build 0)  -->
<svg version="1.1" xmlns="http://www.w3.org/2000/svg" xmlns:xlink="http://www.w3.org/1999/xlink" x="0px" y="0px"
	 viewBox="0 0 16 16" style="enable-background:new 0 0 16 16;" xml:space="preserve">
<style type="text/css">
	.st0{enable-background:new    ;}
	.st1{fill-rule:evenodd;clip-rule:evenodd;fill:#FFFFFF;}
	.st2{fill:#8D8C8C;}
	.st3{fill-rule:evenodd;clip-rule:evenodd;fill:#8D8C8C;}
</style>
<g id="Rounded_Rectangle_1_1_" class="st0">
	<g id="Rounded_Rectangle_1">
		<g>
			<path class="st1" d="M3,15.5c-1.4,0-2.5-1.1-2.5-2.5V3c0-1.4,1.1-2.5,2.5-2.5h10c1.4,0,2.5,1.1,2.5,2.5v10c0,1.4-1.1,2.5-2.5,2.5
				H3z"/>
		</g>
		<g>
			<path class="st2" d="M13,1c1.1,0,2,0.9,2,2v10c0,1.1-0.9,2-2,2H3c-1.1,0-2-0.9-2-2V3c0-1.1,0.9-2,2-2H13 M13,0H3C1.3,0,0,1.3,0,3
				v10c0,1.7,1.3,3,3,3h10c1.7,0,3-1.3,3-3V3C16,1.3,14.7,0,13,0L13,0z"/>
		</g>
	</g>
</g>
<g id="Rectangle_1_1_" class="st0">
	<g id="Rectangle_1">
		<g>
			<path class="st3" d="M13,5H9C8.8,3.6,7.7,2.5,6.2,2.5c-1.5,0-2.8,1.2-2.8,2.8S4.7,8,6.2,8c1.3,0,2.3-0.8,2.6-2H13V5z M6.2,6.9
				c-0.9,0-1.7-0.7-1.7-1.7s0.7-1.7,1.7-1.7s1.7,0.7,1.7,1.7S7.2,6.9,6.2,6.9z"/>
		</g>
	</g>
</g>
<g id="Rectangle_1_copy_1_" class="st0">
	<g id="Rectangle_1_copy">
		<g>
			<path class="st3" d="M10.2,8C9,8,7.9,8.8,7.6,10H3.5v1h4c0.1,1.4,1.3,2.5,2.7,2.5c1.5,0,2.8-1.2,2.8-2.8S11.8,8,10.2,8z
				 M10.2,12.4c-0.9,0-1.7-0.7-1.7-1.7s0.7-1.7,1.7-1.7s1.7,0.7,1.7,1.7S11.2,12.4,10.2,12.4z"/>
		</g>
	</g>
</g>
</svg>
