<?xml version="1.0" encoding="utf-8"?>
<!-- Generator: Adobe Illustrator 19.2.1, SVG Export Plug-In . SVG Version: 6.00 Build 0)  -->
<svg version="1.1" id="Layer_1" xmlns="http://www.w3.org/2000/svg" xmlns:xlink="http://www.w3.org/1999/xlink" x="0px" y="0px"
	 viewBox="0 0 24 24" style="enable-background:new 0 0 24 24;" xml:space="preserve">
<style type="text/css">
	.st0{fill:#0086F1;}
	.st1{fill:#00A859;}
	.st2{fill:#FFBC26;}
	.st3{fill:#FE4234;}
</style>
<title>icon-google</title>
<g id="red">
	<g id="blue-3">
		<rect x="12.5" y="10.1" class="st0" width="6.2" height="3.9"/>
	</g>
	<g id="blue-4">
		<path class="st0" d="M21.8,10.1h-3.9c0.2,0.6,0.3,1.2,0.3,1.9c0,2-1,4-2.6,5.2l3.1,2.5c2.1-2,3.4-4.7,3.3-7.7
			C22,11.4,21.9,10.8,21.8,10.1z"/>
	</g>
	<g id="green-2">
		<path class="st1" d="M12.1,22.1c2.4,0,4.7-0.9,6.5-2.5l-3-2.6c-1,0.7-2.2,1.2-3.5,1.2c-2.7,0-5.1-1.8-5.9-4.3l-3.1,2.6
			C4.8,19.9,8.3,22.1,12.1,22.1z"/>
	</g>
	<g id="yellow-2">
		<path class="st2" d="M3.1,7.5C2.4,8.9,2,10.5,2,12c0,1.6,0.4,3.1,1.2,4.5l3.2-2.4c-0.6-1.3-0.6-2.8-0.2-4.3L3.1,7.5z"/>
	</g>
	<g id="red-2">
		<path class="st3" d="M6.2,10c1.1-3.2,4.5-4.9,7.7-3.8c0.8,0.3,1.5,0.7,2.1,1.2l2.8-2.8C14.8,0.9,8.6,1,4.9,4.9
			C4.2,5.6,3.5,6.5,3.1,7.5L6.2,10z"/>
	</g>
</g>
</svg>
