<?xml version="1.0" encoding="utf-8"?>
<!-- Generator: Adobe Illustrator 21.0.2, SVG Export Plug-In . SVG Version: 6.00 Build 0)  -->
<svg version="1.1" id="Layer_1" xmlns="http://www.w3.org/2000/svg" xmlns:xlink="http://www.w3.org/1999/xlink" x="0px" y="0px"
	 viewBox="0 0 32 32" style="enable-background:new 0 0 32 32;" xml:space="preserve">
<style type="text/css">
	.st0{fill:none;stroke:#00A2D8;stroke-width:2;stroke-miterlimit:10;}
	.st1{fill:#FC6621;}
</style>
<g>
	<g>
		<path class="st0" d="M22.5,24.2h2.6c3.1,0,5.6-2.5,5.6-5.6s-2.1-5.6-5-5.6c0-0.3,0-0.3,0-0.9c0-2.1-1.6-3.8-3.4-3.8
			c-0.9,0-2.1,0.3-2.5,0.9c-1.3-2.5-2.3-5-6.4-5c-5.1,0.1-7.5,3.9-7.5,7.9c0,0.3,0,0.3,0,0.6c-2.5,0.6-4.7,2.8-4.7,5.6
			c0,3.1,2.3,5.6,5.6,5.6h1.2"/>
		<path class="st0" d="M13.1,24.6"/>
	</g>
	<g>
		<path class="st1" d="M15.8,26.3c0.1,0,0.2-0.1,0.3-0.1c0.1-0.1,0.1-0.2,0.1-0.3V20c0-0.2-0.2-0.4-0.4-0.4c-0.2,0-0.4,0.2-0.4,0.4
			v5.9C15.3,26.1,15.5,26.3,15.8,26.3z"/>
		<path class="st1" d="M15.7,16.6c-0.8,0-1.6,0.3-2.1,0.9c-0.6,0.6-0.9,1.4-0.9,2.1v2.1c0,0.2,0.2,0.4,0.4,0.4s0.4-0.2,0.4-0.4v-2.1
			c0-0.6,0.2-1.1,0.6-1.5c0.4-0.4,1-0.6,1.5-0.6c0.6,0,1.1,0.2,1.5,0.6s0.6,1,0.6,1.5v2.1c0,0.2,0.2,0.4,0.4,0.4
			c0.1,0,0.2-0.1,0.3-0.1c0.1-0.1,0.1-0.2,0.1-0.3v-2.1c0-0.8-0.3-1.6-0.9-2.1C17.3,16.9,16.5,16.6,15.7,16.6z"/>
		<path class="st1" d="M17.9,24.1v2.1c0,0.6-0.2,1.1-0.6,1.5s-1,0.6-1.5,0.6c-1.2,0-2.1-1-2.1-2.1V24c0-0.2-0.2-0.4-0.4-0.4
			s-0.4,0.2-0.4,0.4v2.1c0,1.7,1.4,3,3,2.9c0.8,0,1.6-0.3,2.1-0.9c0.6-0.6,0.9-1.4,0.9-2.1v-2.1c0-0.2-0.2-0.4-0.4-0.4
			C18.1,23.7,17.9,23.9,17.9,24.1z"/>
	</g>
</g>
</svg>
