<?xml version="1.0" encoding="utf-8"?>
<!-- Generator: Adobe Illustrator 19.2.1, SVG Export Plug-In . SVG Version: 6.00 Build 0)  -->
<svg version="1.0" xmlns="http://www.w3.org/2000/svg" xmlns:xlink="http://www.w3.org/1999/xlink" x="0px" y="0px"
	 viewBox="0 0 32 32" style="enable-background:new 0 0 32 32;" xml:space="preserve">
<style type="text/css">
	.st0{enable-background:new    ;}
	.st1{fill-rule:evenodd;clip-rule:evenodd;fill:#005D9A;}
	.st2{fill-rule:evenodd;clip-rule:evenodd;fill:#FFFFFF;}
</style>
<g id="Ellipse_1_copy_1_" class="st0">
	<g id="Ellipse_1_copy">
		<g>
			<circle class="st1" cx="16" cy="16" r="15.5"/>
		</g>
	</g>
</g>
<g id="Rounded_Rectangle_5_1_" class="st0">
	<g id="Rounded_Rectangle_5">
		<g>
			<path class="st2" d="M20,9.8H8.4c-0.5,0-0.8,0.4-0.8,0.8c0,0.5,0.4,0.8,0.8,0.8H20c0.5,0,0.8-0.4,0.8-0.8
				C20.8,10.2,20.5,9.8,20,9.8z M8.4,14.1h6.1c0.5,0,0.8-0.4,0.8-0.8v0c0-0.5-0.4-0.8-0.8-0.8H8.4c-0.5,0-0.8,0.4-0.8,0.8v0
				C7.6,13.7,8,14.1,8.4,14.1z M8.4,16.7h4.7c0.5,0,0.8-0.4,0.8-0.8c0-0.5-0.4-0.8-0.8-0.8H8.4c-0.5,0-0.8,0.4-0.8,0.8
				C7.6,16.3,8,16.7,8.4,16.7z M8.4,19.3h4.7c0.5,0,0.8-0.4,0.8-0.8c0-0.5-0.4-0.8-0.8-0.8H8.4c-0.5,0-0.8,0.4-0.8,0.8
				C7.6,18.9,8,19.3,8.4,19.3z M15.8,20.2H8.4c-0.5,0-0.8,0.4-0.8,0.8v0c0,0.5,0.4,0.8,0.8,0.8h7.3c0.5,0,0.8-0.4,0.8-0.8v0
				C16.6,20.6,16.2,20.2,15.8,20.2z"/>
		</g>
	</g>
</g>
<g id="search_copy_4_1_" class="st0">
	<g id="search_copy_4">
		<g>
			<path class="st2" d="M24.2,21.1l-1.4-1.6c0.7-0.8,1.2-1.8,1.2-3c0-2.4-2-4.4-4.4-4.4s-4.4,2-4.4,4.4s2,4.4,4.4,4.4
				c0.8,0,1.5-0.2,2.1-0.6l1.4,1.6c0.2,0.2,0.5,0.2,0.7,0l0.2-0.2C24.3,21.6,24.3,21.3,24.2,21.1z M16.3,16.6c0-1.8,1.5-3.3,3.3-3.3
				c1.8,0,3.3,1.5,3.3,3.3c0,1.8-1.5,3.3-3.3,3.3C17.8,19.8,16.3,18.4,16.3,16.6z"/>
		</g>
	</g>
</g>
</svg>
