<?xml version="1.0" encoding="utf-8"?>
<!-- Generator: Adobe Illustrator 19.2.1, SVG Export Plug-In . SVG Version: 6.00 Build 0)  -->
<svg version="1.1" id="Layer_1" xmlns="http://www.w3.org/2000/svg" xmlns:xlink="http://www.w3.org/1999/xlink" x="0px" y="0px"
	 viewBox="0 0 32 32" style="enable-background:new 0 0 32 32;" xml:space="preserve">
<style type="text/css">
	.st0{fill:#009DDC;}
</style>
<g>
	<g>
		<path class="st0" d="M21.5,20.5c1.9-2,3-4.8,3-7.7c0-6.3-5.1-11.4-11.4-11.4S1.8,6.5,1.8,12.7s5.1,11.4,11.4,11.4
			c2.6,0,4.9-0.8,6.8-2.3l8.5,8.5c0.2,0.2,0.5,0.3,0.7,0.3s0.5-0.1,0.7-0.3c0.4-0.4,0.4-1,0-1.5L21.5,20.5z M3.8,12.7
			c0-5.1,4.2-9.3,9.3-9.3c5.1,0,9.3,4.2,9.3,9.3s-4.2,9.3-9.3,9.3S3.8,17.9,3.8,12.7z"/>
	</g>
</g>
</svg>
