<?xml version="1.0" encoding="utf-8"?>
<!-- Generator: Adobe Illustrator 19.2.1, SVG Export Plug-In . SVG Version: 6.00 Build 0)  -->
<svg version="1.1" id="Layer_1" xmlns="http://www.w3.org/2000/svg" xmlns:xlink="http://www.w3.org/1999/xlink" x="0px" y="0px"
	 viewBox="0 0 32 32" style="enable-background:new 0 0 32 32;" xml:space="preserve">
<style type="text/css">
	.st0{fill:#2C7DA9;}
</style>
<g>
	<path class="st0" d="M29.7,24h-8v8L29.7,24z"/>
	<path class="st0" d="M29.7,2.3c0-1.1-1.1-2.2-2.2-2.2H4.3c-1.1,0-2.2,1.1-2.2,2.2v27.6c0,1.1,1.1,2.2,2.2,2.2h15v-9.3
		c0-0.7,0.7-1.1,1.1-1.1h9.8L29.7,2.3L29.7,2.3z M4.3,4.2h11.9v2.6H4.3V4.2z M4.3,10.7h11.9v2.6H4.3V10.7z M16.5,25.5H4.5v-2.6h11.9
		V25.5z M27.1,18.8H4.5v-2.6h22.6V18.8z M27.1,13.5h-8V4.2h8V13.5z"/>
</g>
</svg>
