<?xml version="1.0" encoding="utf-8"?>
<!-- Generator: Adobe Illustrator 19.2.1, SVG Export Plug-In . SVG Version: 6.00 Build 0)  -->
<svg version="1.1" id="Layer_1" xmlns="http://www.w3.org/2000/svg" xmlns:xlink="http://www.w3.org/1999/xlink" x="0px" y="0px"
	 viewBox="0 0 32 32" style="enable-background:new 0 0 32 32;" xml:space="preserve">
<style type="text/css">
	.st0{fill:#8EC44A;}
	.st1{fill-rule:evenodd;clip-rule:evenodd;fill:#009CDB;}
	.st2{fill-rule:evenodd;clip-rule:evenodd;fill:#FFFFFF;}
</style>
<g>
	<path class="st0" d="M6.5,4.5l-5.2,9c-0.4,0.7-0.6,1.6-0.6,2.5s0.2,1.8,0.6,2.5l5.2,9c0.8,1.4,2.7,2.5,4.4,2.5h10.4
		c1.6,0,3.5-1.1,4.4-2.5l5.2-9c0.4-0.7,0.6-1.6,0.6-2.5s-0.2-1.8-0.6-2.5l-5.2-9c-1-1.4-2.9-2.5-4.5-2.5H10.8C9.2,2,7.3,3.1,6.5,4.5
		L6.5,4.5z M20.9,4.1c1.1,0,2.5,0.8,3,1.8l4.9,8.4c0.3,0.5,0.4,1.1,0.4,1.8c0,0.7-0.1,1.3-0.4,1.8l-4.9,8.4c-0.6,1-1.9,1.8-3,1.8
		h-9.7c-1.1,0-2.5-0.8-3-1.8l-4.9-8.4C3,17.3,2.8,16.7,2.8,16c0-0.7,0.1-1.3,0.4-1.8l4.9-8.4c0.6-1,1.9-1.8,3-1.8L20.9,4.1L20.9,4.1
		z"/>
</g>
<g>
	<g id="Shape_5">
		<g>
			<polygon class="st1" points="16.6,12.1 13.3,13.9 13.7,14.4 16.7,12.7 			"/>
		</g>
	</g>
	<g id="Shape_4">
		<g>
			<polygon class="st1" points="13.9,17.9 13.5,18.3 17.1,20.2 17.2,19.7 			"/>
		</g>
	</g>
	<g id="Shape_1">
		<g>
			<polygon class="st1" points="10.5,11.9 6.9,14 6.9,18.1 10.6,20 14,18.1 14,14 			"/>
		</g>
	</g>
	<g id="Shape_2">
		<g>
			<polygon class="st2" points="7.5,14.7 7.5,17.8 10.2,19.3 10.2,16.2 			"/>
		</g>
	</g>
	<g id="Shape_3">
		<g>
			<polygon class="st2" points="10.8,16.2 10.8,19.3 13.5,17.7 13.5,14.7 			"/>
		</g>
	</g>
	<g id="Shape_1_copy">
		<g>
			<polygon class="st1" points="20.7,16.8 17.1,19 17.1,23.1 20.7,25 24.1,23.1 24.1,19 			"/>
		</g>
	</g>
	<g id="Shape_2_copy">
		<g>
			<polygon class="st2" points="17.6,19.7 17.6,22.8 20.4,24.3 20.4,21.2 			"/>
		</g>
	</g>
	<g id="Shape_3_copy">
		<g>
			<polygon class="st2" points="20.9,21.2 20.9,24.2 23.7,22.7 23.7,19.7 			"/>
		</g>
	</g>
	<g id="Shape_1_copy_2">
		<g>
			<polygon class="st1" points="20,7 16.5,9.2 16.5,13.2 20.1,15.2 23.5,13.2 23.5,9.1 			"/>
		</g>
	</g>
	<g id="Shape_2_copy_2">
		<g>
			<polygon class="st2" points="17,9.8 17,12.9 19.7,14.4 19.8,11.3 			"/>
		</g>
	</g>
	<g id="Shape_3_copy_2">
		<g>
			<polygon class="st2" points="20.3,11.4 20.3,14.4 23.1,12.9 23.1,9.8 			"/>
		</g>
	</g>
</g>
</svg>
