<?xml version="1.0" encoding="utf-8"?>
<!-- Generator: Adobe Illustrator 21.0.0, SVG Export Plug-In . SVG Version: 6.00 Build 0)  -->
<svg version="1.1" id="Layer_1" xmlns="http://www.w3.org/2000/svg" xmlns:xlink="http://www.w3.org/1999/xlink" x="0px" y="0px"
	 viewBox="0 0 32 32" style="enable-background:new 0 0 32 32;" xml:space="preserve">
<style type="text/css">
	.st0{fill:#9E9E9E;}
	.st1{enable-background:new    ;}
</style>
<path class="st0" d="M31.2,30.4c0.2-0.2,0.2-0.5,0.1-0.7c-0.9-2.6-1.9-5.5-2-6.2c1.3-2.3,2-4.9,2-7.5c0-8.5-6.9-15.3-15.3-15.3
	C7.5,0.7,0.7,7.5,0.7,16S7.5,31.3,16,31.3c3,0,5.8-0.8,8.3-2.4l6.3,1.7C30.9,30.7,31.1,30.6,31.2,30.4z M24.5,27.7
	c-0.2-0.1-0.5-0.1-0.7,0c-2.3,1.6-5,2.3-7.8,2.3C8.2,30.1,1.9,23.8,1.9,16S8.2,2,16,2s14.1,6.3,14.1,14c0,2.5-0.7,4.9-2,7.1
	c-0.2,0.3-0.3,0.5,1.6,5.9L24.5,27.7z"/>
<g class="st1">
	<path class="st0" d="M6.7,15c1.2,0,1.4-0.7,1.4-1.3c0-0.5-0.1-1-0.1-1.4c-0.1-0.5-0.1-0.9-0.1-1.4c0-1.6,1-2.2,2.5-2.2h0.4v0.9
		h-0.3C9.3,9.6,9,10.1,9,11c0,0.4,0.1,0.8,0.1,1.2c0.1,0.4,0.1,0.8,0.1,1.3c0,1.1-0.5,1.6-1.2,1.8v0c0.8,0.2,1.2,0.8,1.2,1.9
		c0,0.5-0.1,0.9-0.1,1.3C9,19,9,19.4,9,19.8c0,1,0.4,1.5,1.3,1.5h0.3v0.9h-0.4c-1.4,0-2.5-0.6-2.5-2.3c0-0.5,0.1-0.9,0.1-1.4
		C8,18,8.1,17.6,8.1,17.1c0-0.5-0.2-1.3-1.4-1.3V15z"/>
</g>
<path class="st0" d="M13,14.8c-0.5,0-0.9,0.4-0.9,0.9c0,0.5,0.4,0.9,0.9,0.9s0.9-0.4,0.9-0.9C13.9,15.2,13.5,14.8,13,14.8z"/>
<path class="st0" d="M16.2,14.8c-0.5,0-0.9,0.4-0.9,0.9c0,0.5,0.4,0.9,0.9,0.9s0.9-0.4,0.9-0.9C17.1,15.2,16.7,14.8,16.2,14.8z"/>
<path class="st0" d="M19.4,14.8c-0.5,0-0.9,0.4-0.9,0.9c0,0.5,0.4,0.9,0.9,0.9s0.9-0.4,0.9-0.9C20.3,15.2,19.9,14.8,19.4,14.8z"/>
<g class="st1">
	<path class="st0" d="M26,15.8c-1.2,0-1.4,0.7-1.4,1.3c0,0.5,0.1,0.9,0.1,1.4s0.1,0.9,0.1,1.4c0,1.7-1.1,2.3-2.5,2.3h-0.4v-0.9h0.3
		c1,0,1.4-0.5,1.4-1.5c0-0.4-0.1-0.8-0.1-1.2c-0.1-0.4-0.1-0.8-0.1-1.3c0-1.1,0.5-1.7,1.2-1.9v0c-0.7-0.2-1.2-0.7-1.2-1.8
		c0-0.5,0.1-0.9,0.1-1.3c0.1-0.4,0.1-0.8,0.1-1.2c0-0.9-0.4-1.4-1.3-1.5h-0.3V8.6h0.3c1.4,0,2.5,0.7,2.5,2.2c0,0.5-0.1,0.9-0.1,1.4
		c-0.1,0.5-0.1,1-0.1,1.4c0,0.6,0.2,1.3,1.4,1.3V15.8z"/>
</g>
</svg>
