<?xml version="1.0" encoding="utf-8"?>
<!-- Generator: Adobe Illustrator 19.2.1, SVG Export Plug-In . SVG Version: 6.00 Build 0)  -->
<svg version="1.1" id="Layer_1" xmlns="http://www.w3.org/2000/svg" xmlns:xlink="http://www.w3.org/1999/xlink" x="0px" y="0px"
	 viewBox="0 0 30.6 26" style="enable-background:new 0 0 30.6 26;" xml:space="preserve">
<style type="text/css">
	.st0{fill:#FFFFFF;}
</style>
<title>icon-service</title>
<g id="service_icon_copy">
	<g id="service_icon_copy-2">
		<path class="st0" d="M29.1,4.6h-1V3H23v1.6h-2v-3c0-0.9-0.8-1.6-1.7-1.6h-8c-0.9,0-1.6,0.7-1.6,1.6l0,0v3h-2V3H2.5v1.6h-1
			C0.7,4.6,0,5.3,0,6.1c0,0,0,0,0,0v18.4C0,25.3,0.7,26,1.5,26h27.5c0.9,0,1.5-0.7,1.5-1.5v0V6.1C30.6,5.3,29.9,4.6,29.1,4.6
			L29.1,4.6z M24,4.1H27v0.5h-3L24,4.1L24,4.1z M10.7,1.6C10.7,1.3,11,1,11.3,1h8c0.3,0,0.6,0.3,0.6,0.6v0v3h-9.2V1.6z M3.6,4.1h3.1
			v0.5H3.6V4.1z M4.1,25H1.5C1.3,25,1,24.8,1,24.5l0,0V6.1c0-0.3,0.2-0.5,0.5-0.5h2.5V25z M25.5,25H5.1V5.6h20.4
			C25.5,5.6,25.5,25,25.5,25z M29.6,24.5c0,0.3-0.2,0.5-0.5,0.5l0,0h-2.5V5.6h2.5c0.3,0,0.5,0.2,0.5,0.5v0L29.6,24.5L29.6,24.5z"/>
	</g>
</g>
</svg>
