<?xml version="1.0" encoding="utf-8"?>
<!-- Generator: Adobe Illustrator 19.2.1, SVG Export Plug-In . SVG Version: 6.00 Build 0)  -->
<svg version="1.1" id="Capa_1" xmlns="http://www.w3.org/2000/svg" xmlns:xlink="http://www.w3.org/1999/xlink" x="0px" y="0px"
	 viewBox="0 0 32 32" style="enable-background:new 0 0 32 32;" xml:space="preserve">
<style type="text/css">
	.st0{fill:#789CA8;}
</style>
<g>
	<g id="Add">
		<g>
			<path class="st0" d="M20.9,14h-3v-3c0-1.1-0.9-2-2-2s-2,0.9-2,2v3h-3c-1.1,0-2,0.9-2,2s0.9,2,2,2h3v3c0,1.1,0.9,2,2,2s2-0.9,2-2
				v-3h3c1.1,0,2-0.9,2-2S22,14,20.9,14z M16,0.2C7.3,0.2,0.2,7.3,0.2,16S7.3,31.8,16,31.8S31.8,24.7,31.8,16S24.7,0.2,16,0.2z
				 M16,28.9C8.9,28.9,3.1,23.1,3.1,16S8.9,3.1,16,3.1S28.9,8.9,28.9,16S23.1,28.9,16,28.9z"/>
		</g>
	</g>
</g>
</svg>
