<svg id="Layer_1" data-name="Layer 1" xmlns="http://www.w3.org/2000/svg" viewBox="0 0 25.71 31.22"><defs><style>.cls-1{fill:none;stroke:#9e9e9e;stroke-miterlimit:10;stroke-width:2px;}</style></defs><title>icon-unlink-inactive</title><line class="cls-1" x1="11.27" y1="0.69" x2="14.17" y2="6.19"/><line class="cls-1" x1="22.97" y1="2.09" x2="18.27" y2="6.79"/><line class="cls-1" x1="17.17" y1="0.09" x2="16.57" y2="6.79"/><path class="cls-1" d="M15,9.9L13.8,8.4c-1.5-2-3.8-2.6-5.6-1.5L5.3,9.6c-1.5,1.5-1.5,3.5-.3,5.6l6.4,8.5A4.54,4.54,0,0,0,17,25.2l2.9-2.3c1.5-1.2,1.5-3.5.3-5.6L19.4,16" transform="translate(-3.13 -0.41)"/><path class="cls-1" d="M15.6,19.5l-0.3-2.9a4.6,4.6,0,0,1,2.6-5l3.8-.9c2-.3,3.8,1.5,4.1,3.5l2,10.5c0.3,2.6-.9,4.4-2.6,5l-3.8.9c-2,.3-3.8-1.5-4.1-3.5h0" transform="translate(-3.13 -0.41)"/></svg>