<?xml version="1.0" encoding="utf-8"?>
<!-- Generator: Adobe Illustrator 19.2.1, SVG Export Plug-In . SVG Version: 6.00 Build 0)  -->
<svg version="1.1" id="Layer_1" xmlns="http://www.w3.org/2000/svg" xmlns:xlink="http://www.w3.org/1999/xlink" x="0px" y="0px"
	 viewBox="0 0 32 32" style="enable-background:new 0 0 32 32;" xml:space="preserve">
<style type="text/css">
	.st0{fill:#00A3D7;}
	.st1{fill:#8EC44A;}
</style>
<title>custom-data-adapter</title>
<g id="Forma_1">
	<g id="Forma_1-2">
		<path class="st0" d="M31,1c-0.5-0.5-1.3-0.5-1.8,0c0,0,0,0,0,0l-2.5,2.5c-2.6-1.7-6-1.4-8.1,0.8L14.8,8c-0.5,0.5-0.5,1.3,0,1.8
			c0,0,0,0,0,0l7.3,7.3c0.5,0.5,1.3,0.5,1.8,0c0,0,0,0,0,0l3.7-3.7c2.2-2.2,2.5-5.6,0.8-8.2L31,2.8C31.5,2.3,31.4,1.5,31,1z
			 M25.8,11.7l-2.8,2.7l-5.5-5.5l2.7-2.8c1.5-1.5,4-1.5,5.5,0C27.4,7.7,27.4,10.2,25.8,11.7z"/>
	</g>
</g>
<g id="Forma_1_copy">
	<g id="Forma_1_copy-2">
		<path class="st1" d="M18.6,17.2c-0.5-0.5-1.3-0.5-1.8,0c0,0,0,0,0,0l0,0l-2.4,2.4l-2-2l2.4-2.4c0.5-0.5,0.5-1.3,0-1.8
			c-0.5-0.5-1.3-0.5-1.8,0l-2.4,2.4l-0.9-0.9c-0.5-0.5-1.3-0.5-1.8,0c0,0,0,0,0,0l-3.7,3.7c-2.2,2.2-2.5,5.6-0.8,8.2l-2.5,2.5
			c-0.4,0.6-0.3,1.4,0.3,1.8c0.4,0.3,1,0.3,1.5,0l2.5-2.5c2.6,1.7,6,1.4,8.1-0.8l3.7-3.7c0.5-0.5,0.5-1.3,0-1.8c0,0,0,0,0,0
			l-0.9-0.9l2.4-2.4C19.1,18.5,19.1,17.7,18.6,17.2z M11.6,25.9c-1.6,1.5-4.1,1.4-5.5-0.2c-1.4-1.5-1.4-3.8,0-5.3l0,0l2.8-2.7
			l5.5,5.5L11.6,25.9z"/>
	</g>
</g>
</svg>
