<svg id="Layer_1" data-name="Layer 1" xmlns="http://www.w3.org/2000/svg" viewBox="0 0 29.34 31"><defs><style>.cls-1{fill:#9e9e9e;}.cls-2{fill:none;stroke:#9e9e9e;stroke-width:1.5px;}</style></defs><title>icon-edit-inactive</title><g id="Shape_2" data-name="Shape 2"><path class="cls-1" d="M22.5,2.4l6.1,5.7-2.3,2.5L20.2,4.9l2.3-2.5m0-2.1L18.2,5l8.3,7.7L30.8,8,22.5,0.3h0Z" transform="translate(-1.46 -0.3)"/></g><g id="Shape_2_copy" data-name="Shape 2 copy"><path class="cls-1" d="M18.8,6.5l6.1,5.7L13.4,24.6,7.3,18.9,18.8,6.5M18.7,4.4L5.2,19l8.3,7.7L27,12,18.7,4.4h0Z" transform="translate(-1.46 -0.3)"/></g><g id="Shape_1" data-name="Shape 1"><path class="cls-1" d="M6.2,21.3l4.9,4.5L3.6,29l2.6-7.7M5.5,18.6l-4,12.1s-0.2.6,0.3,0.6H2.1l11.7-5L5.5,18.6h0Z" transform="translate(-1.46 -0.3)"/></g><line class="cls-2" x1="5.64" y1="28.5" x2="2.24" y2="25.4"/><line class="cls-2" x1="7.94" y1="22.6" x2="21.34" y2="8"/></svg>