<svg xmlns="http://www.w3.org/2000/svg" viewBox="0 0 35.2 35.2"><defs><style>.cls-1{isolation:isolate;}.cls-2{fill:#fff;fill-rule:evenodd;}</style></defs><title>icon-tick</title><g id="Forma_1" data-name="Forma 1" class="cls-1"><g id="Forma_1-2" data-name="Forma 1"><path class="cls-2" d="M27.71,12.35L15.66,25.67l-3.8-4.2a1.1,1.1,0,1,0-1.63,1.48l4.43,4.89a1.08,1.08,0,0,0,.89.47l0.12,0,0.08,0a1.13,1.13,0,0,0,.86-0.4L29.34,13.82A1.1,1.1,0,1,0,27.71,12.35ZM20,2.4A17.6,17.6,0,1,0,37.6,20,17.62,17.62,0,0,0,20,2.4Zm0,33A15.4,15.4,0,1,1,35.4,20,15.42,15.42,0,0,1,20,35.4Z" transform="translate(-2.4 -2.4)"/></g></g></svg>