<?xml version="1.0" encoding="utf-8"?>
<!-- Generator: Adobe Illustrator 22.1.0, SVG Export Plug-In . SVG Version: 6.00 Build 0)  -->
<svg version="1.0" id="Layer_1" xmlns="http://www.w3.org/2000/svg" xmlns:xlink="http://www.w3.org/1999/xlink" x="0px" y="0px"
	 viewBox="0 0 32 32" style="enable-background:new 0 0 32 32;" xml:space="preserve">
<style type="text/css">
	.st0{fill-rule:evenodd;clip-rule:evenodd;fill:#7AC043;}
	.st1{fill-rule:evenodd;clip-rule:evenodd;fill:#00A0D6;}
</style>
<g id="Rounded_Rectangle_1_copy">
	<g>
		<path class="st0" d="M20.1,26.1H5.8c-1.4,0-2.5-1.3-2.5-2.8v-14c0-1.5,1.1-2.8,2.5-2.8H23c1.4,0,2.5,1.3,2.5,2.8v3.2
			c0.1,0,0.2,0,0.4,0c0.4,0,0.8,0,1.2,0.1V9.3c0-2.5-1.8-4.5-4-4.5H5.7c-2.2,0-4,2-4,4.5v14c0,2.5,1.8,4.5,4,4.5h16.1
			C21.1,27.3,20.6,26.8,20.1,26.1z"/>
	</g>
</g>
<g id="Rounded_Rectangle_2_copy">
	<g>
		<path class="st0" d="M26.5,12H3.4c-0.4,0-0.6,0.3-0.6,0.7c0,0.4,0.3,0.7,0.6,0.7h23.1c0.4,0,0.6-0.3,0.6-0.7
			C27.1,12.3,26.8,12,26.5,12z"/>
	</g>
</g>
<g id="Shape_1_2_">
	<g>
		<path class="st1" d="M30.5,19l-3.2-3.2L26.1,17l2.8,2.8l-2.8,2.8l1.2,1.2l3.2-3.2C30.9,20.1,30.9,19.4,30.5,19z M18.3,15.8L15,19
			c-0.4,0.4-0.4,1.2,0,1.6l3.2,3.2l1.2-1.2l-2.8-2.8l2.8-2.8L18.3,15.8z M21.3,24.3h1.7l1.2-9.1h-1.7L21.3,24.3z"/>
	</g>
</g>
</svg>
