<?xml version="1.0" encoding="utf-8"?>
<!-- Generator: Adobe Illustrator 19.2.1, SVG Export Plug-In . SVG Version: 6.00 Build 0)  -->
<svg version="1.1" xmlns="http://www.w3.org/2000/svg" xmlns:xlink="http://www.w3.org/1999/xlink" x="0px" y="0px"
	 viewBox="0 0 32 32" style="enable-background:new 0 0 32 32;" xml:space="preserve">
<style type="text/css">
	.st0{fill:none;stroke:#79B743;stroke-width:2;stroke-miterlimit:10;}
	.st1{fill:none;stroke:#5DA044;stroke-width:2;stroke-miterlimit:10;}
	.st2{fill:#79B743;}
</style>
<g id="Layer_1">
	<g>
		<path class="st0" d="M23.2,30l-0.8,0.8c-0.3,0-11.4,0-11.4,0c-1.7,0-3.8-1.7-3.8-3.8h-1c-1.7,0-3.4-1.7-3.4-3.4V5
			c0-1.7,1.7-3.8,3.8-3.8h14.1c1.7,0,3.8,1.7,3.8,3.8h1c1.7,0,3.8,1.7,3.8,3.8v14.8"/>
		<path class="st1" d="M7.6,27.4V8.8C7.6,7,9.3,5,11.3,5c0,0,11.7,0,13.1,0"/>
	</g>
</g>
<g id="Layer_2">
	<path class="st2" d="M25.6,22.2L20,16.5c0.5-0.7,0.7-1.6,0.7-2.5c0-1.3-0.5-2.5-1.4-3.4c-0.9-0.9-2.1-1.4-3.4-1.4
		c-1.3,0-2.5,0.5-3.4,1.4c-0.9,0.9-1.4,2.1-1.4,3.4s0.5,2.5,1.4,3.4c0.9,0.9,2.1,1.4,3.4,1.4h0c0.9,0,1.8-0.3,2.5-0.7l4.9,4.9
		l-1.8,1.8c-0.4,0.4-0.4,1.1,0,1.5c0.2,0.2,0.5,0.3,0.8,0.3c0.3,0,0.6-0.1,0.8-0.3l1.8-1.8l1.1,1.1l-2,2c-0.4,0.4-0.4,1.1,0,1.5
		c0.2,0.2,0.5,0.3,0.8,0.3c0.3,0,0.6-0.1,0.8-0.3l3.6-3.6L25.6,22.2z M15.9,16.6c-0.7,0-1.4-0.3-1.8-0.8c-0.5-0.5-0.8-1.1-0.8-1.8
		s0.3-1.3,0.7-1.8c0.5-0.5,1.1-0.7,1.8-0.7c0.7,0,1.4,0.3,1.8,0.8c0.5,0.5,0.8,1.1,0.8,1.8s-0.3,1.3-0.7,1.8
		C17.3,16.3,16.6,16.6,15.9,16.6z"/>
</g>
</svg>
