<?xml version="1.0" encoding="utf-8"?>
<!-- Generator: Adobe Illustrator 19.2.1, SVG Export Plug-In . SVG Version: 6.00 Build 0)  -->
<svg version="1.1" id="Layer_3" xmlns="http://www.w3.org/2000/svg" xmlns:xlink="http://www.w3.org/1999/xlink" x="0px" y="0px"
	 viewBox="0 0 32 32" style="enable-background:new 0 0 32 32;" xml:space="preserve">
<style type="text/css">
	.st0{fill:none;stroke:#9D9D9D;stroke-width:0.8;stroke-miterlimit:10;}
</style>
<g id="Forma_1_2_">
	<g>
		<g id="Forma_1-2_8_">
			<g>
				<path class="st0" d="M19,30.8c-0.9,0-1.6-0.7-1.6-1.6v-4.4h-2.9v4.4c0,0.9-0.7,1.6-1.6,1.6h-0.1c-0.9,0-1.6-0.7-1.6-1.6v-4.4
					H9.3c-0.1,0-0.2,0-0.2,0c-0.7,0-1.3-0.7-1.3-1.4V11.3h16.4v12.1c0,0.8-0.7,1.4-1.5,1.4h-2v4.4C20.7,30.1,20,30.8,19,30.8
					L19,30.8z M27.1,22c-0.9,0-1.6-0.7-1.6-1.6v-7.8c0-0.9,0.7-1.6,1.7-1.6c0.9,0,1.6,0.7,1.6,1.6v7.8c0,0.9-0.7,1.6-1.6,1.6H27.1z
					 M4.8,22c-0.9,0-1.6-0.7-1.6-1.6v-7.8c0-0.9,0.7-1.6,1.7-1.6c0.9,0,1.6,0.7,1.6,1.6v7.8c0,0.9-0.7,1.6-1.6,1.6H4.8z M7.7,10.1
					V9.8c0.1-2.6,1.7-4.9,4.2-6l0.2-0.1l-1.5-2.4c0,0,0-0.1,0.1-0.2l0,0.2l1.6,2.3l0.1-0.1C13.5,3.2,14.8,3,16,3
					c1.2,0,2.4,0.2,3.5,0.7l0.2,0.1l1.6-2.4l0.1-0.1l0.1,0.1l0.1,0l-0.1,0.1l-1.5,2.4l0.2,0.1c2.4,1.1,4,3.4,4.1,6v0.3H7.7z
					 M12.1,5.6c-0.5,0-1,0.5-1,1s0.5,1,1,1c0,0,0.1,0,0.1,0c0.5,0,0.9-0.5,0.9-1C13.1,6.1,12.6,5.6,12.1,5.6z M19.9,5.6
					c-0.5,0-1,0.5-1,1s0.5,1,1,1c0.6,0,1-0.4,1-1C20.9,6.1,20.4,5.6,19.9,5.6z"/>
			</g>
		</g>
	</g>
</g>
</svg>
