<?xml version="1.0" encoding="utf-8"?>
<!-- Generator: Adobe Illustrator 19.2.1, SVG Export Plug-In . SVG Version: 6.00 Build 0)  -->
<svg version="1.1" id="Layer_1" xmlns="http://www.w3.org/2000/svg" xmlns:xlink="http://www.w3.org/1999/xlink" x="0px" y="0px"
	 viewBox="0 0 32 32" style="enable-background:new 0 0 32 32;" xml:space="preserve">
<style type="text/css">
	.st0{fill:none;stroke:#DB424D;stroke-width:2;stroke-miterlimit:10;}
</style>
<g>
	<path class="st0" d="M28,9c0.9,0,1.4-0.9,1.4-2S28.5,5,28,5h-1.4h-0.3H26h-4.9c0-2-1.4-3.4-3.4-3.4h-3.4c-2,0-3.4,1.4-3.4,3.4H6
		H5.7H5.4H4C3.1,5,2,5.9,2,7s0.9,2,2,2l0,0v19.5c0,0,0,0,0,0.3c0,0.6,0.3,0.9,0.6,1.4c0.3,0.3,0.6,0.6,0.9,0.6s0.3,0,0.3,0h20.7
		c0.9,0,1.4-0.9,1.4-2c0-0.3,0-0.3,0-0.3L28,9L28,9L28,9z"/>
</g>
<line class="st0" x1="18.7" y1="14.8" x2="18.7" y2="24.5"/>
<line class="st0" x1="13.3" y1="14.8" x2="13.3" y2="24.5"/>
<line class="st0" x1="4.8" y1="9" x2="28" y2="9"/>
</svg>
