<?xml version="1.0" encoding="utf-8"?>
<!-- Generator: Adobe Illustrator 19.2.1, SVG Export Plug-In . SVG Version: 6.00 Build 0)  -->
<svg version="1.1" id="Layer_1" xmlns="http://www.w3.org/2000/svg" xmlns:xlink="http://www.w3.org/1999/xlink" x="0px" y="0px"
	 viewBox="0 0 32 32" style="enable-background:new 0 0 32 32;" xml:space="preserve">
<style type="text/css">
	.st0{fill:#8CC348;}
</style>
<title>copied</title>
<g id="Forma_1">
	<path class="st0" d="M31,8.6h-6.8c-0.5,0-1-0.4-1-1c0,0,0,0,0,0V1c0-0.5-0.4-1-1-1l0,0h-7.1c-0.8,0-1.5,0.7-1.5,1.5v5.2l0,0
		l5.7,5.8c0.5,0.5,0.7,1.1,0.7,1.7l0,0v10h10.3c0.8,0,1.5-0.7,1.5-1.5v-13l0,0C32,9,31.5,8.6,31,8.6z M25.8,6.7h5.7
		c0.3,0,0.5-0.2,0.5-0.5c0-0.2-0.1-0.3-0.2-0.4l-5.7-5.8c-0.2-0.2-0.5-0.2-0.7,0c-0.1,0.1-0.1,0.2-0.1,0.3v5.8
		C25.2,6.5,25.4,6.7,25.8,6.7C25.7,6.7,25.7,6.7,25.8,6.7z M17.3,16.7h-6.8c-0.5,0-1-0.4-1-1V8.9c0-0.5-0.4-1-1-1H1.5
		C0.8,7.9,0.2,8.4,0,9v21.2c0,0.3,0,0.5,0.1,0.8c0.2,0.6,0.7,1,1.3,1h15.3c0.8,0,1.5-0.7,1.5-1.5V17.6
		C18.3,17.1,17.8,16.6,17.3,16.7L17.3,16.7z M13.7,9.4l-1.4-1.3C12.3,8,12.2,7.9,12,7.9c-0.3,0-0.5,0.2-0.5,0.5v5.8
		c0,0.3,0.2,0.5,0.5,0.5c0,0,0,0,0,0h5.7c0.3,0,0.5-0.2,0.5-0.5c0,0,0,0,0-0.1c0-0.1,0-0.3-0.1-0.4L13.7,9.4z"/>
</g>
</svg>
