<?xml version="1.0" encoding="utf-8"?>
<!-- Generator: Adobe Illustrator 19.2.1, SVG Export Plug-In . SVG Version: 6.00 Build 0)  -->
<svg version="1.1" id="Capa_1" xmlns="http://www.w3.org/2000/svg" xmlns:xlink="http://www.w3.org/1999/xlink" x="0px" y="0px"
	 viewBox="0 0 32 32" style="enable-background:new 0 0 32 32;" xml:space="preserve">
<style type="text/css">
	.st0{fill:#9E9E9E;}
</style>
<g>
	<g id="data">
		<path class="st0" d="M16,0.3c-6.6,0-13.8,2-13.8,6.4v18.7c0,4.4,7.1,6.4,13.8,6.4s13.8-2,13.8-6.4V6.7C29.8,2.3,22.6,0.3,16,0.3z
			 M27.8,25.3c0,2.4-5.3,4.4-11.8,4.4s-11.8-2-11.8-4.4v-3.7c2,2.1,6.9,3.2,11.8,3.2s9.8-1.1,11.8-3.2V25.3z M27.8,19.4L27.8,19.4
			C27.8,19.4,27.8,19.5,27.8,19.4c0,2.5-5.3,4.4-11.8,4.4s-11.8-2-11.8-4.4c0,0,0,0,0,0h0v-3.7c2,2.1,6.9,3.2,11.8,3.2
			s9.8-1.1,11.8-3.2V19.4z M27.8,13.5L27.8,13.5C27.8,13.6,27.8,13.6,27.8,13.5C27.8,16,22.5,18,16,18S4.2,16,4.2,13.6c0,0,0,0,0,0
			h0v-3.4c2.6,2,7.3,2.9,11.8,2.9s9.2-0.9,11.8-2.9V13.5z M16,11.1c-6.5,0-11.8-2-11.8-4.4c0-2.4,5.3-4.4,11.8-4.4s11.8,2,11.8,4.4
			C27.8,9.1,22.5,11.1,16,11.1z"/>
		<circle class="st0" cx="24.8" cy="25.8" r="1"/>
		<circle class="st0" cx="24.8" cy="19.9" r="1"/>
		<circle class="st0" cx="24.8" cy="14" r="1"/>
	</g>
</g>
</svg>
