<?xml version="1.0" encoding="utf-8"?>
<!-- Generator: Adobe Illustrator 19.2.1, SVG Export Plug-In . SVG Version: 6.00 Build 0)  -->
<svg version="1.1" id="Layer_1" xmlns="http://www.w3.org/2000/svg" xmlns:xlink="http://www.w3.org/1999/xlink" x="0px" y="0px"
	 viewBox="0 0 32 32" style="enable-background:new 0 0 32 32;" xml:space="preserve">
<style type="text/css">
	.st0{fill:#B0AF90;}
	.st1{fill:#008F3F;}
	.st2{fill:#36A440;}
</style>
<title>icon-mongo-db</title>
<g id="Shape_2">
	<g id="Shape_2-2">
		<path class="st0" d="M15.7,23.6l-1.4,1.2L14,26.9c0.3,0.2,0.5,0.5,0.7,0.9c0,0.5,0.2,2.3,0.2,2.3v0.7l1.2,0.5v-3.5
			c0-0.3,0.2-0.7,0.5-0.9C16.6,25.9,16.2,24.8,15.7,23.6z"/>
	</g>
</g>
<g id="Shape_1">
	<g id="Shape_1-2">
		<path class="st1" d="M21.5,10.4c-1.2-2.8-3-5.4-5-7.7c-0.7-0.5-1-1.2-1-2.1v1.9c0,0.9,0.2,4,0.2,5s-0.2,16.3-0.2,16.3
			s0.3,1,0.3,1.7c0.2,0.5,0.5,0.9,0.9,1.2c1.9-1.6,3.5-3.7,4.5-5.9C22.3,18,22,12.5,21.5,10.4z"/>
	</g>
</g>
<g id="Shape_1_copy">
	<g id="Shape_1_copy-2">
		<path class="st2" d="M15.6,0.6c0,0.9-0.5,1.6-1,2.3c-2.1,2.1-3.8,4.7-5,7.5C8.9,12.5,8.4,18,9.8,21c1,2.3,2.6,4.3,4.5,5.9
			c0.5-0.2,0.7-0.7,0.9-1.2c0.2-0.7,0.3-1.7,0.3-1.7S15.4,8.6,15.4,7.6s0.2-4.2,0.2-5S15.6,0.6,15.6,0.6z"/>
	</g>
</g>
</svg>
