<?xml version="1.0" encoding="utf-8"?>
<!-- Generator: Adobe Illustrator 19.2.1, SVG Export Plug-In . SVG Version: 6.00 Build 0)  -->
<svg version="1.1" id="Layer_1" xmlns="http://www.w3.org/2000/svg" xmlns:xlink="http://www.w3.org/1999/xlink" x="0px" y="0px"
	 viewBox="0 0 32 32" style="enable-background:new 0 0 32 32;" xml:space="preserve">
<style type="text/css">
	.st0{fill:none;stroke:#1B75BB;stroke-miterlimit:10;}
	.st1{fill:#2C7DA9;}
	.st2{fill:none;stroke:#949393;stroke-miterlimit:10;}
	.st3{fill:#949393;}
</style>
<g>
	<path class="st0" d="M22,7.6"/>
	<path class="st0" d="M22,23.1"/>
	<path class="st0" d="M22,7.6V2c0-0.9-0.7-1.5-1.5-1.5H6.3C5.5,0.5,4.8,1.1,4.8,2v2.2h16.5H4.8L4.7,29.9c0,0.9,0.3,1.6,1.2,1.6h14.3
		c0.9,0,1.5-0.7,1.5-1.5v-3.5H5.2h16.5v-4.1"/>
	<circle class="st1" cx="13.3" cy="29.6" r="0.7"/>
	<g>
		<path class="st1" d="M9.4,7.1H13v3.7H9.4V7.1z"/>
		<path class="st1" d="M9.4,13.2H13v3.7H9.4V13.2z"/>
		<path class="st1" d="M9.4,19.1H13v3.7H9.4V19.1z"/>
		<path class="st1" d="M18.5,8.2h7.2c1.1,0,2.6,1.5,2.6,2.6v8.5c0,1.1-1.5,2.4-2.6,2.4h-7.2c-1.1,0-2-1.5-2-2.4v-8.5
			C16.3,9.5,17.6,8.2,18.5,8.2z"/>
	</g>
	<g>
		<path class="st0" d="M22,7.6"/>
		<path class="st0" d="M22,23.1"/>
		<path class="st2" d="M22,7.6V2c0-0.9-0.7-1.5-1.5-1.5H6.3C5.5,0.5,4.8,1.1,4.8,2v2.2h16.5H4.8L4.7,29.9c0,0.9,0.3,1.6,1.2,1.6
			h14.3c0.9,0,1.5-0.7,1.5-1.5v-3.5H5.2h16.5v-4.1"/>
		<circle class="st3" cx="13.3" cy="29.6" r="0.7"/>
		<g>
			<path class="st3" d="M9.4,7.1H13v3.7H9.4V7.1z"/>
			<path class="st3" d="M9.4,13.2H13v3.7H9.4V13.2z"/>
			<path class="st3" d="M9.4,19.1H13v3.7H9.4V19.1z"/>
			<path class="st3" d="M18.5,8.2h7.2c1.1,0,2.6,1.5,2.6,2.6v8.5c0,1.1-1.5,2.4-2.6,2.4h-7.2c-1.1,0-2-1.5-2-2.4v-8.5
				C16.3,9.5,17.6,8.2,18.5,8.2z"/>
		</g>
	</g>
</g>
</svg>
