<?xml version="1.0" encoding="utf-8"?>
<!-- Generator: Adobe Illustrator 19.2.1, SVG Export Plug-In . SVG Version: 6.00 Build 0)  -->
<svg version="1.1" id="Layer_1" xmlns="http://www.w3.org/2000/svg" xmlns:xlink="http://www.w3.org/1999/xlink" x="0px" y="0px"
	 viewBox="0 0 32 32" style="enable-background:new 0 0 32 32;" xml:space="preserve">
<style type="text/css">
	.st0{fill:#F8DC3D;}
	.st1{fill:#323330;}
</style>
<title>icon-javascript</title>
<rect x="2.9" y="3" class="st0" width="26.1" height="26"/>
<path class="st1" d="M20.7,24.1c0.4,0.9,1.3,1.4,2.3,1.4c0.7,0.1,1.4-0.3,1.6-1.1c0,0,0,0,0-0.1c0-0.8-0.6-1.1-1.7-1.6l-0.6-0.2
	c-1.7-0.7-2.8-1.6-2.8-3.5c0-1.7,1.4-3.1,3.2-3.1c0.1,0,0.2,0,0.3,0c1.4-0.1,2.7,0.6,3.4,1.9l-1.8,1.2c-0.2-0.6-0.9-1-1.5-1
	c-0.5-0.1-1,0.3-1.1,0.9c0,0,0,0.1,0,0.1c0,0.7,0.4,1,1.5,1.4l0.6,0.2c2,0.9,3.1,1.7,3.1,3.7c0,2.1-1.7,3.3-3.9,3.3
	c-1.8,0.1-3.5-0.8-4.3-2.4L20.7,24.1z M12.4,24.3c0.2,0.7,0.8,1.2,1.5,1.2c0.8,0,1.3-0.3,1.3-1.5v-8h2.4v8c0.2,1.8-1.1,3.3-2.8,3.5
	c-0.2,0-0.5,0-0.7,0c-1.5,0.1-2.9-0.8-3.5-2.1L12.4,24.3z"/>
</svg>
