<svg id="Layer_1" data-name="Layer 1" xmlns="http://www.w3.org/2000/svg" viewBox="0 0 29.3 21.7"><defs><style>.cls-1{fill:#fff;stroke:#998776;stroke-miterlimit:10;}.cls-2{fill:#f9a452;}</style></defs><title>icon-zip</title><path class="cls-1" d="M19.74,4.79V4.39H29a0.79,0.79,0,0,1,.8.8v16.6a0.79,0.79,0,0,1-.8.8H2.44a0.88,0.88,0,0,1-.9-0.8v-0.9h0V2.79a0.9,0.9,0,0,1,.9-0.9h11.4a0.87,0.87,0,0,1,.7.5l1,1.7a0.87,0.87,0,0,0,.7.5h3.9V5" transform="translate(-1.04 -1.39)"/><rect class="cls-2" x="23.3" y="5.2" width="1.9" height="0.9"/><rect class="cls-2" x="23.4" y="7.5" width="1.9" height="0.8"/><rect class="cls-2" x="21.5" y="6.4" width="1.9" height="0.9"/><rect class="cls-2" x="21.5" y="9.2" width="1.9" height="0.8"/><rect class="cls-2" x="23.4" y="10.3" width="1.9" height="0.9"/><rect class="cls-2" x="21.5" y="11.6" width="1.9" height="0.9"/><path class="cls-2" d="M24.34,14.39a1.45,1.45,0,0,0-1.4,1.7L22.64,19a1.75,1.75,0,0,0,1.7,1.7A1.83,1.83,0,0,0,26,19l-0.3-2.9A1.45,1.45,0,0,0,24.34,14.39Zm0.6,5.6h-1.2v-2.4h1.2V20Z" transform="translate(-1.04 -1.39)"/></svg>