<?xml version="1.0" encoding="utf-8"?>
<!-- Generator: Adobe Illustrator 19.2.1, SVG Export Plug-In . SVG Version: 6.00 Build 0)  -->
<svg version="1.1" id="Layer_1" xmlns="http://www.w3.org/2000/svg" xmlns:xlink="http://www.w3.org/1999/xlink" x="0px" y="0px"
	 viewBox="0 0 32 32" style="enable-background:new 0 0 32 32;" xml:space="preserve">
<style type="text/css">
	.st0{fill:#B3B3B3;}
</style>
<title>custom-code-inactive</title>
<g id="Rounded_Rectangle_1">
	<path class="st0" d="M26.6,1.9c1.1,0,1.9,0.8,1.9,1.9l0,0l0,0v24.3c0,1.1-0.8,1.9-1.9,1.9l0,0H5.4c-1.1,0-1.9-0.8-1.9-1.9l0,0l0,0
		V3.8c0-1.1,0.8-1.9,1.9-1.9l0,0L26.6,1.9 M26.6,0.3H5.4c-1.9,0-3.5,1.6-3.5,3.5l0,0v24.3c0,1.9,1.6,3.5,3.5,3.5h21.3
		c1.9,0,3.5-1.6,3.5-3.5l0,0V3.8C30.1,1.9,28.5,0.3,26.6,0.3L26.6,0.3z"/>
</g>
<g id="Rounded_Rectangle_2">
	<path class="st0" d="M24.8,4.1H7.2c-0.4,0-0.7,0.3-0.7,0.7l0,0c0,0.4,0.3,0.7,0.7,0.7h17.6c0.4,0,0.7-0.3,0.7-0.7
		S25.2,4.1,24.8,4.1L24.8,4.1z"/>
</g>
<g id="Rounded_Rectangle_2_copy">
	<path class="st0" d="M24.8,25.5H7.2c-0.4,0-0.7,0.3-0.7,0.7c0,0.4,0.3,0.7,0.7,0.7h17.6c0.4,0,0.7-0.3,0.7-0.7S25.2,25.5,24.8,25.5
		L24.8,25.5z"/>
</g>
<g id="Forma_1">
	<path class="st0" d="M9.2,11.1c-0.3-0.3-1-0.3-1.3,0l0,0L5.2,14c-0.3,0.3-0.3,1,0,1.3l0,0L8,18.1c0.4,0.3,1,0.2,1.3-0.1
		c0,0,0,0,0-0.1c0.2-0.3,0.2-0.7,0-1.1l-2.1-2.2l2.1-2.2C9.6,12.1,9.6,11.4,9.2,11.1L9.2,11.1L9.2,11.1z M26.8,14L24,11.1
		c-0.3-0.4-0.8-0.4-1.3-0.1c-0.4,0.3-0.4,0.8-0.1,1.3c0,0,0,0,0.1,0.1l2.2,2.2l-2.2,2.2c-0.4,0.3-0.4,0.8-0.1,1.3
		c0.3,0.4,0.8,0.4,1.3,0.1c0,0,0,0,0.1-0.1l2.9-2.9C27.2,14.8,27.1,14.3,26.8,14L26.8,14z"/>
</g>
<g id="Forma_1-2">
	<path class="st0" d="M20.7,9.9c-0.3-1.3-1.5-2-2.8-1.7l0,0c-0.6,0.1-1.2,0.5-1.5,1.2l-4.9,8.5v0.1l-0.4,4.6c0,0.2,0.1,0.4,0.3,0.4
		l0,0h0.2l3.4-2.1l0.1-0.1l5.1-8.9C20.8,11.2,20.9,10.5,20.7,9.9z M13.4,20.9c-0.1-0.2-0.3-0.4-0.5-0.5c-0.2-0.1-0.4-0.1-0.6-0.2
		l0.2-2l0.8-0.2l0.2,0.7c0.1,0.2,0.2,0.3,0.4,0.3l0.6-0.2l0.1,1.3L13.4,20.9z M18.7,13.1L15.4,19v-0.6c0-0.2-0.1-0.3-0.3-0.3H15
		h-0.1l-0.7,0.2l-0.2-0.7c-0.1-0.2-0.2-0.3-0.4-0.3l-0.6,0.1l3.3-5.7l0,0c0.4-0.7,1.3-1,2-0.5c0.6,0.4,1,1.3,0.6,1.9
		C18.8,13,18.8,13.1,18.7,13.1L18.7,13.1z M17.7,11.6c-0.2-0.1-0.4,0-0.5,0.1l-2.8,4.8c-0.1,0.2-0.1,0.4,0.1,0.5
		c0.2,0.1,0.4,0.1,0.5-0.1l0,0l0,0l2.8-4.8C18.1,12,18,11.8,17.7,11.6L17.7,11.6z"/>
</g>
</svg>
