<?xml version="1.0" encoding="utf-8"?>
<!-- Generator: Adobe Illustrator 19.2.1, SVG Export Plug-In . SVG Version: 6.00 Build 0)  -->
<svg version="1.1" id="Group_1_1_" xmlns="http://www.w3.org/2000/svg" xmlns:xlink="http://www.w3.org/1999/xlink" x="0px" y="0px"
	 viewBox="0 0 32 32" style="enable-background:new 0 0 32 32;" xml:space="preserve">
<style type="text/css">
	.st0{fill:#00A3D7;}
	.st1{fill:#F16730;}
</style>
<g id="Forma_1">
	<g>
		<path class="st0" d="M25.7,12c-0.3,0-0.4,0.2-0.4,0.4v15.7h-17l-0.4-0.4h9.3c0.3,0,0.4-0.2,0.4-0.4s-0.2-0.4-0.4-0.4H7.3V22h0.3
			c0.8,0,1.4-0.6,1.4-1.4s-0.6-1.4-1.4-1.4H7.3v-3.7h0.3c0.8,0,1.4-0.6,1.4-1.4s-0.6-1.4-1.4-1.4H7.3V3.9h1.1v2
			c0,0.3,0.2,0.4,0.4,0.4s0.4-0.2,0.4-0.4v-2h1.9v4.7L10.5,8c-0.2-0.2-0.4-0.2-0.6,0L9.2,8.5V7.3C9.2,7,9,6.8,8.8,6.8S8.4,7,8.4,7.3
			v2.3c0,0.2,0.1,0.3,0.3,0.4c0.2,0.1,0.3,0.1,0.5-0.1l1.1-1l1.1,1c0,0.1,0.2,0.2,0.3,0.2s0.1,0,0.2,0C11.9,10,12,9.8,12,9.6V3.9
			h11.9v23h-5.4c-0.3,0-0.4,0.2-0.4,0.4s0.2,0.4,0.4,0.4h5.9c0.3,0,0.4-0.2,0.4-0.4V5.1h0.4v5.8c0,0.3,0.2,0.4,0.4,0.4
			s0.4-0.2,0.4-0.4V4.8c0-0.3-0.2-0.4-0.4-0.4h-0.9V3.4c0-0.3-0.2-0.4-0.4-0.4H6.7C6.5,3,6.3,3.2,6.3,3.4v9.2H6.2
			c-0.8,0-1.4,0.6-1.4,1.4c0,0.8,0.6,1.4,1.4,1.4h0.1v3.7H6.2c-0.8,0-1.4,0.6-1.4,1.4S5.5,22,6.2,22h0.1v5.3c0,0.2,0,0.3,0.1,0.3
			l0,0l1.4,1.4c0.1,0.1,0.2,0.2,0.3,0.2h17.6c0.3,0,0.4-0.2,0.4-0.4V12.5C26.2,12.2,26,12,25.7,12z M6.2,14.5
			c-0.3,0-0.5-0.2-0.5-0.4s0.3-0.5,0.5-0.5h1.3c0.3,0,0.5,0.3,0.5,0.5s-0.3,0.5-0.5,0.5H6.7l0,0l0,0L6.2,14.5L6.2,14.5z M6.7,21
			L6.7,21H6.1c-0.3,0-0.5-0.3-0.5-0.5S5.9,20,6.1,20h1.3c0.3,0,0.5,0.3,0.5,0.5c0,0.3-0.3,0.5-0.5,0.5H6.7L6.7,21z"/>
	</g>
</g>
<g id="Forma_1_1_">
	<g>
		<path class="st1" d="M17.8,16.3c0.8-0.6,1.3-1.5,1.3-2.6c0-1.7-1.4-3.1-3.1-3.1s-3.1,1.4-3.1,3.1c0,1,0.5,2,1.3,2.6
			c-1.5,0.7-2.6,2.1-2.8,3.7h1c0.3-1.8,1.9-3.1,3.7-3.1s3.4,1.4,3.7,3.1h1C20.4,18.4,19.3,16.9,17.8,16.3z M15.9,15.8
			c-1.2,0-2.1-0.9-2.1-2.1s0.9-2.1,2.1-2.1s2.1,0.9,2.1,2.1C18,14.9,17,15.8,15.9,15.8z M11.5,17.3c0-0.2-0.1-0.3-0.2-0.4
			c-0.5-0.3-0.9-1-0.9-1.7c0-1,0.7-1.9,1.9-2.1c0.1-0.2,0.1-0.3,0.2-0.5c0.1-0.2,0.2-0.4,0.3-0.6c-1.9-0.2-3.5,1.3-3.5,3.1
			c0,0.7,0.3,1.4,0.7,1.9c-1,0.5-1.7,1.6-1.7,2.8h1c0-1,0.8-1.9,1.7-2C11.3,17.8,11.5,17.5,11.5,17.3z M21.8,17
			c0.4-0.5,0.7-1.2,0.7-1.9c0-1.9-1.7-3.3-3.5-3.1c0.2,0.2,0.3,0.3,0.3,0.6c0.1,0.2,0.2,0.3,0.2,0.5c1.2,0.2,1.9,1.1,1.9,2.1
			c0,0.7-0.3,1.3-0.9,1.7c-0.2,0.1-0.2,0.3-0.2,0.4c0,0.3,0.2,0.5,0.4,0.5c0.9,0.2,1.7,1,1.7,2h1C23.5,18.6,22.8,17.5,21.8,17z"/>
	</g>
</g>
</svg>
