<?xml version="1.0" encoding="utf-8"?>
<!-- Generator: Adobe Illustrator 19.2.1, SVG Export Plug-In . SVG Version: 6.00 Build 0)  -->
<svg version="1.1" xmlns="http://www.w3.org/2000/svg" xmlns:xlink="http://www.w3.org/1999/xlink" x="0px" y="0px"
	 viewBox="0 0 32 32" style="enable-background:new 0 0 32 32;" xml:space="preserve">
<style type="text/css">
	.st0{enable-background:new    ;}
	.st1{fill-rule:evenodd;clip-rule:evenodd;fill:#005E98;}
	.st2{fill:#FFFFFF;}
</style>
<g id="Ellipse_1_copy_1_" class="st0">
	<g id="Ellipse_1_copy">
		<g>
			<circle class="st1" cx="16" cy="16" r="15.8"/>
		</g>
	</g>
</g>
<g id="Vector_Smart_Object_xA0_Image_1_">
	<g>
		<path class="st2" d="M19.2,14.9l-1-1c-0.2-0.2-0.6-0.2-0.8,0l-0.4,0.4l1.7,1.7l0.4-0.4C19.4,15.5,19.4,15.1,19.2,14.9z"/>
		<path class="st2" d="M8.5,23c-0.2,0.2-0.2,0.6,0,0.8l1,1c0.2,0.2,0.6,0.2,0.8,0l6.1-6.1l-1.7-1.7L8.5,23z"/>
		<rect x="16.8" y="14.9" transform="matrix(0.7071 -0.7071 0.7071 0.7071 -6.38 16.7753)" class="st2" width="0.6" height="2.5"/>
		<polygon class="st2" points="15.2,10.1 15.8,11.1 16.9,11.4 16.2,12.3 16.3,13.4 15.2,13.1 14.1,13.4 14.1,12.3 13.5,11.4 
			14.5,11.1 		"/>
		<polygon class="st2" points="19.6,7.1 20.1,7.9 21,8.2 20.4,8.9 20.5,9.8 19.6,9.5 18.7,9.8 18.8,8.9 18.2,8.2 19.1,7.9 		"/>
		<polygon class="st2" points="21.7,11.2 22.4,12.3 23.7,12.6 22.9,13.7 22.9,15 21.7,14.6 20.4,15 20.5,13.7 19.7,12.6 20.9,12.3 
					"/>
	</g>
</g>
</svg>
