<?xml version="1.0" encoding="utf-8"?>
<!-- Generator: Adobe Illustrator 19.2.1, SVG Export Plug-In . SVG Version: 6.00 Build 0)  -->
<svg version="1.1" id="Layer_1" xmlns="http://www.w3.org/2000/svg" xmlns:xlink="http://www.w3.org/1999/xlink" x="0px" y="0px"
	 viewBox="0 0 32 32" style="enable-background:new 0 0 32 32;" xml:space="preserve">
<style type="text/css">
	.st0{fill:none;stroke:#7AC143;stroke-width:1.5;stroke-miterlimit:10;}
	.st1{fill:#F9A350;}
	.st2{font-family:'ArialRoundedMTBold';}
	.st3{font-size:9.438px;}
</style>
<g>
	<path class="st0" d="M26.4,12.2h-0.6v-3l0,0c0-0.2,0-0.2-0.2-0.4l-5.1-5.7l0,0l-0.2-0.2l0,0h-0.2l0,0H20H7.5c-0.5,0-1,0.6-1,1v8.5
		H5.9c-1,0-1.4,0.6-1.4,1.4v7.7c0,1,0.6,1.4,1.4,1.4h0.6v5.3c0,0.6,0.6,1,1,1H24c0.6,0,1-0.6,1-1v-5.3h0.6c1,0,1.4-0.6,1.4-1.4v-7.7
		C27.1,12.4,26.8,12.2,26.4,12.2z M25.7,12.2H6.7 M6.7,22.8h18.8"/>
</g>
<text transform="matrix(1 0 0 1 6.8018 20.8281)" class="st1 st2 st3">XML</text>
</svg>
