<svg id="Layer_1" data-name="Layer 1" xmlns="http://www.w3.org/2000/svg" viewBox="0 0 27.4 29.07"><defs><style>.cls-1{fill:none;stroke:#9e9e9e;stroke-miterlimit:10;stroke-width:2px;}</style></defs><title>icon-delete-inactive</title><path class="cls-1" d="M27.1,9.53c0.83,0,1.3-.83,1.3-1.85a1.9,1.9,0,0,0-1.3-1.85h-6.4a3,3,0,0,0-3.15-3.15H14.4a3,3,0,0,0-3.15,3.15H4.86A2,2,0,0,0,3,7.67,1.86,1.86,0,0,0,4.86,9.53h0V27.88a2.33,2.33,0,0,0,.56,1.3,1.47,1.47,0,0,0,.83.56H25.71c0.83,0,1.3-.83,1.3-1.85V27.6L27.1,9.53h0Z" transform="translate(-2 -1.67)"/><line class="cls-1" x1="16.48" y1="13.24" x2="16.48" y2="22.23"/><line class="cls-1" x1="11.47" y1="13.24" x2="11.47" y2="22.23"/><line class="cls-1" x1="3.6" y1="7.86" x2="25.1" y2="7.86"/></svg>