<?xml version="1.0" encoding="utf-8"?>
<!-- Generator: Adobe Illustrator 19.2.1, SVG Export Plug-In . SVG Version: 6.00 Build 0)  -->
<svg version="1.1" id="Layer_1" xmlns="http://www.w3.org/2000/svg" xmlns:xlink="http://www.w3.org/1999/xlink" x="0px" y="0px"
	 viewBox="0 0 32 32" style="enable-background:new 0 0 32 32;" xml:space="preserve">
<style type="text/css">
	.st0{enable-background:new    ;}
	.st1{fill:#9E9E9E;}
</style>
<g id="Layer_1_xA0_Image_1_">
</g>
<g id="Rounded_Rectangle_1_1_" class="st0">
</g>
<g id="Rounded_Rectangle_1_copy_1_" class="st0">
</g>
<g id="API">
</g>
<g id="Rounded_Rectangle_2_1_" class="st0">
	<g>
		<g id="Rounded_Rectangle_1">
			<g>
				<path class="st1" d="M24.7,0.1H7.3C5.2,0.1,3.4,1.8,3.4,4v23.9c0,2.1,1.7,3.9,3.9,3.9h17.6c2.1,0,3.9-1.7,3.9-3.9V4.1
					C28.7,1.9,26.9,0.1,24.7,0.1z M27.7,27.9c0,1.6-1.3,2.9-2.9,2.9H7.3c-1.6,0-2.9-1.3-2.9-2.9V4.1c0-1.6,1.3-2.9,2.9-2.9h17.6
					c1.6,0,2.9,1.3,2.9,2.9v23.8H27.7z"/>
			</g>
		</g>
		<g id="Rounded_Rectangle_1_copy">
			<g>
				<path class="st1" d="M26.2,0.1H5.8c-1.4,0-2.4,1.1-2.4,2.4v1.9h25.3V2.6C28.7,1.3,27.6,0.1,26.2,0.1z M6,3.2
					c-0.4,0-0.9-0.3-0.9-0.9S5.6,1.5,6,1.5s0.9,0.4,0.9,0.9S6.5,3.2,6,3.2z M8.4,3.2C8,3.2,7.6,2.9,7.6,2.4S8,1.5,8.4,1.5
					s0.9,0.4,0.9,0.9C9.3,2.9,9,3.2,8.4,3.2z M10.9,3.2c-0.5,0-0.9-0.3-0.9-0.9s0.4-0.9,0.9-0.9s0.9,0.3,0.9,0.9S11.4,3.2,10.9,3.2z
					"/>
			</g>
		</g>
		<g class="st0">
			<path class="st1" d="M8.2,17.6l2.6-6.5h1.4l2.5,6.5h-1.3l-0.5-1.3h-3l-0.5,1.3H8.2z M10.3,15.4h2.3l-1.2-3.1L10.3,15.4z"/>
			<path class="st1" d="M15.4,17.6v-6.5h2.9c0.7,0,1.2,0.2,1.5,0.6c0.4,0.4,0.6,0.9,0.6,1.5c0,0.6-0.2,1.1-0.6,1.4
				c-0.4,0.4-0.9,0.6-1.5,0.6h-1.7v2.4H15.4z M16.5,14.2h1.6c0.3,0,0.6-0.1,0.8-0.3c0.2-0.2,0.3-0.4,0.3-0.7c0-0.3-0.1-0.6-0.3-0.7
				c-0.2-0.2-0.5-0.3-0.8-0.3h-1.6V14.2z"/>
			<path class="st1" d="M21.3,17.6v-6.5h1.1v6.5H21.3z"/>
		</g>
		<g id="Rounded_Rectangle_2">
			<g>
				<path class="st1" d="M24.3,20.6c0-0.3-0.2-0.5-0.5-0.5H8.2c-0.3,0-0.5,0.2-0.5,0.5s0.2,0.5,0.5,0.5h15.5
					C24.1,21.1,24.3,20.9,24.3,20.6z M23.8,22.6H13.1c-0.3,0-0.5,0.2-0.5,0.5s0.2,0.5,0.5,0.5h10.8c0.3,0,0.5-0.2,0.5-0.5
					C24.3,22.8,24.1,22.6,23.8,22.6z M23.8,25.1h-5.9c-0.3,0-0.5,0.2-0.5,0.5s0.2,0.5,0.5,0.5h5.9c0.3,0,0.5-0.2,0.5-0.5
					S24.1,25.1,23.8,25.1z"/>
			</g>
		</g>
	</g>
</g>
</svg>
