<?xml version="1.0" encoding="utf-8"?>
<!-- Generator: Adobe Illustrator 19.2.1, SVG Export Plug-In . SVG Version: 6.00 Build 0)  -->
<svg version="1.1" id="Layer_1" xmlns="http://www.w3.org/2000/svg" xmlns:xlink="http://www.w3.org/1999/xlink" x="0px" y="0px"
	 viewBox="0 0 32 32" style="enable-background:new 0 0 32 32;" xml:space="preserve">
<style type="text/css">
	.st0{fill:#2C7DA9;}
</style>
<g>
	<path class="st0" d="M0,3.5v24.9h32V3.5H0L0,3.5z M5.2,26.1H1.4v-3.8h3.8V26.1z M5.2,18H1.4v-3.8h3.8V18z M5.2,10H1.4V5.7h3.8V10z
		 M25.1,26.1H6.6V6.1h18.5V26.1L25.1,26.1z M30.4,26.1h-3.8v-3.8h3.8V26.1z M30.4,18h-3.8v-3.8h3.8V18z M30.4,10h-3.8V5.7h3.8V10z
		 M11.9,9.8v12.5l8-6.2L11.9,9.8z"/>
</g>
</svg>
