<svg xmlns="http://www.w3.org/2000/svg" viewBox="0 0 30.62 26.03"><defs><style>.cls-1{isolation:isolate;}.cls-2{fill:#6a727a;fill-rule:evenodd;}</style></defs><title>icon-service</title><g id="service_icon_copy" data-name="service icon copy" class="cls-1"><g id="service_icon_copy-2" data-name="service icon copy"><path class="cls-2" d="M29.77,7.58h-1V6h-5.1V7.58h-2v-3A1.64,1.64,0,0,0,20,3H12a1.64,1.64,0,0,0-1.64,1.64v3h-2V6H3.24V7.58h-1A1.54,1.54,0,0,0,.69,9.12V27.48A1.54,1.54,0,0,0,2.23,29H29.77a1.54,1.54,0,0,0,1.54-1.54V9.12A1.54,1.54,0,0,0,29.77,7.58Zm-5.1-.51h3.06V7.58H24.68V7.07ZM11.41,4.62A0.62,0.62,0,0,1,12,4h8a0.62,0.62,0,0,1,.62.62v3H11.41v-3ZM4.26,7.07H7.32V7.58H4.26V7.07ZM4.77,28H2.23a0.52,0.52,0,0,1-.52-0.52V9.12A0.52,0.52,0,0,1,2.23,8.6H4.77V28Zm21.44,0H5.79V8.6H26.21V28Zm4.08-.52a0.52,0.52,0,0,1-.52.52H27.23V8.6h2.55a0.52,0.52,0,0,1,.52.52V27.48Z" transform="translate(-0.69 -2.99)"/></g></g></svg>