<svg id="Layer_1" data-name="Layer 1" xmlns="http://www.w3.org/2000/svg" viewBox="0 0 30.7 29.9"><defs><style>.cls-1{opacity:0.5;}.cls-1,.cls-2,.cls-5{isolation:isolate;}.cls-3{fill:#fff;}.cls-4,.cls-5{fill:#090;}.cls-5{font-size:14.31px;font-family:FontAwesome;}</style></defs><title>icon-published</title><g id="Forma_1" data-name="Forma 1" class="cls-1"><g id="Forma_1-2" data-name="Forma 1"><path d="M20.65,2.45h-3.5V1H7.05v1.4H3.55a2.9,2.9,0,0,0-2.9,2.9v22.4a2.9,2.9,0,0,0,2.9,2.9h17.2a2.9,2.9,0,0,0,2.9-2.9V5.35A3.06,3.06,0,0,0,20.65,2.45Zm-12.4-.2H16v1.6H8.25V2.25Zm14.1,25.6a1.75,1.75,0,0,1-1.7,1.7H3.55a1.75,1.75,0,0,1-1.7-1.7V5.35a1.75,1.75,0,0,1,1.7-1.7h3.5V5h10.1V3.65h3.5a1.75,1.75,0,0,1,1.7,1.7v22.5Zm-11.8-17.3H3.75v1.2h6.7v-1.2h0.1Zm-6.8,4.1h13.5v-1.2H3.75v1.2Z" transform="translate(-0.65 -1.05)"/></g></g><g id="Ellipse_1" data-name="Ellipse 1" class="cls-2"><g id="Ellipse_1-2" data-name="Ellipse 1"><path class="cls-3" d="M19.25,29.85a11.1,11.1,0,1,1,11.1-11.1A11.14,11.14,0,0,1,19.25,29.85Z" transform="translate(-0.65 -1.05)"/><path class="cls-4" d="M19.25,8.75a10.1,10.1,0,1,1-10,10,10,10,0,0,1,10-10m0-2a12.1,12.1,0,1,0,12.1,12.1,12.08,12.08,0,0,0-12.1-12.1h0Z" transform="translate(-0.65 -1.05)"/></g></g><g id="_" data-name=""><text class="cls-5" transform="translate(11.93 23.14) scale(0.99 1)"></text></g></svg>