<?xml version="1.0" encoding="utf-8"?>
<!-- Generator: Adobe Illustrator 19.2.1, SVG Export Plug-In . SVG Version: 6.00 Build 0)  -->
<svg version="1.1" xmlns="http://www.w3.org/2000/svg" xmlns:xlink="http://www.w3.org/1999/xlink" x="0px" y="0px"
	 viewBox="0 0 32 32" style="enable-background:new 0 0 32 32;" xml:space="preserve">
<style type="text/css">
	.st0{enable-background:new    ;}
	.st1{fill:#C3CDD6;}
	.st2{fill:#F2F5F7;}
</style>
<g id="Layer_1">
	<g id="Layer_1_xA0_Image_1_">
	</g>
	<g id="Shape_1_1_" class="st0">
	</g>
</g>
<g id="Layer_3">
	<path class="st1" d="M15.8,3.4L1.5,9.5C1.3,9.6,1.2,9.8,1.2,10c0,0.2,0.1,0.4,0.3,0.5l14.3,6.1c0.1,0,0.1,0,0.2,0
		c0.1,0,0.1,0,0.2,0l14.3-6.1c0.2-0.1,0.3-0.3,0.3-0.5c0-0.2-0.1-0.4-0.3-0.5L16.2,3.4C16.1,3.4,15.9,3.4,15.8,3.4L15.8,3.4z
		 M16,4.5L28.9,10L16,15.6L3,10L16,4.5z M24.7,14.2c-0.1,0-0.2,0.2-0.3,0.3c-0.1,0.3,0,0.6,0.3,0.7l2.1,1l-12,5.5l-12-5.5l2.1-1
		c0.2-0.1,0.4-0.4,0.3-0.7c-0.1-0.3-0.4-0.4-0.6-0.3l-3.2,1.5c-0.2,0.1-0.3,0.3-0.3,0.5c0,0.2,0.1,0.4,0.3,0.5l13.2,6.1
		c0.1,0,0.1,0,0.2,0c0.1,0,0.1,0,0.2,0l13.2-6.1c0.2-0.1,0.3-0.3,0.3-0.5c0-0.2-0.1-0.4-0.3-0.5L25,14.2
		C24.9,14.1,24.8,14.1,24.7,14.2L24.7,14.2z M5.3,20.3c-0.1,0-0.3-0.1-0.4,0l-3.5,1.5c-0.2,0.1-0.3,0.3-0.3,0.5
		c0,0.2,0.1,0.4,0.3,0.5l14.3,6.1c0.1,0,0.1,0,0.2,0c0.1,0,0.1,0,0.2,0l14.3-6.1c0.2-0.1,0.3-0.3,0.3-0.5c0-0.2-0.1-0.4-0.3-0.5
		L27,20.3c-0.3-0.1-0.6,0-0.7,0.3c-0.1,0.3,0,0.6,0.3,0.7l2.3,1L16,27.8L3,22.3l2.3-1c0.3-0.1,0.4-0.4,0.3-0.7
		C5.6,20.4,5.5,20.3,5.3,20.3L5.3,20.3z"/>
</g>
<g id="Layer_2">
	<g>
		<g id="Ellipse_1_copy_2_">
			<g>
				<circle class="st2" cx="23.6" cy="21.3" r="7.6"/>
			</g>
			<g>
				<path class="st1" d="M23.6,14.3c3.9,0,7.1,3.2,7.1,7.1s-3.2,7-7.1,7s-7.1-3.2-7.1-7.1S19.7,14.3,23.6,14.3 M23.6,13.3
					c-4.5,0-8.1,3.6-8.1,8.1s3.6,8.1,8.1,8.1s8.1-3.6,8.1-8.1S28.1,13.3,23.6,13.3L23.6,13.3z"/>
			</g>
		</g>
		<g>
			<path class="st1" d="M23.4,24.6c0.2,0.2,0.5,0.3,0.7,0.1c0.2-0.2,0.3-0.5,0.1-0.7l-0.1-0.1c-0.2-0.3-0.3-0.6-0.1-0.8l0.3-1
				c0.3-0.7,0.1-1.5-0.4-2C23.8,20,23.6,20,23.6,20c-0.1,0-0.3,0.1-0.4,0.2c-0.2,0.2-0.2,0.5,0,0.7c0.3,0.3,0.3,0.6,0.2,0.9l-0.3,1
				C22.7,23.3,22.9,24,23.4,24.6L23.4,24.6z"/>
			<path class="st1" d="M24.4,18.8c0,0.9-1.4,0.9-1.4,0S24.4,17.9,24.4,18.8"/>
		</g>
	</g>
</g>
</svg>
