<?xml version="1.0" encoding="utf-8"?>
<!-- Generator: Adobe Illustrator 19.2.1, SVG Export Plug-In . SVG Version: 6.00 Build 0)  -->
<svg version="1.1" id="edit_copy_2_1_" xmlns="http://www.w3.org/2000/svg" xmlns:xlink="http://www.w3.org/1999/xlink" x="0px"
	 y="0px" viewBox="0 0 32 32" style="enable-background:new 0 0 32 32;" xml:space="preserve">
<style type="text/css">
	.st0{fill-rule:evenodd;clip-rule:evenodd;}
</style>
<g id="edit_copy_2">
	<g>
		<path class="st0" d="M29.7,5.7l-3.4-3.4c-0.7-0.7-3-1.9-4.9,0L4.2,19.4C4.1,19.6,4,19.8,3.9,20l-2.6,9.2c-0.1,0.4,0,0.9,0.3,1.2
			c0.3,0.3,0.9,0.4,1.2,0.3l9.2-2.6c0.2-0.1,0.4-0.2,0.5-0.3l17.1-17.1C31.1,9.3,31.1,7.1,29.7,5.7z M4.3,27.7l1.4-5.1l3.6,3.6
			L4.3,27.7z M11.7,25.2l-4.9-4.9L19.4,7.7l4.9,4.9L11.7,25.2z M28,8.9L26,10.9L21.1,6L23.1,4c0.4-0.4,1.1-0.4,1.5,0L28,7.4
			C28.4,7.8,28.4,8.5,28,8.9z"/>
	</g>
</g>
</svg>
