<?xml version="1.0" encoding="utf-8"?>
<!-- Generator: Adobe Illustrator 19.2.1, SVG Export Plug-In . SVG Version: 6.00 Build 0)  -->
<svg version="1.1" id="Layer_1" xmlns="http://www.w3.org/2000/svg" xmlns:xlink="http://www.w3.org/1999/xlink" x="0px" y="0px"
	 viewBox="0 0 32 32" style="enable-background:new 0 0 32 32;" xml:space="preserve">
<style type="text/css">
	.st0{display:none;}
	.st1{display:inline;fill:none;stroke:#006197;stroke-miterlimit:10;}
	.st2{fill:none;stroke:#006197;stroke-miterlimit:10;}
	.st3{fill:#006197;}
	.st4{fill:#26A9E0;}
	.st5{fill:#6DCEF5;}
</style>
<g class="st0">
	<path class="st1" d="M9.1,27.4l11.4,0.4c6.1-0.6,11-5.7,11-12c0-6.6-5.4-12-12-12C15,3.9,11,6.5,9.1,10.1c-4.7,0.1-8.5,3.8-8.5,8.6
		C0.5,23.5,4.4,27.4,9.1,27.4"/>
</g>
<g>
	<g>
		<path class="st2" d="M20.5,25c6.1-0.6,11-5.6,11-11.9c0-6.6-5.4-11.9-11.9-11.9C15,1.1,11,3.7,9.1,7.3c-4.7,0.1-8.5,3.8-8.5,8.6
			s3.8,8.6,8.6,8.6c0.7,0,1.2-0.1,1.9-0.2"/>
	</g>
	<g>
		<path class="st3" d="M15.8,12.2l1.4,1.6L11,19.8l-1.4-1.6L15.8,12.2z"/>
		<path class="st3" d="M18.2,9.6l1.4,1.6l-1.9,2l-1.4-1.6L18.2,9.6z"/>
	</g>
	<g>
		<path class="st4" d="M14.7,29.2v-6.4h1v6.4"/>
		<path class="st4" d="M15.3,30.9l3.2-3.7h-6.2L15.3,30.9"/>
	</g>
	<g>
		<path class="st5" d="M26.3,11.6l-1.6-0.2c-0.1,0-0.2-0.1-0.2-0.2l-0.6-1.4c-0.1-0.2-0.4-0.2-0.6,0l-0.6,1.4
			c-0.1,0.1-0.1,0.2-0.2,0.2L21,11.6c-0.2,0-0.3,0.3-0.2,0.4l1.1,1c0.1,0.1,0.1,0.2,0.1,0.2l-0.4,1.4c-0.1,0.2,0.2,0.4,0.4,0.3
			l1.3-0.7c0.1-0.1,0.2-0.1,0.2,0l1.3,0.7c0.2,0.1,0.4-0.1,0.4-0.3l-0.2-1.4c0-0.1,0-0.2,0.1-0.2l1.1-1
			C26.6,11.8,26.5,11.6,26.3,11.6z"/>
		<path class="st5" d="M23.8,6.3l-1.3-0.1c-0.1,0-0.2-0.1-0.2-0.2L21.9,5c-0.1-0.2-0.3-0.2-0.4,0L21.1,6C21,6.1,21,6.1,20.8,6.2
			l-1.2,0.1c-0.2,0-0.2,0.2-0.1,0.4l1,0.8c0.1,0.1,0.1,0.2,0.1,0.2l-0.3,1.1c-0.1,0.2,0.2,0.4,0.3,0.2l1.1-0.6
			c0.1-0.1,0.2-0.1,0.2,0l1.1,0.6c0.2,0.1,0.4-0.1,0.3-0.2l-0.3-1.1c0-0.1,0-0.2,0.1-0.2l1-0.8C24.2,6.5,24,6.3,23.8,6.3z"/>
		<path class="st5" d="M18.9,5.1l-1-0.1C17.8,5,17.8,5,17.7,5l-0.4-0.8C17.2,4,17.1,4,17,4.1L16.6,5C16.6,5,16.5,5,16.4,5l-1,0.1
			c-0.2,0-0.2,0.2-0.1,0.3l0.7,0.7c0.1,0.1,0.1,0.1,0.1,0.2l-0.2,0.9c-0.1,0.2,0.1,0.2,0.2,0.2L17,6.8c0.1-0.1,0.1-0.1,0.2,0L18,7.4
			c0.2,0.1,0.3-0.1,0.2-0.2L18,6.3c0-0.1,0-0.1,0.1-0.2l0.7-0.7C19.1,5.4,19,5.1,18.9,5.1z"/>
		<path class="st5" d="M15.1,7.1L14.3,7c-0.1,0-0.1-0.1-0.1-0.1l-0.3-0.7c-0.1-0.1-0.2-0.1-0.2,0l-0.3,0.7C13.3,7,13.2,7,13.2,7
			l-0.8,0.1c-0.1,0-0.2,0.2-0.1,0.2l0.6,0.6C13,7.9,13,8,13,8l-0.2,0.7C12.6,8.8,12.8,9,13,8.9l0.7-0.4c0.1-0.1,0.1-0.1,0.2,0
			l0.7,0.4c0.1,0.1,0.2-0.1,0.2-0.2L14.4,8c0-0.1,0-0.1,0.1-0.2l0.6-0.6C15.4,7.3,15.3,7.1,15.1,7.1z"/>
		<path class="st5" d="M13.4,10.1L12.6,10c-0.1,0-0.1-0.1-0.1-0.1l-0.2-0.6c-0.1-0.1-0.2-0.1-0.2,0L11.8,10c0,0.1-0.1,0.1-0.1,0.1
			L11,10.1c-0.1,0-0.2,0.2-0.1,0.2l0.4,0.4c0.1,0.1,0.1,0.1,0.1,0.1l-0.2,0.6c0,0.1,0.1,0.2,0.2,0.1l0.6-0.3c0.1,0,0.1,0,0.1,0
			l0.6,0.3c0.1,0.1,0.2-0.1,0.2-0.1l-0.2-0.6c0-0.1,0-0.1,0.1-0.1l0.4-0.4C13.5,10.3,13.4,10.1,13.4,10.1z"/>
	</g>
</g>
</svg>
