<?xml version="1.0" encoding="utf-8"?>
<!-- Generator: Adobe Illustrator 19.2.1, SVG Export Plug-In . SVG Version: 6.00 Build 0)  -->
<svg version="1.1" id="Layer_1" xmlns="http://www.w3.org/2000/svg" xmlns:xlink="http://www.w3.org/1999/xlink" x="0px" y="0px"
	 viewBox="0 0 24 24" style="enable-background:new 0 0 24 24;" xml:space="preserve">
<style type="text/css">
	.st0{fill:#4DAE48;}
	.st1{fill:#1284C7;}
</style>
<g>
	<g>
		<g>
			<path class="st0" d="M22.8,17V9.6c0-1.8-0.3-2.8-1.3-3.7c-0.9-0.8-2.4-1.3-4.4-1.3c-1.9,0-3.6,0.5-4.8,1.3
				c1.1,0.9,1.8,2.1,1.9,3.8c0-1.4,1-2,2.4-2c1.6,0,2.1,1.1,2.1,2.1l0,0.4c-4.5,0.2-8.6,1-8.6,5.1c0.1,2.9,2.6,4,4.4,4
				c2.1,0,3.2-0.6,4.3-2c0,0.6,0.1,1.2,0.2,1.7h4C22.9,18.4,22.8,17.7,22.8,17z M18.2,15.5c-0.5,0.7-1.2,1.2-2.1,1.2
				c-1.1,0-2.1-0.5-2.1-1.8c0-1.8,2.7-2.5,4.7-2.6v0.5C18.7,14.1,18.7,14.7,18.2,15.5z"/>
		</g>
	</g>
	<g>
		<path class="st1" d="M10.2,15.4c0-0.3,0-0.6,0.1-0.9c-0.2,1-1,1.5-2,1.5c-2.1,0-2.7-1.6-2.7-4.2c0-2.6,0.6-4.1,2.6-4.1
			c1.3,0,2.2,0.7,2.2,2h3.9c-0.3-3.4-3-5.1-6.2-5.1c-4.5,0-7.1,3.2-7.1,7.5c0,4.2,2.5,7.3,6.9,7.3c1.3,0,2.7-0.3,3.8-1
			C10.8,17.7,10.2,16.7,10.2,15.4z"/>
	</g>
</g>
</svg>
