<?xml version="1.0" encoding="utf-8"?>
<!-- Generator: Adobe Illustrator 19.2.1, SVG Export Plug-In . SVG Version: 6.00 Build 0)  -->
<svg version="1.1" id="Layer_1" xmlns="http://www.w3.org/2000/svg" xmlns:xlink="http://www.w3.org/1999/xlink" x="0px" y="0px"
	 viewBox="0 0 32 32" style="enable-background:new 0 0 32 32;" xml:space="preserve">
<style type="text/css">
	.st0{fill:none;stroke:#9E9E9E;stroke-miterlimit:10;}
	.st1{fill:#FFFFFF;stroke:#9E9E9E;stroke-miterlimit:10;}
</style>
<circle class="st0" cx="23.8" cy="24.6" r="6.2"/>
<path class="st0" d="M25.1,0.7H7C5,0.7,3.7,2.2,3.7,4V28c0,1.8,1.5,3.3,3.3,3.3h11.5c-1.8-1.5-2.9-3.8-2.9-6.4
	c0-4.8,3.6-8.4,8.4-8.4c1.7,0,3.3,0.5,4.4,1.3V3.8C28.4,2.2,27,0.7,25.1,0.7z M16,17H7.3c-0.3,0-0.6-0.5-0.6-1.1
	c0-0.5,0.2-1.1,0.6-1.1H16c0.3,0,0.6,0.5,0.6,1.1C16.5,16.7,16.2,17,16,17z M22.8,12.2H7.6c-0.5,0-1.1-0.5-1.1-1.1
	c0-0.6,0.5-1.1,1.1-1.1h15.1c0.5,0,1.1,0.5,1.1,1.1C23.8,11.7,23.2,12.2,22.8,12.2z M22.8,7.3H7.6c-0.5,0-1.1-0.5-1.1-1.1
	c0-0.5,0.5-1.1,1.1-1.1h15.1c0.5,0,1.1,0.5,1.1,1.1S23.2,7.3,22.8,7.3z"/>
<g>
	<g>
		<path class="st0" d="M21.5,20.8c0,0,3.7-1.6,4.5,0.8c0.7,2.4-2.9,2.1-2.7,4.9"/>
	</g>
	
		<ellipse transform="matrix(0.9972 -7.441065e-02 7.441065e-02 0.9972 -2.0498 1.8244)" class="st1" cx="23.5" cy="28.4" rx="1.1" ry="1.1"/>
</g>
</svg>
