<?xml version="1.0" encoding="utf-8"?>
<!-- Generator: Adobe Illustrator 19.2.1, SVG Export Plug-In . SVG Version: 6.00 Build 0)  -->
<svg version="1.1" id="Layer_1" xmlns="http://www.w3.org/2000/svg" xmlns:xlink="http://www.w3.org/1999/xlink" x="0px" y="0px"
	 viewBox="0 0 32 32" style="enable-background:new 0 0 32 32;" xml:space="preserve">
<style type="text/css">
	.st0{enable-background:new    ;}
	.st1{fill:#00A2D6;}
	.st2{fill:#FFFFFF;}
</style>
<g id="Layer_1_xA0_Image_1_">
</g>
<g id="Rounded_Rectangle_1_1_" class="st0">
</g>
<g id="Ellipse_1_1_" class="st0">
</g>
<g id="Forma_1_3_" class="st0">
</g>
<g id="Forma_1_2_" class="st0">
	<g>
		<g id="Rounded_Rectangle_1">
			<g>
				<path class="st1" d="M24.6,0H7C4.8,0,3,1.8,3,4V28c0,2.2,1.8,4,4,4h17.7c2.2,0,4-1.8,4-4V4C28.5,1.8,26.7,0,24.6,0z"/>
			</g>
		</g>
		<g id="Ellipse_1_4_">
			<g>
				<path class="st2" d="M27.5,12.5v-0.9C26.7,11.8,26,12,25.1,12c-4.2,0-7.5-3.4-7.5-7.5c0-1.2,0.3-2.4,0.9-3.4h-0.9
					c-0.4,1.1-0.8,2.2-0.8,3.4c0,4.6,3.8,8.4,8.4,8.4C26,12.8,26.7,12.7,27.5,12.5z"/>
			</g>
		</g>
		<g id="Forma_1">
			<g>
				<path class="st2" d="M26.6,7.7c-0.3,0.1-0.6,0.4-0.6,0.9v1.2c0,0.1-0.1,0.2-0.2,0.2h-1.5c-0.1,0-0.2-0.1-0.2-0.2V8.6
					c0-0.4-0.2-0.8-0.6-0.9c-0.1,0-0.2-0.1-0.3-0.1c-0.2,0-0.4,0.1-0.7,0.3l-0.9,0.9c-0.1,0.1-0.2,0.1-0.2,0l-1.1-1.1
					c-0.1-0.1-0.1-0.2,0-0.2l0.9-0.9c0.2-0.2,0.3-0.7,0.2-1c-0.2-0.4-0.6-0.7-1-0.7h-1.2C19.1,5,19,4.9,19,4.7V3.2
					C19,3.1,19.1,3,19.2,3h1.2c0.4,0,0.8-0.2,0.9-0.6c0.2-0.3,0.1-0.8-0.2-1l-0.3-0.3h-0.7l0.7,0.7c0.1,0.1,0.2,0.3,0.1,0.6
					c-0.1,0.2-0.2,0.3-0.4,0.3h-1.2c-0.3,0-0.7,0.3-0.7,0.7v1.5c0,0.3,0.3,0.7,0.7,0.7h1.2c0.2,0,0.3,0.1,0.4,0.3
					c0.1,0.2,0,0.3-0.1,0.6l-0.9,0.9c-0.1,0.1-0.2,0.3-0.2,0.4c0,0.2,0.1,0.3,0.2,0.4L21,9.3c0.2,0.2,0.7,0.2,1,0l0.9-1
					c0.1-0.1,0.3-0.2,0.6-0.1c0.2,0.1,0.3,0.2,0.3,0.4v1.2c0,0.3,0.3,0.7,0.7,0.7H26c0.3,0,0.7-0.3,0.7-0.7V8.6
					c0-0.2,0.1-0.3,0.3-0.4c0.2-0.1,0.3,0,0.6,0.1l0.2,0.2V7.8C27.3,7.6,26.9,7.6,26.6,7.7z M25.1,6.2c1.2,0,2.2-1,2.2-2.2
					s-1-2.2-2.2-2.2c-1.2,0-2.2,1-2.2,2.2S23.9,6.2,25.1,6.2z M25.1,2.3c0.9,0,1.7,0.8,1.7,1.7S26,5.6,25.1,5.6
					c-0.9,0-1.7-0.7-1.7-1.7S24.2,2.3,25.1,2.3z"/>
			</g>
		</g>
		<g id="Forma_1_6_">
			<g>
				<path class="st2" d="M22,25.4h-6.5c-0.2-0.9-1.1-1.5-2-1.5c-1,0-1.8,0.7-2,1.5h-2c-0.3,0-0.6,0.2-0.6,0.6s0.2,0.6,0.6,0.6h2
					c0.2,0.9,1.1,1.5,2,1.5c1,0,1.8-0.7,2-1.5H22c0.3,0,0.6-0.2,0.6-0.6C22.5,25.6,22.3,25.4,22,25.4z M13.4,26.9
					c-0.6,0-0.9-0.4-0.9-0.9c0-0.6,0.4-0.9,0.9-0.9c0.6,0,0.9,0.4,0.9,0.9C14.4,26.5,13.9,26.9,13.4,26.9z M9.5,20.7H19
					c0.2,0.9,1.1,1.5,2,1.5c1.1,0,2.1-1,2.1-2.1c0-1.1-1-2.1-2.1-2.1c-1,0-1.8,0.7-2,1.5H9.5c-0.3,0-0.6,0.2-0.6,0.6
					C8.8,20.5,9.2,20.7,9.5,20.7z M21,19.3c0.6,0,0.9,0.4,0.9,0.9c0,0.4-0.4,0.9-0.9,0.9c-0.4,0-0.9-0.4-0.9-0.9
					C20.1,19.8,20.5,19.3,21,19.3z M9.5,15h4.2c0.2,0.9,1.1,1.5,2,1.5c1,0,1.8-0.7,2-1.5h4.2c0.3,0,0.6-0.2,0.6-0.6
					s-0.2-0.6-0.6-0.6h-4.2c-0.2-0.9-1.1-1.5-2-1.5c-1,0-1.8,0.7-2,1.5H9.5c-0.3,0-0.6,0.2-0.6,0.6C8.8,14.8,9.2,15,9.5,15z
					 M15.7,13.5c0.6,0,0.9,0.4,0.9,0.9s-0.4,0.9-0.9,0.9c-0.6,0-0.9-0.4-0.9-0.9S15.2,13.5,15.7,13.5z"/>
			</g>
		</g>
	</g>
</g>
</svg>
