<?xml version="1.0" encoding="utf-8"?>
<!-- Generator: Adobe Illustrator 19.2.1, SVG Export Plug-In . SVG Version: 6.00 Build 0)  -->
<svg version="1.1" id="Layer_1" xmlns="http://www.w3.org/2000/svg" xmlns:xlink="http://www.w3.org/1999/xlink" x="0px" y="0px"
	 viewBox="0 0 32 32" style="enable-background:new 0 0 32 32;" xml:space="preserve">
<style type="text/css">
	.st0{fill:#2A333C;}
</style>
<g>
	<path class="st0" d="M16,2.5c3.6,0,7,1.4,9.6,4c2.5,2.5,4,6,4,9.6s-1.4,7-4,9.6c-2.5,2.5-6,4-9.6,4s-7-1.4-9.6-4
		c-2.5-2.5-4-6-4-9.6s1.4-7,4-9.6C9,3.9,12.4,2.5,16,2.5 M16,0.8c-4,0-7.9,1.6-10.7,4.4C2.4,8.1,0.8,12,0.8,16s1.6,7.9,4.4,10.7
		c2.8,2.8,6.7,4.4,10.7,4.4s7.9-1.6,10.7-4.4c2.8-2.8,4.4-6.7,4.4-10.7s-1.6-7.9-4.4-10.7C23.9,2.4,20,0.8,16,0.8z"/>
	<path class="st0" d="M16,21c-2.5,0-4.9-1.1-6.4-3.1c-0.2-0.3-0.3-0.7-0.1-1c0.2-0.3,0.5-0.5,0.9-0.5h11.4c0.4,0,0.7,0.2,0.9,0.5
		c0.2,0.3,0.1,0.7-0.1,1C20.9,19.9,18.5,21,16,21L16,21z M12.8,18.3c2,1.1,4.4,1.1,6.3,0H12.8z"/>
	<path class="st0" d="M23.3,13.2c-0.3,0-0.6-0.2-0.8-0.4c-0.1-0.3-0.5-0.5-0.8-0.5c-0.3,0-0.7,0.2-0.8,0.5c-0.1,0.2-0.3,0.4-0.6,0.4
		c-0.3,0.1-0.5,0-0.7-0.1c-0.2-0.1-0.4-0.4-0.4-0.6c0-0.3,0-0.5,0.2-0.7c0.5-0.8,1.4-1.4,2.4-1.4c1,0,1.9,0.5,2.4,1.4
		c0.2,0.3,0.2,0.7,0,1S23.6,13.2,23.3,13.2L23.3,13.2z"/>
	<path class="st0" d="M11.9,13.2c-0.3,0-0.6-0.2-0.8-0.4c-0.2-0.3-0.5-0.5-0.8-0.5c-0.3,0-0.7,0.2-0.8,0.5c-0.1,0.2-0.4,0.4-0.6,0.4
		c-0.3,0.1-0.5,0-0.7-0.1c-0.2-0.1-0.4-0.4-0.4-0.6c0-0.3,0-0.5,0.2-0.7c0.5-0.8,1.4-1.4,2.4-1.4s1.9,0.5,2.4,1.4
		c0.2,0.3,0.2,0.7,0,1C12.6,13,12.3,13.2,11.9,13.2L11.9,13.2z"/>
</g>
</svg>
