<?xml version="1.0" encoding="utf-8"?>
<!-- Generator: Adobe Illustrator 19.2.1, SVG Export Plug-In . SVG Version: 6.00 Build 0)  -->
<svg version="1.1" id="Layer_1" xmlns="http://www.w3.org/2000/svg" xmlns:xlink="http://www.w3.org/1999/xlink" x="0px" y="0px"
	 viewBox="0 0 24 24" style="enable-background:new 0 0 24 24;" xml:space="preserve">
<style type="text/css">
	.st0{fill:#3FA9F5;}
</style>
<g>
	<path class="st0" d="M2.2,17.1C3,17,3.9,17.1,4.8,17c0.4-0.1,0.8-0.2,1.2-0.4c-1-0.6-1.8-1.3-2.7-2.2c-0.3-0.3-0.1-0.8,0.3-0.8
		c0.3,0,0.7,0,1-0.1c-0.8-1.1-1.5-2.2-2-3.5C2.5,9.6,3,9.3,3.3,9.4c0.2,0.1,0.4,0.1,0.6,0.2C3.3,8.1,3.1,6.6,3.5,5
		C3.6,4.7,4,4.6,4.3,4.8c1.9,1.9,4.4,2.8,7,3.3c-0.2-1.8,1-3.7,2.7-4.3c1.4-0.5,3.2-0.2,4.2,1c0.6-0.4,1.5-0.5,2.2-0.6
		c0.4-0.1,0.7,0.3,0.5,0.7c-0.3,0.4-0.5,0.9-0.8,1.3c0.5-0.2,1.1-0.3,1.6-0.3c0.4-0.1,0.6,0.6,0.3,0.8c-0.6,0.5-1.3,1.1-2,1.6
		c0,4.6-1.4,8.4-5.4,11c-3.4,2.2-9.7,1.8-12.6-1.1h0c-0.1,0-0.2-0.1-0.2-0.2c-0.1-0.2,0-0.4,0.1-0.5C2,17.2,2.1,17.1,2.2,17.1z"/>
</g>
</svg>
