<?xml version="1.0" encoding="utf-8"?>
<!-- Generator: Adobe Illustrator 19.2.1, SVG Export Plug-In . SVG Version: 6.00 Build 0)  -->
<svg version="1.1" id="Layer_1" xmlns="http://www.w3.org/2000/svg" xmlns:xlink="http://www.w3.org/1999/xlink" x="0px" y="0px"
	 viewBox="0 0 32 32" style="enable-background:new 0 0 32 32;" xml:space="preserve">
<style type="text/css">
	.st0{clip-path:url(#SVGID_2_);}
	.st1{clip-path:url(#SVGID_4_);fill:#A8AAB7;}
	.st2{fill:#7C7C7C;}
</style>
<g>
	<g>
		<defs>
			<path id="SVGID_1_" d="M16.7,16l-2.4,2.5c-0.2,0.2-0.2,0.5,0,0.7c0.2,0.2,0.5,0.2,0.7,0l2.8-2.8c0.1-0.1,0.2-0.3,0.2-0.4
				s-0.1-0.3-0.1-0.4L15,12.8c-0.2-0.2-0.5-0.2-0.7,0s-0.2,0.5,0,0.7L16.7,16z"/>
		</defs>
		<clipPath id="SVGID_2_">
			<use xlink:href="#SVGID_1_"  style="overflow:visible;"/>
		</clipPath>
		<g class="st0">
			<g>
				<defs>
					
						<rect id="SVGID_3_" x="-89.9" y="-181.1" transform="matrix(0.7071 -0.7071 0.7071 0.7071 -307.4686 475.3929)" width="1020" height="1580"/>
				</defs>
				<clipPath id="SVGID_4_">
					<use xlink:href="#SVGID_3_"  style="overflow:visible;"/>
				</clipPath>
				
					<rect x="-10.2" y="47.7" transform="matrix(0.7071 -0.7071 0.7071 0.7071 -39.821 14.2328)" class="st1" width="15" height="15"/>
			</g>
		</g>
	</g>
</g>
<path class="st2" d="M23.1,16l-1.1-1.3L12,3.1L8.9,5.8L17.7,16L8.9,26.2l3.1,2.7l9.9-11.6L23.1,16z"/>
</svg>
