<?xml version="1.0" encoding="utf-8"?>
<!-- Generator: Adobe Illustrator 19.2.1, SVG Export Plug-In . SVG Version: 6.00 Build 0)  -->
<svg version="1.1" id="Layer_1" xmlns="http://www.w3.org/2000/svg" xmlns:xlink="http://www.w3.org/1999/xlink" x="0px" y="0px"
	 viewBox="0 0 32 32" style="enable-background:new 0 0 32 32;" xml:space="preserve">
<style type="text/css">
	.st0{fill:#8EC44A;}
	.st1{fill:#F06730;}
</style>
<title>view</title>
<g id="binocular">
	<g id="binocular-2">
		<path class="st0" d="M29.9,14.9L29.9,14.9L29.9,14.9l-0.3-0.4L23.7,8l0,0c-0.6-0.6-1.3-0.9-2.1-0.9C21,6.2,19.9,5.8,19,6.3
			c-0.6,0.3-1,1-1,1.7v4.4h-4V8c0-1-0.8-1.9-1.9-1.9c-0.7,0-1.4,0.4-1.7,1C9.7,7.1,8.9,7.5,8.3,8l0,0l-5.8,6.4l-0.3,0.4l0,0l0,0
			c-2.4,2.9-2,7.1,0.9,9.5s7.1,2,9.5-0.9c1-1.2,1.6-2.7,1.6-4.3c0-0.2,0-0.3,0-0.5h4c0,0.2,0,0.3,0,0.5c-0.2,3.7,2.7,6.8,6.5,7
			s6.8-2.7,7-6.5C31.6,17.9,31,16.2,29.9,14.9z M18.9,8c0-0.5,0.4-1,1-1c0.2,0,0.4,0.1,0.6,0.2c-0.6,0.2-1.1,0.5-1.6,0.9V8L18.9,8z
			 M18.9,10.9v-0.5C18.9,9.1,20,8,21.3,8c0.6,0,1.2,0.2,1.7,0.7l0,0l3.7,4.1c-2.9-0.9-6.1,0.3-7.7,2.9c0.2-0.9,0.6-1.8,1.3-2.5
			c0.2-0.2,0.2-0.5,0-0.6c-0.1-0.1-0.2-0.1-0.3-0.1h-1.1L18.9,10.9L18.9,10.9z M12.1,7c0.5,0,1,0.5,1,1v0.1c-0.4-0.5-1-0.8-1.6-0.9
			C11.7,7.1,11.9,7,12.1,7z M9,8.6L9,8.6C9.4,8.2,10.1,8,10.7,8c1.4,0,2.4,1.1,2.4,2.5v2h-1c-0.1,0-0.3,0-0.4,0.1
			c-0.2,0.2-0.2,0.5,0,0.6c0,0,0,0,0,0c0.7,0.7,1.1,1.5,1.3,2.5c-1.6-2.6-4.8-3.8-7.7-2.9L9,8.6z M7.3,25c-3.2,0-5.8-2.7-5.8-5.9
			c0-1.4,0.5-2.7,1.4-3.7L3.2,15c2.3-2.3,6-2.3,8.3,0s2.3,6,0,8.3C10.4,24.4,8.9,25,7.3,25z M17.9,16.5v1.2H14v-1.2
			c0-1.1-0.3-2.3-1-3.2h5.9C18.3,14.2,17.9,15.3,17.9,16.5z M24.7,25c-3.2,0-5.9-2.6-5.9-5.8c0-3.2,2.6-5.9,5.8-5.9
			c1.6,0,3.1,0.6,4.2,1.7l0.3,0.3c2.1,2.5,1.8,6.2-0.7,8.2C27.4,24.5,26.1,25,24.7,25z"/>
	</g>
</g>
<g id="lens">
	<g id="lens-2">
		<path class="st1" d="M24.7,14.1c-2.8,0-5.1,2.2-5.1,5s2.2,5.1,5,5.1s5.1-2.2,5.1-5c0,0,0,0,0,0C29.7,16.4,27.4,14.1,24.7,14.1
			C24.7,14.1,24.7,14.1,24.7,14.1z M24.7,23.2c-2.3,0-4.1-1.8-4.1-4.1s1.8-4.1,4.1-4.1c2.3,0,4.1,1.8,4.1,4.1c0,0,0,0,0,0
			C28.7,21.4,26.9,23.2,24.7,23.2L24.7,23.2z"/>
		<path class="st1" d="M7.2,14.1c-2.8,0-5.1,2.2-5.1,5c0,2.8,2.2,5.1,5,5.1s5.1-2.2,5.1-5c0,0,0,0,0,0C12.3,16.4,10,14.1,7.2,14.1
			C7.2,14.1,7.2,14.1,7.2,14.1z M7.2,23.2c-2.3,0-4.1-1.8-4.1-4.1c0-2.3,1.8-4.1,4.1-4.1c2.3,0,4.1,1.8,4.1,4.1c0,0,0,0,0,0
			C11.3,21.4,9.5,23.2,7.2,23.2L7.2,23.2z"/>
	</g>
</g>
</svg>
