<svg id="Layer_1" data-name="Layer 1" xmlns="http://www.w3.org/2000/svg" viewBox="0 0 86.12 86.26"><defs><style>.cls-1{fill:#0fa4d9;}.cls-2{fill:#35414d;}.cls-2,.cls-3,.cls-5{fill-rule:evenodd;}.cls-3,.cls-7{fill:#fff;}.cls-4{opacity:0.2;}.cls-5{fill:#010101;}.cls-6{opacity:0.3;}</style></defs><title>environment-graphics</title><g id="Ellipse_1" data-name="Ellipse 1"><ellipse class="cls-1" cx="43.06" cy="43.13" rx="43.06" ry="43.13"/></g><g id="Rounded_Rectangle_1" data-name="Rounded Rectangle 1"><path class="cls-2" d="M24.18,28.73V82.56A43.1,43.1,0,0,0,82.94,23.73H29.18A5,5,0,0,0,24.18,28.73Z" transform="translate(-2.5 -2)"/></g><g id="Rounded_Rectangle_1_copy_5" data-name="Rounded Rectangle 1 copy 5"><path class="cls-3" d="M34.18,86.72a43.12,43.12,0,0,0,48.76-63H34.18v63Z" transform="translate(-2.5 -2)"/></g><g id="Rounded_Rectangle_9_copy" data-name="Rounded Rectangle 9 copy" class="cls-4"><path class="cls-5" d="M85.5,41.5h-10a1,1,0,0,0-1,1V43a1,1,0,0,0,1,1h10a1,1,0,0,0,1-1V42.5A1,1,0,0,0,85.5,41.5ZM75.5,34H87.17c-0.22-.84-0.48-1.68-0.75-2.5H75.5a1,1,0,0,0-1,1V33A1,1,0,0,0,75.5,34Zm0,5H88.18c-0.12-.84-0.26-1.68-0.42-2.5H75.5a1,1,0,0,0-1,1V38A1,1,0,0,0,75.5,39Z" transform="translate(-2.5 -2)"/></g><g id="Forma_1" data-name="Forma 1"><path class="cls-5" d="M67.6,61.46V60.4h0.45a0.45,0.45,0,0,0,0-.9H60a0.45,0.45,0,1,0,0,.9H60.4v1.06a4.6,4.6,0,0,0,2.17,3.89,4.6,4.6,0,0,0-2.17,3.89V70.3H60a0.45,0.45,0,1,0,0,.9h8.1a0.45,0.45,0,0,0,0-.9H67.6V69.24a4.6,4.6,0,0,0-2.17-3.89A4.6,4.6,0,0,0,67.6,61.46Zm-0.9,7.78V70.3H61.3V69.24a3.75,3.75,0,0,1,2.34-3.44h0.72A3.75,3.75,0,0,1,66.7,69.24ZM64.36,64.9H63.64a3.75,3.75,0,0,1-2.34-3.44V60.4h5.4v1.06A3.75,3.75,0,0,1,64.36,64.9Zm9.08-9.81a7.71,7.71,0,0,0-7.6-7.29A7.93,7.93,0,0,0,59.56,51l-0.1,0-0.27-.12L59,50.73l-0.28-.09-0.16,0-0.31-.06-0.14,0-0.45,0a4.05,4.05,0,0,0-4,4.05c0,0.06,0,.11,0,0.17A6.22,6.22,0,0,0,50.5,60a5.79,5.79,0,0,0,5.78,5.78,0.45,0.45,0,1,0,0-.9A4.89,4.89,0,0,1,51.4,60a5.35,5.35,0,0,1,2.89-4.61l0.26-.12V55c0-.05,0-0.11,0-0.16V54.67s0-.08,0-0.12a3.13,3.13,0,0,1,3.56-3.12l0.1,0,0.36,0.08h0a3.06,3.06,0,0,1,.38.14l0.09,0,0.32,0.18a3.15,3.15,0,0,1,1.44,2.64,0.45,0.45,0,0,0,.9,0,4,4,0,0,0-1.44-3.09,7.13,7.13,0,0,1,5.53-2.76,6.79,6.79,0,0,1,6.68,6.25,8.59,8.59,0,0,0-1.84.06,0.45,0.45,0,0,0,.07.9h0.07a8.29,8.29,0,0,1,2.11,0,4.61,4.61,0,0,1,3.67,4.49,4.52,4.52,0,0,1-4.51,4.51,0.45,0.45,0,0,0,0,.9,5.42,5.42,0,0,0,5.41-5.41A5.54,5.54,0,0,0,73.44,55.09Z" transform="translate(-2.5 -2)"/></g><g id="Rounded_Rectangle_9" data-name="Rounded Rectangle 9" class="cls-4"><path class="cls-5" d="M65.5,31.5h-25a1,1,0,0,0-1,1V33a1,1,0,0,0,1,1h25a1,1,0,0,0,1-1V32.5A1,1,0,0,0,65.5,31.5Zm0,5h-25a1,1,0,0,0-1,1V38a1,1,0,0,0,1,1h25a1,1,0,0,0,1-1V37.5A1,1,0,0,0,65.5,36.5Zm-15,5h-10a1,1,0,0,0-1,1V43a1,1,0,0,0,1,1h10a1,1,0,0,0,1-1V42.5A1,1,0,0,0,50.5,41.5Z" transform="translate(-2.5 -2)"/></g><g id="Rounded_Rectangle_7" data-name="Rounded Rectangle 7" class="cls-6"><path class="cls-7" d="M30.5,31h0v2h-2V31h2m0,6h0v2h-2V37h2m0,6h0v2h-2V43h2m0,6h0v2h-2V49h2m0,6h0v2h-2V55h2m0-25h-2a1,1,0,0,0-1,1v2a1,1,0,0,0,1,1h2a1,1,0,0,0,1-1V31a1,1,0,0,0-1-1h0Zm0,6h-2a1,1,0,0,0-1,1v2a1,1,0,0,0,1,1h2a1,1,0,0,0,1-1V37a1,1,0,0,0-1-1h0Zm0,6h-2a1,1,0,0,0-1,1v2a1,1,0,0,0,1,1h2a1,1,0,0,0,1-1V43a1,1,0,0,0-1-1h0Zm0,6h-2a1,1,0,0,0-1,1v2a1,1,0,0,0,1,1h2a1,1,0,0,0,1-1V49a1,1,0,0,0-1-1h0Zm0,6h-2a1,1,0,0,0-1,1v2a1,1,0,0,0,1,1h2a1,1,0,0,0,1-1V55a1,1,0,0,0-1-1h0Z" transform="translate(-2.5 -2)"/></g></svg>