<svg id="Layer_1" data-name="Layer 1" xmlns="http://www.w3.org/2000/svg" viewBox="0 0 51.3 55.35"><defs><style>.cls-1{fill:#217aa0;}.cls-1,.cls-3,.cls-4{fill-rule:evenodd;}.cls-2{fill:#35414d;}.cls-3{fill:#62c3ef;}.cls-4{fill:#29a4da;}.cls-5{fill:#01a3d9;}.cls-6{fill:#f26822;}.cls-7{fill:#8dc641;}</style></defs><title>mail-graphics</title><g id="Rounded_Rectangle_1" data-name="Rounded Rectangle 1"><path class="cls-1" d="M55,22.13L31.52,4.54a2.68,2.68,0,0,0-3,0L5,22.13a1.34,1.34,0,0,0,0,2.27L28.48,42a2.68,2.68,0,0,0,3,0L55,24.39A1.34,1.34,0,0,0,55,22.13Z" transform="translate(-4.35 -4.07)"/></g><g id="Rectangle_2" data-name="Rectangle 2"><rect class="cls-2" x="4.22" y="7.06" width="42.64" height="31.75"/></g><g id="Shape_3" data-name="Shape 3"><polygon class="cls-3" points="0 19.41 0 54.25 23.1 36.83 0 19.41"/></g><g id="Shape_3_copy" data-name="Shape 3 copy"><polygon class="cls-3" points="27.54 37.05 51.3 54.25 51.3 19.41 27.54 37.05"/></g><g id="Shape_4" data-name="Shape 4"><path class="cls-4" d="M32.7,41.12A4.68,4.68,0,0,0,30,39.8a5.36,5.36,0,0,0-2.93,1.32L4.35,57.88a1.75,1.75,0,0,0,1.58,1.54H54.3a2.47,2.47,0,0,0,1.35-2.21Z" transform="translate(-4.35 -4.07)"/></g><path class="cls-5" d="M28.8,21.54l-0.17.08a1.73,1.73,0,0,1-1.82-.41,5.42,5.42,0,0,1-1-1.4,8.11,8.11,0,0,1-.41-1.32c-0.41-1.73.33-2.81,1.16-2.89,0.58-.08,1.32.25,1.4,1.9s-0.17,3.05.66,3.88l0.17,0.17" transform="translate(-4.35 -4.07)"/><path class="cls-5" d="M29.62,22.61c2.72-.25,5-2.81,5.53-3.71,0.83-1.73.58-2.81-.41-3.05s-1.82.33-2.56,1.9-1.4,3.38-3.05,4.13a2.55,2.55,0,0,1-1.73.17,3,3,0,0,0,2.23.58" transform="translate(-4.35 -4.07)"/><path class="cls-6" d="M26.07,24.51h0l0.08-.17a3.09,3.09,0,0,0-1.16-3c-0.25-.25-0.58-0.41-0.74-0.58a2.91,2.91,0,0,0-1.16-.25c-1.4-.08-2.31.58-2.23,1.4a1.53,1.53,0,0,0,1.82,1.4c1.49,0.17,2.56.33,3.38,1.16" transform="translate(-4.35 -4.07)"/><path class="cls-6" d="M26.32,22.36a4.27,4.27,0,0,1,.25,2.56c-0.41,1.4-1.82,2.31-3.05,3a2.2,2.2,0,0,0-1.4,2.23,1.91,1.91,0,0,0,2.56.58,5.16,5.16,0,0,0,2.89-5c-0.25-2.64-1.24-3.38-1.24-3.38" transform="translate(-4.35 -4.07)"/><path class="cls-7" d="M28.63,27.31a4.68,4.68,0,0,1,1.9-2.06C33.09,24,37,26.57,37.38,26.82c0.58,0.33,2.23.83,2.89-.58,0.58-1.16-.17-1.9-1.16-2.56-1.57-1-6.68-2.72-9.57,1.32a6.91,6.91,0,0,0-.91,2.31" transform="translate(-4.35 -4.07)"/><path class="cls-7" d="M33.42,31.52c-0.41-.58-3.14-2.72-3.05-5.45V25.83l-0.17.08a3.15,3.15,0,0,0-1.57,2.31,2.75,2.75,0,0,0,.08,1.4,8.39,8.39,0,0,0,1.9,3.71c1.24,1.24,2.31,1.4,2.89.74a2,2,0,0,0-.08-2.56" transform="translate(-4.35 -4.07)"/></svg>